999
Creator: CLJ++
0
SECTION
2
HEADER
9
$ACADVER
1
AC1009
9
$EXTMIN
10
0
20
0
9
$EXTMAX
10
175
20
37
9
$LIMMIN
10
0
20
0
9
$LIMMAX
10
175
20
37
0
ENDSEC
0
SECTION
2
TABLES
0
TABLE
2
VPORT
70
1
0
VPORT
2
*Active
70
0
10
0
20
0
11
1
21
1
12
87.5
22
18.5
13
0
23
0
14
0.5
24
0.5
15
0.5
25
0.5
16
0
26
0
36
1
17
0
27
0
37
0
40
37
41
1
42
50
43
0
44
0
50
0
51
0
71
0
72
1
73
1
74
3
75
0
76
0
77
0
78
0
0
ENDTAB
0
TABLE
2
LTYPE
70
1
0
LTYPE
2
CONTINUOUS
70
0
3
Solid line
72
65
73
0
40
0
0
ENDTAB
0
TABLE
2
LAYER
70
4
0
LAYER
2
0
70
0
62
255
6
CONTINUOUS
0
LAYER
2
PART
70
0
62
3
6
CONTINUOUS
0
LAYER
2
TEXT
70
0
62
2
6
CONTINUOUS
0
LAYER
2
PLATE
70
0
62
4
6
CONTINUOUS
0
ENDTAB
0
ENDSEC
0
SECTION
2
ENTITIES
0
POLYLINE
8
PART
10
0
20
0
66
1
70
1
62
1
0
VERTEX
8
PART
10
103.997
20
29.2662
0
VERTEX
8
PART
10
102.761
20
29.3114
0
VERTEX
8
PART
10
102.575
20
29.324
0
VERTEX
8
PART
10
102.379
20
29.3499
0
VERTEX
8
PART
10
101.673
20
29.4774
0
VERTEX
8
PART
10
100.967
20
29.6198
0
VERTEX
8
PART
10
100.865
20
29.6331
0
VERTEX
8
PART
10
100.793
20
29.6515
0
VERTEX
8
PART
10
99.646
20
29.7732
0
VERTEX
8
PART
10
99.3703
20
29.9121
0
VERTEX
8
PART
10
99.191
20
30.0487
0
VERTEX
8
PART
10
98.079
20
30.9135
0
VERTEX
8
PART
10
98.0761
20
32.3446
0
VERTEX
8
PART
10
98.0605
20
34.0805
0
VERTEX
8
PART
10
98.0617
20
34.743
0
VERTEX
8
PART
10
98.0591
20
35.3539
0
VERTEX
8
PART
10
100.356
20
35.9848
0
VERTEX
8
PART
10
101.21
20
36.2512
0
VERTEX
8
PART
10
107.369
20
36.2026
0
VERTEX
8
PART
10
107.877
20
36.2016
0
VERTEX
8
PART
10
107.953
20
36.1771
0
VERTEX
8
PART
10
109.668
20
35.4658
0
VERTEX
8
PART
10
109.894
20
32.439
0
VERTEX
8
PART
10
109.994
20
30.5121
0
VERTEX
8
PART
10
109.375
20
30.2678
0
VERTEX
8
PART
10
107.484
20
29.5133
0
VERTEX
8
PART
10
107.229
20
29.4732
0
VERTEX
8
PART
10
107.182
20
29.4639
0
VERTEX
8
PART
10
106.024
20
29.3376
0
VERTEX
8
PART
10
105.847
20
29.3173
0
VERTEX
8
PART
10
104.198
20
29.2789
0
SEQEND
0
TEXT
8
TEXT
10
96.8914
20
29.9476
40
5
1
1.1
0
ENDSEC
0
EOF
