999
Creator: CLJ++
0
SECTION
2
HEADER
9
$ACADVER
1
AC1009
9
$EXTMIN
10
0
20
0
9
$EXTMAX
10
175
20
37
9
$LIMMIN
10
0
20
0
9
$LIMMAX
10
175
20
37
0
ENDSEC
0
SECTION
2
TABLES
0
TABLE
2
VPORT
70
1
0
VPORT
2
*Active
70
0
10
0
20
0
11
1
21
1
12
87.5
22
18.5
13
0
23
0
14
0.5
24
0.5
15
0.5
25
0.5
16
0
26
0
36
1
17
0
27
0
37
0
40
37
41
1
42
50
43
0
44
0
50
0
51
0
71
0
72
1
73
1
74
3
75
0
76
0
77
0
78
0
0
ENDTAB
0
TABLE
2
LTYPE
70
1
0
LTYPE
2
CONTINUOUS
70
0
3
Solid line
72
65
73
0
40
0
0
ENDTAB
0
TABLE
2
LAYER
70
1
0
LAYER
2
0
70
0
62
255
6
CONTINUOUS
0
ENDTAB
0
ENDSEC
0
SECTION
2
ENTITIES
0
POLYLINE
8
0
10
0
20
0
66
1
70
1
62
1
0
VERTEX
8
0
10
103.651
20
28.9823
0
VERTEX
8
0
10
102.822
20
29.0126
0
VERTEX
8
0
10
102.135
20
29.0591
0
VERTEX
8
0
10
101.412
20
29.1544
0
VERTEX
8
0
10
100.973
20
29.2338
0
VERTEX
8
0
10
100.534
20
29.3225
0
VERTEX
8
0
10
100.018
20
29.3899
0
VERTEX
8
0
10
99.652
20
29.4832
0
VERTEX
8
0
10
99.0692
20
29.545
0
VERTEX
8
0
10
98.6075
20
29.6311
0
VERTEX
8
0
10
98.5565
20
29.5559
0
VERTEX
8
0
10
98.154
20
28.9636
0
VERTEX
8
0
10
98.144
20
28.9569
0
VERTEX
8
0
10
98.0669
20
29.0695
0
VERTEX
8
0
10
96.8229
20
30.6441
0
VERTEX
8
0
10
96.838
20
32.7954
0
VERTEX
8
0
10
96.8409
20
36.0495
0
VERTEX
8
0
10
97.1783
20
36.1026
0
VERTEX
8
0
10
97.5196
20
36.147
0
VERTEX
8
0
10
100.97
20
36.7172
0
VERTEX
8
0
10
102.07
20
36.8983
0
VERTEX
8
0
10
105.733
20
36.7969
0
VERTEX
8
0
10
106.038
20
36.791
0
VERTEX
8
0
10
107.596
20
36.5252
0
VERTEX
8
0
10
110.282
20
36.0654
0
VERTEX
8
0
10
110.835
20
35.9756
0
VERTEX
8
0
10
110.771
20
33.3538
0
VERTEX
8
0
10
110.696
20
30.3005
0
VERTEX
8
0
10
109.232
20
29.1668
0
VERTEX
8
0
10
109.199
20
29.1472
0
VERTEX
8
0
10
108.895
20
29.513
0
VERTEX
8
0
10
108.668
20
29.4868
0
VERTEX
8
0
10
108.039
20
29.4162
0
VERTEX
8
0
10
107.563
20
29.3412
0
VERTEX
8
0
10
106.952
20
29.2192
0
VERTEX
8
0
10
106.207
20
29.1379
0
VERTEX
8
0
10
105.464
20
29.0526
0
VERTEX
8
0
10
104.359
20
29.0269
0
SEQEND
0
TEXT
8
0
10
96.711
20
30.71
40
5
1
2.1
0
ENDSEC
0
EOF
