999
Creator: CLJ++
0
SECTION
2
HEADER
9
$ACADVER
1
AC1009
9
$EXTMIN
10
0
20
0
9
$EXTMAX
10
175
20
37
9
$LIMMIN
10
0
20
0
9
$LIMMAX
10
175
20
37
0
ENDSEC
0
SECTION
2
TABLES
0
TABLE
2
VPORT
70
1
0
VPORT
2
*Active
70
0
10
0
20
0
11
1
21
1
12
87.5
22
18.5
13
0
23
0
14
0.5
24
0.5
15
0.5
25
0.5
16
0
26
0
36
1
17
0
27
0
37
0
40
37
41
1
42
50
43
0
44
0
50
0
51
0
71
0
72
1
73
1
74
3
75
0
76
0
77
0
78
0
0
ENDTAB
0
TABLE
2
LTYPE
70
1
0
LTYPE
2
CONTINUOUS
70
0
3
Solid line
72
65
73
0
40
0
0
ENDTAB
0
TABLE
2
LAYER
70
1
0
LAYER
2
0
70
0
62
255
6
CONTINUOUS
0
ENDTAB
0
ENDSEC
0
SECTION
2
ENTITIES
0
POLYLINE
8
0
10
0
20
0
66
1
70
1
62
1
0
VERTEX
8
0
10
70.6579
20
29.5907
0
VERTEX
8
0
10
70.4112
20
29.5651
0
VERTEX
8
0
10
70.2231
20
29.5351
0
VERTEX
8
0
10
70.2087
20
29.5321
0
VERTEX
8
0
10
70.1932
20
29.5308
0
VERTEX
8
0
10
70.1511
20
29.5309
0
VERTEX
8
0
10
68.4444
20
29.528
0
VERTEX
8
0
10
66.9375
20
29.5255
0
VERTEX
8
0
10
66.8797
20
29.5332
0
VERTEX
8
0
10
66.4251
20
29.6023
0
VERTEX
8
0
10
64.695
20
30.2414
0
VERTEX
8
0
10
63.3606
20
30.7312
0
VERTEX
8
0
10
63.5
20
32.4411
0
VERTEX
8
0
10
63.5212
20
35.1347
0
VERTEX
8
0
10
63.6609
20
35.2283
0
VERTEX
8
0
10
63.8987
20
35.3922
0
VERTEX
8
0
10
64.7119
20
35.9366
0
VERTEX
8
0
10
67.1776
20
35.8151
0
VERTEX
8
0
10
72.0671
20
35.5776
0
VERTEX
8
0
10
73.1559
20
34.8822
0
VERTEX
8
0
10
73.1795
20
34.8685
0
VERTEX
8
0
10
73.1875
20
34.862
0
VERTEX
8
0
10
73.2053
20
34.8521
0
VERTEX
8
0
10
73.2232
20
34.6119
0
VERTEX
8
0
10
73.4532
20
31.2837
0
VERTEX
8
0
10
71.0445
20
29.7482
0
SEQEND
0
TEXT
8
0
10
61.1956
20
30.5056
40
5
1
3.1
0
POLYLINE
8
0
10
0
20
0
66
1
70
1
62
1
0
VERTEX
8
0
10
103.306
20
28.6985
0
VERTEX
8
0
10
102.882
20
28.7139
0
VERTEX
8
0
10
101.695
20
28.7943
0
VERTEX
8
0
10
100.446
20
28.959
0
VERTEX
8
0
10
100.273
20
28.9902
0
VERTEX
8
0
10
100.1
20
29.0251
0
VERTEX
8
0
10
99.171
20
29.1467
0
VERTEX
8
0
10
98.895
20
29.217
0
VERTEX
8
0
10
98.5374
20
28.5965
0
VERTEX
8
0
10
98.4448
20
28.4538
0
VERTEX
8
0
10
98.3213
20
28.4537
0
VERTEX
8
0
10
97.8129
20
28.4531
0
VERTEX
8
0
10
96.8051
20
29.4903
0
VERTEX
8
0
10
95.8456
20
30.3746
0
VERTEX
8
0
10
95.8506
20
32.7593
0
VERTEX
8
0
10
95.8441
20
36.199
0
VERTEX
8
0
10
96.1345
20
36.2455
0
VERTEX
8
0
10
97.172
20
36.4179
0
VERTEX
8
0
10
99.6316
20
36.8233
0
VERTEX
8
0
10
100.307
20
36.9404
0
VERTEX
8
0
10
104.311
20
36.7876
0
VERTEX
8
0
10
106.531
20
36.7092
0
VERTEX
8
0
10
108.856
20
36.3026
0
VERTEX
8
0
10
110.888
20
35.9633
0
VERTEX
8
0
10
110.855
20
30.9301
0
VERTEX
8
0
10
110.849
20
30.0787
0
VERTEX
8
0
10
110.714
20
29.9542
0
VERTEX
8
0
10
109.152
20
28.5297
0
VERTEX
8
0
10
108.884
20
28.5285
0
VERTEX
8
0
10
108.761
20
28.5266
0
VERTEX
8
0
10
108.599
20
28.7687
0
VERTEX
8
0
10
108.348
20
29.1845
0
VERTEX
8
0
10
108.275
20
29.2571
0
VERTEX
8
0
10
108.151
20
29.2428
0
VERTEX
8
0
10
108.006
20
29.2265
0
VERTEX
8
0
10
107.896
20
29.2092
0
VERTEX
8
0
10
106.722
20
28.9744
0
VERTEX
8
0
10
106.39
20
28.9382
0
VERTEX
8
0
10
105.081
20
28.7879
0
VERTEX
8
0
10
104.521
20
28.7749
0
SEQEND
0
TEXT
8
0
10
94.6323
20
30.4753
40
5
1
3.2
0
ENDSEC
0
EOF
