999
Creator: CLJ++
0
SECTION
2
HEADER
9
$ACADVER
1
AC1009
9
$EXTMIN
10
0
20
0
9
$EXTMAX
10
175
20
37
9
$LIMMIN
10
0
20
0
9
$LIMMAX
10
175
20
37
0
ENDSEC
0
SECTION
2
TABLES
0
TABLE
2
VPORT
70
1
0
VPORT
2
*Active
70
0
10
0
20
0
11
1
21
1
12
87.5
22
18.5
13
0
23
0
14
0.5
24
0.5
15
0.5
25
0.5
16
0
26
0
36
1
17
0
27
0
37
0
40
37
41
1
42
50
43
0
44
0
50
0
51
0
71
0
72
1
73
1
74
3
75
0
76
0
77
0
78
0
0
ENDTAB
0
TABLE
2
LTYPE
70
1
0
LTYPE
2
CONTINUOUS
70
0
3
Solid line
72
65
73
0
40
0
0
ENDTAB
0
TABLE
2
LAYER
70
1
0
LAYER
2
0
70
0
62
255
6
CONTINUOUS
0
ENDTAB
0
ENDSEC
0
SECTION
2
ENTITIES
0
POLYLINE
8
0
10
0
20
0
66
1
70
1
62
1
0
VERTEX
8
0
10
65.1365
20
29.4741
0
VERTEX
8
0
10
64.6435
20
29.6301
0
VERTEX
8
0
10
63.7576
20
29.8641
0
VERTEX
8
0
10
63.6946
20
29.8829
0
VERTEX
8
0
10
63.6273
20
29.8936
0
VERTEX
8
0
10
63.4656
20
29.7605
0
VERTEX
8
0
10
62.0786
20
30.4795
0
VERTEX
8
0
10
61.9292
20
30.5696
0
VERTEX
8
0
10
61.931
20
30.8024
0
VERTEX
8
0
10
61.9334
20
31.3971
0
VERTEX
8
0
10
61.9647
20
33.8583
0
VERTEX
8
0
10
61.9735
20
34.8878
0
VERTEX
8
0
10
63.8974
20
35.8122
0
VERTEX
8
0
10
65.6969
20
36.6481
0
VERTEX
8
0
10
68.6657
20
36.5213
0
VERTEX
8
0
10
71.4367
20
36.3967
0
VERTEX
8
0
10
74.4324
20
34.9727
0
VERTEX
8
0
10
75.131
20
34.6394
0
VERTEX
8
0
10
75.1331
20
34.5602
0
VERTEX
8
0
10
75.2011
20
30.9681
0
VERTEX
8
0
10
73.8966
20
29.7614
0
VERTEX
8
0
10
73.6468
20
29.5462
0
VERTEX
8
0
10
73.292
20
29.7081
0
VERTEX
8
0
10
73.1535
20
29.773
0
VERTEX
8
0
10
73.1343
20
29.7845
0
VERTEX
8
0
10
72.537
20
29.6069
0
VERTEX
8
0
10
72.0973
20
29.4482
0
VERTEX
8
0
10
71.1071
20
29.29
0
VERTEX
8
0
10
70.7515
20
29.215
0
VERTEX
8
0
10
70.3673
20
29.1831
0
VERTEX
8
0
10
69.3234
20
29.1874
0
VERTEX
8
0
10
68.1674
20
29.1854
0
VERTEX
8
0
10
67.1468
20
29.1837
0
VERTEX
8
0
10
66.3628
20
29.2876
0
SEQEND
0
TEXT
8
0
10
61.948
20
30.0597
40
5
1
4.1
0
POLYLINE
8
0
10
0
20
0
66
1
70
1
62
1
0
VERTEX
8
0
10
102.96
20
28.4146
0
VERTEX
8
0
10
102.942
20
28.4152
0
VERTEX
8
0
10
102.381
20
28.4532
0
VERTEX
8
0
10
100.682
20
28.1425
0
VERTEX
8
0
10
100.56
20
28.1062
0
VERTEX
8
0
10
100.535
20
28.0867
0
VERTEX
8
0
10
98.121
20
28.1236
0
VERTEX
8
0
10
97.5173
20
28.1124
0
VERTEX
8
0
10
96.6264
20
28.8839
0
VERTEX
8
0
10
95.1858
20
30.1049
0
VERTEX
8
0
10
95.1904
20
32.4461
0
VERTEX
8
0
10
95.1839
20
36.1309
0
VERTEX
8
0
10
95.3197
20
36.1534
0
VERTEX
8
0
10
95.9195
20
36.252
0
VERTEX
8
0
10
98.9291
20
36.7494
0
VERTEX
8
0
10
99.6107
20
36.8609
0
VERTEX
8
0
10
104.273
20
36.6931
0
VERTEX
8
0
10
106.618
20
36.605
0
VERTEX
8
0
10
108.841
20
36.2846
0
VERTEX
8
0
10
111.002
20
35.98
0
VERTEX
8
0
10
110.957
20
30.3538
0
VERTEX
8
0
10
110.953
20
29.8561
0
VERTEX
8
0
10
110.811
20
29.7503
0
VERTEX
8
0
10
108.743
20
28.1247
0
VERTEX
8
0
10
108.177
20
28.136
0
VERTEX
8
0
10
106.552
20
28.2028
0
VERTEX
8
0
10
106.374
20
28.331
0
VERTEX
8
0
10
104.929
20
28.5497
0
VERTEX
8
0
10
104.698
20
28.5233
0
VERTEX
8
0
10
104.682
20
28.5229
0
SEQEND
0
TEXT
8
0
10
94.9612
20
29.703
40
5
1
4.2
0
ENDSEC
0
EOF
