999
Creator: CLJ++
0
SECTION
2
HEADER
9
$ACADVER
1
AC1009
9
$EXTMIN
10
0
20
0
9
$EXTMAX
10
175
20
37
9
$LIMMIN
10
0
20
0
9
$LIMMAX
10
175
20
37
0
ENDSEC
0
SECTION
2
TABLES
0
TABLE
2
VPORT
70
1
0
VPORT
2
*Active
70
0
10
0
20
0
11
1
21
1
12
87.5
22
18.5
13
0
23
0
14
0.5
24
0.5
15
0.5
25
0.5
16
0
26
0
36
1
17
0
27
0
37
0
40
37
41
1
42
50
43
0
44
0
50
0
51
0
71
0
72
1
73
1
74
3
75
0
76
0
77
0
78
0
0
ENDTAB
0
TABLE
2
LTYPE
70
1
0
LTYPE
2
CONTINUOUS
70
0
3
Solid line
72
65
73
0
40
0
0
ENDTAB
0
TABLE
2
LAYER
70
1
0
LAYER
2
0
70
0
62
255
6
CONTINUOUS
0
ENDTAB
0
ENDSEC
0
SECTION
2
ENTITIES
0
POLYLINE
8
0
10
0
20
0
66
1
70
1
62
1
0
VERTEX
8
0
10
135.289
20
29.9861
0
VERTEX
8
0
10
134.782
20
30.044
0
VERTEX
8
0
10
133.944
20
30.109
0
VERTEX
8
0
10
133.434
20
30.1825
0
VERTEX
8
0
10
132.672
20
30.347
0
VERTEX
8
0
10
131.963
20
30.5171
0
VERTEX
8
0
10
132.091
20
31.5334
0
VERTEX
8
0
10
132.184
20
32.3756
0
VERTEX
8
0
10
132.33
20
33.2594
0
VERTEX
8
0
10
132.556
20
34.6109
0
VERTEX
8
0
10
132.762
20
34.65
0
VERTEX
8
0
10
133.449
20
34.7667
0
VERTEX
8
0
10
133.79
20
34.7879
0
VERTEX
8
0
10
135.17
20
34.8083
0
VERTEX
8
0
10
137.01
20
34.689
0
VERTEX
8
0
10
137.627
20
34.6675
0
VERTEX
8
0
10
139.271
20
34.5451
0
VERTEX
8
0
10
139.681
20
32.9956
0
VERTEX
8
0
10
140.298
20
30.6639
0
VERTEX
8
0
10
138.726
20
30.2629
0
VERTEX
8
0
10
138.138
20
30.1971
0
VERTEX
8
0
10
137.071
20
30.0044
0
VERTEX
8
0
10
136.398
20
29.9584
0
SEQEND
0
TEXT
8
0
10
129.983
20
29.5394
40
5
1
5.1
0
POLYLINE
8
0
10
0
20
0
66
1
70
1
62
1
0
VERTEX
8
0
10
96.7623
20
28.034
0
VERTEX
8
0
10
96.3755
20
28.3666
0
VERTEX
8
0
10
94.668
20
29.8351
0
VERTEX
8
0
10
94.6827
20
32.0983
0
VERTEX
8
0
10
94.6947
20
35.7931
0
VERTEX
8
0
10
94.6955
20
35.9843
0
VERTEX
8
0
10
94.6957
20
36.0973
0
VERTEX
8
0
10
98.2754
20
36.7058
0
VERTEX
8
0
10
98.9149
20
36.8125
0
VERTEX
8
0
10
104.748
20
36.6012
0
VERTEX
8
0
10
106.705
20
36.5292
0
VERTEX
8
0
10
108.071
20
36.3414
0
VERTEX
8
0
10
110.977
20
35.9462
0
VERTEX
8
0
10
110.938
20
32.6508
0
VERTEX
8
0
10
110.896
20
29.6306
0
VERTEX
8
0
10
109.18
20
28.3145
0
VERTEX
8
0
10
108.829
20
28.0477
0
VERTEX
8
0
10
108.504
20
27.7841
0
VERTEX
8
0
10
108.248
20
27.7374
0
VERTEX
8
0
10
106.146
20
27.4349
0
VERTEX
8
0
10
103.984
20
27.4346
0
VERTEX
8
0
10
100.525
20
27.4341
0
VERTEX
8
0
10
97.4846
20
27.7395
0
VERTEX
8
0
10
97.0711
20
27.7715
0
SEQEND
0
TEXT
8
0
10
95.6881
20
29.3104
40
5
1
5.2
0
POLYLINE
8
0
10
0
20
0
66
1
70
1
62
1
0
VERTEX
8
0
10
65.2824
20
29.1278
0
VERTEX
8
0
10
64.153
20
29.4852
0
VERTEX
8
0
10
64.0362
20
29.516
0
VERTEX
8
0
10
63.9368
20
29.5457
0
VERTEX
8
0
10
63.6815
20
29.0901
0
VERTEX
8
0
10
63.5156
20
28.8168
0
VERTEX
8
0
10
63.3117
20
28.8201
0
VERTEX
8
0
10
63.1747
20
28.8208
0
VERTEX
8
0
10
62.5557
20
29.4339
0
VERTEX
8
0
10
61.2901
20
30.7167
0
VERTEX
8
0
10
61.2971
20
32.6944
0
VERTEX
8
0
10
61.2971
20
34.8071
0
VERTEX
8
0
10
62.2249
20
35.2688
0
VERTEX
8
0
10
64.3571
20
36.3134
0
VERTEX
8
0
10
65.4423
20
36.8136
0
VERTEX
8
0
10
67.8569
20
36.7714
0
VERTEX
8
0
10
71.6832
20
36.7039
0
VERTEX
8
0
10
74.0706
20
35.6002
0
VERTEX
8
0
10
76.1028
20
34.549
0
VERTEX
8
0
10
76.1101
20
31.0502
0
VERTEX
8
0
10
76.1109
20
30.6311
0
VERTEX
8
0
10
75.9688
20
30.5078
0
VERTEX
8
0
10
74.1338
20
28.877
0
VERTEX
8
0
10
73.7827
20
28.843
0
VERTEX
8
0
10
73.4295
20
29.0679
0
VERTEX
8
0
10
73.0228
20
29.3474
0
VERTEX
8
0
10
72.3381
20
29.1003
0
VERTEX
8
0
10
71.9912
20
29.0448
0
VERTEX
8
0
10
71.2943
20
28.8979
0
VERTEX
8
0
10
70.5414
20
28.8355
0
VERTEX
8
0
10
68.4958
20
28.8438
0
VERTEX
8
0
10
67.8905
20
28.8427
0
VERTEX
8
0
10
67.3561
20
28.8418
0
VERTEX
8
0
10
65.846
20
29.0421
0
SEQEND
0
TEXT
8
0
10
61.0882
20
30.5972
40
5
1
5.3
0
ENDSEC
0
EOF
