999
Creator: CLJ++
0
SECTION
2
HEADER
9
$ACADVER
1
AC1009
9
$EXTMIN
10
0
20
0
9
$EXTMAX
10
175
20
37
9
$LIMMIN
10
0
20
0
9
$LIMMAX
10
175
20
37
0
ENDSEC
0
SECTION
2
TABLES
0
TABLE
2
VPORT
70
1
0
VPORT
2
*Active
70
0
10
0
20
0
11
1
21
1
12
87.5
22
18.5
13
0
23
0
14
0.5
24
0.5
15
0.5
25
0.5
16
0
26
0
36
1
17
0
27
0
37
0
40
37
41
1
42
50
43
0
44
0
50
0
51
0
71
0
72
1
73
1
74
3
75
0
76
0
77
0
78
0
0
ENDTAB
0
TABLE
2
LTYPE
70
1
0
LTYPE
2
CONTINUOUS
70
0
3
Solid line
72
65
73
0
40
0
0
ENDTAB
0
TABLE
2
LAYER
70
1
0
LAYER
2
0
70
0
62
255
6
CONTINUOUS
0
ENDTAB
0
ENDSEC
0
SECTION
2
ENTITIES
0
POLYLINE
8
0
10
0
20
0
66
1
70
1
62
1
0
VERTEX
8
0
10
94.2183
20
36.0182
0
VERTEX
8
0
10
97.6716
20
36.6289
0
VERTEX
8
0
10
98.2182
20
36.7241
0
VERTEX
8
0
10
105.109
20
36.4804
0
VERTEX
8
0
10
106.792
20
36.4196
0
VERTEX
8
0
10
109.897
20
36.0013
0
VERTEX
8
0
10
110.744
20
35.8869
0
VERTEX
8
0
10
110.706
20
33.6948
0
VERTEX
8
0
10
110.624
20
29.4011
0
VERTEX
8
0
10
109.363
20
28.3403
0
VERTEX
8
0
10
108.852
20
27.9148
0
VERTEX
8
0
10
108.331
20
27.4342
0
VERTEX
8
0
10
107.688
20
27.2849
0
VERTEX
8
0
10
105.989
20
26.9599
0
VERTEX
8
0
10
100.96
20
26.9341
0
VERTEX
8
0
10
100.025
20
26.9339
0
VERTEX
8
0
10
98.8429
20
27.1026
0
VERTEX
8
0
10
96.6541
20
27.3892
0
VERTEX
8
0
10
95.1702
20
28.6912
0
VERTEX
8
0
10
94.203
20
29.5653
0
VERTEX
8
0
10
94.2117
20
31.4078
0
VERTEX
8
0
10
94.2142
20
35.6383
0
VERTEX
8
0
10
94.2171
20
35.8721
0
SEQEND
0
TEXT
8
0
10
93.8844
20
29.614
40
5
1
6.1
0
POLYLINE
8
0
10
0
20
0
66
1
70
1
62
1
0
VERTEX
8
0
10
66.7167
20
28.6126
0
VERTEX
8
0
10
65.7663
20
28.78
0
VERTEX
8
0
10
65.5371
20
28.6833
0
VERTEX
8
0
10
64.9748
20
28.3258
0
VERTEX
8
0
10
64.2016
20
28.431
0
VERTEX
8
0
10
63.6703
20
28.3925
0
VERTEX
8
0
10
63.1878
20
28.3951
0
VERTEX
8
0
10
62.1887
20
29.3353
0
VERTEX
8
0
10
61.0666
20
30.3869
0
VERTEX
8
0
10
61.0629
20
30.9499
0
VERTEX
8
0
10
61.0501
20
32.3366
0
VERTEX
8
0
10
61.0455
20
34.0536
0
VERTEX
8
0
10
61.0418
20
34.6915
0
VERTEX
8
0
10
62.2025
20
35.2855
0
VERTEX
8
0
10
64.9097
20
36.7033
0
VERTEX
8
0
10
67.9637
20
36.649
0
VERTEX
8
0
10
72.9927
20
36.5614
0
VERTEX
8
0
10
74.353
20
35.8053
0
VERTEX
8
0
10
75.0187
20
35.4447
0
VERTEX
8
0
10
76.5073
20
34.6327
0
VERTEX
8
0
10
76.8935
20
34.4208
0
VERTEX
8
0
10
76.9187
20
30.5536
0
VERTEX
8
0
10
76.9194
20
30.2946
0
VERTEX
8
0
10
76.8602
20
30.248
0
VERTEX
8
0
10
74.5293
20
28.3239
0
VERTEX
8
0
10
73.6171
20
28.3279
0
VERTEX
8
0
10
72.0218
20
28.1992
0
VERTEX
8
0
10
71.8301
20
28.2438
0
VERTEX
8
0
10
70.7319
20
28.4892
0
VERTEX
8
0
10
70.7155
20
28.4878
0
VERTEX
8
0
10
67.6682
20
28.5002
0
VERTEX
8
0
10
67.6136
20
28.5001
0
VERTEX
8
0
10
67.5653
20
28.5
0
SEQEND
0
TEXT
8
0
10
64.0339
20
29.6992
40
5
1
6.2
0
POLYLINE
8
0
10
0
20
0
66
1
70
1
62
1
0
VERTEX
8
0
10
134.552
20
29.064
0
VERTEX
8
0
10
134.169
20
29.0896
0
VERTEX
8
0
10
133.872
20
29.1226
0
VERTEX
8
0
10
133.634
20
29.1423
0
VERTEX
8
0
10
132.745
20
29.1817
0
VERTEX
8
0
10
132.682
20
29.1915
0
VERTEX
8
0
10
132.467
20
29.2452
0
VERTEX
8
0
10
132.268
20
29.1724
0
VERTEX
8
0
10
131.813
20
29.2993
0
VERTEX
8
0
10
130.985
20
29.6702
0
VERTEX
8
0
10
130.287
20
29.954
0
VERTEX
8
0
10
130.013
20
30.1107
0
VERTEX
8
0
10
130.012
20
30.9823
0
VERTEX
8
0
10
130.009
20
32.8069
0
VERTEX
8
0
10
130.013
20
34.4928
0
VERTEX
8
0
10
133.131
20
35.9229
0
VERTEX
8
0
10
133.767
20
36.2279
0
VERTEX
8
0
10
134.305
20
36.1801
0
VERTEX
8
0
10
141.307
20
35.5549
0
VERTEX
8
0
10
141.476
20
35.4735
0
VERTEX
8
0
10
143.418
20
34.5286
0
VERTEX
8
0
10
143.527
20
32.4912
0
VERTEX
8
0
10
143.636
20
30.4606
0
VERTEX
8
0
10
141.792
20
29.5137
0
VERTEX
8
0
10
141.532
20
29.379
0
VERTEX
8
0
10
141.165
20
29.2107
0
VERTEX
8
0
10
139.814
20
29.0387
0
VERTEX
8
0
10
139.616
20
29.0159
0
VERTEX
8
0
10
138.162
20
28.9295
0
VERTEX
8
0
10
137.826
20
28.907
0
VERTEX
8
0
10
136.448
20
28.9661
0
VERTEX
8
0
10
136.029
20
28.9769
0
SEQEND
0
TEXT
8
0
10
129.762
20
29.725
40
5
1
6.3
0
ENDSEC
0
EOF
