999
Creator: CLJ++
0
SECTION
2
HEADER
9
$ACADVER
1
AC1009
9
$EXTMIN
10
0
20
0
9
$EXTMAX
10
175
20
37
9
$LIMMIN
10
0
20
0
9
$LIMMAX
10
175
20
37
0
ENDSEC
0
SECTION
2
TABLES
0
TABLE
2
VPORT
70
1
0
VPORT
2
*Active
70
0
10
0
20
0
11
1
21
1
12
87.5
22
18.5
13
0
23
0
14
0.5
24
0.5
15
0.5
25
0.5
16
0
26
0
36
1
17
0
27
0
37
0
40
37
41
1
42
50
43
0
44
0
50
0
51
0
71
0
72
1
73
1
74
3
75
0
76
0
77
0
78
0
0
ENDTAB
0
TABLE
2
LTYPE
70
1
0
LTYPE
2
CONTINUOUS
70
0
3
Solid line
72
65
73
0
40
0
0
ENDTAB
0
TABLE
2
LAYER
70
1
0
LAYER
2
0
70
0
62
255
6
CONTINUOUS
0
ENDTAB
0
ENDSEC
0
SECTION
2
ENTITIES
0
POLYLINE
8
0
10
0
20
0
66
1
70
1
62
1
0
VERTEX
8
0
10
67.6386
20
27.3763
0
VERTEX
8
0
10
66.9218
20
27.4463
0
VERTEX
8
0
10
64.1747
20
27.8845
0
VERTEX
8
0
10
63.2889
20
27.9689
0
VERTEX
8
0
10
62.1645
20
29.0576
0
VERTEX
8
0
10
61.1463
20
30.0556
0
VERTEX
8
0
10
61.1489
20
31.3377
0
VERTEX
8
0
10
61.1492
20
33.1787
0
VERTEX
8
0
10
61.1479
20
34.0242
0
VERTEX
8
0
10
61.1459
20
34.5941
0
VERTEX
8
0
10
62.6417
20
35.4921
0
VERTEX
8
0
10
64.4827
20
36.6142
0
VERTEX
8
0
10
69.8307
20
36.5247
0
VERTEX
8
0
10
74.0502
20
36.4515
0
VERTEX
8
0
10
74.9895
20
35.8777
0
VERTEX
8
0
10
76.7246
20
34.6977
0
VERTEX
8
0
10
77.1056
20
34.4473
0
VERTEX
8
0
10
77.2796
20
34.3193
0
VERTEX
8
0
10
77.2541
20
33.4199
0
VERTEX
8
0
10
77.1557
20
29.9611
0
VERTEX
8
0
10
76.8959
20
29.7624
0
VERTEX
8
0
10
74.6981
20
27.8965
0
VERTEX
8
0
10
72.8552
20
27.6906
0
VERTEX
8
0
10
71.8806
20
27.3931
0
VERTEX
8
0
10
69.1703
20
27.4314
0
SEQEND
0
TEXT
8
0
10
62.1013
20
29.1921
40
5
1
7.1
0
POLYLINE
8
0
10
0
20
0
66
1
70
1
62
1
0
VERTEX
8
0
10
97.3687
20
36.6376
0
VERTEX
8
0
10
97.5222
20
36.6663
0
VERTEX
8
0
10
105.776
20
36.3708
0
VERTEX
8
0
10
106.879
20
36.331
0
VERTEX
8
0
10
109.693
20
35.9388
0
VERTEX
8
0
10
110.33
20
35.8508
0
VERTEX
8
0
10
110.295
20
33.9881
0
VERTEX
8
0
10
110.153
20
29.1818
0
VERTEX
8
0
10
109.414
20
28.5315
0
VERTEX
8
0
10
108.835
20
27.9593
0
VERTEX
8
0
10
108.049
20
26.9636
0
VERTEX
8
0
10
107.866
20
26.9147
0
VERTEX
8
0
10
106.609
20
26.4072
0
VERTEX
8
0
10
105.81
20
26.1085
0
VERTEX
8
0
10
99.7367
20
26.2164
0
VERTEX
8
0
10
99.5112
20
26.2249
0
VERTEX
8
0
10
99.1087
20
26.3183
0
VERTEX
8
0
10
96.3656
20
27.0575
0
VERTEX
8
0
10
94.8538
20
28.4713
0
VERTEX
8
0
10
93.8919
20
29.2954
0
VERTEX
8
0
10
93.9286
20
31.6438
0
VERTEX
8
0
10
93.9797
20
35.9675
0
VERTEX
8
0
10
94.0953
20
35.9913
0
VERTEX
8
0
10
95.6825
20
36.304
0
SEQEND
0
TEXT
8
0
10
96.0627
20
28.6408
40
5
1
7.2
0
POLYLINE
8
0
10
0
20
0
66
1
70
1
62
1
0
VERTEX
8
0
10
134.917
20
28.5824
0
VERTEX
8
0
10
134.043
20
28.634
0
VERTEX
8
0
10
133.087
20
28.6979
0
VERTEX
8
0
10
132.345
20
28.7801
0
VERTEX
8
0
10
131.751
20
28.8295
0
VERTEX
8
0
10
131.632
20
28.8347
0
VERTEX
8
0
10
131.569
20
28.8447
0
VERTEX
8
0
10
131.247
20
28.5504
0
VERTEX
8
0
10
131.116
20
28.5208
0
VERTEX
8
0
10
131.056
20
28.512
0
VERTEX
8
0
10
130.799
20
28.4674
0
VERTEX
8
0
10
130.231
20
28.7967
0
VERTEX
8
0
10
128.589
20
29.8251
0
VERTEX
8
0
10
128.608
20
34.0965
0
VERTEX
8
0
10
128.611
20
34.4193
0
VERTEX
8
0
10
128.725
20
34.5031
0
VERTEX
8
0
10
129.521
20
35.0657
0
VERTEX
8
0
10
131.184
20
36.2467
0
VERTEX
8
0
10
131.826
20
36.6731
0
VERTEX
8
0
10
133.717
20
36.704
0
VERTEX
8
0
10
139.868
20
36.8092
0
VERTEX
8
0
10
139.956
20
36.7935
0
VERTEX
8
0
10
140.741
20
36.3967
0
VERTEX
8
0
10
142.264
20
35.5752
0
VERTEX
8
0
10
144.138
20
34.5539
0
VERTEX
8
0
10
144.146
20
33.5993
0
VERTEX
8
0
10
144.151
20
30.2098
0
VERTEX
8
0
10
143.532
20
29.8024
0
VERTEX
8
0
10
142.232
20
28.9689
0
VERTEX
8
0
10
142.104
20
29.0527
0
VERTEX
8
0
10
141.94
20
29.0132
0
VERTEX
8
0
10
141.792
20
28.9705
0
VERTEX
8
0
10
140.977
20
28.9378
0
VERTEX
8
0
10
140.328
20
28.8419
0
VERTEX
8
0
10
139.362
20
28.7189
0
VERTEX
8
0
10
138.63
20
28.6348
0
VERTEX
8
0
10
137.722
20
28.5808
0
VERTEX
8
0
10
136.8
20
28.5191
0
VERTEX
8
0
10
135.941
20
28.556
0
SEQEND
0
TEXT
8
0
10
129.333
20
30.4179
40
5
1
7.3
0
ENDSEC
0
EOF
