999
Creator: CLJ++
0
SECTION
2
HEADER
9
$ACADVER
1
AC1009
9
$EXTMIN
10
0
20
0
9
$EXTMAX
10
175
20
37
9
$LIMMIN
10
0
20
0
9
$LIMMAX
10
175
20
37
0
ENDSEC
0
SECTION
2
TABLES
0
TABLE
2
VPORT
70
1
0
VPORT
2
*Active
70
0
10
0
20
0
11
1
21
1
12
87.5
22
18.5
13
0
23
0
14
0.5
24
0.5
15
0.5
25
0.5
16
0
26
0
36
1
17
0
27
0
37
0
40
37
41
1
42
50
43
0
44
0
50
0
51
0
71
0
72
1
73
1
74
3
75
0
76
0
77
0
78
0
0
ENDTAB
0
TABLE
2
LTYPE
70
1
0
LTYPE
2
CONTINUOUS
70
0
3
Solid line
72
65
73
0
40
0
0
ENDTAB
0
TABLE
2
LAYER
70
1
0
LAYER
2
0
70
0
62
255
6
CONTINUOUS
0
ENDTAB
0
ENDSEC
0
SECTION
2
ENTITIES
0
POLYLINE
8
0
10
0
20
0
66
1
70
1
62
1
0
VERTEX
8
0
10
99.0312
20
26.0517
0
VERTEX
8
0
10
98.1154
20
26.2518
0
VERTEX
8
0
10
95.8876
20
26.749
0
VERTEX
8
0
10
94.116
20
28.3979
0
VERTEX
8
0
10
93.4224
20
29.0257
0
VERTEX
8
0
10
93.5056
20
32.4329
0
VERTEX
8
0
10
93.5778
20
35.8992
0
VERTEX
8
0
10
94.2789
20
36.0509
0
VERTEX
8
0
10
96.8257
20
36.5882
0
VERTEX
8
0
10
99.2977
20
36.5009
0
VERTEX
8
0
10
106.966
20
36.2255
0
VERTEX
8
0
10
109.034
20
35.9363
0
VERTEX
8
0
10
110.064
20
35.7929
0
VERTEX
8
0
10
109.931
20
32.0458
0
VERTEX
8
0
10
109.827
20
29.1094
0
VERTEX
8
0
10
109.006
20
28.1805
0
VERTEX
8
0
10
108.188
20
27.2524
0
VERTEX
8
0
10
107.747
20
26.7259
0
VERTEX
8
0
10
107.449
20
26.6029
0
VERTEX
8
0
10
105.676
20
26.0267
0
VERTEX
8
0
10
101.095
20
26.0456
0
SEQEND
0
TEXT
8
0
10
95.2256
20
28.5607
40
5
1
8.1
0
POLYLINE
8
0
10
0
20
0
66
1
70
1
62
1
0
VERTEX
8
0
10
74.9663
20
27.3827
0
VERTEX
8
0
10
73.8408
20
26.8802
0
VERTEX
8
0
10
72.3644
20
26.1737
0
VERTEX
8
0
10
68.8042
20
26.0981
0
VERTEX
8
0
10
67.1565
20
26.182
0
VERTEX
8
0
10
63.7506
20
27.3284
0
VERTEX
8
0
10
63.1922
20
27.5425
0
VERTEX
8
0
10
63.048
20
27.6823
0
VERTEX
8
0
10
62.3796
20
28.3537
0
VERTEX
8
0
10
61.0161
20
29.7253
0
VERTEX
8
0
10
61.0336
20
32.1387
0
VERTEX
8
0
10
61.0464
20
34.4869
0
VERTEX
8
0
10
62.0243
20
35.0557
0
VERTEX
8
0
10
64.4768
20
36.5046
0
VERTEX
8
0
10
70.1215
20
36.4088
0
VERTEX
8
0
10
75.0108
20
36.3259
0
VERTEX
8
0
10
76.3508
20
35.1595
0
VERTEX
8
0
10
77.3324
20
34.2089
0
VERTEX
8
0
10
77.3207
20
31.5877
0
VERTEX
8
0
10
77.3171
20
29.7941
0
VERTEX
8
0
10
76.6139
20
29.0601
0
VERTEX
8
0
10
75.773
20
28.1765
0
SEQEND
0
TEXT
8
0
10
62.0389
20
29.0829
40
5
1
8.2
0
POLYLINE
8
0
10
0
20
0
66
1
70
1
62
1
0
VERTEX
8
0
10
133.805
20
28.188
0
VERTEX
8
0
10
133.534
20
28.204
0
VERTEX
8
0
10
132.005
20
28.3061
0
VERTEX
8
0
10
131.823
20
28.3262
0
VERTEX
8
0
10
131.471
20
28.1277
0
VERTEX
8
0
10
131.053
20
27.9378
0
VERTEX
8
0
10
130.262
20
27.9251
0
VERTEX
8
0
10
129.782
20
27.9176
0
VERTEX
8
0
10
129.554
20
28.0624
0
VERTEX
8
0
10
127.355
20
29.565
0
VERTEX
8
0
10
127.362
20
30.9774
0
VERTEX
8
0
10
127.373
20
34.3239
0
VERTEX
8
0
10
129.404
20
35.7815
0
VERTEX
8
0
10
130.323
20
36.4546
0
VERTEX
8
0
10
135.209
20
36.5448
0
VERTEX
8
0
10
140.774
20
36.6403
0
VERTEX
8
0
10
141.971
20
35.7597
0
VERTEX
8
0
10
143.838
20
34.4459
0
VERTEX
8
0
10
143.809
20
32.3414
0
VERTEX
8
0
10
143.78
20
29.8947
0
VERTEX
8
0
10
142.392
20
28.8112
0
VERTEX
8
0
10
141.726
20
28.303
0
VERTEX
8
0
10
141.566
20
28.3007
0
VERTEX
8
0
10
141.364
20
28.3123
0
VERTEX
8
0
10
141.257
20
28.4295
0
VERTEX
8
0
10
140.893
20
28.691
0
VERTEX
8
0
10
140.75
20
28.6499
0
VERTEX
8
0
10
140.628
20
28.645
0
VERTEX
8
0
10
139.299
20
28.4486
0
VERTEX
8
0
10
138.91
20
28.3991
0
VERTEX
8
0
10
137.644
20
28.2536
0
VERTEX
8
0
10
137.282
20
28.232
0
VERTEX
8
0
10
135.775
20
28.1312
0
VERTEX
8
0
10
135.435
20
28.1458
0
SEQEND
0
TEXT
8
0
10
128.44
20
29.5117
40
5
1
8.3
0
ENDSEC
0
EOF
