999
Creator: CLJ++
0
SECTION
2
HEADER
9
$ACADVER
1
AC1009
9
$EXTMIN
10
0
20
0
9
$EXTMAX
10
175
20
37
9
$LIMMIN
10
0
20
0
9
$LIMMAX
10
175
20
37
0
ENDSEC
0
SECTION
2
TABLES
0
TABLE
2
VPORT
70
1
0
VPORT
2
*Active
70
0
10
0
20
0
11
1
21
1
12
87.5
22
18.5
13
0
23
0
14
0.5
24
0.5
15
0.5
25
0.5
16
0
26
0
36
1
17
0
27
0
37
0
40
37
41
1
42
50
43
0
44
0
50
0
51
0
71
0
72
1
73
1
74
3
75
0
76
0
77
0
78
0
0
ENDTAB
0
TABLE
2
LTYPE
70
1
0
LTYPE
2
CONTINUOUS
70
0
3
Solid line
72
65
73
0
40
0
0
ENDTAB
0
TABLE
2
LAYER
70
1
0
LAYER
2
0
70
0
62
255
6
CONTINUOUS
0
ENDTAB
0
ENDSEC
0
SECTION
2
ENTITIES
0
POLYLINE
8
0
10
0
20
0
66
1
70
1
62
1
0
VERTEX
8
0
10
62.247
20
28.3336
0
VERTEX
8
0
10
61.1339
20
29.3937
0
VERTEX
8
0
10
61.1272
20
30.307
0
VERTEX
8
0
10
61.1168
20
31.4723
0
VERTEX
8
0
10
61.1127
20
33.1136
0
VERTEX
8
0
10
61.1076
20
34.3519
0
VERTEX
8
0
10
63.9399
20
35.906
0
VERTEX
8
0
10
64.7617
20
36.3567
0
VERTEX
8
0
10
65.4314
20
36.3444
0
VERTEX
8
0
10
68.586
20
36.2905
0
VERTEX
8
0
10
75.138
20
36.1763
0
VERTEX
8
0
10
75.2373
20
36.1745
0
VERTEX
8
0
10
76.1443
20
36.1601
0
VERTEX
8
0
10
76.4459
20
36.156
0
VERTEX
8
0
10
76.7656
20
35.7148
0
VERTEX
8
0
10
77.5958
20
34.5053
0
VERTEX
8
0
10
77.9154
20
34.054
0
VERTEX
8
0
10
77.9177
20
30.5777
0
VERTEX
8
0
10
77.9184
20
29.6121
0
VERTEX
8
0
10
77.7302
20
29.4148
0
VERTEX
8
0
10
75.4601
20
27.0179
0
VERTEX
8
0
10
74.6531
20
26.6875
0
VERTEX
8
0
10
73.837
20
26.2179
0
VERTEX
8
0
10
72.9145
20
25.7537
0
VERTEX
8
0
10
70.8138
20
25.7953
0
VERTEX
8
0
10
67.4242
20
25.7781
0
VERTEX
8
0
10
66.5278
20
26.0702
0
VERTEX
8
0
10
64.7098
20
26.678
0
VERTEX
8
0
10
63.5973
20
27.0627
0
SEQEND
0
TEXT
8
0
10
64.0372
20
28.3062
40
5
1
9.1
0
POLYLINE
8
0
10
0
20
0
66
1
70
1
62
1
0
VERTEX
8
0
10
142.947
20
29.6414
0
VERTEX
8
0
10
141.983
20
28.9096
0
VERTEX
8
0
10
141.355
20
28.4821
0
VERTEX
8
0
10
140.301
20
27.7238
0
VERTEX
8
0
10
139.46
20
27.6708
0
VERTEX
8
0
10
138.726
20
27.6415
0
VERTEX
8
0
10
137.993
20
27.593
0
VERTEX
8
0
10
137.415
20
27.575
0
VERTEX
8
0
10
136.987
20
27.5324
0
VERTEX
8
0
10
135.27
20
27.4393
0
VERTEX
8
0
10
134.669
20
27.4207
0
VERTEX
8
0
10
133.625
20
27.2696
0
VERTEX
8
0
10
132.174
20
27.1525
0
VERTEX
8
0
10
131.778
20
27.1333
0
VERTEX
8
0
10
129.627
20
27.402
0
VERTEX
8
0
10
129.15
20
27.4521
0
VERTEX
8
0
10
128.783
20
27.4462
0
VERTEX
8
0
10
127.837
20
28.1319
0
VERTEX
8
0
10
126.2
20
29.3359
0
VERTEX
8
0
10
126.239
20
32.8878
0
VERTEX
8
0
10
126.249
20
33.658
0
VERTEX
8
0
10
126.255
20
34.23
0
VERTEX
8
0
10
128.376
20
35.7043
0
VERTEX
8
0
10
129.114
20
36.207
0
VERTEX
8
0
10
131.928
20
36.2475
0
VERTEX
8
0
10
139.492
20
36.3619
0
VERTEX
8
0
10
139.972
20
36.3701
0
VERTEX
8
0
10
140.167
20
36.3735
0
VERTEX
8
0
10
140.343
20
36.2457
0
VERTEX
8
0
10
143.058
20
34.3054
0
VERTEX
8
0
10
143.032
20
33.0937
0
SEQEND
0
TEXT
8
0
10
127.031
20
28.9501
40
5
1
9.2
0
POLYLINE
8
0
10
0
20
0
66
1
70
1
62
1
0
VERTEX
8
0
10
105.829
20
25.7347
0
VERTEX
8
0
10
105.522
20
25.6095
0
VERTEX
8
0
10
98.5383
20
25.6
0
VERTEX
8
0
10
98.5338
20
25.5999
0
VERTEX
8
0
10
95.731
20
26.2863
0
VERTEX
8
0
10
95.2865
20
26.4079
0
VERTEX
8
0
10
94.7651
20
26.9101
0
VERTEX
8
0
10
92.8592
20
28.7559
0
VERTEX
8
0
10
92.8709
20
29.1069
0
VERTEX
8
0
10
92.8895
20
29.7405
0
VERTEX
8
0
10
93.0109
20
33.6859
0
VERTEX
8
0
10
93.0693
20
35.818
0
VERTEX
8
0
10
94.4831
20
36.1139
0
VERTEX
8
0
10
96.2362
20
36.4855
0
VERTEX
8
0
10
99.3027
20
36.375
0
VERTEX
8
0
10
107.053
20
36.0871
0
VERTEX
8
0
10
109.404
20
35.7613
0
VERTEX
8
0
10
109.878
20
35.697
0
VERTEX
8
0
10
109.815
20
33.8874
0
VERTEX
8
0
10
109.647
20
29.0541
0
VERTEX
8
0
10
108.239
20
27.3256
0
VERTEX
8
0
10
107.478
20
26.4157
0
SEQEND
0
TEXT
8
0
10
94.8164
20
28.2779
40
5
1
9.3
0
ENDSEC
0
EOF
