999
Creator: CLJ++
0
SECTION
2
HEADER
9
$ACADVER
1
AC1009
9
$EXTMIN
10
0
20
0
9
$EXTMAX
10
175
20
37
9
$LIMMIN
10
0
20
0
9
$LIMMAX
10
175
20
37
0
ENDSEC
0
SECTION
2
TABLES
0
TABLE
2
VPORT
70
1
0
VPORT
2
*Active
70
0
10
0
20
0
11
1
21
1
12
87.5
22
18.5
13
0
23
0
14
0.5
24
0.5
15
0.5
25
0.5
16
0
26
0
36
1
17
0
27
0
37
0
40
37
41
1
42
50
43
0
44
0
50
0
51
0
71
0
72
1
73
1
74
3
75
0
76
0
77
0
78
0
0
ENDTAB
0
TABLE
2
LTYPE
70
1
0
LTYPE
2
CONTINUOUS
70
0
3
Solid line
72
65
73
0
40
0
0
ENDTAB
0
TABLE
2
LAYER
70
1
0
LAYER
2
0
70
0
62
255
6
CONTINUOUS
0
ENDTAB
0
ENDSEC
0
SECTION
2
ENTITIES
0
POLYLINE
8
0
10
0
20
0
66
1
70
1
62
1
0
VERTEX
8
0
10
75.9967
20
26.6252
0
VERTEX
8
0
10
74.6125
20
26.0583
0
VERTEX
8
0
10
73.6505
20
25.6591
0
VERTEX
8
0
10
67.8886
20
25.6894
0
VERTEX
8
0
10
67.877
20
25.6894
0
VERTEX
8
0
10
67.8454
20
25.6896
0
VERTEX
8
0
10
67.8197
20
25.6961
0
VERTEX
8
0
10
63.8547
20
26.689
0
VERTEX
8
0
10
61.8679
20
28.7736
0
VERTEX
8
0
10
61.5869
20
29.0605
0
VERTEX
8
0
10
61.5951
20
29.5792
0
VERTEX
8
0
10
61.6023
20
30.0761
0
VERTEX
8
0
10
61.6238
20
32.1028
0
VERTEX
8
0
10
61.6439
20
34.2437
0
VERTEX
8
0
10
62.474
20
34.7314
0
VERTEX
8
0
10
65.0468
20
36.2649
0
VERTEX
8
0
10
68.0806
20
36.2113
0
VERTEX
8
0
10
74.2048
20
36.1094
0
VERTEX
8
0
10
76.0936
20
36.0795
0
VERTEX
8
0
10
76.9889
20
36.0635
0
VERTEX
8
0
10
77.6011
20
35.2255
0
VERTEX
8
0
10
78.5418
20
33.958
0
VERTEX
8
0
10
78.5394
20
33.0913
0
VERTEX
8
0
10
78.5305
20
32.0934
0
VERTEX
8
0
10
78.5178
20
30.6685
0
VERTEX
8
0
10
78.4989
20
29.4303
0
VERTEX
8
0
10
78.2962
20
29.1771
0
SEQEND
0
TEXT
8
0
10
62.5845
20
28.2128
40
5
1
10.1
0
POLYLINE
8
0
10
0
20
0
66
1
70
1
62
1
0
VERTEX
8
0
10
107.241
20
26.0806
0
VERTEX
8
0
10
106.187
20
25.6755
0
VERTEX
8
0
10
105.369
20
25.2279
0
VERTEX
8
0
10
101.739
20
25.1419
0
VERTEX
8
0
10
98.0359
20
25.1413
0
VERTEX
8
0
10
95.6012
20
25.8197
0
VERTEX
8
0
10
94.8086
20
26.0669
0
VERTEX
8
0
10
93.5702
20
27.2617
0
VERTEX
8
0
10
92.2967
20
28.4862
0
VERTEX
8
0
10
92.3735
20
30.6726
0
VERTEX
8
0
10
92.4928
20
34.3943
0
VERTEX
8
0
10
92.5226
20
35.2594
0
VERTEX
8
0
10
92.5381
20
35.7459
0
VERTEX
8
0
10
95.1025
20
36.2669
0
VERTEX
8
0
10
95.7086
20
36.3919
0
VERTEX
8
0
10
102.037
20
36.1633
0
VERTEX
8
0
10
107.14
20
35.9985
0
VERTEX
8
0
10
109.121
20
35.7368
0
VERTEX
8
0
10
109.716
20
35.6561
0
VERTEX
8
0
10
109.572
20
31.4974
0
VERTEX
8
0
10
109.486
20
28.9988
0
VERTEX
8
0
10
109.092
20
28.4728
0
SEQEND
0
TEXT
8
0
10
92.4179
20
27.9816
40
5
1
10.2
0
POLYLINE
8
0
10
0
20
0
66
1
70
1
62
1
0
VERTEX
8
0
10
137.601
20
26.8199
0
VERTEX
8
0
10
137.57
20
26.8155
0
VERTEX
8
0
10
137.505
20
26.8102
0
VERTEX
8
0
10
137.4
20
26.8036
0
VERTEX
8
0
10
134.656
20
26.6276
0
VERTEX
8
0
10
132.35
20
26.546
0
VERTEX
8
0
10
130.436
20
26.4184
0
VERTEX
8
0
10
128.939
20
26.7735
0
VERTEX
8
0
10
127.855
20
26.9761
0
VERTEX
8
0
10
127.178
20
27.5324
0
VERTEX
8
0
10
126.403
20
28.2129
0
VERTEX
8
0
10
125.26
20
29.2107
0
VERTEX
8
0
10
125.28
20
30.2056
0
VERTEX
8
0
10
125.3
20
31.9662
0
VERTEX
8
0
10
125.314
20
33.2484
0
VERTEX
8
0
10
125.317
20
34.1294
0
VERTEX
8
0
10
126.856
20
35.2152
0
VERTEX
8
0
10
127.926
20
35.9898
0
VERTEX
8
0
10
137.674
20
36.1458
0
VERTEX
8
0
10
138.939
20
36.1654
0
VERTEX
8
0
10
139.32
20
36.1713
0
VERTEX
8
0
10
139.729
20
35.892
0
VERTEX
8
0
10
142.16
20
34.2375
0
VERTEX
8
0
10
142.096
20
32.0705
0
VERTEX
8
0
10
142.02
20
29.3978
0
VERTEX
8
0
10
141.638
20
29.125
0
VERTEX
8
0
10
139.3
20
27.1634
0
VERTEX
8
0
10
137.78
20
26.8329
0
VERTEX
8
0
10
137.694
20
26.8228
0
SEQEND
0
TEXT
8
0
10
124.106
20
29.08
40
5
1
10.3
0
ENDSEC
0
EOF
