999
Creator: CLJ++
0
SECTION
2
HEADER
9
$ACADVER
1
AC1009
9
$EXTMIN
10
0
20
0
9
$EXTMAX
10
175
20
37
9
$LIMMIN
10
0
20
0
9
$LIMMAX
10
175
20
37
0
ENDSEC
0
SECTION
2
TABLES
0
TABLE
2
VPORT
70
1
0
VPORT
2
*Active
70
0
10
0
20
0
11
1
21
1
12
87.5
22
18.5
13
0
23
0
14
0.5
24
0.5
15
0.5
25
0.5
16
0
26
0
36
1
17
0
27
0
37
0
40
37
41
1
42
50
43
0
44
0
50
0
51
0
71
0
72
1
73
1
74
3
75
0
76
0
77
0
78
0
0
ENDTAB
0
TABLE
2
LTYPE
70
1
0
LTYPE
2
CONTINUOUS
70
0
3
Solid line
72
65
73
0
40
0
0
ENDTAB
0
TABLE
2
LAYER
70
1
0
LAYER
2
0
70
0
62
255
6
CONTINUOUS
0
ENDTAB
0
ENDSEC
0
SECTION
2
ENTITIES
0
POLYLINE
8
0
10
0
20
0
66
1
70
1
62
1
0
VERTEX
8
0
10
103.367
20
24.6836
0
VERTEX
8
0
10
97.5381
20
24.6827
0
VERTEX
8
0
10
95.4588
20
25.3353
0
VERTEX
8
0
10
94.3577
20
25.726
0
VERTEX
8
0
10
92.203
20
27.8611
0
VERTEX
8
0
10
91.8404
20
28.2164
0
VERTEX
8
0
10
91.9832
20
32.3365
0
VERTEX
8
0
10
92.0894
20
35.6895
0
VERTEX
8
0
10
92.8222
20
35.8415
0
VERTEX
8
0
10
94.6889
20
36.2226
0
VERTEX
8
0
10
95.0568
20
36.2981
0
VERTEX
8
0
10
95.1815
20
36.3236
0
VERTEX
8
0
10
96.732
20
36.2698
0
VERTEX
8
0
10
107.227
20
35.9083
0
VERTEX
8
0
10
107.698
20
35.85
0
VERTEX
8
0
10
109.561
20
35.6127
0
VERTEX
8
0
10
109.477
20
33.2126
0
VERTEX
8
0
10
109.328
20
28.9435
0
VERTEX
8
0
10
107.739
20
26.649
0
VERTEX
8
0
10
107.07
20
25.74
0
VERTEX
8
0
10
105.518
20
24.8496
0
VERTEX
8
0
10
105.209
20
24.6839
0
SEQEND
0
TEXT
8
0
10
90.6073
20
28.2898
40
5
1
11.1
0
POLYLINE
8
0
10
0
20
0
66
1
70
1
62
1
0
VERTEX
8
0
10
75.4396
20
25.784
0
VERTEX
8
0
10
74.2273
20
25.2304
0
VERTEX
8
0
10
71.591
20
25.2443
0
VERTEX
8
0
10
68.1481
20
25.2624
0
VERTEX
8
0
10
67.2558
20
25.5019
0
VERTEX
8
0
10
64.0219
20
26.2624
0
VERTEX
8
0
10
63.686
20
26.5843
0
VERTEX
8
0
10
63.5613
20
26.7042
0
VERTEX
8
0
10
63.3731
20
26.8793
0
VERTEX
8
0
10
62.9794
20
27.2539
0
VERTEX
8
0
10
61.4783
20
28.7301
0
VERTEX
8
0
10
61.4796
20
29.1087
0
VERTEX
8
0
10
61.4802
20
29.3778
0
VERTEX
8
0
10
61.5064
20
31.5147
0
VERTEX
8
0
10
61.531
20
33.7409
0
VERTEX
8
0
10
61.5344
20
33.9345
0
VERTEX
8
0
10
61.5379
20
34.1519
0
VERTEX
8
0
10
63.9249
20
35.408
0
VERTEX
8
0
10
65.1463
20
36.0486
0
VERTEX
8
0
10
65.2278
20
36.091
0
VERTEX
8
0
10
65.3318
20
36.1455
0
VERTEX
8
0
10
65.8365
20
36.1375
0
VERTEX
8
0
10
77.9802
20
35.9422
0
VERTEX
8
0
10
78.4798
20
34.9117
0
VERTEX
8
0
10
78.9038
20
33.9494
0
VERTEX
8
0
10
78.8386
20
30.7263
0
VERTEX
8
0
10
78.8087
20
29.2498
0
VERTEX
8
0
10
78.3556
20
28.659
0
VERTEX
8
0
10
76.4269
20
26.1973
0
SEQEND
0
TEXT
8
0
10
62.6979
20
27.9216
40
5
1
11.2
0
POLYLINE
8
0
10
0
20
0
66
1
70
1
62
1
0
VERTEX
8
0
10
134.329
20
25.8256
0
VERTEX
8
0
10
132.818
20
25.6899
0
VERTEX
8
0
10
129.334
20
25.5264
0
VERTEX
8
0
10
128.981
20
25.6429
0
VERTEX
8
0
10
128.281
20
25.8971
0
VERTEX
8
0
10
126.666
20
26.5011
0
VERTEX
8
0
10
124.561
20
28.522
0
VERTEX
8
0
10
123.994
20
29.0811
0
VERTEX
8
0
10
124.021
20
29.6696
0
VERTEX
8
0
10
124.062
20
30.8621
0
VERTEX
8
0
10
124.141
20
32.9798
0
VERTEX
8
0
10
124.17
20
34.053
0
VERTEX
8
0
10
125.708
20
34.99
0
VERTEX
8
0
10
126.929
20
35.7849
0
VERTEX
8
0
10
130.935
20
35.8494
0
VERTEX
8
0
10
138.472
20
35.9699
0
VERTEX
8
0
10
139.369
20
35.3707
0
VERTEX
8
0
10
141.174
20
34.1593
0
VERTEX
8
0
10
141.017
20
29.574
0
VERTEX
8
0
10
141.003
20
29.1589
0
VERTEX
8
0
10
140.869
20
29.0397
0
VERTEX
8
0
10
140.047
20
28.2623
0
VERTEX
8
0
10
138.618
20
26.9213
0
VERTEX
8
0
10
138.374
20
26.6893
0
VERTEX
8
0
10
138.177
20
26.5781
0
VERTEX
8
0
10
136.857
20
25.9899
0
VERTEX
8
0
10
134.829
20
25.8524
0
SEQEND
0
TEXT
8
0
10
122.936
20
28.5295
40
5
1
11.3
0
ENDSEC
0
EOF
