999
Creator: CLJ++
0
SECTION
2
HEADER
9
$ACADVER
1
AC1009
9
$EXTMIN
10
0
20
0
9
$EXTMAX
10
175
20
37
9
$LIMMIN
10
0
20
0
9
$LIMMAX
10
175
20
37
0
ENDSEC
0
SECTION
2
TABLES
0
TABLE
2
VPORT
70
1
0
VPORT
2
*Active
70
0
10
0
20
0
11
1
21
1
12
87.5
22
18.5
13
0
23
0
14
0.5
24
0.5
15
0.5
25
0.5
16
0
26
0
36
1
17
0
27
0
37
0
40
37
41
1
42
50
43
0
44
0
50
0
51
0
71
0
72
1
73
1
74
3
75
0
76
0
77
0
78
0
0
ENDTAB
0
TABLE
2
LTYPE
70
1
0
LTYPE
2
CONTINUOUS
70
0
3
Solid line
72
65
73
0
40
0
0
ENDTAB
0
TABLE
2
LAYER
70
1
0
LAYER
2
0
70
0
62
255
6
CONTINUOUS
0
ENDTAB
0
ENDSEC
0
SECTION
2
ENTITIES
0
POLYLINE
8
0
10
0
20
0
66
1
70
1
62
1
0
VERTEX
8
0
10
108.032
20
27.2412
0
VERTEX
8
0
10
106.871
20
25.5521
0
VERTEX
8
0
10
106.767
20
25.3993
0
VERTEX
8
0
10
106.593
20
25.2732
0
VERTEX
8
0
10
105.053
20
24.2254
0
VERTEX
8
0
10
101.933
20
24.2249
0
VERTEX
8
0
10
97.0402
20
24.2242
0
VERTEX
8
0
10
94.8454
20
25.033
0
VERTEX
8
0
10
93.9534
20
25.3852
0
VERTEX
8
0
10
92.1628
20
27.0635
0
VERTEX
8
0
10
91.2263
20
27.9467
0
VERTEX
8
0
10
91.3291
20
30.2726
0
VERTEX
8
0
10
91.4147
20
32.3024
0
VERTEX
8
0
10
91.4876
20
33.9404
0
VERTEX
8
0
10
91.56
20
35.6549
0
VERTEX
8
0
10
93.8541
20
36.1157
0
VERTEX
8
0
10
94.6547
20
36.2768
0
VERTEX
8
0
10
96.1562
20
36.2274
0
VERTEX
8
0
10
101.927
20
36.0254
0
VERTEX
8
0
10
107.314
20
35.8399
0
VERTEX
8
0
10
108.548
20
35.6963
0
VERTEX
8
0
10
109.401
20
35.5914
0
VERTEX
8
0
10
109.179
20
29.299
0
VERTEX
8
0
10
109.165
20
28.8882
0
VERTEX
8
0
10
109.086
20
28.7747
0
SEQEND
0
TEXT
8
0
10
90.1412
20
28.0352
40
5
1
12.1
0
POLYLINE
8
0
10
0
20
0
66
1
70
1
62
1
0
VERTEX
8
0
10
75.3179
20
25.0364
0
VERTEX
8
0
10
74.8039
20
24.8018
0
VERTEX
8
0
10
70.638
20
24.8236
0
VERTEX
8
0
10
68.4507
20
24.8351
0
VERTEX
8
0
10
66.6259
20
25.3491
0
VERTEX
8
0
10
64.8119
20
25.8326
0
VERTEX
8
0
10
63.1879
20
27.4096
0
VERTEX
8
0
10
62.157
20
28.3958
0
VERTEX
8
0
10
62.1577
20
29.1081
0
VERTEX
8
0
10
62.1573
20
30.0508
0
VERTEX
8
0
10
62.153
20
32.2485
0
VERTEX
8
0
10
62.147
20
34.0669
0
VERTEX
8
0
10
63.8641
20
35.0571
0
VERTEX
8
0
10
65.617
20
36.089
0
VERTEX
8
0
10
72.9608
20
35.9622
0
VERTEX
8
0
10
78.6234
20
35.848
0
VERTEX
8
0
10
79.1644
20
34.551
0
VERTEX
8
0
10
79.2785
20
34.2721
0
VERTEX
8
0
10
79.2424
20
32.7101
0
VERTEX
8
0
10
79.1582
20
29.074
0
VERTEX
8
0
10
78.1046
20
27.5073
0
VERTEX
8
0
10
76.8727
20
25.7693
0
SEQEND
0
TEXT
8
0
10
63.2279
20
27.6583
40
5
1
12.2
0
POLYLINE
8
0
10
0
20
0
66
1
70
1
62
1
0
VERTEX
8
0
10
134.838
20
25.0903
0
VERTEX
8
0
10
134.293
20
25.0815
0
VERTEX
8
0
10
133.97
20
25.0971
0
VERTEX
8
0
10
132.799
20
25.1535
0
VERTEX
8
0
10
130.438
20
25.2271
0
VERTEX
8
0
10
129.55
20
25.2548
0
VERTEX
8
0
10
129.473
20
25.2536
0
VERTEX
8
0
10
128.256
20
25.234
0
VERTEX
8
0
10
125.773
20
25.9225
0
VERTEX
8
0
10
125.399
20
26.0264
0
VERTEX
8
0
10
125.234
20
26.1976
0
VERTEX
8
0
10
122.682
20
28.9521
0
VERTEX
8
0
10
122.849
20
31.7342
0
VERTEX
8
0
10
122.961
20
33.9958
0
VERTEX
8
0
10
123.645
20
34.3444
0
VERTEX
8
0
10
125.932
20
35.6024
0
VERTEX
8
0
10
126.115
20
35.6053
0
VERTEX
8
0
10
126.607
20
35.6135
0
VERTEX
8
0
10
134.246
20
35.7311
0
VERTEX
8
0
10
137.625
20
35.7721
0
VERTEX
8
0
10
139.77
20
34.4137
0
VERTEX
8
0
10
140.24
20
34.1078
0
VERTEX
8
0
10
140.193
20
32.6242
0
VERTEX
8
0
10
140.079
20
28.9152
0
VERTEX
8
0
10
138.391
20
27.1623
0
VERTEX
8
0
10
137.293
20
25.968
0
VERTEX
8
0
10
136.736
20
25.6101
0
VERTEX
8
0
10
135.981
20
25.1086
0
VERTEX
8
0
10
135.275
20
25.0973
0
SEQEND
0
TEXT
8
0
10
123.474
20
27.6729
40
5
1
12.3
0
ENDSEC
0
EOF
