999
Creator: CLJ++
0
SECTION
2
HEADER
9
$ACADVER
1
AC1009
9
$EXTMIN
10
0
20
0
9
$EXTMAX
10
175
20
37
9
$LIMMIN
10
0
20
0
9
$LIMMAX
10
175
20
37
0
ENDSEC
0
SECTION
2
TABLES
0
TABLE
2
VPORT
70
1
0
VPORT
2
*Active
70
0
10
0
20
0
11
1
21
1
12
87.5
22
18.5
13
0
23
0
14
0.5
24
0.5
15
0.5
25
0.5
16
0
26
0
36
1
17
0
27
0
37
0
40
37
41
1
42
50
43
0
44
0
50
0
51
0
71
0
72
1
73
1
74
3
75
0
76
0
77
0
78
0
0
ENDTAB
0
TABLE
2
LTYPE
70
1
0
LTYPE
2
CONTINUOUS
70
0
3
Solid line
72
65
73
0
40
0
0
ENDTAB
0
TABLE
2
LAYER
70
1
0
LAYER
2
0
70
0
62
255
6
CONTINUOUS
0
ENDTAB
0
ENDSEC
0
SECTION
2
ENTITIES
0
POLYLINE
8
0
10
0
20
0
66
1
70
1
62
1
0
VERTEX
8
0
10
109.207
20
34.8338
0
VERTEX
8
0
10
108.988
20
28.8329
0
VERTEX
8
0
10
107.331
20
26.4008
0
VERTEX
8
0
10
106.427
20
25.0585
0
VERTEX
8
0
10
105.96
20
24.6862
0
VERTEX
8
0
10
104.897
20
23.7669
0
VERTEX
8
0
10
101.91
20
23.7664
0
VERTEX
8
0
10
98.3707
20
23.7659
0
VERTEX
8
0
10
96.5424
20
23.7656
0
VERTEX
8
0
10
95.3344
20
24.2614
0
VERTEX
8
0
10
93.5264
20
25.0443
0
VERTEX
8
0
10
91.9653
20
26.4858
0
VERTEX
8
0
10
91.1501
20
27.2147
0
VERTEX
8
0
10
90.6647
20
27.6769
0
VERTEX
8
0
10
90.7515
20
29.344
0
VERTEX
8
0
10
90.8145
20
30.5999
0
VERTEX
8
0
10
90.9198
20
32.7436
0
VERTEX
8
0
10
91.0542
20
35.5959
0
VERTEX
8
0
10
91.3517
20
35.6539
0
VERTEX
8
0
10
94.0197
20
36.1723
0
VERTEX
8
0
10
94.1123
20
36.1902
0
VERTEX
8
0
10
94.1273
20
36.1932
0
VERTEX
8
0
10
105.635
20
35.8106
0
VERTEX
8
0
10
106.425
20
35.7846
0
VERTEX
8
0
10
107.401
20
35.7524
0
VERTEX
8
0
10
109.159
20
35.5566
0
VERTEX
8
0
10
109.232
20
35.548
0
SEQEND
0
TEXT
8
0
10
89.3698
20
27.7624
40
5
1
13.1
0
POLYLINE
8
0
10
0
20
0
66
1
70
1
62
1
0
VERTEX
8
0
10
75.5574
20
24.4563
0
VERTEX
8
0
10
75.3807
20
24.3731
0
VERTEX
8
0
10
73.3178
20
24.3839
0
VERTEX
8
0
10
68.7533
20
24.4079
0
VERTEX
8
0
10
66.5588
20
25.0478
0
VERTEX
8
0
10
65.7635
20
25.2797
0
VERTEX
8
0
10
65.3197
20
25.4043
0
VERTEX
8
0
10
64.4315
20
26.2749
0
VERTEX
8
0
10
62.6087
20
28.0625
0
VERTEX
8
0
10
62.6265
20
30.1769
0
VERTEX
8
0
10
62.6502
20
33.6285
0
VERTEX
8
0
10
62.6514
20
33.8304
0
VERTEX
8
0
10
62.652
20
33.9577
0
VERTEX
8
0
10
62.8658
20
34.0845
0
VERTEX
8
0
10
64.9366
20
35.3159
0
VERTEX
8
0
10
66.0953
20
35.9743
0
VERTEX
8
0
10
76.0959
20
35.802
0
VERTEX
8
0
10
78.9973
20
35.7537
0
VERTEX
8
0
10
79.6481
20
34.5937
0
VERTEX
8
0
10
79.6551
20
34.5793
0
VERTEX
8
0
10
79.6524
20
34.4713
0
VERTEX
8
0
10
79.512
20
28.8972
0
VERTEX
8
0
10
77.9084
20
26.2005
0
VERTEX
8
0
10
77.3776
20
25.341
0
SEQEND
0
TEXT
8
0
10
61.5053
20
27.9605
40
5
1
13.2
0
POLYLINE
8
0
10
0
20
0
66
1
70
1
62
1
0
VERTEX
8
0
10
129.583
20
24.7425
0
VERTEX
8
0
10
128.12
20
24.719
0
VERTEX
8
0
10
127.166
20
24.7037
0
VERTEX
8
0
10
126.556
20
24.9447
0
VERTEX
8
0
10
124.757
20
25.5609
0
VERTEX
8
0
10
122.7
20
27.6143
0
VERTEX
8
0
10
121.829
20
28.4507
0
VERTEX
8
0
10
121.451
20
28.822
0
VERTEX
8
0
10
121.496
20
29.6434
0
VERTEX
8
0
10
121.599
20
31.1906
0
VERTEX
8
0
10
121.783
20
33.9108
0
VERTEX
8
0
10
122.756
20
34.3515
0
VERTEX
8
0
10
123.449
20
34.6788
0
VERTEX
8
0
10
124.192
20
35.0156
0
VERTEX
8
0
10
124.935
20
35.3837
0
VERTEX
8
0
10
131.721
20
35.4922
0
VERTEX
8
0
10
133.966
20
35.5289
0
VERTEX
8
0
10
136.777
20
35.5741
0
VERTEX
8
0
10
138.797
20
34.4074
0
VERTEX
8
0
10
139.423
20
34.0274
0
VERTEX
8
0
10
139.334
20
31.2516
0
VERTEX
8
0
10
139.251
20
28.6664
0
VERTEX
8
0
10
137.32
20
26.6783
0
VERTEX
8
0
10
136.451
20
25.7481
0
VERTEX
8
0
10
135.753
20
25.269
0
VERTEX
8
0
10
135.134
20
24.8316
0
VERTEX
8
0
10
133.006
20
24.7974
0
SEQEND
0
TEXT
8
0
10
122.427
20
27.375
40
5
1
13.3
0
ENDSEC
0
EOF
