999
Creator: CLJ++
0
SECTION
2
HEADER
9
$ACADVER
1
AC1009
9
$EXTMIN
10
0
20
0
9
$EXTMAX
10
175
20
37
9
$LIMMIN
10
0
20
0
9
$LIMMAX
10
175
20
37
0
ENDSEC
0
SECTION
2
TABLES
0
TABLE
2
VPORT
70
1
0
VPORT
2
*Active
70
0
10
0
20
0
11
1
21
1
12
87.5
22
18.5
13
0
23
0
14
0.5
24
0.5
15
0.5
25
0.5
16
0
26
0
36
1
17
0
27
0
37
0
40
37
41
1
42
50
43
0
44
0
50
0
51
0
71
0
72
1
73
1
74
3
75
0
76
0
77
0
78
0
0
ENDTAB
0
TABLE
2
LTYPE
70
1
0
LTYPE
2
CONTINUOUS
70
0
3
Solid line
72
65
73
0
40
0
0
ENDTAB
0
TABLE
2
LAYER
70
1
0
LAYER
2
0
70
0
62
255
6
CONTINUOUS
0
ENDTAB
0
ENDSEC
0
SECTION
2
ENTITIES
0
POLYLINE
8
0
10
0
20
0
66
1
70
1
62
1
0
VERTEX
8
0
10
108.567
20
28.169
0
VERTEX
8
0
10
106.495
20
24.672
0
VERTEX
8
0
10
105.769
20
23.9498
0
VERTEX
8
0
10
104.714
20
22.854
0
VERTEX
8
0
10
101.71
20
22.8535
0
VERTEX
8
0
10
96.0161
20
22.8526
0
VERTEX
8
0
10
95.283
20
23.3109
0
VERTEX
8
0
10
93.6134
20
24.3546
0
VERTEX
8
0
10
93.3154
20
24.5634
0
VERTEX
8
0
10
92.1015
20
25.6136
0
VERTEX
8
0
10
90.4886
20
27.0089
0
VERTEX
8
0
10
90.0297
20
27.4072
0
VERTEX
8
0
10
90.1401
20
30.576
0
VERTEX
8
0
10
90.2548
20
34.1008
0
VERTEX
8
0
10
90.2975
20
34.7702
0
VERTEX
8
0
10
90.345
20
35.5415
0
VERTEX
8
0
10
92.4257
20
35.9021
0
VERTEX
8
0
10
93.6
20
36.1161
0
VERTEX
8
0
10
97.962
20
35.8829
0
VERTEX
8
0
10
104.733
20
35.5466
0
VERTEX
8
0
10
106.343
20
35.4635
0
VERTEX
8
0
10
107.502
20
35.4077
0
VERTEX
8
0
10
107.716
20
35.3857
0
VERTEX
8
0
10
109.147
20
35.249
0
VERTEX
8
0
10
109.137
20
34.8406
0
VERTEX
8
0
10
108.935
20
28.7779
0
VERTEX
8
0
10
108.834
20
28.6303
0
SEQEND
0
TEXT
8
0
10
91.04
20
26.7114
40
5
1
14.1
0
POLYLINE
8
0
10
0
20
0
66
1
70
1
62
1
0
VERTEX
8
0
10
63.0283
20
33.8641
0
VERTEX
8
0
10
63.7724
20
34.2777
0
VERTEX
8
0
10
66.7604
20
35.8748
0
VERTEX
8
0
10
70.0391
20
35.8174
0
VERTEX
8
0
10
74.852
20
35.7352
0
VERTEX
8
0
10
79.7646
20
35.6518
0
VERTEX
8
0
10
80.0396
20
35.1476
0
VERTEX
8
0
10
79.9515
20
29.6688
0
VERTEX
8
0
10
79.9581
20
28.7201
0
VERTEX
8
0
10
79.4806
20
27.8183
0
VERTEX
8
0
10
77.9047
20
24.8757
0
VERTEX
8
0
10
77.3803
20
24.609
0
VERTEX
8
0
10
75.8072
20
23.5314
0
VERTEX
8
0
10
70.1827
20
23.7238
0
VERTEX
8
0
10
68.9783
20
23.7371
0
VERTEX
8
0
10
68.4154
20
23.985
0
VERTEX
8
0
10
66.7296
20
24.6108
0
VERTEX
8
0
10
65.7297
20
24.9114
0
VERTEX
8
0
10
64.3212
20
26.3649
0
VERTEX
8
0
10
62.9464
20
27.7299
0
VERTEX
8
0
10
62.9682
20
29.1844
0
VERTEX
8
0
10
63.0026
20
31.7627
0
VERTEX
8
0
10
63.0199
20
33.1085
0
SEQEND
0
TEXT
8
0
10
62.9342
20
27.4865
40
5
1
14.2
0
POLYLINE
8
0
10
0
20
0
66
1
70
1
62
1
0
VERTEX
8
0
10
137.861
20
27.7584
0
VERTEX
8
0
10
136.141
20
25.8535
0
VERTEX
8
0
10
135.609
20
25.2794
0
VERTEX
8
0
10
134.695
20
24.6179
0
VERTEX
8
0
10
134.275
20
24.3049
0
VERTEX
8
0
10
130.937
20
24.2513
0
VERTEX
8
0
10
126.617
20
24.182
0
VERTEX
8
0
10
126.298
20
24.1768
0
VERTEX
8
0
10
126.076
20
24.1733
0
VERTEX
8
0
10
125.92
20
24.2438
0
VERTEX
8
0
10
123.97
20
25.0931
0
VERTEX
8
0
10
122.176
20
27.0982
0
VERTEX
8
0
10
120.87
20
28.6917
0
VERTEX
8
0
10
121.033
20
33.6137
0
VERTEX
8
0
10
121.037
20
33.7247
0
VERTEX
8
0
10
121.04
20
33.8355
0
VERTEX
8
0
10
121.366
20
33.9872
0
VERTEX
8
0
10
123.938
20
35.181
0
VERTEX
8
0
10
126.309
20
35.2177
0
VERTEX
8
0
10
130.154
20
35.2703
0
VERTEX
8
0
10
135.929
20
35.3645
0
VERTEX
8
0
10
137.224
20
34.7139
0
VERTEX
8
0
10
138.652
20
33.95
0
VERTEX
8
0
10
138.481
20
28.9676
0
VERTEX
8
0
10
138.463
20
28.4155
0
VERTEX
8
0
10
138.323
20
28.2671
0
SEQEND
0
TEXT
8
0
10
120.709
20
26.9871
40
5
1
14.3
0
ENDSEC
0
EOF
