999
Creator: CLJ++
0
SECTION
2
HEADER
9
$ACADVER
1
AC1009
9
$EXTMIN
10
0
20
0
9
$EXTMAX
10
175
20
37
9
$LIMMIN
10
0
20
0
9
$LIMMAX
10
175
20
37
0
ENDSEC
0
SECTION
2
TABLES
0
TABLE
2
VPORT
70
1
0
VPORT
2
*Active
70
0
10
0
20
0
11
1
21
1
12
87.5
22
18.5
13
0
23
0
14
0.5
24
0.5
15
0.5
25
0.5
16
0
26
0
36
1
17
0
27
0
37
0
40
37
41
1
42
50
43
0
44
0
50
0
51
0
71
0
72
1
73
1
74
3
75
0
76
0
77
0
78
0
0
ENDTAB
0
TABLE
2
LTYPE
70
1
0
LTYPE
2
CONTINUOUS
70
0
3
Solid line
72
65
73
0
40
0
0
ENDTAB
0
TABLE
2
LAYER
70
1
0
LAYER
2
0
70
0
62
255
6
CONTINUOUS
0
ENDTAB
0
ENDSEC
0
SECTION
2
ENTITIES
0
POLYLINE
8
0
10
0
20
0
66
1
70
1
62
1
0
VERTEX
8
0
10
90.255
20
35.4705
0
VERTEX
8
0
10
91.9181
20
35.8118
0
VERTEX
8
0
10
93.0726
20
36.0354
0
VERTEX
8
0
10
98.6096
20
35.6871
0
VERTEX
8
0
10
102.791
20
35.4559
0
VERTEX
8
0
10
107.594
20
35.1838
0
VERTEX
8
0
10
108.345
20
35.1219
0
VERTEX
8
0
10
108.972
20
35.0689
0
VERTEX
8
0
10
108.842
20
32.4126
0
VERTEX
8
0
10
108.65
20
28.7223
0
VERTEX
8
0
10
107.878
20
27.1393
0
VERTEX
8
0
10
106.384
20
24.3135
0
VERTEX
8
0
10
104.673
20
22.8767
0
VERTEX
8
0
10
104.581
20
22.7827
0
VERTEX
8
0
10
104.276
20
22.7904
0
VERTEX
8
0
10
103.336
20
22.8079
0
VERTEX
8
0
10
101.114
20
22.8493
0
VERTEX
8
0
10
95.5467
20
22.8485
0
VERTEX
8
0
10
94.2334
20
23.7264
0
VERTEX
8
0
10
93.3962
20
24.3633
0
VERTEX
8
0
10
91.3403
20
26.1025
0
VERTEX
8
0
10
89.9086
20
27.3544
0
VERTEX
8
0
10
89.9952
20
29.1949
0
VERTEX
8
0
10
90.1127
20
32.0191
0
VERTEX
8
0
10
90.1992
20
34.037
0
SEQEND
0
TEXT
8
0
10
90.896
20
26.6365
40
5
1
15.1
0
POLYLINE
8
0
10
0
20
0
66
1
70
1
62
1
0
VERTEX
8
0
10
63.347
20
31.1278
0
VERTEX
8
0
10
63.3649
20
33.7641
0
VERTEX
8
0
10
66.0269
20
35.1112
0
VERTEX
8
0
10
67.3148
20
35.7671
0
VERTEX
8
0
10
69.1076
20
35.7358
0
VERTEX
8
0
10
71.3555
20
35.6971
0
VERTEX
8
0
10
78.5989
20
35.572
0
VERTEX
8
0
10
79.8498
20
35.5522
0
VERTEX
8
0
10
80.6243
20
35.5465
0
VERTEX
8
0
10
80.7016
20
28.7918
0
VERTEX
8
0
10
80.7019
20
28.7512
0
VERTEX
8
0
10
80.686
20
28.7165
0
VERTEX
8
0
10
78.6969
20
24.485
0
VERTEX
8
0
10
77.1633
20
23.4746
0
VERTEX
8
0
10
76.3124
20
22.9059
0
VERTEX
8
0
10
74.8926
20
22.9134
0
VERTEX
8
0
10
69.1388
20
22.9436
0
VERTEX
8
0
10
68.7848
20
23.1271
0
VERTEX
8
0
10
66.2176
20
24.3708
0
VERTEX
8
0
10
65.9688
20
24.6333
0
VERTEX
8
0
10
64.9377
20
25.7076
0
VERTEX
8
0
10
63.3155
20
27.3971
0
SEQEND
0
TEXT
8
0
10
64.5167
20
26.5821
40
5
1
15.2
0
POLYLINE
8
0
10
0
20
0
66
1
70
1
62
1
0
VERTEX
8
0
10
135.284
20
25.3133
0
VERTEX
8
0
10
134.935
20
24.9355
0
VERTEX
8
0
10
134.829
20
24.8117
0
VERTEX
8
0
10
133.654
20
23.948
0
VERTEX
8
0
10
133.416
20
23.775
0
VERTEX
8
0
10
128.111
20
23.6819
0
VERTEX
8
0
10
124.977
20
23.4742
0
VERTEX
8
0
10
123.306
20
24.1998
0
VERTEX
8
0
10
122.923
20
24.3719
0
VERTEX
8
0
10
120.778
20
27.467
0
VERTEX
8
0
10
120.012
20
28.5593
0
VERTEX
8
0
10
120.155
20
31.5368
0
VERTEX
8
0
10
120.247
20
33.7606
0
VERTEX
8
0
10
122.757
20
34.8902
0
VERTEX
8
0
10
122.941
20
34.9748
0
VERTEX
8
0
10
127.806
20
35.0409
0
VERTEX
8
0
10
135.081
20
35.1473
0
VERTEX
8
0
10
135.619
20
34.9163
0
VERTEX
8
0
10
137.9
20
33.8669
0
VERTEX
8
0
10
137.775
20
30.5165
0
VERTEX
8
0
10
137.68
20
27.9395
0
VERTEX
8
0
10
137.147
20
27.3642
0
SEQEND
0
TEXT
8
0
10
119.892
20
27.0972
40
5
1
15.3
0
ENDSEC
0
EOF
