999
Creator: CLJ++
0
SECTION
2
HEADER
9
$ACADVER
1
AC1009
9
$EXTMIN
10
0
20
0
9
$EXTMAX
10
175
20
37
9
$LIMMIN
10
0
20
0
9
$LIMMAX
10
175
20
37
0
ENDSEC
0
SECTION
2
TABLES
0
TABLE
2
VPORT
70
1
0
VPORT
2
*Active
70
0
10
0
20
0
11
1
21
1
12
87.5
22
18.5
13
0
23
0
14
0.5
24
0.5
15
0.5
25
0.5
16
0
26
0
36
1
17
0
27
0
37
0
40
37
41
1
42
50
43
0
44
0
50
0
51
0
71
0
72
1
73
1
74
3
75
0
76
0
77
0
78
0
0
ENDTAB
0
TABLE
2
LTYPE
70
1
0
LTYPE
2
CONTINUOUS
70
0
3
Solid line
72
65
73
0
40
0
0
ENDTAB
0
TABLE
2
LAYER
70
1
0
LAYER
2
0
70
0
62
255
6
CONTINUOUS
0
ENDTAB
0
ENDSEC
0
SECTION
2
ENTITIES
0
POLYLINE
8
0
10
0
20
0
66
1
70
1
62
1
0
VERTEX
8
0
10
165.838
20
30.341
0
VERTEX
8
0
10
165.484
20
30.4247
0
VERTEX
8
0
10
164.879
20
30.515
0
VERTEX
8
0
10
164.621
20
30.5767
0
VERTEX
8
0
10
164.564
20
30.5681
0
VERTEX
8
0
10
164.16
20
30.3816
0
VERTEX
8
0
10
163.774
20
30.4779
0
VERTEX
8
0
10
162.41
20
30.8789
0
VERTEX
8
0
10
161.72
20
31.1231
0
VERTEX
8
0
10
161.97
20
32.485
0
VERTEX
8
0
10
162.235
20
33.8287
0
VERTEX
8
0
10
162.648
20
34.0927
0
VERTEX
8
0
10
163.606
20
34.7548
0
VERTEX
8
0
10
165.134
20
35.7716
0
VERTEX
8
0
10
165.681
20
36.2077
0
VERTEX
8
0
10
166.575
20
36.0456
0
VERTEX
8
0
10
167.348
20
35.9079
0
VERTEX
8
0
10
172.288
20
35.26
0
VERTEX
8
0
10
172.392
20
35.2
0
VERTEX
8
0
10
172.995
20
34.8481
0
VERTEX
8
0
10
173.167
20
33.5701
0
VERTEX
8
0
10
173.371
20
32.0075
0
VERTEX
8
0
10
173.071
20
31.8104
0
VERTEX
8
0
10
170.761
20
30.3219
0
VERTEX
8
0
10
170.348
20
30.2606
0
VERTEX
8
0
10
170.234
20
30.259
0
VERTEX
8
0
10
167.56
20
30.2421
0
VERTEX
8
0
10
167.125
20
30.2604
0
SEQEND
0
TEXT
8
0
10
158.461
20
31.004
40
5
1
16.1
0
POLYLINE
8
0
10
0
20
0
66
1
70
1
62
1
0
VERTEX
8
0
10
103.521
20
22.3997
0
VERTEX
8
0
10
95.6416
20
22.39
0
VERTEX
8
0
10
95.2602
20
22.6801
0
VERTEX
8
0
10
93.3783
20
24.0229
0
VERTEX
8
0
10
91.8833
20
25.3599
0
VERTEX
8
0
10
89.9197
20
27.4312
0
VERTEX
8
0
10
89.9278
20
30.6368
0
VERTEX
8
0
10
90.1516
20
35.4136
0
VERTEX
8
0
10
90.209
20
35.4279
0
VERTEX
8
0
10
91.2657
20
35.674
0
VERTEX
8
0
10
92.4556
20
35.9522
0
VERTEX
8
0
10
92.5455
20
35.9717
0
VERTEX
8
0
10
102.731
20
35.2728
0
VERTEX
8
0
10
107.685
20
34.9547
0
VERTEX
8
0
10
108.272
20
34.9108
0
VERTEX
8
0
10
108.498
20
34.8931
0
VERTEX
8
0
10
108.436
20
33.8353
0
VERTEX
8
0
10
108.35
20
32.4431
0
VERTEX
8
0
10
108.218
20
30.2865
0
VERTEX
8
0
10
108.117
20
28.6659
0
VERTEX
8
0
10
107.078
20
26.095
0
VERTEX
8
0
10
106.608
20
24.9341
0
VERTEX
8
0
10
106.191
20
23.9723
0
VERTEX
8
0
10
106.089
20
23.8901
0
VERTEX
8
0
10
104.102
20
22.3999
0
SEQEND
0
TEXT
8
0
10
89.6662
20
26.9682
40
5
1
16.2
0
POLYLINE
8
0
10
0
20
0
66
1
70
1
62
1
0
VERTEX
8
0
10
77.1075
20
23.0779
0
VERTEX
8
0
10
72.0944
20
22.9443
0
VERTEX
8
0
10
71.0176
20
22.9156
0
VERTEX
8
0
10
70.7811
20
22.909
0
VERTEX
8
0
10
69.5708
20
22.8753
0
VERTEX
8
0
10
68.7146
20
23.2857
0
VERTEX
8
0
10
66.8234
20
24.0201
0
VERTEX
8
0
10
65.6056
20
25.1882
0
VERTEX
8
0
10
64.7663
20
26.0796
0
VERTEX
8
0
10
63.8393
20
27.0635
0
VERTEX
8
0
10
63.8676
20
29.4
0
VERTEX
8
0
10
63.9048
20
32.8825
0
VERTEX
8
0
10
63.9102
20
33.3655
0
VERTEX
8
0
10
63.913
20
33.6599
0
VERTEX
8
0
10
64.2476
20
33.8311
0
VERTEX
8
0
10
67.8296
20
35.6656
0
VERTEX
8
0
10
71.9229
20
35.5968
0
VERTEX
8
0
10
81.3165
20
35.4418
0
VERTEX
8
0
10
81.3166
20
35.4245
0
VERTEX
8
0
10
81.3296
20
28.8528
0
VERTEX
8
0
10
80.2676
20
26.485
0
VERTEX
8
0
10
79.6233
20
25.0721
0
VERTEX
8
0
10
79.3076
20
24.3093
0
VERTEX
8
0
10
77.3364
20
23.2107
0
VERTEX
8
0
10
77.139
20
23.1
0
SEQEND
0
TEXT
8
0
10
63.9894
20
26.5193
40
5
1
16.3
0
POLYLINE
8
0
10
0
20
0
66
1
70
1
62
1
0
VERTEX
8
0
10
130.233
20
22.9551
0
VERTEX
8
0
10
126.792
20
22.7804
0
VERTEX
8
0
10
125.24
20
22.694
0
VERTEX
8
0
10
124.415
20
22.648
0
VERTEX
8
0
10
124.372
20
22.6474
0
VERTEX
8
0
10
123.872
20
22.6393
0
VERTEX
8
0
10
123.547
20
22.8057
0
VERTEX
8
0
10
121.828
20
23.6768
0
VERTEX
8
0
10
119.882
20
26.9003
0
VERTEX
8
0
10
118.993
20
28.4294
0
VERTEX
8
0
10
119.054
20
29.3641
0
VERTEX
8
0
10
119.165
20
31.218
0
VERTEX
8
0
10
119.258
20
32.7972
0
VERTEX
8
0
10
119.306
20
33.6742
0
VERTEX
8
0
10
120.817
20
34.3225
0
VERTEX
8
0
10
121.844
20
34.7544
0
VERTEX
8
0
10
126.714
20
34.8248
0
VERTEX
8
0
10
134.233
20
34.9335
0
VERTEX
8
0
10
134.248
20
34.9282
0
VERTEX
8
0
10
137.153
20
33.7858
0
VERTEX
8
0
10
137.026
20
30.6275
0
VERTEX
8
0
10
136.909
20
27.7042
0
VERTEX
8
0
10
136.42
20
27.1422
0
VERTEX
8
0
10
134.565
20
24.8823
0
VERTEX
8
0
10
134.225
20
24.4739
0
VERTEX
8
0
10
134.123
20
24.3343
0
VERTEX
8
0
10
133.004
20
23.4741
0
VERTEX
8
0
10
132.551
20
23.1319
0
VERTEX
8
0
10
130.89
20
22.9884
0
SEQEND
0
TEXT
8
0
10
118.978
20
26.57
40
5
1
16.4
0
ENDSEC
0
EOF
