999
Creator: CLJ++
0
SECTION
2
HEADER
9
$ACADVER
1
AC1009
9
$EXTMIN
10
0
20
0
9
$EXTMAX
10
175
20
37
9
$LIMMIN
10
0
20
0
9
$LIMMAX
10
175
20
37
0
ENDSEC
0
SECTION
2
TABLES
0
TABLE
2
VPORT
70
1
0
VPORT
2
*Active
70
0
10
0
20
0
11
1
21
1
12
87.5
22
18.5
13
0
23
0
14
0.5
24
0.5
15
0.5
25
0.5
16
0
26
0
36
1
17
0
27
0
37
0
40
37
41
1
42
50
43
0
44
0
50
0
51
0
71
0
72
1
73
1
74
3
75
0
76
0
77
0
78
0
0
ENDTAB
0
TABLE
2
LTYPE
70
1
0
LTYPE
2
CONTINUOUS
70
0
3
Solid line
72
65
73
0
40
0
0
ENDTAB
0
TABLE
2
LAYER
70
1
0
LAYER
2
0
70
0
62
255
6
CONTINUOUS
0
ENDTAB
0
ENDSEC
0
SECTION
2
ENTITIES
0
POLYLINE
8
0
10
0
20
0
66
1
70
1
62
1
0
VERTEX
8
0
10
163.609
20
29.4671
0
VERTEX
8
0
10
163.369
20
29.524
0
VERTEX
8
0
10
163.126
20
29.4277
0
VERTEX
8
0
10
162.694
20
29.2274
0
VERTEX
8
0
10
162.653
20
29.2212
0
VERTEX
8
0
10
162.313
20
29.2094
0
VERTEX
8
0
10
161.055
20
29.2293
0
VERTEX
8
0
10
159.231
20
30.1764
0
VERTEX
8
0
10
158.361
20
30.6893
0
VERTEX
8
0
10
158.514
20
31.7227
0
VERTEX
8
0
10
158.802
20
33.7209
0
VERTEX
8
0
10
158.821
20
33.7336
0
VERTEX
8
0
10
158.872
20
33.7658
0
VERTEX
8
0
10
162.096
20
35.8242
0
VERTEX
8
0
10
163.686
20
36.7715
0
VERTEX
8
0
10
165.9
20
36.8466
0
VERTEX
8
0
10
168.455
20
36.8813
0
VERTEX
8
0
10
168.558
20
36.9008
0
VERTEX
8
0
10
168.798
20
36.865
0
VERTEX
8
0
10
171.373
20
35.6205
0
VERTEX
8
0
10
173.892
20
34.4245
0
VERTEX
8
0
10
173.993
20
31.6693
0
VERTEX
8
0
10
174.003
20
31.3515
0
VERTEX
8
0
10
173.923
20
31.2987
0
VERTEX
8
0
10
173.401
20
30.9611
0
VERTEX
8
0
10
172.496
20
30.333
0
VERTEX
8
0
10
172.28
20
30.2984
0
VERTEX
8
0
10
172.164
20
30.267
0
VERTEX
8
0
10
170.821
20
29.8886
0
VERTEX
8
0
10
170.205
20
29.7558
0
VERTEX
8
0
10
169.402
20
29.6321
0
VERTEX
8
0
10
167.985
20
29.4219
0
VERTEX
8
0
10
166.41
20
29.3989
0
VERTEX
8
0
10
165.308
20
29.3919
0
VERTEX
8
0
10
163.781
20
29.4563
0
SEQEND
0
TEXT
8
0
10
158.185
20
30.8394
40
5
1
17.1
0
POLYLINE
8
0
10
0
20
0
66
1
70
1
62
1
0
VERTEX
8
0
10
96.0189
20
21.9316
0
VERTEX
8
0
10
93.3776
20
23.5943
0
VERTEX
8
0
10
93.2544
20
23.6824
0
VERTEX
8
0
10
92.7968
20
24.2153
0
VERTEX
8
0
10
89.8649
20
27.8452
0
VERTEX
8
0
10
89.9927
20
31.4648
0
VERTEX
8
0
10
90.0747
20
35.3437
0
VERTEX
8
0
10
90.6026
20
35.5028
0
VERTEX
8
0
10
92.0181
20
35.8857
0
VERTEX
8
0
10
103.261
20
34.9976
0
VERTEX
8
0
10
106.735
20
34.7239
0
VERTEX
8
0
10
107.778
20
34.6485
0
VERTEX
8
0
10
108.018
20
34.6394
0
VERTEX
8
0
10
108.043
20
34.6374
0
VERTEX
8
0
10
108.009
20
33.9326
0
VERTEX
8
0
10
107.774
20
28.6101
0
VERTEX
8
0
10
107.035
20
26.5907
0
VERTEX
8
0
10
105.915
20
23.6324
0
VERTEX
8
0
10
104.248
20
22.2675
0
VERTEX
8
0
10
103.811
20
21.9395
0
VERTEX
8
0
10
96.8671
20
21.9327
0
SEQEND
0
TEXT
8
0
10
92.0076
20
25.6129
40
5
1
17.2
0
POLYLINE
8
0
10
0
20
0
66
1
70
1
62
1
0
VERTEX
8
0
10
67.5992
20
23.6897
0
VERTEX
8
0
10
64.7465
20
26.3424
0
VERTEX
8
0
10
64.3465
20
26.73
0
VERTEX
8
0
10
64.3872
20
29.5307
0
VERTEX
8
0
10
64.4373
20
33.3068
0
VERTEX
8
0
10
64.4393
20
33.4484
0
VERTEX
8
0
10
64.4406
20
33.55
0
VERTEX
8
0
10
64.6329
20
33.6485
0
VERTEX
8
0
10
68.3446
20
35.5508
0
VERTEX
8
0
10
76.3904
20
35.4108
0
VERTEX
8
0
10
81.9015
20
35.3193
0
VERTEX
8
0
10
81.9949
20
32.791
0
VERTEX
8
0
10
82.1087
20
29.1727
0
VERTEX
8
0
10
81.2058
20
26.9809
0
VERTEX
8
0
10
79.9275
20
24.0974
0
VERTEX
8
0
10
78.929
20
23.5064
0
VERTEX
8
0
10
77.5432
20
22.6591
0
VERTEX
8
0
10
75.209
20
22.6714
0
VERTEX
8
0
10
70.4092
20
22.6966
0
VERTEX
8
0
10
70.1319
20
22.7917
0
VERTEX
8
0
10
68.0896
20
23.5159
0
VERTEX
8
0
10
67.6545
20
23.6695
0
SEQEND
0
TEXT
8
0
10
66.2802
20
26.3492
40
5
1
17.3
0
POLYLINE
8
0
10
0
20
0
66
1
70
1
62
1
0
VERTEX
8
0
10
133.33
20
23.3742
0
VERTEX
8
0
10
133.293
20
23.349
0
VERTEX
8
0
10
131.98
20
22.4703
0
VERTEX
8
0
10
131.675
20
22.2517
0
VERTEX
8
0
10
129.002
20
22.2088
0
VERTEX
8
0
10
128.775
20
22.2052
0
VERTEX
8
0
10
128.313
20
22.2124
0
VERTEX
8
0
10
125.8
20
22.2517
0
VERTEX
8
0
10
122.791
20
22.2876
0
VERTEX
8
0
10
120.706
20
23.4264
0
VERTEX
8
0
10
120.7
20
23.43
0
VERTEX
8
0
10
120.686
20
23.4371
0
VERTEX
8
0
10
120.682
20
23.4396
0
VERTEX
8
0
10
120.615
20
23.5489
0
VERTEX
8
0
10
117.795
20
28.3022
0
VERTEX
8
0
10
117.915
20
29.3981
0
VERTEX
8
0
10
117.996
20
30.1639
0
VERTEX
8
0
10
118.161
20
32.5003
0
VERTEX
8
0
10
118.232
20
33.5894
0
VERTEX
8
0
10
119.718
20
34.2269
0
VERTEX
8
0
10
120.431
20
34.5338
0
VERTEX
8
0
10
129.437
20
34.6566
0
VERTEX
8
0
10
133.408
20
34.7129
0
VERTEX
8
0
10
135.746
20
33.9172
0
VERTEX
8
0
10
136.378
20
33.696
0
VERTEX
8
0
10
136.318
20
32.3231
0
VERTEX
8
0
10
136.087
20
27.4531
0
VERTEX
8
0
10
135.595
20
26.8275
0
VERTEX
8
0
10
133.377
20
23.4084
0
VERTEX
8
0
10
133.366
20
23.4001
0
SEQEND
0
TEXT
8
0
10
118.582
20
25.721
40
5
1
17.4
0
ENDSEC
0
EOF
