999
Creator: CLJ++
0
SECTION
2
HEADER
9
$ACADVER
1
AC1009
9
$EXTMIN
10
0
20
0
9
$EXTMAX
10
175
20
37
9
$LIMMIN
10
0
20
0
9
$LIMMAX
10
175
20
37
0
ENDSEC
0
SECTION
2
TABLES
0
TABLE
2
VPORT
70
1
0
VPORT
2
*Active
70
0
10
0
20
0
11
1
21
1
12
87.5
22
18.5
13
0
23
0
14
0.5
24
0.5
15
0.5
25
0.5
16
0
26
0
36
1
17
0
27
0
37
0
40
37
41
1
42
50
43
0
44
0
50
0
51
0
71
0
72
1
73
1
74
3
75
0
76
0
77
0
78
0
0
ENDTAB
0
TABLE
2
LTYPE
70
1
0
LTYPE
2
CONTINUOUS
70
0
3
Solid line
72
65
73
0
40
0
0
ENDTAB
0
TABLE
2
LAYER
70
1
0
LAYER
2
0
70
0
62
255
6
CONTINUOUS
0
ENDTAB
0
ENDSEC
0
SECTION
2
ENTITIES
0
POLYLINE
8
0
10
0
20
0
66
1
70
1
62
1
0
VERTEX
8
0
10
164.574
20
28.5679
0
VERTEX
8
0
10
163.8
20
28.3164
0
VERTEX
8
0
10
163.741
20
28.2856
0
VERTEX
8
0
10
162.993
20
28.2439
0
VERTEX
8
0
10
162.165
20
28.1933
0
VERTEX
8
0
10
160.845
20
28.2185
0
VERTEX
8
0
10
158.837
20
28.2854
0
VERTEX
8
0
10
157.173
20
29.3218
0
VERTEX
8
0
10
155.762
20
30.2595
0
VERTEX
8
0
10
155.955
20
31.6545
0
VERTEX
8
0
10
156.165
20
33.2214
0
VERTEX
8
0
10
156.86
20
33.6993
0
VERTEX
8
0
10
158.478
20
34.7647
0
VERTEX
8
0
10
159.967
20
35.7553
0
VERTEX
8
0
10
160.697
20
36.2502
0
VERTEX
8
0
10
163.898
20
36.425
0
VERTEX
8
0
10
168.212
20
36.6799
0
VERTEX
8
0
10
171.048
20
35.4018
0
VERTEX
8
0
10
173.392
20
34.2819
0
VERTEX
8
0
10
173.371
20
32.4697
0
VERTEX
8
0
10
173.335
20
30.6776
0
VERTEX
8
0
10
172.941
20
30.3762
0
VERTEX
8
0
10
172.726
20
30.1949
0
VERTEX
8
0
10
172.476
20
29.961
0
VERTEX
8
0
10
171.843
20
29.4371
0
VERTEX
8
0
10
171.649
20
29.3938
0
VERTEX
8
0
10
171.388
20
29.7488
0
VERTEX
8
0
10
171.034
20
30.0167
0
VERTEX
8
0
10
170.921
20
29.6621
0
VERTEX
8
0
10
170.827
20
29.647
0
VERTEX
8
0
10
169.887
20
29.3929
0
VERTEX
8
0
10
169.424
20
29.2625
0
VERTEX
8
0
10
167.876
20
28.9292
0
VERTEX
8
0
10
165.86
20
28.6185
0
VERTEX
8
0
10
165.622
20
28.5832
0
SEQEND
0
TEXT
8
0
10
155.543
20
30.2151
40
5
1
18.1
0
POLYLINE
8
0
10
0
20
0
66
1
70
1
62
1
0
VERTEX
8
0
10
71.3338
20
22.2661
0
VERTEX
8
0
10
69.714
20
22.8048
0
VERTEX
8
0
10
68.3932
20
23.2599
0
VERTEX
8
0
10
66.9174
20
24.5453
0
VERTEX
8
0
10
65.709
20
25.6343
0
VERTEX
8
0
10
64.8646
20
26.3964
0
VERTEX
8
0
10
64.912
20
29.3605
0
VERTEX
8
0
10
64.972
20
33.4419
0
VERTEX
8
0
10
66.0636
20
34.0055
0
VERTEX
8
0
10
68.8594
20
35.4482
0
VERTEX
8
0
10
70.1139
20
35.4274
0
VERTEX
8
0
10
72.5141
20
35.387
0
VERTEX
8
0
10
80.2125
20
35.2583
0
VERTEX
8
0
10
82.4001
20
35.2221
0
VERTEX
8
0
10
82.4325
20
35.2236
0
VERTEX
8
0
10
82.4533
20
34.0064
0
VERTEX
8
0
10
82.4162
20
32.4351
0
VERTEX
8
0
10
82.411
20
31.5549
0
VERTEX
8
0
10
82.3801
20
30.6956
0
VERTEX
8
0
10
82.371
20
29.476
0
VERTEX
8
0
10
81.8381
20
28.0936
0
VERTEX
8
0
10
80.4075
20
23.8862
0
VERTEX
8
0
10
79.3513
20
23.1937
0
VERTEX
8
0
10
77.9552
20
22.2313
0
VERTEX
8
0
10
75.5264
20
22.2441
0
VERTEX
8
0
10
73.536
20
22.2545
0
SEQEND
0
TEXT
8
0
10
66.711
20
26.0689
40
5
1
18.2
0
POLYLINE
8
0
10
0
20
0
66
1
70
1
62
1
0
VERTEX
8
0
10
122.088
20
22.0452
0
VERTEX
8
0
10
121.814
20
22.0437
0
VERTEX
8
0
10
121.724
20
22.0416
0
VERTEX
8
0
10
121.672
20
22.0696
0
VERTEX
8
0
10
119.609
20
23.2024
0
VERTEX
8
0
10
116.824
20
27.7376
0
VERTEX
8
0
10
116.423
20
28.3912
0
VERTEX
8
0
10
116.477
20
28.9834
0
VERTEX
8
0
10
116.55
20
29.7826
0
VERTEX
8
0
10
116.793
20
31.8877
0
VERTEX
8
0
10
116.904
20
33.4985
0
VERTEX
8
0
10
117.598
20
33.7667
0
VERTEX
8
0
10
119.018
20
34.3123
0
VERTEX
8
0
10
120.314
20
34.3305
0
VERTEX
8
0
10
122.294
20
34.3588
0
VERTEX
8
0
10
128.094
20
34.4429
0
VERTEX
8
0
10
132.702
20
34.5054
0
VERTEX
8
0
10
134.4
20
33.9586
0
VERTEX
8
0
10
135.443
20
33.6197
0
VERTEX
8
0
10
135.303
20
31.0979
0
VERTEX
8
0
10
135.084
20
27.3845
0
VERTEX
8
0
10
134.324
20
26.2257
0
VERTEX
8
0
10
132.361
20
23.144
0
VERTEX
8
0
10
131.834
20
22.7548
0
VERTEX
8
0
10
131.489
20
22.489
0
VERTEX
8
0
10
130.829
20
21.9973
0
VERTEX
8
0
10
128.416
20
22.0859
0
SEQEND
0
TEXT
8
0
10
117.392
20
25.5132
40
5
1
18.3
0
POLYLINE
8
0
10
0
20
0
66
1
70
1
62
1
0
VERTEX
8
0
10
92.0537
20
24.869
0
VERTEX
8
0
10
89.7725
20
28.292
0
VERTEX
8
0
10
89.8597
20
29.8291
0
VERTEX
8
0
10
89.9768
20
32.5535
0
VERTEX
8
0
10
90.0682
20
34.3302
0
VERTEX
8
0
10
90.1039
20
35.2867
0
VERTEX
8
0
10
91.192
20
35.7202
0
VERTEX
8
0
10
91.491
20
35.8215
0
VERTEX
8
0
10
94.7873
20
35.5306
0
VERTEX
8
0
10
107.786
20
34.3124
0
VERTEX
8
0
10
107.61
20
30.672
0
VERTEX
8
0
10
107.513
20
28.5545
0
VERTEX
8
0
10
107.161
20
27.5896
0
VERTEX
8
0
10
105.655
20
23.2917
0
VERTEX
8
0
10
103.654
20
21.5831
0
VERTEX
8
0
10
103.532
20
21.4786
0
VERTEX
8
0
10
103.469
20
21.4785
0
VERTEX
8
0
10
102.783
20
21.478
0
VERTEX
8
0
10
96.856
20
21.4736
0
VERTEX
8
0
10
96.4216
20
21.4732
0
VERTEX
8
0
10
93.267
20
23.2439
0
VERTEX
8
0
10
93.1103
20
23.3418
0
SEQEND
0
TEXT
8
0
10
91.8326
20
25.3194
40
5
1
18.4
0
ENDSEC
0
EOF
