999
Creator: CLJ++
0
SECTION
2
HEADER
9
$ACADVER
1
AC1009
9
$EXTMIN
10
0
20
0
9
$EXTMAX
10
175
20
37
9
$LIMMIN
10
0
20
0
9
$LIMMAX
10
175
20
37
0
ENDSEC
0
SECTION
2
TABLES
0
TABLE
2
VPORT
70
1
0
VPORT
2
*Active
70
0
10
0
20
0
11
1
21
1
12
87.5
22
18.5
13
0
23
0
14
0.5
24
0.5
15
0.5
25
0.5
16
0
26
0
36
1
17
0
27
0
37
0
40
37
41
1
42
50
43
0
44
0
50
0
51
0
71
0
72
1
73
1
74
3
75
0
76
0
77
0
78
0
0
ENDTAB
0
TABLE
2
LTYPE
70
1
0
LTYPE
2
CONTINUOUS
70
0
3
Solid line
72
65
73
0
40
0
0
ENDTAB
0
TABLE
2
LAYER
70
1
0
LAYER
2
0
70
0
62
255
6
CONTINUOUS
0
ENDTAB
0
ENDSEC
0
SECTION
2
ENTITIES
0
POLYLINE
8
0
10
0
20
0
66
1
70
1
62
1
0
VERTEX
8
0
10
163.724
20
27.5142
0
VERTEX
8
0
10
162.26
20
27.408
0
VERTEX
8
0
10
159.599
20
27.1857
0
VERTEX
8
0
10
159.239
20
27.1825
0
VERTEX
8
0
10
159.098
20
27.1802
0
VERTEX
8
0
10
157.153
20
27.0045
0
VERTEX
8
0
10
155.496
20
28.216
0
VERTEX
8
0
10
153.468
20
29.8313
0
VERTEX
8
0
10
153.671
20
31.3855
0
VERTEX
8
0
10
153.842
20
32.7252
0
VERTEX
8
0
10
154.576
20
33.2911
0
VERTEX
8
0
10
155.743
20
34.1372
0
VERTEX
8
0
10
157.097
20
35.1396
0
VERTEX
8
0
10
157.981
20
35.7571
0
VERTEX
8
0
10
162.435
20
36.0188
0
VERTEX
8
0
10
166.587
20
36.2728
0
VERTEX
8
0
10
170.111
20
34.7531
0
VERTEX
8
0
10
172.013
20
33.9408
0
VERTEX
8
0
10
171.95
20
32.629
0
VERTEX
8
0
10
171.866
20
31.1271
0
VERTEX
8
0
10
171.86
20
31.0051
0
VERTEX
8
0
10
171.854
20
30.8487
0
VERTEX
8
0
10
171.896
20
30.1803
0
VERTEX
8
0
10
171.636
20
29.9578
0
VERTEX
8
0
10
169.719
20
28.5026
0
VERTEX
8
0
10
169.458
20
28.4494
0
VERTEX
8
0
10
169.323
20
28.4166
0
VERTEX
8
0
10
169.127
20
28.3852
0
VERTEX
8
0
10
168.305
20
28.1062
0
VERTEX
8
0
10
167.084
20
27.8167
0
VERTEX
8
0
10
166.901
20
27.7917
0
VERTEX
8
0
10
166.7
20
27.7912
0
VERTEX
8
0
10
166.233
20
27.7635
0
VERTEX
8
0
10
165.542
20
27.685
0
SEQEND
0
TEXT
8
0
10
154.238
20
28.8334
40
5
1
19.1
0
POLYLINE
8
0
10
0
20
0
66
1
70
1
62
1
0
VERTEX
8
0
10
101.238
20
21.0164
0
VERTEX
8
0
10
96.8244
20
21.0148
0
VERTEX
8
0
10
94.2376
20
22.3675
0
VERTEX
8
0
10
92.9662
20
23.0012
0
VERTEX
8
0
10
91.7941
20
25.3018
0
VERTEX
8
0
10
89.942
20
28.7275
0
VERTEX
8
0
10
89.9597
20
28.9075
0
VERTEX
8
0
10
89.9841
20
29.2066
0
VERTEX
8
0
10
90.269
20
32.6881
0
VERTEX
8
0
10
90.4387
20
35.2122
0
VERTEX
8
0
10
90.5233
20
35.3408
0
VERTEX
8
0
10
90.9346
20
35.7178
0
VERTEX
8
0
10
100.115
20
34.7579
0
VERTEX
8
0
10
104.862
20
34.2399
0
VERTEX
8
0
10
106.07
20
34.1075
0
VERTEX
8
0
10
107.595
20
33.958
0
VERTEX
8
0
10
107.529
20
32.6558
0
VERTEX
8
0
10
107.322
20
28.4991
0
VERTEX
8
0
10
106.515
20
26.0381
0
VERTEX
8
0
10
105.483
20
22.9511
0
VERTEX
8
0
10
103.61
20
21.3246
0
VERTEX
8
0
10
103.252
20
21.0176
0
SEQEND
0
TEXT
8
0
10
90.776
20
25.6245
40
5
1
19.2
0
POLYLINE
8
0
10
0
20
0
66
1
70
1
62
1
0
VERTEX
8
0
10
80.2011
20
23.3537
0
VERTEX
8
0
10
78.3691
20
21.8089
0
VERTEX
8
0
10
74.1936
20
21.827
0
VERTEX
8
0
10
72.2592
20
21.8373
0
VERTEX
8
0
10
70.1179
20
22.5198
0
VERTEX
8
0
10
69.1872
20
22.8301
0
VERTEX
8
0
10
66.7796
20
24.8862
0
VERTEX
8
0
10
65.4163
20
26.0627
0
VERTEX
8
0
10
65.4283
20
26.882
0
VERTEX
8
0
10
65.4479
20
28.3536
0
VERTEX
8
0
10
65.5016
20
31.5396
0
VERTEX
8
0
10
65.5297
20
33.3363
0
VERTEX
8
0
10
67.4465
20
34.3301
0
VERTEX
8
0
10
69.4203
20
35.3383
0
VERTEX
8
0
10
79.5469
20
35.118
0
VERTEX
8
0
10
82.7056
20
35.0247
0
VERTEX
8
0
10
82.8519
20
30.6468
0
VERTEX
8
0
10
82.8718
20
29.7791
0
VERTEX
8
0
10
82.3283
20
27.873
0
VERTEX
8
0
10
80.6932
20
23.7113
0
SEQEND
0
TEXT
8
0
10
65.5522
20
26.3611
40
5
1
19.3
0
POLYLINE
8
0
10
0
20
0
66
1
70
1
62
1
0
VERTEX
8
0
10
127.381
20
21.7996
0
VERTEX
8
0
10
123.081
20
21.7114
0
VERTEX
8
0
10
120.913
20
21.6505
0
VERTEX
8
0
10
119.852
20
22.1955
0
VERTEX
8
0
10
118.844
20
22.7349
0
VERTEX
8
0
10
116.398
20
26.7884
0
VERTEX
8
0
10
115.556
20
28.2077
0
VERTEX
8
0
10
115.642
20
29.2086
0
VERTEX
8
0
10
115.741
20
30.382
0
VERTEX
8
0
10
115.89
20
32.0945
0
VERTEX
8
0
10
116.004
20
33.4113
0
VERTEX
8
0
10
116.687
20
33.7115
0
VERTEX
8
0
10
117.605
20
34.0874
0
VERTEX
8
0
10
121.268
20
34.1386
0
VERTEX
8
0
10
132.002
20
34.2736
0
VERTEX
8
0
10
132.191
20
34.2124
0
VERTEX
8
0
10
134.351
20
33.5172
0
VERTEX
8
0
10
133.971
20
27.7917
0
VERTEX
8
0
10
133.94
20
27.3232
0
VERTEX
8
0
10
133.891
20
27.2474
0
VERTEX
8
0
10
133.77
20
27.069
0
VERTEX
8
0
10
131.905
20
24.2749
0
VERTEX
8
0
10
131.15
20
23.0751
0
VERTEX
8
0
10
130.107
20
22.3136
0
VERTEX
8
0
10
129.497
20
21.8339
0
VERTEX
8
0
10
128.671
20
21.8292
0
SEQEND
0
TEXT
8
0
10
116.431
20
25.2186
40
5
1
19.4
0
ENDSEC
0
EOF
