999
Creator: CLJ++
0
SECTION
2
HEADER
9
$ACADVER
1
AC1009
9
$EXTMIN
10
0
20
0
9
$EXTMAX
10
175
20
37
9
$LIMMIN
10
0
20
0
9
$LIMMAX
10
175
20
37
0
ENDSEC
0
SECTION
2
TABLES
0
TABLE
2
VPORT
70
1
0
VPORT
2
*Active
70
0
10
0
20
0
11
1
21
1
12
87.5
22
18.5
13
0
23
0
14
0.5
24
0.5
15
0.5
25
0.5
16
0
26
0
36
1
17
0
27
0
37
0
40
37
41
1
42
50
43
0
44
0
50
0
51
0
71
0
72
1
73
1
74
3
75
0
76
0
77
0
78
0
0
ENDTAB
0
TABLE
2
LTYPE
70
1
0
LTYPE
2
CONTINUOUS
70
0
3
Solid line
72
65
73
0
40
0
0
ENDTAB
0
TABLE
2
LAYER
70
1
0
LAYER
2
0
70
0
62
255
6
CONTINUOUS
0
ENDTAB
0
ENDSEC
0
SECTION
2
ENTITIES
0
POLYLINE
8
0
10
0
20
0
66
1
70
1
62
1
0
VERTEX
8
0
10
164.567
20
26.8751
0
VERTEX
8
0
10
164.515
20
26.8707
0
VERTEX
8
0
10
161.855
20
26.5187
0
VERTEX
8
0
10
160.523
20
26.2744
0
VERTEX
8
0
10
160.096
20
26.2606
0
VERTEX
8
0
10
159.441
20
26.2419
0
VERTEX
8
0
10
157.033
20
26.1631
0
VERTEX
8
0
10
156.839
20
26.1908
0
VERTEX
8
0
10
155.585
20
26.443
0
VERTEX
8
0
10
153.295
20
28.1997
0
VERTEX
8
0
10
151.678
20
29.4058
0
VERTEX
8
0
10
151.775
20
30.2334
0
VERTEX
8
0
10
151.893
20
31.2547
0
VERTEX
8
0
10
151.947
20
31.8007
0
VERTEX
8
0
10
151.993
20
32.2776
0
VERTEX
8
0
10
153.146
20
33.3293
0
VERTEX
8
0
10
154.687
20
34.6489
0
VERTEX
8
0
10
155.074
20
34.988
0
VERTEX
8
0
10
155.434
20
35.2784
0
VERTEX
8
0
10
158.617
20
35.4212
0
VERTEX
8
0
10
164.853
20
35.8285
0
VERTEX
8
0
10
165.192
20
35.682
0
VERTEX
8
0
10
167.887
20
34.5232
0
VERTEX
8
0
10
170.234
20
33.4919
0
VERTEX
8
0
10
169.946
20
31.1484
0
VERTEX
8
0
10
169.771
20
29.8242
0
VERTEX
8
0
10
168.813
20
28.6879
0
VERTEX
8
0
10
167.807
20
27.4133
0
VERTEX
8
0
10
167.608
20
27.3884
0
VERTEX
8
0
10
167.475
20
27.3623
0
VERTEX
8
0
10
166.472
20
27.1215
0
VERTEX
8
0
10
164.642
20
26.8806
0
SEQEND
0
TEXT
8
0
10
153.49
20
28.7815
40
5
1
20.1
0
POLYLINE
8
0
10
0
20
0
66
1
70
1
62
1
0
VERTEX
8
0
10
90.4542
20
34.0422
0
VERTEX
8
0
10
90.5568
20
35.2435
0
VERTEX
8
0
10
90.5921
20
35.3091
0
VERTEX
8
0
10
101.739
20
34.2129
0
VERTEX
8
0
10
107.484
20
33.6558
0
VERTEX
8
0
10
107.211
20
28.5239
0
VERTEX
8
0
10
107.207
20
28.444
0
VERTEX
8
0
10
105.535
20
22.8555
0
VERTEX
8
0
10
105.466
20
22.6107
0
VERTEX
8
0
10
105.388
20
22.5501
0
VERTEX
8
0
10
102.973
20
20.5566
0
VERTEX
8
0
10
99.6863
20
20.5566
0
VERTEX
8
0
10
97.2271
20
20.5563
0
VERTEX
8
0
10
96.6771
20
20.8279
0
VERTEX
8
0
10
92.7663
20
22.6606
0
VERTEX
8
0
10
91.0676
20
26.7694
0
VERTEX
8
0
10
89.9843
20
29.0819
0
VERTEX
8
0
10
90.1125
20
30.4055
0
VERTEX
8
0
10
90.3331
20
32.5601
0
SEQEND
0
TEXT
8
0
10
91.2387
20
25.189
40
5
1
20.2
0
POLYLINE
8
0
10
0
20
0
66
1
70
1
62
1
0
VERTEX
8
0
10
79.0924
20
21.6405
0
VERTEX
8
0
10
78.7795
20
21.3766
0
VERTEX
8
0
10
73.9248
20
21.402
0
VERTEX
8
0
10
73.1833
20
21.4054
0
VERTEX
8
0
10
70.2271
20
22.2749
0
VERTEX
8
0
10
69.8336
20
22.4011
0
VERTEX
8
0
10
66.7916
20
25.033
0
VERTEX
8
0
10
65.9872
20
25.7289
0
VERTEX
8
0
10
66.0408
20
28.1726
0
VERTEX
8
0
10
66.1196
20
31.9625
0
VERTEX
8
0
10
66.1344
20
32.7702
0
VERTEX
8
0
10
66.1425
20
33.2431
0
VERTEX
8
0
10
66.5752
20
33.4668
0
VERTEX
8
0
10
69.9992
20
35.2449
0
VERTEX
8
0
10
74.4552
20
35.0685
0
VERTEX
8
0
10
83.5298
20
34.6483
0
VERTEX
8
0
10
83.5583
20
30.8404
0
VERTEX
8
0
10
83.5528
20
29.9807
0
VERTEX
8
0
10
83.3721
20
29.391
0
VERTEX
8
0
10
82.5413
20
26.5264
0
VERTEX
8
0
10
81.443
20
23.5459
0
SEQEND
0
TEXT
8
0
10
65.7453
20
26.097
40
5
1
20.3
0
POLYLINE
8
0
10
0
20
0
66
1
70
1
62
1
0
VERTEX
8
0
10
120.155
20
21.2596
0
VERTEX
8
0
10
118.478
20
22.0927
0
VERTEX
8
0
10
118.122
20
22.2682
0
VERTEX
8
0
10
117.846
20
22.7573
0
VERTEX
8
0
10
117.179
20
23.9226
0
VERTEX
8
0
10
114.828
20
28.0268
0
VERTEX
8
0
10
115.022
20
29.9538
0
VERTEX
8
0
10
115.237
20
32.1064
0
VERTEX
8
0
10
115.254
20
32.2843
0
VERTEX
8
0
10
115.342
20
33.3014
0
VERTEX
8
0
10
115.936
20
33.6158
0
VERTEX
8
0
10
116.197
20
33.7532
0
VERTEX
8
0
10
125.451
20
34.0081
0
VERTEX
8
0
10
131.302
20
34.0841
0
VERTEX
8
0
10
132.602
20
33.6328
0
VERTEX
8
0
10
133.146
20
33.4496
0
VERTEX
8
0
10
132.996
20
31.4077
0
VERTEX
8
0
10
132.681
20
27.268
0
VERTEX
8
0
10
131.679
20
25.6605
0
VERTEX
8
0
10
129.993
20
22.7801
0
VERTEX
8
0
10
129.431
20
22.3948
0
VERTEX
8
0
10
128.545
20
21.7871
0
VERTEX
8
0
10
128.095
20
21.4914
0
VERTEX
8
0
10
123.587
20
21.3751
0
SEQEND
0
TEXT
8
0
10
115.957
20
24.9191
40
5
1
20.4
0
ENDSEC
0
EOF
