999
Creator: CLJ++
0
SECTION
2
HEADER
9
$ACADVER
1
AC1009
9
$EXTMIN
10
0
20
0
9
$EXTMAX
10
175
20
37
9
$LIMMIN
10
0
20
0
9
$LIMMAX
10
175
20
37
0
ENDSEC
0
SECTION
2
TABLES
0
TABLE
2
VPORT
70
1
0
VPORT
2
*Active
70
0
10
0
20
0
11
1
21
1
12
87.5
22
18.5
13
0
23
0
14
0.5
24
0.5
15
0.5
25
0.5
16
0
26
0
36
1
17
0
27
0
37
0
40
37
41
1
42
50
43
0
44
0
50
0
51
0
71
0
72
1
73
1
74
3
75
0
76
0
77
0
78
0
0
ENDTAB
0
TABLE
2
LTYPE
70
1
0
LTYPE
2
CONTINUOUS
70
0
3
Solid line
72
65
73
0
40
0
0
ENDTAB
0
TABLE
2
LAYER
70
1
0
LAYER
2
0
70
0
62
255
6
CONTINUOUS
0
ENDTAB
0
ENDSEC
0
SECTION
2
ENTITIES
0
POLYLINE
8
0
10
0
20
0
66
1
70
1
62
1
0
VERTEX
8
0
10
162.056
20
25.9528
0
VERTEX
8
0
10
161.891
20
25.9473
0
VERTEX
8
0
10
161.29
20
25.9363
0
VERTEX
8
0
10
160.917
20
25.9294
0
VERTEX
8
0
10
159.141
20
25.8645
0
VERTEX
8
0
10
158.855
20
25.8466
0
VERTEX
8
0
10
157.457
20
25.7279
0
VERTEX
8
0
10
154.593
20
25.4849
0
VERTEX
8
0
10
154.543
20
25.4806
0
VERTEX
8
0
10
154.461
20
25.4737
0
VERTEX
8
0
10
154.423
20
25.4852
0
VERTEX
8
0
10
153.507
20
25.769
0
VERTEX
8
0
10
149.737
20
28.6126
0
VERTEX
8
0
10
149.275
20
28.9771
0
VERTEX
8
0
10
149.352
20
29.3791
0
VERTEX
8
0
10
149.463
20
29.985
0
VERTEX
8
0
10
149.651
20
31.0486
0
VERTEX
8
0
10
149.779
20
31.7953
0
VERTEX
8
0
10
150.847
20
32.8208
0
VERTEX
8
0
10
152.531
20
34.4367
0
VERTEX
8
0
10
152.753
20
34.6523
0
VERTEX
8
0
10
152.902
20
34.7931
0
VERTEX
8
0
10
159.276
20
35.1573
0
VERTEX
8
0
10
163.07
20
35.3743
0
VERTEX
8
0
10
163.22
20
35.3134
0
VERTEX
8
0
10
163.326
20
35.2683
0
VERTEX
8
0
10
165.261
20
34.4444
0
VERTEX
8
0
10
168.523
20
33.0546
0
VERTEX
8
0
10
168.512
20
32.968
0
VERTEX
8
0
10
168.437
20
32.4405
0
VERTEX
8
0
10
168.144
20
30.3607
0
VERTEX
8
0
10
168.016
20
29.3903
0
VERTEX
8
0
10
167.082
20
27.9864
0
VERTEX
8
0
10
166.133
20
26.3795
0
VERTEX
8
0
10
165.63
20
26.2818
0
VERTEX
8
0
10
165.392
20
26.2578
0
VERTEX
8
0
10
163.634
20
26.0985
0
VERTEX
8
0
10
162.384
20
25.9621
0
SEQEND
0
TEXT
8
0
10
150.34
20
28.2084
40
5
1
21.1
0
POLYLINE
8
0
10
0
20
0
66
1
70
1
62
1
0
VERTEX
8
0
10
131.191
20
26.9851
0
VERTEX
8
0
10
130.085
20
25.0467
0
VERTEX
8
0
10
128.756
20
22.4852
0
VERTEX
8
0
10
128.156
20
22.091
0
VERTEX
8
0
10
126.707
20
21.1402
0
VERTEX
8
0
10
120.461
20
20.9148
0
VERTEX
8
0
10
119.397
20
20.8687
0
VERTEX
8
0
10
118.206
20
21.4397
0
VERTEX
8
0
10
117.352
20
21.8006
0
VERTEX
8
0
10
114.941
20
26.1419
0
VERTEX
8
0
10
114.009
20
27.8442
0
VERTEX
8
0
10
114.119
20
28.734
0
VERTEX
8
0
10
114.234
20
29.7969
0
VERTEX
8
0
10
114.405
20
31.3362
0
VERTEX
8
0
10
114.567
20
32.8232
0
VERTEX
8
0
10
114.75
20
33.0065
0
VERTEX
8
0
10
114.813
20
33.0527
0
VERTEX
8
0
10
129.231
20
33.786
0
VERTEX
8
0
10
130.601
20
33.8716
0
VERTEX
8
0
10
130.66
20
33.8447
0
VERTEX
8
0
10
131.837
20
33.3589
0
VERTEX
8
0
10
131.426
20
28.4584
0
VERTEX
8
0
10
131.322
20
27.2179
0
SEQEND
0
TEXT
8
0
10
117.031
20
24.6091
40
5
1
21.2
0
POLYLINE
8
0
10
0
20
0
66
1
70
1
62
1
0
VERTEX
8
0
10
83.0572
20
26.7483
0
VERTEX
8
0
10
82.1663
20
23.5985
0
VERTEX
8
0
10
82.1305
20
23.4712
0
VERTEX
8
0
10
82.1227
20
23.4184
0
VERTEX
8
0
10
82.0664
20
23.2755
0
VERTEX
8
0
10
81.9566
20
23.1751
0
VERTEX
8
0
10
79.1872
20
20.9368
0
VERTEX
8
0
10
77.8291
20
20.9443
0
VERTEX
8
0
10
74.1067
20
20.9714
0
VERTEX
8
0
10
72.2655
20
21.4125
0
VERTEX
8
0
10
70.1857
20
21.9736
0
VERTEX
8
0
10
68.618
20
23.3733
0
VERTEX
8
0
10
66.3481
20
25.3961
0
VERTEX
8
0
10
66.3847
20
26.5482
0
VERTEX
8
0
10
66.4299
20
28.0191
0
VERTEX
8
0
10
66.5152
20
30.9854
0
VERTEX
8
0
10
66.5746
20
33.1308
0
VERTEX
8
0
10
67.6179
20
33.6746
0
VERTEX
8
0
10
70.5141
20
35.1369
0
VERTEX
8
0
10
77.9655
20
34.6786
0
VERTEX
8
0
10
84.2097
20
34.3113
0
VERTEX
8
0
10
84.1168
20
30.79
0
VERTEX
8
0
10
84.0894
20
30.1964
0
SEQEND
0
TEXT
8
0
10
66.218
20
25.8218
40
5
1
21.3
0
POLYLINE
8
0
10
0
20
0
66
1
70
1
62
1
0
VERTEX
8
0
10
103.571
20
33.4595
0
VERTEX
8
0
10
107.48
20
33.0322
0
VERTEX
8
0
10
107.231
20
28.8156
0
VERTEX
8
0
10
107.206
20
28.3892
0
VERTEX
8
0
10
105.97
20
23.8467
0
VERTEX
8
0
10
105.554
20
22.2704
0
VERTEX
8
0
10
104.913
20
21.8036
0
VERTEX
8
0
10
102.694
20
20.0957
0
VERTEX
8
0
10
100.863
20
20.1031
0
VERTEX
8
0
10
97.4039
20
20.1146
0
VERTEX
8
0
10
95.4613
20
20.9737
0
VERTEX
8
0
10
92.5024
20
22.3199
0
VERTEX
8
0
10
91.8872
20
24.1063
0
VERTEX
8
0
10
91.7483
20
24.5251
0
VERTEX
8
0
10
91.4425
20
25.4324
0
VERTEX
8
0
10
89.9025
20
29.3914
0
VERTEX
8
0
10
89.999
20
30.4764
0
VERTEX
8
0
10
90.4449
20
34.9989
0
VERTEX
8
0
10
94.5378
20
34.5238
0
SEQEND
0
TEXT
8
0
10
91.743
20
24.7976
40
5
1
21.4
0
ENDSEC
0
EOF
