999
Creator: CLJ++
0
SECTION
2
HEADER
9
$ACADVER
1
AC1009
9
$EXTMIN
10
0
20
0
9
$EXTMAX
10
175
20
37
9
$LIMMIN
10
0
20
0
9
$LIMMAX
10
175
20
37
0
ENDSEC
0
SECTION
2
TABLES
0
TABLE
2
VPORT
70
1
0
VPORT
2
*Active
70
0
10
0
20
0
11
1
21
1
12
87.5
22
18.5
13
0
23
0
14
0.5
24
0.5
15
0.5
25
0.5
16
0
26
0
36
1
17
0
27
0
37
0
40
37
41
1
42
50
43
0
44
0
50
0
51
0
71
0
72
1
73
1
74
3
75
0
76
0
77
0
78
0
0
ENDTAB
0
TABLE
2
LTYPE
70
1
0
LTYPE
2
CONTINUOUS
70
0
3
Solid line
72
65
73
0
40
0
0
ENDTAB
0
TABLE
2
LAYER
70
1
0
LAYER
2
0
70
0
62
255
6
CONTINUOUS
0
ENDTAB
0
ENDSEC
0
SECTION
2
ENTITIES
0
POLYLINE
8
0
10
0
20
0
66
1
70
1
62
1
0
VERTEX
8
0
10
159.879
20
25.2942
0
VERTEX
8
0
10
159.738
20
25.2822
0
VERTEX
8
0
10
156.734
20
25.0272
0
VERTEX
8
0
10
154.444
20
24.8328
0
VERTEX
8
0
10
153.601
20
24.7613
0
VERTEX
8
0
10
151.893
20
24.6163
0
VERTEX
8
0
10
150.661
20
24.9661
0
VERTEX
8
0
10
150.635
20
24.9735
0
VERTEX
8
0
10
150.474
20
25.0968
0
VERTEX
8
0
10
146.026
20
28.5438
0
VERTEX
8
0
10
146.2
20
29.2428
0
VERTEX
8
0
10
146.469
20
30.3857
0
VERTEX
8
0
10
146.584
20
30.8856
0
VERTEX
8
0
10
146.658
20
31.2203
0
VERTEX
8
0
10
148.424
20
32.8135
0
VERTEX
8
0
10
149.896
20
34.2466
0
VERTEX
8
0
10
152.412
20
34.3976
0
VERTEX
8
0
10
160.854
20
34.8875
0
VERTEX
8
0
10
166.4
20
32.6622
0
VERTEX
8
0
10
166.598
20
32.5828
0
VERTEX
8
0
10
166.591
20
32.5328
0
VERTEX
8
0
10
166.07
20
28.791
0
VERTEX
8
0
10
165.225
20
27.6728
0
VERTEX
8
0
10
163.789
20
25.942
0
VERTEX
8
0
10
163.676
20
25.9301
0
VERTEX
8
0
10
163.605
20
25.9211
0
VERTEX
8
0
10
161.816
20
25.6389
0
VERTEX
8
0
10
160.121
20
25.3147
0
SEQEND
0
TEXT
8
0
10
147.813
20
27.5342
40
5
1
22.1
0
POLYLINE
8
0
10
0
20
0
66
1
70
1
62
1
0
VERTEX
8
0
10
91.5991
20
34.0798
0
VERTEX
8
0
10
92.8509
20
33.9522
0
VERTEX
8
0
10
98.2448
20
33.2429
0
VERTEX
8
0
10
107.692
20
32.3981
0
VERTEX
8
0
10
107.615
20
31.0596
0
VERTEX
8
0
10
107.557
20
29.778
0
VERTEX
8
0
10
107.578
20
28.2692
0
VERTEX
8
0
10
107.019
20
26.6322
0
VERTEX
8
0
10
105.76
20
21.9605
0
VERTEX
8
0
10
103.23
20
20.2586
0
VERTEX
8
0
10
102.417
20
19.6721
0
VERTEX
8
0
10
98.9435
20
19.6949
0
VERTEX
8
0
10
97.6898
20
19.7011
0
VERTEX
8
0
10
93.0861
20
21.6915
0
VERTEX
8
0
10
92.3064
20
22.0363
0
VERTEX
8
0
10
90.0178
20
28.1774
0
VERTEX
8
0
10
89.9092
20
28.5131
0
VERTEX
8
0
10
89.6381
20
29.4737
0
VERTEX
8
0
10
89.4911
20
29.9114
0
VERTEX
8
0
10
89.9271
20
32.6822
0
VERTEX
8
0
10
90.0479
20
33.4585
0
VERTEX
8
0
10
90.1425
20
34.2694
0
SEQEND
0
TEXT
8
0
10
91.6455
20
24.2331
40
5
1
22.2
0
POLYLINE
8
0
10
0
20
0
66
1
70
1
62
1
0
VERTEX
8
0
10
84.5576
20
29.1519
0
VERTEX
8
0
10
83.872
20
27.4122
0
VERTEX
8
0
10
83.6674
20
26.5558
0
VERTEX
8
0
10
83.6045
20
26.1987
0
VERTEX
8
0
10
83.5829
20
25.9741
0
VERTEX
8
0
10
82.7349
20
23.0676
0
VERTEX
8
0
10
81.0743
20
21.8974
0
VERTEX
8
0
10
79.6044
20
20.5234
0
VERTEX
8
0
10
75.8214
20
20.538
0
VERTEX
8
0
10
75.0318
20
20.5419
0
VERTEX
8
0
10
71.8865
20
21.2085
0
VERTEX
8
0
10
70.5103
20
21.5462
0
VERTEX
8
0
10
67.4562
20
24.2183
0
VERTEX
8
0
10
66.5104
20
25.0644
0
VERTEX
8
0
10
66.572
20
26.784
0
VERTEX
8
0
10
66.651
20
28.8593
0
VERTEX
8
0
10
66.7334
20
31.1512
0
VERTEX
8
0
10
66.8035
20
33.0992
0
VERTEX
8
0
10
70.2992
20
34.8091
0
VERTEX
8
0
10
70.924
20
35.1226
0
VERTEX
8
0
10
81.8511
20
34.0416
0
VERTEX
8
0
10
84.8916
20
33.8573
0
VERTEX
8
0
10
84.779
20
32.0185
0
VERTEX
8
0
10
84.7483
20
30.4355
0
SEQEND
0
TEXT
8
0
10
67.6677
20
25.0854
40
5
1
22.3
0
POLYLINE
8
0
10
0
20
0
66
1
70
1
62
1
0
VERTEX
8
0
10
118.475
20
20.5492
0
VERTEX
8
0
10
117.757
20
20.7837
0
VERTEX
8
0
10
116.385
20
21.2492
0
VERTEX
8
0
10
116.08
20
21.325
0
VERTEX
8
0
10
113.815
20
25.637
0
VERTEX
8
0
10
112.755
20
27.6539
0
VERTEX
8
0
10
112.959
20
29.0013
0
VERTEX
8
0
10
113.362
20
32.0904
0
VERTEX
8
0
10
114.34
20
32.2216
0
VERTEX
8
0
10
117.278
20
32.4465
0
VERTEX
8
0
10
129.907
20
33.5357
0
VERTEX
8
0
10
130.082
20
33.4036
0
VERTEX
8
0
10
130.472
20
33.1718
0
VERTEX
8
0
10
129.938
20
27.3867
0
VERTEX
8
0
10
129.918
20
27.1703
0
VERTEX
8
0
10
128.237
20
23.8745
0
VERTEX
8
0
10
127.359
20
22.1906
0
VERTEX
8
0
10
126.393
20
21.5387
0
VERTEX
8
0
10
125.319
20
20.789
0
VERTEX
8
0
10
121.88
20
20.6477
0
VERTEX
8
0
10
118.639
20
20.4777
0
SEQEND
0
TEXT
8
0
10
113.618
20
24.2432
40
5
1
22.4
0
ENDSEC
0
EOF
