999
Creator: CLJ++
0
SECTION
2
HEADER
9
$ACADVER
1
AC1009
9
$EXTMIN
10
0
20
0
9
$EXTMAX
10
175
20
37
9
$LIMMIN
10
0
20
0
9
$LIMMAX
10
175
20
37
0
ENDSEC
0
SECTION
2
TABLES
0
TABLE
2
VPORT
70
1
0
VPORT
2
*Active
70
0
10
0
20
0
11
1
21
1
12
87.5
22
18.5
13
0
23
0
14
0.5
24
0.5
15
0.5
25
0.5
16
0
26
0
36
1
17
0
27
0
37
0
40
37
41
1
42
50
43
0
44
0
50
0
51
0
71
0
72
1
73
1
74
3
75
0
76
0
77
0
78
0
0
ENDTAB
0
TABLE
2
LTYPE
70
1
0
LTYPE
2
CONTINUOUS
70
0
3
Solid line
72
65
73
0
40
0
0
ENDTAB
0
TABLE
2
LAYER
70
1
0
LAYER
2
0
70
0
62
255
6
CONTINUOUS
0
ENDTAB
0
ENDSEC
0
SECTION
2
ENTITIES
0
POLYLINE
8
0
10
0
20
0
66
1
70
1
62
1
0
VERTEX
8
0
10
156.234
20
24.3454
0
VERTEX
8
0
10
155.346
20
24.27
0
VERTEX
8
0
10
153.318
20
24.0979
0
VERTEX
8
0
10
151.123
20
23.8861
0
VERTEX
8
0
10
150.653
20
23.8094
0
VERTEX
8
0
10
149.328
20
23.5078
0
VERTEX
8
0
10
148.183
20
23.6615
0
VERTEX
8
0
10
148.074
20
23.693
0
VERTEX
8
0
10
147.827
20
23.7558
0
VERTEX
8
0
10
145.934
20
25.4964
0
VERTEX
8
0
10
142.999
20
28.1117
0
VERTEX
8
0
10
143.084
20
28.6733
0
VERTEX
8
0
10
143.145
20
29.2651
0
VERTEX
8
0
10
143.219
20
29.8337
0
VERTEX
8
0
10
143.384
20
30.4775
0
VERTEX
8
0
10
144.118
20
31.0798
0
VERTEX
8
0
10
145.122
20
31.9163
0
VERTEX
8
0
10
147.164
20
33.6001
0
VERTEX
8
0
10
148.013
20
33.6699
0
VERTEX
8
0
10
148.931
20
33.7326
0
VERTEX
8
0
10
152.758
20
33.9912
0
VERTEX
8
0
10
156.909
20
34.2789
0
VERTEX
8
0
10
157.71
20
34.3324
0
VERTEX
8
0
10
158.64
20
34.3977
0
VERTEX
8
0
10
159.578
20
34.0088
0
VERTEX
8
0
10
164.203
20
32.1515
0
VERTEX
8
0
10
164.078
20
31.4511
0
VERTEX
8
0
10
163.782
20
29.8218
0
VERTEX
8
0
10
163.613
20
28.9033
0
VERTEX
8
0
10
163.508
20
28.3266
0
VERTEX
8
0
10
162.204
20
26.6504
0
VERTEX
8
0
10
161.132
20
25.1709
0
VERTEX
8
0
10
160.525
20
25.0647
0
VERTEX
8
0
10
159.645
20
24.8728
0
VERTEX
8
0
10
158.593
20
24.6622
0
VERTEX
8
0
10
157.861
20
24.4835
0
SEQEND
0
TEXT
8
0
10
145.056
20
26.1878
40
5
1
23.1
0
POLYLINE
8
0
10
0
20
0
66
1
70
1
62
1
0
VERTEX
8
0
10
117.544
20
20.1057
0
VERTEX
8
0
10
117.177
20
20.1969
0
VERTEX
8
0
10
115.704
20
20.7107
0
VERTEX
8
0
10
114.693
20
21.0838
0
VERTEX
8
0
10
113.463
20
22.7847
0
VERTEX
8
0
10
111.322
20
26.3377
0
VERTEX
8
0
10
111.151
20
26.3835
0
VERTEX
8
0
10
110.959
20
26.3983
0
VERTEX
8
0
10
110.375
20
26.7832
0
VERTEX
8
0
10
109.872
20
26.6029
0
VERTEX
8
0
10
108.55
20
25.9192
0
VERTEX
8
0
10
107.957
20
25.873
0
VERTEX
8
0
10
107.684
20
25.7918
0
VERTEX
8
0
10
107.449
20
25.6442
0
VERTEX
8
0
10
106.371
20
22.9163
0
VERTEX
8
0
10
105.863
20
21.6932
0
VERTEX
8
0
10
105.444
20
21.3875
0
VERTEX
8
0
10
102.169
20
19.2931
0
VERTEX
8
0
10
101.759
20
19.2954
0
VERTEX
8
0
10
100.386
20
19.3119
0
VERTEX
8
0
10
97.9794
20
19.3586
0
VERTEX
8
0
10
97.0405
20
19.7686
0
VERTEX
8
0
10
92.2461
20
21.8255
0
VERTEX
8
0
10
90.2596
20
24.4495
0
VERTEX
8
0
10
89.2703
20
26.7951
0
VERTEX
8
0
10
88.2816
20
28.9043
0
VERTEX
8
0
10
88.1218
20
28.9333
0
VERTEX
8
0
10
87.8884
20
29.0992
0
VERTEX
8
0
10
87.4728
20
29.0934
0
VERTEX
8
0
10
86.7866
20
26.5197
0
VERTEX
8
0
10
84.0105
20
22.8943
0
VERTEX
8
0
10
82.3271
20
21.7333
0
VERTEX
8
0
10
80.0373
20
20.1536
0
VERTEX
8
0
10
79.4672
20
20.1541
0
VERTEX
8
0
10
75.9735
20
20.1577
0
VERTEX
8
0
10
74.57
20
20.4189
0
VERTEX
8
0
10
70.6888
20
21.2091
0
VERTEX
8
0
10
68.9185
20
22.8222
0
VERTEX
8
0
10
67.0807
20
24.1822
0
VERTEX
8
0
10
66.6096
20
24.6092
0
VERTEX
8
0
10
66.7053
20
28.3509
0
VERTEX
8
0
10
66.7749
20
30.6884
0
VERTEX
8
0
10
66.8065
20
31.7037
0
VERTEX
8
0
10
66.8509
20
33.0584
0
VERTEX
8
0
10
67.7267
20
33.4578
0
VERTEX
8
0
10
68.5518
20
33.9683
0
VERTEX
8
0
10
69.8388
20
34.7498
0
VERTEX
8
0
10
71.3119
20
35.5488
0
VERTEX
8
0
10
73.188
20
35.2592
0
VERTEX
8
0
10
78.8372
20
34.3728
0
VERTEX
8
0
10
79.8442
20
34.2386
0
VERTEX
8
0
10
79.3805
20
34.7629
0
VERTEX
8
0
10
80.036
20
34.6352
0
VERTEX
8
0
10
82.5664
20
34.1996
0
VERTEX
8
0
10
83.6813
20
33.9755
0
VERTEX
8
0
10
84.2878
20
33.8969
0
VERTEX
8
0
10
85.0464
20
33.7318
0
VERTEX
8
0
10
85.3496
20
33.6785
0
VERTEX
8
0
10
85.9652
20
33.7899
0
VERTEX
8
0
10
86.4143
20
33.6838
0
VERTEX
8
0
10
86.7427
20
33.5842
0
VERTEX
8
0
10
87.1816
20
33.5487
0
VERTEX
8
0
10
87.4962
20
33.4536
0
VERTEX
8
0
10
87.6911
20
33.4771
0
VERTEX
8
0
10
87.784
20
33.4803
0
VERTEX
8
0
10
88.1786
20
33.5157
0
VERTEX
8
0
10
96.8938
20
34.508
0
VERTEX
8
0
10
105.186
20
32.6882
0
VERTEX
8
0
10
108.627
20
32.1776
0
VERTEX
8
0
10
108.729
20
32.1737
0
VERTEX
8
0
10
109.946
20
32.0304
0
VERTEX
8
0
10
110.584
20
32.1219
0
VERTEX
8
0
10
111.17
20
32.1338
0
VERTEX
8
0
10
112.869
20
31.9781
0
VERTEX
8
0
10
114.339
20
32.1537
0
VERTEX
8
0
10
121.079
20
32.4837
0
VERTEX
8
0
10
121.996
20
32.5174
0
VERTEX
8
0
10
123.356
20
32.6096
0
VERTEX
8
0
10
129.22
20
32.9442
0
VERTEX
8
0
10
129.314
20
32.7644
0
VERTEX
8
0
10
128.792
20
27.2915
0
VERTEX
8
0
10
128.775
20
27.109
0
VERTEX
8
0
10
127.314
20
24.2854
0
VERTEX
8
0
10
126.04
20
21.8959
0
VERTEX
8
0
10
125.605
20
21.5827
0
VERTEX
8
0
10
123.92
20
20.4579
0
VERTEX
8
0
10
119.372
20
20.0975
0
VERTEX
8
0
10
117.834
20
20.0074
0
SEQEND
0
TEXT
8
0
10
69.233
20
25.2064
40
5
1
23.2
0
ENDSEC
0
EOF
