999
Creator: CLJ++
0
SECTION
2
HEADER
9
$ACADVER
1
AC1009
9
$EXTMIN
10
0
20
0
9
$EXTMAX
10
175
20
37
9
$LIMMIN
10
0
20
0
9
$LIMMAX
10
175
20
37
0
ENDSEC
0
SECTION
2
TABLES
0
TABLE
2
VPORT
70
1
0
VPORT
2
*Active
70
0
10
0
20
0
11
1
21
1
12
87.5
22
18.5
13
0
23
0
14
0.5
24
0.5
15
0.5
25
0.5
16
0
26
0
36
1
17
0
27
0
37
0
40
37
41
1
42
50
43
0
44
0
50
0
51
0
71
0
72
1
73
1
74
3
75
0
76
0
77
0
78
0
0
ENDTAB
0
TABLE
2
LTYPE
70
1
0
LTYPE
2
CONTINUOUS
70
0
3
Solid line
72
65
73
0
40
0
0
ENDTAB
0
TABLE
2
LAYER
70
1
0
LAYER
2
0
70
0
62
255
6
CONTINUOUS
0
ENDTAB
0
ENDSEC
0
SECTION
2
ENTITIES
0
POLYLINE
8
0
10
0
20
0
66
1
70
1
62
1
0
VERTEX
8
0
10
70.7864
20
20.9218
0
VERTEX
8
0
10
68.5069
20
22.9989
0
VERTEX
8
0
10
66.9395
20
24.5072
0
VERTEX
8
0
10
67.0132
20
26.9679
0
VERTEX
8
0
10
67.1788
20
33.055
0
VERTEX
8
0
10
67.1861
20
33.3843
0
VERTEX
8
0
10
67.188
20
33.4973
0
VERTEX
8
0
10
67.2872
20
33.5596
0
VERTEX
8
0
10
67.3254
20
33.5814
0
VERTEX
8
0
10
71.6155
20
36.0971
0
VERTEX
8
0
10
72.1115
20
36.0578
0
VERTEX
8
0
10
72.359
20
36.0748
0
VERTEX
8
0
10
72.8676
20
36.1027
0
VERTEX
8
0
10
75.4383
20
36.1079
0
VERTEX
8
0
10
77.8877
20
36.296
0
VERTEX
8
0
10
77.9137
20
36.2903
0
VERTEX
8
0
10
79.2163
20
36.0616
0
VERTEX
8
0
10
79.3189
20
36.0801
0
VERTEX
8
0
10
81.1762
20
35.6415
0
VERTEX
8
0
10
82.5344
20
35.2293
0
VERTEX
8
0
10
84.3494
20
35.0827
0
VERTEX
8
0
10
85.6502
20
34.6893
0
VERTEX
8
0
10
86.4564
20
34.7864
0
VERTEX
8
0
10
86.8403
20
34.8
0
VERTEX
8
0
10
88.4722
20
34.9463
0
VERTEX
8
0
10
91.982
20
35.3459
0
VERTEX
8
0
10
95.3215
20
34.613
0
VERTEX
8
0
10
107.611
20
32.7893
0
VERTEX
8
0
10
107.974
20
32.7754
0
VERTEX
8
0
10
108.895
20
32.667
0
VERTEX
8
0
10
112.329
20
33.1589
0
VERTEX
8
0
10
112.679
20
33.166
0
VERTEX
8
0
10
115.82
20
32.878
0
VERTEX
8
0
10
116.192
20
32.8613
0
VERTEX
8
0
10
116.478
20
32.7969
0
VERTEX
8
0
10
117.331
20
32.4884
0
VERTEX
8
0
10
117.555
20
32.3547
0
VERTEX
8
0
10
120.237
20
32.3793
0
VERTEX
8
0
10
120.268
20
32.3695
0
VERTEX
8
0
10
121.5
20
32.3273
0
VERTEX
8
0
10
125.423
20
32.4489
0
VERTEX
8
0
10
127.837
20
32.1866
0
VERTEX
8
0
10
128.382
20
32.1675
0
VERTEX
8
0
10
128.329
20
30.732
0
VERTEX
8
0
10
128.012
20
27.0181
0
VERTEX
8
0
10
127.26
20
25.6997
0
VERTEX
8
0
10
126.342
20
24.0313
0
VERTEX
8
0
10
124.981
20
21.5511
0
VERTEX
8
0
10
122.776
20
20.2496
0
VERTEX
8
0
10
122.519
20
20.0679
0
VERTEX
8
0
10
122.239
20
20.0438
0
VERTEX
8
0
10
117.278
20
19.6723
0
VERTEX
8
0
10
116.441
20
19.9644
0
VERTEX
8
0
10
113.428
20
21.0758
0
VERTEX
8
0
10
111.454
20
23.8062
0
VERTEX
8
0
10
110.923
20
23.7312
0
VERTEX
8
0
10
109.85
20
24.424
0
VERTEX
8
0
10
108.712
20
24.013
0
VERTEX
8
0
10
107.795
20
23.8076
0
VERTEX
8
0
10
106.391
20
23.1782
0
VERTEX
8
0
10
105.709
20
21.5397
0
VERTEX
8
0
10
103.15
20
19.6693
0
VERTEX
8
0
10
102.092
20
18.9926
0
VERTEX
8
0
10
98.6663
20
19.0122
0
VERTEX
8
0
10
98.3207
20
19.0163
0
VERTEX
8
0
10
97.3173
20
19.4474
0
VERTEX
8
0
10
95.835
20
19.9169
0
VERTEX
8
0
10
93.1766
20
20.8695
0
VERTEX
8
0
10
91.6138
20
21.3937
0
VERTEX
8
0
10
91.4492
20
21.4814
0
VERTEX
8
0
10
91.0485
20
22.0162
0
VERTEX
8
0
10
89.9236
20
23.4739
0
VERTEX
8
0
10
89.3296
20
24.2328
0
VERTEX
8
0
10
88.7341
20
25.1529
0
VERTEX
8
0
10
87.1432
20
24.3594
0
VERTEX
8
0
10
86.493
20
23.9725
0
VERTEX
8
0
10
85.533
20
22.6736
0
VERTEX
8
0
10
81.4096
20
20.5091
0
VERTEX
8
0
10
80.5022
20
19.8719
0
VERTEX
8
0
10
78.2084
20
19.834
0
VERTEX
8
0
10
76.9297
20
19.8129
0
VERTEX
8
0
10
74.3007
20
20.2506
0
VERTEX
8
0
10
71.769
20
20.7217
0
SEQEND
0
TEXT
8
0
10
68.6584
20
25.974
40
5
1
24.1
0
POLYLINE
8
0
10
0
20
0
66
1
70
1
62
1
0
VERTEX
8
0
10
153.693
20
23.3003
0
VERTEX
8
0
10
152.999
20
23.1422
0
VERTEX
8
0
10
152.55
20
23.0399
0
VERTEX
8
0
10
152.179
20
22.9616
0
VERTEX
8
0
10
150.943
20
22.7761
0
VERTEX
8
0
10
150.551
20
22.7804
0
VERTEX
8
0
10
150.413
20
22.7674
0
VERTEX
8
0
10
150.154
20
22.7454
0
VERTEX
8
0
10
149.64
20
22.7024
0
VERTEX
8
0
10
148.676
20
22.6206
0
VERTEX
8
0
10
148.559
20
22.6159
0
VERTEX
8
0
10
147.646
20
22.6504
0
VERTEX
8
0
10
147.373
20
22.6552
0
VERTEX
8
0
10
146.713
20
22.6413
0
VERTEX
8
0
10
145.57
20
22.979
0
VERTEX
8
0
10
144.487
20
23.2502
0
VERTEX
8
0
10
142.488
20
25.298
0
VERTEX
8
0
10
140.959
20
26.8112
0
VERTEX
8
0
10
140.05
20
27.68
0
VERTEX
8
0
10
140.161
20
27.9937
0
VERTEX
8
0
10
140.309
20
28.4399
0
VERTEX
8
0
10
140.559
20
29.2705
0
VERTEX
8
0
10
140.751
20
29.9317
0
VERTEX
8
0
10
141.461
20
30.7392
0
VERTEX
8
0
10
142.39
20
31.504
0
VERTEX
8
0
10
143.205
20
32.3031
0
VERTEX
8
0
10
144.231
20
33.0813
0
VERTEX
8
0
10
148.313
20
33.297
0
VERTEX
8
0
10
152.536
20
33.6067
0
VERTEX
8
0
10
154.736
20
33.7674
0
VERTEX
8
0
10
156.437
20
33.8923
0
VERTEX
8
0
10
157.868
20
33.2802
0
VERTEX
8
0
10
161.605
20
31.6553
0
VERTEX
8
0
10
161.249
20
28.8781
0
VERTEX
8
0
10
161.079
20
27.7085
0
VERTEX
8
0
10
160.955
20
27.5218
0
VERTEX
8
0
10
160.704
20
27.2076
0
VERTEX
8
0
10
159.082
20
25.1613
0
VERTEX
8
0
10
158.443
20
24.389
0
VERTEX
8
0
10
157.465
20
24.1698
0
VERTEX
8
0
10
156.141
20
23.8024
0
VERTEX
8
0
10
155.809
20
23.6928
0
VERTEX
8
0
10
155.601
20
23.6116
0
SEQEND
0
TEXT
8
0
10
144.91
20
25.4676
40
5
1
24.2
0
ENDSEC
0
EOF
