999
Creator: CLJ++
0
SECTION
2
HEADER
9
$ACADVER
1
AC1009
9
$EXTMIN
10
0
20
0
9
$EXTMAX
10
175
20
37
9
$LIMMIN
10
0
20
0
9
$LIMMAX
10
175
20
37
0
ENDSEC
0
SECTION
2
TABLES
0
TABLE
2
VPORT
70
1
0
VPORT
2
*Active
70
0
10
0
20
0
11
1
21
1
12
87.5
22
18.5
13
0
23
0
14
0.5
24
0.5
15
0.5
25
0.5
16
0
26
0
36
1
17
0
27
0
37
0
40
37
41
1
42
50
43
0
44
0
50
0
51
0
71
0
72
1
73
1
74
3
75
0
76
0
77
0
78
0
0
ENDTAB
0
TABLE
2
LTYPE
70
1
0
LTYPE
2
CONTINUOUS
70
0
3
Solid line
72
65
73
0
40
0
0
ENDTAB
0
TABLE
2
LAYER
70
1
0
LAYER
2
0
70
0
62
255
6
CONTINUOUS
0
ENDTAB
0
ENDSEC
0
SECTION
2
ENTITIES
0
POLYLINE
8
0
10
0
20
0
66
1
70
1
62
1
0
VERTEX
8
0
10
112.163
20
21.0678
0
VERTEX
8
0
10
111.413
20
22.1055
0
VERTEX
8
0
10
109.734
20
21.8684
0
VERTEX
8
0
10
109.446
20
22.0541
0
VERTEX
8
0
10
109.141
20
21.9439
0
VERTEX
8
0
10
106.492
20
21.3508
0
VERTEX
8
0
10
105.964
20
21.3074
0
VERTEX
8
0
10
103.14
20
19.5181
0
VERTEX
8
0
10
101.946
20
18.6099
0
VERTEX
8
0
10
101.451
20
18.6058
0
VERTEX
8
0
10
98.7187
20
18.5216
0
VERTEX
8
0
10
95.2616
20
19.6829
0
VERTEX
8
0
10
90.1064
20
21.4119
0
VERTEX
8
0
10
88.9031
20
22.0536
0
VERTEX
8
0
10
88.6084
20
22.4468
0
VERTEX
8
0
10
88.1771
20
22.2009
0
VERTEX
8
0
10
85.7128
20
21.2264
0
VERTEX
8
0
10
80.9828
20
19.6338
0
VERTEX
8
0
10
79.6008
20
19.631
0
VERTEX
8
0
10
77.769
20
19.6039
0
VERTEX
8
0
10
75.4416
20
19.9847
0
VERTEX
8
0
10
70.8776
20
20.736
0
VERTEX
8
0
10
67.3788
20
24.1097
0
VERTEX
8
0
10
66.985
20
24.4721
0
VERTEX
8
0
10
67.0352
20
25.4891
0
VERTEX
8
0
10
67.1143
20
27.2838
0
VERTEX
8
0
10
67.281
20
31.4931
0
VERTEX
8
0
10
67.3561
20
33.6807
0
VERTEX
8
0
10
68.6098
20
34.3533
0
VERTEX
8
0
10
72.077
20
36.4081
0
VERTEX
8
0
10
72.6118
20
36.4313
0
VERTEX
8
0
10
72.7309
20
36.4536
0
VERTEX
8
0
10
74.2831
20
36.4924
0
VERTEX
8
0
10
76.6259
20
36.5387
0
VERTEX
8
0
10
77.0424
20
36.6252
0
VERTEX
8
0
10
78.2234
20
36.7349
0
VERTEX
8
0
10
78.3582
20
36.7634
0
VERTEX
8
0
10
78.4191
20
36.7551
0
VERTEX
8
0
10
78.47
20
36.7643
0
VERTEX
8
0
10
78.5507
20
36.7633
0
VERTEX
8
0
10
78.592
20
36.767
0
VERTEX
8
0
10
78.8764
20
36.7576
0
VERTEX
8
0
10
80.3905
20
36.7077
0
VERTEX
8
0
10
81.5172
20
36.6166
0
VERTEX
8
0
10
83.8041
20
35.925
0
VERTEX
8
0
10
85.1572
20
36.0879
0
VERTEX
8
0
10
85.2213
20
36.0787
0
VERTEX
8
0
10
85.7633
20
35.9859
0
VERTEX
8
0
10
85.9348
20
35.9536
0
VERTEX
8
0
10
86.3063
20
35.9095
0
VERTEX
8
0
10
88.8735
20
35.8422
0
VERTEX
8
0
10
90.7952
20
35.7456
0
VERTEX
8
0
10
106.596
20
33.4009
0
VERTEX
8
0
10
107.22
20
33.377
0
VERTEX
8
0
10
107.844
20
33.3035
0
VERTEX
8
0
10
114.075
20
34.1959
0
VERTEX
8
0
10
114.187
20
34.1982
0
VERTEX
8
0
10
115.197
20
34.1056
0
VERTEX
8
0
10
116.124
20
34.064
0
VERTEX
8
0
10
116.838
20
33.9033
0
VERTEX
8
0
10
118.967
20
33.1337
0
VERTEX
8
0
10
119.525
20
32.8002
0
VERTEX
8
0
10
121.637
20
32.8196
0
VERTEX
8
0
10
121.812
20
32.7633
0
VERTEX
8
0
10
124.187
20
32.6821
0
VERTEX
8
0
10
124.698
20
32.5846
0
VERTEX
8
0
10
126.485
20
32.1034
0
VERTEX
8
0
10
127.196
20
32.1836
0
VERTEX
8
0
10
127.727
20
32.126
0
VERTEX
8
0
10
128.121
20
32.1002
0
VERTEX
8
0
10
128.032
20
30.8567
0
VERTEX
8
0
10
127.957
20
30.0354
0
VERTEX
8
0
10
127.795
20
28.0715
0
VERTEX
8
0
10
127.734
20
27.3248
0
VERTEX
8
0
10
127.714
20
27.0264
0
VERTEX
8
0
10
127.39
20
26.4624
0
VERTEX
8
0
10
126.44
20
24.7808
0
VERTEX
8
0
10
124.355
20
20.9757
0
VERTEX
8
0
10
121.174
20
19.5054
0
VERTEX
8
0
10
121.172
20
19.5045
0
VERTEX
8
0
10
121.167
20
19.5042
0
VERTEX
8
0
10
117.982
20
19.339
0
VERTEX
8
0
10
116.727
20
19.292
0
VERTEX
8
0
10
114.997
20
20.0225
0
SEQEND
0
TEXT
8
0
10
71.7224
20
25.4303
40
5
1
25.1
0
POLYLINE
8
0
10
0
20
0
66
1
70
1
62
1
0
VERTEX
8
0
10
153.18
20
22.3636
0
VERTEX
8
0
10
153.171
20
22.3628
0
VERTEX
8
0
10
153.155
20
22.3614
0
VERTEX
8
0
10
152.606
20
22.3395
0
VERTEX
8
0
10
152.523
20
22.3426
0
VERTEX
8
0
10
149.958
20
22.387
0
VERTEX
8
0
10
148.007
20
22.346
0
VERTEX
8
0
10
146.364
20
22.2256
0
VERTEX
8
0
10
143.75
20
22.0047
0
VERTEX
8
0
10
143.499
20
22.0543
0
VERTEX
8
0
10
143.063
20
22.1144
0
VERTEX
8
0
10
141.72
20
22.33
0
VERTEX
8
0
10
140.529
20
22.4762
0
VERTEX
8
0
10
137.761
20
24.9793
0
VERTEX
8
0
10
135.846
20
26.7364
0
VERTEX
8
0
10
135.303
20
27.2388
0
VERTEX
8
0
10
135.397
20
27.6123
0
VERTEX
8
0
10
135.695
20
28.7448
0
VERTEX
8
0
10
136.058
20
30.0093
0
VERTEX
8
0
10
136.949
20
30.5408
0
VERTEX
8
0
10
137.975
20
31.0742
0
VERTEX
8
0
10
139.813
20
32.1463
0
VERTEX
8
0
10
141.146
20
32.2524
0
VERTEX
8
0
10
142.984
20
32.3981
0
VERTEX
8
0
10
154.051
20
33.2759
0
VERTEX
8
0
10
156.733
20
32.0677
0
VERTEX
8
0
10
159.108
20
30.9996
0
VERTEX
8
0
10
158.945
20
29.5876
0
VERTEX
8
0
10
158.724
20
27.6692
0
VERTEX
8
0
10
158.699
20
27.4486
0
VERTEX
8
0
10
158.69
20
27.365
0
VERTEX
8
0
10
158.685
20
27.3179
0
VERTEX
8
0
10
158.666
20
27.1518
0
VERTEX
8
0
10
156.375
20
24.1221
0
VERTEX
8
0
10
155.725
20
23.2476
0
VERTEX
8
0
10
154.898
20
22.962
0
VERTEX
8
0
10
154.255
20
22.6991
0
VERTEX
8
0
10
154.015
20
22.6171
0
VERTEX
8
0
10
153.793
20
22.5462
0
VERTEX
8
0
10
153.28
20
22.3721
0
SEQEND
0
TEXT
8
0
10
143.376
20
24.8541
40
5
1
25.2
0
ENDSEC
0
EOF
