999
Creator: CLJ++
0
SECTION
2
HEADER
9
$ACADVER
1
AC1009
9
$EXTMIN
10
0
20
0
9
$EXTMAX
10
175
20
37
9
$LIMMIN
10
0
20
0
9
$LIMMAX
10
175
20
37
0
ENDSEC
0
SECTION
2
TABLES
0
TABLE
2
VPORT
70
1
0
VPORT
2
*Active
70
0
10
0
20
0
11
1
21
1
12
87.5
22
18.5
13
0
23
0
14
0.5
24
0.5
15
0.5
25
0.5
16
0
26
0
36
1
17
0
27
0
37
0
40
37
41
1
42
50
43
0
44
0
50
0
51
0
71
0
72
1
73
1
74
3
75
0
76
0
77
0
78
0
0
ENDTAB
0
TABLE
2
LTYPE
70
1
0
LTYPE
2
CONTINUOUS
70
0
3
Solid line
72
65
73
0
40
0
0
ENDTAB
0
TABLE
2
LAYER
70
1
0
LAYER
2
0
70
0
62
255
6
CONTINUOUS
0
ENDTAB
0
ENDSEC
0
SECTION
2
ENTITIES
0
POLYLINE
8
0
10
0
20
0
66
1
70
1
62
1
0
VERTEX
8
0
10
105.58
20
34.0125
0
VERTEX
8
0
10
106.466
20
33.9786
0
VERTEX
8
0
10
106.793
20
33.94
0
VERTEX
8
0
10
111.913
20
34.6733
0
VERTEX
8
0
10
115.784
20
34.7983
0
VERTEX
8
0
10
116.56
20
34.9357
0
VERTEX
8
0
10
116.628
20
34.9539
0
VERTEX
8
0
10
116.715
20
34.9632
0
VERTEX
8
0
10
117.362
20
34.916
0
VERTEX
8
0
10
117.38
20
34.9174
0
VERTEX
8
0
10
117.404
20
34.9129
0
VERTEX
8
0
10
117.557
20
34.8799
0
VERTEX
8
0
10
120.603
20
33.779
0
VERTEX
8
0
10
121.495
20
33.2458
0
VERTEX
8
0
10
123.037
20
33.2599
0
VERTEX
8
0
10
123.357
20
33.1572
0
VERTEX
8
0
10
125.029
20
33.1
0
VERTEX
8
0
10
126.25
20
32.8668
0
VERTEX
8
0
10
128.255
20
32.3271
0
VERTEX
8
0
10
128.681
20
32.1057
0
VERTEX
8
0
10
128.937
20
32.0948
0
VERTEX
8
0
10
129.885
20
31.6223
0
VERTEX
8
0
10
130.201
20
31.5085
0
VERTEX
8
0
10
130.896
20
29.7405
0
VERTEX
8
0
10
131.011
20
29.453
0
VERTEX
8
0
10
131.193
20
29.2709
0
VERTEX
8
0
10
131.398
20
29.3156
0
VERTEX
8
0
10
131.838
20
30.8644
0
VERTEX
8
0
10
132.881
20
30.5774
0
VERTEX
8
0
10
134.16
20
31.3482
0
VERTEX
8
0
10
134.445
20
31.5008
0
VERTEX
8
0
10
135.38
20
31.682
0
VERTEX
8
0
10
142.789
20
32.0321
0
VERTEX
8
0
10
147.214
20
32.331
0
VERTEX
8
0
10
151.923
20
32.6507
0
VERTEX
8
0
10
154.894
20
31.2539
0
VERTEX
8
0
10
156.739
20
30.3397
0
VERTEX
8
0
10
156.604
20
29.3125
0
VERTEX
8
0
10
156.501
20
28.4394
0
VERTEX
8
0
10
156.285
20
26.6097
0
VERTEX
8
0
10
154.955
20
24.8825
0
VERTEX
8
0
10
152.919
20
22.7849
0
VERTEX
8
0
10
152.809
20
22.7605
0
VERTEX
8
0
10
152.677
20
22.7242
0
VERTEX
8
0
10
150.602
20
21.9173
0
VERTEX
8
0
10
148.705
20
21.7783
0
VERTEX
8
0
10
147.784
20
21.7004
0
VERTEX
8
0
10
145.2
20
21.4835
0
VERTEX
8
0
10
142.767
20
21.2791
0
VERTEX
8
0
10
142.322
20
21.2467
0
VERTEX
8
0
10
140.788
20
21.2351
0
VERTEX
8
0
10
139.712
20
21.4548
0
VERTEX
8
0
10
138.007
20
21.8525
0
VERTEX
8
0
10
137.509
20
21.9452
0
VERTEX
8
0
10
137.258
20
22.0127
0
VERTEX
8
0
10
131.516
20
26.1519
0
VERTEX
8
0
10
130.954
20
26.4796
0
VERTEX
8
0
10
130.55
20
26.2831
0
VERTEX
8
0
10
123.808
20
20.5974
0
VERTEX
8
0
10
123.575
20
20.5165
0
VERTEX
8
0
10
123.268
20
20.4047
0
VERTEX
8
0
10
119.666
20
18.9513
0
VERTEX
8
0
10
117.788
20
18.8797
0
VERTEX
8
0
10
116.124
20
18.6844
0
VERTEX
8
0
10
111.737
20
19.9305
0
VERTEX
8
0
10
110.13
20
20.5634
0
VERTEX
8
0
10
109.607
20
20.5282
0
VERTEX
8
0
10
109.22
20
20.4963
0
VERTEX
8
0
10
108.673
20
20.1498
0
VERTEX
8
0
10
107.659
20
19.7667
0
VERTEX
8
0
10
101.844
20
17.5968
0
VERTEX
8
0
10
100.646
20
17.75
0
VERTEX
8
0
10
99.2056
20
17.8425
0
VERTEX
8
0
10
94.6784
20
18.9451
0
VERTEX
8
0
10
89.2681
20
20.7138
0
VERTEX
8
0
10
85.029
20
19.6048
0
VERTEX
8
0
10
81.3806
20
18.7922
0
VERTEX
8
0
10
79.7147
20
18.831
0
VERTEX
8
0
10
78.4555
20
18.8455
0
VERTEX
8
0
10
74.5914
20
19.6208
0
VERTEX
8
0
10
74.2649
20
19.7053
0
VERTEX
8
0
10
72.8668
20
20.0339
0
VERTEX
8
0
10
72.0729
20
20.2423
0
VERTEX
8
0
10
70.7893
20
20.5441
0
VERTEX
8
0
10
69.0667
20
22.2153
0
VERTEX
8
0
10
66.6146
20
24.4361
0
VERTEX
8
0
10
66.9729
20
30.1734
0
VERTEX
8
0
10
67.0887
20
32.1659
0
VERTEX
8
0
10
67.1565
20
33.4393
0
VERTEX
8
0
10
67.611
20
33.7153
0
VERTEX
8
0
10
67.8886
20
33.8756
0
VERTEX
8
0
10
69.4463
20
34.8125
0
VERTEX
8
0
10
71.0514
20
35.6325
0
VERTEX
8
0
10
71.5327
20
35.888
0
VERTEX
8
0
10
71.7627
20
35.9936
0
VERTEX
8
0
10
72.5399
20
36.4163
0
VERTEX
8
0
10
73.8881
20
36.4539
0
VERTEX
8
0
10
74.5403
20
36.6788
0
VERTEX
8
0
10
74.6439
20
36.7007
0
VERTEX
8
0
10
75.2014
20
36.6977
0
VERTEX
8
0
10
75.6408
20
36.677
0
VERTEX
8
0
10
75.7396
20
36.6978
0
VERTEX
8
0
10
76.4743
20
36.7156
0
VERTEX
8
0
10
77.478
20
36.7032
0
VERTEX
8
0
10
77.7956
20
36.6993
0
VERTEX
8
0
10
78.3365
20
36.7481
0
VERTEX
8
0
10
78.4702
20
36.7602
0
VERTEX
8
0
10
79.9356
20
36.7119
0
VERTEX
8
0
10
81.6647
20
36.5032
0
VERTEX
8
0
10
82.2542
20
36.432
0
VERTEX
8
0
10
82.4474
20
36.4189
0
VERTEX
8
0
10
82.7427
20
36.399
0
VERTEX
8
0
10
82.9717
20
36.385
0
VERTEX
8
0
10
83.0815
20
36.3782
0
VERTEX
8
0
10
83.4736
20
36.3185
0
VERTEX
8
0
10
83.7366
20
36.2784
0
VERTEX
8
0
10
84.4468
20
36.1895
0
VERTEX
8
0
10
85.2758
20
36.033
0
VERTEX
8
0
10
88.4215
20
35.6598
0
VERTEX
8
0
10
89.4977
20
35.6316
0
VERTEX
8
0
10
97.3192
20
35.2384
0
SEQEND
0
TEXT
8
0
10
71.273
20
25.5003
40
5
1
26.1
0
ENDSEC
0
EOF
