999
Creator: CLJ++
0
SECTION
2
HEADER
9
$ACADVER
1
AC1009
9
$EXTMIN
10
0
20
0
9
$EXTMAX
10
175
20
37
9
$LIMMIN
10
0
20
0
9
$LIMMAX
10
175
20
37
0
ENDSEC
0
SECTION
2
TABLES
0
TABLE
2
VPORT
70
1
0
VPORT
2
*Active
70
0
10
0
20
0
11
1
21
1
12
87.5
22
18.5
13
0
23
0
14
0.5
24
0.5
15
0.5
25
0.5
16
0
26
0
36
1
17
0
27
0
37
0
40
37
41
1
42
50
43
0
44
0
50
0
51
0
71
0
72
1
73
1
74
3
75
0
76
0
77
0
78
0
0
ENDTAB
0
TABLE
2
LTYPE
70
1
0
LTYPE
2
CONTINUOUS
70
0
3
Solid line
72
65
73
0
40
0
0
ENDTAB
0
TABLE
2
LAYER
70
1
0
LAYER
2
0
70
0
62
255
6
CONTINUOUS
0
ENDTAB
0
ENDSEC
0
SECTION
2
ENTITIES
0
POLYLINE
8
0
10
0
20
0
66
1
70
1
62
1
0
VERTEX
8
0
10
104.565
20
34.6241
0
VERTEX
8
0
10
105.711
20
34.5802
0
VERTEX
8
0
10
105.743
20
34.5765
0
VERTEX
8
0
10
106.232
20
34.6466
0
VERTEX
8
0
10
117.461
20
35.009
0
VERTEX
8
0
10
118.051
20
35.1135
0
VERTEX
8
0
10
118.328
20
35.1879
0
VERTEX
8
0
10
118.687
20
35.2261
0
VERTEX
8
0
10
119.179
20
35.1901
0
VERTEX
8
0
10
119.351
20
35.2044
0
VERTEX
8
0
10
119.593
20
35.1599
0
VERTEX
8
0
10
121.106
20
34.8336
0
VERTEX
8
0
10
122.239
20
34.4244
0
VERTEX
8
0
10
123.465
20
33.6913
0
VERTEX
8
0
10
124.438
20
33.7002
0
VERTEX
8
0
10
124.901
20
33.5511
0
VERTEX
8
0
10
125.87
20
33.518
0
VERTEX
8
0
10
127.803
20
33.149
0
VERTEX
8
0
10
128.438
20
32.9781
0
VERTEX
8
0
10
128.573
20
32.908
0
VERTEX
8
0
10
129.275
20
32.8782
0
VERTEX
8
0
10
132.642
20
32.0697
0
VERTEX
8
0
10
133.5
20
31.9378
0
VERTEX
8
0
10
136.168
20
31.8764
0
VERTEX
8
0
10
136.994
20
31.7685
0
VERTEX
8
0
10
141.913
20
31.9709
0
VERTEX
8
0
10
149.383
20
32.2542
0
VERTEX
8
0
10
153.307
20
30.2049
0
VERTEX
8
0
10
154.143
20
29.7654
0
VERTEX
8
0
10
154.1
20
29.4065
0
VERTEX
8
0
10
153.686
20
26.0569
0
VERTEX
8
0
10
153.007
20
25.3067
0
VERTEX
8
0
10
151.844
20
24.0269
0
VERTEX
8
0
10
149.997
20
22.0003
0
VERTEX
8
0
10
148.86
20
21.4704
0
VERTEX
8
0
10
147.931
20
21.0704
0
VERTEX
8
0
10
147.117
20
21.002
0
VERTEX
8
0
10
146.751
20
20.9712
0
VERTEX
8
0
10
144.739
20
20.825
0
VERTEX
8
0
10
142.982
20
20.8117
0
VERTEX
8
0
10
141.692
20
20.7903
0
VERTEX
8
0
10
137.825
20
20.6016
0
VERTEX
8
0
10
137.39
20
20.6824
0
VERTEX
8
0
10
135.653
20
21.1497
0
VERTEX
8
0
10
134.924
20
21.3282
0
VERTEX
8
0
10
134.792
20
21.4001
0
VERTEX
8
0
10
133.869
20
21.8643
0
VERTEX
8
0
10
130.223
20
23.9893
0
VERTEX
8
0
10
126.664
20
22.2593
0
VERTEX
8
0
10
124.382
20
20.3349
0
VERTEX
8
0
10
118.133
20
18.1647
0
VERTEX
8
0
10
118.119
20
18.1598
0
VERTEX
8
0
10
118.107
20
18.1582
0
VERTEX
8
0
10
116.145
20
17.6484
0
VERTEX
8
0
10
110.752
20
18.8887
0
VERTEX
8
0
10
110.16
20
19.0569
0
VERTEX
8
0
10
108.957
20
18.6516
0
VERTEX
8
0
10
101.959
20
16.5126
0
VERTEX
8
0
10
101.343
20
16.5602
0
VERTEX
8
0
10
100.557
20
16.7188
0
VERTEX
8
0
10
99.6072
20
16.8383
0
VERTEX
8
0
10
92.502
20
18.2078
0
VERTEX
8
0
10
89.5081
20
18.9208
0
VERTEX
8
0
10
87.2632
20
18.4209
0
VERTEX
8
0
10
84.9998
20
18.1863
0
VERTEX
8
0
10
81.8134
20
17.7961
0
VERTEX
8
0
10
81.6184
20
17.7721
0
VERTEX
8
0
10
81.3867
20
17.8088
0
VERTEX
8
0
10
79.5573
20
17.9013
0
VERTEX
8
0
10
79.1048
20
17.9145
0
VERTEX
8
0
10
78.8948
20
17.9696
0
VERTEX
8
0
10
77.8215
20
18.222
0
VERTEX
8
0
10
70.1731
20
20.1936
0
VERTEX
8
0
10
68.9027
20
21.4997
0
VERTEX
8
0
10
66.6537
20
24.1551
0
VERTEX
8
0
10
66.2836
20
24.5648
0
VERTEX
8
0
10
66.3533
20
28.8855
0
VERTEX
8
0
10
66.6245
20
33.0075
0
VERTEX
8
0
10
67.724
20
33.5123
0
VERTEX
8
0
10
68.4862
20
33.9268
0
VERTEX
8
0
10
69.7186
20
34.5522
0
VERTEX
8
0
10
70.3999
20
34.8244
0
VERTEX
8
0
10
72.3825
20
35.7655
0
VERTEX
8
0
10
72.6533
20
35.8836
0
VERTEX
8
0
10
72.8526
20
35.978
0
VERTEX
8
0
10
73.5895
20
36.3617
0
VERTEX
8
0
10
73.9855
20
36.5036
0
VERTEX
8
0
10
74.3041
20
36.5704
0
VERTEX
8
0
10
74.5719
20
36.6265
0
VERTEX
8
0
10
74.8284
20
36.6273
0
VERTEX
8
0
10
76.9823
20
36.636
0
VERTEX
8
0
10
77.0396
20
36.6353
0
VERTEX
8
0
10
77.0405
20
36.6353
0
VERTEX
8
0
10
78.3436
20
36.753
0
VERTEX
8
0
10
78.3485
20
36.7534
0
VERTEX
8
0
10
78.4023
20
36.7517
0
VERTEX
8
0
10
79.1223
20
36.6647
0
VERTEX
8
0
10
83.0326
20
36.1884
0
VERTEX
8
0
10
83.2305
20
36.1642
0
VERTEX
8
0
10
83.5648
20
36.1516
0
VERTEX
8
0
10
83.7974
20
36.1359
0
VERTEX
8
0
10
84.1247
20
36.1138
0
VERTEX
8
0
10
84.7801
20
36.0736
0
VERTEX
8
0
10
84.8154
20
36.0715
0
VERTEX
8
0
10
84.839
20
36.0679
0
VERTEX
8
0
10
85.5115
20
35.9005
0
VERTEX
8
0
10
89.4882
20
35.4679
0
VERTEX
8
0
10
90.1156
20
35.3753
0
VERTEX
8
0
10
100.751
20
34.8866
0
VERTEX
8
0
10
103.843
20
34.7312
0
SEQEND
0
TEXT
8
0
10
74.9548
20
24.4195
40
5
1
27.1
0
ENDSEC
0
EOF
