999
Creator: CLJ++
0
SECTION
2
HEADER
9
$ACADVER
1
AC1009
9
$EXTMIN
10
0
20
0
9
$EXTMAX
10
175
20
37
9
$LIMMIN
10
0
20
0
9
$LIMMAX
10
175
20
37
0
ENDSEC
0
SECTION
2
TABLES
0
TABLE
2
VPORT
70
1
0
VPORT
2
*Active
70
0
10
0
20
0
11
1
21
1
12
87.5
22
18.5
13
0
23
0
14
0.5
24
0.5
15
0.5
25
0.5
16
0
26
0
36
1
17
0
27
0
37
0
40
37
41
1
42
50
43
0
44
0
50
0
51
0
71
0
72
1
73
1
74
3
75
0
76
0
77
0
78
0
0
ENDTAB
0
TABLE
2
LTYPE
70
1
0
LTYPE
2
CONTINUOUS
70
0
3
Solid line
72
65
73
0
40
0
0
ENDTAB
0
TABLE
2
LAYER
70
1
0
LAYER
2
0
70
0
62
255
6
CONTINUOUS
0
ENDTAB
0
ENDSEC
0
SECTION
2
ENTITIES
0
POLYLINE
8
0
10
0
20
0
66
1
70
1
62
1
0
VERTEX
8
0
10
125.435
20
34.1369
0
VERTEX
8
0
10
125.838
20
34.1406
0
VERTEX
8
0
10
126.446
20
33.945
0
VERTEX
8
0
10
126.712
20
33.9359
0
VERTEX
8
0
10
127.646
20
33.7575
0
VERTEX
8
0
10
131.523
20
33.085
0
VERTEX
8
0
10
136.23
20
32.3318
0
VERTEX
8
0
10
136.787
20
32.2434
0
VERTEX
8
0
10
140.135
20
31.5732
0
VERTEX
8
0
10
142.469
20
31.6787
0
VERTEX
8
0
10
146.724
20
31.8531
0
VERTEX
8
0
10
151.189
20
29.5948
0
VERTEX
8
0
10
151.311
20
29.5331
0
VERTEX
8
0
10
151.366
20
29.5046
0
VERTEX
8
0
10
151.363
20
29.4737
0
VERTEX
8
0
10
150.936
20
25.4965
0
VERTEX
8
0
10
148.692
20
23.0195
0
VERTEX
8
0
10
147.519
20
21.268
0
VERTEX
8
0
10
147.245
20
21.1366
0
VERTEX
8
0
10
145.258
20
20.3625
0
VERTEX
8
0
10
144.867
20
20.356
0
VERTEX
8
0
10
144.516
20
20.3389
0
VERTEX
8
0
10
134.884
20
19.7687
0
VERTEX
8
0
10
134.629
20
19.8312
0
VERTEX
8
0
10
132.405
20
21.0417
0
VERTEX
8
0
10
131.841
20
21.3255
0
VERTEX
8
0
10
130.558
20
21.5457
0
VERTEX
8
0
10
128.599
20
21.9763
0
VERTEX
8
0
10
125.162
20
20.2753
0
VERTEX
8
0
10
122.716
20
19.3872
0
VERTEX
8
0
10
121.499
20
18.9453
0
VERTEX
8
0
10
120.022
20
18.4438
0
VERTEX
8
0
10
119.064
20
18.0883
0
VERTEX
8
0
10
117.551
20
17.5557
0
VERTEX
8
0
10
116.665
20
17.2659
0
VERTEX
8
0
10
116.024
20
16.8824
0
VERTEX
8
0
10
115.389
20
17.0178
0
VERTEX
8
0
10
112.03
20
17.7317
0
VERTEX
8
0
10
110.616
20
17.9946
0
VERTEX
8
0
10
106.667
20
16.7924
0
VERTEX
8
0
10
102.14
20
15.5444
0
VERTEX
8
0
10
101.616
20
15.465
0
VERTEX
8
0
10
101.064
20
15.5333
0
VERTEX
8
0
10
100.316
20
15.6632
0
VERTEX
8
0
10
99.7895
20
15.7719
0
VERTEX
8
0
10
96.1788
20
16.4724
0
VERTEX
8
0
10
89.6249
20
17.5135
0
VERTEX
8
0
10
85.2551
20
17.4502
0
VERTEX
8
0
10
82.2902
20
17.0205
0
VERTEX
8
0
10
81.9476
20
16.8668
0
VERTEX
8
0
10
81.3949
20
16.7985
0
VERTEX
8
0
10
80.9117
20
16.9506
0
VERTEX
8
0
10
80.0096
20
17.0475
0
VERTEX
8
0
10
78.4743
20
17.5777
0
VERTEX
8
0
10
70.2734
20
20.3447
0
VERTEX
8
0
10
70.254
20
20.3623
0
VERTEX
8
0
10
65.9326
20
24.4473
0
VERTEX
8
0
10
65.9397
20
24.8567
0
VERTEX
8
0
10
65.9509
20
25.6661
0
VERTEX
8
0
10
66.0378
20
29.559
0
VERTEX
8
0
10
66.0933
20
32.0891
0
VERTEX
8
0
10
66.8658
20
32.3978
0
VERTEX
8
0
10
67.2495
20
32.5799
0
VERTEX
8
0
10
68.849
20
33.2775
0
VERTEX
8
0
10
70.0257
20
33.8351
0
VERTEX
8
0
10
71.8638
20
34.7922
0
VERTEX
8
0
10
74.0219
20
35.6503
0
VERTEX
8
0
10
75.3758
20
36.041
0
VERTEX
8
0
10
75.7928
20
36.1011
0
VERTEX
8
0
10
76.2107
20
36.1279
0
VERTEX
8
0
10
76.4709
20
36.1087
0
VERTEX
8
0
10
77.647
20
36.0684
0
VERTEX
8
0
10
78.3284
20
36.045
0
VERTEX
8
0
10
78.8571
20
36.0269
0
VERTEX
8
0
10
80.7656
20
35.9878
0
VERTEX
8
0
10
81.3551
20
35.9757
0
VERTEX
8
0
10
81.6895
20
35.9688
0
VERTEX
8
0
10
82.7027
20
35.8803
0
VERTEX
8
0
10
83.0595
20
35.8492
0
VERTEX
8
0
10
83.3528
20
35.8483
0
VERTEX
8
0
10
83.5389
20
35.8345
0
VERTEX
8
0
10
83.9246
20
35.8465
0
VERTEX
8
0
10
84.6303
20
35.8444
0
VERTEX
8
0
10
85.2213
20
35.8329
0
VERTEX
8
0
10
85.4318
20
35.8289
0
VERTEX
8
0
10
85.508
20
35.824
0
VERTEX
8
0
10
86.4373
20
35.6069
0
VERTEX
8
0
10
86.645
20
35.5552
0
VERTEX
8
0
10
87.8339
20
35.4259
0
VERTEX
8
0
10
90.7166
20
35.0005
0
VERTEX
8
0
10
98.5326
20
34.6414
0
VERTEX
8
0
10
103.549
20
34.3443
0
VERTEX
8
0
10
103.766
20
34.395
0
VERTEX
8
0
10
104.605
20
34.3694
0
VERTEX
8
0
10
110.632
20
34.9452
0
VERTEX
8
0
10
119.137
20
35.2198
0
VERTEX
8
0
10
119.542
20
35.2914
0
VERTEX
8
0
10
120.028
20
35.422
0
VERTEX
8
0
10
120.658
20
35.4889
0
VERTEX
8
0
10
120.996
20
35.4642
0
VERTEX
8
0
10
121.322
20
35.4913
0
VERTEX
8
0
10
121.781
20
35.4069
0
VERTEX
8
0
10
123.644
20
35.0053
0
VERTEX
8
0
10
123.806
20
34.9896
0
VERTEX
8
0
10
123.882
20
34.9588
0
VERTEX
8
0
10
124.532
20
34.6766
0
SEQEND
0
TEXT
8
0
10
74.7159
20
24.1037
40
5
1
28.1
0
ENDSEC
0
EOF
