999
Creator: CLJ++
0
SECTION
2
HEADER
9
$ACADVER
1
AC1009
9
$EXTMIN
10
0
20
0
9
$EXTMAX
10
175
20
37
9
$LIMMIN
10
0
20
0
9
$LIMMAX
10
175
20
37
0
ENDSEC
0
SECTION
2
TABLES
0
TABLE
2
VPORT
70
1
0
VPORT
2
*Active
70
0
10
0
20
0
11
1
21
1
12
87.5
22
18.5
13
0
23
0
14
0.5
24
0.5
15
0.5
25
0.5
16
0
26
0
36
1
17
0
27
0
37
0
40
37
41
1
42
50
43
0
44
0
50
0
51
0
71
0
72
1
73
1
74
3
75
0
76
0
77
0
78
0
0
ENDTAB
0
TABLE
2
LTYPE
70
1
0
LTYPE
2
CONTINUOUS
70
0
3
Solid line
72
65
73
0
40
0
0
ENDTAB
0
TABLE
2
LAYER
70
1
0
LAYER
2
0
70
0
62
255
6
CONTINUOUS
0
ENDTAB
0
ENDSEC
0
SECTION
2
ENTITIES
0
POLYLINE
8
0
10
0
20
0
66
1
70
1
62
1
0
VERTEX
8
0
10
121.032
20
35.4692
0
VERTEX
8
0
10
121.728
20
35.656
0
VERTEX
8
0
10
122.629
20
35.7518
0
VERTEX
8
0
10
122.812
20
35.7384
0
VERTEX
8
0
10
123.294
20
35.7783
0
VERTEX
8
0
10
123.97
20
35.6539
0
VERTEX
8
0
10
124.717
20
35.493
0
VERTEX
8
0
10
125.274
20
35.4385
0
VERTEX
8
0
10
125.538
20
35.3323
0
VERTEX
8
0
10
126.605
20
34.8688
0
VERTEX
8
0
10
126.923
20
34.9053
0
VERTEX
8
0
10
127.456
20
34.9152
0
VERTEX
8
0
10
128.563
20
34.8985
0
VERTEX
8
0
10
129.006
20
34.9282
0
VERTEX
8
0
10
130.538
20
34.7331
0
VERTEX
8
0
10
137.742
20
32.7177
0
VERTEX
8
0
10
138.976
20
32.4534
0
VERTEX
8
0
10
140.218
20
32.0252
0
VERTEX
8
0
10
140.746
20
31.8458
0
VERTEX
8
0
10
143.014
20
31.1902
0
VERTEX
8
0
10
143.986
20
31.1567
0
VERTEX
8
0
10
146.306
20
30.0292
0
VERTEX
8
0
10
148.606
20
28.8833
0
VERTEX
8
0
10
148.483
20
27.604
0
VERTEX
8
0
10
148.314
20
24.9228
0
VERTEX
8
0
10
146.993
20
23.1286
0
VERTEX
8
0
10
145.027
20
20.4542
0
VERTEX
8
0
10
144.749
20
20.135
0
VERTEX
8
0
10
142.681
20
19.2861
0
VERTEX
8
0
10
142.587
20
19.2396
0
VERTEX
8
0
10
135.55
20
19.0814
0
VERTEX
8
0
10
133.947
20
19.0615
0
VERTEX
8
0
10
132.769
20
19.0236
0
VERTEX
8
0
10
129.584
20
19.8489
0
VERTEX
8
0
10
127.361
20
20.5524
0
VERTEX
8
0
10
126.701
20
20.6975
0
VERTEX
8
0
10
126.157
20
20.4283
0
VERTEX
8
0
10
125.77
20
20.2878
0
VERTEX
8
0
10
125.232
20
20.0927
0
VERTEX
8
0
10
123.056
20
19.3024
0
VERTEX
8
0
10
117.11
20
17.0655
0
VERTEX
8
0
10
116.695
20
16.8197
0
VERTEX
8
0
10
115.807
20
16.4152
0
VERTEX
8
0
10
115.405
20
16.5044
0
VERTEX
8
0
10
114.646
20
16.6638
0
VERTEX
8
0
10
111.374
20
17.2109
0
VERTEX
8
0
10
111.066
20
17.2718
0
VERTEX
8
0
10
110.544
20
17.1301
0
VERTEX
8
0
10
102.338
20
15.0959
0
VERTEX
8
0
10
101.425
20
14.797
0
VERTEX
8
0
10
101.208
20
14.7637
0
VERTEX
8
0
10
100.264
20
15.0825
0
VERTEX
8
0
10
99.9776
20
15.1281
0
VERTEX
8
0
10
92.4893
20
16.2853
0
VERTEX
8
0
10
90.2968
20
16.5567
0
VERTEX
8
0
10
89.4678
20
16.6088
0
VERTEX
8
0
10
85.5277
20
16.645
0
VERTEX
8
0
10
83.201
20
16.5429
0
VERTEX
8
0
10
82.7062
20
16.3283
0
VERTEX
8
0
10
82.4184
20
16.196
0
VERTEX
8
0
10
81.56
20
16.4406
0
VERTEX
8
0
10
81.0447
20
16.587
0
VERTEX
8
0
10
73.3178
20
19.2703
0
VERTEX
8
0
10
71.8062
20
19.7924
0
VERTEX
8
0
10
70.5492
20
20.2165
0
VERTEX
8
0
10
69.3326
20
21.317
0
VERTEX
8
0
10
65.9191
20
24.3185
0
VERTEX
8
0
10
66.0327
20
28.0996
0
VERTEX
8
0
10
66.041
20
31.1435
0
VERTEX
8
0
10
67.1988
20
31.6921
0
VERTEX
8
0
10
67.6966
20
31.9513
0
VERTEX
8
0
10
74.1084
20
34.5009
0
VERTEX
8
0
10
74.7079
20
34.6739
0
VERTEX
8
0
10
76.1553
20
34.6627
0
VERTEX
8
0
10
79.7464
20
35.1014
0
VERTEX
8
0
10
79.966
20
35.1446
0
VERTEX
8
0
10
81.5299
20
35.2614
0
VERTEX
8
0
10
81.7041
20
35.2551
0
VERTEX
8
0
10
81.9155
20
35.2174
0
VERTEX
8
0
10
83.9679
20
35.2316
0
VERTEX
8
0
10
85.1265
20
35.1454
0
VERTEX
8
0
10
85.9663
20
35.1717
0
VERTEX
8
0
10
87.6085
20
35.0324
0
VERTEX
8
0
10
87.8135
20
34.9707
0
VERTEX
8
0
10
90.7911
20
34.7035
0
VERTEX
8
0
10
91.3177
20
34.6258
0
VERTEX
8
0
10
91.9699
20
34.5958
0
VERTEX
8
0
10
102.533
20
33.9701
0
VERTEX
8
0
10
102.99
20
34.0768
0
VERTEX
8
0
10
103.457
20
34.0626
0
VERTEX
8
0
10
116.222
20
35.2823
0
VERTEX
8
0
10
120.814
20
35.4305
0
SEQEND
0
TEXT
8
0
10
76.5873
20
23.5862
40
5
1
29.1
0
ENDSEC
0
EOF
