999
Creator: CLJ++
0
SECTION
2
HEADER
9
$ACADVER
1
AC1009
9
$EXTMIN
10
0
20
0
9
$EXTMAX
10
175
20
37
9
$LIMMIN
10
0
20
0
9
$LIMMAX
10
175
20
37
0
ENDSEC
0
SECTION
2
TABLES
0
TABLE
2
VPORT
70
1
0
VPORT
2
*Active
70
0
10
0
20
0
11
1
21
1
12
87.5
22
18.5
13
0
23
0
14
0.5
24
0.5
15
0.5
25
0.5
16
0
26
0
36
1
17
0
27
0
37
0
40
37
41
1
42
50
43
0
44
0
50
0
51
0
71
0
72
1
73
1
74
3
75
0
76
0
77
0
78
0
0
ENDTAB
0
TABLE
2
LTYPE
70
1
0
LTYPE
2
CONTINUOUS
70
0
3
Solid line
72
65
73
0
40
0
0
ENDTAB
0
TABLE
2
LAYER
70
1
0
LAYER
2
0
70
0
62
255
6
CONTINUOUS
0
ENDTAB
0
ENDSEC
0
SECTION
2
ENTITIES
0
POLYLINE
8
0
10
0
20
0
66
1
70
1
62
1
0
VERTEX
8
0
10
122.523
20
35.647
0
VERTEX
8
0
10
123.429
20
35.8901
0
VERTEX
8
0
10
124.6
20
36.0147
0
VERTEX
8
0
10
124.629
20
36.0125
0
VERTEX
8
0
10
125.215
20
36.0611
0
VERTEX
8
0
10
125.255
20
36.0668
0
VERTEX
8
0
10
125.863
20
36.0536
0
VERTEX
8
0
10
126.73
20
36.0947
0
VERTEX
8
0
10
129.014
20
36.046
0
VERTEX
8
0
10
130.258
20
35.912
0
VERTEX
8
0
10
132.101
20
35.682
0
VERTEX
8
0
10
133.552
20
35.5409
0
VERTEX
8
0
10
134.812
20
35.3325
0
VERTEX
8
0
10
135.779
20
34.9294
0
VERTEX
8
0
10
137.719
20
34.0426
0
VERTEX
8
0
10
139.41
20
33.3008
0
VERTEX
8
0
10
143.004
20
31.8412
0
VERTEX
8
0
10
143.248
20
31.7237
0
VERTEX
8
0
10
143.295
20
31.6966
0
VERTEX
8
0
10
143.353
20
31.6641
0
VERTEX
8
0
10
143.669
20
31.3927
0
VERTEX
8
0
10
146.422
20
29.3191
0
VERTEX
8
0
10
146.389
20
28.4093
0
VERTEX
8
0
10
146.214
20
24.4837
0
VERTEX
8
0
10
143.899
20
21.6992
0
VERTEX
8
0
10
142
20
19.5184
0
VERTEX
8
0
10
141.039
20
19.0384
0
VERTEX
8
0
10
139.738
20
18.5469
0
VERTEX
8
0
10
137.633
20
18.5208
0
VERTEX
8
0
10
135.892
20
18.4649
0
VERTEX
8
0
10
132.89
20
18.4244
0
VERTEX
8
0
10
130.66
20
18.408
0
VERTEX
8
0
10
128.504
20
18.985
0
VERTEX
8
0
10
124.936
20
19.512
0
VERTEX
8
0
10
120.907
20
17.9961
0
VERTEX
8
0
10
116.886
20
16.5408
0
VERTEX
8
0
10
116.733
20
16.4719
0
VERTEX
8
0
10
115.681
20
16.0661
0
VERTEX
8
0
10
115.645
20
16.0738
0
VERTEX
8
0
10
114.435
20
16.2817
0
VERTEX
8
0
10
114.38
20
16.2887
0
VERTEX
8
0
10
111.287
20
16.5107
0
VERTEX
8
0
10
104.148
20
15.2069
0
VERTEX
8
0
10
102.56
20
14.839
0
VERTEX
8
0
10
101.491
20
14.5233
0
VERTEX
8
0
10
101.37
20
14.4843
0
VERTEX
8
0
10
100.392
20
14.8103
0
VERTEX
8
0
10
100.214
20
14.8679
0
VERTEX
8
0
10
91.2163
20
15.5665
0
VERTEX
8
0
10
90.5874
20
15.613
0
VERTEX
8
0
10
90.461
20
15.6221
0
VERTEX
8
0
10
87.4724
20
15.7895
0
VERTEX
8
0
10
84.2463
20
16.0536
0
VERTEX
8
0
10
83.7946
20
15.8741
0
VERTEX
8
0
10
83.4429
20
15.7221
0
VERTEX
8
0
10
82.6919
20
15.9398
0
VERTEX
8
0
10
82.0774
20
16.1148
0
VERTEX
8
0
10
75.5306
20
18.496
0
VERTEX
8
0
10
70.9779
20
20.0885
0
VERTEX
8
0
10
67.0045
20
23.1259
0
VERTEX
8
0
10
65.423
20
24.1889
0
VERTEX
8
0
10
65.4613
20
25.4122
0
VERTEX
8
0
10
65.7093
20
29.7006
0
VERTEX
8
0
10
65.7744
20
31.0187
0
VERTEX
8
0
10
67.2353
20
31.1605
0
VERTEX
8
0
10
68.8365
20
31.7074
0
VERTEX
8
0
10
72.5842
20
33.2108
0
VERTEX
8
0
10
76.3052
20
33.785
0
VERTEX
8
0
10
81.4654
20
34.4154
0
VERTEX
8
0
10
82.1595
20
34.5521
0
VERTEX
8
0
10
83.3175
20
34.6386
0
VERTEX
8
0
10
83.84
20
34.6196
0
VERTEX
8
0
10
84.4738
20
34.5066
0
VERTEX
8
0
10
85.9057
20
34.5165
0
VERTEX
8
0
10
86.714
20
34.4564
0
VERTEX
8
0
10
87.3
20
34.4748
0
VERTEX
8
0
10
88.4457
20
34.3775
0
VERTEX
8
0
10
89.008
20
34.2082
0
VERTEX
8
0
10
91.4127
20
33.9924
0
VERTEX
8
0
10
91.7919
20
33.9506
0
VERTEX
8
0
10
92.4838
20
33.8713
0
VERTEX
8
0
10
93.214
20
33.8211
0
VERTEX
8
0
10
99.5857
20
33.7103
0
VERTEX
8
0
10
101.517
20
33.5959
0
VERTEX
8
0
10
102.214
20
33.7587
0
VERTEX
8
0
10
102.309
20
33.7558
0
VERTEX
8
0
10
121.813
20
35.6194
0
VERTEX
8
0
10
122.491
20
35.6413
0
SEQEND
0
TEXT
8
0
10
86.3014
20
22.0438
40
5
1
30.1
0
POLYLINE
8
0
10
0
20
0
66
1
70
1
62
1
0
VERTEX
8
0
10
9.05101
20
22.9786
0
VERTEX
8
0
10
8.61659
20
22.8976
0
VERTEX
8
0
10
8.277
20
22.9869
0
VERTEX
8
0
10
7.90628
20
22.9747
0
VERTEX
8
0
10
7.57239
20
23.15
0
VERTEX
8
0
10
7.21983
20
23.3608
0
VERTEX
8
0
10
6.82166
20
23.6651
0
VERTEX
8
0
10
6.54004
20
23.902
0
VERTEX
8
0
10
5.95006
20
24.4236
0
VERTEX
8
0
10
5.79376
20
24.5892
0
VERTEX
8
0
10
5.1031
20
25.3485
0
VERTEX
8
0
10
5.27421
20
25.3537
0
VERTEX
8
0
10
6.64331
20
25.3377
0
VERTEX
8
0
10
8.90839
20
25.4076
0
VERTEX
8
0
10
9.02986
20
25.4089
0
VERTEX
8
0
10
9.23258
20
25.4322
0
VERTEX
8
0
10
10.4874
20
25.5296
0
VERTEX
8
0
10
11.5783
20
25.4648
0
VERTEX
8
0
10
12.7138
20
25.4308
0
VERTEX
8
0
10
14.5859
20
25.3831
0
VERTEX
8
0
10
15.918
20
25.2828
0
VERTEX
8
0
10
15.3632
20
25.0161
0
VERTEX
8
0
10
15.3206
20
24.9941
0
VERTEX
8
0
10
13.9892
20
24.5076
0
VERTEX
8
0
10
13.8362
20
24.4296
0
VERTEX
8
0
10
12.7271
20
23.9279
0
VERTEX
8
0
10
12.4661
20
23.8051
0
VERTEX
8
0
10
11.651
20
23.5341
0
VERTEX
8
0
10
11.3198
20
23.3957
0
VERTEX
8
0
10
10.6871
20
23.2392
0
VERTEX
8
0
10
10.3293
20
23.0951
0
VERTEX
8
0
10
9.84967
20
23.0356
0
VERTEX
8
0
10
9.44879
20
22.9608
0
SEQEND
0
TEXT
8
0
10
3.51055
20
22.0536
40
5
1
30.2
0
ENDSEC
0
EOF
