999
Creator: CLJ++
0
SECTION
2
HEADER
9
$ACADVER
1
AC1009
9
$EXTMIN
10
0
20
0
9
$EXTMAX
10
175
20
37
9
$LIMMIN
10
0
20
0
9
$LIMMAX
10
175
20
37
0
ENDSEC
0
SECTION
2
TABLES
0
TABLE
2
VPORT
70
1
0
VPORT
2
*Active
70
0
10
0
20
0
11
1
21
1
12
87.5
22
18.5
13
0
23
0
14
0.5
24
0.5
15
0.5
25
0.5
16
0
26
0
36
1
17
0
27
0
37
0
40
37
41
1
42
50
43
0
44
0
50
0
51
0
71
0
72
1
73
1
74
3
75
0
76
0
77
0
78
0
0
ENDTAB
0
TABLE
2
LTYPE
70
1
0
LTYPE
2
CONTINUOUS
70
0
3
Solid line
72
65
73
0
40
0
0
ENDTAB
0
TABLE
2
LAYER
70
1
0
LAYER
2
0
70
0
62
255
6
CONTINUOUS
0
ENDTAB
0
ENDSEC
0
SECTION
2
ENTITIES
0
POLYLINE
8
0
10
0
20
0
66
1
70
1
62
1
0
VERTEX
8
0
10
88.6336
20
33.7778
0
VERTEX
8
0
10
89.2829
20
33.7227
0
VERTEX
8
0
10
90.2025
20
33.4457
0
VERTEX
8
0
10
91.4571
20
33.3331
0
VERTEX
8
0
10
92.2533
20
33.2453
0
VERTEX
8
0
10
93.7065
20
33.0789
0
VERTEX
8
0
10
95.2401
20
32.9735
0
VERTEX
8
0
10
98.3758
20
32.9189
0
VERTEX
8
0
10
100.453
20
32.8962
0
VERTEX
8
0
10
100.848
20
33.0016
0
VERTEX
8
0
10
101.835
20
33.1775
0
VERTEX
8
0
10
102.449
20
33.3211
0
VERTEX
8
0
10
120.129
20
35.8429
0
VERTEX
8
0
10
124.168
20
36.2404
0
VERTEX
8
0
10
124.45
20
36.2617
0
VERTEX
8
0
10
125.19
20
36.3277
0
VERTEX
8
0
10
126.21
20
36.3486
0
VERTEX
8
0
10
127.733
20
36.401
0
VERTEX
8
0
10
129.224
20
36.415
0
VERTEX
8
0
10
129.628
20
36.4342
0
VERTEX
8
0
10
131.518
20
36.312
0
VERTEX
8
0
10
131.895
20
36.2796
0
VERTEX
8
0
10
132.291
20
36.2468
0
VERTEX
8
0
10
132.442
20
36.2268
0
VERTEX
8
0
10
133.463
20
36.0774
0
VERTEX
8
0
10
134.927
20
35.8381
0
VERTEX
8
0
10
135.708
20
35.6297
0
VERTEX
8
0
10
136.449
20
35.3047
0
VERTEX
8
0
10
137.071
20
35.0525
0
VERTEX
8
0
10
144.416
20
31.508
0
VERTEX
8
0
10
144.964
20
31.192
0
VERTEX
8
0
10
144.695
20
29.8255
0
VERTEX
8
0
10
144.354
20
24.3809
0
VERTEX
8
0
10
141.117
20
20.7349
0
VERTEX
8
0
10
140.088
20
19.0862
0
VERTEX
8
0
10
139.343
20
18.7982
0
VERTEX
8
0
10
136.886
20
17.9885
0
VERTEX
8
0
10
135.456
20
17.9692
0
VERTEX
8
0
10
134.07
20
17.959
0
VERTEX
8
0
10
131.784
20
18.1566
0
VERTEX
8
0
10
128.429
20
17.8326
0
VERTEX
8
0
10
127.48
20
17.9579
0
VERTEX
8
0
10
123.765
20
18.5406
0
VERTEX
8
0
10
118.308
20
16.661
0
VERTEX
8
0
10
116.654
20
16.0699
0
VERTEX
8
0
10
115.525
20
15.7311
0
VERTEX
8
0
10
115.458
20
15.7058
0
VERTEX
8
0
10
114.294
20
15.9196
0
VERTEX
8
0
10
114.259
20
15.9256
0
VERTEX
8
0
10
114.169
20
15.9316
0
VERTEX
8
0
10
111.261
20
15.8327
0
VERTEX
8
0
10
110.416
20
15.6763
0
VERTEX
8
0
10
102.731
20
14.42
0
VERTEX
8
0
10
101.844
20
14.1388
0
VERTEX
8
0
10
101.54
20
14.0481
0
VERTEX
8
0
10
100.709
20
14.3397
0
VERTEX
8
0
10
100.4
20
14.4459
0
VERTEX
8
0
10
91.9038
20
14.7507
0
VERTEX
8
0
10
91.0398
20
14.7816
0
VERTEX
8
0
10
90.6507
20
14.8377
0
VERTEX
8
0
10
88.0111
20
15.3751
0
VERTEX
8
0
10
85.293
20
15.5708
0
VERTEX
8
0
10
84.853
20
15.4016
0
VERTEX
8
0
10
84.4674
20
15.2482
0
VERTEX
8
0
10
83.8173
20
15.4321
0
VERTEX
8
0
10
83.1091
20
15.6377
0
VERTEX
8
0
10
78.3069
20
17.3031
0
VERTEX
8
0
10
70.9769
20
19.9598
0
VERTEX
8
0
10
65.1336
20
23.7578
0
VERTEX
8
0
10
64.6332
20
24.0588
0
VERTEX
8
0
10
64.6762
20
24.6619
0
VERTEX
8
0
10
64.726
20
25.5801
0
VERTEX
8
0
10
64.9089
20
28.933
0
VERTEX
8
0
10
64.9593
20
30.7919
0
VERTEX
8
0
10
66.6326
20
31.1456
0
VERTEX
8
0
10
68.8908
20
31.5612
0
VERTEX
8
0
10
70.2793
20
32.0753
0
VERTEX
8
0
10
70.5881
20
32.1807
0
VERTEX
8
0
10
72.9592
20
32.3331
0
VERTEX
8
0
10
73.2866
20
32.3512
0
VERTEX
8
0
10
73.7404
20
32.3885
0
VERTEX
8
0
10
79.5616
20
33.2869
0
VERTEX
8
0
10
83.1844
20
33.7294
0
VERTEX
8
0
10
84.353
20
33.9596
0
VERTEX
8
0
10
85.105
20
34.0158
0
VERTEX
8
0
10
85.9758
20
33.9841
0
VERTEX
8
0
10
87.0321
20
33.7958
0
VERTEX
8
0
10
87.8435
20
33.8014
0
VERTEX
8
0
10
88.3016
20
33.7674
0
SEQEND
0
TEXT
8
0
10
115.158
20
24.0987
40
5
1
31.1
0
POLYLINE
8
0
10
0
20
0
66
1
70
1
62
1
0
VERTEX
8
0
10
15.3604
20
21.0696
0
VERTEX
8
0
10
14.9164
20
21.088
0
VERTEX
8
0
10
14.73
20
21.0851
0
VERTEX
8
0
10
13.9043
20
21.0883
0
VERTEX
8
0
10
11.5185
20
21.126
0
VERTEX
8
0
10
11.3152
20
21.1384
0
VERTEX
8
0
10
10.5515
20
21.1571
0
VERTEX
8
0
10
10.4055
20
21.1677
0
VERTEX
8
0
10
8.22993
20
21.4707
0
VERTEX
8
0
10
8.41593
20
21.7641
0
VERTEX
8
0
10
7.93515
20
21.7827
0
VERTEX
8
0
10
6.87495
20
21.8631
0
VERTEX
8
0
10
5.31321
20
22.1391
0
VERTEX
8
0
10
4.11135
20
23.1412
0
VERTEX
8
0
10
3.64593
20
23.5689
0
VERTEX
8
0
10
2.90855
20
24.1506
0
VERTEX
8
0
10
2.4382
20
24.559
0
VERTEX
8
0
10
2.0758
20
24.897
0
VERTEX
8
0
10
1.7044
20
25.6878
0
VERTEX
8
0
10
1.49808
20
26.3075
0
VERTEX
8
0
10
1.18666
20
27.1822
0
VERTEX
8
0
10
0.876909
20
28.3963
0
VERTEX
8
0
10
1.48939
20
28.4369
0
VERTEX
8
0
10
1.66867
20
28.4841
0
VERTEX
8
0
10
4.04824
20
28.6548
0
VERTEX
8
0
10
5.16263
20
28.92
0
VERTEX
8
0
10
6.741
20
29.0842
0
VERTEX
8
0
10
7.56217
20
29.3338
0
VERTEX
8
0
10
7.86009
20
29.6534
0
VERTEX
8
0
10
8.818
20
30.0712
0
VERTEX
8
0
10
8.92442
20
30.0966
0
VERTEX
8
0
10
9.0864
20
30.1552
0
VERTEX
8
0
10
9.11295
20
30.1602
0
VERTEX
8
0
10
9.1374
20
30.1634
0
VERTEX
8
0
10
10.499
20
30.1496
0
VERTEX
8
0
10
11.1849
20
30.0863
0
VERTEX
8
0
10
12.42
20
29.9723
0
VERTEX
8
0
10
13.5923
20
29.8815
0
VERTEX
8
0
10
14.4073
20
29.8954
0
VERTEX
8
0
10
15.8264
20
29.7262
0
VERTEX
8
0
10
19.9112
20
27.4709
0
VERTEX
8
0
10
22.052
20
26.4933
0
VERTEX
8
0
10
21.2985
20
25.767
0
VERTEX
8
0
10
20.831
20
25.2985
0
VERTEX
8
0
10
20.3927
20
24.8467
0
VERTEX
8
0
10
19.6419
20
24.1635
0
VERTEX
8
0
10
18.992
20
23.6055
0
VERTEX
8
0
10
18.1893
20
22.8036
0
VERTEX
8
0
10
16.3249
20
21.6068
0
VERTEX
8
0
10
16.2292
20
21.5519
0
VERTEX
8
0
10
16.1414
20
21.4707
0
VERTEX
8
0
10
16.0356
20
21.4199
0
SEQEND
0
TEXT
8
0
10
5.0497
20
22.8234
40
5
1
31.2
0
ENDSEC
0
EOF
