999
Creator: CLJ++
0
SECTION
2
HEADER
9
$ACADVER
1
AC1009
9
$EXTMIN
10
0
20
0
9
$EXTMAX
10
175
20
37
9
$LIMMIN
10
0
20
0
9
$LIMMAX
10
175
20
37
0
ENDSEC
0
SECTION
2
TABLES
0
TABLE
2
VPORT
70
1
0
VPORT
2
*Active
70
0
10
0
20
0
11
1
21
1
12
87.5
22
18.5
13
0
23
0
14
0.5
24
0.5
15
0.5
25
0.5
16
0
26
0
36
1
17
0
27
0
37
0
40
37
41
1
42
50
43
0
44
0
50
0
51
0
71
0
72
1
73
1
74
3
75
0
76
0
77
0
78
0
0
ENDTAB
0
TABLE
2
LTYPE
70
1
0
LTYPE
2
CONTINUOUS
70
0
3
Solid line
72
65
73
0
40
0
0
ENDTAB
0
TABLE
2
LAYER
70
1
0
LAYER
2
0
70
0
62
255
6
CONTINUOUS
0
ENDTAB
0
ENDSEC
0
SECTION
2
ENTITIES
0
POLYLINE
8
0
10
0
20
0
66
1
70
1
62
1
0
VERTEX
8
0
10
11.7912
20
32.679
0
VERTEX
8
0
10
12.5862
20
32.5842
0
VERTEX
8
0
10
13.0051
20
32.4986
0
VERTEX
8
0
10
13.1476
20
32.452
0
VERTEX
8
0
10
14.9561
20
32.1304
0
VERTEX
8
0
10
17.8592
20
31.411
0
VERTEX
8
0
10
17.9333
20
31.386
0
VERTEX
8
0
10
18.2748
20
31.2969
0
VERTEX
8
0
10
19.2538
20
31.1659
0
VERTEX
8
0
10
19.43
20
31.0978
0
VERTEX
8
0
10
21.5225
20
30.6106
0
VERTEX
8
0
10
21.822
20
30.3004
0
VERTEX
8
0
10
25.568
20
26.1528
0
VERTEX
8
0
10
25.4465
20
25.9013
0
VERTEX
8
0
10
25.3197
20
25.6839
0
VERTEX
8
0
10
23.6807
20
23.7632
0
VERTEX
8
0
10
22.4555
20
22.2218
0
VERTEX
8
0
10
22.1724
20
21.9251
0
VERTEX
8
0
10
20.6592
20
20.7166
0
VERTEX
8
0
10
18.2179
20
20.791
0
VERTEX
8
0
10
17.0547
20
20.7597
0
VERTEX
8
0
10
15.79
20
20.7526
0
VERTEX
8
0
10
14.7769
20
20.738
0
VERTEX
8
0
10
14.7173
20
20.7349
0
VERTEX
8
0
10
14.4488
20
20.7786
0
VERTEX
8
0
10
13.9356
20
20.9346
0
VERTEX
8
0
10
13.2859
20
21.3059
0
VERTEX
8
0
10
13.1076
20
21.6806
0
VERTEX
8
0
10
12.8463
20
22.0778
0
VERTEX
8
0
10
12.205
20
22.0786
0
VERTEX
8
0
10
8.88743
20
22.6278
0
VERTEX
8
0
10
7.17888
20
23.0917
0
VERTEX
8
0
10
5.35038
20
23.4311
0
VERTEX
8
0
10
2.76997
20
24.0906
0
VERTEX
8
0
10
2.04219
20
24.3167
0
VERTEX
8
0
10
0.93584
20
25.8294
0
VERTEX
8
0
10
0.541866
20
26.3585
0
VERTEX
8
0
10
0.0585381
20
27.1554
0
VERTEX
8
0
10
0.0256419
20
27.9117
0
VERTEX
8
0
10
0.0722737
20
28.9059
0
VERTEX
8
0
10
0.128463
20
29.9639
0
VERTEX
8
0
10
0.214722
20
30.8293
0
VERTEX
8
0
10
2.17188
20
31.4408
0
VERTEX
8
0
10
3.7437
20
32.0529
0
VERTEX
8
0
10
4.71404
20
32.3246
0
VERTEX
8
0
10
5.14889
20
32.4252
0
VERTEX
8
0
10
5.55914
20
32.4623
0
VERTEX
8
0
10
7.71928
20
32.891
0
VERTEX
8
0
10
8.13357
20
32.9262
0
VERTEX
8
0
10
8.82526
20
32.8726
0
VERTEX
8
0
10
10.1059
20
32.7733
0
VERTEX
8
0
10
11.4074
20
32.6724
0
SEQEND
0
TEXT
8
0
10
8.9255
20
23.4853
40
5
1
32.1
0
POLYLINE
8
0
10
0
20
0
66
1
70
1
62
1
0
VERTEX
8
0
10
89.9672
20
33.0808
0
VERTEX
8
0
10
90.12
20
33.0678
0
VERTEX
8
0
10
91.397
20
32.6832
0
VERTEX
8
0
10
91.5014
20
32.6739
0
VERTEX
8
0
10
91.8682
20
32.6334
0
VERTEX
8
0
10
92.7645
20
32.646
0
VERTEX
8
0
10
94.6127
20
32.5074
0
VERTEX
8
0
10
96.2798
20
32.4601
0
VERTEX
8
0
10
99.3971
20
32.2651
0
VERTEX
8
0
10
100.754
20
32.3553
0
VERTEX
8
0
10
101.595
20
32.5051
0
VERTEX
8
0
10
103.035
20
32.842
0
VERTEX
8
0
10
112.319
20
34.1662
0
VERTEX
8
0
10
116.164
20
34.8308
0
VERTEX
8
0
10
118.407
20
35.2454
0
VERTEX
8
0
10
119.36
20
35.4172
0
VERTEX
8
0
10
122.134
20
35.7965
0
VERTEX
8
0
10
124.461
20
36.3568
0
VERTEX
8
0
10
125.006
20
36.3806
0
VERTEX
8
0
10
125.079
20
36.3861
0
VERTEX
8
0
10
129.189
20
36.5523
0
VERTEX
8
0
10
129.513
20
36.5484
0
VERTEX
8
0
10
129.785
20
36.548
0
VERTEX
8
0
10
130.436
20
36.5047
0
VERTEX
8
0
10
133.916
20
36.2593
0
VERTEX
8
0
10
135.01
20
36.2211
0
VERTEX
8
0
10
135.388
20
36.2111
0
VERTEX
8
0
10
136.255
20
35.801
0
VERTEX
8
0
10
143.836
20
32.1896
0
VERTEX
8
0
10
142.25
20
26.1885
0
VERTEX
8
0
10
141.978
20
25.069
0
VERTEX
8
0
10
141.919
20
24.7699
0
VERTEX
8
0
10
141.888
20
24.2723
0
VERTEX
8
0
10
141.592
20
23.9391
0
VERTEX
8
0
10
141.38
20
23.5998
0
VERTEX
8
0
10
138.821
20
20.2752
0
VERTEX
8
0
10
138.213
20
19.4475
0
VERTEX
8
0
10
138.153
20
19.3657
0
VERTEX
8
0
10
135.517
20
18.4419
0
VERTEX
8
0
10
134.181
20
18.0299
0
VERTEX
8
0
10
131.822
20
17.8687
0
VERTEX
8
0
10
129.645
20
17.6709
0
VERTEX
8
0
10
128.104
20
17.4685
0
VERTEX
8
0
10
126.358
20
17.3664
0
VERTEX
8
0
10
124.576
20
17.6485
0
VERTEX
8
0
10
123.388
20
17.9723
0
VERTEX
8
0
10
121.412
20
17.3132
0
VERTEX
8
0
10
116.436
20
15.706
0
VERTEX
8
0
10
116.239
20
15.648
0
VERTEX
8
0
10
115.267
20
15.3571
0
VERTEX
8
0
10
114.257
20
15.5304
0
VERTEX
8
0
10
114.083
20
15.5623
0
VERTEX
8
0
10
111.941
20
15.2374
0
VERTEX
8
0
10
110.448
20
15.0283
0
VERTEX
8
0
10
102.917
20
14.0491
0
VERTEX
8
0
10
102.478
20
13.9099
0
VERTEX
8
0
10
101.704
20
13.6643
0
VERTEX
8
0
10
101.034
20
13.907
0
VERTEX
8
0
10
100.597
20
14.0589
0
VERTEX
8
0
10
95.4433
20
13.964
0
VERTEX
8
0
10
92.3975
20
14.0036
0
VERTEX
8
0
10
91.6376
20
14.0346
0
VERTEX
8
0
10
88.663
20
14.7641
0
VERTEX
8
0
10
86.3419
20
15.0986
0
VERTEX
8
0
10
85.8594
20
14.9158
0
VERTEX
8
0
10
85.4919
20
14.7744
0
VERTEX
8
0
10
84.7535
20
14.9837
0
VERTEX
8
0
10
84.1401
20
15.1571
0
VERTEX
8
0
10
75.0485
20
18.3083
0
VERTEX
8
0
10
70.4391
20
19.8301
0
VERTEX
8
0
10
65.4345
20
22.8147
0
VERTEX
8
0
10
63.5032
20
23.9281
0
VERTEX
8
0
10
63.7564
20
26.8738
0
VERTEX
8
0
10
64.1797
20
30.638
0
VERTEX
8
0
10
64.2618
20
30.6543
0
VERTEX
8
0
10
64.3076
20
30.6634
0
VERTEX
8
0
10
64.3241
20
30.6668
0
VERTEX
8
0
10
64.5292
20
30.7115
0
VERTEX
8
0
10
67.382
20
31.3459
0
VERTEX
8
0
10
68.9898
20
31.6577
0
VERTEX
8
0
10
70.2241
20
31.665
0
VERTEX
8
0
10
72.5014
20
31.7194
0
VERTEX
8
0
10
75.0261
20
31.969
0
VERTEX
8
0
10
76.8814
20
32.0883
0
VERTEX
8
0
10
77.965
20
32.148
0
VERTEX
8
0
10
79.4672
20
32.2716
0
VERTEX
8
0
10
82.818
20
32.7887
0
VERTEX
8
0
10
84.9034
20
33.0435
0
VERTEX
8
0
10
86.5464
20
33.3671
0
VERTEX
8
0
10
86.8926
20
33.393
0
VERTEX
8
0
10
88.1117
20
33.3486
0
VERTEX
8
0
10
89.5904
20
33.085
0
VERTEX
8
0
10
89.7813
20
33.0864
0
VERTEX
8
0
10
89.8891
20
33.0783
0
SEQEND
0
TEXT
8
0
10
90.6116
20
20.2832
40
5
1
32.2
0
ENDSEC
0
EOF
