999
Creator: CLJ++
0
SECTION
2
HEADER
9
$ACADVER
1
AC1009
9
$EXTMIN
10
0
20
0
9
$EXTMAX
10
175
20
37
9
$LIMMIN
10
0
20
0
9
$LIMMAX
10
175
20
37
0
ENDSEC
0
SECTION
2
TABLES
0
TABLE
2
VPORT
70
1
0
VPORT
2
*Active
70
0
10
0
20
0
11
1
21
1
12
87.5
22
18.5
13
0
23
0
14
0.5
24
0.5
15
0.5
25
0.5
16
0
26
0
36
1
17
0
27
0
37
0
40
37
41
1
42
50
43
0
44
0
50
0
51
0
71
0
72
1
73
1
74
3
75
0
76
0
77
0
78
0
0
ENDTAB
0
TABLE
2
LTYPE
70
1
0
LTYPE
2
CONTINUOUS
70
0
3
Solid line
72
65
73
0
40
0
0
ENDTAB
0
TABLE
2
LAYER
70
1
0
LAYER
2
0
70
0
62
255
6
CONTINUOUS
0
ENDTAB
0
ENDSEC
0
SECTION
2
ENTITIES
0
POLYLINE
8
0
10
0
20
0
66
1
70
1
62
1
0
VERTEX
8
0
10
10.2141
20
35.2065
0
VERTEX
8
0
10
13.8775
20
34.555
0
VERTEX
8
0
10
15.0537
20
34.2636
0
VERTEX
8
0
10
15.2946
20
34.1826
0
VERTEX
8
0
10
16.4033
20
33.8932
0
VERTEX
8
0
10
16.8785
20
33.8296
0
VERTEX
8
0
10
17.6146
20
33.545
0
VERTEX
8
0
10
18.7445
20
33.282
0
VERTEX
8
0
10
19.3243
20
33.0997
0
VERTEX
8
0
10
19.9813
20
32.9123
0
VERTEX
8
0
10
21.8255
20
32.2772
0
VERTEX
8
0
10
22.2048
20
32.1604
0
VERTEX
8
0
10
22.5783
20
32.0342
0
VERTEX
8
0
10
24.216
20
31.3109
0
VERTEX
8
0
10
25.4786
20
30.9394
0
VERTEX
8
0
10
25.5595
20
30.9139
0
VERTEX
8
0
10
25.9457
20
30.6221
0
VERTEX
8
0
10
27.1503
20
28.9084
0
VERTEX
8
0
10
28.3565
20
26.7211
0
VERTEX
8
0
10
28.4741
20
26.285
0
VERTEX
8
0
10
28.2376
20
26.0603
0
VERTEX
8
0
10
28.1138
20
25.9439
0
VERTEX
8
0
10
26.6146
20
24.4948
0
VERTEX
8
0
10
25.8666
20
23.7096
0
VERTEX
8
0
10
25.3279
20
22.594
0
VERTEX
8
0
10
24.1066
20
20.4996
0
VERTEX
8
0
10
23.1957
20
20.2292
0
VERTEX
8
0
10
21.8022
20
20.1265
0
VERTEX
8
0
10
19.494
20
19.9337
0
VERTEX
8
0
10
17.6889
20
20.6218
0
VERTEX
8
0
10
15.2157
20
21.5687
0
VERTEX
8
0
10
14.3817
20
21.9059
0
VERTEX
8
0
10
13.9877
20
22.4781
0
VERTEX
8
0
10
13.805
20
22.768
0
VERTEX
8
0
10
13.6998
20
22.9265
0
VERTEX
8
0
10
10.5069
20
23.7935
0
VERTEX
8
0
10
9.76453
20
23.9313
0
VERTEX
8
0
10
8.71692
20
24.199
0
VERTEX
8
0
10
7.01207
20
24.7287
0
VERTEX
8
0
10
4.6858
20
25.4445
0
VERTEX
8
0
10
3.67241
20
25.8102
0
VERTEX
8
0
10
3.11822
20
26.0453
0
VERTEX
8
0
10
2.87534
20
26.149
0
VERTEX
8
0
10
1.43595
20
26.679
0
VERTEX
8
0
10
1.20751
20
27.1724
0
VERTEX
8
0
10
1.0192
20
27.6324
0
VERTEX
8
0
10
0.913248
20
28.0609
0
VERTEX
8
0
10
0.667159
20
29.0807
0
VERTEX
8
0
10
0.79859
20
29.397
0
VERTEX
8
0
10
0.831744
20
29.4758
0
VERTEX
8
0
10
1.18272
20
30.3924
0
VERTEX
8
0
10
1.33122
20
30.7546
0
VERTEX
8
0
10
1.60047
20
31.4678
0
VERTEX
8
0
10
1.88945
20
32.1239
0
VERTEX
8
0
10
2.06143
20
32.5585
0
VERTEX
8
0
10
2.50821
20
33.531
0
VERTEX
8
0
10
2.57092
20
33.6763
0
VERTEX
8
0
10
2.8404
20
34.1844
0
VERTEX
8
0
10
3.61455
20
34.2728
0
VERTEX
8
0
10
4.71548
20
34.3849
0
VERTEX
8
0
10
7.54979
20
34.9768
0
VERTEX
8
0
10
8.26318
20
35.0868
0
VERTEX
8
0
10
9.82437
20
35.3216
0
VERTEX
8
0
10
9.92541
20
35.3009
0
SEQEND
0
TEXT
8
0
10
12.7909
20
23.7517
40
5
1
33.1
0
POLYLINE
8
0
10
0
20
0
66
1
70
1
62
1
0
VERTEX
8
0
10
88.0723
20
32.6431
0
VERTEX
8
0
10
88.7637
20
32.8235
0
VERTEX
8
0
10
90.1408
20
32.8637
0
VERTEX
8
0
10
91.382
20
32.7127
0
VERTEX
8
0
10
92.4796
20
32.4841
0
VERTEX
8
0
10
93.4877
20
32.4982
0
VERTEX
8
0
10
94.8613
20
32.3952
0
VERTEX
8
0
10
96.1003
20
32.3601
0
VERTEX
8
0
10
98.4171
20
32.2151
0
VERTEX
8
0
10
100.191
20
32.333
0
VERTEX
8
0
10
102.451
20
32.4945
0
VERTEX
8
0
10
104.179
20
32.643
0
VERTEX
8
0
10
106.066
20
32.9693
0
VERTEX
8
0
10
111.037
20
33.8882
0
VERTEX
8
0
10
113.15
20
34.2688
0
VERTEX
8
0
10
114.708
20
34.4819
0
VERTEX
8
0
10
116.831
20
34.993
0
VERTEX
8
0
10
121.677
20
35.8821
0
VERTEX
8
0
10
124.37
20
36.4025
0
VERTEX
8
0
10
128.337
20
36.4485
0
VERTEX
8
0
10
132.387
20
36.553
0
VERTEX
8
0
10
135.417
20
36.5878
0
VERTEX
8
0
10
136.395
20
36.1315
0
VERTEX
8
0
10
137.822
20
35.4251
0
VERTEX
8
0
10
140.477
20
34.0749
0
VERTEX
8
0
10
142.869
20
32.9246
0
VERTEX
8
0
10
141.803
20
28.9721
0
VERTEX
8
0
10
141.15
20
26.4838
0
VERTEX
8
0
10
140.482
20
24.0113
0
VERTEX
8
0
10
139.694
20
22.9392
0
VERTEX
8
0
10
139.108
20
22.135
0
VERTEX
8
0
10
137.887
20
20.3154
0
VERTEX
8
0
10
136.723
20
18.9303
0
VERTEX
8
0
10
135.877
20
18.6419
0
VERTEX
8
0
10
132.389
20
17.3729
0
VERTEX
8
0
10
132.342
20
17.3667
0
VERTEX
8
0
10
132.269
20
17.3624
0
VERTEX
8
0
10
127.889
20
17.0852
0
VERTEX
8
0
10
124.181
20
16.8126
0
VERTEX
8
0
10
123.797
20
16.9053
0
VERTEX
8
0
10
122.934
20
17.3305
0
VERTEX
8
0
10
122.391
20
17.1515
0
VERTEX
8
0
10
116.22
20
15.3562
0
VERTEX
8
0
10
116.195
20
15.3485
0
VERTEX
8
0
10
115.078
20
15.009
0
VERTEX
8
0
10
113.949
20
15.1975
0
VERTEX
8
0
10
113.907
20
15.2048
0
VERTEX
8
0
10
113.371
20
15.1315
0
VERTEX
8
0
10
103.11
20
13.6991
0
VERTEX
8
0
10
102.516
20
13.5105
0
VERTEX
8
0
10
101.866
20
13.3021
0
VERTEX
8
0
10
101.353
20
13.496
0
VERTEX
8
0
10
100.801
20
13.6958
0
VERTEX
8
0
10
93.4251
20
13.6403
0
VERTEX
8
0
10
92.2556
20
13.6183
0
VERTEX
8
0
10
89.6221
20
14.1272
0
VERTEX
8
0
10
87.3898
20
14.6217
0
VERTEX
8
0
10
86.8805
20
14.43
0
VERTEX
8
0
10
86.5161
20
14.292
0
VERTEX
8
0
10
85.7523
20
14.503
0
VERTEX
8
0
10
85.1694
20
14.6683
0
VERTEX
8
0
10
76.4512
20
17.5027
0
VERTEX
8
0
10
69.2344
20
19.6993
0
VERTEX
8
0
10
65.2246
20
22.0408
0
VERTEX
8
0
10
63.5155
20
23.1357
0
VERTEX
8
0
10
62.4841
20
23.9508
0
VERTEX
8
0
10
62.5304
20
24.7869
0
VERTEX
8
0
10
62.9187
20
30.3291
0
VERTEX
8
0
10
63.2081
20
30.4088
0
VERTEX
8
0
10
63.5803
20
30.4999
0
VERTEX
8
0
10
63.7433
20
30.543
0
VERTEX
8
0
10
65.2924
20
30.9699
0
VERTEX
8
0
10
66.5933
20
31.2751
0
VERTEX
8
0
10
67.2732
20
31.4172
0
VERTEX
8
0
10
67.3681
20
31.4386
0
VERTEX
8
0
10
67.4804
20
31.4637
0
VERTEX
8
0
10
70.106
20
31.5463
0
VERTEX
8
0
10
72.4146
20
31.5589
0
VERTEX
8
0
10
73.3831
20
31.558
0
VERTEX
8
0
10
73.8268
20
31.5608
0
VERTEX
8
0
10
75.5257
20
31.599
0
VERTEX
8
0
10
77.1048
20
31.6082
0
VERTEX
8
0
10
78.3701
20
31.6385
0
VERTEX
8
0
10
79.7728
20
31.7772
0
VERTEX
8
0
10
80.8037
20
31.8434
0
VERTEX
8
0
10
82.6434
20
31.9448
0
VERTEX
8
0
10
85.1939
20
32.1547
0
VERTEX
8
0
10
86.0744
20
32.2905
0
VERTEX
8
0
10
86.6225
20
32.3575
0
SEQEND
0
TEXT
8
0
10
90.6332
20
20.0736
40
5
1
33.2
0
ENDSEC
0
EOF
