999
Creator: CLJ++
0
SECTION
2
HEADER
9
$ACADVER
1
AC1009
9
$EXTMIN
10
0
20
0
9
$EXTMAX
10
175
20
37
9
$LIMMIN
10
0
20
0
9
$LIMMAX
10
175
20
37
0
ENDSEC
0
SECTION
2
TABLES
0
TABLE
2
VPORT
70
1
0
VPORT
2
*Active
70
0
10
0
20
0
11
1
21
1
12
87.5
22
18.5
13
0
23
0
14
0.5
24
0.5
15
0.5
25
0.5
16
0
26
0
36
1
17
0
27
0
37
0
40
37
41
1
42
50
43
0
44
0
50
0
51
0
71
0
72
1
73
1
74
3
75
0
76
0
77
0
78
0
0
ENDTAB
0
TABLE
2
LTYPE
70
1
0
LTYPE
2
CONTINUOUS
70
0
3
Solid line
72
65
73
0
40
0
0
ENDTAB
0
TABLE
2
LAYER
70
1
0
LAYER
2
0
70
0
62
255
6
CONTINUOUS
0
ENDTAB
0
ENDSEC
0
SECTION
2
ENTITIES
0
POLYLINE
8
0
10
0
20
0
66
1
70
1
62
1
0
VERTEX
8
0
10
15.7992
20
35.9923
0
VERTEX
8
0
10
15.9265
20
35.9627
0
VERTEX
8
0
10
17.0891
20
35.5972
0
VERTEX
8
0
10
18.4066
20
35.2213
0
VERTEX
8
0
10
19.0414
20
35.0027
0
VERTEX
8
0
10
20.083
20
34.682
0
VERTEX
8
0
10
21.1085
20
34.3354
0
VERTEX
8
0
10
25.6055
20
32.3495
0
VERTEX
8
0
10
26.0275
20
32.2253
0
VERTEX
8
0
10
26.5345
20
32.0654
0
VERTEX
8
0
10
26.7057
20
31.936
0
VERTEX
8
0
10
27.0473
20
31.8667
0
VERTEX
8
0
10
27.2782
20
31.8058
0
VERTEX
8
0
10
28.6629
20
31.048
0
VERTEX
8
0
10
32.0571
20
29.5949
0
VERTEX
8
0
10
32.1065
20
28.4445
0
VERTEX
8
0
10
32.612
20
26.78
0
VERTEX
8
0
10
32.8317
20
26.1911
0
VERTEX
8
0
10
32.9417
20
25.8616
0
VERTEX
8
0
10
31.5657
20
25.1054
0
VERTEX
8
0
10
31.1163
20
24.7572
0
VERTEX
8
0
10
30.05
20
23.7003
0
VERTEX
8
0
10
29.1067
20
22.6876
0
VERTEX
8
0
10
28.6141
20
22.2195
0
VERTEX
8
0
10
27.1966
20
20.8874
0
VERTEX
8
0
10
26.7456
20
20.771
0
VERTEX
8
0
10
25.9152
20
20.544
0
VERTEX
8
0
10
22.699
20
19.5591
0
VERTEX
8
0
10
22.5311
20
19.5413
0
VERTEX
8
0
10
22.4253
20
19.538
0
VERTEX
8
0
10
22.3798
20
19.5526
0
VERTEX
8
0
10
21.4753
20
19.8359
0
VERTEX
8
0
10
21.3758
20
19.9332
0
VERTEX
8
0
10
20.9453
20
20.324
0
VERTEX
8
0
10
17.8533
20
21.4183
0
VERTEX
8
0
10
15.9236
20
22.2814
0
VERTEX
8
0
10
15.376
20
22.5293
0
VERTEX
8
0
10
14.8114
20
22.7566
0
VERTEX
8
0
10
14.4812
20
22.9282
0
VERTEX
8
0
10
12.9464
20
23.7342
0
VERTEX
8
0
10
12.442
20
24.4878
0
VERTEX
8
0
10
12.0252
20
25.1171
0
VERTEX
8
0
10
9.56623
20
25.8737
0
VERTEX
8
0
10
9.3101
20
25.9661
0
VERTEX
8
0
10
7.42325
20
26.7666
0
VERTEX
8
0
10
6.59633
20
27.1197
0
VERTEX
8
0
10
5.92487
20
27.367
0
VERTEX
8
0
10
4.79525
20
28.0522
0
VERTEX
8
0
10
4.49992
20
28.199
0
VERTEX
8
0
10
4.05969
20
28.4921
0
VERTEX
8
0
10
3.85036
20
28.4969
0
VERTEX
8
0
10
3.49795
20
28.4474
0
VERTEX
8
0
10
3.3554
20
28.451
0
VERTEX
8
0
10
3.28391
20
28.4565
0
VERTEX
8
0
10
3.0325
20
29.3697
0
VERTEX
8
0
10
2.73451
20
30.4673
0
VERTEX
8
0
10
3.43125
20
31.4896
0
VERTEX
8
0
10
3.62999
20
31.6827
0
VERTEX
8
0
10
4.28955
20
32.4627
0
VERTEX
8
0
10
4.79296
20
32.9526
0
VERTEX
8
0
10
5.12207
20
33.3919
0
VERTEX
8
0
10
5.7124
20
33.9522
0
VERTEX
8
0
10
6.10967
20
34.2825
0
VERTEX
8
0
10
6.44801
20
34.5624
0
VERTEX
8
0
10
6.57398
20
34.6694
0
VERTEX
8
0
10
7.12376
20
35.1812
0
VERTEX
8
0
10
7.24035
20
35.2924
0
VERTEX
8
0
10
7.98069
20
36.1164
0
VERTEX
8
0
10
7.99347
20
36.1294
0
VERTEX
8
0
10
8.08174
20
36.2098
0
VERTEX
8
0
10
12.9312
20
36.3324
0
VERTEX
8
0
10
14.9242
20
36.3305
0
SEQEND
0
TEXT
8
0
10
9.84514
20
26.2505
40
5
1
34.1
0
POLYLINE
8
0
10
0
20
0
66
1
70
1
62
1
0
VERTEX
8
0
10
84.7259
20
31.5986
0
VERTEX
8
0
10
86.1041
20
31.6745
0
VERTEX
8
0
10
87.2657
20
31.808
0
VERTEX
8
0
10
89.3516
20
32.1022
0
VERTEX
8
0
10
91.1191
20
32.5633
0
VERTEX
8
0
10
92.0204
20
32.5896
0
VERTEX
8
0
10
92.8327
20
32.4908
0
VERTEX
8
0
10
93.5511
20
32.3412
0
VERTEX
8
0
10
94.2109
20
32.3504
0
VERTEX
8
0
10
95.1099
20
32.283
0
VERTEX
8
0
10
95.9207
20
32.26
0
VERTEX
8
0
10
97.437
20
32.1652
0
VERTEX
8
0
10
98.598
20
32.2423
0
VERTEX
8
0
10
100.077
20
32.348
0
VERTEX
8
0
10
101.744
20
32.4913
0
VERTEX
8
0
10
104.157
20
32.7067
0
VERTEX
8
0
10
105.032
20
32.7766
0
VERTEX
8
0
10
106.939
20
33.1204
0
VERTEX
8
0
10
107.282
20
33.1673
0
VERTEX
8
0
10
107.749
20
33.2797
0
VERTEX
8
0
10
108.816
20
33.4754
0
VERTEX
8
0
10
110.482
20
33.7973
0
VERTEX
8
0
10
115.886
20
34.9078
0
VERTEX
8
0
10
123.819
20
36.5043
0
VERTEX
8
0
10
126.321
20
36.5048
0
VERTEX
8
0
10
135.079
20
36.3245
0
VERTEX
8
0
10
141.545
20
33.6644
0
VERTEX
8
0
10
141.756
20
33.5744
0
VERTEX
8
0
10
141.908
20
33.5
0
VERTEX
8
0
10
141.912
20
33.3396
0
VERTEX
8
0
10
140.808
20
28.8554
0
VERTEX
8
0
10
139.474
20
23.7249
0
VERTEX
8
0
10
138.684
20
22.5495
0
VERTEX
8
0
10
138.145
20
21.907
0
VERTEX
8
0
10
136.31
20
19.3905
0
VERTEX
8
0
10
135.901
20
18.816
0
VERTEX
8
0
10
135.699
20
18.5653
0
VERTEX
8
0
10
132.283
20
17.3386
0
VERTEX
8
0
10
131.122
20
16.8834
0
VERTEX
8
0
10
127.34
20
16.6282
0
VERTEX
8
0
10
124.451
20
16.4017
0
VERTEX
8
0
10
120.397
20
15.8568
0
VERTEX
8
0
10
116.002
20
14.975
0
VERTEX
8
0
10
115.286
20
14.7533
0
VERTEX
8
0
10
114.89
20
14.6288
0
VERTEX
8
0
10
114.099
20
14.7565
0
VERTEX
8
0
10
113.73
20
14.8168
0
VERTEX
8
0
10
108.2
20
14.0533
0
VERTEX
8
0
10
103.299
20
13.335
0
VERTEX
8
0
10
102.629
20
13.1207
0
VERTEX
8
0
10
102.03
20
12.9204
0
VERTEX
8
0
10
101.57
20
13.1005
0
VERTEX
8
0
10
101
20
13.3159
0
VERTEX
8
0
10
97.814
20
13.5285
0
VERTEX
8
0
10
93.182
20
13.8389
0
VERTEX
8
0
10
89.8921
20
13.9492
0
VERTEX
8
0
10
88.4401
20
14.1565
0
VERTEX
8
0
10
87.7791
20
13.9054
0
VERTEX
8
0
10
87.5405
20
13.8155
0
VERTEX
8
0
10
86.5832
20
14.0715
0
VERTEX
8
0
10
86.1984
20
14.1778
0
VERTEX
8
0
10
80.6924
20
15.8426
0
VERTEX
8
0
10
67.4299
20
19.7647
0
VERTEX
8
0
10
65.4012
20
21.1739
0
VERTEX
8
0
10
64.1254
20
22.0311
0
VERTEX
8
0
10
60.9603
20
23.9925
0
VERTEX
8
0
10
61.165
20
28.5744
0
VERTEX
8
0
10
61.2107
20
29.9296
0
VERTEX
8
0
10
63.6364
20
30.4272
0
VERTEX
8
0
10
64.4959
20
30.6588
0
VERTEX
8
0
10
65.7306
20
30.9926
0
VERTEX
8
0
10
67.7946
20
31.0657
0
VERTEX
8
0
10
72.3287
20
31.2712
0
VERTEX
8
0
10
72.9084
20
31.3028
0
VERTEX
8
0
10
74.8245
20
31.4051
0
VERTEX
8
0
10
76.1701
20
31.4598
0
VERTEX
8
0
10
76.5136
20
31.4647
0
VERTEX
8
0
10
78.4514
20
31.5054
0
VERTEX
8
0
10
79.528
20
31.5393
0
VERTEX
8
0
10
80.4069
20
31.5441
0
VERTEX
8
0
10
83.2407
20
31.5414
0
VERTEX
8
0
10
83.3295
20
31.542
0
VERTEX
8
0
10
83.6695
20
31.5496
0
VERTEX
8
0
10
83.9856
20
31.5515
0
VERTEX
8
0
10
84.2388
20
31.5575
0
VERTEX
8
0
10
84.5196
20
31.5853
0
SEQEND
0
TEXT
8
0
10
117.283
20
23.531
40
5
1
34.2
0
ENDSEC
0
EOF
