999
Creator: CLJ++
0
SECTION
2
HEADER
9
$ACADVER
1
AC1009
9
$EXTMIN
10
0
20
0
9
$EXTMAX
10
175
20
37
9
$LIMMIN
10
0
20
0
9
$LIMMAX
10
175
20
37
0
ENDSEC
0
SECTION
2
TABLES
0
TABLE
2
VPORT
70
1
0
VPORT
2
*Active
70
0
10
0
20
0
11
1
21
1
12
87.5
22
18.5
13
0
23
0
14
0.5
24
0.5
15
0.5
25
0.5
16
0
26
0
36
1
17
0
27
0
37
0
40
37
41
1
42
50
43
0
44
0
50
0
51
0
71
0
72
1
73
1
74
3
75
0
76
0
77
0
78
0
0
ENDTAB
0
TABLE
2
LTYPE
70
1
0
LTYPE
2
CONTINUOUS
70
0
3
Solid line
72
65
73
0
40
0
0
ENDTAB
0
TABLE
2
LAYER
70
1
0
LAYER
2
0
70
0
62
255
6
CONTINUOUS
0
ENDTAB
0
ENDSEC
0
SECTION
2
ENTITIES
0
POLYLINE
8
0
10
0
20
0
66
1
70
1
62
1
0
VERTEX
8
0
10
17.2034
20
22.8345
0
VERTEX
8
0
10
15.5955
20
23.6789
0
VERTEX
8
0
10
14.7673
20
24.1419
0
VERTEX
8
0
10
14.454
20
24.3236
0
VERTEX
8
0
10
14.2602
20
24.4231
0
VERTEX
8
0
10
13.5801
20
24.7873
0
VERTEX
8
0
10
12.3539
20
25.6195
0
VERTEX
8
0
10
12.0439
20
25.8926
0
VERTEX
8
0
10
11.5694
20
26.2372
0
VERTEX
8
0
10
11.1917
20
26.7415
0
VERTEX
8
0
10
10.4081
20
27.2756
0
VERTEX
8
0
10
9.73585
20
27.7423
0
VERTEX
8
0
10
8.25065
20
28.54
0
VERTEX
8
0
10
7.38621
20
30.6754
0
VERTEX
8
0
10
7.24237
20
31.0124
0
VERTEX
8
0
10
7.30918
20
31.0804
0
VERTEX
8
0
10
7.32244
20
31.0925
0
VERTEX
8
0
10
8.22692
20
32.0194
0
VERTEX
8
0
10
8.91257
20
32.7351
0
VERTEX
8
0
10
9.3749
20
33.4433
0
VERTEX
8
0
10
12.752
20
36.4467
0
VERTEX
8
0
10
12.8051
20
36.4973
0
VERTEX
8
0
10
12.8358
20
36.5268
0
VERTEX
8
0
10
12.8541
20
36.5424
0
VERTEX
8
0
10
13.0173
20
36.6758
0
VERTEX
8
0
10
18.478
20
36.55
0
VERTEX
8
0
10
20.2686
20
36.5688
0
VERTEX
8
0
10
22.3092
20
35.8662
0
VERTEX
8
0
10
24.3146
20
34.8978
0
VERTEX
8
0
10
25.1888
20
34.4696
0
VERTEX
8
0
10
25.4322
20
34.4062
0
VERTEX
8
0
10
26.2136
20
34.0337
0
VERTEX
8
0
10
26.8205
20
33.7784
0
VERTEX
8
0
10
31.8629
20
31.6707
0
VERTEX
8
0
10
35.5905
20
30.2436
0
VERTEX
8
0
10
36.5782
20
29.8394
0
VERTEX
8
0
10
37.3854
20
29.2666
0
VERTEX
8
0
10
38.3191
20
27.463
0
VERTEX
8
0
10
40.0338
20
25.7254
0
VERTEX
8
0
10
40.7983
20
25.1866
0
VERTEX
8
0
10
40.884
20
24.8421
0
VERTEX
8
0
10
38.8078
20
24.1097
0
VERTEX
8
0
10
37.3422
20
23.7698
0
VERTEX
8
0
10
36.4141
20
23.3127
0
VERTEX
8
0
10
35.5662
20
22.9349
0
VERTEX
8
0
10
33.5631
20
21.9122
0
VERTEX
8
0
10
33.1656
20
21.7365
0
VERTEX
8
0
10
32.2864
20
21.3353
0
VERTEX
8
0
10
31.678
20
21.2165
0
VERTEX
8
0
10
28.6024
20
20.158
0
VERTEX
8
0
10
26.7193
20
19.5144
0
VERTEX
8
0
10
26.3439
20
19.38
0
VERTEX
8
0
10
25.1702
20
19.6295
0
VERTEX
8
0
10
24.4317
20
19.8533
0
VERTEX
8
0
10
23.5804
20
20.0803
0
VERTEX
8
0
10
23.1834
20
20.1914
0
VERTEX
8
0
10
23.0291
20
20.206
0
VERTEX
8
0
10
22.1428
20
20.6295
0
VERTEX
8
0
10
21.5979
20
20.6391
0
VERTEX
8
0
10
21.4117
20
20.6632
0
VERTEX
8
0
10
21.2323
20
20.6878
0
VERTEX
8
0
10
20.907
20
20.835
0
VERTEX
8
0
10
20.5431
20
20.9997
0
VERTEX
8
0
10
20.1867
20
21.1391
0
VERTEX
8
0
10
20.0156
20
21.2944
0
VERTEX
8
0
10
19.5388
20
21.7282
0
VERTEX
8
0
10
18.6209
20
22.0976
0
SEQEND
0
TEXT
8
0
10
18.1369
20
24.1818
40
5
1
35.1
0
POLYLINE
8
0
10
0
20
0
66
1
70
1
62
1
0
VERTEX
8
0
10
96.457
20
32.1152
0
VERTEX
8
0
10
97.005
20
32.1516
0
VERTEX
8
0
10
97.7031
20
32.2015
0
VERTEX
8
0
10
98.4902
20
32.2691
0
VERTEX
8
0
10
99.6292
20
32.3708
0
VERTEX
8
0
10
100.909
20
32.4732
0
VERTEX
8
0
10
104.545
20
32.953
0
VERTEX
8
0
10
104.854
20
32.9933
0
VERTEX
8
0
10
105.363
20
33.0075
0
VERTEX
8
0
10
121.407
20
36.1868
0
VERTEX
8
0
10
122.973
20
36.4827
0
VERTEX
8
0
10
125.41
20
36.4554
0
VERTEX
8
0
10
134.332
20
36.2461
0
VERTEX
8
0
10
136.272
20
35.3641
0
VERTEX
8
0
10
141.062
20
33.2631
0
VERTEX
8
0
10
140.347
20
30.3553
0
VERTEX
8
0
10
138.665
20
23.4354
0
VERTEX
8
0
10
137.196
20
21.3727
0
VERTEX
8
0
10
135.659
20
19.4649
0
VERTEX
8
0
10
135.111
20
18.6768
0
VERTEX
8
0
10
134.723
20
18.3071
0
VERTEX
8
0
10
131.245
20
16.9485
0
VERTEX
8
0
10
130.002
20
16.445
0
VERTEX
8
0
10
121.507
20
15.3909
0
VERTEX
8
0
10
115.788
20
14.6458
0
VERTEX
8
0
10
115.299
20
14.4923
0
VERTEX
8
0
10
114.699
20
14.3
0
VERTEX
8
0
10
114.043
20
14.4015
0
VERTEX
8
0
10
113.555
20
14.4811
0
VERTEX
8
0
10
109.509
20
13.8888
0
VERTEX
8
0
10
103.459
20
12.88
0
VERTEX
8
0
10
102.54
20
12.5455
0
VERTEX
8
0
10
102.169
20
12.4199
0
VERTEX
8
0
10
101.463
20
12.7099
0
VERTEX
8
0
10
101.166
20
12.8299
0
VERTEX
8
0
10
90.4721
20
13.6373
0
VERTEX
8
0
10
89.8906
20
13.6761
0
VERTEX
8
0
10
89.4928
20
13.7027
0
VERTEX
8
0
10
88.6095
20
13.3667
0
VERTEX
8
0
10
88.5653
20
13.3499
0
VERTEX
8
0
10
87.318
20
13.6736
0
VERTEX
8
0
10
87.2294
20
13.6973
0
VERTEX
8
0
10
85.9311
20
14.0813
0
VERTEX
8
0
10
65.5187
20
19.5997
0
VERTEX
8
0
10
65.4045
20
19.6717
0
VERTEX
8
0
10
62.2084
20
21.6738
0
VERTEX
8
0
10
60.3807
20
22.2336
0
VERTEX
8
0
10
59.1155
20
22.7942
0
VERTEX
8
0
10
58.6851
20
23.0101
0
VERTEX
8
0
10
57.6499
20
23.4452
0
VERTEX
8
0
10
56.847
20
23.8948
0
VERTEX
8
0
10
56.0256
20
28.7255
0
VERTEX
8
0
10
55.9834
20
29.4353
0
VERTEX
8
0
10
56.6212
20
29.5421
0
VERTEX
8
0
10
58.1786
20
29.6681
0
VERTEX
8
0
10
60.485
20
30.0384
0
VERTEX
8
0
10
62.3567
20
30.3033
0
VERTEX
8
0
10
64.4013
20
30.6612
0
VERTEX
8
0
10
64.8741
20
30.675
0
VERTEX
8
0
10
68.2619
20
30.7915
0
VERTEX
8
0
10
71.531
20
30.9986
0
VERTEX
8
0
10
73.9658
20
31.1406
0
VERTEX
8
0
10
78.2285
20
31.1074
0
VERTEX
8
0
10
79.8218
20
31.1639
0
VERTEX
8
0
10
81.0726
20
31.2206
0
VERTEX
8
0
10
81.2325
20
31.2293
0
VERTEX
8
0
10
84.8954
20
31.4249
0
VERTEX
8
0
10
85.8492
20
31.5192
0
VERTEX
8
0
10
88.4098
20
31.6963
0
VERTEX
8
0
10
90.2105
20
31.7805
0
VERTEX
8
0
10
91.6556
20
31.9466
0
VERTEX
8
0
10
92.6403
20
32.0855
0
VERTEX
8
0
10
93.4746
20
32.3031
0
VERTEX
8
0
10
93.9001
20
32.3156
0
VERTEX
8
0
10
94.2835
20
32.2689
0
VERTEX
8
0
10
94.6227
20
32.1983
0
VERTEX
8
0
10
94.9341
20
32.2026
0
VERTEX
8
0
10
95.3585
20
32.1708
0
VERTEX
8
0
10
95.7412
20
32.16
0
SEQEND
0
TEXT
8
0
10
116.418
20
23.2896
40
5
1
35.2
0
ENDSEC
0
EOF
