999
Creator: CLJ++
0
SECTION
2
HEADER
9
$ACADVER
1
AC1009
9
$EXTMIN
10
0
20
0
9
$EXTMAX
10
175
20
37
9
$LIMMIN
10
0
20
0
9
$LIMMAX
10
175
20
37
0
ENDSEC
0
SECTION
2
TABLES
0
TABLE
2
VPORT
70
1
0
VPORT
2
*Active
70
0
10
0
20
0
11
1
21
1
12
87.5
22
18.5
13
0
23
0
14
0.5
24
0.5
15
0.5
25
0.5
16
0
26
0
36
1
17
0
27
0
37
0
40
37
41
1
42
50
43
0
44
0
50
0
51
0
71
0
72
1
73
1
74
3
75
0
76
0
77
0
78
0
0
ENDTAB
0
TABLE
2
LTYPE
70
1
0
LTYPE
2
CONTINUOUS
70
0
3
Solid line
72
65
73
0
40
0
0
ENDTAB
0
TABLE
2
LAYER
70
1
0
LAYER
2
0
70
0
62
255
6
CONTINUOUS
0
ENDTAB
0
ENDSEC
0
SECTION
2
ENTITIES
0
POLYLINE
8
0
10
0
20
0
66
1
70
1
62
1
0
VERTEX
8
0
10
60.8866
20
19.4141
0
VERTEX
8
0
10
59.1062
20
20.3069
0
VERTEX
8
0
10
58.7493
20
20.457
0
VERTEX
8
0
10
58.169
20
20.7819
0
VERTEX
8
0
10
56.7023
20
21.6163
0
VERTEX
8
0
10
53.8185
20
22.3883
0
VERTEX
8
0
10
52.784
20
22.8471
0
VERTEX
8
0
10
51.6177
20
23.4427
0
VERTEX
8
0
10
50.5872
20
23.4907
0
VERTEX
8
0
10
49.5847
20
23.1204
0
VERTEX
8
0
10
47.5181
20
23.2512
0
VERTEX
8
0
10
46.739
20
23.0995
0
VERTEX
8
0
10
45.6272
20
22.9418
0
VERTEX
8
0
10
44.8644
20
22.9415
0
VERTEX
8
0
10
43.4568
20
22.934
0
VERTEX
8
0
10
40.6805
20
22.1218
0
VERTEX
8
0
10
38.1129
20
21.263
0
VERTEX
8
0
10
36.0971
20
20.4033
0
VERTEX
8
0
10
31.5665
20
19.2208
0
VERTEX
8
0
10
31.3911
20
19.2416
0
VERTEX
8
0
10
30.9437
20
19.3154
0
VERTEX
8
0
10
27.6762
20
19.9255
0
VERTEX
8
0
10
26.7657
20
19.8642
0
VERTEX
8
0
10
24.5106
20
20.3498
0
VERTEX
8
0
10
22.6231
20
21.1365
0
VERTEX
8
0
10
21.7606
20
21.5861
0
VERTEX
8
0
10
21.1933
20
21.9369
0
VERTEX
8
0
10
20.6934
20
22.2502
0
VERTEX
8
0
10
20.3084
20
22.5193
0
VERTEX
8
0
10
19.8034
20
22.6379
0
VERTEX
8
0
10
19.2357
20
22.7786
0
VERTEX
8
0
10
19.0672
20
22.8755
0
VERTEX
8
0
10
18.8426
20
23.0046
0
VERTEX
8
0
10
18.1959
20
23.3928
0
VERTEX
8
0
10
18.1649
20
23.4292
0
VERTEX
8
0
10
18.1374
20
23.4585
0
VERTEX
8
0
10
17.8713
20
23.7431
0
VERTEX
8
0
10
17.4253
20
24.2667
0
VERTEX
8
0
10
14.3146
20
26.3779
0
VERTEX
8
0
10
13.3653
20
27.2143
0
VERTEX
8
0
10
12.4999
20
27.8427
0
VERTEX
8
0
10
11.4115
20
30.6199
0
VERTEX
8
0
10
11.1317
20
31.3467
0
VERTEX
8
0
10
11.3485
20
31.5544
0
VERTEX
8
0
10
12.0542
20
32.1583
0
VERTEX
8
0
10
12.3897
20
32.4325
0
VERTEX
8
0
10
13.018
20
32.9193
0
VERTEX
8
0
10
13.2296
20
33.1242
0
VERTEX
8
0
10
13.7382
20
33.5875
0
VERTEX
8
0
10
14.3026
20
34.0533
0
VERTEX
8
0
10
16.4728
20
35.4143
0
VERTEX
8
0
10
16.9429
20
35.7589
0
VERTEX
8
0
10
18.5477
20
36.388
0
VERTEX
8
0
10
22.236
20
36.3975
0
VERTEX
8
0
10
23.3727
20
36.4132
0
VERTEX
8
0
10
23.4917
20
36.4193
0
VERTEX
8
0
10
23.6767
20
36.4573
0
VERTEX
8
0
10
24.0704
20
36.5384
0
VERTEX
8
0
10
24.9167
20
36.4391
0
VERTEX
8
0
10
30.4848
20
34.2305
0
VERTEX
8
0
10
38.1565
20
31.302
0
VERTEX
8
0
10
38.474
20
31.2882
0
VERTEX
8
0
10
38.5983
20
31.2888
0
VERTEX
8
0
10
42.3519
20
30.9546
0
VERTEX
8
0
10
44.3426
20
31.0795
0
VERTEX
8
0
10
46.2122
20
31.0406
0
VERTEX
8
0
10
48.802
20
30.3509
0
VERTEX
8
0
10
51.006
20
30.7478
0
VERTEX
8
0
10
51.2525
20
30.7321
0
VERTEX
8
0
10
52.2342
20
30.9022
0
VERTEX
8
0
10
52.7881
20
30.8808
0
VERTEX
8
0
10
59.3457
20
31.0151
0
VERTEX
8
0
10
62.7679
20
31.2557
0
VERTEX
8
0
10
80.5392
20
31.4544
0
VERTEX
8
0
10
82.2789
20
31.4615
0
VERTEX
8
0
10
82.8813
20
31.4637
0
VERTEX
8
0
10
84.2238
20
31.4052
0
VERTEX
8
0
10
93.4404
20
31.928
0
VERTEX
8
0
10
95.7788
20
32.1303
0
VERTEX
8
0
10
98.3579
20
32.4667
0
VERTEX
8
0
10
103.598
20
32.6135
0
VERTEX
8
0
10
104.692
20
32.6675
0
VERTEX
8
0
10
110.412
20
33.9328
0
VERTEX
8
0
10
113.894
20
34.624
0
VERTEX
8
0
10
122.451
20
36.2385
0
VERTEX
8
0
10
126.272
20
36.2821
0
VERTEX
8
0
10
130.129
20
36.2222
0
VERTEX
8
0
10
133.581
20
36.1541
0
VERTEX
8
0
10
138.002
20
34.1465
0
VERTEX
8
0
10
140.34
20
33.0775
0
VERTEX
8
0
10
139.715
20
30.5027
0
VERTEX
8
0
10
138.767
20
26.5873
0
VERTEX
8
0
10
138.468
20
25.29
0
VERTEX
8
0
10
137.974
20
23.0716
0
VERTEX
8
0
10
135.954
20
20.1693
0
VERTEX
8
0
10
134.527
20
18.8104
0
VERTEX
8
0
10
133.726
20
17.9791
0
VERTEX
8
0
10
130.565
20
16.6917
0
VERTEX
8
0
10
128.983
20
16.0134
0
VERTEX
8
0
10
122.386
20
15.1327
0
VERTEX
8
0
10
115.576
20
14.3323
0
VERTEX
8
0
10
115.265
20
14.2324
0
VERTEX
8
0
10
114.507
20
14.0143
0
VERTEX
8
0
10
113.665
20
14.0967
0
VERTEX
8
0
10
113.381
20
14.1405
0
VERTEX
8
0
10
111.215
20
13.7838
0
VERTEX
8
0
10
103.654
20
12.5367
0
VERTEX
8
0
10
102.418
20
12.0803
0
VERTEX
8
0
10
102.347
20
12.0551
0
VERTEX
8
0
10
101.452
20
12.4129
0
VERTEX
8
0
10
101.364
20
12.4486
0
VERTEX
8
0
10
92.0635
20
12.9829
0
VERTEX
8
0
10
90.515
20
13.1007
0
VERTEX
8
0
10
89.7167
20
12.7813
0
VERTEX
8
0
10
89.597
20
12.7357
0
VERTEX
8
0
10
88.4087
20
13.0401
0
VERTEX
8
0
10
88.2336
20
13.0859
0
VERTEX
8
0
10
85.455
20
13.8397
0
VERTEX
8
0
10
81.7493
20
14.746
0
VERTEX
8
0
10
64.0338
20
19.0686
0
VERTEX
8
0
10
62.0866
20
19.0244
0
VERTEX
8
0
10
61.0488
20
19.3422
0
SEQEND
0
TEXT
8
0
10
110.711
20
22.0833
40
5
1
36.1
0
ENDSEC
0
EOF
