999
Creator: CLJ++
0
SECTION
2
HEADER
9
$ACADVER
1
AC1009
9
$EXTMIN
10
0
20
0
9
$EXTMAX
10
175
20
37
9
$LIMMIN
10
0
20
0
9
$LIMMAX
10
175
20
37
0
ENDSEC
0
SECTION
2
TABLES
0
TABLE
2
VPORT
70
1
0
VPORT
2
*Active
70
0
10
0
20
0
11
1
21
1
12
87.5
22
18.5
13
0
23
0
14
0.5
24
0.5
15
0.5
25
0.5
16
0
26
0
36
1
17
0
27
0
37
0
40
37
41
1
42
50
43
0
44
0
50
0
51
0
71
0
72
1
73
1
74
3
75
0
76
0
77
0
78
0
0
ENDTAB
0
TABLE
2
LTYPE
70
1
0
LTYPE
2
CONTINUOUS
70
0
3
Solid line
72
65
73
0
40
0
0
ENDTAB
0
TABLE
2
LAYER
70
1
0
LAYER
2
0
70
0
62
255
6
CONTINUOUS
0
ENDTAB
0
ENDSEC
0
SECTION
2
ENTITIES
0
POLYLINE
8
0
10
0
20
0
66
1
70
1
62
1
0
VERTEX
8
0
10
120.906
20
25.2824
0
VERTEX
8
0
10
126.146
20
25.8884
0
VERTEX
8
0
10
125.584
20
25.957
0
SEQEND
0
POLYLINE
8
0
10
0
20
0
66
1
70
1
62
1
0
VERTEX
8
0
10
136.379
20
21.2635
0
VERTEX
8
0
10
134.983
20
19.815
0
VERTEX
8
0
10
133.429
20
18.1105
0
VERTEX
8
0
10
132.694
20
17.4542
0
VERTEX
8
0
10
129.843
20
16.2382
0
VERTEX
8
0
10
128.172
20
15.4727
0
VERTEX
8
0
10
122.181
20
14.7484
0
VERTEX
8
0
10
115.115
20
13.8932
0
VERTEX
8
0
10
114.899
20
13.8309
0
VERTEX
8
0
10
114.316
20
13.7218
0
VERTEX
8
0
10
113.685
20
13.7262
0
VERTEX
8
0
10
113.455
20
13.7476
0
VERTEX
8
0
10
109.009
20
13.0447
0
VERTEX
8
0
10
103.851
20
12.1991
0
VERTEX
8
0
10
102.74
20
11.8082
0
VERTEX
8
0
10
102.51
20
11.7076
0
VERTEX
8
0
10
101.709
20
12.0557
0
VERTEX
8
0
10
101.577
20
12.1136
0
VERTEX
8
0
10
100.833
20
12.1666
0
VERTEX
8
0
10
98.5679
20
12.2784
0
VERTEX
8
0
10
93.8657
20
12.4777
0
VERTEX
8
0
10
91.5603
20
12.6111
0
VERTEX
8
0
10
91.3527
20
12.5274
0
VERTEX
8
0
10
90.5512
20
12.207
0
VERTEX
8
0
10
89.6707
20
12.4142
0
VERTEX
8
0
10
89.2477
20
12.5226
0
VERTEX
8
0
10
70.2078
20
16.6038
0
VERTEX
8
0
10
63.1382
20
18.303
0
VERTEX
8
0
10
61.5664
20
18.4077
0
VERTEX
8
0
10
60.2183
20
18.4487
0
VERTEX
8
0
10
59.6937
20
18.5142
0
VERTEX
8
0
10
55.5291
20
18.0748
0
VERTEX
8
0
10
52.9087
20
18.7763
0
VERTEX
8
0
10
52.6301
20
18.8998
0
VERTEX
8
0
10
52.316
20
19.0603
0
VERTEX
8
0
10
52.0384
20
19.0732
0
VERTEX
8
0
10
51.7684
20
18.9735
0
VERTEX
8
0
10
43.7838
20
19.4786
0
VERTEX
8
0
10
40.7734
20
18.8925
0
VERTEX
8
0
10
40.2995
20
18.8253
0
VERTEX
8
0
10
37.588
20
18.7291
0
VERTEX
8
0
10
36.5959
20
18.8665
0
VERTEX
8
0
10
33.1868
20
19.0946
0
VERTEX
8
0
10
32.0268
20
19.2323
0
VERTEX
8
0
10
29.2918
20
19.6838
0
VERTEX
8
0
10
26.4647
20
20.5295
0
VERTEX
8
0
10
25.5672
20
20.7753
0
VERTEX
8
0
10
25.0133
20
21.1115
0
VERTEX
8
0
10
22.9519
20
22.3079
0
VERTEX
8
0
10
22.7063
20
22.6072
0
VERTEX
8
0
10
21.1524
20
23.9794
0
VERTEX
8
0
10
20.1309
20
24.7799
0
VERTEX
8
0
10
17.638
20
26.3846
0
VERTEX
8
0
10
17.5472
20
26.4231
0
VERTEX
8
0
10
17.4918
20
26.4722
0
VERTEX
8
0
10
16.7507
20
26.6542
0
VERTEX
8
0
10
16.486
20
27.0033
0
VERTEX
8
0
10
16.2018
20
28.2754
0
VERTEX
8
0
10
15.6251
20
31.2899
0
VERTEX
8
0
10
17.8478
20
32.5495
0
VERTEX
8
0
10
18.7951
20
32.8795
0
VERTEX
8
0
10
20.4367
20
33.5543
0
VERTEX
8
0
10
20.8693
20
33.7337
0
VERTEX
8
0
10
22.386
20
34.541
0
VERTEX
8
0
10
23.0418
20
34.8355
0
VERTEX
8
0
10
24.702
20
35.8896
0
VERTEX
8
0
10
25.9063
20
36.0842
0
VERTEX
8
0
10
28.1956
20
36.2381
0
VERTEX
8
0
10
28.7817
20
36.2698
0
VERTEX
8
0
10
29.0066
20
36.3066
0
VERTEX
8
0
10
30.6547
20
35.6332
0
VERTEX
8
0
10
37.0786
20
32.9829
0
VERTEX
8
0
10
38.7375
20
32.6971
0
VERTEX
8
0
10
40.8168
20
32.6931
0
VERTEX
8
0
10
42.6672
20
32.6189
0
VERTEX
8
0
10
44.0687
20
32.3058
0
VERTEX
8
0
10
48.6825
20
32.4785
0
VERTEX
8
0
10
49.4615
20
32.4446
0
VERTEX
8
0
10
50.9501
20
32.4518
0
VERTEX
8
0
10
54.9561
20
32.4662
0
VERTEX
8
0
10
57.9891
20
32.3402
0
VERTEX
8
0
10
59.8879
20
32.2829
0
VERTEX
8
0
10
63.5555
20
32.1709
0
VERTEX
8
0
10
75.652
20
31.8769
0
VERTEX
8
0
10
84.2505
20
31.522
0
VERTEX
8
0
10
87.0438
20
31.7437
0
VERTEX
8
0
10
97.715
20
32.3287
0
VERTEX
8
0
10
97.9801
20
32.3428
0
VERTEX
8
0
10
98.7745
20
32.3661
0
VERTEX
8
0
10
103.936
20
32.5369
0
VERTEX
8
0
10
105.624
20
32.8335
0
VERTEX
8
0
10
106.998
20
33.1187
0
VERTEX
8
0
10
112.978
20
34.2485
0
VERTEX
8
0
10
121.522
20
35.8818
0
VERTEX
8
0
10
130.185
20
35.9796
0
VERTEX
8
0
10
132.253
20
35.9982
0
VERTEX
8
0
10
133.395
20
35.4596
0
VERTEX
8
0
10
139.68
20
32.7968
0
VERTEX
8
0
10
139.678
20
32.7891
0
VERTEX
8
0
10
137.389
20
22.5123
0
VERTEX
8
0
10
136.797
20
21.6617
0
SEQEND
0
TEXT
8
0
10
87.8624
20
20.2518
40
5
1
37.1
0
ENDSEC
0
EOF
