999
Creator: CLJ++
0
SECTION
2
HEADER
9
$ACADVER
1
AC1009
9
$EXTMIN
10
0
20
0
9
$EXTMAX
10
175
20
37
9
$LIMMIN
10
0
20
0
9
$LIMMAX
10
175
20
37
0
ENDSEC
0
SECTION
2
TABLES
0
TABLE
2
VPORT
70
1
0
VPORT
2
*Active
70
0
10
0
20
0
11
1
21
1
12
87.5
22
18.5
13
0
23
0
14
0.5
24
0.5
15
0.5
25
0.5
16
0
26
0
36
1
17
0
27
0
37
0
40
37
41
1
42
50
43
0
44
0
50
0
51
0
71
0
72
1
73
1
74
3
75
0
76
0
77
0
78
0
0
ENDTAB
0
TABLE
2
LTYPE
70
1
0
LTYPE
2
CONTINUOUS
70
0
3
Solid line
72
65
73
0
40
0
0
ENDTAB
0
TABLE
2
LAYER
70
1
0
LAYER
2
0
70
0
62
255
6
CONTINUOUS
0
ENDTAB
0
ENDSEC
0
SECTION
2
ENTITIES
0
POLYLINE
8
0
10
0
20
0
66
1
70
1
62
1
0
VERTEX
8
0
10
111.332
20
23.7323
0
VERTEX
8
0
10
113.034
20
23.9304
0
VERTEX
8
0
10
113.21
20
23.9322
0
VERTEX
8
0
10
121.392
20
24.7814
0
VERTEX
8
0
10
125.141
20
25.196
0
VERTEX
8
0
10
124.757
20
25.3088
0
VERTEX
8
0
10
126.41
20
26.0052
0
VERTEX
8
0
10
122.526
20
25.1809
0
VERTEX
8
0
10
122.062
20
25.0986
0
VERTEX
8
0
10
73.2983
20
21.9168
0
SEQEND
0
POLYLINE
8
0
10
0
20
0
66
1
70
1
62
1
0
VERTEX
8
0
10
50.925
20
32.9659
0
VERTEX
8
0
10
53.7326
20
33.0469
0
VERTEX
8
0
10
64.3183
20
32.6066
0
VERTEX
8
0
10
73.7038
20
32.3978
0
VERTEX
8
0
10
81.3791
20
31.9466
0
VERTEX
8
0
10
85.4766
20
31.6094
0
VERTEX
8
0
10
91.4858
20
31.7467
0
VERTEX
8
0
10
94.6508
20
31.9844
0
VERTEX
8
0
10
96.5692
20
32.0557
0
VERTEX
8
0
10
97.7133
20
32.079
0
VERTEX
8
0
10
98.2037
20
32.0677
0
VERTEX
8
0
10
98.6771
20
32.0567
0
VERTEX
8
0
10
99.6065
20
32.2051
0
VERTEX
8
0
10
101.658
20
32.3028
0
VERTEX
8
0
10
102.695
20
32.3506
0
VERTEX
8
0
10
120.25
20
35.4297
0
VERTEX
8
0
10
120.591
20
35.4897
0
VERTEX
8
0
10
120.798
20
35.5327
0
VERTEX
8
0
10
130.261
20
35.7001
0
VERTEX
8
0
10
131.149
20
35.7119
0
VERTEX
8
0
10
134.415
20
34.3405
0
VERTEX
8
0
10
139.133
20
32.38
0
VERTEX
8
0
10
138.306
20
28.7064
0
VERTEX
8
0
10
137.87
20
26.7397
0
VERTEX
8
0
10
136.771
20
21.9959
0
VERTEX
8
0
10
134.424
20
19.4216
0
VERTEX
8
0
10
132.662
20
17.8482
0
VERTEX
8
0
10
131.727
20
16.9638
0
VERTEX
8
0
10
129.159
20
15.7885
0
VERTEX
8
0
10
127.36
20
14.9444
0
VERTEX
8
0
10
122.535
20
14.355
0
VERTEX
8
0
10
114.241
20
13.5067
0
VERTEX
8
0
10
114.109
20
13.4819
0
VERTEX
8
0
10
113.964
20
13.4829
0
VERTEX
8
0
10
113.083
20
13.3906
0
VERTEX
8
0
10
108.925
20
12.6297
0
VERTEX
8
0
10
105.344
20
11.9469
0
VERTEX
8
0
10
103.989
20
11.711
0
VERTEX
8
0
10
103.745
20
11.6023
0
VERTEX
8
0
10
102.637
20
11.1411
0
VERTEX
8
0
10
101.855
20
11.4729
0
VERTEX
8
0
10
101.709
20
11.5569
0
VERTEX
8
0
10
100.528
20
11.5935
0
VERTEX
8
0
10
97.1387
20
11.8124
0
VERTEX
8
0
10
94.2874
20
12.0155
0
VERTEX
8
0
10
92.6009
20
12.0988
0
VERTEX
8
0
10
92.3422
20
11.9963
0
VERTEX
8
0
10
91.5339
20
11.6229
0
VERTEX
8
0
10
90.6063
20
11.8451
0
VERTEX
8
0
10
90.2556
20
11.9291
0
VERTEX
8
0
10
82.8232
20
13.5214
0
VERTEX
8
0
10
63.0125
20
17.6425
0
VERTEX
8
0
10
62.4412
20
17.6021
0
VERTEX
8
0
10
60.2191
20
17.7533
0
VERTEX
8
0
10
54.7285
20
17.1698
0
VERTEX
8
0
10
53.0019
20
17.3015
0
VERTEX
8
0
10
51.4679
20
17.2407
0
VERTEX
8
0
10
44.491
20
17.7252
0
VERTEX
8
0
10
40.4379
20
18.213
0
VERTEX
8
0
10
39.545
20
18.1899
0
VERTEX
8
0
10
38.6167
20
18.1569
0
VERTEX
8
0
10
35.8941
20
18.534
0
VERTEX
8
0
10
31.5795
20
19.7247
0
VERTEX
8
0
10
28.8959
20
20.4598
0
VERTEX
8
0
10
27.7516
20
21.1543
0
VERTEX
8
0
10
25.2222
20
23.7552
0
VERTEX
8
0
10
24.5765
20
24.7733
0
VERTEX
8
0
10
23.8731
20
25.4515
0
VERTEX
8
0
10
22.7325
20
28.3253
0
VERTEX
8
0
10
21.7021
20
30.9361
0
VERTEX
8
0
10
23.3774
20
31.8717
0
VERTEX
8
0
10
24.0671
20
32.243
0
VERTEX
8
0
10
25.853
20
33.2119
0
VERTEX
8
0
10
27.9719
20
34.5273
0
VERTEX
8
0
10
28.5151
20
34.842
0
VERTEX
8
0
10
28.7171
20
34.9824
0
VERTEX
8
0
10
29.166
20
35.3254
0
VERTEX
8
0
10
31.1191
20
35.7422
0
VERTEX
8
0
10
33.0064
20
36.2462
0
VERTEX
8
0
10
34.5312
20
35.7212
0
VERTEX
8
0
10
37.4
20
34.7574
0
VERTEX
8
0
10
39.8663
20
34.3706
0
VERTEX
8
0
10
43.1478
20
33.9358
0
VERTEX
8
0
10
45.6803
20
33.3858
0
VERTEX
8
0
10
46.9701
20
33.2064
0
VERTEX
8
0
10
47.7482
20
33.0724
0
VERTEX
8
0
10
48.2951
20
33.0713
0
SEQEND
0
TEXT
8
0
10
35.4728
20
23.0567
40
5
1
38.1
0
ENDSEC
0
EOF
