999
Creator: CLJ++
0
SECTION
2
HEADER
9
$ACADVER
1
AC1009
9
$EXTMIN
10
0
20
0
9
$EXTMAX
10
175
20
37
9
$LIMMIN
10
0
20
0
9
$LIMMAX
10
175
20
37
0
ENDSEC
0
SECTION
2
TABLES
0
TABLE
2
VPORT
70
1
0
VPORT
2
*Active
70
0
10
0
20
0
11
1
21
1
12
87.5
22
18.5
13
0
23
0
14
0.5
24
0.5
15
0.5
25
0.5
16
0
26
0
36
1
17
0
27
0
37
0
40
37
41
1
42
50
43
0
44
0
50
0
51
0
71
0
72
1
73
1
74
3
75
0
76
0
77
0
78
0
0
ENDTAB
0
TABLE
2
LTYPE
70
1
0
LTYPE
2
CONTINUOUS
70
0
3
Solid line
72
65
73
0
40
0
0
ENDTAB
0
TABLE
2
LAYER
70
1
0
LAYER
2
0
70
0
62
255
6
CONTINUOUS
0
ENDTAB
0
ENDSEC
0
SECTION
2
ENTITIES
0
POLYLINE
8
0
10
0
20
0
66
1
70
1
62
1
0
VERTEX
8
0
10
124.33
20
24.6327
0
VERTEX
8
0
10
124.046
20
24.4132
0
VERTEX
8
0
10
121.502
20
24.2319
0
VERTEX
8
0
10
112.949
20
23.4443
0
VERTEX
8
0
10
111.795
20
23.2969
0
VERTEX
8
0
10
110.068
20
22.9674
0
VERTEX
8
0
10
101.337
20
21.6527
0
VERTEX
8
0
10
102.54
20
21.9811
0
VERTEX
8
0
10
106.469
20
22.6581
0
VERTEX
8
0
10
108.073
20
22.8793
0
VERTEX
8
0
10
112.756
20
23.5951
0
VERTEX
8
0
10
115.682
20
24.0783
0
VERTEX
8
0
10
118.936
20
24.6373
0
VERTEX
8
0
10
120.733
20
25.006
0
SEQEND
0
POLYLINE
8
0
10
0
20
0
66
1
70
1
62
1
0
VERTEX
8
0
10
135.419
20
20.7326
0
VERTEX
8
0
10
134.887
20
20.2576
0
VERTEX
8
0
10
133.636
20
19.0734
0
VERTEX
8
0
10
130.988
20
16.433
0
VERTEX
8
0
10
129.142
20
15.5648
0
VERTEX
8
0
10
126.549
20
14.353
0
VERTEX
8
0
10
122.507
20
13.9138
0
VERTEX
8
0
10
113.904
20
13.1215
0
VERTEX
8
0
10
113.617
20
13.0913
0
VERTEX
8
0
10
111.877
20
12.7595
0
VERTEX
8
0
10
104.144
20
11.4129
0
VERTEX
8
0
10
102.752
20
10.7924
0
VERTEX
8
0
10
102.686
20
10.765
0
VERTEX
8
0
10
102.64
20
10.7847
0
VERTEX
8
0
10
101.873
20
11.2274
0
VERTEX
8
0
10
95.6444
20
11.4206
0
VERTEX
8
0
10
93.6341
20
11.5504
0
VERTEX
8
0
10
92.9151
20
11.34
0
VERTEX
8
0
10
92.5556
20
11.1735
0
VERTEX
8
0
10
91.7988
20
11.3257
0
VERTEX
8
0
10
91.2862
20
11.4465
0
VERTEX
8
0
10
84.3045
20
12.6223
0
VERTEX
8
0
10
63.1005
20
17.0332
0
VERTEX
8
0
10
61.6617
20
16.9314
0
VERTEX
8
0
10
60.6476
20
17.0004
0
VERTEX
8
0
10
58.1418
20
16.7341
0
VERTEX
8
0
10
53.6805
20
17.0746
0
VERTEX
8
0
10
49.7172
20
16.9174
0
VERTEX
8
0
10
42.4514
20
17.422
0
VERTEX
8
0
10
40.299
20
17.7915
0
VERTEX
8
0
10
38.0838
20
18.4053
0
VERTEX
8
0
10
32.8041
20
19.8775
0
VERTEX
8
0
10
30.4584
20
21.6559
0
VERTEX
8
0
10
29.356
20
23.0426
0
VERTEX
8
0
10
28.4982
20
23.9417
0
VERTEX
8
0
10
26.7958
20
30.1988
0
VERTEX
8
0
10
26.755
20
30.3403
0
VERTEX
8
0
10
26.8001
20
30.3664
0
VERTEX
8
0
10
28.676
20
31.6702
0
VERTEX
8
0
10
29.4822
20
32.2863
0
VERTEX
8
0
10
31.8503
20
34.3295
0
VERTEX
8
0
10
32.2586
20
34.6532
0
VERTEX
8
0
10
32.7402
20
35.118
0
VERTEX
8
0
10
35.0031
20
35.8324
0
VERTEX
8
0
10
36.8802
20
36.4255
0
VERTEX
8
0
10
37.5498
20
36.2109
0
VERTEX
8
0
10
38.147
20
36.0067
0
VERTEX
8
0
10
41.617
20
35.2069
0
VERTEX
8
0
10
47.3466
20
34.3407
0
VERTEX
8
0
10
49.2276
20
34.0008
0
VERTEX
8
0
10
49.7426
20
33.92
0
VERTEX
8
0
10
51.0232
20
33.7503
0
VERTEX
8
0
10
53.6589
20
33.6917
0
VERTEX
8
0
10
54.5473
20
33.6395
0
VERTEX
8
0
10
56.5937
20
33.4711
0
VERTEX
8
0
10
72.4051
20
32.3697
0
VERTEX
8
0
10
87.2206
20
31.5047
0
VERTEX
8
0
10
91.2236
20
31.6535
0
VERTEX
8
0
10
95.12
20
31.7327
0
VERTEX
8
0
10
96.7902
20
31.6942
0
VERTEX
8
0
10
98.4025
20
31.6568
0
VERTEX
8
0
10
98.9927
20
31.7511
0
VERTEX
8
0
10
100.545
20
32.1543
0
VERTEX
8
0
10
104.8
20
32.8897
0
VERTEX
8
0
10
106.544
20
33.1328
0
VERTEX
8
0
10
111.143
20
33.8357
0
VERTEX
8
0
10
113.957
20
34.3007
0
VERTEX
8
0
10
117.204
20
34.8584
0
VERTEX
8
0
10
120.202
20
35.3593
0
VERTEX
8
0
10
126.327
20
35.3262
0
VERTEX
8
0
10
130.732
20
35.3697
0
VERTEX
8
0
10
135.23
20
33.4547
0
VERTEX
8
0
10
138.59
20
32.0184
0
VERTEX
8
0
10
137.566
20
27.7129
0
VERTEX
8
0
10
136.128
20
21.5098
0
SEQEND
0
TEXT
8
0
10
81.7735
20
19.3226
40
5
1
39.1
0
ENDSEC
0
EOF
