999
Creator: CLJ++
0
SECTION
2
HEADER
9
$ACADVER
1
AC1009
9
$EXTMIN
10
0
20
0
9
$EXTMAX
10
175
20
37
9
$LIMMIN
10
0
20
0
9
$LIMMAX
10
175
20
37
0
ENDSEC
0
SECTION
2
TABLES
0
TABLE
2
VPORT
70
1
0
VPORT
2
*Active
70
0
10
0
20
0
11
1
21
1
12
87.5
22
18.5
13
0
23
0
14
0.5
24
0.5
15
0.5
25
0.5
16
0
26
0
36
1
17
0
27
0
37
0
40
37
41
1
42
50
43
0
44
0
50
0
51
0
71
0
72
1
73
1
74
3
75
0
76
0
77
0
78
0
0
ENDTAB
0
TABLE
2
LTYPE
70
1
0
LTYPE
2
CONTINUOUS
70
0
3
Solid line
72
65
73
0
40
0
0
ENDTAB
0
TABLE
2
LAYER
70
1
0
LAYER
2
0
70
0
62
255
6
CONTINUOUS
0
ENDTAB
0
ENDSEC
0
SECTION
2
ENTITIES
0
POLYLINE
8
0
10
0
20
0
66
1
70
1
62
1
0
VERTEX
8
0
10
77.9036
20
23.8258
0
VERTEX
8
0
10
86.601
20
22.3637
0
VERTEX
8
0
10
91.9658
20
21.5049
0
VERTEX
8
0
10
94.5602
20
21.3131
0
VERTEX
8
0
10
98.5962
20
21.1909
0
VERTEX
8
0
10
109.356
20
22.3572
0
VERTEX
8
0
10
112.828
20
22.9323
0
VERTEX
8
0
10
123.773
20
23.6832
0
VERTEX
8
0
10
125.1
20
25.0077
0
VERTEX
8
0
10
122.936
20
25.0824
0
VERTEX
8
0
10
119.955
20
25.1093
0
VERTEX
8
0
10
117.117
20
24.6932
0
VERTEX
8
0
10
101.527
20
21.9981
0
VERTEX
8
0
10
100.832
20
21.8522
0
VERTEX
8
0
10
99.313
20
21.7364
0
VERTEX
8
0
10
97.6985
20
21.7222
0
SEQEND
0
POLYLINE
8
0
10
0
20
0
66
1
70
1
62
1
0
VERTEX
8
0
10
61.2285
20
16.2852
0
VERTEX
8
0
10
60.7531
20
16.3273
0
VERTEX
8
0
10
60.1002
20
16.4095
0
VERTEX
8
0
10
54.3592
20
16.8477
0
VERTEX
8
0
10
48.4254
20
16.6123
0
VERTEX
8
0
10
48.1633
20
16.6192
0
VERTEX
8
0
10
47.9246
20
16.6413
0
VERTEX
8
0
10
42.4641
20
17.5787
0
VERTEX
8
0
10
37.6666
20
18.908
0
VERTEX
8
0
10
36.7965
20
19.2738
0
VERTEX
8
0
10
36.3063
20
19.4987
0
VERTEX
8
0
10
32.8562
20
21.8005
0
VERTEX
8
0
10
32.0989
20
22.306
0
VERTEX
8
0
10
30.6118
20
28.9939
0
VERTEX
8
0
10
30.4422
20
29.6697
0
VERTEX
8
0
10
30.7412
20
29.9068
0
VERTEX
8
0
10
31.0824
20
30.236
0
VERTEX
8
0
10
33.9406
20
32.8714
0
VERTEX
8
0
10
36.2631
20
35.2688
0
VERTEX
8
0
10
37.0271
20
35.5014
0
VERTEX
8
0
10
37.4427
20
35.6209
0
VERTEX
8
0
10
38.5845
20
36.1261
0
VERTEX
8
0
10
39.152
20
36.355
0
VERTEX
8
0
10
39.5301
20
36.479
0
VERTEX
8
0
10
40.7815
20
36.2523
0
VERTEX
8
0
10
44.6493
20
35.652
0
VERTEX
8
0
10
51.1363
20
34.366
0
VERTEX
8
0
10
61.1958
20
33.8774
0
VERTEX
8
0
10
73.4674
20
33.2609
0
VERTEX
8
0
10
98.2152
20
31.9541
0
VERTEX
8
0
10
98.9414
20
31.9746
0
VERTEX
8
0
10
99.4052
20
31.9973
0
VERTEX
8
0
10
99.7626
20
32.0901
0
VERTEX
8
0
10
115.436
20
34.7993
0
VERTEX
8
0
10
119.235
20
35.3289
0
VERTEX
8
0
10
122.929
20
35.3274
0
VERTEX
8
0
10
129.87
20
35.3363
0
VERTEX
8
0
10
132.309
20
34.2912
0
VERTEX
8
0
10
138.037
20
31.783
0
VERTEX
8
0
10
137.491
20
29.4943
0
VERTEX
8
0
10
135.532
20
20.9448
0
VERTEX
8
0
10
132.572
20
17.9906
0
VERTEX
8
0
10
130.319
20
15.8024
0
VERTEX
8
0
10
129.446
20
15.394
0
VERTEX
8
0
10
125.765
20
13.6434
0
VERTEX
8
0
10
125.744
20
13.6339
0
VERTEX
8
0
10
125.742
20
13.6326
0
VERTEX
8
0
10
125.712
20
13.6304
0
VERTEX
8
0
10
113.771
20
12.7308
0
VERTEX
8
0
10
111.298
20
12.2979
0
VERTEX
8
0
10
104.319
20
10.9059
0
VERTEX
8
0
10
103.199
20
10.446
0
VERTEX
8
0
10
102.871
20
10.2974
0
VERTEX
8
0
10
102.674
20
10.4151
0
VERTEX
8
0
10
102.057
20
10.7225
0
VERTEX
8
0
10
98.1156
20
10.9572
0
VERTEX
8
0
10
94.6811
20
11.0689
0
VERTEX
8
0
10
94.1484
20
10.9104
0
VERTEX
8
0
10
93.5693
20
10.6794
0
VERTEX
8
0
10
92.8326
20
10.8392
0
VERTEX
8
0
10
92.3143
20
10.9521
0
VERTEX
8
0
10
90.1845
20
11.416
0
VERTEX
8
0
10
84.9307
20
12.2558
0
VERTEX
8
0
10
75.9747
20
13.764
0
VERTEX
8
0
10
63.1884
20
16.4238
0
SEQEND
0
TEXT
8
0
10
41.0559
20
23.2786
40
5
1
40.1
0
ENDSEC
0
EOF
