999
Creator: CLJ++
0
SECTION
2
HEADER
9
$ACADVER
1
AC1009
9
$EXTMIN
10
0
20
0
9
$EXTMAX
10
175
20
37
9
$LIMMIN
10
0
20
0
9
$LIMMAX
10
175
20
37
0
ENDSEC
0
SECTION
2
TABLES
0
TABLE
2
VPORT
70
1
0
VPORT
2
*Active
70
0
10
0
20
0
11
1
21
1
12
87.5
22
18.5
13
0
23
0
14
0.5
24
0.5
15
0.5
25
0.5
16
0
26
0
36
1
17
0
27
0
37
0
40
37
41
1
42
50
43
0
44
0
50
0
51
0
71
0
72
1
73
1
74
3
75
0
76
0
77
0
78
0
0
ENDTAB
0
TABLE
2
LTYPE
70
1
0
LTYPE
2
CONTINUOUS
70
0
3
Solid line
72
65
73
0
40
0
0
ENDTAB
0
TABLE
2
LAYER
70
1
0
LAYER
2
0
70
0
62
255
6
CONTINUOUS
0
ENDTAB
0
ENDSEC
0
SECTION
2
ENTITIES
0
POLYLINE
8
0
10
0
20
0
66
1
70
1
62
1
0
VERTEX
8
0
10
88.5535
20
21.7879
0
VERTEX
8
0
10
95.4997
20
20.7547
0
VERTEX
8
0
10
99.9633
20
20.5131
0
VERTEX
8
0
10
108.773
20
21.7446
0
VERTEX
8
0
10
112.529
20
22.4486
0
VERTEX
8
0
10
120.416
20
23.024
0
VERTEX
8
0
10
122.285
20
22.9869
0
VERTEX
8
0
10
124.131
20
24.0527
0
VERTEX
8
0
10
123.603
20
23.565
0
VERTEX
8
0
10
125.324
20
25.1308
0
VERTEX
8
0
10
126.019
20
25.0651
0
VERTEX
8
0
10
125.143
20
25.4795
0
VERTEX
8
0
10
118.298
20
25.4051
0
VERTEX
8
0
10
115.253
20
24.8383
0
VERTEX
8
0
10
100.707
20
22.3968
0
VERTEX
8
0
10
93.6627
20
22.6142
0
VERTEX
8
0
10
78.6909
20
23.376
0
SEQEND
0
POLYLINE
8
0
10
0
20
0
66
1
70
1
62
1
0
VERTEX
8
0
10
62.6067
20
15.7672
0
VERTEX
8
0
10
59.169
20
16.0717
0
VERTEX
8
0
10
55.535
20
16.529
0
VERTEX
8
0
10
54.7832
20
16.6676
0
VERTEX
8
0
10
50.2618
20
16.7864
0
VERTEX
8
0
10
45.3574
20
17.241
0
VERTEX
8
0
10
44.6292
20
17.366
0
VERTEX
8
0
10
43.9893
20
17.5433
0
VERTEX
8
0
10
37.6275
20
20.2178
0
VERTEX
8
0
10
36.4101
20
20.7764
0
VERTEX
8
0
10
35.0314
20
24.7104
0
VERTEX
8
0
10
34.4128
20
27.2003
0
VERTEX
8
0
10
33.9662
20
29.3829
0
VERTEX
8
0
10
35.887
20
31.3278
0
VERTEX
8
0
10
36.905
20
32.5928
0
VERTEX
8
0
10
38.2478
20
33.9624
0
VERTEX
8
0
10
38.8934
20
35.2388
0
VERTEX
8
0
10
39.4071
20
35.4068
0
VERTEX
8
0
10
44.0069
20
36.2098
0
VERTEX
8
0
10
47.2181
20
35.6615
0
VERTEX
8
0
10
51.0001
20
34.9779
0
VERTEX
8
0
10
76.1583
20
33.641
0
VERTEX
8
0
10
94.171
20
32.7245
0
VERTEX
8
0
10
99.6195
20
32.4613
0
VERTEX
8
0
10
113.564
20
34.8195
0
VERTEX
8
0
10
117.608
20
35.5046
0
VERTEX
8
0
10
125.002
20
35.6016
0
VERTEX
8
0
10
128.729
20
35.6591
0
VERTEX
8
0
10
134.54
20
33.3051
0
VERTEX
8
0
10
137.458
20
32.1476
0
VERTEX
8
0
10
135.875
20
24.727
0
VERTEX
8
0
10
134.986
20
20.3673
0
VERTEX
8
0
10
132.189
20
17.6916
0
VERTEX
8
0
10
129.668
20
15.4601
0
VERTEX
8
0
10
128.464
20
14.9038
0
VERTEX
8
0
10
124.928
20
13.2148
0
VERTEX
8
0
10
121.158
20
12.9282
0
VERTEX
8
0
10
113.593
20
12.3817
0
VERTEX
8
0
10
110.866
20
11.8403
0
VERTEX
8
0
10
104.526
20
10.4657
0
VERTEX
8
0
10
103.379
20
10.0457
0
VERTEX
8
0
10
103.035
20
9.90537
0
VERTEX
8
0
10
102.832
20
10.0037
0
VERTEX
8
0
10
102.269
20
10.2477
0
VERTEX
8
0
10
99.3649
20
10.4077
0
VERTEX
8
0
10
95.7378
20
10.6344
0
VERTEX
8
0
10
94.9255
20
10.3033
0
VERTEX
8
0
10
94.6146
20
10.1735
0
VERTEX
8
0
10
93.4638
20
10.3875
0
VERTEX
8
0
10
93.3327
20
10.4096
0
VERTEX
8
0
10
93.0163
20
10.4727
0
VERTEX
8
0
10
92.7676
20
10.5181
0
VERTEX
8
0
10
86.8035
20
11.8172
0
VERTEX
8
0
10
70.7049
20
14.3905
0
VERTEX
8
0
10
67.645
20
14.9058
0
VERTEX
8
0
10
63.2763
20
15.8145
0
SEQEND
0
TEXT
8
0
10
44.7396
20
22.9576
40
5
1
41.1
0
ENDSEC
0
EOF
