999
Creator: CLJ++
0
SECTION
2
HEADER
9
$ACADVER
1
AC1009
9
$EXTMIN
10
0
20
0
9
$EXTMAX
10
175
20
37
9
$LIMMIN
10
0
20
0
9
$LIMMAX
10
175
20
37
0
ENDSEC
0
SECTION
2
TABLES
0
TABLE
2
VPORT
70
1
0
VPORT
2
*Active
70
0
10
0
20
0
11
1
21
1
12
87.5
22
18.5
13
0
23
0
14
0.5
24
0.5
15
0.5
25
0.5
16
0
26
0
36
1
17
0
27
0
37
0
40
37
41
1
42
50
43
0
44
0
50
0
51
0
71
0
72
1
73
1
74
3
75
0
76
0
77
0
78
0
0
ENDTAB
0
TABLE
2
LTYPE
70
1
0
LTYPE
2
CONTINUOUS
70
0
3
Solid line
72
65
73
0
40
0
0
ENDTAB
0
TABLE
2
LAYER
70
1
0
LAYER
2
0
70
0
62
255
6
CONTINUOUS
0
ENDTAB
0
ENDSEC
0
SECTION
2
ENTITIES
0
POLYLINE
8
0
10
0
20
0
66
1
70
1
62
1
0
VERTEX
8
0
10
85.1079
20
22.0765
0
VERTEX
8
0
10
89.8337
20
21.0567
0
VERTEX
8
0
10
92.6012
20
20.5528
0
VERTEX
8
0
10
96.1361
20
20.1527
0
VERTEX
8
0
10
99.6369
20
19.9753
0
VERTEX
8
0
10
107.898
20
21.0489
0
VERTEX
8
0
10
112.175
20
21.9349
0
VERTEX
8
0
10
119.133
20
22.4907
0
VERTEX
8
0
10
121.987
20
22.5667
0
VERTEX
8
0
10
122.554
20
23.1694
0
VERTEX
8
0
10
123.598
20
23.5767
0
VERTEX
8
0
10
123.82
20
23.9322
0
VERTEX
8
0
10
115.934
20
25.5697
0
VERTEX
8
0
10
113.88
20
25.1793
0
VERTEX
8
0
10
100.523
20
22.6898
0
VERTEX
8
0
10
90.4969
20
23.1117
0
VERTEX
8
0
10
55.2882
20
26.6415
0
VERTEX
8
0
10
59.6051
20
25.8059
0
VERTEX
8
0
10
59.9708
20
25.7072
0
VERTEX
8
0
10
63.236
20
25.4175
0
VERTEX
8
0
10
64.192
20
25.312
0
VERTEX
8
0
10
64.9762
20
25.2277
0
VERTEX
8
0
10
66.3911
20
25.0688
0
SEQEND
0
POLYLINE
8
0
10
0
20
0
66
1
70
1
62
1
0
VERTEX
8
0
10
64.8383
20
15.1889
0
VERTEX
8
0
10
63.9367
20
15.2808
0
VERTEX
8
0
10
63.1014
20
15.3705
0
VERTEX
8
0
10
62.3016
20
15.4602
0
VERTEX
8
0
10
58.8327
20
15.7711
0
VERTEX
8
0
10
57.7087
20
15.9862
0
VERTEX
8
0
10
53.3993
20
16.8204
0
VERTEX
8
0
10
52.729
20
16.944
0
VERTEX
8
0
10
52.3604
20
16.9537
0
VERTEX
8
0
10
51.8265
20
17.0032
0
VERTEX
8
0
10
45.0289
20
18.4215
0
VERTEX
8
0
10
42.8361
20
19.1838
0
VERTEX
8
0
10
41.5246
20
19.7395
0
VERTEX
8
0
10
38.9175
20
23.8581
0
VERTEX
8
0
10
38.222
20
26.6053
0
VERTEX
8
0
10
37.4313
20
28.9831
0
VERTEX
8
0
10
38.3298
20
29.8996
0
VERTEX
8
0
10
38.5242
20
30.284
0
VERTEX
8
0
10
39.622
20
31.1227
0
VERTEX
8
0
10
40.0927
20
32.3423
0
VERTEX
8
0
10
41.1986
20
34.9595
0
VERTEX
8
0
10
43.7417
20
35.1358
0
VERTEX
8
0
10
47.3666
20
35.4714
0
VERTEX
8
0
10
48.4698
20
35.5638
0
VERTEX
8
0
10
49.4381
20
35.7329
0
VERTEX
8
0
10
50.5648
20
35.5405
0
VERTEX
8
0
10
91.0854
20
33.0955
0
VERTEX
8
0
10
99.6143
20
32.6496
0
VERTEX
8
0
10
112.013
20
35.0047
0
VERTEX
8
0
10
114.243
20
35.4283
0
VERTEX
8
0
10
115.382
20
35.6184
0
VERTEX
8
0
10
126.253
20
35.7906
0
VERTEX
8
0
10
126.883
20
35.8004
0
VERTEX
8
0
10
127.248
20
35.8058
0
VERTEX
8
0
10
127.918
20
35.5624
0
VERTEX
8
0
10
136.972
20
32.2938
0
VERTEX
8
0
10
134.528
20
20.0903
0
VERTEX
8
0
10
134.522
20
20.0605
0
VERTEX
8
0
10
134.517
20
20.0369
0
VERTEX
8
0
10
130.449
20
16.4441
0
VERTEX
8
0
10
129.032
20
15.1803
0
VERTEX
8
0
10
126.993
20
14.2074
0
VERTEX
8
0
10
124.301
20
12.8369
0
VERTEX
8
0
10
119.89
20
12.5183
0
VERTEX
8
0
10
113.401
20
12.0092
0
VERTEX
8
0
10
110.243
20
11.3266
0
VERTEX
8
0
10
104.697
20
9.90985
0
VERTEX
8
0
10
103.905
20
9.56506
0
VERTEX
8
0
10
103.499
20
9.41553
0
VERTEX
8
0
10
103.277
20
9.51035
0
VERTEX
8
0
10
102.465
20
9.72183
0
VERTEX
8
0
10
98.8446
20
10.0056
0
VERTEX
8
0
10
96.7888
20
10.1729
0
VERTEX
8
0
10
95.8903
20
9.81238
0
VERTEX
8
0
10
95.7531
20
9.76406
0
VERTEX
8
0
10
95.2127
20
9.86032
0
VERTEX
8
0
10
94.3784
20
10.0012
0
VERTEX
8
0
10
90.7158
20
10.731
0
VERTEX
8
0
10
87.8353
20
11.2572
0
VERTEX
8
0
10
83.4225
20
12.2184
0
SEQEND
0
TEXT
8
0
10
43.0122
20
24.637
40
5
1
42.1
0
ENDSEC
0
EOF
