999
Creator: CLJ++
0
SECTION
2
HEADER
9
$ACADVER
1
AC1009
9
$EXTMIN
10
0
20
0
9
$EXTMAX
10
175
20
37
9
$LIMMIN
10
0
20
0
9
$LIMMAX
10
175
20
37
0
ENDSEC
0
SECTION
2
TABLES
0
TABLE
2
VPORT
70
1
0
VPORT
2
*Active
70
0
10
0
20
0
11
1
21
1
12
87.5
22
18.5
13
0
23
0
14
0.5
24
0.5
15
0.5
25
0.5
16
0
26
0
36
1
17
0
27
0
37
0
40
37
41
1
42
50
43
0
44
0
50
0
51
0
71
0
72
1
73
1
74
3
75
0
76
0
77
0
78
0
0
ENDTAB
0
TABLE
2
LTYPE
70
1
0
LTYPE
2
CONTINUOUS
70
0
3
Solid line
72
65
73
0
40
0
0
ENDTAB
0
TABLE
2
LAYER
70
1
0
LAYER
2
0
70
0
62
255
6
CONTINUOUS
0
ENDTAB
0
ENDSEC
0
SECTION
2
ENTITIES
0
POLYLINE
8
0
10
0
20
0
66
1
70
1
62
1
0
VERTEX
8
0
10
81.7064
20
22.3575
0
VERTEX
8
0
10
84.7908
20
21.6935
0
VERTEX
8
0
10
90.249
20
20.6969
0
VERTEX
8
0
10
93.7253
20
20.0045
0
VERTEX
8
0
10
97.4078
20
19.5264
0
VERTEX
8
0
10
100.644
20
19.3632
0
VERTEX
8
0
10
105.102
20
19.5658
0
VERTEX
8
0
10
111.825
20
21.1618
0
VERTEX
8
0
10
116.838
20
21.5995
0
VERTEX
8
0
10
121.678
20
22.2209
0
VERTEX
8
0
10
121.224
20
22.3204
0
VERTEX
8
0
10
122.84
20
23.0535
0
VERTEX
8
0
10
123.91
20
24.1367
0
VERTEX
8
0
10
125.469
20
25.5266
0
VERTEX
8
0
10
123.741
20
26.3221
0
VERTEX
8
0
10
123.717
20
25.9656
0
VERTEX
8
0
10
120.619
20
25.9245
0
VERTEX
8
0
10
113.226
20
25.8442
0
VERTEX
8
0
10
112.587
20
25.5958
0
VERTEX
8
0
10
102.822
20
23.2641
0
VERTEX
8
0
10
102.197
20
23.1159
0
VERTEX
8
0
10
100.507
20
22.8173
0
VERTEX
8
0
10
98.5727
20
22.8288
0
VERTEX
8
0
10
98.4532
20
22.8379
0
VERTEX
8
0
10
94.8987
20
23.0564
0
VERTEX
8
0
10
60.9288
20
25.2399
0
VERTEX
8
0
10
61.1903
20
25.1861
0
VERTEX
8
0
10
61.2418
20
25.2029
0
VERTEX
8
0
10
63.7202
20
24.925
0
VERTEX
8
0
10
66.2416
20
24.6543
0
VERTEX
8
0
10
69.4465
20
24.3172
0
SEQEND
0
POLYLINE
8
0
10
0
20
0
66
1
70
1
62
1
0
VERTEX
8
0
10
67.9908
20
14.5458
0
VERTEX
8
0
10
65.2147
20
14.8285
0
VERTEX
8
0
10
62.6429
20
15.1047
0
VERTEX
8
0
10
60.1802
20
15.3808
0
VERTEX
8
0
10
59.6398
20
15.4293
0
VERTEX
8
0
10
58.4876
20
15.6498
0
VERTEX
8
0
10
57.1476
20
16.0309
0
VERTEX
8
0
10
56.8545
20
16.1506
0
VERTEX
8
0
10
56.539
20
16.2586
0
VERTEX
8
0
10
56.1951
20
16.3724
0
VERTEX
8
0
10
52.8685
20
17.4638
0
VERTEX
8
0
10
51.4331
20
17.891
0
VERTEX
8
0
10
48.8704
20
18.7076
0
VERTEX
8
0
10
45.883
20
19.4416
0
VERTEX
8
0
10
44.9933
20
20.5099
0
VERTEX
8
0
10
44.2307
20
21.6364
0
VERTEX
8
0
10
42.2586
20
24.2242
0
VERTEX
8
0
10
40.7517
20
27.317
0
VERTEX
8
0
10
41.9166
20
29.5532
0
VERTEX
8
0
10
42.2438
20
30.5345
0
VERTEX
8
0
10
42.9439
20
32.5524
0
VERTEX
8
0
10
43.4373
20
33.5399
0
VERTEX
8
0
10
43.7628
20
34.7103
0
VERTEX
8
0
10
44.7567
20
34.8332
0
VERTEX
8
0
10
45.5105
20
34.8782
0
VERTEX
8
0
10
47.021
20
34.9168
0
VERTEX
8
0
10
48.7603
20
35.022
0
VERTEX
8
0
10
49.2673
20
35.0363
0
VERTEX
8
0
10
50.5957
20
35.1533
0
VERTEX
8
0
10
54.7209
20
35.416
0
VERTEX
8
0
10
55.6202
20
35.472
0
VERTEX
8
0
10
58.3476
20
35.3065
0
VERTEX
8
0
10
61.5628
20
35.0988
0
VERTEX
8
0
10
95.5298
20
32.9154
0
VERTEX
8
0
10
99.0675
20
32.698
0
VERTEX
8
0
10
99.3499
20
32.6774
0
VERTEX
8
0
10
99.6067
20
32.6554
0
VERTEX
8
0
10
99.9226
20
32.7298
0
VERTEX
8
0
10
100.529
20
32.8735
0
VERTEX
8
0
10
110.34
20
35.216
0
VERTEX
8
0
10
112.656
20
35.7069
0
VERTEX
8
0
10
120.495
20
35.8029
0
VERTEX
8
0
10
123.586
20
35.844
0
VERTEX
8
0
10
126.243
20
35.8792
0
VERTEX
8
0
10
135.269
20
32.7858
0
VERTEX
8
0
10
136.418
20
32.3858
0
VERTEX
8
0
10
136.287
20
31.747
0
VERTEX
8
0
10
133.805
20
19.7081
0
VERTEX
8
0
10
132.025
20
18.1356
0
VERTEX
8
0
10
130.501
20
16.7774
0
VERTEX
8
0
10
128.389
20
14.88
0
VERTEX
8
0
10
125.67
20
13.498
0
VERTEX
8
0
10
123.818
20
12.5763
0
VERTEX
8
0
10
117.933
20
11.7811
0
VERTEX
8
0
10
113.507
20
11.4268
0
VERTEX
8
0
10
107.453
20
9.97045
0
VERTEX
8
0
10
104.854
20
9.30635
0
VERTEX
8
0
10
104.016
20
9.03439
0
VERTEX
8
0
10
103.755
20
8.92139
0
VERTEX
8
0
10
103.463
20
8.99599
0
VERTEX
8
0
10
102.655
20
9.17757
0
VERTEX
8
0
10
99.6696
20
9.53224
0
VERTEX
8
0
10
97.8286
20
9.65615
0
VERTEX
8
0
10
97.2687
20
9.42988
0
VERTEX
8
0
10
96.8385
20
9.27756
0
VERTEX
8
0
10
95.5991
20
9.50487
0
VERTEX
8
0
10
95.4134
20
9.53997
0
VERTEX
8
0
10
95.1484
20
9.59878
0
VERTEX
8
0
10
91.7272
20
10.3294
0
VERTEX
8
0
10
88.4153
20
10.9894
0
VERTEX
8
0
10
82.903
20
11.9963
0
VERTEX
8
0
10
80.0415
20
12.6196
0
SEQEND
0
TEXT
8
0
10
44.3366
20
25.9129
40
5
1
43.1
0
ENDSEC
0
EOF
