999
Creator: CLJ++
0
SECTION
2
HEADER
9
$ACADVER
1
AC1009
9
$EXTMIN
10
0
20
0
9
$EXTMAX
10
175
20
37
9
$LIMMIN
10
0
20
0
9
$LIMMAX
10
175
20
37
0
ENDSEC
0
SECTION
2
TABLES
0
TABLE
2
VPORT
70
1
0
VPORT
2
*Active
70
0
10
0
20
0
11
1
21
1
12
87.5
22
18.5
13
0
23
0
14
0.5
24
0.5
15
0.5
25
0.5
16
0
26
0
36
1
17
0
27
0
37
0
40
37
41
1
42
50
43
0
44
0
50
0
51
0
71
0
72
1
73
1
74
3
75
0
76
0
77
0
78
0
0
ENDTAB
0
TABLE
2
LTYPE
70
1
0
LTYPE
2
CONTINUOUS
70
0
3
Solid line
72
65
73
0
40
0
0
ENDTAB
0
TABLE
2
LAYER
70
1
0
LAYER
2
0
70
0
62
255
6
CONTINUOUS
0
ENDTAB
0
ENDSEC
0
SECTION
2
ENTITIES
0
POLYLINE
8
0
10
0
20
0
66
1
70
1
62
1
0
VERTEX
8
0
10
78.3049
20
22.6385
0
VERTEX
8
0
10
79.7692
20
22.3255
0
VERTEX
8
0
10
87.9
20
20.8403
0
VERTEX
8
0
10
90.2181
20
20.3789
0
VERTEX
8
0
10
92.5231
20
19.8868
0
VERTEX
8
0
10
95.3133
20
19.2645
0
VERTEX
8
0
10
99.3594
20
18.8278
0
VERTEX
8
0
10
100.827
20
18.6797
0
VERTEX
8
0
10
111.547
20
20.1789
0
VERTEX
8
0
10
116.042
20
21.0857
0
VERTEX
8
0
10
120.465
20
21.725
0
VERTEX
8
0
10
122.641
20
22.7857
0
VERTEX
8
0
10
121.737
20
22.3725
0
VERTEX
8
0
10
124.178
20
24.387
0
VERTEX
8
0
10
123.394
20
26.5172
0
VERTEX
8
0
10
118.444
20
26.1997
0
VERTEX
8
0
10
117.841
20
26.1632
0
VERTEX
8
0
10
115.844
20
26.0309
0
VERTEX
8
0
10
110.5
20
25.7211
0
VERTEX
8
0
10
109.554
20
25.4107
0
VERTEX
8
0
10
104.706
20
24.2525
0
VERTEX
8
0
10
99.2987
20
23.2547
0
VERTEX
8
0
10
88.5714
20
24.4254
0
VERTEX
8
0
10
77.0712
20
25.6593
0
VERTEX
8
0
10
66.4493
20
26.5416
0
VERTEX
8
0
10
61.4974
20
26.0804
0
VERTEX
8
0
10
60.872
20
25.7309
0
VERTEX
8
0
10
62.0894
20
25.2224
0
VERTEX
8
0
10
62.9216
20
25
0
VERTEX
8
0
10
64.2015
20
24.6702
0
VERTEX
8
0
10
67.3404
20
24.0781
0
VERTEX
8
0
10
67.4893
20
24.0826
0
VERTEX
8
0
10
72.4325
20
23.5744
0
SEQEND
0
POLYLINE
8
0
10
0
20
0
66
1
70
1
62
1
0
VERTEX
8
0
10
71.1432
20
13.9027
0
VERTEX
8
0
10
66.4927
20
14.3763
0
VERTEX
8
0
10
65.6734
20
14.4643
0
VERTEX
8
0
10
62.1925
20
15.122
0
VERTEX
8
0
10
60.4055
20
15.5727
0
VERTEX
8
0
10
58.9046
20
15.9995
0
VERTEX
8
0
10
57.4536
20
16.592
0
VERTEX
8
0
10
55.8918
20
17.1265
0
VERTEX
8
0
10
54.1896
20
17.6898
0
VERTEX
8
0
10
53.2216
20
18.0073
0
VERTEX
8
0
10
51.3081
20
18.5768
0
VERTEX
8
0
10
50.2241
20
19.7914
0
VERTEX
8
0
10
49.5267
20
20.4504
0
VERTEX
8
0
10
47.0547
20
22.8223
0
VERTEX
8
0
10
44.6524
20
25.724
0
VERTEX
8
0
10
44.4843
20
25.9258
0
VERTEX
8
0
10
44.2885
20
26.215
0
VERTEX
8
0
10
44.4187
20
26.4755
0
VERTEX
8
0
10
44.4504
20
26.5896
0
VERTEX
8
0
10
44.5226
20
26.8442
0
VERTEX
8
0
10
45.9454
20
30.2641
0
VERTEX
8
0
10
46.3388
20
32.0294
0
VERTEX
8
0
10
46.875
20
34.0335
0
VERTEX
8
0
10
47.5135
20
34.19
0
VERTEX
8
0
10
49.4991
20
34.372
0
VERTEX
8
0
10
50.2381
20
34.4609
0
VERTEX
8
0
10
51.1079
20
34.5463
0
VERTEX
8
0
10
60.4073
20
35.7766
0
VERTEX
8
0
10
66.6731
20
36.2963
0
VERTEX
8
0
10
77.9899
20
35.3733
0
VERTEX
8
0
10
89.6331
20
34.1247
0
VERTEX
8
0
10
99.6038
20
33.0072
0
VERTEX
8
0
10
102.371
20
33.7263
0
VERTEX
8
0
10
107.28
20
34.8992
0
VERTEX
8
0
10
109.44
20
35.4207
0
VERTEX
8
0
10
115.244
20
35.7697
0
VERTEX
8
0
10
117.218
20
35.9006
0
VERTEX
8
0
10
118.05
20
35.9491
0
VERTEX
8
0
10
124.605
20
36.1992
0
VERTEX
8
0
10
130.497
20
34.3933
0
VERTEX
8
0
10
135.698
20
32.7096
0
VERTEX
8
0
10
134.255
20
25.45
0
VERTEX
8
0
10
133.589
20
22.1626
0
VERTEX
8
0
10
133.013
20
19.3799
0
VERTEX
8
0
10
128.386
20
15.2313
0
VERTEX
8
0
10
127.727
20
14.4584
0
VERTEX
8
0
10
124.327
20
12.753
0
VERTEX
8
0
10
123.355
20
12.2951
0
VERTEX
8
0
10
117.673
20
11.4658
0
VERTEX
8
0
10
113.608
20
10.6418
0
VERTEX
8
0
10
105.29
20
8.78949
0
VERTEX
8
0
10
105.018
20
8.73038
0
VERTEX
8
0
10
104.828
20
8.68527
0
VERTEX
8
0
10
103.907
20
8.43695
0
VERTEX
8
0
10
102.985
20
8.58575
0
VERTEX
8
0
10
102.841
20
8.61843
0
VERTEX
8
0
10
99.6954
20
8.9882
0
VERTEX
8
0
10
98.8568
20
9.08344
0
VERTEX
8
0
10
98.7822
20
9.0353
0
VERTEX
8
0
10
97.889
20
8.52526
0
VERTEX
8
0
10
96.8262
20
8.77316
0
VERTEX
8
0
10
96.4056
20
8.86975
0
VERTEX
8
0
10
92.9565
20
9.79608
0
VERTEX
8
0
10
90.4447
20
10.3534
0
VERTEX
8
0
10
88.2446
20
10.8233
0
VERTEX
8
0
10
86.1147
20
11.2477
0
VERTEX
8
0
10
77.9706
20
12.7354
0
VERTEX
8
0
10
76.6606
20
13.0208
0
SEQEND
0
TEXT
8
0
10
47.9648
20
24.2975
40
5
1
44.1
0
ENDSEC
0
EOF
