999
Creator: CLJ++
0
SECTION
2
HEADER
9
$ACADVER
1
AC1009
9
$EXTMIN
10
0
20
0
9
$EXTMAX
10
175
20
37
9
$LIMMIN
10
0
20
0
9
$LIMMAX
10
175
20
37
0
ENDSEC
0
SECTION
2
TABLES
0
TABLE
2
VPORT
70
1
0
VPORT
2
*Active
70
0
10
0
20
0
11
1
21
1
12
87.5
22
18.5
13
0
23
0
14
0.5
24
0.5
15
0.5
25
0.5
16
0
26
0
36
1
17
0
27
0
37
0
40
37
41
1
42
50
43
0
44
0
50
0
51
0
71
0
72
1
73
1
74
3
75
0
76
0
77
0
78
0
0
ENDTAB
0
TABLE
2
LTYPE
70
1
0
LTYPE
2
CONTINUOUS
70
0
3
Solid line
72
65
73
0
40
0
0
ENDTAB
0
TABLE
2
LAYER
70
1
0
LAYER
2
0
70
0
62
255
6
CONTINUOUS
0
ENDTAB
0
ENDSEC
0
SECTION
2
ENTITIES
0
POLYLINE
8
0
10
0
20
0
66
1
70
1
62
1
0
VERTEX
8
0
10
85.5607
20
20.9818
0
VERTEX
8
0
10
86.7109
20
20.7534
0
VERTEX
8
0
10
87.7935
20
20.5223
0
VERTEX
8
0
10
89.1996
20
20.2068
0
VERTEX
8
0
10
91.142
20
19.6865
0
VERTEX
8
0
10
93.8107
20
18.9549
0
VERTEX
8
0
10
99.1306
20
17.7901
0
VERTEX
8
0
10
101.534
20
17.6798
0
VERTEX
8
0
10
103.625
20
17.5636
0
VERTEX
8
0
10
107.906
20
18.4061
0
VERTEX
8
0
10
111.725
20
19.279
0
VERTEX
8
0
10
119.121
20
20.7753
0
VERTEX
8
0
10
122.511
20
23.5437
0
VERTEX
8
0
10
122.077
20
26.5603
0
VERTEX
8
0
10
122.739
20
26.7672
0
VERTEX
8
0
10
114.959
20
26.1645
0
VERTEX
8
0
10
108.199
20
24.9445
0
VERTEX
8
0
10
105.415
20
24.5216
0
VERTEX
8
0
10
105.032
20
24.419
0
VERTEX
8
0
10
104.269
20
24.2941
0
VERTEX
8
0
10
99.0574
20
23.4989
0
VERTEX
8
0
10
89.3036
20
24.8284
0
VERTEX
8
0
10
72.2104
20
27.1337
0
VERTEX
8
0
10
63.6465
20
25.1354
0
VERTEX
8
0
10
63.7029
20
25.1126
0
VERTEX
8
0
10
65.114
20
24.8473
0
VERTEX
8
0
10
72.6968
20
23.4402
0
VERTEX
8
0
10
74.719
20
23.018
0
VERTEX
8
0
10
75.0741
20
22.9443
0
VERTEX
8
0
10
74.9442
20
22.9734
0
VERTEX
8
0
10
75.7674
20
22.8246
0
VERTEX
8
0
10
76.9173
20
22.5606
0
SEQEND
0
POLYLINE
8
0
10
0
20
0
66
1
70
1
62
1
0
VERTEX
8
0
10
75.1315
20
13.0922
0
VERTEX
8
0
10
73.7008
20
13.4135
0
VERTEX
8
0
10
73.5509
20
13.4393
0
VERTEX
8
0
10
73.3397
20
13.4663
0
VERTEX
8
0
10
72.7566
20
13.5846
0
VERTEX
8
0
10
70.8954
20
13.9747
0
VERTEX
8
0
10
63.3508
20
15.3746
0
VERTEX
8
0
10
61.7574
20
15.6756
0
VERTEX
8
0
10
61.1618
20
15.8259
0
VERTEX
8
0
10
60.6615
20
15.9681
0
VERTEX
8
0
10
58.0527
20
17.0334
0
VERTEX
8
0
10
57.812
20
17.1158
0
VERTEX
8
0
10
54.7496
20
19.8083
0
VERTEX
8
0
10
53.0367
20
21.4957
0
VERTEX
8
0
10
51.8884
20
22.5638
0
VERTEX
8
0
10
49.7894
20
25.001
0
VERTEX
8
0
10
50.5105
20
27.905
0
VERTEX
8
0
10
50.4919
20
32.7547
0
VERTEX
8
0
10
51.1447
20
33.134
0
VERTEX
8
0
10
51.4082
20
33.2758
0
VERTEX
8
0
10
56.1342
20
34.3259
0
VERTEX
8
0
10
58.8897
20
35.0077
0
VERTEX
8
0
10
72.4017
20
36.7672
0
VERTEX
8
0
10
90.5846
20
34.3782
0
VERTEX
8
0
10
99.597
20
33.1192
0
VERTEX
8
0
10
102.28
20
33.7222
0
VERTEX
8
0
10
103.179
20
33.8745
0
VERTEX
8
0
10
103.827
20
34.0252
0
VERTEX
8
0
10
106.575
20
34.4421
0
VERTEX
8
0
10
113.794
20
35.7291
0
VERTEX
8
0
10
122.662
20
36.4022
0
VERTEX
8
0
10
124.751
20
35.8174
0
VERTEX
8
0
10
134.794
20
32.8987
0
VERTEX
8
0
10
134.268
20
30.3006
0
VERTEX
8
0
10
131.94
20
19.0536
0
VERTEX
8
0
10
130.29
20
17.574
0
VERTEX
8
0
10
127.174
20
13.9186
0
VERTEX
8
0
10
127.046
20
13.7881
0
VERTEX
8
0
10
127.003
20
13.7448
0
VERTEX
8
0
10
126.943
20
13.7141
0
VERTEX
8
0
10
122.814
20
11.8564
0
VERTEX
8
0
10
121.531
20
11.4339
0
VERTEX
8
0
10
113.714
20
9.85112
0
VERTEX
8
0
10
110.014
20
9.00421
0
VERTEX
8
0
10
105.11
20
7.92162
0
VERTEX
8
0
10
104.618
20
7.87543
0
VERTEX
8
0
10
104.2
20
7.8156
0
VERTEX
8
0
10
103.471
20
7.92644
0
VERTEX
8
0
10
103.1
20
7.94249
0
VERTEX
8
0
10
100.814
20
8.07135
0
VERTEX
8
0
10
99.8788
20
8.18386
0
VERTEX
8
0
10
99.0753
20
7.9359
0
VERTEX
8
0
10
98.9699
20
7.86968
0
VERTEX
8
0
10
97.7341
20
8.10051
0
VERTEX
8
0
10
97.3909
20
8.16593
0
VERTEX
8
0
10
91.4453
20
9.61435
0
VERTEX
8
0
10
88.6164
20
10.388
0
VERTEX
8
0
10
86.8589
20
10.8601
0
VERTEX
8
0
10
85.7411
20
11.1081
0
VERTEX
8
0
10
84.762
20
11.3172
0
VERTEX
8
0
10
83.8142
20
11.5061
0
SEQEND
0
TEXT
8
0
10
52.4145
20
24.7491
40
5
1
45.1
0
ENDSEC
0
EOF
