999
Creator: CLJ++
0
SECTION
2
HEADER
9
$ACADVER
1
AC1009
9
$EXTMIN
10
0
20
0
9
$EXTMAX
10
175
20
37
9
$LIMMIN
10
0
20
0
9
$LIMMAX
10
175
20
37
0
ENDSEC
0
SECTION
2
TABLES
0
TABLE
2
VPORT
70
1
0
VPORT
2
*Active
70
0
10
0
20
0
11
1
21
1
12
87.5
22
18.5
13
0
23
0
14
0.5
24
0.5
15
0.5
25
0.5
16
0
26
0
36
1
17
0
27
0
37
0
40
37
41
1
42
50
43
0
44
0
50
0
51
0
71
0
72
1
73
1
74
3
75
0
76
0
77
0
78
0
0
ENDTAB
0
TABLE
2
LTYPE
70
1
0
LTYPE
2
CONTINUOUS
70
0
3
Solid line
72
65
73
0
40
0
0
ENDTAB
0
TABLE
2
LAYER
70
1
0
LAYER
2
0
70
0
62
255
6
CONTINUOUS
0
ENDTAB
0
ENDSEC
0
SECTION
2
ENTITIES
0
POLYLINE
8
0
10
0
20
0
66
1
70
1
62
1
0
VERTEX
8
0
10
118.632
20
20.6261
0
VERTEX
8
0
10
119.184
20
20.8075
0
VERTEX
8
0
10
119.891
20
21.1735
0
VERTEX
8
0
10
121.009
20
22.4741
0
VERTEX
8
0
10
122.324
20
23.3184
0
VERTEX
8
0
10
122.204
20
24.5807
0
VERTEX
8
0
10
122.62
20
26.4824
0
VERTEX
8
0
10
120.054
20
26.6355
0
VERTEX
8
0
10
119.701
20
26.5844
0
VERTEX
8
0
10
118.61
20
26.4312
0
VERTEX
8
0
10
117.84
20
26.3862
0
VERTEX
8
0
10
116.703
20
26.2108
0
VERTEX
8
0
10
104.175
20
24.234
0
VERTEX
8
0
10
103.27
20
24.0912
0
VERTEX
8
0
10
98.2637
20
23.6447
0
VERTEX
8
0
10
86.0397
20
25.6871
0
VERTEX
8
0
10
76.3168
20
27.1631
0
VERTEX
8
0
10
75.8089
20
27.4049
0
VERTEX
8
0
10
75.5773
20
27.157
0
VERTEX
8
0
10
63.6402
20
29.1445
0
VERTEX
8
0
10
64.3527
20
27.3949
0
VERTEX
8
0
10
65.5951
20
26.1065
0
VERTEX
8
0
10
68.482
20
23.7416
0
VERTEX
8
0
10
67.9255
20
24.3508
0
VERTEX
8
0
10
72.0578
20
23.5103
0
VERTEX
8
0
10
73.2902
20
23.3651
0
VERTEX
8
0
10
75.0557
20
23.0551
0
VERTEX
8
0
10
83.0481
20
21.2602
0
VERTEX
8
0
10
83.3963
20
21.1938
0
VERTEX
8
0
10
85.6307
20
20.6866
0
VERTEX
8
0
10
90.1721
20
19.3189
0
VERTEX
8
0
10
101.576
20
16.4773
0
VERTEX
8
0
10
101.943
20
16.7137
0
VERTEX
8
0
10
102.315
20
16.7421
0
VERTEX
8
0
10
112.069
20
18.4476
0
SEQEND
0
POLYLINE
8
0
10
0
20
0
66
1
70
1
62
1
0
VERTEX
8
0
10
114.058
20
9.13032
0
VERTEX
8
0
10
113.701
20
9.07513
0
VERTEX
8
0
10
103.866
20
7.35595
0
VERTEX
8
0
10
102.428
20
7.21257
0
VERTEX
8
0
10
99.7286
20
7.14507
0
VERTEX
8
0
10
87.7534
20
10.1181
0
VERTEX
8
0
10
83.0727
20
11.5235
0
VERTEX
8
0
10
81.393
20
11.8937
0
VERTEX
8
0
10
80.9762
20
11.9751
0
VERTEX
8
0
10
73.0282
20
13.7602
0
VERTEX
8
0
10
71.9145
20
13.9516
0
VERTEX
8
0
10
70.3453
20
14.1523
0
VERTEX
8
0
10
66.0125
20
15.0317
0
VERTEX
8
0
10
63.7026
20
15.5158
0
VERTEX
8
0
10
59.4475
20
18.8461
0
VERTEX
8
0
10
57.6699
20
20.624
0
VERTEX
8
0
10
54.7254
20
23.5068
0
VERTEX
8
0
10
54.6264
20
24.486
0
VERTEX
8
0
10
54.5251
20
25.5904
0
VERTEX
8
0
10
54.1522
20
28.4488
0
VERTEX
8
0
10
54.088
20
31.551
0
VERTEX
8
0
10
73.2585
20
36.3835
0
VERTEX
8
0
10
75.4126
20
36.9101
0
VERTEX
8
0
10
77.7353
20
36.5702
0
VERTEX
8
0
10
87.55
20
35.0799
0
VERTEX
8
0
10
99.3206
20
33.0992
0
VERTEX
8
0
10
101.787
20
33.4884
0
VERTEX
8
0
10
102.692
20
33.6312
0
VERTEX
8
0
10
115.227
20
35.6092
0
VERTEX
8
0
10
116.721
20
35.8336
0
VERTEX
8
0
10
117.648
20
35.8957
0
VERTEX
8
0
10
118.302
20
35.9945
0
VERTEX
8
0
10
118.656
20
36.0457
0
VERTEX
8
0
10
121.085
20
36.4079
0
VERTEX
8
0
10
132.093
20
33.3925
0
VERTEX
8
0
10
133.667
20
32.951
0
VERTEX
8
0
10
133.274
20
31.0071
0
VERTEX
8
0
10
131.93
20
24.5266
0
VERTEX
8
0
10
131.496
20
22.5406
0
VERTEX
8
0
10
130.657
20
18.7287
0
VERTEX
8
0
10
127.776
20
15.7877
0
VERTEX
8
0
10
125.433
20
13.4412
0
VERTEX
8
0
10
122.189
20
11.783
0
VERTEX
8
0
10
122.179
20
11.7777
0
VERTEX
8
0
10
121.607
20
11.59
0
VERTEX
8
0
10
114.304
20
9.18426
0
VERTEX
8
0
10
114.213
20
9.16581
0
SEQEND
0
TEXT
8
0
10
66.7559
20
29.0855
40
5
1
46.1
0
ENDSEC
0
EOF
