999
Creator: CLJ++
0
SECTION
2
HEADER
9
$ACADVER
1
AC1009
9
$EXTMIN
10
0
20
0
9
$EXTMAX
10
175
20
37
9
$LIMMIN
10
0
20
0
9
$LIMMAX
10
175
20
37
0
ENDSEC
0
SECTION
2
TABLES
0
TABLE
2
VPORT
70
1
0
VPORT
2
*Active
70
0
10
0
20
0
11
1
21
1
12
87.5
22
18.5
13
0
23
0
14
0.5
24
0.5
15
0.5
25
0.5
16
0
26
0
36
1
17
0
27
0
37
0
40
37
41
1
42
50
43
0
44
0
50
0
51
0
71
0
72
1
73
1
74
3
75
0
76
0
77
0
78
0
0
ENDTAB
0
TABLE
2
LTYPE
70
1
0
LTYPE
2
CONTINUOUS
70
0
3
Solid line
72
65
73
0
40
0
0
ENDTAB
0
TABLE
2
LAYER
70
1
0
LAYER
2
0
70
0
62
255
6
CONTINUOUS
0
ENDTAB
0
ENDSEC
0
SECTION
2
ENTITIES
0
POLYLINE
8
0
10
0
20
0
66
1
70
1
62
1
0
VERTEX
8
0
10
71.6712
20
23.7516
0
VERTEX
8
0
10
74.2447
20
23.3065
0
VERTEX
8
0
10
77.9156
20
22.483
0
VERTEX
8
0
10
80.4456
20
21.9886
0
VERTEX
8
0
10
87.1763
20
20.5038
0
VERTEX
8
0
10
91.1949
20
19.8275
0
VERTEX
8
0
10
95.0971
20
18.7301
0
VERTEX
8
0
10
101.037
20
16.3099
0
VERTEX
8
0
10
102.524
20
16.0483
0
VERTEX
8
0
10
102.582
20
16.0525
0
VERTEX
8
0
10
105.73
20
16.6653
0
VERTEX
8
0
10
113.088
20
17.9362
0
VERTEX
8
0
10
113.348
20
18.0496
0
VERTEX
8
0
10
114.774
20
18.8422
0
VERTEX
8
0
10
118.184
20
20.0536
0
VERTEX
8
0
10
120.243
20
22.756
0
VERTEX
8
0
10
121.839
20
24.4005
0
VERTEX
8
0
10
120.39
20
26.8643
0
VERTEX
8
0
10
112.551
20
25.4379
0
VERTEX
8
0
10
104.769
20
24.2982
0
VERTEX
8
0
10
99.0743
20
23.4911
0
VERTEX
8
0
10
94.3907
20
24.1977
0
VERTEX
8
0
10
90.9267
20
24.8361
0
VERTEX
8
0
10
83.3778
20
26.2318
0
VERTEX
8
0
10
79.6767
20
27.4393
0
VERTEX
8
0
10
71.2615
20
23.8743
0
SEQEND
0
POLYLINE
8
0
10
0
20
0
66
1
70
1
62
1
0
VERTEX
8
0
10
68.2219
20
14.7269
0
VERTEX
8
0
10
65.8929
20
16.1686
0
VERTEX
8
0
10
57.7658
20
22.0117
0
VERTEX
8
0
10
57.7608
20
22.0561
0
VERTEX
8
0
10
57.1238
20
30.3649
0
VERTEX
8
0
10
59.9814
20
31.2333
0
VERTEX
8
0
10
78.1105
20
36.6993
0
VERTEX
8
0
10
85.0501
20
35.4732
0
VERTEX
8
0
10
92.6326
20
34.0714
0
VERTEX
8
0
10
96.1546
20
33.4221
0
VERTEX
8
0
10
98.8614
20
32.8802
0
VERTEX
8
0
10
103.375
20
33.5858
0
VERTEX
8
0
10
111.124
20
34.7203
0
VERTEX
8
0
10
120.708
20
36.2504
0
VERTEX
8
0
10
127.257
20
34.174
0
VERTEX
8
0
10
132.254
20
32.701
0
VERTEX
8
0
10
131.832
20
30.7706
0
VERTEX
8
0
10
129.113
20
18.4057
0
VERTEX
8
0
10
128.507
20
17.7873
0
VERTEX
8
0
10
127.418
20
16.6967
0
VERTEX
8
0
10
125.901
20
14.7018
0
VERTEX
8
0
10
125.073
20
13.316
0
VERTEX
8
0
10
118.876
20
10.394
0
VERTEX
8
0
10
117.024
20
9.40752
0
VERTEX
8
0
10
114.984
20
8.73804
0
VERTEX
8
0
10
107.39
20
7.42168
0
VERTEX
8
0
10
104.307
20
6.82067
0
VERTEX
8
0
10
103.676
20
6.7278
0
VERTEX
8
0
10
100.577
20
6.35951
0
VERTEX
8
0
10
100.007
20
6.62559
0
VERTEX
8
0
10
97.5218
20
7.60106
0
VERTEX
8
0
10
91.8587
20
9.91462
0
VERTEX
8
0
10
89.2515
20
10.6393
0
VERTEX
8
0
10
85.325
20
11.2965
0
VERTEX
8
0
10
78.4834
20
12.8043
0
VERTEX
8
0
10
75.9629
20
13.2967
0
VERTEX
8
0
10
72.3557
20
14.1069
0
VERTEX
8
0
10
70.2781
20
14.464
0
SEQEND
0
TEXT
8
0
10
71.9818
20
28.7653
40
5
1
47.1
0
ENDSEC
0
EOF
