999
Creator: CLJ++
0
SECTION
2
HEADER
9
$ACADVER
1
AC1009
9
$EXTMIN
10
0
20
0
9
$EXTMAX
10
175
20
37
9
$LIMMIN
10
0
20
0
9
$LIMMAX
10
175
20
37
0
ENDSEC
0
SECTION
2
TABLES
0
TABLE
2
VPORT
70
1
0
VPORT
2
*Active
70
0
10
0
20
0
11
1
21
1
12
87.5
22
18.5
13
0
23
0
14
0.5
24
0.5
15
0.5
25
0.5
16
0
26
0
36
1
17
0
27
0
37
0
40
37
41
1
42
50
43
0
44
0
50
0
51
0
71
0
72
1
73
1
74
3
75
0
76
0
77
0
78
0
0
ENDTAB
0
TABLE
2
LTYPE
70
1
0
LTYPE
2
CONTINUOUS
70
0
3
Solid line
72
65
73
0
40
0
0
ENDTAB
0
TABLE
2
LAYER
70
1
0
LAYER
2
0
70
0
62
255
6
CONTINUOUS
0
ENDTAB
0
ENDSEC
0
SECTION
2
ENTITIES
0
POLYLINE
8
0
10
0
20
0
66
1
70
1
62
1
0
VERTEX
8
0
10
77.436
20
22.7956
0
VERTEX
8
0
10
79.2171
20
22.4013
0
VERTEX
8
0
10
80.9943
20
22.1024
0
VERTEX
8
0
10
86.4171
20
20.9587
0
VERTEX
8
0
10
90.2634
20
20.1848
0
VERTEX
8
0
10
92.1828
20
19.7793
0
VERTEX
8
0
10
95.9102
20
18.7463
0
VERTEX
8
0
10
101.004
20
16.4371
0
VERTEX
8
0
10
103.57
20
15.5513
0
VERTEX
8
0
10
108.225
20
16.4245
0
VERTEX
8
0
10
112.355
20
16.9812
0
VERTEX
8
0
10
118.488
20
20.0099
0
VERTEX
8
0
10
119.586
20
21.1655
0
VERTEX
8
0
10
120.266
20
22.327
0
VERTEX
8
0
10
121.06
20
26.6397
0
VERTEX
8
0
10
108.717
20
24.6653
0
VERTEX
8
0
10
103.159
20
23.8454
0
VERTEX
8
0
10
98.2042
20
23.2388
0
VERTEX
8
0
10
93.5273
20
24.1008
0
VERTEX
8
0
10
83.2058
20
26.2229
0
VERTEX
8
0
10
80.9144
20
27.0605
0
VERTEX
8
0
10
69.832
20
28.5912
0
VERTEX
8
0
10
72.9931
20
24.5914
0
SEQEND
0
POLYLINE
8
0
10
0
20
0
66
1
70
1
62
1
0
VERTEX
8
0
10
72.6286
20
14.2904
0
VERTEX
8
0
10
68.4358
20
16.5194
0
VERTEX
8
0
10
61.4937
20
20.5768
0
VERTEX
8
0
10
61.2806
20
22.2931
0
VERTEX
8
0
10
61.0162
20
24.4065
0
VERTEX
8
0
10
60.6301
20
27.4732
0
VERTEX
8
0
10
60.3684
20
29.7385
0
VERTEX
8
0
10
78.4104
20
35.7069
0
VERTEX
8
0
10
80.2302
20
36.3048
0
VERTEX
8
0
10
81.9007
20
35.9652
0
VERTEX
8
0
10
85.0794
20
35.3012
0
VERTEX
8
0
10
95.4263
20
33.1738
0
VERTEX
8
0
10
98.437
20
32.5055
0
VERTEX
8
0
10
101.793
20
33.0138
0
VERTEX
8
0
10
107.311
20
33.8277
0
VERTEX
8
0
10
120.599
20
35.8979
0
VERTEX
8
0
10
123.866
20
34.6514
0
VERTEX
8
0
10
130.516
20
32.3471
0
VERTEX
8
0
10
129.511
20
27.9003
0
VERTEX
8
0
10
128.66
20
18.0845
0
VERTEX
8
0
10
127.996
20
17.2108
0
VERTEX
8
0
10
127.2
20
15.8782
0
VERTEX
8
0
10
125.958
20
14.2769
0
VERTEX
8
0
10
125.558
20
13.2802
0
VERTEX
8
0
10
122.616
20
11.7099
0
VERTEX
8
0
10
115.381
20
8.21953
0
VERTEX
8
0
10
109.837
20
7.29608
0
VERTEX
8
0
10
104.862
20
6.36231
0
VERTEX
8
0
10
104.583
20
6.32148
0
VERTEX
8
0
10
101.321
20
5.9865
0
VERTEX
8
0
10
100.063
20
6.61956
0
VERTEX
8
0
10
97.1
20
8.0299
0
VERTEX
8
0
10
92.5708
20
10.0991
0
VERTEX
8
0
10
90.0095
20
10.7681
0
VERTEX
8
0
10
88.4148
20
11.1014
0
VERTEX
8
0
10
84.5391
20
11.8814
0
VERTEX
8
0
10
79.1734
20
13.0134
0
VERTEX
8
0
10
77.4436
20
13.3029
0
VERTEX
8
0
10
75.5738
20
13.715
0
SEQEND
0
TEXT
8
0
10
75.2578
20
28.3749
40
5
1
48.1
0
ENDSEC
0
EOF
