999
Creator: CLJ++
0
SECTION
2
HEADER
9
$ACADVER
1
AC1009
9
$EXTMIN
10
0
20
0
9
$EXTMAX
10
175
20
37
9
$LIMMIN
10
0
20
0
9
$LIMMAX
10
175
20
37
0
ENDSEC
0
SECTION
2
TABLES
0
TABLE
2
VPORT
70
1
0
VPORT
2
*Active
70
0
10
0
20
0
11
1
21
1
12
87.5
22
18.5
13
0
23
0
14
0.5
24
0.5
15
0.5
25
0.5
16
0
26
0
36
1
17
0
27
0
37
0
40
37
41
1
42
50
43
0
44
0
50
0
51
0
71
0
72
1
73
1
74
3
75
0
76
0
77
0
78
0
0
ENDTAB
0
TABLE
2
LTYPE
70
1
0
LTYPE
2
CONTINUOUS
70
0
3
Solid line
72
65
73
0
40
0
0
ENDTAB
0
TABLE
2
LAYER
70
1
0
LAYER
2
0
70
0
62
255
6
CONTINUOUS
0
ENDTAB
0
ENDSEC
0
SECTION
2
ENTITIES
0
POLYLINE
8
0
10
0
20
0
66
1
70
1
62
1
0
VERTEX
8
0
10
119.221
20
21.0889
0
VERTEX
8
0
10
118.079
20
18.3769
0
VERTEX
8
0
10
111.994
20
16.334
0
VERTEX
8
0
10
103.799
20
14.9808
0
VERTEX
8
0
10
102.013
20
15.5916
0
VERTEX
8
0
10
97.4149
20
17.8965
0
VERTEX
8
0
10
93.5677
20
19.3386
0
VERTEX
8
0
10
88.4665
20
20.5383
0
VERTEX
8
0
10
84.6285
20
21.538
0
VERTEX
8
0
10
80.5261
20
22.3109
0
VERTEX
8
0
10
76.3772
20
24.4647
0
VERTEX
8
0
10
72.3634
20
25.5695
0
VERTEX
8
0
10
73.3762
20
27.6189
0
VERTEX
8
0
10
73.1793
20
28.9448
0
VERTEX
8
0
10
81.9748
20
26.3002
0
VERTEX
8
0
10
92.2678
20
23.8783
0
VERTEX
8
0
10
98.2405
20
22.9497
0
VERTEX
8
0
10
110.754
20
24.7056
0
VERTEX
8
0
10
119.131
20
25.7424
0
VERTEX
8
0
10
119.204
20
25.0113
0
SEQEND
0
POLYLINE
8
0
10
0
20
0
66
1
70
1
62
1
0
VERTEX
8
0
10
127.311
20
16.8183
0
VERTEX
8
0
10
126.571
20
14.977
0
VERTEX
8
0
10
125.827
20
13.1119
0
VERTEX
8
0
10
116.608
20
8.21404
0
VERTEX
8
0
10
115.586
20
7.64712
0
VERTEX
8
0
10
114.884
20
7.53951
0
VERTEX
8
0
10
113.484
20
7.30848
0
VERTEX
8
0
10
105.365
20
5.96815
0
VERTEX
8
0
10
103.503
20
5.57439
0
VERTEX
8
0
10
101.929
20
5.34526
0
VERTEX
8
0
10
97.8646
20
7.43871
0
VERTEX
8
0
10
93.6179
20
9.5741
0
VERTEX
8
0
10
91.0709
20
10.5383
0
VERTEX
8
0
10
86.2858
20
11.6544
0
VERTEX
8
0
10
82.5698
20
12.625
0
VERTEX
8
0
10
77.456
20
13.6939
0
VERTEX
8
0
10
72.2444
20
16.3038
0
VERTEX
8
0
10
65.1736
20
19.9139
0
VERTEX
8
0
10
64.3117
20
26.3886
0
VERTEX
8
0
10
64.1141
20
27.7197
0
VERTEX
8
0
10
63.9605
20
28.9874
0
VERTEX
8
0
10
80.75
20
35.456
0
VERTEX
8
0
10
81.6231
20
35.7718
0
VERTEX
8
0
10
82.475
20
35.5714
0
VERTEX
8
0
10
84.0639
20
35.2061
0
VERTEX
8
0
10
94.3194
20
32.793
0
VERTEX
8
0
10
97.6537
20
32.0786
0
VERTEX
8
0
10
109.525
20
33.7704
0
VERTEX
8
0
10
120.531
20
35.1792
0
VERTEX
8
0
10
122.869
20
34.0914
0
VERTEX
8
0
10
128.671
20
31.5349
0
VERTEX
8
0
10
128.429
20
27.9843
0
VERTEX
8
0
10
128.345
20
24.6636
0
VERTEX
8
0
10
128.04
20
17.7591
0
SEQEND
0
TEXT
8
0
10
116.203
20
25.7156
40
5
1
49.1
0
ENDSEC
0
EOF
