999
Creator: CLJ++
0
SECTION
2
HEADER
9
$ACADVER
1
AC1009
9
$EXTMIN
10
0
20
0
9
$EXTMAX
10
175
20
37
9
$LIMMIN
10
0
20
0
9
$LIMMAX
10
175
20
37
0
ENDSEC
0
SECTION
2
TABLES
0
TABLE
2
VPORT
70
1
0
VPORT
2
*Active
70
0
10
0
20
0
11
1
21
1
12
87.5
22
18.5
13
0
23
0
14
0.5
24
0.5
15
0.5
25
0.5
16
0
26
0
36
1
17
0
27
0
37
0
40
37
41
1
42
50
43
0
44
0
50
0
51
0
71
0
72
1
73
1
74
3
75
0
76
0
77
0
78
0
0
ENDTAB
0
TABLE
2
LTYPE
70
1
0
LTYPE
2
CONTINUOUS
70
0
3
Solid line
72
65
73
0
40
0
0
ENDTAB
0
TABLE
2
LAYER
70
1
0
LAYER
2
0
70
0
62
255
6
CONTINUOUS
0
ENDTAB
0
ENDSEC
0
SECTION
2
ENTITIES
0
POLYLINE
8
0
10
0
20
0
66
1
70
1
62
1
0
VERTEX
8
0
10
88.4834
20
20.7411
0
VERTEX
8
0
10
83.4238
20
21.8794
0
VERTEX
8
0
10
75.6567
20
23.773
0
VERTEX
8
0
10
84.1321
20
25.1537
0
VERTEX
8
0
10
86.1178
20
24.8716
0
VERTEX
8
0
10
91.7917
20
23.9742
0
VERTEX
8
0
10
97.2829
20
23.2867
0
VERTEX
8
0
10
108.835
20
23.5188
0
VERTEX
8
0
10
116.231
20
23.6457
0
VERTEX
8
0
10
118.55
20
23.8659
0
VERTEX
8
0
10
118.901
20
23.3028
0
VERTEX
8
0
10
118.833
20
18.5647
0
VERTEX
8
0
10
116.244
20
17.5517
0
VERTEX
8
0
10
113.297
20
15.6703
0
VERTEX
8
0
10
105.652
20
14.5796
0
VERTEX
8
0
10
104.195
20
14.3567
0
VERTEX
8
0
10
103.236
20
14.1384
0
VERTEX
8
0
10
101.351
20
15.286
0
VERTEX
8
0
10
97.7055
20
17.1522
0
VERTEX
8
0
10
92.2136
20
19.3641
0
SEQEND
0
POLYLINE
8
0
10
0
20
0
66
1
70
1
62
1
0
VERTEX
8
0
10
86.0272
20
12.056
0
VERTEX
8
0
10
80.4574
20
13.3551
0
VERTEX
8
0
10
76.3589
20
15.4204
0
VERTEX
8
0
10
74.2732
20
16.4624
0
VERTEX
8
0
10
69.4879
20
18.861
0
VERTEX
8
0
10
68.6078
20
19.2868
0
VERTEX
8
0
10
68.0264
20
24.0575
0
VERTEX
8
0
10
67.6081
20
27.8576
0
VERTEX
8
0
10
70.5119
20
28.9551
0
VERTEX
8
0
10
77.6513
20
31.6072
0
VERTEX
8
0
10
84.6727
20
34.2249
0
VERTEX
8
0
10
85.5014
20
34.075
0
VERTEX
8
0
10
87.4916
20
33.7922
0
VERTEX
8
0
10
93.1151
20
32.9024
0
VERTEX
8
0
10
97.4916
20
32.31
0
VERTEX
8
0
10
108.661
20
32.5428
0
VERTEX
8
0
10
115.847
20
32.6633
0
VERTEX
8
0
10
120.385
20
33.0415
0
VERTEX
8
0
10
121.757
20
32.3468
0
VERTEX
8
0
10
122.593
20
31.9355
0
VERTEX
8
0
10
126.831
20
29.8049
0
VERTEX
8
0
10
127.633
20
29.377
0
VERTEX
8
0
10
128.007
20
29.1838
0
VERTEX
8
0
10
128.018
20
29.0059
0
VERTEX
8
0
10
128.026
20
28.6471
0
VERTEX
8
0
10
127.924
20
23.1104
0
VERTEX
8
0
10
127.787
20
17.4272
0
VERTEX
8
0
10
126.918
20
15.1853
0
VERTEX
8
0
10
126.053
20
12.7538
0
VERTEX
8
0
10
120.671
20
9.68569
0
VERTEX
8
0
10
115.851
20
7.01348
0
VERTEX
8
0
10
107.019
20
5.65797
0
VERTEX
8
0
10
105.757
20
5.46703
0
VERTEX
8
0
10
105.366
20
5.36762
0
VERTEX
8
0
10
102.324
20
4.63349
0
VERTEX
8
0
10
97.2161
20
7.26334
0
VERTEX
8
0
10
94.0318
20
8.9079
0
VERTEX
8
0
10
88.9102
20
10.9646
0
SEQEND
0
TEXT
8
0
10
77.5333
20
26.4333
40
5
1
50.1
0
ENDSEC
0
EOF
