999
Creator: CLJ++
0
SECTION
2
HEADER
9
$ACADVER
1
AC1009
9
$EXTMIN
10
0
20
0
9
$EXTMAX
10
175
20
37
9
$LIMMIN
10
0
20
0
9
$LIMMAX
10
175
20
37
0
ENDSEC
0
SECTION
2
TABLES
0
TABLE
2
VPORT
70
1
0
VPORT
2
*Active
70
0
10
0
20
0
11
1
21
1
12
87.5
22
18.5
13
0
23
0
14
0.5
24
0.5
15
0.5
25
0.5
16
0
26
0
36
1
17
0
27
0
37
0
40
37
41
1
42
50
43
0
44
0
50
0
51
0
71
0
72
1
73
1
74
3
75
0
76
0
77
0
78
0
0
ENDTAB
0
TABLE
2
LTYPE
70
1
0
LTYPE
2
CONTINUOUS
70
0
3
Solid line
72
65
73
0
40
0
0
ENDTAB
0
TABLE
2
LAYER
70
1
0
LAYER
2
0
70
0
62
255
6
CONTINUOUS
0
ENDTAB
0
ENDSEC
0
SECTION
2
ENTITIES
0
POLYLINE
8
0
10
0
20
0
66
1
70
1
62
1
0
VERTEX
8
0
10
115.349
20
16.2106
0
VERTEX
8
0
10
113.6
20
14.9453
0
VERTEX
8
0
10
108.361
20
14.3068
0
VERTEX
8
0
10
104.534
20
13.7088
0
VERTEX
8
0
10
100.994
20
14.7494
0
VERTEX
8
0
10
98.4127
20
16.0799
0
VERTEX
8
0
10
92.8367
20
18.7859
0
VERTEX
8
0
10
86.1277
20
21.3195
0
VERTEX
8
0
10
84.983
20
22.097
0
VERTEX
8
0
10
87.2245
20
22.7537
0
VERTEX
8
0
10
89.0792
20
23.5222
0
VERTEX
8
0
10
89.3929
20
23.2874
0
VERTEX
8
0
10
95.9733
20
23.0525
0
VERTEX
8
0
10
101.474
20
22.3651
0
VERTEX
8
0
10
118.76
20
20.3206
0
VERTEX
8
0
10
117.787
20
20.3979
0
VERTEX
8
0
10
119.161
20
17.9526
0
SEQEND
0
POLYLINE
8
0
10
0
20
0
66
1
70
1
62
1
0
VERTEX
8
0
10
126.626
20
12.4555
0
VERTEX
8
0
10
119.793
20
8.49493
0
VERTEX
8
0
10
116.123
20
6.40646
0
VERTEX
8
0
10
109.645
20
5.49596
0
VERTEX
8
0
10
106.162
20
4.95512
0
VERTEX
8
0
10
104.448
20
4.52941
0
VERTEX
8
0
10
102.662
20
4.09169
0
VERTEX
8
0
10
97.0831
20
6.75025
0
VERTEX
8
0
10
94.4502
20
8.10644
0
VERTEX
8
0
10
89.3531
20
10.5918
0
VERTEX
8
0
10
82.6108
20
13.1397
0
VERTEX
8
0
10
80.5401
20
14.3809
0
VERTEX
8
0
10
79.5847
20
14.8821
0
VERTEX
8
0
10
77.1363
20
16.1424
0
VERTEX
8
0
10
71.5677
20
18.9106
0
VERTEX
8
0
10
71.5006
20
20.929
0
VERTEX
8
0
10
71.3663
20
26.7814
0
VERTEX
8
0
10
84.3457
20
31.1793
0
VERTEX
8
0
10
87.443
20
32.2744
0
VERTEX
8
0
10
89.7252
20
32.185
0
VERTEX
8
0
10
96.652
20
31.9304
0
VERTEX
8
0
10
102.531
20
31.2059
0
VERTEX
8
0
10
120.002
20
29.1374
0
VERTEX
8
0
10
121.36
20
28.5537
0
VERTEX
8
0
10
128.071
20
25.603
0
VERTEX
8
0
10
128.07
20
25.5875
0
VERTEX
8
0
10
127.939
20
23.855
0
VERTEX
8
0
10
127.918
20
21.392
0
VERTEX
8
0
10
128.023
20
17.0919
0
VERTEX
8
0
10
127.213
20
14.1326
0
SEQEND
0
TEXT
8
0
10
85.1613
20
25.3998
40
5
1
51.1
0
ENDSEC
0
EOF
