999
Creator: CLJ++
0
SECTION
2
HEADER
9
$ACADVER
1
AC1009
9
$EXTMIN
10
0
20
0
9
$EXTMAX
10
175
20
37
9
$LIMMIN
10
0
20
0
9
$LIMMAX
10
175
20
37
0
ENDSEC
0
SECTION
2
TABLES
0
TABLE
2
VPORT
70
1
0
VPORT
2
*Active
70
0
10
0
20
0
11
1
21
1
12
87.5
22
18.5
13
0
23
0
14
0.5
24
0.5
15
0.5
25
0.5
16
0
26
0
36
1
17
0
27
0
37
0
40
37
41
1
42
50
43
0
44
0
50
0
51
0
71
0
72
1
73
1
74
3
75
0
76
0
77
0
78
0
0
ENDTAB
0
TABLE
2
LTYPE
70
1
0
LTYPE
2
CONTINUOUS
70
0
3
Solid line
72
65
73
0
40
0
0
ENDTAB
0
TABLE
2
LAYER
70
1
0
LAYER
2
0
70
0
62
255
6
CONTINUOUS
0
ENDTAB
0
ENDSEC
0
SECTION
2
ENTITIES
0
POLYLINE
8
0
10
0
20
0
66
1
70
1
62
1
0
VERTEX
8
0
10
119.524
20
18.728
0
VERTEX
8
0
10
117.961
20
19.8213
0
VERTEX
8
0
10
106.251
20
21.3209
0
VERTEX
8
0
10
94.9809
20
22.7744
0
VERTEX
8
0
10
94.5727
20
22.7259
0
VERTEX
8
0
10
88.4814
20
22.8054
0
VERTEX
8
0
10
89.1532
20
22.6143
0
VERTEX
8
0
10
86.8378
20
21.3096
0
VERTEX
8
0
10
87.1988
20
20.9847
0
VERTEX
8
0
10
94.0532
20
17.8643
0
VERTEX
8
0
10
98.6701
20
15.5354
0
VERTEX
8
0
10
102.886
20
12.5726
0
VERTEX
8
0
10
104.948
20
13.3551
0
VERTEX
8
0
10
108.693
20
13.881
0
VERTEX
8
0
10
113.763
20
14.3438
0
VERTEX
8
0
10
116.811
20
16.3617
0
SEQEND
0
POLYLINE
8
0
10
0
20
0
66
1
70
1
62
1
0
VERTEX
8
0
10
128.138
20
15.9601
0
VERTEX
8
0
10
127.254
20
12.1487
0
VERTEX
8
0
10
121.156
20
8.72983
0
VERTEX
8
0
10
116.39
20
5.96398
0
VERTEX
8
0
10
109.795
20
5.16848
0
VERTEX
8
0
10
106.528
20
4.71654
0
VERTEX
8
0
10
104.601
20
4.21849
0
VERTEX
8
0
10
103.041
20
3.79205
0
VERTEX
8
0
10
102.173
20
4.17549
0
VERTEX
8
0
10
94.8428
20
7.63137
0
VERTEX
8
0
10
90.2849
20
9.93197
0
VERTEX
8
0
10
83.3602
20
13.0862
0
VERTEX
8
0
10
82.1364
20
13.8921
0
VERTEX
8
0
10
81.0098
20
14.5759
0
VERTEX
8
0
10
74.3437
20
18.5484
0
VERTEX
8
0
10
74.3396
20
20.28
0
VERTEX
8
0
10
74.1738
20
25.8828
0
VERTEX
8
0
10
85.758
20
30.7134
0
VERTEX
8
0
10
87.6983
20
31.5523
0
VERTEX
8
0
10
94.6303
20
31.5076
0
VERTEX
8
0
10
95.9919
20
31.4979
0
VERTEX
8
0
10
107.371
20
30.0311
0
VERTEX
8
0
10
120.434
20
28.3555
0
VERTEX
8
0
10
121.508
20
27.8595
0
VERTEX
8
0
10
124.684
20
26.4683
0
VERTEX
8
0
10
128.256
20
24.7847
0
VERTEX
8
0
10
128.305
20
18.8368
0
VERTEX
8
0
10
128.356
20
16.7559
0
SEQEND
0
TEXT
8
0
10
83.0494
20
24.7484
40
5
1
52.1
0
ENDSEC
0
EOF
