999
Creator: CLJ++
0
SECTION
2
HEADER
9
$ACADVER
1
AC1009
9
$EXTMIN
10
0
20
0
9
$EXTMAX
10
175
20
37
9
$LIMMIN
10
0
20
0
9
$LIMMAX
10
175
20
37
0
ENDSEC
0
SECTION
2
TABLES
0
TABLE
2
VPORT
70
1
0
VPORT
2
*Active
70
0
10
0
20
0
11
1
21
1
12
87.5
22
18.5
13
0
23
0
14
0.5
24
0.5
15
0.5
25
0.5
16
0
26
0
36
1
17
0
27
0
37
0
40
37
41
1
42
50
43
0
44
0
50
0
51
0
71
0
72
1
73
1
74
3
75
0
76
0
77
0
78
0
0
ENDTAB
0
TABLE
2
LTYPE
70
1
0
LTYPE
2
CONTINUOUS
70
0
3
Solid line
72
65
73
0
40
0
0
ENDTAB
0
TABLE
2
LAYER
70
1
0
LAYER
2
0
70
0
62
255
6
CONTINUOUS
0
ENDTAB
0
ENDSEC
0
SECTION
2
ENTITIES
0
POLYLINE
8
0
10
0
20
0
66
1
70
1
62
1
0
VERTEX
8
0
10
88.0807
20
20.6097
0
VERTEX
8
0
10
88.6178
20
20.2671
0
VERTEX
8
0
10
84.1669
20
20.6954
0
VERTEX
8
0
10
89.5963
20
22.171
0
VERTEX
8
0
10
88.9116
20
22.3771
0
VERTEX
8
0
10
93.9686
20
22.2893
0
VERTEX
8
0
10
95.1242
20
22.3237
0
VERTEX
8
0
10
107.37
20
20.837
0
VERTEX
8
0
10
118.335
20
19.5766
0
VERTEX
8
0
10
119.226
20
19.1828
0
VERTEX
8
0
10
120.342
20
17.4819
0
VERTEX
8
0
10
113.146
20
13.5466
0
VERTEX
8
0
10
111.983
20
13.8236
0
VERTEX
8
0
10
105.75
20
12.944
0
VERTEX
8
0
10
104.993
20
12.7943
0
VERTEX
8
0
10
102.436
20
13.4765
0
VERTEX
8
0
10
99.0745
20
15.0603
0
SEQEND
0
POLYLINE
8
0
10
0
20
0
66
1
70
1
62
1
0
VERTEX
8
0
10
84.1862
20
12.8748
0
VERTEX
8
0
10
83.8994
20
13.0055
0
VERTEX
8
0
10
77.5603
20
17.1801
0
VERTEX
8
0
10
75.8729
20
18.2043
0
VERTEX
8
0
10
75.8922
20
22.7341
0
VERTEX
8
0
10
75.9034
20
25.3856
0
VERTEX
8
0
10
85.942
20
30.0222
0
VERTEX
8
0
10
87.9239
20
30.9805
0
VERTEX
8
0
10
94.016
20
30.9492
0
VERTEX
8
0
10
96.0308
20
30.9361
0
VERTEX
8
0
10
108.428
20
29.4321
0
VERTEX
8
0
10
121.031
20
27.8585
0
VERTEX
8
0
10
121.856
20
27.4887
0
VERTEX
8
0
10
122.73
20
27.1023
0
VERTEX
8
0
10
125.825
20
25.7326
0
VERTEX
8
0
10
129.198
20
24.288
0
VERTEX
8
0
10
129.21
20
22.6774
0
VERTEX
8
0
10
128.936
20
16.4183
0
VERTEX
8
0
10
127.889
20
12.0024
0
VERTEX
8
0
10
127.825
20
11.8113
0
VERTEX
8
0
10
127.284
20
11.5124
0
VERTEX
8
0
10
116.65
20
5.62713
0
VERTEX
8
0
10
113.097
20
5.23566
0
VERTEX
8
0
10
106.997
20
4.37426
0
VERTEX
8
0
10
106.713
20
4.30688
0
VERTEX
8
0
10
104.548
20
3.87797
0
VERTEX
8
0
10
103.429
20
3.57211
0
VERTEX
8
0
10
98.8513
20
5.59337
0
VERTEX
8
0
10
95.2233
20
7.30382
0
SEQEND
0
TEXT
8
0
10
83.7743
20
24.0585
40
5
1
53.1
0
ENDSEC
0
EOF
