999
Creator: CLJ++
0
SECTION
2
HEADER
9
$ACADVER
1
AC1009
9
$EXTMIN
10
0
20
0
9
$EXTMAX
10
175
20
37
9
$LIMMIN
10
0
20
0
9
$LIMMAX
10
175
20
37
0
ENDSEC
0
SECTION
2
TABLES
0
TABLE
2
VPORT
70
1
0
VPORT
2
*Active
70
0
10
0
20
0
11
1
21
1
12
87.5
22
18.5
13
0
23
0
14
0.5
24
0.5
15
0.5
25
0.5
16
0
26
0
36
1
17
0
27
0
37
0
40
37
41
1
42
50
43
0
44
0
50
0
51
0
71
0
72
1
73
1
74
3
75
0
76
0
77
0
78
0
0
ENDTAB
0
TABLE
2
LTYPE
70
1
0
LTYPE
2
CONTINUOUS
70
0
3
Solid line
72
65
73
0
40
0
0
ENDTAB
0
TABLE
2
LAYER
70
1
0
LAYER
2
0
70
0
62
255
6
CONTINUOUS
0
ENDTAB
0
ENDSEC
0
SECTION
2
ENTITIES
0
POLYLINE
8
0
10
0
20
0
66
1
70
1
62
1
0
VERTEX
8
0
10
121.063
20
16.9704
0
VERTEX
8
0
10
115.257
20
13.6667
0
VERTEX
8
0
10
113.244
20
13.4759
0
VERTEX
8
0
10
106.035
20
12.7231
0
VERTEX
8
0
10
103.463
20
12.8671
0
VERTEX
8
0
10
99.385
20
14.6337
0
VERTEX
8
0
10
98.957
20
14.8524
0
VERTEX
8
0
10
88.7104
20
20.075
0
VERTEX
8
0
10
91.3927
20
22.6219
0
VERTEX
8
0
10
91.2439
20
22.0867
0
VERTEX
8
0
10
96.4699
20
22.0585
0
VERTEX
8
0
10
99.6965
20
21.6397
0
VERTEX
8
0
10
102.46
20
21.2917
0
VERTEX
8
0
10
112.145
20
20.0852
0
VERTEX
8
0
10
115.133
20
19.6963
0
VERTEX
8
0
10
120.323
20
19.0754
0
VERTEX
8
0
10
119.5
20
19.1735
0
VERTEX
8
0
10
121.109
20
18.3878
0
SEQEND
0
POLYLINE
8
0
10
0
20
0
66
1
70
1
62
1
0
VERTEX
8
0
10
129.554
20
16.0804
0
VERTEX
8
0
10
129.343
20
15.1888
0
VERTEX
8
0
10
128.1
20
11.4749
0
VERTEX
8
0
10
117.591
20
5.66672
0
VERTEX
8
0
10
116.911
20
5.29035
0
VERTEX
8
0
10
114.136
20
4.98455
0
VERTEX
8
0
10
107.336
20
4.28471
0
VERTEX
8
0
10
104.204
20
3.45326
0
VERTEX
8
0
10
103.88
20
3.37061
0
VERTEX
8
0
10
100.053
20
5.03953
0
VERTEX
8
0
10
95.6037
20
6.97609
0
VERTEX
8
0
10
95.4815
20
7.04021
0
VERTEX
8
0
10
95.0725
20
7.24915
0
VERTEX
8
0
10
84.4442
20
12.6792
0
VERTEX
8
0
10
80.261
20
15.793
0
VERTEX
8
0
10
77.1464
20
17.8619
0
VERTEX
8
0
10
77.1665
20
19.2665
0
VERTEX
8
0
10
77.2222
20
25.0622
0
VERTEX
8
0
10
80.7099
20
26.7567
0
VERTEX
8
0
10
88.4642
20
30.6421
0
VERTEX
8
0
10
91.3024
20
30.6245
0
VERTEX
8
0
10
96.9321
20
30.584
0
VERTEX
8
0
10
100.751
20
30.1123
0
VERTEX
8
0
10
103.518
20
29.764
0
VERTEX
8
0
10
113.212
20
28.5564
0
VERTEX
8
0
10
116.19
20
28.1688
0
VERTEX
8
0
10
121.783
20
27.4877
0
VERTEX
8
0
10
122.906
20
27.003
0
VERTEX
8
0
10
129.018
20
24.341
0
VERTEX
8
0
10
129.733
20
24.0286
0
VERTEX
8
0
10
129.894
20
23.9559
0
VERTEX
8
0
10
129.882
20
23.513
0
VERTEX
8
0
10
129.639
20
18.012
0
SEQEND
0
TEXT
8
0
10
84.8831
20
23.7438
40
5
1
54.1
0
ENDSEC
0
EOF
