999
Creator: CLJ++
0
SECTION
2
HEADER
9
$ACADVER
1
AC1009
9
$EXTMIN
10
0
20
0
9
$EXTMAX
10
175
20
37
9
$LIMMIN
10
0
20
0
9
$LIMMAX
10
175
20
37
0
ENDSEC
0
SECTION
2
TABLES
0
TABLE
2
VPORT
70
1
0
VPORT
2
*Active
70
0
10
0
20
0
11
1
21
1
12
87.5
22
18.5
13
0
23
0
14
0.5
24
0.5
15
0.5
25
0.5
16
0
26
0
36
1
17
0
27
0
37
0
40
37
41
1
42
50
43
0
44
0
50
0
51
0
71
0
72
1
73
1
74
3
75
0
76
0
77
0
78
0
0
ENDTAB
0
TABLE
2
LTYPE
70
1
0
LTYPE
2
CONTINUOUS
70
0
3
Solid line
72
65
73
0
40
0
0
ENDTAB
0
TABLE
2
LAYER
70
1
0
LAYER
2
0
70
0
62
255
6
CONTINUOUS
0
ENDTAB
0
ENDSEC
0
SECTION
2
ENTITIES
0
POLYLINE
8
0
10
0
20
0
66
1
70
1
62
1
0
VERTEX
8
0
10
103.516
20
20.9856
0
VERTEX
8
0
10
96.9014
20
21.8489
0
VERTEX
8
0
10
96.1687
20
21.8105
0
VERTEX
8
0
10
91.0799
20
21.8738
0
VERTEX
8
0
10
87.718
20
20.9329
0
VERTEX
8
0
10
89.3614
20
19.533
0
VERTEX
8
0
10
93.6357
20
17.375
0
VERTEX
8
0
10
99.736
20
14.1725
0
VERTEX
8
0
10
102.015
20
13.1927
0
VERTEX
8
0
10
106.604
20
12.5026
0
VERTEX
8
0
10
113.275
20
13.0731
0
VERTEX
8
0
10
115.242
20
13.145
0
VERTEX
8
0
10
114.658
20
13.1798
0
VERTEX
8
0
10
117.402
20
14.6767
0
VERTEX
8
0
10
122.288
20
16.8051
0
VERTEX
8
0
10
123.521
20
18.5128
0
VERTEX
8
0
10
121.682
20
18.1907
0
VERTEX
8
0
10
120.603
20
18.891
0
VERTEX
8
0
10
112.955
20
19.8203
0
VERTEX
8
0
10
106.282
20
20.6486
0
SEQEND
0
POLYLINE
8
0
10
0
20
0
66
1
70
1
62
1
0
VERTEX
8
0
10
107.313
20
29.0013
0
VERTEX
8
0
10
113.996
20
28.1719
0
VERTEX
8
0
10
122.308
20
27.1324
0
VERTEX
8
0
10
125.133
20
25.8668
0
VERTEX
8
0
10
127.462
20
24.8155
0
VERTEX
8
0
10
130.248
20
23.5706
0
VERTEX
8
0
10
130.238
20
21.123
0
VERTEX
8
0
10
130.285
20
15.7418
0
VERTEX
8
0
10
129.099
20
12.538
0
VERTEX
8
0
10
128.507
20
11.1345
0
VERTEX
8
0
10
127.19
20
10.4441
0
VERTEX
8
0
10
121.442
20
7.29378
0
VERTEX
8
0
10
118.703
20
5.79957
0
VERTEX
8
0
10
117.172
20
4.95315
0
VERTEX
8
0
10
113.978
20
4.6864
0
VERTEX
8
0
10
107.708
20
4.15926
0
VERTEX
8
0
10
106.022
20
3.6332
0
VERTEX
8
0
10
104.151
20
3.03628
0
VERTEX
8
0
10
98.6183
20
5.49245
0
VERTEX
8
0
10
95.9839
20
6.63903
0
VERTEX
8
0
10
89.7606
20
9.90402
0
VERTEX
8
0
10
84.9891
20
12.3418
0
VERTEX
8
0
10
82.5633
20
14.28
0
VERTEX
8
0
10
80.6165
20
15.7297
0
VERTEX
8
0
10
78.1771
20
17.5212
0
VERTEX
8
0
10
78.2688
20
22.492
0
VERTEX
8
0
10
78.3115
20
24.6831
0
VERTEX
8
0
10
88.2352
20
29.657
0
VERTEX
8
0
10
89.4802
20
30.2811
0
VERTEX
8
0
10
96.2333
20
30.2264
0
VERTEX
8
0
10
97.796
20
30.2173
0
VERTEX
8
0
10
104.583
20
29.3338
0
SEQEND
0
TEXT
8
0
10
86.0211
20
23.3874
40
5
1
55.1
0
ENDSEC
0
EOF
