999
Creator: CLJ++
0
SECTION
2
HEADER
9
$ACADVER
1
AC1009
9
$EXTMIN
10
0
20
0
9
$EXTMAX
10
175
20
37
9
$LIMMIN
10
0
20
0
9
$LIMMAX
10
175
20
37
0
ENDSEC
0
SECTION
2
TABLES
0
TABLE
2
VPORT
70
1
0
VPORT
2
*Active
70
0
10
0
20
0
11
1
21
1
12
87.5
22
18.5
13
0
23
0
14
0.5
24
0.5
15
0.5
25
0.5
16
0
26
0
36
1
17
0
27
0
37
0
40
37
41
1
42
50
43
0
44
0
50
0
51
0
71
0
72
1
73
1
74
3
75
0
76
0
77
0
78
0
0
ENDTAB
0
TABLE
2
LTYPE
70
1
0
LTYPE
2
CONTINUOUS
70
0
3
Solid line
72
65
73
0
40
0
0
ENDTAB
0
TABLE
2
LAYER
70
1
0
LAYER
2
0
70
0
62
255
6
CONTINUOUS
0
ENDTAB
0
ENDSEC
0
SECTION
2
ENTITIES
0
POLYLINE
8
0
10
0
20
0
66
1
70
1
62
1
0
VERTEX
8
0
10
89.0978
20
19.8034
0
VERTEX
8
0
10
89.6669
20
19.1956
0
VERTEX
8
0
10
96.8676
20
15.4426
0
VERTEX
8
0
10
99.9542
20
13.7789
0
VERTEX
8
0
10
104.846
20
10.9827
0
VERTEX
8
0
10
106.342
20
11.9278
0
VERTEX
8
0
10
108.29
20
12.1633
0
VERTEX
8
0
10
115.355
20
12.6455
0
VERTEX
8
0
10
118.586
20
14.7055
0
VERTEX
8
0
10
122.657
20
16.6702
0
VERTEX
8
0
10
121.944
20
18.0094
0
VERTEX
8
0
10
120.913
20
18.629
0
VERTEX
8
0
10
117.784
20
18.9886
0
VERTEX
8
0
10
109.431
20
20.0365
0
VERTEX
8
0
10
102.348
20
20.9386
0
VERTEX
8
0
10
98.1649
20
21.4795
0
VERTEX
8
0
10
93.4214
20
21.4963
0
VERTEX
8
0
10
93.1102
20
21.9763
0
SEQEND
0
POLYLINE
8
0
10
0
20
0
66
1
70
1
62
1
0
VERTEX
8
0
10
79.053
20
17.1815
0
VERTEX
8
0
10
79.0549
20
17.2623
0
VERTEX
8
0
10
79.2145
20
24.196
0
VERTEX
8
0
10
83.3317
20
26.2563
0
VERTEX
8
0
10
90.3807
20
29.8086
0
VERTEX
8
0
10
93.4726
20
29.7903
0
VERTEX
8
0
10
98.6851
20
29.7574
0
VERTEX
8
0
10
103.39
20
29.1671
0
VERTEX
8
0
10
110.47
20
28.2654
0
VERTEX
8
0
10
118.834
20
27.2162
0
VERTEX
8
0
10
122.919
20
26.677
0
VERTEX
8
0
10
125.247
20
25.6174
0
VERTEX
8
0
10
131.081
20
23.1328
0
VERTEX
8
0
10
131.09
20
20.9469
0
VERTEX
8
0
10
131.087
20
15.4026
0
VERTEX
8
0
10
130.309
20
13.9254
0
VERTEX
8
0
10
128.987
20
10.7947
0
VERTEX
8
0
10
122.497
20
7.39145
0
VERTEX
8
0
10
117.432
20
4.61544
0
VERTEX
8
0
10
108.993
20
3.8989
0
VERTEX
8
0
10
108.098
20
3.82167
0
VERTEX
8
0
10
106.748
20
3.41257
0
VERTEX
8
0
10
104.419
20
2.69949
0
VERTEX
8
0
10
102.295
20
3.64243
0
VERTEX
8
0
10
96.3642
20
6.30187
0
VERTEX
8
0
10
93.0032
20
8.10363
0
VERTEX
8
0
10
85.5341
20
12.0044
0
VERTEX
8
0
10
83.9203
20
13.3235
0
VERTEX
8
0
10
79.1984
20
17.0667
0
VERTEX
8
0
10
79.0764
20
17.1641
0
SEQEND
0
TEXT
8
0
10
86.8769
20
22.9385
40
5
1
56.1
0
ENDSEC
0
EOF
