999
Creator: CLJ++
0
SECTION
2
HEADER
9
$ACADVER
1
AC1009
9
$EXTMIN
10
0
20
0
9
$EXTMAX
10
175
20
37
9
$LIMMIN
10
0
20
0
9
$LIMMAX
10
175
20
37
0
ENDSEC
0
SECTION
2
TABLES
0
TABLE
2
VPORT
70
1
0
VPORT
2
*Active
70
0
10
0
20
0
11
1
21
1
12
87.5
22
18.5
13
0
23
0
14
0.5
24
0.5
15
0.5
25
0.5
16
0
26
0
36
1
17
0
27
0
37
0
40
37
41
1
42
50
43
0
44
0
50
0
51
0
71
0
72
1
73
1
74
3
75
0
76
0
77
0
78
0
0
ENDTAB
0
TABLE
2
LTYPE
70
1
0
LTYPE
2
CONTINUOUS
70
0
3
Solid line
72
65
73
0
40
0
0
ENDTAB
0
TABLE
2
LAYER
70
1
0
LAYER
2
0
70
0
62
255
6
CONTINUOUS
0
ENDTAB
0
ENDSEC
0
SECTION
2
ENTITIES
0
POLYLINE
8
0
10
0
20
0
66
1
70
1
62
1
0
VERTEX
8
0
10
114.829
20
12.2334
0
VERTEX
8
0
10
107.705
20
11.6145
0
VERTEX
8
0
10
105.826
20
11.2172
0
VERTEX
8
0
10
103.296
20
10.4097
0
VERTEX
8
0
10
100.217
20
13.3527
0
VERTEX
8
0
10
99.0898
20
13.9923
0
VERTEX
8
0
10
94.921
20
16.2147
0
VERTEX
8
0
10
91.0183
20
18.3068
0
VERTEX
8
0
10
90.863
20
18.2928
0
VERTEX
8
0
10
88.9807
20
19.8503
0
VERTEX
8
0
10
87.3163
20
20.0329
0
VERTEX
8
0
10
91.6507
20
21.2423
0
VERTEX
8
0
10
98.7377
20
21.199
0
VERTEX
8
0
10
98.6818
20
21.2475
0
VERTEX
8
0
10
109.869
20
19.8564
0
VERTEX
8
0
10
117.482
20
18.8628
0
VERTEX
8
0
10
121.396
20
18.3796
0
VERTEX
8
0
10
122.562
20
17.7312
0
VERTEX
8
0
10
122.656
20
15.0483
0
VERTEX
8
0
10
115.867
20
12.5506
0
SEQEND
0
POLYLINE
8
0
10
0
20
0
66
1
70
1
62
1
0
VERTEX
8
0
10
117.804
20
4.33883
0
VERTEX
8
0
10
117.693
20
4.27765
0
VERTEX
8
0
10
117.507
20
4.26186
0
VERTEX
8
0
10
115.535
20
4.0917
0
VERTEX
8
0
10
108.488
20
3.47979
0
VERTEX
8
0
10
108.142
20
3.37989
0
VERTEX
8
0
10
104.686
20
2.35648
0
VERTEX
8
0
10
104.012
20
2.66714
0
VERTEX
8
0
10
96.7442
20
5.95493
0
VERTEX
8
0
10
95.2189
20
6.7949
0
VERTEX
8
0
10
91.0685
20
9.0074
0
VERTEX
8
0
10
87.1741
20
11.0951
0
VERTEX
8
0
10
86.0791
20
11.667
0
VERTEX
8
0
10
83.7864
20
13.5411
0
VERTEX
8
0
10
79.7924
20
16.8428
0
VERTEX
8
0
10
79.9501
20
22.5892
0
VERTEX
8
0
10
79.9842
20
23.8482
0
VERTEX
8
0
10
91.0472
20
29.4007
0
VERTEX
8
0
10
91.0828
20
29.4182
0
VERTEX
8
0
10
98.7883
20
29.3711
0
VERTEX
8
0
10
99.6253
20
29.3652
0
VERTEX
8
0
10
110.897
20
27.9638
0
VERTEX
8
0
10
118.549
20
26.9651
0
VERTEX
8
0
10
123.27
20
26.3341
0
VERTEX
8
0
10
125.68
20
25.2853
0
VERTEX
8
0
10
130.598
20
23.3092
0
VERTEX
8
0
10
131.947
20
22.7685
0
VERTEX
8
0
10
131.929
20
18.6827
0
VERTEX
8
0
10
131.876
20
15.075
0
VERTEX
8
0
10
131.628
20
14.6892
0
VERTEX
8
0
10
129.436
20
10.4854
0
VERTEX
8
0
10
128.396
20
9.8869
0
VERTEX
8
0
10
119.659
20
5.3113
0
SEQEND
0
TEXT
8
0
10
86.6252
20
22.5563
40
5
1
57.1
0
ENDSEC
0
EOF
