999
Creator: CLJ++
0
SECTION
2
HEADER
9
$ACADVER
1
AC1009
9
$EXTMIN
10
0
20
0
9
$EXTMAX
10
175
20
37
9
$LIMMIN
10
0
20
0
9
$LIMMAX
10
175
20
37
0
ENDSEC
0
SECTION
2
TABLES
0
TABLE
2
VPORT
70
1
0
VPORT
2
*Active
70
0
10
0
20
0
11
1
21
1
12
87.5
22
18.5
13
0
23
0
14
0.5
24
0.5
15
0.5
25
0.5
16
0
26
0
36
1
17
0
27
0
37
0
40
37
41
1
42
50
43
0
44
0
50
0
51
0
71
0
72
1
73
1
74
3
75
0
76
0
77
0
78
0
0
ENDTAB
0
TABLE
2
LTYPE
70
1
0
LTYPE
2
CONTINUOUS
70
0
3
Solid line
72
65
73
0
40
0
0
ENDTAB
0
TABLE
2
LAYER
70
1
0
LAYER
2
0
70
0
62
255
6
CONTINUOUS
0
ENDTAB
0
ENDSEC
0
SECTION
2
ENTITIES
0
POLYLINE
8
0
10
0
20
0
66
1
70
1
62
1
0
VERTEX
8
0
10
91.7099
20
17.7398
0
VERTEX
8
0
10
100.95
20
12.6509
0
VERTEX
8
0
10
101.57
20
12.3926
0
VERTEX
8
0
10
103.82
20
11.356
0
VERTEX
8
0
10
107.382
20
10.942
0
VERTEX
8
0
10
109.523
20
11.1588
0
VERTEX
8
0
10
115.615
20
11.6384
0
VERTEX
8
0
10
124.285
20
16.6155
0
VERTEX
8
0
10
122.029
20
18.2166
0
VERTEX
8
0
10
112.601
20
19.402
0
VERTEX
8
0
10
99.5728
20
21.1202
0
VERTEX
8
0
10
96.4911
20
21.1046
0
VERTEX
8
0
10
94.1936
20
21.4242
0
VERTEX
8
0
10
89.7247
20
19.0802
0
VERTEX
8
0
10
87.3404
20
19.0582
0
VERTEX
8
0
10
88.1463
20
18.9083
0
SEQEND
0
POLYLINE
8
0
10
0
20
0
66
1
70
1
62
1
0
VERTEX
8
0
10
86.6241
20
11.3289
0
VERTEX
8
0
10
81.1053
20
15.973
0
VERTEX
8
0
10
80.4632
20
16.5046
0
VERTEX
8
0
10
80.5025
20
17.8999
0
VERTEX
8
0
10
80.6632
20
23.5553
0
VERTEX
8
0
10
86.1584
20
26.2975
0
VERTEX
8
0
10
92.0588
20
29.1863
0
VERTEX
8
0
10
96.5477
20
29.1548
0
VERTEX
8
0
10
100.402
20
29.1277
0
VERTEX
8
0
10
113.646
20
27.3843
0
VERTEX
8
0
10
123.852
20
26.0579
0
VERTEX
8
0
10
130.102
20
23.5591
0
VERTEX
8
0
10
132.324
20
22.5555
0
VERTEX
8
0
10
132.389
20
21.3256
0
VERTEX
8
0
10
132.294
20
14.818
0
VERTEX
8
0
10
130.322
20
11.7472
0
VERTEX
8
0
10
129.628
20
10.4181
0
VERTEX
8
0
10
119.321
20
4.48309
0
VERTEX
8
0
10
117.95
20
3.76552
0
VERTEX
8
0
10
110.172
20
3.13467
0
VERTEX
8
0
10
108.877
20
3.03156
0
VERTEX
8
0
10
107.338
20
2.59938
0
VERTEX
8
0
10
104.954
20
1.93841
0
VERTEX
8
0
10
100.423
20
4.05724
0
VERTEX
8
0
10
98.218
20
5.07301
0
VERTEX
8
0
10
97.1231
20
5.56832
0
VERTEX
8
0
10
87.8375
20
10.682
0
SEQEND
0
TEXT
8
0
10
91.3159
20
22.2921
40
5
1
58.1
0
ENDSEC
0
EOF
