999
Creator: CLJ++
0
SECTION
2
HEADER
9
$ACADVER
1
AC1009
9
$EXTMIN
10
0
20
0
9
$EXTMAX
10
175
20
37
9
$LIMMIN
10
0
20
0
9
$LIMMAX
10
175
20
37
0
ENDSEC
0
SECTION
2
TABLES
0
TABLE
2
VPORT
70
1
0
VPORT
2
*Active
70
0
10
0
20
0
11
1
21
1
12
87.5
22
18.5
13
0
23
0
14
0.5
24
0.5
15
0.5
25
0.5
16
0
26
0
36
1
17
0
27
0
37
0
40
37
41
1
42
50
43
0
44
0
50
0
51
0
71
0
72
1
73
1
74
3
75
0
76
0
77
0
78
0
0
ENDTAB
0
TABLE
2
LTYPE
70
1
0
LTYPE
2
CONTINUOUS
70
0
3
Solid line
72
65
73
0
40
0
0
ENDTAB
0
TABLE
2
LAYER
70
1
0
LAYER
2
0
70
0
62
255
6
CONTINUOUS
0
ENDTAB
0
ENDSEC
0
SECTION
2
ENTITIES
0
POLYLINE
8
0
10
0
20
0
66
1
70
1
62
1
0
VERTEX
8
0
10
124.629
20
17.2729
0
VERTEX
8
0
10
123.28
20
18.0075
0
VERTEX
8
0
10
102.738
20
20.6722
0
VERTEX
8
0
10
100.751
20
20.9496
0
VERTEX
8
0
10
94.7434
20
20.9268
0
VERTEX
8
0
10
88.7862
20
18.1134
0
VERTEX
8
0
10
91.7636
20
17.4528
0
VERTEX
8
0
10
94.5257
20
15.9898
0
VERTEX
8
0
10
100.936
20
12.3598
0
VERTEX
8
0
10
105.353
20
9.49734
0
VERTEX
8
0
10
106.821
20
10.2644
0
VERTEX
8
0
10
108.525
20
10.5935
0
VERTEX
8
0
10
115.74
20
11.2673
0
VERTEX
8
0
10
116.275
20
11.4007
0
VERTEX
8
0
10
116.227
20
11.3095
0
VERTEX
8
0
10
123.863
20
15.3678
0
SEQEND
0
POLYLINE
8
0
10
0
20
0
66
1
70
1
62
1
0
VERTEX
8
0
10
130.302
20
10.8099
0
VERTEX
8
0
10
129.956
20
10.2951
0
VERTEX
8
0
10
129.619
20
9.98928
0
VERTEX
8
0
10
120.085
20
4.38308
0
VERTEX
8
0
10
118.481
20
3.78536
0
VERTEX
8
0
10
116.669
20
3.39334
0
VERTEX
8
0
10
109.307
20
2.70366
0
VERTEX
8
0
10
108.957
20
2.62922
0
VERTEX
8
0
10
106.449
20
1.904
0
VERTEX
8
0
10
105.222
20
1.56998
0
VERTEX
8
0
10
104.435
20
1.93745
0
VERTEX
8
0
10
97.2918
20
5.31877
0
VERTEX
8
0
10
90.6498
20
9.07334
0
VERTEX
8
0
10
87.1691
20
10.9913
0
VERTEX
8
0
10
83.4129
20
14.2192
0
VERTEX
8
0
10
81.1005
20
16.1666
0
VERTEX
8
0
10
81.2909
20
22.5964
0
VERTEX
8
0
10
81.3061
20
23.11
0
VERTEX
8
0
10
85.2199
20
25.0408
0
VERTEX
8
0
10
92.9529
20
28.8478
0
VERTEX
8
0
10
93.7117
20
28.8514
0
VERTEX
8
0
10
101
20
28.8741
0
VERTEX
8
0
10
103.753
20
28.5354
0
VERTEX
8
0
10
124.577
20
25.8291
0
VERTEX
8
0
10
127.768
20
24.5534
0
VERTEX
8
0
10
132.643
20
22.3511
0
VERTEX
8
0
10
132.786
20
19.6523
0
VERTEX
8
0
10
132.711
20
14.561
0
SEQEND
0
TEXT
8
0
10
88.8243
20
21.9701
40
5
1
59.1
0
ENDSEC
0
EOF
