999
Creator: CLJ++
0
SECTION
2
HEADER
9
$ACADVER
1
AC1009
9
$EXTMIN
10
0
20
0
9
$EXTMAX
10
175
20
37
9
$LIMMIN
10
0
20
0
9
$LIMMAX
10
175
20
37
0
ENDSEC
0
SECTION
2
TABLES
0
TABLE
2
VPORT
70
1
0
VPORT
2
*Active
70
0
10
0
20
0
11
1
21
1
12
87.5
22
18.5
13
0
23
0
14
0.5
24
0.5
15
0.5
25
0.5
16
0
26
0
36
1
17
0
27
0
37
0
40
37
41
1
42
50
43
0
44
0
50
0
51
0
71
0
72
1
73
1
74
3
75
0
76
0
77
0
78
0
0
ENDTAB
0
TABLE
2
LTYPE
70
1
0
LTYPE
2
CONTINUOUS
70
0
3
Solid line
72
65
73
0
40
0
0
ENDTAB
0
TABLE
2
LAYER
70
1
0
LAYER
2
0
70
0
62
255
6
CONTINUOUS
0
ENDTAB
0
ENDSEC
0
SECTION
2
ENTITIES
0
POLYLINE
8
0
10
0
20
0
66
1
70
1
62
1
0
VERTEX
8
0
10
124.025
20
17.899
0
VERTEX
8
0
10
123.453
20
17.9684
0
VERTEX
8
0
10
122.948
20
18.0306
0
VERTEX
8
0
10
100.616
20
20.8887
0
VERTEX
8
0
10
99.9928
20
20.8866
0
VERTEX
8
0
10
96.447
20
21.3301
0
VERTEX
8
0
10
93.6656
20
20.0277
0
VERTEX
8
0
10
88.7968
20
18.9523
0
VERTEX
8
0
10
91.714
20
17.4825
0
VERTEX
8
0
10
91.8875
20
17.16
0
VERTEX
8
0
10
93.4466
20
16.3095
0
VERTEX
8
0
10
101.054
20
12.0052
0
VERTEX
8
0
10
105.803
20
9.16577
0
VERTEX
8
0
10
105.937
20
9.68883
0
VERTEX
8
0
10
108.907
20
10.3002
0
VERTEX
8
0
10
113.992
20
10.7702
0
VERTEX
8
0
10
116.887
20
11.3956
0
VERTEX
8
0
10
118.964
20
12.1338
0
VERTEX
8
0
10
124.4
20
15.1188
0
VERTEX
8
0
10
124.854
20
15.8649
0
SEQEND
0
POLYLINE
8
0
10
0
20
0
66
1
70
1
62
1
0
VERTEX
8
0
10
131.39
20
11.5964
0
VERTEX
8
0
10
130.399
20
10.1241
0
VERTEX
8
0
10
129.436
20
9.2495
0
VERTEX
8
0
10
122.542
20
5.19573
0
VERTEX
8
0
10
119.06
20
3.89743
0
VERTEX
8
0
10
115.122
20
3.04594
0
VERTEX
8
0
10
109.89
20
2.55578
0
VERTEX
8
0
10
107.872
20
2.12584
0
VERTEX
8
0
10
105.281
20
1.37676
0
VERTEX
8
0
10
103.006
20
2.45232
0
VERTEX
8
0
10
97.4151
20
5.09876
0
VERTEX
8
0
10
89.6019
20
9.51537
0
VERTEX
8
0
10
87.4458
20
10.7403
0
VERTEX
8
0
10
86.5559
20
11.6229
0
VERTEX
8
0
10
81.6284
20
15.8612
0
VERTEX
8
0
10
81.8489
20
22.5387
0
VERTEX
8
0
10
81.8973
20
23.2086
0
VERTEX
8
0
10
90.407
20
27.1216
0
VERTEX
8
0
10
93.7803
20
28.6671
0
VERTEX
8
0
10
94.7127
20
28.6865
0
VERTEX
8
0
10
100.048
20
28.6929
0
VERTEX
8
0
10
101.563
20
28.6376
0
VERTEX
8
0
10
123.938
20
25.7741
0
VERTEX
8
0
10
124.44
20
25.7123
0
VERTEX
8
0
10
125.302
20
25.6004
0
VERTEX
8
0
10
125.434
20
25.5476
0
VERTEX
8
0
10
132.962
20
22.1467
0
VERTEX
8
0
10
133.183
20
17.9789
0
VERTEX
8
0
10
133.129
20
14.304
0
SEQEND
0
TEXT
8
0
10
121.726
20
16.5135
40
5
1
60.1
0
ENDSEC
0
EOF
