999
Creator: CLJ++
0
SECTION
2
HEADER
9
$ACADVER
1
AC1009
9
$EXTMIN
10
0
20
0
9
$EXTMAX
10
175
20
37
9
$LIMMIN
10
0
20
0
9
$LIMMAX
10
175
20
37
0
ENDSEC
0
SECTION
2
TABLES
0
TABLE
2
VPORT
70
1
0
VPORT
2
*Active
70
0
10
0
20
0
11
1
21
1
12
87.5
22
18.5
13
0
23
0
14
0.5
24
0.5
15
0.5
25
0.5
16
0
26
0
36
1
17
0
27
0
37
0
40
37
41
1
42
50
43
0
44
0
50
0
51
0
71
0
72
1
73
1
74
3
75
0
76
0
77
0
78
0
0
ENDTAB
0
TABLE
2
LTYPE
70
1
0
LTYPE
2
CONTINUOUS
70
0
3
Solid line
72
65
73
0
40
0
0
ENDTAB
0
TABLE
2
LAYER
70
1
0
LAYER
2
0
70
0
62
255
6
CONTINUOUS
0
ENDTAB
0
ENDSEC
0
SECTION
2
ENTITIES
0
POLYLINE
8
0
10
0
20
0
66
1
70
1
62
1
0
VERTEX
8
0
10
126.924
20
17.624
0
VERTEX
8
0
10
125.049
20
17.2287
0
VERTEX
8
0
10
123.858
20
17.9218
0
VERTEX
8
0
10
117.343
20
18.7527
0
VERTEX
8
0
10
101.04
20
20.8402
0
VERTEX
8
0
10
98.0836
20
20.9285
0
VERTEX
8
0
10
95.5601
20
21.0823
0
VERTEX
8
0
10
93.7818
20
20.0472
0
VERTEX
8
0
10
89.0994
20
18.6326
0
VERTEX
8
0
10
90.3345
20
18.5889
0
VERTEX
8
0
10
91.9086
20
16.8685
0
VERTEX
8
0
10
97.1349
20
13.9342
0
VERTEX
8
0
10
101.121
20
11.6773
0
VERTEX
8
0
10
103.825
20
10.405
0
VERTEX
8
0
10
109.27
20
9.99776
0
VERTEX
8
0
10
112.252
20
10.2684
0
VERTEX
8
0
10
117.499
20
11.3906
0
VERTEX
8
0
10
121.742
20
12.9685
0
VERTEX
8
0
10
124.954
20
14.8788
0
VERTEX
8
0
10
124.937
20
14.8697
0
SEQEND
0
POLYLINE
8
0
10
0
20
0
66
1
70
1
62
1
0
VERTEX
8
0
10
132.478
20
12.3829
0
VERTEX
8
0
10
130.843
20
9.95304
0
VERTEX
8
0
10
129.254
20
8.50972
0
VERTEX
8
0
10
125
20
6.00837
0
VERTEX
8
0
10
119.638
20
4.00951
0
VERTEX
8
0
10
113.575
20
2.69854
0
VERTEX
8
0
10
110.473
20
2.40791
0
VERTEX
8
0
10
106.786
20
1.62245
0
VERTEX
8
0
10
105.319
20
1.19825
0
VERTEX
8
0
10
100.539
20
3.45841
0
VERTEX
8
0
10
97.5384
20
4.87876
0
VERTEX
8
0
10
93.3451
20
7.24916
0
VERTEX
8
0
10
87.5362
20
10.5491
0
VERTEX
8
0
10
85.1389
20
12.9269
0
VERTEX
8
0
10
82.0429
20
15.5898
0
VERTEX
8
0
10
82.1815
20
19.7853
0
VERTEX
8
0
10
82.4346
20
23.2875
0
VERTEX
8
0
10
90.5708
20
27.0288
0
VERTEX
8
0
10
94.0005
20
28.607
0
VERTEX
8
0
10
98.2096
20
28.612
0
VERTEX
8
0
10
101.889
20
28.4777
0
VERTEX
8
0
10
118.327
20
26.3741
0
VERTEX
8
0
10
125.481
20
25.433
0
VERTEX
8
0
10
128.188
20
24.2429
0
VERTEX
8
0
10
133.28
20
21.9422
0
VERTEX
8
0
10
133.58
20
16.3056
0
VERTEX
8
0
10
133.547
20
14.047
0
SEQEND
0
TEXT
8
0
10
97.8245
20
3.69541
40
5
1
61.1
0
ENDSEC
0
EOF
