999
Creator: CLJ++
0
SECTION
2
HEADER
9
$ACADVER
1
AC1009
9
$EXTMIN
10
0
20
0
9
$EXTMAX
10
175
20
37
9
$LIMMIN
10
0
20
0
9
$LIMMAX
10
175
20
37
0
ENDSEC
0
SECTION
2
TABLES
0
TABLE
2
VPORT
70
1
0
VPORT
2
*Active
70
0
10
0
20
0
11
1
21
1
12
87.5
22
18.5
13
0
23
0
14
0.5
24
0.5
15
0.5
25
0.5
16
0
26
0
36
1
17
0
27
0
37
0
40
37
41
1
42
50
43
0
44
0
50
0
51
0
71
0
72
1
73
1
74
3
75
0
76
0
77
0
78
0
0
ENDTAB
0
TABLE
2
LTYPE
70
1
0
LTYPE
2
CONTINUOUS
70
0
3
Solid line
72
65
73
0
40
0
0
ENDTAB
0
TABLE
2
LAYER
70
1
0
LAYER
2
0
70
0
62
255
6
CONTINUOUS
0
ENDTAB
0
ENDSEC
0
SECTION
2
ENTITIES
0
POLYLINE
8
0
10
0
20
0
66
1
70
1
62
1
0
VERTEX
8
0
10
124.038
20
17.8763
0
VERTEX
8
0
10
110.028
20
19.6936
0
VERTEX
8
0
10
101.527
20
20.7865
0
VERTEX
8
0
10
96.1721
20
20.9711
0
VERTEX
8
0
10
96.7148
20
21.3987
0
VERTEX
8
0
10
90.1397
20
18.3386
0
VERTEX
8
0
10
89.6095
20
19.7421
0
VERTEX
8
0
10
89.402
20
18.313
0
VERTEX
8
0
10
91.9297
20
16.5771
0
VERTEX
8
0
10
100.823
20
11.5591
0
VERTEX
8
0
10
101.187
20
11.3494
0
VERTEX
8
0
10
101.305
20
11.3012
0
VERTEX
8
0
10
109.61
20
9.6833
0
VERTEX
8
0
10
110.522
20
9.76231
0
VERTEX
8
0
10
118.111
20
11.3856
0
VERTEX
8
0
10
124.469
20
13.7733
0
VERTEX
8
0
10
125.474
20
14.6207
0
SEQEND
0
POLYLINE
8
0
10
0
20
0
66
1
70
1
62
1
0
VERTEX
8
0
10
133.566
20
13.1695
0
VERTEX
8
0
10
131.286
20
9.78202
0
VERTEX
8
0
10
129.071
20
7.76994
0
VERTEX
8
0
10
127.457
20
6.82102
0
VERTEX
8
0
10
120.216
20
4.12158
0
VERTEX
8
0
10
112.028
20
2.35113
0
VERTEX
8
0
10
111.056
20
2.26003
0
VERTEX
8
0
10
105.7
20
1.11907
0
VERTEX
8
0
10
105.357
20
1.01973
0
VERTEX
8
0
10
98.0721
20
4.46449
0
VERTEX
8
0
10
97.6617
20
4.65875
0
VERTEX
8
0
10
97.0882
20
4.98295
0
VERTEX
8
0
10
87.6267
20
10.3579
0
VERTEX
8
0
10
83.7219
20
14.2309
0
VERTEX
8
0
10
82.4575
20
15.3184
0
VERTEX
8
0
10
82.5141
20
17.0319
0
VERTEX
8
0
10
82.9718
20
23.3665
0
VERTEX
8
0
10
86.9791
20
25.2091
0
VERTEX
8
0
10
94.1928
20
28.5285
0
VERTEX
8
0
10
96.3707
20
28.5311
0
VERTEX
8
0
10
102.216
20
28.3177
0
VERTEX
8
0
10
111.004
20
27.193
0
VERTEX
8
0
10
125.636
20
25.2684
0
VERTEX
8
0
10
131.172
20
22.8345
0
VERTEX
8
0
10
133.599
20
21.7378
0
VERTEX
8
0
10
133.977
20
14.6322
0
VERTEX
8
0
10
133.965
20
13.79
0
SEQEND
0
TEXT
8
0
10
99.2435
20
3.35973
40
5
1
62.1
0
ENDSEC
0
EOF
