999
Creator: CLJ++
0
SECTION
2
HEADER
9
$ACADVER
1
AC1009
9
$EXTMIN
10
0
20
0
9
$EXTMAX
10
881.649
20
628.919
9
$LIMMIN
10
0
20
0
9
$LIMMAX
10
881.649
20
628.919
0
ENDSEC
0
SECTION
2
TABLES
0
TABLE
2
VPORT
70
1
0
VPORT
2
*Active
70
0
10
0
20
0
11
1
21
1
12
440.825
22
314.46
13
0
23
0
14
0.5
24
0.5
15
0.5
25
0.5
16
0
26
0
36
1
17
0
27
0
37
0
40
628.919
41
1
42
50
43
0
44
0
50
0
51
0
71
0
72
1
73
1
74
3
75
0
76
0
77
0
78
0
0
ENDTAB
0
TABLE
2
LTYPE
70
1
0
LTYPE
2
CONTINUOUS
70
0
3
Solid line
72
65
73
0
40
0
0
ENDTAB
0
TABLE
2
LAYER
70
1
0
LAYER
2
0
70
0
62
255
6
CONTINUOUS
0
ENDTAB
0
ENDSEC
0
SECTION
2
ENTITIES
0
POLYLINE
8
0
10
0
20
0
66
1
0
VERTEX
8
0
10
419.233
20
613.722
0
VERTEX
8
0
10
418.128
20
614.215
0
VERTEX
8
0
10
416.802
20
614.713
0
VERTEX
8
0
10
414.792
20
615.016
0
VERTEX
8
0
10
413.263
20
614.594
0
VERTEX
8
0
10
410.521
20
615.242
0
VERTEX
8
0
10
409.784
20
615.939
0
VERTEX
8
0
10
406.827
20
617.079
0
VERTEX
8
0
10
406.301
20
617.227
0
VERTEX
8
0
10
393.83
20
616.085
0
VERTEX
8
0
10
389.239
20
615.433
0
VERTEX
8
0
10
375.8
20
614.486
0
VERTEX
8
0
10
372.557
20
614.39
0
VERTEX
8
0
10
369.934
20
614.217
0
VERTEX
8
0
10
367.043
20
613.817
0
VERTEX
8
0
10
366.505
20
613.771
0
VERTEX
8
0
10
366.072
20
613.715
0
VERTEX
8
0
10
363.471
20
613.535
0
VERTEX
8
0
10
363.269
20
613.453
0
VERTEX
8
0
10
363.258
20
613.449
0
VERTEX
8
0
10
360.456
20
612.471
0
VERTEX
8
0
10
359.068
20
611.865
0
VERTEX
8
0
10
353.679
20
609.76
0
VERTEX
8
0
10
344.885
20
605.667
0
VERTEX
8
0
10
343.241
20
604.984
0
VERTEX
8
0
10
340.027
20
603.348
0
VERTEX
8
0
10
338.444
20
602.401
0
VERTEX
8
0
10
332.716
20
599.349
0
VERTEX
8
0
10
329.876
20
597.658
0
VERTEX
8
0
10
328.42
20
596.928
0
VERTEX
8
0
10
327.7
20
596.388
0
VERTEX
8
0
10
327.309
20
595.926
0
VERTEX
8
0
10
326.452
20
595.368
0
VERTEX
8
0
10
324.751
20
594.627
0
VERTEX
8
0
10
323.035
20
593.531
0
VERTEX
8
0
10
321.564
20
592.872
0
VERTEX
8
0
10
320.167
20
591.836
0
VERTEX
8
0
10
318.995
20
591.238
0
VERTEX
8
0
10
317.939
20
590.607
0
VERTEX
8
0
10
316.422
20
589.597
0
VERTEX
8
0
10
315.547
20
589.08
0
VERTEX
8
0
10
313.527
20
587.782
0
VERTEX
8
0
10
312.805
20
587.452
0
VERTEX
8
0
10
312.181
20
587.02
0
VERTEX
8
0
10
310.87
20
586.037
0
VERTEX
8
0
10
310.329
20
585.741
0
VERTEX
8
0
10
308.896
20
584.857
0
VERTEX
8
0
10
308.426
20
584.603
0
VERTEX
8
0
10
307.957
20
584.292
0
VERTEX
8
0
10
306.983
20
583.744
0
VERTEX
8
0
10
306.555
20
583.561
0
VERTEX
8
0
10
306.106
20
583.322
0
VERTEX
8
0
10
305.817
20
583.123
0
VERTEX
8
0
10
305.63
20
583.01
0
VERTEX
8
0
10
305.469
20
582.922
0
VERTEX
8
0
10
305.541
20
582.856
0
VERTEX
8
0
10
305.574
20
582.847
0
VERTEX
8
0
10
307.041
20
582.155
0
VERTEX
8
0
10
307.799
20
582.025
0
VERTEX
8
0
10
309.326
20
581.627
0
VERTEX
8
0
10
312.091
20
581.206
0
SEQEND
0
POLYLINE
8
0
10
0
20
0
66
1
0
VERTEX
8
0
10
419.233
20
612.487
0
VERTEX
8
0
10
419.233
20
613.722
0
SEQEND
0
POLYLINE
8
0
10
0
20
0
66
1
0
VERTEX
8
0
10
390.191
20
541.96
0
VERTEX
8
0
10
381.758
20
541.015
0
VERTEX
8
0
10
381.159
20
540.865
0
VERTEX
8
0
10
378.958
20
542.755
0
VERTEX
8
0
10
374.764
20
545.451
0
VERTEX
8
0
10
417.611
20
562.168
0
VERTEX
8
0
10
418.673
20
562.686
0
VERTEX
8
0
10
422.214
20
564.832
0
VERTEX
8
0
10
422.67
20
565.037
0
VERTEX
8
0
10
424.759
20
565.846
0
VERTEX
8
0
10
431.572
20
567.183
0
VERTEX
8
0
10
434.239
20
568.052
0
VERTEX
8
0
10
434.92
20
568.097
0
VERTEX
8
0
10
436.27
20
568.252
0
VERTEX
8
0
10
444.418
20
570.145
0
VERTEX
8
0
10
448.292
20
571.263
0
VERTEX
8
0
10
480.351
20
575.357
0
VERTEX
8
0
10
480.618
20
574.821
0
VERTEX
8
0
10
481.026
20
574.354
0
VERTEX
8
0
10
482.693
20
571.105
0
SEQEND
0
POLYLINE
8
0
10
0
20
0
66
1
0
VERTEX
8
0
10
551.084
20
538.67
0
VERTEX
8
0
10
543.581
20
538.32
0
VERTEX
8
0
10
532.964
20
536.945
0
VERTEX
8
0
10
526.596
20
536.476
0
VERTEX
8
0
10
516.787
20
534.737
0
VERTEX
8
0
10
515.959
20
534.627
0
VERTEX
8
0
10
515.065
20
534.461
0
VERTEX
8
0
10
492.757
20
528.446
0
VERTEX
8
0
10
473.65
20
520.221
0
VERTEX
8
0
10
469.901
20
518.213
0
VERTEX
8
0
10
462.586
20
514.897
0
VERTEX
8
0
10
458.014
20
513.203
0
VERTEX
8
0
10
455.341
20
511.743
0
VERTEX
8
0
10
454.669
20
511.492
0
VERTEX
8
0
10
449.524
20
509.178
0
VERTEX
8
0
10
445.549
20
507.054
0
VERTEX
8
0
10
445.152
20
506.883
0
VERTEX
8
0
10
441.628
20
505.113
0
VERTEX
8
0
10
441.415
20
504.882
0
VERTEX
8
0
10
438.78
20
503.719
0
VERTEX
8
0
10
438.592
20
501.637
0
VERTEX
8
0
10
439.165
20
500.388
0
VERTEX
8
0
10
437.832
20
499.003
0
VERTEX
8
0
10
441.821
20
499.534
0
SEQEND
0
POLYLINE
8
0
10
0
20
0
66
1
0
VERTEX
8
0
10
547.081
20
533.88
0
VERTEX
8
0
10
551.084
20
538.67
0
SEQEND
0
POLYLINE
8
0
10
0
20
0
66
1
0
VERTEX
8
0
10
235.689
20
419.938
0
VERTEX
8
0
10
226.89
20
421.492
0
VERTEX
8
0
10
196.876
20
413.258
0
VERTEX
8
0
10
121.036
20
396.638
0
VERTEX
8
0
10
118.503
20
396.196
0
VERTEX
8
0
10
89.4757
20
393.581
0
VERTEX
8
0
10
89.0685
20
393.56
0
VERTEX
8
0
10
81.6379
20
392.808
0
VERTEX
8
0
10
64.9099
20
390.158
0
VERTEX
8
0
10
58.245
20
388.588
0
VERTEX
8
0
10
56.0394
20
387.922
0
VERTEX
8
0
10
55.1944
20
387.704
0
VERTEX
8
0
10
55.0033
20
387.666
0
VERTEX
8
0
10
53.8556
20
387.301
0
VERTEX
8
0
10
53.6447
20
387.243
0
VERTEX
8
0
10
52.194
20
386.788
0
VERTEX
8
0
10
39.9031
20
381.134
0
VERTEX
8
0
10
39.5604
20
380.795
0
VERTEX
8
0
10
39.4262
20
380.604
0
VERTEX
8
0
10
38.8692
20
380.273
0
VERTEX
8
0
10
38.3369
20
379.739
0
VERTEX
8
0
10
38.5856
20
379.472
0
VERTEX
8
0
10
38.6247
20
379.3
0
VERTEX
8
0
10
39.7255
20
379.08
0
SEQEND
0
POLYLINE
8
0
10
0
20
0
66
1
0
VERTEX
8
0
10
233.38
20
417.771
0
VERTEX
8
0
10
238.342
20
419.488
0
VERTEX
8
0
10
235.689
20
419.938
0
SEQEND
0
POLYLINE
8
0
10
0
20
0
66
1
0
VERTEX
8
0
10
459.296
20
447.22
0
VERTEX
8
0
10
458.789
20
449.456
0
VERTEX
8
0
10
458.134
20
450.943
0
VERTEX
8
0
10
466.084
20
454.963
0
VERTEX
8
0
10
473.905
20
459.711
0
VERTEX
8
0
10
483.473
20
463.946
0
VERTEX
8
0
10
483.899
20
464.106
0
VERTEX
8
0
10
484.737
20
464.457
0
VERTEX
8
0
10
499.505
20
470.029
0
VERTEX
8
0
10
499.824
20
470.243
0
VERTEX
8
0
10
511.341
20
474.656
0
VERTEX
8
0
10
511.339
20
474.656
0
VERTEX
8
0
10
511.339
20
474.657
0
VERTEX
8
0
10
549.961
20
489.652
0
VERTEX
8
0
10
561.128
20
493.366
0
VERTEX
8
0
10
561.328
20
493.442
0
VERTEX
8
0
10
569.136
20
496.084
0
VERTEX
8
0
10
569.321
20
496.134
0
VERTEX
8
0
10
573.208
20
497.405
0
VERTEX
8
0
10
573.689
20
497.54
0
VERTEX
8
0
10
578.289
20
499.092
0
VERTEX
8
0
10
578.837
20
499.23
0
VERTEX
8
0
10
582.263
20
500.309
0
VERTEX
8
0
10
583.084
20
500.431
0
VERTEX
8
0
10
584.339
20
500.569
0
VERTEX
8
0
10
585.802
20
500.841
0
VERTEX
8
0
10
586.927
20
499.436
0
VERTEX
8
0
10
591.201
20
497.156
0
SEQEND
0
POLYLINE
8
0
10
0
20
0
66
1
0
VERTEX
8
0
10
439.042
20
437.125
0
VERTEX
8
0
10
438.857
20
437.047
0
VERTEX
8
0
10
433.3
20
434.4
0
SEQEND
0
POLYLINE
8
0
10
0
20
0
66
1
0
VERTEX
8
0
10
153.026
20
346.14
0
VERTEX
8
0
10
138.515
20
343.218
0
VERTEX
8
0
10
136.708
20
343.178
0
VERTEX
8
0
10
136.297
20
343.187
0
VERTEX
8
0
10
133.96
20
343.099
0
VERTEX
8
0
10
131.721
20
342.936
0
VERTEX
8
0
10
131.042
20
342.958
0
VERTEX
8
0
10
130.196
20
343.122
0
VERTEX
8
0
10
129.23
20
343.398
0
VERTEX
8
0
10
128.33
20
343.738
0
VERTEX
8
0
10
128.243
20
343.765
0
VERTEX
8
0
10
127.915
20
343.889
0
VERTEX
8
0
10
140.397
20
347.943
0
VERTEX
8
0
10
145.076
20
349.66
0
VERTEX
8
0
10
200.347
20
363.351
0
VERTEX
8
0
10
280.582
20
387.969
0
VERTEX
8
0
10
281.953
20
388.325
0
VERTEX
8
0
10
285.259
20
389.362
0
VERTEX
8
0
10
286.299
20
389.579
0
VERTEX
8
0
10
291.29
20
391.191
0
VERTEX
8
0
10
292.082
20
391.315
0
VERTEX
8
0
10
298.188
20
393.209
0
VERTEX
8
0
10
300.71
20
394.122
0
VERTEX
8
0
10
300.779
20
394.061
0
VERTEX
8
0
10
309.557
20
397.099
0
VERTEX
8
0
10
309.563
20
397.298
0
VERTEX
8
0
10
313.289
20
398.51
0
VERTEX
8
0
10
317.168
20
399.96
0
VERTEX
8
0
10
346.26
20
409.294
0
VERTEX
8
0
10
346.936
20
409.544
0
VERTEX
8
0
10
397.043
20
425.006
0
VERTEX
8
0
10
432.493
20
439.059
0
VERTEX
8
0
10
432.631
20
439.05
0
VERTEX
8
0
10
432.738
20
439.015
0
VERTEX
8
0
10
436.041
20
437.664
0
VERTEX
8
0
10
438.259
20
437.82
0
VERTEX
8
0
10
440.039
20
437.634
0
VERTEX
8
0
10
439.042
20
437.125
0
SEQEND
0
POLYLINE
8
0
10
0
20
0
66
1
0
VERTEX
8
0
10
626.019
20
460.279
0
VERTEX
8
0
10
598.419
20
452.468
0
VERTEX
8
0
10
597.096
20
452.003
0
VERTEX
8
0
10
595.756
20
451.636
0
VERTEX
8
0
10
594.435
20
451.156
0
VERTEX
8
0
10
591.331
20
450.463
0
VERTEX
8
0
10
590.513
20
450.312
0
VERTEX
8
0
10
576.701
20
445.528
0
VERTEX
8
0
10
574.669
20
444.616
0
VERTEX
8
0
10
521.373
20
424.096
0
VERTEX
8
0
10
519.231
20
422.996
0
VERTEX
8
0
10
512.655
20
420.571
0
VERTEX
8
0
10
512.982
20
420.364
0
VERTEX
8
0
10
513.935
20
420.253
0
VERTEX
8
0
10
497.236
20
414.052
0
VERTEX
8
0
10
495.435
20
412.959
0
VERTEX
8
0
10
495.323
20
412.863
0
VERTEX
8
0
10
493.914
20
412.294
0
VERTEX
8
0
10
493.769
20
412.128
0
VERTEX
8
0
10
484.61
20
408.392
0
VERTEX
8
0
10
481.55
20
407.268
0
VERTEX
8
0
10
472.833
20
403.252
0
VERTEX
8
0
10
299.852
20
340.484
0
VERTEX
8
0
10
299.901
20
340.484
0
VERTEX
8
0
10
299.431
20
340.038
0
VERTEX
8
0
10
298.927
20
339.658
0
VERTEX
8
0
10
297.813
20
338.735
0
VERTEX
8
0
10
296.501
20
338.002
0
VERTEX
8
0
10
295.937
20
337.563
0
VERTEX
8
0
10
295.999
20
337.431
0
VERTEX
8
0
10
298.497
20
338.22
0
VERTEX
8
0
10
301.852
20
339.127
0
VERTEX
8
0
10
304.097
20
339.858
0
VERTEX
8
0
10
306.148
20
340.393
0
VERTEX
8
0
10
307.548
20
340.055
0
VERTEX
8
0
10
308.976
20
340.42
0
SEQEND
0
POLYLINE
8
0
10
0
20
0
66
1
0
VERTEX
8
0
10
628.134
20
458.81
0
VERTEX
8
0
10
628.232
20
460.894
0
VERTEX
8
0
10
626.019
20
460.279
0
SEQEND
0
POLYLINE
8
0
10
0
20
0
66
1
0
VERTEX
8
0
10
269.849
20
328.6
0
VERTEX
8
0
10
264.407
20
328.133
0
VERTEX
8
0
10
262.655
20
328.064
0
VERTEX
8
0
10
258.708
20
327.629
0
VERTEX
8
0
10
258.317
20
327.655
0
VERTEX
8
0
10
257.614
20
327.73
0
VERTEX
8
0
10
257.12
20
327.601
0
VERTEX
8
0
10
176.096
20
302.125
0
VERTEX
8
0
10
96.5169
20
280.864
0
VERTEX
8
0
10
66.5545
20
274.963
0
VERTEX
8
0
10
66.5543
20
274.963
0
VERTEX
8
0
10
27.8374
20
266.589
0
VERTEX
8
0
10
24.1904
20
265.624
0
VERTEX
8
0
10
23.9407
20
265.538
0
VERTEX
8
0
10
21.4799
20
264.841
0
VERTEX
8
0
10
18.9904
20
264.002
0
VERTEX
8
0
10
18.6151
20
263.899
0
VERTEX
8
0
10
15.5622
20
262.812
0
VERTEX
8
0
10
13.227
20
262.182
0
VERTEX
8
0
10
3.23729
20
257.787
0
VERTEX
8
0
10
3.34306
20
257.701
0
VERTEX
8
0
10
3.80671
20
257.44
0
VERTEX
8
0
10
4.94914
20
257.256
0
VERTEX
8
0
10
5.10167
20
257.252
0
VERTEX
8
0
10
5.1523
20
257.237
0
VERTEX
8
0
10
5.22282
20
257.228
0
VERTEX
8
0
10
6.78364
20
257.442
0
SEQEND
0
POLYLINE
8
0
10
0
20
0
66
1
0
VERTEX
8
0
10
260.086
20
324.817
0
VERTEX
8
0
10
261.465
20
325.28
0
VERTEX
8
0
10
269.715
20
328.517
0
VERTEX
8
0
10
269.747
20
328.528
0
VERTEX
8
0
10
269.94
20
328.607
0
VERTEX
8
0
10
269.849
20
328.6
0
SEQEND
0
POLYLINE
8
0
10
0
20
0
66
1
0
VERTEX
8
0
10
668.315
20
420.48
0
VERTEX
8
0
10
668.752
20
420.592
0
VERTEX
8
0
10
668.755
20
420.217
0
SEQEND
0
POLYLINE
8
0
10
0
20
0
66
1
0
VERTEX
8
0
10
72.5006
20
219.975
0
VERTEX
8
0
10
54.7021
20
216.408
0
VERTEX
8
0
10
65.205
20
222.25
0
VERTEX
8
0
10
65.2298
20
222.255
0
VERTEX
8
0
10
65.2311
20
222.256
0
VERTEX
8
0
10
109.876
20
232.748
0
VERTEX
8
0
10
289.635
20
286.499
0
VERTEX
8
0
10
490.954
20
357.384
0
VERTEX
8
0
10
490.966
20
357.395
0
VERTEX
8
0
10
494.472
20
358.748
0
VERTEX
8
0
10
494.485
20
358.758
0
VERTEX
8
0
10
494.695
20
358.872
0
VERTEX
8
0
10
516.486
20
366.734
0
VERTEX
8
0
10
514.603
20
366.757
0
VERTEX
8
0
10
513.959
20
367.021
0
VERTEX
8
0
10
517.35
20
368.239
0
VERTEX
8
0
10
521.673
20
370.273
0
VERTEX
8
0
10
575.114
20
390.486
0
VERTEX
8
0
10
578.549
20
391.991
0
VERTEX
8
0
10
596.987
20
399.215
0
VERTEX
8
0
10
597.365
20
399.306
0
VERTEX
8
0
10
649.141
20
415.359
0
VERTEX
8
0
10
668.315
20
420.48
0
SEQEND
0
POLYLINE
8
0
10
0
20
0
66
1
0
VERTEX
8
0
10
299.495
20
237.074
0
VERTEX
8
0
10
286.77
20
233.444
0
VERTEX
8
0
10
288.405
20
234.739
0
VERTEX
8
0
10
289.08
20
235.363
0
VERTEX
8
0
10
515.482
20
313.955
0
VERTEX
8
0
10
515.25
20
313.999
0
VERTEX
8
0
10
515.489
20
314.082
0
VERTEX
8
0
10
521.97
20
316.851
0
VERTEX
8
0
10
646.556
20
361.986
0
VERTEX
8
0
10
718.285
20
383.248
0
VERTEX
8
0
10
718.417
20
382.606
0
SEQEND
0
POLYLINE
8
0
10
0
20
0
66
1
0
VERTEX
8
0
10
794.201
20
354.978
0
VERTEX
8
0
10
60.7054
20
113.34
0
VERTEX
8
0
10
50.5957
20
109.543
0
VERTEX
8
0
10
54.8848
20
110.521
0
SEQEND
0
POLYLINE
8
0
10
0
20
0
66
1
0
VERTEX
8
0
10
797.355
20
355.475
0
VERTEX
8
0
10
797.759
20
356.116
0
VERTEX
8
0
10
794.201
20
354.978
0
SEQEND
0
POLYLINE
8
0
10
0
20
0
66
1
0
VERTEX
8
0
10
309.748
20
140.495
0
VERTEX
8
0
10
303.566
20
138.487
0
VERTEX
8
0
10
303.247
20
138.436
0
VERTEX
8
0
10
303.269
20
138.478
0
VERTEX
8
0
10
878.058
20
328.791
0
VERTEX
8
0
10
878.075
20
328.788
0
VERTEX
8
0
10
874.977
20
327.552
0
SEQEND
0
POLYLINE
8
0
10
0
20
0
66
1
0
VERTEX
8
0
10
878.535
20
274.047
0
VERTEX
8
0
10
878.144
20
273.925
0
VERTEX
8
0
10
878
20
273.864
0
VERTEX
8
0
10
161.503
20
39.6542
0
VERTEX
8
0
10
159.091
20
38.9697
0
VERTEX
8
0
10
174.182
20
44.298
0
SEQEND
0
POLYLINE
8
0
10
0
20
0
66
1
0
VERTEX
8
0
10
876.939
20
273.946
0
VERTEX
8
0
10
878.535
20
274.047
0
SEQEND
0
POLYLINE
8
0
10
0
20
0
66
1
0
VERTEX
8
0
10
549.126
20
115.277
0
VERTEX
8
0
10
530.282
20
108.376
0
VERTEX
8
0
10
591.633
20
127.083
0
VERTEX
8
0
10
591.689
20
127.097
0
VERTEX
8
0
10
656.419
20
147.915
0
VERTEX
8
0
10
665.722
20
151.428
0
VERTEX
8
0
10
873.029
20
217.207
0
VERTEX
8
0
10
873.661
20
217.56
0
VERTEX
8
0
10
877.752
20
218.739
0
VERTEX
8
0
10
877.326
20
218.877
0
SEQEND
0
POLYLINE
8
0
10
0
20
0
66
1
0
VERTEX
8
0
10
867.161
20
163.077
0
VERTEX
8
0
10
869.048
20
162.741
0
VERTEX
8
0
10
869.56
20
161.51
0
VERTEX
8
0
10
869.195
20
161.41
0
VERTEX
8
0
10
869.171
20
161.393
0
VERTEX
8
0
10
738.411
20
121.418
0
VERTEX
8
0
10
738.764
20
122.29
0
SEQEND
0
POLYLINE
8
0
10
0
20
0
66
1
0
VERTEX
8
0
10
860.649
20
105.329
0
VERTEX
8
0
10
859.902
20
105.156
0
VERTEX
8
0
10
836.174
20
98.2672
0
VERTEX
8
0
10
830.906
20
99.5076
0
SEQEND
0
POLYLINE
8
0
10
0
20
0
66
1
0
VERTEX
8
0
10
298.943
20
256.695
0
VERTEX
8
0
10
298.739
20
257.428
0
VERTEX
8
0
10
298.5
20
257.7
0
VERTEX
8
0
10
294.249
20
257.663
0
VERTEX
8
0
10
293.537
20
258.251
0
SEQEND
0
POLYLINE
8
0
10
0
20
0
66
1
0
VERTEX
8
0
10
376.532
20
435.309
0
VERTEX
8
0
10
384.546
20
434.352
0
VERTEX
8
0
10
386.584
20
433.692
0
SEQEND
0
POLYLINE
8
0
10
0
20
0
66
1
0
VERTEX
8
0
10
504.933
20
115.948
0
VERTEX
8
0
10
432.785
20
106.741
0
VERTEX
8
0
10
405.772
20
101.01
0
VERTEX
8
0
10
403.117
20
100.29
0
VERTEX
8
0
10
395.963
20
99.5836
0
VERTEX
8
0
10
389.413
20
97.9733
0
VERTEX
8
0
10
383.156
20
95.6373
0
VERTEX
8
0
10
377.528
20
98.0105
0
VERTEX
8
0
10
373.301
20
101.919
0
VERTEX
8
0
10
371.923
20
102.227
0
VERTEX
8
0
10
370.12
20
102.236
0
VERTEX
8
0
10
366.429
20
103.768
0
VERTEX
8
0
10
364.892
20
105.503
0
VERTEX
8
0
10
363.002
20
105.789
0
VERTEX
8
0
10
361.708
20
106.307
0
VERTEX
8
0
10
361.293
20
105.632
0
VERTEX
8
0
10
354.696
20
96.1091
0
VERTEX
8
0
10
350.842
20
88.8174
0
VERTEX
8
0
10
349.279
20
86.698
0
VERTEX
8
0
10
344.403
20
81.9857
0
VERTEX
8
0
10
342.971
20
80.4621
0
VERTEX
8
0
10
331.934
20
70.938
0
VERTEX
8
0
10
331.51
20
70.4215
0
VERTEX
8
0
10
329.307
20
67.5365
0
VERTEX
8
0
10
326.614
20
64.8417
0
VERTEX
8
0
10
326.469
20
64.7084
0
VERTEX
8
0
10
324.503
20
62.3021
0
VERTEX
8
0
10
310.816
20
53.93
0
VERTEX
8
0
10
284.949
20
39.6774
0
VERTEX
8
0
10
282.734
20
39.0965
0
VERTEX
8
0
10
274.754
20
37.4579
0
VERTEX
8
0
10
258.653
20
32.701
0
SEQEND
0
POLYLINE
8
0
10
0
20
0
66
1
0
VERTEX
8
0
10
238.403
20
83.7754
0
VERTEX
8
0
10
243.885
20
93.9281
0
VERTEX
8
0
10
251.55
20
98.8525
0
VERTEX
8
0
10
259.793
20
104.792
0
VERTEX
8
0
10
265.076
20
108.968
0
VERTEX
8
0
10
267.641
20
110.095
0
VERTEX
8
0
10
267.967
20
110.15
0
VERTEX
8
0
10
271.191
20
111.533
0
VERTEX
8
0
10
271.724
20
111.634
0
VERTEX
8
0
10
273.255
20
112.282
0
VERTEX
8
0
10
273.807
20
112.375
0
VERTEX
8
0
10
275.199
20
112.836
0
VERTEX
8
0
10
276.399
20
113.048
0
VERTEX
8
0
10
277.738
20
113.419
0
VERTEX
8
0
10
278.908
20
113.838
0
VERTEX
8
0
10
279.889
20
114.243
0
VERTEX
8
0
10
281.171
20
114.614
0
VERTEX
8
0
10
282.291
20
115.082
0
VERTEX
8
0
10
285
20
115.877
0
VERTEX
8
0
10
286.146
20
116.151
0
VERTEX
8
0
10
287.503
20
116.873
0
VERTEX
8
0
10
288.538
20
117.5
0
VERTEX
8
0
10
290.148
20
119.505
0
VERTEX
8
0
10
291.259
20
120.235
0
VERTEX
8
0
10
293.095
20
122.915
0
VERTEX
8
0
10
296.53
20
125.468
0
VERTEX
8
0
10
297.269
20
126.092
0
VERTEX
8
0
10
299.485
20
127.117
0
VERTEX
8
0
10
300.088
20
127.788
0
VERTEX
8
0
10
302.659
20
128.986
0
VERTEX
8
0
10
303.027
20
129.471
0
VERTEX
8
0
10
305.1
20
131.136
0
VERTEX
8
0
10
305.34
20
131.459
0
VERTEX
8
0
10
308.356
20
133.73
0
VERTEX
8
0
10
308.383
20
133.759
0
VERTEX
8
0
10
312.263
20
134.622
0
VERTEX
8
0
10
312.369
20
134.462
0
VERTEX
8
0
10
312.534
20
134.288
0
VERTEX
8
0
10
312.655
20
134.147
0
VERTEX
8
0
10
312.828
20
133.971
0
VERTEX
8
0
10
317.853
20
131.263
0
VERTEX
8
0
10
318.489
20
131.48
0
VERTEX
8
0
10
319.064
20
131.731
0
VERTEX
8
0
10
328.568
20
144.135
0
VERTEX
8
0
10
328.695
20
143.993
0
VERTEX
8
0
10
330.159
20
137.854
0
VERTEX
8
0
10
330.383
20
137.68
0
VERTEX
8
0
10
333.65
20
136.347
0
VERTEX
8
0
10
333.8
20
136.137
0
VERTEX
8
0
10
333.974
20
136.124
0
VERTEX
8
0
10
334.161
20
136.118
0
VERTEX
8
0
10
338.203
20
133.377
0
VERTEX
8
0
10
338.313
20
133.345
0
VERTEX
8
0
10
341.897
20
129.697
0
VERTEX
8
0
10
341.933
20
129.656
0
VERTEX
8
0
10
341.999
20
129.669
0
VERTEX
8
0
10
342.092
20
129.678
0
VERTEX
8
0
10
343.21
20
129.231
0
VERTEX
8
0
10
342.939
20
131.639
0
VERTEX
8
0
10
343.633
20
136.592
0
VERTEX
8
0
10
342.917
20
141.708
0
VERTEX
8
0
10
344.76
20
147.297
0
VERTEX
8
0
10
342.788
20
157.88
0
VERTEX
8
0
10
342.846
20
165.981
0
VERTEX
8
0
10
339.186
20
168.74
0
VERTEX
8
0
10
337.331
20
170.88
0
VERTEX
8
0
10
330.211
20
170.961
0
VERTEX
8
0
10
319.83
20
172.768
0
VERTEX
8
0
10
320.487
20
171.169
0
VERTEX
8
0
10
320.514
20
169.852
0
VERTEX
8
0
10
313.653
20
167.908
0
VERTEX
8
0
10
312.566
20
167.533
0
VERTEX
8
0
10
305.118
20
164.535
0
VERTEX
8
0
10
302.992
20
163.969
0
VERTEX
8
0
10
300.995
20
162.885
0
VERTEX
8
0
10
300.178
20
162.603
0
VERTEX
8
0
10
294.215
20
160.004
0
VERTEX
8
0
10
239.018
20
133.094
0
VERTEX
8
0
10
223.242
20
126.473
0
VERTEX
8
0
10
208.29
20
121.146
0
VERTEX
8
0
10
204.167
20
119.883
0
VERTEX
8
0
10
203.51
20
119.914
0
VERTEX
8
0
10
203.331
20
119.945
0
VERTEX
8
0
10
197.439
20
120.267
0
VERTEX
8
0
10
195.42
20
120.53
0
VERTEX
8
0
10
190.211
20
120.966
0
SEQEND
0
POLYLINE
8
0
10
0
20
0
66
1
0
VERTEX
8
0
10
165.986
20
180.53
0
VERTEX
8
0
10
167.8
20
181.984
0
VERTEX
8
0
10
170.371
20
184.206
0
VERTEX
8
0
10
172.338
20
186.499
0
VERTEX
8
0
10
178.23
20
191.133
0
VERTEX
8
0
10
199.389
20
199.075
0
VERTEX
8
0
10
206.566
20
202.128
0
VERTEX
8
0
10
208.89
20
203.732
0
VERTEX
8
0
10
212.008
20
205.389
0
VERTEX
8
0
10
215.742
20
207.065
0
VERTEX
8
0
10
217.78
20
207.869
0
VERTEX
8
0
10
219.998
20
209.045
0
VERTEX
8
0
10
241.713
20
216.058
0
VERTEX
8
0
10
242.435
20
216.262
0
VERTEX
8
0
10
245.478
20
216.884
0
VERTEX
8
0
10
265.771
20
222.865
0
VERTEX
8
0
10
266.678
20
223.18
0
VERTEX
8
0
10
269.754
20
224.821
0
VERTEX
8
0
10
274.062
20
226.5
0
VERTEX
8
0
10
280.951
20
229.699
0
VERTEX
8
0
10
281.883
20
228.856
0
VERTEX
8
0
10
285.713
20
227.508
0
VERTEX
8
0
10
287.408
20
226.069
0
VERTEX
8
0
10
289.438
20
229.448
0
VERTEX
8
0
10
289.635
20
229.495
0
VERTEX
8
0
10
289.782
20
229.593
0
VERTEX
8
0
10
294.278
20
221.45
0
VERTEX
8
0
10
301.346
20
236.754
0
VERTEX
8
0
10
303.306
20
238.337
0
VERTEX
8
0
10
318.959
20
257.523
0
VERTEX
8
0
10
320.543
20
260.735
0
VERTEX
8
0
10
320.806
20
263.773
0
VERTEX
8
0
10
307.601
20
292.644
0
VERTEX
8
0
10
294.154
20
274.816
0
VERTEX
8
0
10
292.238
20
276.191
0
VERTEX
8
0
10
291.4
20
273.361
0
VERTEX
8
0
10
290.114
20
277.024
0
VERTEX
8
0
10
286.94
20
255.559
0
VERTEX
8
0
10
285.298
20
255.524
0
VERTEX
8
0
10
270.148
20
253.746
0
VERTEX
8
0
10
230.112
20
245.704
0
VERTEX
8
0
10
212.77
20
241.367
0
VERTEX
8
0
10
199.469
20
237.103
0
VERTEX
8
0
10
197.643
20
236.6
0
VERTEX
8
0
10
195.804
20
236.351
0
VERTEX
8
0
10
195.197
20
236.345
0
VERTEX
8
0
10
190.915
20
236.095
0
VERTEX
8
0
10
187.286
20
236.084
0
VERTEX
8
0
10
184.352
20
236.245
0
SEQEND
0
POLYLINE
8
0
10
0
20
0
66
1
0
VERTEX
8
0
10
166.998
20
313.543
0
VERTEX
8
0
10
167.261
20
313.663
0
VERTEX
8
0
10
170.484
20
315
0
VERTEX
8
0
10
180.303
20
316.611
0
SEQEND
0
POLYLINE
8
0
10
0
20
0
66
1
0
VERTEX
8
0
10
185.92
20
317.669
0
VERTEX
8
0
10
200.273
20
320.426
0
VERTEX
8
0
10
205.375
20
320.636
0
VERTEX
8
0
10
207.765
20
321.061
0
VERTEX
8
0
10
211.411
20
321.926
0
VERTEX
8
0
10
213.838
20
322.327
0
VERTEX
8
0
10
217.27
20
323.098
0
VERTEX
8
0
10
219.66
20
323.447
0
VERTEX
8
0
10
222.811
20
324.096
0
VERTEX
8
0
10
225.08
20
324.366
0
VERTEX
8
0
10
227.899
20
324.878
0
VERTEX
8
0
10
229.924
20
325.033
0
VERTEX
8
0
10
232.361
20
325.377
0
VERTEX
8
0
10
234.049
20
325.395
0
VERTEX
8
0
10
236.057
20
325.545
0
VERTEX
8
0
10
237.646
20
325.542
0
VERTEX
8
0
10
241.398
20
325.802
0
VERTEX
8
0
10
243.478
20
326.119
0
VERTEX
8
0
10
245.712
20
326.361
0
VERTEX
8
0
10
247.938
20
326.841
0
VERTEX
8
0
10
256.733
20
327.211
0
VERTEX
8
0
10
279.791
20
330.092
0
VERTEX
8
0
10
281.346
20
330.521
0
VERTEX
8
0
10
287.238
20
331.461
0
VERTEX
8
0
10
288.833
20
331.88
0
VERTEX
8
0
10
292.843
20
332.573
0
VERTEX
8
0
10
293.084
20
332.662
0
VERTEX
8
0
10
293.184
20
332.681
0
VERTEX
8
0
10
293.376
20
332.8
0
VERTEX
8
0
10
293.526
20
332.913
0
VERTEX
8
0
10
297.464
20
336.441
0
VERTEX
8
0
10
297.185
20
333.994
0
VERTEX
8
0
10
297.435
20
334.663
0
VERTEX
8
0
10
297.283
20
326.876
0
VERTEX
8
0
10
298.33
20
327.934
0
VERTEX
8
0
10
302.936
20
340.223
0
VERTEX
8
0
10
302.689
20
341.232
0
VERTEX
8
0
10
302.549
20
341.402
0
VERTEX
8
0
10
302.406
20
341.782
0
VERTEX
8
0
10
301.593
20
341.742
0
VERTEX
8
0
10
301.218
20
342.012
0
VERTEX
8
0
10
300.858
20
341.891
0
VERTEX
8
0
10
300.587
20
341.843
0
VERTEX
8
0
10
301.286
20
342.845
0
VERTEX
8
0
10
301.259
20
342.856
0
VERTEX
8
0
10
301.206
20
342.865
0
VERTEX
8
0
10
301.049
20
342.634
0
VERTEX
8
0
10
301.079
20
343.273
0
VERTEX
8
0
10
301.047
20
343.31
0
VERTEX
8
0
10
300.889
20
345.347
0
VERTEX
8
0
10
300.671
20
345.492
0
VERTEX
8
0
10
300.214
20
346.01
0
VERTEX
8
0
10
297.674
20
347.11
0
VERTEX
8
0
10
294.838
20
347.516
0
VERTEX
8
0
10
293.717
20
347.512
0
VERTEX
8
0
10
290.048
20
346.866
0
VERTEX
8
0
10
282.924
20
345.916
0
VERTEX
8
0
10
274.245
20
345.592
0
VERTEX
8
0
10
269.889
20
345.75
0
VERTEX
8
0
10
264.332
20
345.613
0
VERTEX
8
0
10
260.84
20
346.171
0
VERTEX
8
0
10
257.242
20
346.171
0
VERTEX
8
0
10
251.045
20
346.94
0
VERTEX
8
0
10
247.664
20
347.092
0
VERTEX
8
0
10
244.848
20
347.095
0
VERTEX
8
0
10
242.581
20
346.978
0
VERTEX
8
0
10
240.06
20
346.984
0
VERTEX
8
0
10
238.35
20
346.706
0
VERTEX
8
0
10
236.926
20
346.313
0
SEQEND
0
POLYLINE
8
0
10
0
20
0
66
1
0
VERTEX
8
0
10
227.899
20
419.525
0
VERTEX
8
0
10
259.447
20
420.294
0
VERTEX
8
0
10
275.166
20
421.728
0
VERTEX
8
0
10
279.868
20
422.35
0
VERTEX
8
0
10
289.314
20
424.123
0
VERTEX
8
0
10
292.461
20
424.888
0
VERTEX
8
0
10
302.809
20
426.817
0
VERTEX
8
0
10
312.602
20
427.602
0
VERTEX
8
0
10
321.878
20
428.962
0
VERTEX
8
0
10
329.671
20
430.497
0
VERTEX
8
0
10
336.437
20
432.212
0
VERTEX
8
0
10
342.099
20
433.929
0
VERTEX
8
0
10
342.785
20
434.105
0
VERTEX
8
0
10
350.322
20
436.561
0
VERTEX
8
0
10
352.845
20
436.136
0
VERTEX
8
0
10
356.765
20
434.97
0
VERTEX
8
0
10
357.511
20
434.709
0
VERTEX
8
0
10
361.942
20
434.092
0
VERTEX
8
0
10
365.788
20
432.68
0
VERTEX
8
0
10
367.078
20
431.779
0
VERTEX
8
0
10
371.634
20
430.652
0
VERTEX
8
0
10
378.469
20
430.123
0
VERTEX
8
0
10
387.009
20
426.647
0
VERTEX
8
0
10
395.092
20
428.525
0
VERTEX
8
0
10
398.488
20
431.241
0
VERTEX
8
0
10
398.708
20
436.42
0
VERTEX
8
0
10
399.102
20
437.807
0
VERTEX
8
0
10
406.882
20
437.381
0
VERTEX
8
0
10
407.729
20
437.295
0
VERTEX
8
0
10
413.229
20
436.995
0
VERTEX
8
0
10
418.946
20
436.996
0
VERTEX
8
0
10
420.428
20
437.127
0
VERTEX
8
0
10
423.748
20
437.01
0
VERTEX
8
0
10
429.89
20
437.987
0
VERTEX
8
0
10
432.35
20
438.221
0
VERTEX
8
0
10
434.116
20
438.13
0
VERTEX
8
0
10
436.127
20
437.83
0
VERTEX
8
0
10
437.691
20
438.066
0
VERTEX
8
0
10
439.686
20
438.05
0
VERTEX
8
0
10
444.731
20
437.785
0
VERTEX
8
0
10
447.588
20
437.856
0
VERTEX
8
0
10
450.608
20
438.279
0
VERTEX
8
0
10
451.422
20
438.474
0
VERTEX
8
0
10
453.768
20
439.842
0
VERTEX
8
0
10
453.907
20
439.914
0
VERTEX
8
0
10
454.555
20
440.312
0
VERTEX
8
0
10
457.531
20
439.378
0
VERTEX
8
0
10
459.784
20
439.405
0
VERTEX
8
0
10
461.121
20
440.873
0
SEQEND
0
POLYLINE
8
0
10
0
20
0
66
1
0
VERTEX
8
0
10
862.29
20
136.337
0
VERTEX
8
0
10
857.311
20
97.7429
0
VERTEX
8
0
10
856.405
20
94.5983
0
VERTEX
8
0
10
769.417
20
111.635
0
VERTEX
8
0
10
766.905
20
112.367
0
VERTEX
8
0
10
738.913
20
122.208
0
VERTEX
8
0
10
730.031
20
124.669
0
VERTEX
8
0
10
723.163
20
125.376
0
VERTEX
8
0
10
707.142
20
129.687
0
VERTEX
8
0
10
693.723
20
134.683
0
VERTEX
8
0
10
686.893
20
136.393
0
VERTEX
8
0
10
682.453
20
137.275
0
VERTEX
8
0
10
676.557
20
137.913
0
VERTEX
8
0
10
674.326
20
137.687
0
VERTEX
8
0
10
654.161
20
139.754
0
VERTEX
8
0
10
652.203
20
139.761
0
VERTEX
8
0
10
646.415
20
138.743
0
VERTEX
8
0
10
642.254
20
138.239
0
VERTEX
8
0
10
638.102
20
136.96
0
VERTEX
8
0
10
633.187
20
134.649
0
VERTEX
8
0
10
627.253
20
134.99
0
VERTEX
8
0
10
621.66
20
132.179
0
VERTEX
8
0
10
615.693
20
129.479
0
VERTEX
8
0
10
600.959
20
123.605
0
VERTEX
8
0
10
594.53
20
121.343
0
VERTEX
8
0
10
574.437
20
115.588
0
VERTEX
8
0
10
558.982
20
112.065
0
VERTEX
8
0
10
539.892
20
108.824
0
VERTEX
8
0
10
538.28
20
108.645
0
VERTEX
8
0
10
531.467
20
112.27
0
VERTEX
8
0
10
530.516
20
112.707
0
VERTEX
8
0
10
523.262
20
117.849
0
VERTEX
8
0
10
522.801
20
117.801
0
VERTEX
8
0
10
518.776
20
120.025
0
VERTEX
8
0
10
517.802
20
120.193
0
VERTEX
8
0
10
517.477
20
120.351
0
VERTEX
8
0
10
516.162
20
121.192
0
VERTEX
8
0
10
511.736
20
123.78
0
VERTEX
8
0
10
509.915
20
125.283
0
VERTEX
8
0
10
507.866
20
127.502
0
VERTEX
8
0
10
504.787
20
128.507
0
VERTEX
8
0
10
499.879
20
131.118
0
VERTEX
8
0
10
498.306
20
131.611
0
VERTEX
8
0
10
494.116
20
132.641
0
VERTEX
8
0
10
492.825
20
132.904
0
VERTEX
8
0
10
487.956
20
134.164
0
VERTEX
8
0
10
482.058
20
136.147
0
VERTEX
8
0
10
481.29
20
136.31
0
VERTEX
8
0
10
476.016
20
137.715
0
VERTEX
8
0
10
475.572
20
137.868
0
VERTEX
8
0
10
470.16
20
138.78
0
VERTEX
8
0
10
468.171
20
139.353
0
VERTEX
8
0
10
463.527
20
158.179
0
VERTEX
8
0
10
459.155
20
168.51
0
VERTEX
8
0
10
457.532
20
173.378
0
VERTEX
8
0
10
453.062
20
183.728
0
VERTEX
8
0
10
458.411
20
191.73
0
VERTEX
8
0
10
459.176
20
192.673
0
VERTEX
8
0
10
467.279
20
204.546
0
VERTEX
8
0
10
471.916
20
212.943
0
VERTEX
8
0
10
476.896
20
216.183
0
VERTEX
8
0
10
485.375
20
231.769
0
VERTEX
8
0
10
490.281
20
239.336
0
VERTEX
8
0
10
492.786
20
244.719
0
VERTEX
8
0
10
493.944
20
246.916
0
VERTEX
8
0
10
500.534
20
261.579
0
VERTEX
8
0
10
501.487
20
265.006
0
VERTEX
8
0
10
509.876
20
281.726
0
VERTEX
8
0
10
515.204
20
287.199
0
VERTEX
8
0
10
517.679
20
301.046
0
VERTEX
8
0
10
515.625
20
318.044
0
VERTEX
8
0
10
515.143
20
318.389
0
VERTEX
8
0
10
516.08
20
375.25
0
VERTEX
8
0
10
507.919
20
375.207
0
VERTEX
8
0
10
502.716
20
377.474
0
VERTEX
8
0
10
498.512
20
381.704
0
VERTEX
8
0
10
495.799
20
382.841
0
VERTEX
8
0
10
495.029
20
389.787
0
VERTEX
8
0
10
494.978
20
390.897
0
VERTEX
8
0
10
492.943
20
394.215
0
VERTEX
8
0
10
492.976
20
396.707
0
VERTEX
8
0
10
490.182
20
400.92
0
VERTEX
8
0
10
488.032
20
407.667
0
VERTEX
8
0
10
487.486
20
408.89
0
VERTEX
8
0
10
484.975
20
412.474
0
VERTEX
8
0
10
482.744
20
413.559
0
VERTEX
8
0
10
480.215
20
431.687
0
VERTEX
8
0
10
480.071
20
431.765
0
VERTEX
8
0
10
479.748
20
432.203
0
VERTEX
8
0
10
460.829
20
455.347
0
VERTEX
8
0
10
463.868
20
457.42
0
VERTEX
8
0
10
464.175
20
458.345
0
VERTEX
8
0
10
464.172
20
461.127
0
VERTEX
8
0
10
463.967
20
462.562
0
VERTEX
8
0
10
464.043
20
465.292
0
VERTEX
8
0
10
463.78
20
467.403
0
VERTEX
8
0
10
463.295
20
470.396
0
VERTEX
8
0
10
461.735
20
472.537
0
VERTEX
8
0
10
458.488
20
475.617
0
VERTEX
8
0
10
456.506
20
479.249
0
VERTEX
8
0
10
453.687
20
483.576
0
SEQEND
0
POLYLINE
8
0
10
0
20
0
66
1
0
VERTEX
8
0
10
551.074
20
534.204
0
VERTEX
8
0
10
569.042
20
523.87
0
VERTEX
8
0
10
570.716
20
522.569
0
VERTEX
8
0
10
581.242
20
512.93
0
VERTEX
8
0
10
581.4
20
512.739
0
VERTEX
8
0
10
583.294
20
510.136
0
VERTEX
8
0
10
588.488
20
501.578
0
VERTEX
8
0
10
588.647
20
501.454
0
VERTEX
8
0
10
588.787
20
501.296
0
VERTEX
8
0
10
593.214
20
492.231
0
VERTEX
8
0
10
594.188
20
491.164
0
VERTEX
8
0
10
594.534
20
490.73
0
VERTEX
8
0
10
594.935
20
490.287
0
VERTEX
8
0
10
595.901
20
489.314
0
VERTEX
8
0
10
601.904
20
481.882
0
VERTEX
8
0
10
603.032
20
481.012
0
VERTEX
8
0
10
607.067
20
476.325
0
VERTEX
8
0
10
608.293
20
475.221
0
VERTEX
8
0
10
612.922
20
470.701
0
VERTEX
8
0
10
619.076
20
465.265
0
VERTEX
8
0
10
624.901
20
460.689
0
VERTEX
8
0
10
670.743
20
416.059
0
VERTEX
8
0
10
673.461
20
412.511
0
VERTEX
8
0
10
679.996
20
406.646
0
VERTEX
8
0
10
683.976
20
403.811
0
VERTEX
8
0
10
687.478
20
401.036
0
VERTEX
8
0
10
689.68
20
398.956
0
VERTEX
8
0
10
698.932
20
392.009
0
VERTEX
8
0
10
704.326
20
388.374
0
VERTEX
8
0
10
714.932
20
383.742
0
VERTEX
8
0
10
804.057
20
353.037
0
VERTEX
8
0
10
826.284
20
346.509
0
VERTEX
8
0
10
874.94
20
335.293
0
SEQEND
0
POLYLINE
8
0
10
0
20
0
66
1
0
VERTEX
8
0
10
874.802
20
323.503
0
VERTEX
8
0
10
874.373
20
319.902
0
SEQEND
0
POLYLINE
8
0
10
0
20
0
66
1
0
VERTEX
8
0
10
252.618
20
48.2609
0
VERTEX
8
0
10
246.422
20
19.8262
0
VERTEX
8
0
10
224.402
20
11.8531
0
VERTEX
8
0
10
217.224
20
12.2442
0
VERTEX
8
0
10
210.216
20
13.5714
0
SEQEND
0
POLYLINE
8
0
10
0
20
0
66
1
0
VERTEX
8
0
10
186.844
20
62.7246
0
VERTEX
8
0
10
188.24
20
69.3893
0
VERTEX
8
0
10
203.173
20
77.8071
0
VERTEX
8
0
10
211.346
20
76.4219
0
VERTEX
8
0
10
214.789
20
75.9664
0
VERTEX
8
0
10
218.297
20
75.6409
0
VERTEX
8
0
10
220.099
20
75.5459
0
VERTEX
8
0
10
224.366
20
75.5266
0
VERTEX
8
0
10
226.939
20
75.6852
0
VERTEX
8
0
10
228.242
20
74.6014
0
VERTEX
8
0
10
228.518
20
74.1028
0
VERTEX
8
0
10
230.389
20
72.0038
0
VERTEX
8
0
10
231.199
20
70.5933
0
VERTEX
8
0
10
233.695
20
68.807
0
VERTEX
8
0
10
235.662
20
66.9217
0
VERTEX
8
0
10
236.812
20
65.5785
0
VERTEX
8
0
10
238.127
20
63.4443
0
VERTEX
8
0
10
239.719
20
61.9775
0
VERTEX
8
0
10
241.876
20
59.1971
0
VERTEX
8
0
10
243.063
20
57.8165
0
VERTEX
8
0
10
249.861
20
50.821
0
VERTEX
8
0
10
252.618
20
48.2609
0
SEQEND
0
POLYLINE
8
0
10
0
20
0
66
1
0
VERTEX
8
0
10
220.893
20
391.289
0
VERTEX
8
0
10
216.702
20
361.866
0
VERTEX
8
0
10
216.409
20
358.857
0
VERTEX
8
0
10
214.472
20
344.773
0
VERTEX
8
0
10
199.975
20
345.129
0
VERTEX
8
0
10
193.708
20
345.624
0
VERTEX
8
0
10
189.624
20
345.621
0
VERTEX
8
0
10
186.049
20
344.993
0
VERTEX
8
0
10
157.464
20
343.986
0
VERTEX
8
0
10
153.142
20
345.585
0
SEQEND
0
POLYLINE
8
0
10
0
20
0
66
1
0
VERTEX
8
0
10
147.831
20
415.945
0
VERTEX
8
0
10
151.795
20
418.941
0
VERTEX
8
0
10
185.236
20
421.18
0
VERTEX
8
0
10
194.058
20
421.271
0
VERTEX
8
0
10
196.759
20
418.669
0
VERTEX
8
0
10
200.944
20
415.554
0
VERTEX
8
0
10
205.721
20
412.713
0
VERTEX
8
0
10
209.52
20
410.741
0
VERTEX
8
0
10
223.102
20
404.926
0
VERTEX
8
0
10
220.893
20
391.289
0
SEQEND
0
POLYLINE
8
0
10
0
20
0
66
1
0
VERTEX
8
0
10
185.146
20
129.813
0
VERTEX
8
0
10
181.475
20
121.127
0
VERTEX
8
0
10
178.542
20
114.851
0
VERTEX
8
0
10
135.875
20
101.564
0
VERTEX
8
0
10
128.009
20
103.742
0
SEQEND
0
POLYLINE
8
0
10
0
20
0
66
1
0
VERTEX
8
0
10
107.912
20
167.564
0
VERTEX
8
0
10
144.188
20
183.52
0
VERTEX
8
0
10
145.725
20
183.137
0
VERTEX
8
0
10
146.407
20
182.88
0
VERTEX
8
0
10
151.331
20
181.223
0
VERTEX
8
0
10
155.504
20
179.487
0
VERTEX
8
0
10
157.492
20
178.767
0
VERTEX
8
0
10
162.16
20
176.727
0
VERTEX
8
0
10
185.146
20
129.813
0
SEQEND
0
POLYLINE
8
0
10
0
20
0
66
1
0
VERTEX
8
0
10
178.557
20
235.702
0
VERTEX
8
0
10
126.19
20
225.978
0
SEQEND
0
POLYLINE
8
0
10
0
20
0
66
1
0
VERTEX
8
0
10
102.692
20
297.192
0
VERTEX
8
0
10
135.069
20
306.734
0
VERTEX
8
0
10
141.979
20
308.481
0
VERTEX
8
0
10
156.336
20
313.004
0
VERTEX
8
0
10
164.817
20
301.436
0
VERTEX
8
0
10
177.813
20
243.787
0
VERTEX
8
0
10
178.557
20
235.702
0
SEQEND
0
POLYLINE
8
0
10
0
20
0
66
1
0
VERTEX
8
0
10
877.475
20
205.829
0
VERTEX
8
0
10
876.871
20
237.996
0
VERTEX
8
0
10
876.232
20
249.876
0
VERTEX
8
0
10
872.739
20
213.011
0
VERTEX
8
0
10
871.813
20
213.055
0
VERTEX
8
0
10
861.52
20
218.458
0
VERTEX
8
0
10
815.121
20
251.614
0
VERTEX
8
0
10
808.682
20
253.354
0
VERTEX
8
0
10
807.508
20
254.081
0
VERTEX
8
0
10
795.342
20
260.507
0
VERTEX
8
0
10
794.107
20
273.408
0
VERTEX
8
0
10
793.631
20
302.839
0
VERTEX
8
0
10
804.047
20
300.086
0
VERTEX
8
0
10
804.218
20
300.019
0
VERTEX
8
0
10
812.598
20
296.202
0
VERTEX
8
0
10
812.692
20
296.166
0
VERTEX
8
0
10
819.565
20
292.474
0
VERTEX
8
0
10
820.129
20
285.705
0
VERTEX
8
0
10
821.442
20
291.671
0
VERTEX
8
0
10
876.865
20
293.718
0
VERTEX
8
0
10
878.453
20
291.354
0
VERTEX
8
0
10
879.001
20
287.104
0
VERTEX
8
0
10
878.392
20
281.993
0
VERTEX
8
0
10
877.576
20
206.92
0
VERTEX
8
0
10
877.55
20
206.534
0
VERTEX
8
0
10
877.475
20
205.829
0
SEQEND
0
POLYLINE
8
0
10
0
20
0
66
1
0
VERTEX
8
0
10
764.032
20
273.264
0
VERTEX
8
0
10
758.041
20
273.788
0
VERTEX
8
0
10
757.891
20
273.827
0
VERTEX
8
0
10
757.731
20
273.906
0
VERTEX
8
0
10
757.596
20
274.024
0
VERTEX
8
0
10
746.687
20
275.547
0
VERTEX
8
0
10
736.516
20
278.845
0
VERTEX
8
0
10
736.247
20
279.071
0
VERTEX
8
0
10
726.648
20
281.794
0
VERTEX
8
0
10
726.279
20
282.121
0
VERTEX
8
0
10
716.004
20
285.71
0
VERTEX
8
0
10
715.763
20
285.849
0
VERTEX
8
0
10
707.202
20
283.193
0
VERTEX
8
0
10
706.848
20
283.101
0
VERTEX
8
0
10
701.308
20
277.648
0
VERTEX
8
0
10
695.161
20
277.439
0
VERTEX
8
0
10
694.816
20
277.603
0
VERTEX
8
0
10
690.935
20
275.655
0
VERTEX
8
0
10
687.922
20
274.757
0
VERTEX
8
0
10
687.492
20
275.125
0
VERTEX
8
0
10
684.735
20
273.574
0
VERTEX
8
0
10
683.933
20
272.156
0
VERTEX
8
0
10
681.259
20
269.68
0
VERTEX
8
0
10
678.342
20
268.618
0
VERTEX
8
0
10
676.782
20
267.734
0
VERTEX
8
0
10
674.728
20
257.209
0
VERTEX
8
0
10
673.298
20
260.58
0
VERTEX
8
0
10
670.421
20
263.408
0
VERTEX
8
0
10
666.693
20
240.309
0
VERTEX
8
0
10
665.74
20
241.625
0
VERTEX
8
0
10
664.472
20
264.683
0
VERTEX
8
0
10
653.649
20
171.683
0
VERTEX
8
0
10
650.618
20
168.554
0
VERTEX
8
0
10
649.982
20
168.21
0
VERTEX
8
0
10
643.675
20
165.363
0
VERTEX
8
0
10
638.129
20
163.856
0
VERTEX
8
0
10
636.499
20
162.89
0
VERTEX
8
0
10
630.39
20
163.647
0
VERTEX
8
0
10
628.497
20
163.012
0
VERTEX
8
0
10
620.714
20
165.273
0
VERTEX
8
0
10
619.076
20
165.067
0
VERTEX
8
0
10
611.112
20
168.618
0
VERTEX
8
0
10
610.145
20
168.72
0
VERTEX
8
0
10
601.366
20
173.107
0
VERTEX
8
0
10
601.085
20
173.145
0
VERTEX
8
0
10
597.83
20
174.703
0
VERTEX
8
0
10
601.679
20
182.929
0
VERTEX
8
0
10
602.105
20
184.033
0
VERTEX
8
0
10
602.639
20
185.122
0
VERTEX
8
0
10
602.44
20
183.368
0
VERTEX
8
0
10
611.899
20
198.715
0
VERTEX
8
0
10
613.219
20
202.179
0
VERTEX
8
0
10
614.789
20
203.532
0
VERTEX
8
0
10
622.17
20
215.959
0
VERTEX
8
0
10
624.204
20
219.94
0
VERTEX
8
0
10
631.67
20
228.723
0
VERTEX
8
0
10
633.605
20
231.847
0
VERTEX
8
0
10
636.7
20
235.231
0
VERTEX
8
0
10
638.85
20
236.8
0
VERTEX
8
0
10
642.215
20
237.538
0
VERTEX
8
0
10
644.806
20
237.867
0
VERTEX
8
0
10
651.184
20
251.099
0
VERTEX
8
0
10
652.34
20
243.183
0
VERTEX
8
0
10
660.201
20
271.492
0
VERTEX
8
0
10
659.819
20
260.575
0
VERTEX
8
0
10
663.751
20
283.372
0
VERTEX
8
0
10
662.26
20
285.593
0
VERTEX
8
0
10
662.193
20
285.562
0
VERTEX
8
0
10
660.734
20
287.537
0
VERTEX
8
0
10
660.529
20
287.453
0
VERTEX
8
0
10
657.545
20
292.39
0
VERTEX
8
0
10
657.29
20
292.265
0
VERTEX
8
0
10
654.544
20
293.506
0
VERTEX
8
0
10
653.724
20
292.81
0
VERTEX
8
0
10
650.686
20
294.217
0
VERTEX
8
0
10
650.316
20
294.123
0
VERTEX
8
0
10
646.747
20
293.944
0
VERTEX
8
0
10
645.868
20
293.798
0
VERTEX
8
0
10
643.07
20
293.911
0
VERTEX
8
0
10
642.542
20
294.147
0
VERTEX
8
0
10
638.587
20
295.472
0
VERTEX
8
0
10
637.614
20
296.203
0
VERTEX
8
0
10
631.187
20
299.042
0
VERTEX
8
0
10
628.206
20
301.19
0
VERTEX
8
0
10
627.07
20
301.914
0
VERTEX
8
0
10
623.307
20
302.82
0
VERTEX
8
0
10
622.21
20
303.55
0
VERTEX
8
0
10
619.428
20
306.291
0
VERTEX
8
0
10
618.01
20
307.854
0
VERTEX
8
0
10
617.107
20
307.68
0
VERTEX
8
0
10
615.818
20
309.118
0
VERTEX
8
0
10
613.133
20
310.539
0
VERTEX
8
0
10
610.808
20
312.963
0
VERTEX
8
0
10
609.231
20
314.412
0
VERTEX
8
0
10
605.348
20
316.684
0
VERTEX
8
0
10
603.905
20
318.41
0
VERTEX
8
0
10
603.29
20
320.233
0
VERTEX
8
0
10
601.494
20
322.929
0
VERTEX
8
0
10
599.945
20
326.587
0
VERTEX
8
0
10
599.722
20
327.235
0
VERTEX
8
0
10
597.105
20
330.031
0
VERTEX
8
0
10
595.591
20
335.289
0
VERTEX
8
0
10
593.357
20
339.254
0
VERTEX
8
0
10
590.327
20
350.03
0
VERTEX
8
0
10
588.682
20
352.234
0
VERTEX
8
0
10
587.246
20
355.347
0
VERTEX
8
0
10
580.279
20
380.316
0
VERTEX
8
0
10
579.091
20
382.461
0
VERTEX
8
0
10
578.109
20
385.589
0
VERTEX
8
0
10
575.717
20
406.079
0
VERTEX
8
0
10
573.111
20
419.721
0
VERTEX
8
0
10
572.685
20
420.852
0
VERTEX
8
0
10
567.372
20
440.894
0
VERTEX
8
0
10
561.741
20
470.419
0
VERTEX
8
0
10
561.506
20
492.245
0
VERTEX
8
0
10
565.266
20
489.255
0
VERTEX
8
0
10
565.663
20
489.778
0
VERTEX
8
0
10
570.209
20
483.854
0
VERTEX
8
0
10
570.435
20
485.956
0
VERTEX
8
0
10
570.284
20
489.801
0
VERTEX
8
0
10
575.354
20
483.607
0
VERTEX
8
0
10
575.921
20
483.944
0
VERTEX
8
0
10
581.538
20
482.221
0
VERTEX
8
0
10
582.015
20
483.197
0
VERTEX
8
0
10
585.924
20
480.243
0
VERTEX
8
0
10
586.456
20
482.323
0
VERTEX
8
0
10
588.927
20
471.936
0
VERTEX
8
0
10
594.349
20
452.686
0
VERTEX
8
0
10
595.533
20
454.151
0
VERTEX
8
0
10
597.157
20
451.09
0
VERTEX
8
0
10
598.467
20
451.987
0
VERTEX
8
0
10
602.201
20
444.781
0
VERTEX
8
0
10
602.843
20
444.546
0
VERTEX
8
0
10
607.519
20
437.757
0
VERTEX
8
0
10
609.223
20
436.957
0
VERTEX
8
0
10
611.173
20
436.37
0
VERTEX
8
0
10
614.647
20
430.766
0
VERTEX
8
0
10
616.562
20
429.629
0
VERTEX
8
0
10
619.839
20
424.823
0
VERTEX
8
0
10
622.061
20
423.125
0
VERTEX
8
0
10
625.177
20
420.287
0
VERTEX
8
0
10
627.134
20
419.371
0
VERTEX
8
0
10
629.25
20
418.641
0
VERTEX
8
0
10
632.588
20
414.642
0
VERTEX
8
0
10
634.968
20
412.943
0
VERTEX
8
0
10
638.991
20
409.429
0
VERTEX
8
0
10
641.387
20
408.649
0
VERTEX
8
0
10
642.817
20
408.622
0
VERTEX
8
0
10
646.785
20
404.026
0
VERTEX
8
0
10
650.327
20
401.395
0
VERTEX
8
0
10
654.137
20
395.264
0
VERTEX
8
0
10
656.946
20
391.298
0
VERTEX
8
0
10
658.043
20
389.082
0
VERTEX
8
0
10
664.233
20
378.395
0
VERTEX
8
0
10
666.836
20
375.222
0
VERTEX
8
0
10
669.977
20
369.822
0
VERTEX
8
0
10
671.507
20
367.626
0
VERTEX
8
0
10
676.199
20
358.948
0
VERTEX
8
0
10
677.96
20
355.141
0
VERTEX
8
0
10
679.51
20
353.118
0
VERTEX
8
0
10
683.516
20
342.953
0
VERTEX
8
0
10
686.128
20
339.806
0
VERTEX
8
0
10
686.989
20
338.54
0
VERTEX
8
0
10
691.656
20
338.224
0
VERTEX
8
0
10
692.365
20
337.452
0
VERTEX
8
0
10
697.304
20
335.615
0
VERTEX
8
0
10
697.794
20
335.068
0
VERTEX
8
0
10
702.476
20
332.829
0
VERTEX
8
0
10
702.771
20
332.528
0
VERTEX
8
0
10
707.763
20
330.692
0
VERTEX
8
0
10
708.01
20
330.571
0
VERTEX
8
0
10
717.232
20
329.4
0
VERTEX
8
0
10
717.362
20
329.351
0
VERTEX
8
0
10
728.156
20
327.787
0
VERTEX
8
0
10
728.281
20
327.746
0
VERTEX
8
0
10
738.664
20
325.749
0
VERTEX
8
0
10
738.817
20
325.697
0
VERTEX
8
0
10
749.698
20
321.355
0
VERTEX
8
0
10
759.058
20
316.964
0
VERTEX
8
0
10
763.283
20
290.566
0
VERTEX
8
0
10
764.032
20
273.264
0
SEQEND
0
POLYLINE
8
0
10
0
20
0
66
1
0
VERTEX
8
0
10
566.139
20
503.896
0
VERTEX
8
0
10
567.545
20
498.923
0
VERTEX
8
0
10
564.255
20
496.867
0
VERTEX
8
0
10
564.249
20
496.434
0
VERTEX
8
0
10
560.868
20
495.544
0
VERTEX
8
0
10
560.858
20
495.431
0
VERTEX
8
0
10
559.892
20
494.93
0
VERTEX
8
0
10
561.388
20
471.142
0
VERTEX
8
0
10
547.993
20
484.964
0
VERTEX
8
0
10
545.362
20
491.2
0
VERTEX
8
0
10
535.532
20
490.951
0
VERTEX
8
0
10
526.927
20
489.75
0
VERTEX
8
0
10
525.485
20
489.187
0
VERTEX
8
0
10
524.549
20
488.444
0
VERTEX
8
0
10
514.785
20
488.2
0
VERTEX
8
0
10
512.755
20
488.429
0
VERTEX
8
0
10
504.471
20
488.747
0
VERTEX
8
0
10
501.684
20
489.24
0
VERTEX
8
0
10
490.259
20
489.929
0
VERTEX
8
0
10
487.406
20
491.445
0
VERTEX
8
0
10
484.859
20
492.043
0
VERTEX
8
0
10
481.703
20
493.09
0
VERTEX
8
0
10
479.542
20
492.687
0
VERTEX
8
0
10
473.436
20
492.982
0
VERTEX
8
0
10
469.629
20
495.011
0
VERTEX
8
0
10
465.593
20
494.626
0
VERTEX
8
0
10
457.389
20
497.467
0
VERTEX
8
0
10
449.377
20
502.316
0
VERTEX
8
0
10
447.905
20
502.767
0
VERTEX
8
0
10
439.797
20
507.424
0
VERTEX
8
0
10
439.158
20
508.054
0
VERTEX
8
0
10
434.657
20
509.253
0
VERTEX
8
0
10
434.217
20
509.317
0
VERTEX
8
0
10
434.204
20
509.32
0
VERTEX
8
0
10
433.997
20
509.616
0
VERTEX
8
0
10
428.127
20
519.061
0
VERTEX
8
0
10
427.511
20
519.52
0
VERTEX
8
0
10
426.903
20
519.207
0
VERTEX
8
0
10
425.602
20
516.045
0
VERTEX
8
0
10
424.89
20
516.896
0
VERTEX
8
0
10
419.6
20
520.524
0
VERTEX
8
0
10
417.42
20
522.693
0
VERTEX
8
0
10
413.68
20
527.087
0
VERTEX
8
0
10
410.303
20
530.084
0
VERTEX
8
0
10
409.356
20
530.44
0
VERTEX
8
0
10
404.258
20
534.02
0
VERTEX
8
0
10
404.126
20
534.089
0
VERTEX
8
0
10
399.222
20
539.819
0
SEQEND
0
POLYLINE
8
0
10
0
20
0
66
1
0
VERTEX
8
0
10
457.237
20
585.619
0
VERTEX
8
0
10
457.727
20
585.466
0
VERTEX
8
0
10
462.711
20
582.211
0
VERTEX
8
0
10
471.492
20
577.226
0
VERTEX
8
0
10
475.926
20
575.214
0
VERTEX
8
0
10
480.175
20
573.628
0
VERTEX
8
0
10
486.952
20
569.759
0
VERTEX
8
0
10
501.811
20
562.256
0
VERTEX
8
0
10
511.493
20
558.169
0
VERTEX
8
0
10
517.005
20
552.482
0
VERTEX
8
0
10
518.137
20
551.68
0
VERTEX
8
0
10
527.389
20
541.492
0
VERTEX
8
0
10
529.982
20
540.402
0
VERTEX
8
0
10
532.312
20
536.674
0
VERTEX
8
0
10
536.003
20
535.263
0
VERTEX
8
0
10
541.546
20
532.682
0
VERTEX
8
0
10
544.16
20
530.534
0
VERTEX
8
0
10
548.572
20
528.692
0
VERTEX
8
0
10
553.382
20
526.425
0
VERTEX
8
0
10
554.519
20
525.248
0
VERTEX
8
0
10
559.025
20
522.883
0
VERTEX
8
0
10
562.023
20
521.091
0
VERTEX
8
0
10
566.139
20
503.896
0
SEQEND
0
POLYLINE
8
0
10
0
20
0
66
1
0
VERTEX
8
0
10
203.505
20
32.9263
0
VERTEX
8
0
10
202.584
20
26.223
0
VERTEX
8
0
10
201.174
20
7.79522
0
VERTEX
8
0
10
197.452
20
6.79687
0
VERTEX
8
0
10
193.26
20
5.8507
0
VERTEX
8
0
10
189.365
20
5.13494
0
VERTEX
8
0
10
185.741
20
4.62273
0
VERTEX
8
0
10
179.961
20
4.11419
0
VERTEX
8
0
10
179.608
20
4.38421
0
VERTEX
8
0
10
179.406
20
4.52025
0
VERTEX
8
0
10
176.024
20
7.16509
0
VERTEX
8
0
10
173.241
20
9.52605
0
VERTEX
8
0
10
171.686
20
10.991
0
VERTEX
8
0
10
170.703
20
12.107
0
VERTEX
8
0
10
167.756
20
15.8809
0
VERTEX
8
0
10
165.786
20
18.7514
0
VERTEX
8
0
10
165.301
20
19.8072
0
VERTEX
8
0
10
164.911
20
20.8993
0
VERTEX
8
0
10
164.311
20
22.3323
0
VERTEX
8
0
10
161.98
20
28.9753
0
VERTEX
8
0
10
160.705
20
31.9154
0
VERTEX
8
0
10
159.764
20
36.6074
0
VERTEX
8
0
10
159.351
20
37.2864
0
VERTEX
8
0
10
158.92
20
38.1272
0
VERTEX
8
0
10
160.545
20
41.1178
0
VERTEX
8
0
10
163.371
20
45.1714
0
VERTEX
8
0
10
166.734
20
49.3181
0
VERTEX
8
0
10
167.35
20
49.9829
0
VERTEX
8
0
10
170.073
20
50.9906
0
VERTEX
8
0
10
172.312
20
51.5892
0
VERTEX
8
0
10
174.162
20
51.7687
0
VERTEX
8
0
10
175.747
20
52.2545
0
VERTEX
8
0
10
177.837
20
52.2564
0
VERTEX
8
0
10
178.983
20
52.5602
0
VERTEX
8
0
10
182.387
20
52.7396
0
VERTEX
8
0
10
183.042
20
52.8108
0
VERTEX
8
0
10
185.31
20
52.6795
0
VERTEX
8
0
10
188.127
20
52.8133
0
VERTEX
8
0
10
188.232
20
52.8221
0
VERTEX
8
0
10
189.038
20
52.7288
0
VERTEX
8
0
10
190.166
20
52.3605
0
VERTEX
8
0
10
191.523
20
49.9523
0
VERTEX
8
0
10
193.923
20
46.5065
0
VERTEX
8
0
10
195.899
20
42.8453
0
VERTEX
8
0
10
197.853
20
40.3277
0
VERTEX
8
0
10
199.004
20
38.6483
0
VERTEX
8
0
10
201.729
20
35.3804
0
VERTEX
8
0
10
202.091
20
34.8152
0
VERTEX
8
0
10
203.505
20
32.9263
0
SEQEND
0
POLYLINE
8
0
10
0
20
0
66
1
0
VERTEX
8
0
10
147.271
20
386.873
0
VERTEX
8
0
10
146.384
20
349.331
0
VERTEX
8
0
10
145.518
20
349.199
0
VERTEX
8
0
10
144.447
20
348.748
0
VERTEX
8
0
10
140.247
20
347.676
0
VERTEX
8
0
10
139.482
20
347.325
0
VERTEX
8
0
10
137.461
20
346.647
0
VERTEX
8
0
10
130.981
20
343.701
0
VERTEX
8
0
10
103.212
20
343.737
0
SEQEND
0
POLYLINE
8
0
10
0
20
0
66
1
0
VERTEX
8
0
10
100.026
20
418.708
0
VERTEX
8
0
10
105.82
20
419.021
0
VERTEX
8
0
10
110.892
20
419.079
0
VERTEX
8
0
10
113.651
20
418.872
0
VERTEX
8
0
10
116.643
20
418.945
0
VERTEX
8
0
10
119.807
20
419.24
0
VERTEX
8
0
10
132.916
20
421.558
0
VERTEX
8
0
10
135.94
20
418.757
0
VERTEX
8
0
10
137.97
20
416.681
0
VERTEX
8
0
10
140.32
20
414.562
0
VERTEX
8
0
10
148.347
20
406.176
0
VERTEX
8
0
10
147.271
20
386.873
0
SEQEND
0
POLYLINE
8
0
10
0
20
0
66
1
0
VERTEX
8
0
10
126.482
20
114.489
0
VERTEX
8
0
10
120.837
20
98.9056
0
VERTEX
8
0
10
96.564
20
90.6477
0
VERTEX
8
0
10
95.872
20
91.0057
0
SEQEND
0
POLYLINE
8
0
10
0
20
0
66
1
0
VERTEX
8
0
10
67.9453
20
149.804
0
VERTEX
8
0
10
69.5714
20
155.863
0
VERTEX
8
0
10
92.6958
20
166.395
0
VERTEX
8
0
10
106.774
20
160.128
0
VERTEX
8
0
10
108.054
20
159.493
0
VERTEX
8
0
10
126.482
20
114.489
0
SEQEND
0
POLYLINE
8
0
10
0
20
0
66
1
0
VERTEX
8
0
10
109.138
20
240.61
0
VERTEX
8
0
10
109.856
20
226.074
0
VERTEX
8
0
10
99.6149
20
223.951
0
VERTEX
8
0
10
97.505
20
223.275
0
VERTEX
8
0
10
74.9692
20
217.563
0
VERTEX
8
0
10
73.8424
20
218.299
0
SEQEND
0
POLYLINE
8
0
10
0
20
0
66
1
0
VERTEX
8
0
10
62.5197
20
290.75
0
VERTEX
8
0
10
71.8656
20
293.45
0
VERTEX
8
0
10
91.1564
20
297.909
0
VERTEX
8
0
10
92.261
20
295.87
0
VERTEX
8
0
10
99.4546
20
284.189
0
VERTEX
8
0
10
109.138
20
240.61
0
SEQEND
0
POLYLINE
8
0
10
0
20
0
66
1
0
VERTEX
8
0
10
453.455
20
551.56
0
VERTEX
8
0
10
453.098
20
551.661
0
VERTEX
8
0
10
449.265
20
551.684
0
VERTEX
8
0
10
448.597
20
551.469
0
VERTEX
8
0
10
445.385
20
550.667
0
VERTEX
8
0
10
444.454
20
551.197
0
VERTEX
8
0
10
438.703
20
549.128
0
VERTEX
8
0
10
437.124
20
549.241
0
VERTEX
8
0
10
434.407
20
550.084
0
VERTEX
8
0
10
432.016
20
549.415
0
VERTEX
8
0
10
431.023
20
549.831
0
VERTEX
8
0
10
429.028
20
550.028
0
VERTEX
8
0
10
424.767
20
551.963
0
VERTEX
8
0
10
424.59
20
552.027
0
VERTEX
8
0
10
422.992
20
552.365
0
VERTEX
8
0
10
420.752
20
551.973
0
VERTEX
8
0
10
420.336
20
552.029
0
VERTEX
8
0
10
417.674
20
551.821
0
VERTEX
8
0
10
384.967
20
542.547
0
VERTEX
8
0
10
383.734
20
542.886
0
VERTEX
8
0
10
383.351
20
542.974
0
VERTEX
8
0
10
376.523
20
544.295
0
VERTEX
8
0
10
374.054
20
543.583
0
VERTEX
8
0
10
369.448
20
544.395
0
VERTEX
8
0
10
367.623
20
545.189
0
VERTEX
8
0
10
363.132
20
544.379
0
VERTEX
8
0
10
358.865
20
545.282
0
VERTEX
8
0
10
357.009
20
544.36
0
VERTEX
8
0
10
355.682
20
543.795
0
VERTEX
8
0
10
354.975
20
544.027
0
VERTEX
8
0
10
352.292
20
543.405
0
VERTEX
8
0
10
352.037
20
543.548
0
VERTEX
8
0
10
350.58
20
543.167
0
VERTEX
8
0
10
349.494
20
543.152
0
VERTEX
8
0
10
348.542
20
544.313
0
VERTEX
8
0
10
344.084
20
550.694
0
VERTEX
8
0
10
339.042
20
557.009
0
SEQEND
0
POLYLINE
8
0
10
0
20
0
66
1
0
VERTEX
8
0
10
412.236
20
614.79
0
VERTEX
8
0
10
415.534
20
615.333
0
VERTEX
8
0
10
418.339
20
614.11
0
VERTEX
8
0
10
423.791
20
610.646
0
VERTEX
8
0
10
438.277
20
603.674
0
VERTEX
8
0
10
439.405
20
602.978
0
VERTEX
8
0
10
442.175
20
601.563
0
VERTEX
8
0
10
445.542
20
592.138
0
VERTEX
8
0
10
447.558
20
588.499
0
VERTEX
8
0
10
456.678
20
569.385
0
VERTEX
8
0
10
460.523
20
562.82
0
VERTEX
8
0
10
458.189
20
551.924
0
VERTEX
8
0
10
457.832
20
551.106
0
VERTEX
8
0
10
453.455
20
551.56
0
SEQEND
0
POLYLINE
8
0
10
0
20
0
66
1
0
VERTEX
8
0
10
103.268
20
397.611
0
VERTEX
8
0
10
103.673
20
360.709
0
VERTEX
8
0
10
96.4138
20
348.931
0
VERTEX
8
0
10
93.564
20
343.917
0
VERTEX
8
0
10
74.1087
20
344.145
0
VERTEX
8
0
10
71.7363
20
346.654
0
SEQEND
0
POLYLINE
8
0
10
0
20
0
66
1
0
VERTEX
8
0
10
69.8503
20
413.924
0
VERTEX
8
0
10
71.3518
20
415.85
0
VERTEX
8
0
10
92.468
20
418.125
0
VERTEX
8
0
10
93.6539
20
416.395
0
VERTEX
8
0
10
103.213
20
403.649
0
VERTEX
8
0
10
103.268
20
397.611
0
SEQEND
0
POLYLINE
8
0
10
0
20
0
66
1
0
VERTEX
8
0
10
78.1171
20
109.89
0
VERTEX
8
0
10
75.1043
20
96.8498
0
VERTEX
8
0
10
72.6854
20
97.4813
0
VERTEX
8
0
10
69.1808
20
98.2399
0
VERTEX
8
0
10
66.2698
20
99.4048
0
VERTEX
8
0
10
65.2445
20
99.899
0
VERTEX
8
0
10
63.4227
20
101.044
0
VERTEX
8
0
10
62.5691
20
101.638
0
VERTEX
8
0
10
61.0808
20
103.024
0
VERTEX
8
0
10
59.3547
20
104.982
0
VERTEX
8
0
10
57.5978
20
107.23
0
VERTEX
8
0
10
56.0097
20
109.586
0
VERTEX
8
0
10
53.2978
20
116.801
0
VERTEX
8
0
10
51.7547
20
124.013
0
VERTEX
8
0
10
52.0223
20
130.864
0
VERTEX
8
0
10
53.7789
20
137.669
0
VERTEX
8
0
10
55.3827
20
141.489
0
VERTEX
8
0
10
56.0186
20
142.666
0
VERTEX
8
0
10
56.7825
20
141.831
0
VERTEX
8
0
10
57.4874
20
140.757
0
VERTEX
8
0
10
59.3418
20
138.757
0
VERTEX
8
0
10
59.7913
20
137.7
0
VERTEX
8
0
10
60.9447
20
136.131
0
VERTEX
8
0
10
61.7023
20
134.394
0
VERTEX
8
0
10
63.1912
20
131.989
0
VERTEX
8
0
10
64.1076
20
129.404
0
VERTEX
8
0
10
66.0775
20
127.469
0
VERTEX
8
0
10
67.0818
20
124.468
0
VERTEX
8
0
10
70.2537
20
119.883
0
VERTEX
8
0
10
71.6016
20
117.63
0
VERTEX
8
0
10
74.7035
20
114.429
0
VERTEX
8
0
10
75.3225
20
113.42
0
VERTEX
8
0
10
78.0764
20
109.951
0
VERTEX
8
0
10
78.1007
20
109.936
0
VERTEX
8
0
10
78.1171
20
109.89
0
SEQEND
0
POLYLINE
8
0
10
0
20
0
66
1
0
VERTEX
8
0
10
72.2858
20
222.056
0
VERTEX
8
0
10
40.7221
20
217.01
0
VERTEX
8
0
10
31.8087
20
222.738
0
SEQEND
0
POLYLINE
8
0
10
0
20
0
66
1
0
VERTEX
8
0
10
23.601
20
278.521
0
VERTEX
8
0
10
26.4968
20
282.676
0
VERTEX
8
0
10
55.3295
20
292.804
0
VERTEX
8
0
10
64.3799
20
274.415
0
VERTEX
8
0
10
71.0089
20
242.734
0
VERTEX
8
0
10
72.2858
20
222.056
0
SEQEND
0
POLYLINE
8
0
10
0
20
0
66
1
0
VERTEX
8
0
10
415.323
20
588.48
0
VERTEX
8
0
10
416.388
20
589.809
0
VERTEX
8
0
10
414.396
20
593.66
0
VERTEX
8
0
10
413.877
20
594.445
0
VERTEX
8
0
10
411.27
20
597.875
0
VERTEX
8
0
10
404.48
20
608.324
0
VERTEX
8
0
10
395.934
20
619.548
0
VERTEX
8
0
10
395.563
20
619.63
0
VERTEX
8
0
10
389.44
20
620.564
0
VERTEX
8
0
10
386.333
20
621.647
0
VERTEX
8
0
10
384.559
20
622.056
0
VERTEX
8
0
10
382.746
20
622.665
0
VERTEX
8
0
10
377.76
20
624.013
0
VERTEX
8
0
10
377.06
20
624.246
0
VERTEX
8
0
10
375.599
20
624.547
0
VERTEX
8
0
10
372.564
20
624.006
0
VERTEX
8
0
10
371.596
20
623.356
0
VERTEX
8
0
10
369.735
20
622.317
0
VERTEX
8
0
10
364.514
20
622.57
0
SEQEND
0
POLYLINE
8
0
10
0
20
0
66
1
0
VERTEX
8
0
10
308.788
20
606.45
0
VERTEX
8
0
10
307.92
20
605.165
0
VERTEX
8
0
10
307.824
20
604.468
0
VERTEX
8
0
10
307.567
20
603.643
0
VERTEX
8
0
10
306.019
20
601.369
0
VERTEX
8
0
10
305.983
20
601.274
0
VERTEX
8
0
10
305.947
20
601.196
0
VERTEX
8
0
10
305.666
20
600.817
0
VERTEX
8
0
10
304.809
20
593.873
0
VERTEX
8
0
10
304.726
20
589.723
0
VERTEX
8
0
10
304.812
20
586.038
0
VERTEX
8
0
10
304.949
20
584.694
0
VERTEX
8
0
10
305.008
20
584.685
0
VERTEX
8
0
10
305.379
20
584.588
0
VERTEX
8
0
10
305.684
20
584.459
0
VERTEX
8
0
10
306.145
20
584.399
0
VERTEX
8
0
10
306.712
20
584.467
0
VERTEX
8
0
10
308.01
20
584.194
0
VERTEX
8
0
10
308.711
20
583.932
0
VERTEX
8
0
10
309.22
20
583.854
0
VERTEX
8
0
10
311.542
20
583.134
0
VERTEX
8
0
10
311.971
20
583.057
0
VERTEX
8
0
10
314.893
20
581.485
0
VERTEX
8
0
10
315.254
20
581.318
0
VERTEX
8
0
10
315.528
20
581.326
0
VERTEX
8
0
10
319.765
20
579.58
0
VERTEX
8
0
10
320.022
20
579.498
0
VERTEX
8
0
10
323.775
20
577.76
0
VERTEX
8
0
10
323.994
20
577.685
0
VERTEX
8
0
10
324.185
20
577.658
0
VERTEX
8
0
10
327.924
20
575.244
0
VERTEX
8
0
10
328.074
20
575.247
0
VERTEX
8
0
10
332.666
20
572.93
0
VERTEX
8
0
10
332.797
20
572.935
0
VERTEX
8
0
10
335.258
20
571.515
0
VERTEX
8
0
10
335.569
20
571.116
0
VERTEX
8
0
10
335.703
20
571.074
0
VERTEX
8
0
10
336.272
20
570.994
0
VERTEX
8
0
10
349.769
20
570.426
0
VERTEX
8
0
10
352.794
20
570.004
0
VERTEX
8
0
10
357.566
20
569.975
0
VERTEX
8
0
10
359.007
20
570.111
0
VERTEX
8
0
10
359.57
20
570.237
0
VERTEX
8
0
10
372.746
20
571.171
0
VERTEX
8
0
10
381.612
20
572.15
0
VERTEX
8
0
10
382.865
20
572.395
0
VERTEX
8
0
10
390.403
20
573.4
0
VERTEX
8
0
10
391.433
20
573.447
0
VERTEX
8
0
10
398.511
20
575.566
0
VERTEX
8
0
10
398.952
20
575.65
0
VERTEX
8
0
10
401.152
20
576.295
0
VERTEX
8
0
10
410.272
20
584.072
0
VERTEX
8
0
10
413.184
20
586.202
0
VERTEX
8
0
10
413.907
20
586.406
0
VERTEX
8
0
10
415.083
20
588.089
0
VERTEX
8
0
10
415.323
20
588.48
0
SEQEND
0
POLYLINE
8
0
10
0
20
0
66
1
0
VERTEX
8
0
10
71.5415
20
394.094
0
VERTEX
8
0
10
71.5707
20
394.77
0
VERTEX
8
0
10
64.059
20
406.929
0
VERTEX
8
0
10
62.2656
20
409.271
0
VERTEX
8
0
10
54.1191
20
406.64
0
VERTEX
8
0
10
45.0523
20
403.116
0
VERTEX
8
0
10
40.6602
20
400.117
0
VERTEX
8
0
10
39.2962
20
393.283
0
VERTEX
8
0
10
38.4719
20
390.715
0
VERTEX
8
0
10
38.3095
20
389.191
0
VERTEX
8
0
10
37.5639
20
385.919
0
VERTEX
8
0
10
37.9919
20
383.164
0
VERTEX
8
0
10
38.5341
20
378.208
0
VERTEX
8
0
10
38.9626
20
375.894
0
VERTEX
8
0
10
39.9576
20
373.714
0
VERTEX
8
0
10
42.3909
20
365.446
0
VERTEX
8
0
10
43.3981
20
363.028
0
VERTEX
8
0
10
43.989
20
361.75
0
VERTEX
8
0
10
45.9196
20
360.284
0
VERTEX
8
0
10
46.2007
20
360.115
0
VERTEX
8
0
10
50.4263
20
358.139
0
VERTEX
8
0
10
51.9248
20
357.642
0
VERTEX
8
0
10
58.2546
20
355.844
0
VERTEX
8
0
10
63.1619
20
354.86
0
VERTEX
8
0
10
63.5889
20
354.79
0
VERTEX
8
0
10
67.5504
20
360.784
0
VERTEX
8
0
10
69.7092
20
364.378
0
VERTEX
8
0
10
71.5415
20
394.094
0
SEQEND
0
POLYLINE
8
0
10
0
20
0
66
1
0
VERTEX
8
0
10
22.4954
20
235.237
0
VERTEX
8
0
10
22.0831
20
237.397
0
VERTEX
8
0
10
22.0476
20
237.532
0
VERTEX
8
0
10
21.9545
20
237.513
0
VERTEX
8
0
10
21.8745
20
237.567
0
VERTEX
8
0
10
19.0125
20
247.96
0
VERTEX
8
0
10
18.3628
20
247.724
0
VERTEX
8
0
10
17.9865
20
246.773
0
VERTEX
8
0
10
14.7387
20
254.041
0
VERTEX
8
0
10
12.8941
20
258.978
0
VERTEX
8
0
10
12.3164
20
257.385
0
VERTEX
8
0
10
11.6009
20
254.371
0
VERTEX
8
0
10
11.5501
20
253.952
0
VERTEX
8
0
10
11.3131
20
248.302
0
VERTEX
8
0
10
11.3564
20
247.626
0
VERTEX
8
0
10
11.4324
20
247.268
0
VERTEX
8
0
10
11.7399
20
246.451
0
VERTEX
8
0
10
12.3609
20
243.144
0
VERTEX
8
0
10
12.8388
20
242.425
0
VERTEX
8
0
10
15.188
20
239.926
0
VERTEX
8
0
10
17.8051
20
237.875
0
VERTEX
8
0
10
18.1881
20
237.602
0
VERTEX
8
0
10
21.9461
20
235.505
0
VERTEX
8
0
10
22.4954
20
235.237
0
SEQEND
0
POLYLINE
8
0
10
0
20
0
66
1
0
VERTEX
8
0
10
837.396
20
343.389
0
VERTEX
8
0
10
840.681
20
343.663
0
VERTEX
8
0
10
842.385
20
343.249
0
VERTEX
8
0
10
866.643
20
284.112
0
VERTEX
8
0
10
875.5
20
258.351
0
VERTEX
8
0
10
876.163
20
255.979
0
VERTEX
8
0
10
876.535
20
253.689
0
VERTEX
8
0
10
878.185
20
249.335
0
VERTEX
8
0
10
876.758
20
246.032
0
SEQEND
0
POLYLINE
8
0
10
0
20
0
66
1
0
VERTEX
8
0
10
760.485
20
366.975
0
VERTEX
8
0
10
763.576
20
367.597
0
VERTEX
8
0
10
787.354
20
305.959
0
VERTEX
8
0
10
856.816
20
94.3947
0
SEQEND
0
POLYLINE
8
0
10
0
20
0
66
1
0
VERTEX
8
0
10
781.863
20
108.456
0
VERTEX
8
0
10
681.115
20
407.088
0
VERTEX
8
0
10
680.936
20
407.071
0
VERTEX
8
0
10
679.929
20
406.434
0
SEQEND
0
POLYLINE
8
0
10
0
20
0
66
1
0
VERTEX
8
0
10
781.499
20
108.571
0
VERTEX
8
0
10
781.863
20
108.456
0
SEQEND
0
POLYLINE
8
0
10
0
20
0
66
1
0
VERTEX
8
0
10
704.125
20
132.156
0
VERTEX
8
0
10
705.554
20
129.321
0
VERTEX
8
0
10
578.54
20
508.627
0
VERTEX
8
0
10
578.053
20
509.216
0
VERTEX
8
0
10
576.775
20
512.71
0
VERTEX
8
0
10
575.657
20
515.345
0
VERTEX
8
0
10
572.977
20
522.444
0
SEQEND
0
POLYLINE
8
0
10
0
20
0
66
1
0
VERTEX
8
0
10
635.285
20
134.217
0
VERTEX
8
0
10
635.321
20
134.037
0
VERTEX
8
0
10
489.152
20
569.892
0
VERTEX
8
0
10
490.854
20
565.773
0
SEQEND
0
POLYLINE
8
0
10
0
20
0
66
1
0
VERTEX
8
0
10
574.468
20
112.84
0
VERTEX
8
0
10
574.498
20
112.584
0
VERTEX
8
0
10
494.442
20
356.286
0
VERTEX
8
0
10
494.434
20
356.314
0
VERTEX
8
0
10
491.391
20
365.323
0
VERTEX
8
0
10
491.367
20
365.419
0
VERTEX
8
0
10
461.028
20
455.506
0
VERTEX
8
0
10
462.255
20
454.513
0
VERTEX
8
0
10
462.292
20
455.242
0
SEQEND
0
POLYLINE
8
0
10
0
20
0
66
1
0
VERTEX
8
0
10
574.265
20
114.395
0
VERTEX
8
0
10
574.468
20
112.84
0
SEQEND
0
POLYLINE
8
0
10
0
20
0
66
1
0
VERTEX
8
0
10
443.585
20
502.643
0
VERTEX
8
0
10
409.49
20
591.949
0
VERTEX
8
0
10
401.236
20
618.312
0
VERTEX
8
0
10
401.569
20
618.154
0
VERTEX
8
0
10
402.629
20
617.45
0
SEQEND
0
POLYLINE
8
0
10
0
20
0
66
1
0
VERTEX
8
0
10
450.02
20
488.117
0
VERTEX
8
0
10
450.259
20
486.276
0
VERTEX
8
0
10
446.733
20
494.099
0
VERTEX
8
0
10
443.585
20
502.643
0
SEQEND
0
POLYLINE
8
0
10
0
20
0
66
1
0
VERTEX
8
0
10
510.381
20
109.006
0
VERTEX
8
0
10
510.094
20
113.307
0
SEQEND
0
POLYLINE
8
0
10
0
20
0
66
1
0
VERTEX
8
0
10
406.991
20
434.832
0
VERTEX
8
0
10
405.28
20
436.341
0
VERTEX
8
0
10
403.577
20
437.72
0
VERTEX
8
0
10
497.848
20
141.945
0
VERTEX
8
0
10
510.403
20
107.542
0
VERTEX
8
0
10
510.381
20
109.006
0
SEQEND
0
POLYLINE
8
0
10
0
20
0
66
1
0
VERTEX
8
0
10
351.55
20
558.184
0
VERTEX
8
0
10
352.789
20
555.408
0
VERTEX
8
0
10
360.705
20
540.347
0
VERTEX
8
0
10
359.188
20
545.771
0
SEQEND
0
POLYLINE
8
0
10
0
20
0
66
1
0
VERTEX
8
0
10
325.883
20
628.519
0
VERTEX
8
0
10
325.355
20
629.675
0
VERTEX
8
0
10
324.475
20
629.872
0
VERTEX
8
0
10
324.148
20
629.743
0
VERTEX
8
0
10
325.87
20
621.726
0
VERTEX
8
0
10
351.55
20
558.184
0
SEQEND
0
POLYLINE
8
0
10
0
20
0
66
1
0
VERTEX
8
0
10
447.018
20
105.967
0
VERTEX
8
0
10
447.226
20
109.052
0
SEQEND
0
POLYLINE
8
0
10
0
20
0
66
1
0
VERTEX
8
0
10
342.109
20
433.085
0
VERTEX
8
0
10
341.154
20
433.38
0
VERTEX
8
0
10
340.328
20
433.543
0
VERTEX
8
0
10
346.231
20
411.44
0
VERTEX
8
0
10
436.149
20
131.765
0
VERTEX
8
0
10
446.866
20
103.894
0
VERTEX
8
0
10
447.018
20
105.967
0
SEQEND
0
POLYLINE
8
0
10
0
20
0
66
1
0
VERTEX
8
0
10
390.503
20
97.5942
0
VERTEX
8
0
10
387.011
20
97.59
0
VERTEX
8
0
10
386.397
20
96.7255
0
VERTEX
8
0
10
368.121
20
147.455
0
VERTEX
8
0
10
359.227
20
177.776
0
VERTEX
8
0
10
359.086
20
178.091
0
VERTEX
8
0
10
359.033
20
178.266
0
VERTEX
8
0
10
349.281
20
205.413
0
VERTEX
8
0
10
314.626
20
315.976
0
VERTEX
8
0
10
311.933
20
323.321
0
VERTEX
8
0
10
305.668
20
344.097
0
VERTEX
8
0
10
305.222
20
345.208
0
VERTEX
8
0
10
304.733
20
346.583
0
VERTEX
8
0
10
304.047
20
348.244
0
VERTEX
8
0
10
304.138
20
348.16
0
VERTEX
8
0
10
303.598
20
349.577
0
VERTEX
8
0
10
303.482
20
349.776
0
VERTEX
8
0
10
302.514
20
352.417
0
VERTEX
8
0
10
302.286
20
352.664
0
VERTEX
8
0
10
302.316
20
352.782
0
VERTEX
8
0
10
301.013
20
356.228
0
VERTEX
8
0
10
300.762
20
356.072
0
VERTEX
8
0
10
281.922
20
405.773
0
VERTEX
8
0
10
277.485
20
422.852
0
VERTEX
8
0
10
280.069
20
422.434
0
VERTEX
8
0
10
280.947
20
422.389
0
VERTEX
8
0
10
282.288
20
422.191
0
VERTEX
8
0
10
282.555
20
422.182
0
SEQEND
0
POLYLINE
8
0
10
0
20
0
66
1
0
VERTEX
8
0
10
311.506
20
339.675
0
VERTEX
8
0
10
312.362
20
337.745
0
SEQEND
0
POLYLINE
8
0
10
0
20
0
66
1
0
VERTEX
8
0
10
334.975
20
68.1012
0
VERTEX
8
0
10
334.919
20
69.905
0
SEQEND
0
POLYLINE
8
0
10
0
20
0
66
1
0
VERTEX
8
0
10
316.655
20
134.618
0
VERTEX
8
0
10
310.649
20
145.255
0
VERTEX
8
0
10
310.429
20
145.165
0
VERTEX
8
0
10
308.751
20
144.209
0
VERTEX
8
0
10
309.826
20
135.732
0
VERTEX
8
0
10
325.092
20
83.842
0
VERTEX
8
0
10
332.292
20
67.2081
0
VERTEX
8
0
10
334.088
20
67.7371
0
VERTEX
8
0
10
334.547
20
67.998
0
VERTEX
8
0
10
334.975
20
68.1012
0
SEQEND
0
POLYLINE
8
0
10
0
20
0
66
1
0
VERTEX
8
0
10
287.087
20
224.192
0
VERTEX
8
0
10
282.52
20
230.49
0
VERTEX
8
0
10
281.071
20
229.626
0
VERTEX
8
0
10
280.442
20
229.324
0
VERTEX
8
0
10
279.426
20
229.003
0
VERTEX
8
0
10
298.426
20
166.707
0
VERTEX
8
0
10
299.861
20
162.577
0
VERTEX
8
0
10
300.423
20
162.76
0
VERTEX
8
0
10
301.01
20
162.884
0
VERTEX
8
0
10
302.445
20
163.371
0
VERTEX
8
0
10
302.964
20
163.366
0
VERTEX
8
0
10
303.991
20
163.592
0
SEQEND
0
POLYLINE
8
0
10
0
20
0
66
1
0
VERTEX
8
0
10
269.928
20
253.998
0
VERTEX
8
0
10
274.274
20
253.753
0
SEQEND
0
POLYLINE
8
0
10
0
20
0
66
1
0
VERTEX
8
0
10
250.383
20
326.453
0
VERTEX
8
0
10
247.888
20
326.817
0
VERTEX
8
0
10
246.913
20
326.73
0
VERTEX
8
0
10
245.013
20
327.002
0
VERTEX
8
0
10
245.009
20
326.96
0
VERTEX
8
0
10
244.995
20
326.078
0
VERTEX
8
0
10
245.006
20
325.988
0
VERTEX
8
0
10
269.928
20
253.998
0
SEQEND
0
POLYLINE
8
0
10
0
20
0
66
1
0
VERTEX
8
0
10
215.593
20
419.85
0
VERTEX
8
0
10
211.08
20
421.235
0
VERTEX
8
0
10
214.962
20
404.742
0
VERTEX
8
0
10
235.649
20
344.945
0
VERTEX
8
0
10
236.985
20
344.563
0
VERTEX
8
0
10
237.539
20
344.441
0
VERTEX
8
0
10
238.594
20
344.164
0
VERTEX
8
0
10
239.29
20
344.028
0
VERTEX
8
0
10
239.624
20
343.946
0
VERTEX
8
0
10
240.609
20
344.219
0
VERTEX
8
0
10
240.62
20
344.218
0
VERTEX
8
0
10
240.637
20
344.225
0
VERTEX
8
0
10
240.725
20
344.228
0
VERTEX
8
0
10
241.04
20
346.237
0
SEQEND
0
POLYLINE
8
0
10
0
20
0
66
1
0
VERTEX
8
0
10
277.078
20
36.0657
0
VERTEX
8
0
10
273.749
20
34.0546
0
VERTEX
8
0
10
265.41
20
53.7563
0
VERTEX
8
0
10
255.492
20
91.9718
0
VERTEX
8
0
10
255.816
20
101.998
0
VERTEX
8
0
10
256.304
20
102.27
0
VERTEX
8
0
10
258.313
20
103.552
0
VERTEX
8
0
10
261.687
20
97.2954
0
SEQEND
0
POLYLINE
8
0
10
0
20
0
66
1
0
VERTEX
8
0
10
277.978
20
39.4695
0
VERTEX
8
0
10
277.297
20
36.1327
0
VERTEX
8
0
10
277.078
20
36.0657
0
SEQEND
0
POLYLINE
8
0
10
0
20
0
66
1
0
VERTEX
8
0
10
248.379
20
139.346
0
VERTEX
8
0
10
248.219
20
137.03
0
VERTEX
8
0
10
242.845
20
135.248
0
VERTEX
8
0
10
239.415
20
144.09
0
VERTEX
8
0
10
221.706
20
201.539
0
VERTEX
8
0
10
219.995
20
209.492
0
VERTEX
8
0
10
220.184
20
209.507
0
VERTEX
8
0
10
220.329
20
209.558
0
VERTEX
8
0
10
224.676
20
210.255
0
SEQEND
0
POLYLINE
8
0
10
0
20
0
66
1
0
VERTEX
8
0
10
213.016
20
241.281
0
VERTEX
8
0
10
212.526
20
241.246
0
VERTEX
8
0
10
209.086
20
240.497
0
VERTEX
8
0
10
207.231
20
240.173
0
VERTEX
8
0
10
184.816
20
306.879
0
VERTEX
8
0
10
181.322
20
319.58
0
VERTEX
8
0
10
182.898
20
319.079
0
VERTEX
8
0
10
185.081
20
318.492
0
VERTEX
8
0
10
187.53
20
317.932
0
SEQEND
0
POLYLINE
8
0
10
0
20
0
66
1
0
VERTEX
8
0
10
172.478
20
344.513
0
VERTEX
8
0
10
166.084
20
344.613
0
VERTEX
8
0
10
163.094
20
347.785
0
VERTEX
8
0
10
140.71
20
405.813
0
VERTEX
8
0
10
137.07
20
422.32
0
VERTEX
8
0
10
137.189
20
422.338
0
VERTEX
8
0
10
137.907
20
422.326
0
VERTEX
8
0
10
138.605
20
422.154
0
VERTEX
8
0
10
139.274
20
421.778
0
VERTEX
8
0
10
140.017
20
421.276
0
VERTEX
8
0
10
140.964
20
420.76
0
VERTEX
8
0
10
142.116
20
420.229
0
VERTEX
8
0
10
143.737
20
419.595
0
VERTEX
8
0
10
145.37
20
419.053
0
SEQEND
0
POLYLINE
8
0
10
0
20
0
66
1
0
VERTEX
8
0
10
172.825
20
344.495
0
VERTEX
8
0
10
172.478
20
344.513
0
SEQEND
0
POLYLINE
8
0
10
0
20
0
66
1
0
VERTEX
8
0
10
210.742
20
6.39837
0
VERTEX
8
0
10
211.388
20
6.84356
0
VERTEX
8
0
10
211.703
20
10.6707
0
VERTEX
8
0
10
212.005
20
12.1236
0
VERTEX
8
0
10
213.16
20
14.2993
0
SEQEND
0
POLYLINE
8
0
10
0
20
0
66
1
0
VERTEX
8
0
10
196.916
20
69.8802
0
VERTEX
8
0
10
195.187
20
73.0514
0
VERTEX
8
0
10
194.513
20
72.8304
0
VERTEX
8
0
10
192.606
20
72.0726
0
VERTEX
8
0
10
190.904
20
71.2435
0
VERTEX
8
0
10
190.509
20
71.0013
0
VERTEX
8
0
10
189.603
20
52.9731
0
VERTEX
8
0
10
189.661
20
51.978
0
VERTEX
8
0
10
193.821
20
34.9479
0
VERTEX
8
0
10
193.913
20
34.4346
0
VERTEX
8
0
10
204.465
20
8.16649
0
VERTEX
8
0
10
204.621
20
8.09118
0
VERTEX
8
0
10
206.111
20
7.53911
0
VERTEX
8
0
10
207.664
20
7.13842
0
VERTEX
8
0
10
209.297
20
6.90722
0
VERTEX
8
0
10
209.735
20
6.89458
0
VERTEX
8
0
10
209.814
20
6.88836
0
VERTEX
8
0
10
209.942
20
6.86968
0
VERTEX
8
0
10
210.742
20
6.39837
0
SEQEND
0
POLYLINE
8
0
10
0
20
0
66
1
0
VERTEX
8
0
10
186.045
20
115.37
0
VERTEX
8
0
10
187.481
20
115.427
0
VERTEX
8
0
10
187.636
20
119.606
0
SEQEND
0
POLYLINE
8
0
10
0
20
0
66
1
0
VERTEX
8
0
10
167.593
20
183.335
0
VERTEX
8
0
10
164.896
20
187.531
0
VERTEX
8
0
10
162.773
20
187.83
0
VERTEX
8
0
10
160.692
20
188.211
0
VERTEX
8
0
10
160.249
20
188.455
0
VERTEX
8
0
10
158.232
20
188.678
0
VERTEX
8
0
10
160.109
20
176.078
0
VERTEX
8
0
10
174.732
20
126.888
0
VERTEX
8
0
10
180.058
20
115.237
0
VERTEX
8
0
10
186.045
20
115.37
0
SEQEND
0
POLYLINE
8
0
10
0
20
0
66
1
0
VERTEX
8
0
10
142.476
20
229.313
0
VERTEX
8
0
10
146.342
20
228.896
0
VERTEX
8
0
10
146.601
20
230.313
0
SEQEND
0
POLYLINE
8
0
10
0
20
0
66
1
0
VERTEX
8
0
10
123.483
20
302.235
0
VERTEX
8
0
10
113.391
20
302.725
0
VERTEX
8
0
10
116.767
20
289.406
0
VERTEX
8
0
10
136.974
20
229.961
0
VERTEX
8
0
10
142.476
20
229.313
0
SEQEND
0
POLYLINE
8
0
10
0
20
0
66
1
0
VERTEX
8
0
10
61.7919
20
410.77
0
VERTEX
8
0
10
61.15
20
411.238
0
VERTEX
8
0
10
59.2421
20
412.41
0
VERTEX
8
0
10
59.1207
20
412.459
0
VERTEX
8
0
10
58.8167
20
412.809
0
VERTEX
8
0
10
57.8973
20
411.957
0
VERTEX
8
0
10
57.6401
20
411.748
0
VERTEX
8
0
10
56.4183
20
410.319
0
VERTEX
8
0
10
55.3939
20
408.636
0
VERTEX
8
0
10
54.607
20
406.716
0
VERTEX
8
0
10
54.0764
20
404.547
0
VERTEX
8
0
10
54.0984
20
403.983
0
VERTEX
8
0
10
53.9219
20
402.067
0
VERTEX
8
0
10
53.9529
20
401.75
0
VERTEX
8
0
10
54.0404
20
399.684
0
VERTEX
8
0
10
54.0584
20
399.591
0
VERTEX
8
0
10
54.3432
20
397.712
0
VERTEX
8
0
10
54.6376
20
396.235
0
VERTEX
8
0
10
67.8804
20
363.826
0
VERTEX
8
0
10
68.1881
20
363.411
0
VERTEX
8
0
10
68.298
20
363.251
0
VERTEX
8
0
10
69.5221
20
361.664
0
VERTEX
8
0
10
70.0612
20
360.815
0
VERTEX
8
0
10
70.4266
20
360.294
0
VERTEX
8
0
10
71.277
20
358.979
0
VERTEX
8
0
10
72.6817
20
357.007
0
VERTEX
8
0
10
74.0779
20
354.877
0
VERTEX
8
0
10
74.3283
20
354.538
0
VERTEX
8
0
10
76.2605
20
351.608
0
VERTEX
8
0
10
76.6693
20
351.078
0
VERTEX
8
0
10
79.1572
20
347.266
0
VERTEX
8
0
10
79.1692
20
347.249
0
VERTEX
8
0
10
79.1777
20
347.233
0
VERTEX
8
0
10
79.188
20
347.215
0
VERTEX
8
0
10
79.2941
20
347.072
0
VERTEX
8
0
10
80.8277
20
346.271
0
VERTEX
8
0
10
83.7479
20
345.052
0
VERTEX
8
0
10
87.6558
20
343.08
0
VERTEX
8
0
10
88.433
20
342.754
0
VERTEX
8
0
10
89.1842
20
342.538
0
VERTEX
8
0
10
89.9355
20
342.458
0
VERTEX
8
0
10
90.7141
20
342.535
0
VERTEX
8
0
10
91.5485
20
342.793
0
SEQEND
0
POLYLINE
8
0
10
0
20
0
66
1
0
VERTEX
8
0
10
116.692
20
95.862
0
VERTEX
8
0
10
116.918
20
95.8928
0
VERTEX
8
0
10
117.47
20
100.174
0
SEQEND
0
POLYLINE
8
0
10
0
20
0
66
1
0
VERTEX
8
0
10
97.8363
20
164.419
0
VERTEX
8
0
10
97.3872
20
165.092
0
VERTEX
8
0
10
96.4015
20
165.095
0
VERTEX
8
0
10
95.2788
20
165.051
0
SEQEND
0
POLYLINE
8
0
10
0
20
0
66
1
0
VERTEX
8
0
10
92.7122
20
164.906
0
VERTEX
8
0
10
88.728
20
164.651
0
VERTEX
8
0
10
86.9965
20
164.45
0
VERTEX
8
0
10
86.4804
20
160.178
0
VERTEX
8
0
10
86.1019
20
154.997
0
VERTEX
8
0
10
86.0224
20
150.904
0
VERTEX
8
0
10
86.102
20
149.506
0
VERTEX
8
0
10
96.263
20
112.811
0
VERTEX
8
0
10
97.8303
20
109.333
0
VERTEX
8
0
10
101.1
20
103.491
0
VERTEX
8
0
10
103.955
20
98.9743
0
VERTEX
8
0
10
106.239
20
95.7051
0
VERTEX
8
0
10
107.233
20
95.5415
0
VERTEX
8
0
10
108.52
20
95.4061
0
VERTEX
8
0
10
112.419
20
95.4284
0
VERTEX
8
0
10
116.692
20
95.862
0
SEQEND
0
POLYLINE
8
0
10
0
20
0
66
1
0
VERTEX
8
0
10
68.9143
20
217.19
0
VERTEX
8
0
10
70.5148
20
217.003
0
VERTEX
8
0
10
70.5468
20
217.216
0
VERTEX
8
0
10
70.6342
20
217.604
0
SEQEND
0
POLYLINE
8
0
10
0
20
0
66
1
0
VERTEX
8
0
10
41.9321
20
287.407
0
VERTEX
8
0
10
41.6757
20
287.408
0
VERTEX
8
0
10
39.919
20
287.272
0
VERTEX
8
0
10
38.7935
20
287.081
0
VERTEX
8
0
10
38.216
20
287.006
0
VERTEX
8
0
10
37.2859
20
286.752
0
VERTEX
8
0
10
36.5529
20
286.586
0
VERTEX
8
0
10
35.8198
20
286.292
0
VERTEX
8
0
10
34.9415
20
285.99
0
VERTEX
8
0
10
34.4102
20
285.692
0
VERTEX
8
0
10
33.3897
20
285.201
0
VERTEX
8
0
10
33.0859
20
285.038
0
VERTEX
8
0
10
31.9643
20
284.535
0
VERTEX
8
0
10
31.8642
20
284.479
0
VERTEX
8
0
10
31.2671
20
284.212
0
VERTEX
8
0
10
35.3129
20
265.825
0
VERTEX
8
0
10
42.6583
20
243.383
0
VERTEX
8
0
10
51.8023
20
222.658
0
VERTEX
8
0
10
52.0798
20
222.652
0
VERTEX
8
0
10
60.1191
20
219.514
0
VERTEX
8
0
10
63.6969
20
218.34
0
VERTEX
8
0
10
65.4511
20
217.87
0
VERTEX
8
0
10
67.1828
20
217.486
0
VERTEX
8
0
10
68.9143
20
217.19
0
SEQEND
0
POLYLINE
8
0
10
0
20
0
66
1
70
1
62
1
0
VERTEX
8
0
10
317.824
20
628.219
0
VERTEX
8
0
10
318.824
20
628.529
0
VERTEX
8
0
10
319.824
20
628.731
0
VERTEX
8
0
10
320.824
20
628.851
0
VERTEX
8
0
10
369.824
20
628.916
0
VERTEX
8
0
10
370.824
20
628.857
0
VERTEX
8
0
10
371.824
20
628.751
0
VERTEX
8
0
10
372.824
20
628.585
0
VERTEX
8
0
10
373.824
20
628.352
0
VERTEX
8
0
10
374.824
20
628.057
0
VERTEX
8
0
10
383.824
20
624.657
0
VERTEX
8
0
10
385.824
20
624.003
0
VERTEX
8
0
10
387.824
20
623.462
0
VERTEX
8
0
10
410.824
20
618.266
0
VERTEX
8
0
10
413.824
20
617.787
0
VERTEX
8
0
10
414.824
20
617.585
0
VERTEX
8
0
10
415.824
20
617.317
0
VERTEX
8
0
10
416.824
20
616.974
0
VERTEX
8
0
10
417.824
20
616.558
0
VERTEX
8
0
10
431.824
20
609.982
0
VERTEX
8
0
10
433.824
20
608.872
0
VERTEX
8
0
10
441.824
20
604.024
0
VERTEX
8
0
10
443.824
20
602.667
0
VERTEX
8
0
10
467.824
20
584.681
0
VERTEX
8
0
10
471.824
20
582.024
0
VERTEX
8
0
10
474.824
20
580.273
0
VERTEX
8
0
10
480.824
20
577.09
0
VERTEX
8
0
10
494.824
20
568.388
0
VERTEX
8
0
10
552.824
20
539.65
0
VERTEX
8
0
10
559.824
20
535.52
0
VERTEX
8
0
10
561.824
20
534.18
0
VERTEX
8
0
10
569.824
20
527.676
0
VERTEX
8
0
10
574.809
20
522.955
0
VERTEX
8
0
10
577.656
20
519.96
0
VERTEX
8
0
10
583.536
20
512.96
0
VERTEX
8
0
10
585.044
20
510.96
0
VERTEX
8
0
10
591.788
20
499.96
0
VERTEX
8
0
10
595.033
20
493.96
0
VERTEX
8
0
10
595.671
20
492.96
0
VERTEX
8
0
10
596.38
20
491.961
0
VERTEX
8
0
10
597.163
20
490.965
0
VERTEX
8
0
10
598.012
20
489.975
0
VERTEX
8
0
10
599.865
20
488.048
0
VERTEX
8
0
10
628.824
20
462.872
0
VERTEX
8
0
10
668.735
20
422.96
0
VERTEX
8
0
10
671.36
20
419.961
0
VERTEX
8
0
10
674.488
20
416.048
0
VERTEX
8
0
10
675.288
20
415.128
0
VERTEX
8
0
10
676.122
20
414.243
0
VERTEX
8
0
10
683.824
20
407.243
0
VERTEX
8
0
10
700.824
20
393.85
0
VERTEX
8
0
10
702.824
20
392.428
0
VERTEX
8
0
10
704.824
20
391.158
0
VERTEX
8
0
10
706.824
20
390.084
0
VERTEX
8
0
10
712.824
20
387.295
0
VERTEX
8
0
10
714.824
20
386.493
0
VERTEX
8
0
10
718.824
20
385.053
0
VERTEX
8
0
10
728.824
20
381.012
0
VERTEX
8
0
10
798.824
20
357.731
0
VERTEX
8
0
10
804.824
20
355.476
0
VERTEX
8
0
10
818.824
20
351.111
0
VERTEX
8
0
10
870.824
20
338.532
0
VERTEX
8
0
10
873.808
20
337.6
0
VERTEX
8
0
10
874.778
20
337.244
0
VERTEX
8
0
10
875.715
20
336.851
0
VERTEX
8
0
10
876.595
20
336.402
0
VERTEX
8
0
10
877.392
20
335.877
0
VERTEX
8
0
10
878.083
20
335.26
0
VERTEX
8
0
10
878.648
20
334.544
0
VERTEX
8
0
10
879.083
20
333.736
0
VERTEX
8
0
10
879.392
20
332.852
0
VERTEX
8
0
10
879.595
20
331.915
0
VERTEX
8
0
10
879.715
20
330.944
0
VERTEX
8
0
10
879.912
20
325.96
0
VERTEX
8
0
10
880.107
20
323.96
0
VERTEX
8
0
10
880.656
20
319.96
0
VERTEX
8
0
10
880.784
20
317.96
0
VERTEX
8
0
10
880.864
20
303.96
0
VERTEX
8
0
10
880.992
20
301.96
0
VERTEX
8
0
10
881.526
20
297.96
0
VERTEX
8
0
10
881.616
20
296.96
0
VERTEX
8
0
10
881.649
20
295.96
0
VERTEX
8
0
10
881.621
20
294.96
0
VERTEX
8
0
10
881.26
20
290.96
0
VERTEX
8
0
10
881.235
20
289.96
0
VERTEX
8
0
10
881.273
20
286.96
0
VERTEX
8
0
10
881.236
20
285.96
0
VERTEX
8
0
10
880.907
20
281.96
0
VERTEX
8
0
10
880.784
20
231.96
0
VERTEX
8
0
10
880.656
20
229.96
0
VERTEX
8
0
10
879.992
20
224.96
0
VERTEX
8
0
10
879.864
20
222.96
0
VERTEX
8
0
10
879.784
20
208.96
0
VERTEX
8
0
10
879.656
20
206.96
0
VERTEX
8
0
10
876.541
20
182.96
0
VERTEX
8
0
10
871.283
20
159.96
0
VERTEX
8
0
10
864.4
20
113.96
0
VERTEX
8
0
10
861.002
20
96.9765
0
VERTEX
8
0
10
860.764
20
96.0058
0
VERTEX
8
0
10
860.481
20
95.0693
0
VERTEX
8
0
10
860.123
20
94.1902
0
VERTEX
8
0
10
859.663
20
93.3963
0
VERTEX
8
0
10
859.087
20
92.7163
0
VERTEX
8
0
10
858.394
20
92.1753
0
VERTEX
8
0
10
857.595
20
91.7892
0
VERTEX
8
0
10
856.715
20
91.56
0
VERTEX
8
0
10
855.778
20
91.473
0
VERTEX
8
0
10
854.808
20
91.498
0
VERTEX
8
0
10
853.819
20
91.5967
0
VERTEX
8
0
10
770.824
20
107.462
0
VERTEX
8
0
10
768.824
20
108
0
VERTEX
8
0
10
741.824
20
117.242
0
VERTEX
8
0
10
731.824
20
120.06
0
VERTEX
8
0
10
729.824
20
120.496
0
VERTEX
8
0
10
727.824
20
120.802
0
VERTEX
8
0
10
723.824
20
121.243
0
VERTEX
8
0
10
719.824
20
121.975
0
VERTEX
8
0
10
716.824
20
122.694
0
VERTEX
8
0
10
708.824
20
124.989
0
VERTEX
8
0
10
693.824
20
130.606
0
VERTEX
8
0
10
689.824
20
131.806
0
VERTEX
8
0
10
682.824
20
133.344
0
VERTEX
8
0
10
680.824
20
133.673
0
VERTEX
8
0
10
679.824
20
133.791
0
VERTEX
8
0
10
677.824
20
133.92
0
VERTEX
8
0
10
671.824
20
134.048
0
VERTEX
8
0
10
669.824
20
134.243
0
VERTEX
8
0
10
666.824
20
134.673
0
VERTEX
8
0
10
665.824
20
134.777
0
VERTEX
8
0
10
664.824
20
134.833
0
VERTEX
8
0
10
663.824
20
134.833
0
VERTEX
8
0
10
662.824
20
134.777
0
VERTEX
8
0
10
657.824
20
134.128
0
VERTEX
8
0
10
655.824
20
134
0
VERTEX
8
0
10
647.824
20
133.92
0
VERTEX
8
0
10
645.824
20
133.787
0
VERTEX
8
0
10
644.824
20
133.662
0
VERTEX
8
0
10
643.824
20
133.495
0
VERTEX
8
0
10
640.824
20
132.805
0
VERTEX
8
0
10
636.824
20
131.605
0
VERTEX
8
0
10
633.824
20
130.507
0
VERTEX
8
0
10
612.824
20
120.972
0
VERTEX
8
0
10
605.824
20
118.304
0
VERTEX
8
0
10
593.824
20
114.384
0
VERTEX
8
0
10
584.824
20
111.856
0
VERTEX
8
0
10
573.824
20
109.419
0
VERTEX
8
0
10
557.824
20
107.127
0
VERTEX
8
0
10
552.824
20
106.793
0
VERTEX
8
0
10
547.824
20
106.127
0
VERTEX
8
0
10
539.824
20
105.548
0
VERTEX
8
0
10
538.824
20
105.511
0
VERTEX
8
0
10
535.824
20
105.549
0
VERTEX
8
0
10
534.824
20
105.524
0
VERTEX
8
0
10
529.824
20
105.047
0
VERTEX
8
0
10
512.824
20
104.865
0
VERTEX
8
0
10
503.824
20
104.038
0
VERTEX
8
0
10
493.824
20
103.92
0
VERTEX
8
0
10
491.824
20
103.792
0
VERTEX
8
0
10
486.824
20
103.128
0
VERTEX
8
0
10
484.824
20
103
0
VERTEX
8
0
10
472.824
20
102.92
0
VERTEX
8
0
10
470.824
20
102.792
0
VERTEX
8
0
10
465.824
20
102.128
0
VERTEX
8
0
10
463.824
20
102
0
VERTEX
8
0
10
457.824
20
101.92
0
VERTEX
8
0
10
455.824
20
101.792
0
VERTEX
8
0
10
450.824
20
101.128
0
VERTEX
8
0
10
444.824
20
100.872
0
VERTEX
8
0
10
442.824
20
100.677
0
VERTEX
8
0
10
438.824
20
100.127
0
VERTEX
8
0
10
433.824
20
99.793
0
VERTEX
8
0
10
428.824
20
99.1237
0
VERTEX
8
0
10
424.824
20
98.7966
0
VERTEX
8
0
10
403.824
20
96.1284
0
VERTEX
8
0
10
401.824
20
95.9996
0
VERTEX
8
0
10
396.824
20
95.8673
0
VERTEX
8
0
10
395.824
20
95.7757
0
VERTEX
8
0
10
394.824
20
95.6328
0
VERTEX
8
0
10
393.824
20
95.4318
0
VERTEX
8
0
10
392.824
20
95.1717
0
VERTEX
8
0
10
391.824
20
94.8569
0
VERTEX
8
0
10
383.824
20
91.6559
0
VERTEX
8
0
10
375.824
20
88.8968
0
VERTEX
8
0
10
372.824
20
87.6468
0
VERTEX
8
0
10
360.824
20
81.6468
0
VERTEX
8
0
10
340.824
20
68.9356
0
VERTEX
8
0
10
335.824
20
65.5007
0
VERTEX
8
0
10
314.824
20
52.8187
0
VERTEX
8
0
10
285.824
20
36.9377
0
VERTEX
8
0
10
279.824
20
34.3336
0
VERTEX
8
0
10
270.824
20
29.5324
0
VERTEX
8
0
10
256.824
20
21.2699
0
VERTEX
8
0
10
250.824
20
18.2698
0
VERTEX
8
0
10
241.824
20
14.4204
0
VERTEX
8
0
10
239.824
20
13.7077
0
VERTEX
8
0
10
232.824
20
11.6056
0
VERTEX
8
0
10
225.824
20
9.04808
0
VERTEX
8
0
10
223.824
20
8.44673
0
VERTEX
8
0
10
219.824
20
7.46886
0
VERTEX
8
0
10
218.824
20
7.1755
0
VERTEX
8
0
10
217.824
20
6.83251
0
VERTEX
8
0
10
216.824
20
6.43384
0
VERTEX
8
0
10
215.824
20
5.98066
0
VERTEX
8
0
10
211.824
20
3.93961
0
VERTEX
8
0
10
210.824
20
3.48643
0
VERTEX
8
0
10
209.824
20
3.08777
0
VERTEX
8
0
10
208.824
20
2.74494
0
VERTEX
8
0
10
207.824
20
2.45235
0
VERTEX
8
0
10
198.824
20
0.424021
0
VERTEX
8
0
10
197.824
20
0.258006
0
VERTEX
8
0
10
196.824
20
0.133025
0
VERTEX
8
0
10
194.824
20
0
0
VERTEX
8
0
10
186.824
20
0
0
VERTEX
8
0
10
184.824
20
0.133042
0
VERTEX
8
0
10
183.824
20
0.258192
0
VERTEX
8
0
10
182.824
20
0.425138
0
VERTEX
8
0
10
180.824
20
0.861793
0
VERTEX
8
0
10
178.824
20
1.40072
0
VERTEX
8
0
10
176.824
20
2.05296
0
VERTEX
8
0
10
175.824
20
2.43574
0
VERTEX
8
0
10
174.824
20
2.86328
0
VERTEX
8
0
10
173.824
20
3.33892
0
VERTEX
8
0
10
172.825
20
3.86438
0
VERTEX
8
0
10
171.829
20
4.44041
0
VERTEX
8
0
10
170.839
20
5.06805
0
VERTEX
8
0
10
169.864
20
5.74965
0
VERTEX
8
0
10
168.913
20
6.48866
0
VERTEX
8
0
10
167.997
20
7.28747
0
VERTEX
8
0
10
167.123
20
8.14457
0
VERTEX
8
0
10
166.293
20
9.05294
0
VERTEX
8
0
10
165.504
20
10.0009
0
VERTEX
8
0
10
164.043
20
11.9648
0
VERTEX
8
0
10
162.751
20
13.9603
0
VERTEX
8
0
10
161.643
20
15.9601
0
VERTEX
8
0
10
160.699
20
17.9601
0
VERTEX
8
0
10
159.888
20
19.9601
0
VERTEX
8
0
10
158.544
20
23.9601
0
VERTEX
8
0
10
156.714
20
30.9601
0
VERTEX
8
0
10
156.293
20
32.9601
0
VERTEX
8
0
10
156.137
20
33.9601
0
VERTEX
8
0
10
156.038
20
34.9601
0
VERTEX
8
0
10
156.006
20
35.9601
0
VERTEX
8
0
10
156.048
20
36.9601
0
VERTEX
8
0
10
156.166
20
37.9601
0
VERTEX
8
0
10
156.357
20
38.9601
0
VERTEX
8
0
10
156.615
20
39.9601
0
VERTEX
8
0
10
156.932
20
40.9601
0
VERTEX
8
0
10
157.304
20
41.9601
0
VERTEX
8
0
10
157.728
20
42.9601
0
VERTEX
8
0
10
158.203
20
43.9601
0
VERTEX
8
0
10
158.727
20
44.9601
0
VERTEX
8
0
10
159.917
20
46.9601
0
VERTEX
8
0
10
161.983
20
49.9601
0
VERTEX
8
0
10
164.289
20
52.9601
0
VERTEX
8
0
10
165.997
20
54.959
0
VERTEX
8
0
10
168.839
20
57.9204
0
VERTEX
8
0
10
171.824
20
60.6727
0
VERTEX
8
0
10
176.824
20
64.7209
0
VERTEX
8
0
10
179.824
20
66.8757
0
VERTEX
8
0
10
187.824
20
72.0531
0
VERTEX
8
0
10
195.824
20
76.6496
0
VERTEX
8
0
10
220.824
20
88.1014
0
VERTEX
8
0
10
227.824
20
90.6162
0
VERTEX
8
0
10
234.824
20
92.8225
0
VERTEX
8
0
10
238.824
20
94.4005
0
VERTEX
8
0
10
240.824
20
95.3333
0
VERTEX
8
0
10
242.824
20
96.425
0
VERTEX
8
0
10
250.824
20
101.68
0
VERTEX
8
0
10
272.824
20
117.93
0
VERTEX
8
0
10
275.824
20
119.868
0
VERTEX
8
0
10
277.824
20
120.982
0
VERTEX
8
0
10
282.824
20
123.333
0
VERTEX
8
0
10
283.824
20
123.863
0
VERTEX
8
0
10
284.824
20
124.44
0
VERTEX
8
0
10
285.824
20
125.068
0
VERTEX
8
0
10
286.824
20
125.75
0
VERTEX
8
0
10
287.824
20
126.489
0
VERTEX
8
0
10
289.824
20
128.145
0
VERTEX
8
0
10
296.784
20
134.96
0
VERTEX
8
0
10
303.912
20
142.955
0
VERTEX
8
0
10
306.829
20
145.872
0
VERTEX
8
0
10
309.824
20
148.521
0
VERTEX
8
0
10
319.817
20
156.424
0
VERTEX
8
0
10
320.798
20
157.258
0
VERTEX
8
0
10
321.747
20
158.133
0
VERTEX
8
0
10
322.63
20
159.048
0
VERTEX
8
0
10
323.398
20
159.994
0
VERTEX
8
0
10
323.995
20
160.954
0
VERTEX
8
0
10
324.369
20
161.904
0
VERTEX
8
0
10
324.483
20
162.813
0
VERTEX
8
0
10
324.331
20
163.643
0
VERTEX
8
0
10
323.934
20
164.359
0
VERTEX
8
0
10
323.332
20
164.932
0
VERTEX
8
0
10
322.574
20
165.345
0
VERTEX
8
0
10
321.709
20
165.602
0
VERTEX
8
0
10
320.777
20
165.719
0
VERTEX
8
0
10
319.807
20
165.716
0
VERTEX
8
0
10
318.819
20
165.615
0
VERTEX
8
0
10
317.823
20
165.437
0
VERTEX
8
0
10
316.824
20
165.2
0
VERTEX
8
0
10
310.824
20
163.264
0
VERTEX
8
0
10
292.824
20
156.102
0
VERTEX
8
0
10
236.824
20
128.819
0
VERTEX
8
0
10
223.824
20
123.384
0
VERTEX
8
0
10
206.824
20
117.309
0
VERTEX
8
0
10
204.824
20
116.715
0
VERTEX
8
0
10
202.824
20
116.244
0
VERTEX
8
0
10
197.824
20
115.296
0
VERTEX
8
0
10
144.824
20
101.241
0
VERTEX
8
0
10
136.824
20
98.7042
0
VERTEX
8
0
10
130.824
20
97.2163
0
VERTEX
8
0
10
114.824
20
92.2429
0
VERTEX
8
0
10
96.8239
20
87.4583
0
VERTEX
8
0
10
89.8239
20
86.2429
0
VERTEX
8
0
10
81.8239
20
85.5526
0
VERTEX
8
0
10
80.8239
20
85.5257
0
VERTEX
8
0
10
79.8239
20
85.5526
0
VERTEX
8
0
10
72.8239
20
86.1645
0
VERTEX
8
0
10
71.8239
20
86.3346
0
VERTEX
8
0
10
70.8239
20
86.5686
0
VERTEX
8
0
10
69.8239
20
86.8633
0
VERTEX
8
0
10
66.8239
20
87.9801
0
VERTEX
8
0
10
64.8239
20
88.8493
0
VERTEX
8
0
10
62.8241
20
89.8633
0
VERTEX
8
0
10
61.825
20
90.4402
0
VERTEX
8
0
10
60.8286
20
91.068
0
VERTEX
8
0
10
59.839
20
91.7496
0
VERTEX
8
0
10
58.8638
20
92.4887
0
VERTEX
8
0
10
57.913
20
93.2875
0
VERTEX
8
0
10
56.997
20
94.1446
0
VERTEX
8
0
10
56.1229
20
95.0529
0
VERTEX
8
0
10
55.2927
20
96.0009
0
VERTEX
8
0
10
53.7537
20
97.9648
0
VERTEX
8
0
10
52.3692
20
99.9603
0
VERTEX
8
0
10
48.8649
20
105.96
0
VERTEX
8
0
10
48.3372
20
106.96
0
VERTEX
8
0
10
47.8545
20
107.96
0
VERTEX
8
0
10
47.4279
20
108.96
0
VERTEX
8
0
10
47.0557
20
109.96
0
VERTEX
8
0
10
44.2528
20
118.96
0
VERTEX
8
0
10
43.4924
20
121.96
0
VERTEX
8
0
10
43.2889
20
122.96
0
VERTEX
8
0
10
43.122
20
123.96
0
VERTEX
8
0
10
42.9968
20
124.96
0
VERTEX
8
0
10
42.8638
20
126.96
0
VERTEX
8
0
10
42.8647
20
134.96
0
VERTEX
8
0
10
42.9167
20
135.96
0
VERTEX
8
0
10
43.0085
20
136.96
0
VERTEX
8
0
10
43.1522
20
137.96
0
VERTEX
8
0
10
43.356
20
138.96
0
VERTEX
8
0
10
43.624
20
139.96
0
VERTEX
8
0
10
43.9575
20
140.96
0
VERTEX
8
0
10
44.3571
20
141.959
0
VERTEX
8
0
10
44.8236
20
142.955
0
VERTEX
8
0
10
45.3571
20
143.945
0
VERTEX
8
0
10
45.9575
20
144.919
0
VERTEX
8
0
10
46.624
20
145.867
0
VERTEX
8
0
10
47.356
20
146.776
0
VERTEX
8
0
10
48.1522
20
147.633
0
VERTEX
8
0
10
49.0085
20
148.432
0
VERTEX
8
0
10
49.9167
20
149.172
0
VERTEX
8
0
10
50.8647
20
149.856
0
VERTEX
8
0
10
51.8392
20
150.491
0
VERTEX
8
0
10
54.8241
20
152.181
0
VERTEX
8
0
10
71.8239
20
160.65
0
VERTEX
8
0
10
90.8239
20
168.102
0
VERTEX
8
0
10
119.824
20
176.304
0
VERTEX
8
0
10
126.824
20
178.771
0
VERTEX
8
0
10
139.824
20
184.345
0
VERTEX
8
0
10
155.824
20
189.934
0
VERTEX
8
0
10
185.824
20
197.679
0
VERTEX
8
0
10
198.824
20
202.024
0
VERTEX
8
0
10
201.824
20
203.274
0
VERTEX
8
0
10
213.824
20
209.101
0
VERTEX
8
0
10
220.824
20
211.908
0
VERTEX
8
0
10
236.824
20
217.241
0
VERTEX
8
0
10
257.824
20
222.986
0
VERTEX
8
0
10
263.824
20
225.023
0
VERTEX
8
0
10
277.824
20
231.001
0
VERTEX
8
0
10
278.824
20
231.474
0
VERTEX
8
0
10
279.824
20
231.992
0
VERTEX
8
0
10
280.824
20
232.569
0
VERTEX
8
0
10
281.823
20
233.207
0
VERTEX
8
0
10
282.818
20
233.901
0
VERTEX
8
0
10
283.804
20
234.644
0
VERTEX
8
0
10
284.768
20
235.43
0
VERTEX
8
0
10
285.69
20
236.259
0
VERTEX
8
0
10
286.547
20
237.133
0
VERTEX
8
0
10
287.312
20
238.049
0
VERTEX
8
0
10
287.968
20
239
0
VERTEX
8
0
10
288.507
20
239.975
0
VERTEX
8
0
10
288.931
20
240.965
0
VERTEX
8
0
10
289.251
20
241.961
0
VERTEX
8
0
10
289.479
20
242.96
0
VERTEX
8
0
10
289.629
20
243.96
0
VERTEX
8
0
10
289.709
20
244.959
0
VERTEX
8
0
10
289.722
20
245.954
0
VERTEX
8
0
10
289.66
20
246.939
0
VERTEX
8
0
10
289.502
20
247.899
0
VERTEX
8
0
10
289.223
20
248.811
0
VERTEX
8
0
10
288.8
20
249.643
0
VERTEX
8
0
10
288.224
20
250.36
0
VERTEX
8
0
10
287.507
20
250.935
0
VERTEX
8
0
10
286.675
20
251.356
0
VERTEX
8
0
10
285.763
20
251.628
0
VERTEX
8
0
10
284.803
20
251.772
0
VERTEX
8
0
10
283.818
20
251.811
0
VERTEX
8
0
10
282.823
20
251.771
0
VERTEX
8
0
10
281.824
20
251.67
0
VERTEX
8
0
10
272.824
20
250.244
0
VERTEX
8
0
10
270.824
20
250.043
0
VERTEX
8
0
10
266.824
20
249.792
0
VERTEX
8
0
10
264.824
20
249.521
0
VERTEX
8
0
10
227.824
20
241.832
0
VERTEX
8
0
10
214.824
20
238.532
0
VERTEX
8
0
10
201.824
20
234.389
0
VERTEX
8
0
10
198.824
20
233.624
0
VERTEX
8
0
10
185.824
20
231.247
0
VERTEX
8
0
10
183.824
20
231.044
0
VERTEX
8
0
10
179.824
20
230.793
0
VERTEX
8
0
10
136.824
20
224.536
0
VERTEX
8
0
10
130.824
20
223.399
0
VERTEX
8
0
10
128.824
20
223.125
0
VERTEX
8
0
10
124.824
20
222.797
0
VERTEX
8
0
10
90.8239
20
217.865
0
VERTEX
8
0
10
77.8239
20
214.895
0
VERTEX
8
0
10
75.8239
20
214.539
0
VERTEX
8
0
10
72.8239
20
214.191
0
VERTEX
8
0
10
65.8239
20
213.793
0
VERTEX
8
0
10
60.8239
20
213.129
0
VERTEX
8
0
10
58.8239
20
213.004
0
VERTEX
8
0
10
56.8239
20
213.004
0
VERTEX
8
0
10
54.8239
20
213.129
0
VERTEX
8
0
10
49.8239
20
213.792
0
VERTEX
8
0
10
47.8239
20
213.92
0
VERTEX
8
0
10
36.8239
20
214
0
VERTEX
8
0
10
34.8239
20
214.128
0
VERTEX
8
0
10
29.8239
20
214.797
0
VERTEX
8
0
10
25.8239
20
215.14
0
VERTEX
8
0
10
24.8239
20
215.286
0
VERTEX
8
0
10
23.8239
20
215.488
0
VERTEX
8
0
10
22.8239
20
215.75
0
VERTEX
8
0
10
21.8239
20
216.068
0
VERTEX
8
0
10
20.8239
20
216.44
0
VERTEX
8
0
10
19.8241
20
216.864
0
VERTEX
8
0
10
18.825
20
217.339
0
VERTEX
8
0
10
17.8286
20
217.864
0
VERTEX
8
0
10
16.839
20
218.44
0
VERTEX
8
0
10
15.8638
20
219.068
0
VERTEX
8
0
10
14.913
20
219.75
0
VERTEX
8
0
10
13.997
20
220.489
0
VERTEX
8
0
10
13.1229
20
221.287
0
VERTEX
8
0
10
12.2925
20
222.145
0
VERTEX
8
0
10
11.503
20
223.053
0
VERTEX
8
0
10
10.7502
20
224.001
0
VERTEX
8
0
10
9.34478
20
225.965
0
VERTEX
8
0
10
7.45096
20
228.96
0
VERTEX
8
0
10
6.31259
20
230.96
0
VERTEX
8
0
10
5.31167
20
232.96
0
VERTEX
8
0
10
2.87707
20
238.96
0
VERTEX
8
0
10
1.8683
20
241.96
0
VERTEX
8
0
10
1.58414
20
242.96
0
VERTEX
8
0
10
1.34073
20
243.96
0
VERTEX
8
0
10
1.1464
20
244.96
0
VERTEX
8
0
10
1.00274
20
245.96
0
VERTEX
8
0
10
0.542448
20
250.96
0
VERTEX
8
0
10
0.121797
20
253.96
0
VERTEX
8
0
10
0.031838
20
254.96
0
VERTEX
8
0
10
0
20
255.96
0
VERTEX
8
0
10
0.0329387
20
256.96
0
VERTEX
8
0
10
0.126488
20
257.96
0
VERTEX
8
0
10
0.634134
20
260.96
0
VERTEX
8
0
10
1.3126
20
263.96
0
VERTEX
8
0
10
1.59742
20
264.96
0
VERTEX
8
0
10
1.92361
20
265.96
0
VERTEX
8
0
10
2.29267
20
266.96
0
VERTEX
8
0
10
3.15462
20
268.96
0
VERTEX
8
0
10
3.64792
20
269.959
0
VERTEX
8
0
10
4.18964
20
270.955
0
VERTEX
8
0
10
4.79043
20
271.944
0
VERTEX
8
0
10
5.46182
20
272.916
0
VERTEX
8
0
10
6.21105
20
273.856
0
VERTEX
8
0
10
7.0367
20
274.747
0
VERTEX
8
0
10
7.92809
20
275.573
0
VERTEX
8
0
10
8.86847
20
276.323
0
VERTEX
8
0
10
9.84015
20
276.997
0
VERTEX
8
0
10
10.8288
20
277.606
0
VERTEX
8
0
10
15.8239
20
280.182
0
VERTEX
8
0
10
21.8239
20
282.924
0
VERTEX
8
0
10
25.8239
20
284.985
0
VERTEX
8
0
10
27.8239
20
285.872
0
VERTEX
8
0
10
49.8239
20
293.612
0
VERTEX
8
0
10
51.8239
20
294.206
0
VERTEX
8
0
10
53.8239
20
294.676
0
VERTEX
8
0
10
77.8239
20
298.676
0
VERTEX
8
0
10
79.8239
20
298.877
0
VERTEX
8
0
10
83.8239
20
299.127
0
VERTEX
8
0
10
93.8239
20
300.398
0
VERTEX
8
0
10
109.824
20
303.856
0
VERTEX
8
0
10
118.824
20
306.307
0
VERTEX
8
0
10
144.824
20
312.114
0
VERTEX
8
0
10
153.824
20
314.839
0
VERTEX
8
0
10
155.824
20
315.307
0
VERTEX
8
0
10
161.824
20
316.396
0
VERTEX
8
0
10
165.824
20
317.389
0
VERTEX
8
0
10
175.824
20
320.531
0
VERTEX
8
0
10
178.824
20
321.292
0
VERTEX
8
0
10
180.824
20
321.667
0
VERTEX
8
0
10
222.824
20
327.797
0
VERTEX
8
0
10
226.824
20
328.124
0
VERTEX
8
0
10
231.824
20
328.792
0
VERTEX
8
0
10
233.824
20
328.92
0
VERTEX
8
0
10
244.824
20
329
0
VERTEX
8
0
10
246.824
20
329.128
0
VERTEX
8
0
10
251.824
20
329.792
0
VERTEX
8
0
10
257.824
20
330.048
0
VERTEX
8
0
10
272.824
20
331.887
0
VERTEX
8
0
10
275.824
20
332.125
0
VERTEX
8
0
10
277.824
20
332.399
0
VERTEX
8
0
10
285.824
20
334.005
0
VERTEX
8
0
10
286.823
20
334.264
0
VERTEX
8
0
10
287.819
20
334.574
0
VERTEX
8
0
10
288.809
20
334.952
0
VERTEX
8
0
10
289.784
20
335.414
0
VERTEX
8
0
10
290.734
20
335.966
0
VERTEX
8
0
10
291.648
20
336.613
0
VERTEX
8
0
10
292.514
20
337.351
0
VERTEX
8
0
10
293.318
20
338.168
0
VERTEX
8
0
10
294.039
20
339.043
0
VERTEX
8
0
10
294.641
20
339.944
0
VERTEX
8
0
10
295.076
20
340.827
0
VERTEX
8
0
10
295.288
20
341.647
0
VERTEX
8
0
10
295.24
20
342.357
0
VERTEX
8
0
10
294.922
20
342.921
0
VERTEX
8
0
10
294.363
20
343.321
0
VERTEX
8
0
10
293.616
20
343.555
0
VERTEX
8
0
10
292.742
20
343.643
0
VERTEX
8
0
10
291.797
20
343.617
0
VERTEX
8
0
10
279.824
20
342.128
0
VERTEX
8
0
10
277.824
20
342
0
VERTEX
8
0
10
265.824
20
341.887
0
VERTEX
8
0
10
261.824
20
341.667
0
VERTEX
8
0
10
260.824
20
341.667
0
VERTEX
8
0
10
254.824
20
341.946
0
VERTEX
8
0
10
245.824
20
341.92
0
VERTEX
8
0
10
243.824
20
341.787
0
VERTEX
8
0
10
242.824
20
341.662
0
VERTEX
8
0
10
236.824
20
340.424
0
VERTEX
8
0
10
235.824
20
340.258
0
VERTEX
8
0
10
234.824
20
340.133
0
VERTEX
8
0
10
232.824
20
340
0
VERTEX
8
0
10
223.824
20
340
0
VERTEX
8
0
10
221.824
20
340.128
0
VERTEX
8
0
10
216.824
20
340.787
0
VERTEX
8
0
10
215.824
20
340.857
0
VERTEX
8
0
10
214.824
20
340.881
0
VERTEX
8
0
10
213.824
20
340.858
0
VERTEX
8
0
10
209.824
20
340.472
0
VERTEX
8
0
10
208.824
20
340.411
0
VERTEX
8
0
10
207.824
20
340.411
0
VERTEX
8
0
10
206.824
20
340.472
0
VERTEX
8
0
10
202.824
20
340.873
0
VERTEX
8
0
10
149.824
20
340.92
0
VERTEX
8
0
10
147.824
20
340.792
0
VERTEX
8
0
10
142.824
20
340.128
0
VERTEX
8
0
10
140.824
20
340
0
VERTEX
8
0
10
99.8239
20
340.075
0
VERTEX
8
0
10
94.8239
20
339.876
0
VERTEX
8
0
10
92.8239
20
339.678
0
VERTEX
8
0
10
88.8239
20
339.129
0
VERTEX
8
0
10
86.8239
20
339.004
0
VERTEX
8
0
10
84.8239
20
339.005
0
VERTEX
8
0
10
83.8239
20
339.05
0
VERTEX
8
0
10
82.8239
20
339.133
0
VERTEX
8
0
10
81.8239
20
339.258
0
VERTEX
8
0
10
79.8239
20
339.625
0
VERTEX
8
0
10
64.8239
20
343.118
0
VERTEX
8
0
10
62.8239
20
343.709
0
VERTEX
8
0
10
60.8239
20
344.424
0
VERTEX
8
0
10
57.8239
20
345.74
0
VERTEX
8
0
10
53.8239
20
347.755
0
VERTEX
8
0
10
52.8239
20
348.314
0
VERTEX
8
0
10
51.8239
20
348.923
0
VERTEX
8
0
10
50.8241
20
349.597
0
VERTEX
8
0
10
49.825
20
350.347
0
VERTEX
8
0
10
48.8286
20
351.173
0
VERTEX
8
0
10
46.8647
20
353.005
0
VERTEX
8
0
10
45.0084
20
354.965
0
VERTEX
8
0
10
44.1513
20
355.961
0
VERTEX
8
0
10
43.3525
20
356.96
0
VERTEX
8
0
10
42.6134
20
357.96
0
VERTEX
8
0
10
41.9318
20
358.96
0
VERTEX
8
0
10
41.3042
20
359.96
0
VERTEX
8
0
10
40.728
20
360.96
0
VERTEX
8
0
10
40.2018
20
361.96
0
VERTEX
8
0
10
39.7235
20
362.96
0
VERTEX
8
0
10
38.892
20
364.96
0
VERTEX
8
0
10
37.5434
20
368.96
0
VERTEX
8
0
10
35.5715
20
375.96
0
VERTEX
8
0
10
35.3325
20
376.96
0
VERTEX
8
0
10
35.1317
20
377.96
0
VERTEX
8
0
10
34.4926
20
382.96
0
VERTEX
8
0
10
34.4186
20
383.96
0
VERTEX
8
0
10
34.3944
20
384.96
0
VERTEX
8
0
10
34.4315
20
385.96
0
VERTEX
8
0
10
34.5275
20
386.96
0
VERTEX
8
0
10
34.8437
20
388.96
0
VERTEX
8
0
10
36.4644
20
395.96
0
VERTEX
8
0
10
37.0428
20
397.96
0
VERTEX
8
0
10
37.388
20
398.96
0
VERTEX
8
0
10
37.7914
20
399.96
0
VERTEX
8
0
10
38.2672
20
400.96
0
VERTEX
8
0
10
38.8266
20
401.959
0
VERTEX
8
0
10
39.476
20
402.955
0
VERTEX
8
0
10
40.2155
20
403.944
0
VERTEX
8
0
10
41.0378
20
404.916
0
VERTEX
8
0
10
41.9283
20
405.856
0
VERTEX
8
0
10
42.8685
20
406.747
0
VERTEX
8
0
10
43.8401
20
407.573
0
VERTEX
8
0
10
44.8288
20
408.323
0
VERTEX
8
0
10
45.8251
20
408.997
0
VERTEX
8
0
10
46.8241
20
409.606
0
VERTEX
8
0
10
51.8239
20
412.181
0
VERTEX
8
0
10
54.8239
20
413.507
0
VERTEX
8
0
10
60.8239
20
415.612
0
VERTEX
8
0
10
63.8239
20
416.484
0
VERTEX
8
0
10
71.8239
20
418.448
0
VERTEX
8
0
10
72.8239
20
418.639
0
VERTEX
8
0
10
73.8239
20
418.782
0
VERTEX
8
0
10
78.8239
20
419.242
0
VERTEX
8
0
10
82.8239
20
419.793
0
VERTEX
8
0
10
97.8239
20
421.103
0
VERTEX
8
0
10
109.824
20
422.791
0
VERTEX
8
0
10
110.824
20
422.868
0
VERTEX
8
0
10
111.824
20
422.905
0
VERTEX
8
0
10
112.824
20
422.905
0
VERTEX
8
0
10
113.824
20
422.868
0
VERTEX
8
0
10
114.824
20
422.791
0
VERTEX
8
0
10
118.824
20
422.258
0
VERTEX
8
0
10
119.824
20
422.168
0
VERTEX
8
0
10
120.824
20
422.136
0
VERTEX
8
0
10
121.824
20
422.169
0
VERTEX
8
0
10
122.824
20
422.263
0
VERTEX
8
0
10
131.824
20
423.83
0
VERTEX
8
0
10
137.824
20
424.637
0
VERTEX
8
0
10
138.824
20
424.704
0
VERTEX
8
0
10
139.824
20
424.704
0
VERTEX
8
0
10
140.824
20
424.637
0
VERTEX
8
0
10
151.824
20
423.128
0
VERTEX
8
0
10
153.824
20
423
0
VERTEX
8
0
10
177.824
20
423
0
VERTEX
8
0
10
179.824
20
423.128
0
VERTEX
8
0
10
184.824
20
423.792
0
VERTEX
8
0
10
186.824
20
423.919
0
VERTEX
8
0
10
189.824
20
423.919
0
VERTEX
8
0
10
191.824
20
423.792
0
VERTEX
8
0
10
196.824
20
423.128
0
VERTEX
8
0
10
198.824
20
423
0
VERTEX
8
0
10
219.824
20
423
0
VERTEX
8
0
10
221.824
20
423.128
0
VERTEX
8
0
10
226.824
20
423.792
0
VERTEX
8
0
10
228.824
20
423.92
0
VERTEX
8
0
10
268.824
20
424
0
VERTEX
8
0
10
270.824
20
424.128
0
VERTEX
8
0
10
275.824
20
424.797
0
VERTEX
8
0
10
279.824
20
425.125
0
VERTEX
8
0
10
281.824
20
425.399
0
VERTEX
8
0
10
302.824
20
429.521
0
VERTEX
8
0
10
304.824
20
429.791
0
VERTEX
8
0
10
310.824
20
430.048
0
VERTEX
8
0
10
312.824
20
430.243
0
VERTEX
8
0
10
320.824
20
431.395
0
VERTEX
8
0
10
331.824
20
433.613
0
VERTEX
8
0
10
348.824
20
438.487
0
VERTEX
8
0
10
361.824
20
441.346
0
VERTEX
8
0
10
371.824
20
442.792
0
VERTEX
8
0
10
373.824
20
442.916
0
VERTEX
8
0
10
375.824
20
442.916
0
VERTEX
8
0
10
377.824
20
442.792
0
VERTEX
8
0
10
393.824
20
440.244
0
VERTEX
8
0
10
395.824
20
440.048
0
VERTEX
8
0
10
422.824
20
440
0
VERTEX
8
0
10
424.824
20
440.132
0
VERTEX
8
0
10
429.824
20
440.906
0
VERTEX
8
0
10
430.824
20
441.014
0
VERTEX
8
0
10
431.824
20
441.072
0
VERTEX
8
0
10
433.824
20
441.065
0
VERTEX
8
0
10
437.824
20
440.807
0
VERTEX
8
0
10
440.824
20
440.474
0
VERTEX
8
0
10
441.824
20
440.416
0
VERTEX
8
0
10
442.824
20
440.427
0
VERTEX
8
0
10
443.824
20
440.517
0
VERTEX
8
0
10
444.824
20
440.68
0
VERTEX
8
0
10
445.824
20
440.906
0
VERTEX
8
0
10
446.823
20
441.188
0
VERTEX
8
0
10
447.818
20
441.526
0
VERTEX
8
0
10
448.804
20
441.928
0
VERTEX
8
0
10
449.768
20
442.403
0
VERTEX
8
0
10
450.69
20
442.963
0
VERTEX
8
0
10
451.547
20
443.612
0
VERTEX
8
0
10
452.313
20
444.352
0
VERTEX
8
0
10
452.973
20
445.174
0
VERTEX
8
0
10
453.523
20
446.064
0
VERTEX
8
0
10
453.976
20
447.005
0
VERTEX
8
0
10
454.355
20
447.976
0
VERTEX
8
0
10
455.383
20
450.96
0
VERTEX
8
0
10
455.789
20
451.96
0
VERTEX
8
0
10
456.261
20
452.96
0
VERTEX
8
0
10
456.805
20
453.96
0
VERTEX
8
0
10
459.324
20
457.96
0
VERTEX
8
0
10
459.829
20
458.96
0
VERTEX
8
0
10
460.201
20
459.96
0
VERTEX
8
0
10
460.423
20
460.96
0
VERTEX
8
0
10
460.503
20
461.96
0
VERTEX
8
0
10
460.464
20
462.96
0
VERTEX
8
0
10
460.333
20
463.96
0
VERTEX
8
0
10
460.133
20
464.96
0
VERTEX
8
0
10
459.877
20
465.96
0
VERTEX
8
0
10
459.562
20
466.96
0
VERTEX
8
0
10
459.176
20
467.96
0
VERTEX
8
0
10
458.704
20
468.96
0
VERTEX
8
0
10
458.142
20
469.96
0
VERTEX
8
0
10
454.754
20
474.96
0
VERTEX
8
0
10
452.877
20
477.96
0
VERTEX
8
0
10
452.192
20
478.96
0
VERTEX
8
0
10
451.438
20
479.96
0
VERTEX
8
0
10
450.611
20
480.96
0
VERTEX
8
0
10
438.992
20
492.96
0
VERTEX
8
0
10
433.736
20
498.96
0
VERTEX
8
0
10
427.993
20
504.96
0
VERTEX
8
0
10
419.655
20
514.96
0
VERTEX
8
0
10
408.824
20
525.871
0
VERTEX
8
0
10
406.824
20
527.662
0
VERTEX
8
0
10
403.824
20
530.054
0
VERTEX
8
0
10
401.824
20
531.48
0
VERTEX
8
0
10
400.824
20
532.122
0
VERTEX
8
0
10
399.824
20
532.698
0
VERTEX
8
0
10
398.824
20
533.197
0
VERTEX
8
0
10
397.824
20
533.618
0
VERTEX
8
0
10
396.824
20
533.967
0
VERTEX
8
0
10
395.824
20
534.255
0
VERTEX
8
0
10
394.824
20
534.495
0
VERTEX
8
0
10
389.824
20
535.462
0
VERTEX
8
0
10
384.824
20
536.868
0
VERTEX
8
0
10
383.824
20
537.106
0
VERTEX
8
0
10
382.824
20
537.289
0
VERTEX
8
0
10
381.824
20
537.407
0
VERTEX
8
0
10
380.824
20
537.456
0
VERTEX
8
0
10
379.824
20
537.439
0
VERTEX
8
0
10
378.824
20
537.366
0
VERTEX
8
0
10
372.824
20
536.486
0
VERTEX
8
0
10
371.824
20
536.416
0
VERTEX
8
0
10
370.824
20
536.412
0
VERTEX
8
0
10
369.824
20
536.472
0
VERTEX
8
0
10
365.824
20
536.878
0
VERTEX
8
0
10
361.824
20
537.128
0
VERTEX
8
0
10
359.824
20
537.4
0
VERTEX
8
0
10
355.824
20
538.196
0
VERTEX
8
0
10
353.824
20
538.705
0
VERTEX
8
0
10
350.824
20
539.66
0
VERTEX
8
0
10
339.824
20
544.271
0
VERTEX
8
0
10
335.824
20
546.274
0
VERTEX
8
0
10
332.824
20
548.025
0
VERTEX
8
0
10
329.824
20
550.005
0
VERTEX
8
0
10
327.824
20
551.477
0
VERTEX
8
0
10
325.829
20
553.144
0
VERTEX
8
0
10
323.864
20
555
0
VERTEX
8
0
10
309.993
20
569.96
0
VERTEX
8
0
10
308.351
20
571.96
0
VERTEX
8
0
10
307.612
20
572.96
0
VERTEX
8
0
10
306.293
20
574.96
0
VERTEX
8
0
10
304.607
20
577.96
0
VERTEX
8
0
10
303.139
20
580.96
0
VERTEX
8
0
10
302.293
20
582.96
0
VERTEX
8
0
10
301.928
20
583.96
0
VERTEX
8
0
10
301.613
20
584.96
0
VERTEX
8
0
10
301.353
20
585.96
0
VERTEX
8
0
10
301.156
20
586.96
0
VERTEX
8
0
10
301.023
20
587.96
0
VERTEX
8
0
10
300.956
20
588.96
0
VERTEX
8
0
10
300.953
20
589.96
0
VERTEX
8
0
10
301.007
20
590.96
0
VERTEX
8
0
10
302.107
20
598.96
0
VERTEX
8
0
10
305.122
20
611.96
0
VERTEX
8
0
10
305.422
20
612.96
0
VERTEX
8
0
10
305.775
20
613.96
0
VERTEX
8
0
10
306.185
20
614.96
0
VERTEX
8
0
10
306.647
20
615.96
0
VERTEX
8
0
10
307.704
20
617.96
0
VERTEX
8
0
10
308.928
20
619.96
0
VERTEX
8
0
10
309.613
20
620.959
0
VERTEX
8
0
10
310.352
20
621.955
0
VERTEX
8
0
10
311.151
20
622.944
0
VERTEX
8
0
10
312.008
20
623.914
0
VERTEX
8
0
10
312.917
20
624.851
0
VERTEX
8
0
10
313.865
20
625.731
0
VERTEX
8
0
10
314.839
20
626.529
0
VERTEX
8
0
10
315.829
20
627.219
0
VERTEX
8
0
10
316.825
20
627.785
0
SEQEND
0
POLYLINE
8
0
10
0
20
0
66
1
70
1
0
VERTEX
8
0
10
322.824
20
628.259
0
VERTEX
8
0
10
323.824
20
628.544
0
VERTEX
8
0
10
324.824
20
628.736
0
VERTEX
8
0
10
325.824
20
628.852
0
VERTEX
8
0
10
362.824
20
628.919
0
VERTEX
8
0
10
363.824
20
628.867
0
VERTEX
8
0
10
364.824
20
628.776
0
VERTEX
8
0
10
365.824
20
628.633
0
VERTEX
8
0
10
366.824
20
628.432
0
VERTEX
8
0
10
367.824
20
628.172
0
VERTEX
8
0
10
368.824
20
627.856
0
VERTEX
8
0
10
369.824
20
627.492
0
VERTEX
8
0
10
380.824
20
622.771
0
VERTEX
8
0
10
384.824
20
621.319
0
VERTEX
8
0
10
386.824
20
620.716
0
VERTEX
8
0
10
410.824
20
615.266
0
VERTEX
8
0
10
413.824
20
614.777
0
VERTEX
8
0
10
414.824
20
614.56
0
VERTEX
8
0
10
415.824
20
614.269
0
VERTEX
8
0
10
416.824
20
613.894
0
VERTEX
8
0
10
417.824
20
613.443
0
VERTEX
8
0
10
421.824
20
611.443
0
VERTEX
8
0
10
429.824
20
607.839
0
VERTEX
8
0
10
431.824
20
606.792
0
VERTEX
8
0
10
439.824
20
602.024
0
VERTEX
8
0
10
441.824
20
600.667
0
VERTEX
8
0
10
465.824
20
582.681
0
VERTEX
8
0
10
469.824
20
580.024
0
VERTEX
8
0
10
481.824
20
573.216
0
VERTEX
8
0
10
492.824
20
566.388
0
VERTEX
8
0
10
528.824
20
548.651
0
VERTEX
8
0
10
533.824
20
545.927
0
VERTEX
8
0
10
549.824
20
538.182
0
VERTEX
8
0
10
556.824
20
534.145
0
VERTEX
8
0
10
559.824
20
532.18
0
VERTEX
8
0
10
567.824
20
525.676
0
VERTEX
8
0
10
572.809
20
520.955
0
VERTEX
8
0
10
575.656
20
517.96
0
VERTEX
8
0
10
581.536
20
510.96
0
VERTEX
8
0
10
583.044
20
508.96
0
VERTEX
8
0
10
588.595
20
499.96
0
VERTEX
8
0
10
592.341
20
492.96
0
VERTEX
8
0
10
592.953
20
491.96
0
VERTEX
8
0
10
593.623
20
490.96
0
VERTEX
8
0
10
594.356
20
489.961
0
VERTEX
8
0
10
595.152
20
488.965
0
VERTEX
8
0
10
596.009
20
487.975
0
VERTEX
8
0
10
597.865
20
486.048
0
VERTEX
8
0
10
626.824
20
460.872
0
VERTEX
8
0
10
666.735
20
420.96
0
VERTEX
8
0
10
669.36
20
417.961
0
VERTEX
8
0
10
672.488
20
414.048
0
VERTEX
8
0
10
673.288
20
413.128
0
VERTEX
8
0
10
674.122
20
412.243
0
VERTEX
8
0
10
681.824
20
405.243
0
VERTEX
8
0
10
698.824
20
391.847
0
VERTEX
8
0
10
701.824
20
389.72
0
VERTEX
8
0
10
702.824
20
389.078
0
VERTEX
8
0
10
703.824
20
388.484
0
VERTEX
8
0
10
704.824
20
387.942
0
VERTEX
8
0
10
713.824
20
383.867
0
VERTEX
8
0
10
729.824
20
377.652
0
VERTEX
8
0
10
798.824
20
354.731
0
VERTEX
8
0
10
804.824
20
352.476
0
VERTEX
8
0
10
818.824
20
348.111
0
VERTEX
8
0
10
869.823
20
335.809
0
VERTEX
8
0
10
871.803
20
335.235
0
VERTEX
8
0
10
872.763
20
334.914
0
VERTEX
8
0
10
873.675
20
334.56
0
VERTEX
8
0
10
874.507
20
334.156
0
VERTEX
8
0
10
875.224
20
333.683
0
VERTEX
8
0
10
875.8
20
333.12
0
VERTEX
8
0
10
876.224
20
332.453
0
VERTEX
8
0
10
876.507
20
331.684
0
VERTEX
8
0
10
876.675
20
330.827
0
VERTEX
8
0
10
876.764
20
329.904
0
VERTEX
8
0
10
876.912
20
325.96
0
VERTEX
8
0
10
877.107
20
323.96
0
VERTEX
8
0
10
877.656
20
319.96
0
VERTEX
8
0
10
877.784
20
317.96
0
VERTEX
8
0
10
877.864
20
303.96
0
VERTEX
8
0
10
877.992
20
301.96
0
VERTEX
8
0
10
878.526
20
297.96
0
VERTEX
8
0
10
878.616
20
296.96
0
VERTEX
8
0
10
878.649
20
295.96
0
VERTEX
8
0
10
878.621
20
294.96
0
VERTEX
8
0
10
878.26
20
290.96
0
VERTEX
8
0
10
878.235
20
289.96
0
VERTEX
8
0
10
878.273
20
286.96
0
VERTEX
8
0
10
878.236
20
285.96
0
VERTEX
8
0
10
877.907
20
281.96
0
VERTEX
8
0
10
877.784
20
231.96
0
VERTEX
8
0
10
877.656
20
229.96
0
VERTEX
8
0
10
876.992
20
224.96
0
VERTEX
8
0
10
876.864
20
222.96
0
VERTEX
8
0
10
876.784
20
208.96
0
VERTEX
8
0
10
876.656
20
206.96
0
VERTEX
8
0
10
873.541
20
182.96
0
VERTEX
8
0
10
868.283
20
159.96
0
VERTEX
8
0
10
861.4
20
113.96
0
VERTEX
8
0
10
858.202
20
98.022
0
VERTEX
8
0
10
857.963
20
97.1135
0
VERTEX
8
0
10
857.676
20
96.2921
0
VERTEX
8
0
10
857.312
20
95.5995
0
VERTEX
8
0
10
856.84
20
95.072
0
VERTEX
8
0
10
856.239
20
94.7282
0
VERTEX
8
0
10
855.512
20
94.561
0
VERTEX
8
0
10
854.676
20
94.5377
0
VERTEX
8
0
10
853.763
20
94.6118
0
VERTEX
8
0
10
770.824
20
110.462
0
VERTEX
8
0
10
768.824
20
111
0
VERTEX
8
0
10
741.824
20
120.242
0
VERTEX
8
0
10
731.824
20
123.06
0
VERTEX
8
0
10
729.824
20
123.496
0
VERTEX
8
0
10
727.824
20
123.802
0
VERTEX
8
0
10
723.824
20
124.243
0
VERTEX
8
0
10
719.824
20
124.975
0
VERTEX
8
0
10
716.824
20
125.694
0
VERTEX
8
0
10
708.824
20
127.989
0
VERTEX
8
0
10
693.824
20
133.606
0
VERTEX
8
0
10
689.824
20
134.806
0
VERTEX
8
0
10
682.824
20
136.344
0
VERTEX
8
0
10
680.824
20
136.673
0
VERTEX
8
0
10
679.824
20
136.791
0
VERTEX
8
0
10
677.824
20
136.92
0
VERTEX
8
0
10
671.824
20
137.048
0
VERTEX
8
0
10
669.824
20
137.243
0
VERTEX
8
0
10
666.824
20
137.673
0
VERTEX
8
0
10
665.824
20
137.777
0
VERTEX
8
0
10
664.824
20
137.833
0
VERTEX
8
0
10
663.824
20
137.833
0
VERTEX
8
0
10
662.824
20
137.777
0
VERTEX
8
0
10
657.824
20
137.128
0
VERTEX
8
0
10
655.824
20
137
0
VERTEX
8
0
10
647.824
20
136.92
0
VERTEX
8
0
10
645.824
20
136.787
0
VERTEX
8
0
10
644.824
20
136.662
0
VERTEX
8
0
10
643.824
20
136.495
0
VERTEX
8
0
10
640.824
20
135.805
0
VERTEX
8
0
10
636.824
20
134.605
0
VERTEX
8
0
10
633.824
20
133.507
0
VERTEX
8
0
10
612.824
20
123.972
0
VERTEX
8
0
10
605.824
20
121.304
0
VERTEX
8
0
10
593.824
20
117.384
0
VERTEX
8
0
10
584.824
20
114.856
0
VERTEX
8
0
10
573.824
20
112.419
0
VERTEX
8
0
10
557.824
20
110.127
0
VERTEX
8
0
10
552.824
20
109.793
0
VERTEX
8
0
10
547.824
20
109.127
0
VERTEX
8
0
10
539.824
20
108.548
0
VERTEX
8
0
10
538.824
20
108.511
0
VERTEX
8
0
10
535.824
20
108.549
0
VERTEX
8
0
10
534.824
20
108.524
0
VERTEX
8
0
10
529.824
20
108.047
0
VERTEX
8
0
10
512.824
20
107.865
0
VERTEX
8
0
10
503.824
20
107.038
0
VERTEX
8
0
10
493.824
20
106.92
0
VERTEX
8
0
10
491.824
20
106.792
0
VERTEX
8
0
10
486.824
20
106.128
0
VERTEX
8
0
10
484.824
20
106
0
VERTEX
8
0
10
472.824
20
105.92
0
VERTEX
8
0
10
470.824
20
105.792
0
VERTEX
8
0
10
465.824
20
105.128
0
VERTEX
8
0
10
463.824
20
105
0
VERTEX
8
0
10
457.824
20
104.92
0
VERTEX
8
0
10
455.824
20
104.792
0
VERTEX
8
0
10
450.824
20
104.128
0
VERTEX
8
0
10
444.824
20
103.872
0
VERTEX
8
0
10
442.824
20
103.677
0
VERTEX
8
0
10
438.824
20
103.127
0
VERTEX
8
0
10
433.824
20
102.793
0
VERTEX
8
0
10
428.824
20
102.124
0
VERTEX
8
0
10
424.824
20
101.797
0
VERTEX
8
0
10
403.824
20
99.1284
0
VERTEX
8
0
10
401.824
20
98.9996
0
VERTEX
8
0
10
396.824
20
98.8673
0
VERTEX
8
0
10
395.824
20
98.7757
0
VERTEX
8
0
10
394.824
20
98.6328
0
VERTEX
8
0
10
393.824
20
98.4318
0
VERTEX
8
0
10
392.824
20
98.1717
0
VERTEX
8
0
10
391.824
20
97.8569
0
VERTEX
8
0
10
383.824
20
94.6559
0
VERTEX
8
0
10
374.824
20
91.587
0
VERTEX
8
0
10
372.824
20
90.7882
0
VERTEX
8
0
10
358.824
20
83.6468
0
VERTEX
8
0
10
338.824
20
70.9356
0
VERTEX
8
0
10
333.824
20
67.5007
0
VERTEX
8
0
10
312.824
20
54.8187
0
VERTEX
8
0
10
285.824
20
40.081
0
VERTEX
8
0
10
283.824
20
39.1274
0
VERTEX
8
0
10
279.824
20
37.4517
0
VERTEX
8
0
10
277.824
20
36.4728
0
VERTEX
8
0
10
253.824
20
22.7422
0
VERTEX
8
0
10
249.824
20
20.8189
0
VERTEX
8
0
10
241.824
20
17.4204
0
VERTEX
8
0
10
239.824
20
16.7077
0
VERTEX
8
0
10
232.824
20
14.6056
0
VERTEX
8
0
10
225.824
20
12.0481
0
VERTEX
8
0
10
223.824
20
11.4467
0
VERTEX
8
0
10
218.824
20
10.2105
0
VERTEX
8
0
10
216.824
20
9.56238
0
VERTEX
8
0
10
215.824
20
9.1755
0
VERTEX
8
0
10
214.824
20
8.739
0
VERTEX
8
0
10
210.824
20
6.68126
0
VERTEX
8
0
10
209.824
20
6.21631
0
VERTEX
8
0
10
208.824
20
5.8178
0
VERTEX
8
0
10
207.824
20
5.48736
0
VERTEX
8
0
10
198.824
20
3.42402
0
VERTEX
8
0
10
197.824
20
3.25801
0
VERTEX
8
0
10
196.824
20
3.13303
0
VERTEX
8
0
10
194.824
20
3
0
VERTEX
8
0
10
186.824
20
3
0
VERTEX
8
0
10
184.824
20
3.13304
0
VERTEX
8
0
10
183.824
20
3.25819
0
VERTEX
8
0
10
182.824
20
3.42514
0
VERTEX
8
0
10
180.824
20
3.86196
0
VERTEX
8
0
10
178.824
20
4.40429
0
VERTEX
8
0
10
177.824
20
4.72057
0
VERTEX
8
0
10
176.824
20
5.07866
0
VERTEX
8
0
10
175.824
20
5.48868
0
VERTEX
8
0
10
174.825
20
5.95864
0
VERTEX
8
0
10
173.829
20
6.49317
0
VERTEX
8
0
10
172.839
20
7.09374
0
VERTEX
8
0
10
171.864
20
7.76025
0
VERTEX
8
0
10
170.913
20
8.49224
0
VERTEX
8
0
10
169.997
20
9.2884
0
VERTEX
8
0
10
169.123
20
10.1447
0
VERTEX
8
0
10
168.293
20
11.053
0
VERTEX
8
0
10
167.504
20
12.0009
0
VERTEX
8
0
10
166.046
20
13.9648
0
VERTEX
8
0
10
165.384
20
14.9613
0
VERTEX
8
0
10
164.776
20
15.9603
0
VERTEX
8
0
10
164.226
20
16.9602
0
VERTEX
8
0
10
163.734
20
17.9601
0
VERTEX
8
0
10
163.293
20
18.9601
0
VERTEX
8
0
10
162.18
20
21.9601
0
VERTEX
8
0
10
159.954
20
29.9601
0
VERTEX
8
0
10
159.293
20
32.9601
0
VERTEX
8
0
10
159.137
20
33.9601
0
VERTEX
8
0
10
159.038
20
34.9601
0
VERTEX
8
0
10
159.006
20
35.9601
0
VERTEX
8
0
10
159.048
20
36.9601
0
VERTEX
8
0
10
159.167
20
37.9601
0
VERTEX
8
0
10
159.361
20
38.9601
0
VERTEX
8
0
10
159.625
20
39.9601
0
VERTEX
8
0
10
159.958
20
40.9601
0
VERTEX
8
0
10
160.357
20
41.9601
0
VERTEX
8
0
10
160.822
20
42.9601
0
VERTEX
8
0
10
161.352
20
43.9601
0
VERTEX
8
0
10
161.942
20
44.9601
0
VERTEX
8
0
10
163.268
20
46.9601
0
VERTEX
8
0
10
166.289
20
50.9601
0
VERTEX
8
0
10
167.997
20
52.959
0
VERTEX
8
0
10
170.839
20
55.9204
0
VERTEX
8
0
10
173.824
20
58.6727
0
VERTEX
8
0
10
178.824
20
62.7209
0
VERTEX
8
0
10
181.824
20
64.8757
0
VERTEX
8
0
10
189.824
20
70.0531
0
VERTEX
8
0
10
197.824
20
74.6391
0
VERTEX
8
0
10
220.824
20
85.1014
0
VERTEX
8
0
10
227.824
20
87.6162
0
VERTEX
8
0
10
234.824
20
89.8225
0
VERTEX
8
0
10
238.824
20
91.3899
0
VERTEX
8
0
10
241.824
20
92.7677
0
VERTEX
8
0
10
243.824
20
93.834
0
VERTEX
8
0
10
252.824
20
99.6796
0
VERTEX
8
0
10
273.824
20
115.236
0
VERTEX
8
0
10
276.824
20
117.201
0
VERTEX
8
0
10
278.824
20
118.332
0
VERTEX
8
0
10
284.824
20
121.285
0
VERTEX
8
0
10
286.824
20
122.43
0
VERTEX
8
0
10
288.824
20
123.749
0
VERTEX
8
0
10
289.824
20
124.488
0
VERTEX
8
0
10
291.824
20
126.145
0
VERTEX
8
0
10
298.784
20
132.96
0
VERTEX
8
0
10
305.912
20
140.955
0
VERTEX
8
0
10
308.829
20
143.872
0
VERTEX
8
0
10
311.824
20
146.521
0
VERTEX
8
0
10
322.818
20
155.258
0
VERTEX
8
0
10
323.802
20
156.133
0
VERTEX
8
0
10
324.758
20
157.049
0
VERTEX
8
0
10
325.66
20
158
0
VERTEX
8
0
10
326.466
20
158.975
0
VERTEX
8
0
10
327.13
20
159.965
0
VERTEX
8
0
10
327.611
20
160.96
0
VERTEX
8
0
10
327.881
20
161.955
0
VERTEX
8
0
10
327.934
20
162.944
0
VERTEX
8
0
10
327.782
20
163.914
0
VERTEX
8
0
10
327.446
20
164.851
0
VERTEX
8
0
10
326.947
20
165.731
0
VERTEX
8
0
10
326.306
20
166.529
0
VERTEX
8
0
10
325.545
20
167.219
0
VERTEX
8
0
10
324.69
20
167.784
0
VERTEX
8
0
10
323.768
20
168.214
0
VERTEX
8
0
10
322.804
20
168.513
0
VERTEX
8
0
10
321.818
20
168.69
0
VERTEX
8
0
10
320.823
20
168.758
0
VERTEX
8
0
10
319.824
20
168.731
0
VERTEX
8
0
10
318.824
20
168.62
0
VERTEX
8
0
10
317.824
20
168.438
0
VERTEX
8
0
10
316.824
20
168.2
0
VERTEX
8
0
10
308.824
20
165.592
0
VERTEX
8
0
10
292.824
20
159.102
0
VERTEX
8
0
10
236.824
20
131.819
0
VERTEX
8
0
10
223.824
20
126.384
0
VERTEX
8
0
10
206.824
20
120.309
0
VERTEX
8
0
10
204.824
20
119.715
0
VERTEX
8
0
10
202.824
20
119.244
0
VERTEX
8
0
10
197.824
20
118.296
0
VERTEX
8
0
10
144.824
20
104.241
0
VERTEX
8
0
10
136.824
20
101.704
0
VERTEX
8
0
10
130.824
20
100.216
0
VERTEX
8
0
10
114.824
20
95.2429
0
VERTEX
8
0
10
96.8239
20
90.4583
0
VERTEX
8
0
10
89.8239
20
89.2429
0
VERTEX
8
0
10
81.8239
20
88.5526
0
VERTEX
8
0
10
80.8239
20
88.5257
0
VERTEX
8
0
10
79.8239
20
88.5526
0
VERTEX
8
0
10
72.8239
20
89.1645
0
VERTEX
8
0
10
71.8239
20
89.3346
0
VERTEX
8
0
10
70.8239
20
89.5687
0
VERTEX
8
0
10
69.8239
20
89.8642
0
VERTEX
8
0
10
67.8239
20
90.592
0
VERTEX
8
0
10
65.8239
20
91.4537
0
VERTEX
8
0
10
64.8241
20
91.9447
0
VERTEX
8
0
10
63.825
20
92.4887
0
VERTEX
8
0
10
62.8286
20
93.0926
0
VERTEX
8
0
10
61.839
20
93.7601
0
VERTEX
8
0
10
60.8638
20
94.4922
0
VERTEX
8
0
10
59.913
20
95.2884
0
VERTEX
8
0
10
58.997
20
96.1447
0
VERTEX
8
0
10
58.1229
20
97.053
0
VERTEX
8
0
10
57.2927
20
98.0009
0
VERTEX
8
0
10
55.7537
20
99.9648
0
VERTEX
8
0
10
54.3694
20
101.96
0
VERTEX
8
0
10
52.5693
20
104.96
0
VERTEX
8
0
10
50.997
20
107.96
0
VERTEX
8
0
10
50.5426
20
108.96
0
VERTEX
8
0
10
50.136
20
109.96
0
VERTEX
8
0
10
47.2528
20
118.96
0
VERTEX
8
0
10
46.4924
20
121.96
0
VERTEX
8
0
10
46.2889
20
122.96
0
VERTEX
8
0
10
46.122
20
123.96
0
VERTEX
8
0
10
45.9968
20
124.96
0
VERTEX
8
0
10
45.8638
20
126.96
0
VERTEX
8
0
10
45.8649
20
134.96
0
VERTEX
8
0
10
45.9177
20
135.96
0
VERTEX
8
0
10
46.0121
20
136.96
0
VERTEX
8
0
10
46.1628
20
137.96
0
VERTEX
8
0
10
46.3817
20
138.96
0
VERTEX
8
0
10
46.677
20
139.959
0
VERTEX
8
0
10
47.0529
20
140.955
0
VERTEX
8
0
10
47.5114
20
141.945
0
VERTEX
8
0
10
48.0529
20
142.919
0
VERTEX
8
0
10
48.677
20
143.867
0
VERTEX
8
0
10
49.3817
20
144.776
0
VERTEX
8
0
10
50.1628
20
145.633
0
VERTEX
8
0
10
51.0121
20
146.432
0
VERTEX
8
0
10
51.9177
20
147.172
0
VERTEX
8
0
10
52.8649
20
147.856
0
VERTEX
8
0
10
53.8392
20
148.491
0
VERTEX
8
0
10
56.8241
20
150.181
0
VERTEX
8
0
10
71.8239
20
157.65
0
VERTEX
8
0
10
90.8239
20
165.102
0
VERTEX
8
0
10
119.824
20
173.304
0
VERTEX
8
0
10
126.824
20
175.771
0
VERTEX
8
0
10
139.824
20
181.345
0
VERTEX
8
0
10
155.824
20
186.934
0
VERTEX
8
0
10
185.824
20
194.679
0
VERTEX
8
0
10
198.824
20
199.023
0
VERTEX
8
0
10
205.824
20
202.07
0
VERTEX
8
0
10
212.824
20
205.64
0
VERTEX
8
0
10
219.824
20
208.535
0
VERTEX
8
0
10
236.824
20
214.241
0
VERTEX
8
0
10
257.824
20
219.986
0
VERTEX
8
0
10
263.824
20
222.023
0
VERTEX
8
0
10
279.824
20
228.859
0
VERTEX
8
0
10
280.824
20
229.359
0
VERTEX
8
0
10
281.824
20
229.912
0
VERTEX
8
0
10
282.824
20
230.52
0
VERTEX
8
0
10
284.823
20
231.891
0
VERTEX
8
0
10
286.803
20
233.429
0
VERTEX
8
0
10
287.764
20
234.259
0
VERTEX
8
0
10
288.68
20
235.133
0
VERTEX
8
0
10
289.522
20
236.049
0
VERTEX
8
0
10
290.264
20
237
0
VERTEX
8
0
10
290.888
20
237.975
0
VERTEX
8
0
10
291.392
20
238.965
0
VERTEX
8
0
10
291.79
20
239.961
0
VERTEX
8
0
10
292.099
20
240.96
0
VERTEX
8
0
10
292.339
20
241.96
0
VERTEX
8
0
10
292.52
20
242.96
0
VERTEX
8
0
10
292.648
20
243.96
0
VERTEX
8
0
10
292.729
20
244.96
0
VERTEX
8
0
10
292.763
20
245.96
0
VERTEX
8
0
10
292.748
20
246.959
0
VERTEX
8
0
10
292.671
20
247.955
0
VERTEX
8
0
10
292.506
20
248.944
0
VERTEX
8
0
10
292.224
20
249.914
0
VERTEX
8
0
10
291.8
20
250.851
0
VERTEX
8
0
10
291.224
20
251.731
0
VERTEX
8
0
10
290.507
20
252.529
0
VERTEX
8
0
10
289.675
20
253.219
0
VERTEX
8
0
10
288.763
20
253.784
0
VERTEX
8
0
10
287.803
20
254.218
0
VERTEX
8
0
10
286.818
20
254.524
0
VERTEX
8
0
10
285.823
20
254.716
0
VERTEX
8
0
10
284.824
20
254.811
0
VERTEX
8
0
10
283.824
20
254.827
0
VERTEX
8
0
10
282.824
20
254.775
0
VERTEX
8
0
10
281.824
20
254.671
0
VERTEX
8
0
10
272.824
20
253.244
0
VERTEX
8
0
10
270.824
20
253.043
0
VERTEX
8
0
10
266.824
20
252.792
0
VERTEX
8
0
10
264.824
20
252.521
0
VERTEX
8
0
10
227.824
20
244.832
0
VERTEX
8
0
10
214.824
20
241.532
0
VERTEX
8
0
10
201.824
20
237.389
0
VERTEX
8
0
10
198.824
20
236.624
0
VERTEX
8
0
10
185.824
20
234.247
0
VERTEX
8
0
10
183.824
20
234.044
0
VERTEX
8
0
10
179.824
20
233.793
0
VERTEX
8
0
10
136.824
20
227.536
0
VERTEX
8
0
10
130.824
20
226.399
0
VERTEX
8
0
10
128.824
20
226.125
0
VERTEX
8
0
10
124.824
20
225.797
0
VERTEX
8
0
10
90.8239
20
220.865
0
VERTEX
8
0
10
77.8239
20
217.895
0
VERTEX
8
0
10
75.8239
20
217.539
0
VERTEX
8
0
10
72.8239
20
217.191
0
VERTEX
8
0
10
65.8239
20
216.793
0
VERTEX
8
0
10
60.8239
20
216.129
0
VERTEX
8
0
10
58.8239
20
216.004
0
VERTEX
8
0
10
56.8239
20
216.004
0
VERTEX
8
0
10
54.8239
20
216.129
0
VERTEX
8
0
10
49.8239
20
216.792
0
VERTEX
8
0
10
47.8239
20
216.92
0
VERTEX
8
0
10
36.8239
20
217
0
VERTEX
8
0
10
34.8239
20
217.128
0
VERTEX
8
0
10
29.8239
20
217.797
0
VERTEX
8
0
10
25.8239
20
218.14
0
VERTEX
8
0
10
24.8239
20
218.287
0
VERTEX
8
0
10
23.8239
20
218.492
0
VERTEX
8
0
10
22.8239
20
218.76
0
VERTEX
8
0
10
21.8241
20
219.094
0
VERTEX
8
0
10
20.825
20
219.493
0
VERTEX
8
0
10
19.8286
20
219.96
0
VERTEX
8
0
10
18.839
20
220.493
0
VERTEX
8
0
10
17.8638
20
221.094
0
VERTEX
8
0
10
16.913
20
221.76
0
VERTEX
8
0
10
15.997
20
222.492
0
VERTEX
8
0
10
15.1229
20
223.288
0
VERTEX
8
0
10
14.2925
20
224.145
0
VERTEX
8
0
10
13.503
20
225.053
0
VERTEX
8
0
10
12.7503
20
226.001
0
VERTEX
8
0
10
11.3483
20
227.965
0
VERTEX
8
0
10
10.0827
20
229.96
0
VERTEX
8
0
10
8.94857
20
231.96
0
VERTEX
8
0
10
7.94516
20
233.96
0
VERTEX
8
0
10
6.25298
20
237.96
0
VERTEX
8
0
10
5.18314
20
240.96
0
VERTEX
8
0
10
4.58414
20
242.96
0
VERTEX
8
0
10
4.34073
20
243.96
0
VERTEX
8
0
10
4.1464
20
244.96
0
VERTEX
8
0
10
4.00274
20
245.96
0
VERTEX
8
0
10
3.54245
20
250.96
0
VERTEX
8
0
10
3.1218
20
253.96
0
VERTEX
8
0
10
3.03184
20
254.96
0
VERTEX
8
0
10
3
20
255.96
0
VERTEX
8
0
10
3.03294
20
256.96
0
VERTEX
8
0
10
3.12649
20
257.96
0
VERTEX
8
0
10
3.63413
20
260.96
0
VERTEX
8
0
10
4.31279
20
263.96
0
VERTEX
8
0
10
4.59854
20
264.96
0
VERTEX
8
0
10
4.92828
20
265.96
0
VERTEX
8
0
10
5.30776
20
266.96
0
VERTEX
8
0
10
5.74309
20
267.959
0
VERTEX
8
0
10
6.24256
20
268.955
0
VERTEX
8
0
10
6.81614
20
269.944
0
VERTEX
8
0
10
7.47242
20
270.916
0
VERTEX
8
0
10
8.21462
20
271.856
0
VERTEX
8
0
10
9.03763
20
272.747
0
VERTEX
8
0
10
9.92826
20
273.573
0
VERTEX
8
0
10
10.8685
20
274.323
0
VERTEX
8
0
10
11.8401
20
274.997
0
VERTEX
8
0
10
12.8288
20
275.605
0
VERTEX
8
0
10
14.8241
20
276.683
0
VERTEX
8
0
10
22.8239
20
280.318
0
VERTEX
8
0
10
26.8239
20
282.334
0
VERTEX
8
0
10
28.8239
20
283.215
0
VERTEX
8
0
10
49.8239
20
290.612
0
VERTEX
8
0
10
51.8239
20
291.206
0
VERTEX
8
0
10
53.8239
20
291.676
0
VERTEX
8
0
10
77.8239
20
295.676
0
VERTEX
8
0
10
79.8239
20
295.877
0
VERTEX
8
0
10
83.8239
20
296.127
0
VERTEX
8
0
10
93.8239
20
297.398
0
VERTEX
8
0
10
109.824
20
300.856
0
VERTEX
8
0
10
118.824
20
303.307
0
VERTEX
8
0
10
144.824
20
309.114
0
VERTEX
8
0
10
153.824
20
311.839
0
VERTEX
8
0
10
155.824
20
312.307
0
VERTEX
8
0
10
161.824
20
313.396
0
VERTEX
8
0
10
165.824
20
314.389
0
VERTEX
8
0
10
175.824
20
317.531
0
VERTEX
8
0
10
178.824
20
318.292
0
VERTEX
8
0
10
180.824
20
318.667
0
VERTEX
8
0
10
222.824
20
324.797
0
VERTEX
8
0
10
226.824
20
325.124
0
VERTEX
8
0
10
231.824
20
325.792
0
VERTEX
8
0
10
233.824
20
325.92
0
VERTEX
8
0
10
244.824
20
326
0
VERTEX
8
0
10
246.824
20
326.128
0
VERTEX
8
0
10
251.824
20
326.792
0
VERTEX
8
0
10
257.824
20
327.048
0
VERTEX
8
0
10
272.824
20
328.887
0
VERTEX
8
0
10
275.824
20
329.125
0
VERTEX
8
0
10
277.824
20
329.399
0
VERTEX
8
0
10
286.824
20
331.211
0
VERTEX
8
0
10
287.824
20
331.478
0
VERTEX
8
0
10
288.823
20
331.798
0
VERTEX
8
0
10
289.819
20
332.184
0
VERTEX
8
0
10
290.809
20
332.646
0
VERTEX
8
0
10
291.784
20
333.189
0
VERTEX
8
0
10
292.736
20
333.813
0
VERTEX
8
0
10
293.654
20
334.518
0
VERTEX
8
0
10
294.535
20
335.299
0
VERTEX
8
0
10
295.38
20
336.148
0
VERTEX
8
0
10
296.191
20
337.054
0
VERTEX
8
0
10
296.967
20
338.001
0
VERTEX
8
0
10
297.694
20
338.974
0
VERTEX
8
0
10
298.339
20
339.96
0
VERTEX
8
0
10
298.859
20
340.945
0
VERTEX
8
0
10
299.205
20
341.915
0
VERTEX
8
0
10
299.336
20
342.851
0
VERTEX
8
0
10
299.228
20
343.731
0
VERTEX
8
0
10
298.881
20
344.529
0
VERTEX
8
0
10
298.318
20
345.219
0
VERTEX
8
0
10
297.581
20
345.784
0
VERTEX
8
0
10
296.722
20
346.214
0
VERTEX
8
0
10
295.788
20
346.514
0
VERTEX
8
0
10
294.813
20
346.691
0
VERTEX
8
0
10
293.821
20
346.763
0
VERTEX
8
0
10
292.824
20
346.746
0
VERTEX
8
0
10
291.824
20
346.661
0
VERTEX
8
0
10
279.824
20
345.128
0
VERTEX
8
0
10
277.824
20
345
0
VERTEX
8
0
10
265.824
20
344.887
0
VERTEX
8
0
10
261.824
20
344.667
0
VERTEX
8
0
10
260.824
20
344.667
0
VERTEX
8
0
10
254.824
20
344.946
0
VERTEX
8
0
10
245.824
20
344.92
0
VERTEX
8
0
10
243.824
20
344.787
0
VERTEX
8
0
10
242.824
20
344.662
0
VERTEX
8
0
10
236.824
20
343.424
0
VERTEX
8
0
10
235.824
20
343.258
0
VERTEX
8
0
10
234.824
20
343.133
0
VERTEX
8
0
10
232.824
20
343
0
VERTEX
8
0
10
223.824
20
343
0
VERTEX
8
0
10
221.824
20
343.128
0
VERTEX
8
0
10
216.824
20
343.787
0
VERTEX
8
0
10
215.824
20
343.857
0
VERTEX
8
0
10
214.824
20
343.881
0
VERTEX
8
0
10
213.824
20
343.858
0
VERTEX
8
0
10
209.824
20
343.472
0
VERTEX
8
0
10
208.824
20
343.411
0
VERTEX
8
0
10
207.824
20
343.411
0
VERTEX
8
0
10
206.824
20
343.472
0
VERTEX
8
0
10
202.824
20
343.873
0
VERTEX
8
0
10
149.824
20
343.92
0
VERTEX
8
0
10
147.824
20
343.792
0
VERTEX
8
0
10
142.824
20
343.128
0
VERTEX
8
0
10
140.824
20
343
0
VERTEX
8
0
10
99.8239
20
343.075
0
VERTEX
8
0
10
94.8239
20
342.876
0
VERTEX
8
0
10
92.8239
20
342.678
0
VERTEX
8
0
10
88.8239
20
342.129
0
VERTEX
8
0
10
86.8239
20
342.004
0
VERTEX
8
0
10
84.8239
20
342.005
0
VERTEX
8
0
10
83.8239
20
342.05
0
VERTEX
8
0
10
82.8239
20
342.133
0
VERTEX
8
0
10
81.8239
20
342.258
0
VERTEX
8
0
10
79.8239
20
342.625
0
VERTEX
8
0
10
64.8239
20
346.118
0
VERTEX
8
0
10
62.8239
20
346.709
0
VERTEX
8
0
10
60.8239
20
347.424
0
VERTEX
8
0
10
58.8239
20
348.276
0
VERTEX
8
0
10
55.8239
20
349.758
0
VERTEX
8
0
10
54.8239
20
350.315
0
VERTEX
8
0
10
53.8239
20
350.923
0
VERTEX
8
0
10
52.8241
20
351.597
0
VERTEX
8
0
10
51.825
20
352.347
0
VERTEX
8
0
10
50.8286
20
353.173
0
VERTEX
8
0
10
48.8647
20
355.005
0
VERTEX
8
0
10
47.0085
20
356.965
0
VERTEX
8
0
10
46.1522
20
357.961
0
VERTEX
8
0
10
45.356
20
358.96
0
VERTEX
8
0
10
44.624
20
359.96
0
VERTEX
8
0
10
43.9574
20
360.96
0
VERTEX
8
0
10
43.356
20
361.96
0
VERTEX
8
0
10
42.8189
20
362.96
0
VERTEX
8
0
10
42.342
20
363.96
0
VERTEX
8
0
10
41.9177
20
364.96
0
VERTEX
8
0
10
40.8541
20
367.96
0
VERTEX
8
0
10
38.5715
20
375.96
0
VERTEX
8
0
10
38.3325
20
376.96
0
VERTEX
8
0
10
38.1317
20
377.96
0
VERTEX
8
0
10
37.4926
20
382.96
0
VERTEX
8
0
10
37.4186
20
383.96
0
VERTEX
8
0
10
37.3944
20
384.96
0
VERTEX
8
0
10
37.4315
20
385.96
0
VERTEX
8
0
10
37.5275
20
386.96
0
VERTEX
8
0
10
37.8437
20
388.96
0
VERTEX
8
0
10
39.4691
20
395.96
0
VERTEX
8
0
10
39.755
20
396.96
0
VERTEX
8
0
10
40.0825
20
397.96
0
VERTEX
8
0
10
40.476
20
398.96
0
VERTEX
8
0
10
40.9596
20
399.959
0
VERTEX
8
0
10
41.5499
20
400.955
0
VERTEX
8
0
10
42.2507
20
401.944
0
VERTEX
8
0
10
43.0518
20
402.916
0
VERTEX
8
0
10
43.9328
20
403.856
0
VERTEX
8
0
10
44.8696
20
404.747
0
VERTEX
8
0
10
45.8403
20
405.573
0
VERTEX
8
0
10
46.8288
20
406.323
0
VERTEX
8
0
10
47.8251
20
406.997
0
VERTEX
8
0
10
48.8241
20
407.605
0
VERTEX
8
0
10
50.8239
20
408.682
0
VERTEX
8
0
10
53.8239
20
410.09
0
VERTEX
8
0
10
56.8239
20
411.264
0
VERTEX
8
0
10
61.8239
20
412.924
0
VERTEX
8
0
10
71.8239
20
415.448
0
VERTEX
8
0
10
72.8239
20
415.639
0
VERTEX
8
0
10
73.8239
20
415.782
0
VERTEX
8
0
10
78.8239
20
416.242
0
VERTEX
8
0
10
82.8239
20
416.793
0
VERTEX
8
0
10
97.8239
20
418.103
0
VERTEX
8
0
10
109.824
20
419.791
0
VERTEX
8
0
10
110.824
20
419.868
0
VERTEX
8
0
10
111.824
20
419.905
0
VERTEX
8
0
10
112.824
20
419.905
0
VERTEX
8
0
10
113.824
20
419.868
0
VERTEX
8
0
10
114.824
20
419.791
0
VERTEX
8
0
10
118.824
20
419.258
0
VERTEX
8
0
10
119.824
20
419.168
0
VERTEX
8
0
10
120.824
20
419.136
0
VERTEX
8
0
10
121.824
20
419.169
0
VERTEX
8
0
10
122.824
20
419.263
0
VERTEX
8
0
10
131.824
20
420.83
0
VERTEX
8
0
10
137.824
20
421.637
0
VERTEX
8
0
10
138.824
20
421.704
0
VERTEX
8
0
10
139.824
20
421.704
0
VERTEX
8
0
10
140.824
20
421.637
0
VERTEX
8
0
10
151.824
20
420.128
0
VERTEX
8
0
10
153.824
20
420
0
VERTEX
8
0
10
177.824
20
420
0
VERTEX
8
0
10
179.824
20
420.128
0
VERTEX
8
0
10
184.824
20
420.792
0
VERTEX
8
0
10
186.824
20
420.919
0
VERTEX
8
0
10
189.824
20
420.919
0
VERTEX
8
0
10
191.824
20
420.792
0
VERTEX
8
0
10
196.824
20
420.128
0
VERTEX
8
0
10
198.824
20
420
0
VERTEX
8
0
10
219.824
20
420
0
VERTEX
8
0
10
221.824
20
420.128
0
VERTEX
8
0
10
226.824
20
420.792
0
VERTEX
8
0
10
228.824
20
420.92
0
VERTEX
8
0
10
268.824
20
421
0
VERTEX
8
0
10
270.824
20
421.128
0
VERTEX
8
0
10
275.824
20
421.797
0
VERTEX
8
0
10
279.824
20
422.125
0
VERTEX
8
0
10
281.824
20
422.399
0
VERTEX
8
0
10
302.824
20
426.521
0
VERTEX
8
0
10
304.824
20
426.791
0
VERTEX
8
0
10
310.824
20
427.048
0
VERTEX
8
0
10
312.824
20
427.243
0
VERTEX
8
0
10
320.824
20
428.395
0
VERTEX
8
0
10
331.824
20
430.613
0
VERTEX
8
0
10
348.824
20
435.487
0
VERTEX
8
0
10
361.824
20
438.346
0
VERTEX
8
0
10
371.824
20
439.792
0
VERTEX
8
0
10
373.824
20
439.916
0
VERTEX
8
0
10
375.824
20
439.916
0
VERTEX
8
0
10
377.824
20
439.792
0
VERTEX
8
0
10
393.824
20
437.244
0
VERTEX
8
0
10
395.824
20
437.048
0
VERTEX
8
0
10
422.824
20
437
0
VERTEX
8
0
10
424.824
20
437.132
0
VERTEX
8
0
10
429.824
20
437.906
0
VERTEX
8
0
10
430.824
20
438.014
0
VERTEX
8
0
10
431.824
20
438.072
0
VERTEX
8
0
10
433.824
20
438.065
0
VERTEX
8
0
10
437.824
20
437.807
0
VERTEX
8
0
10
440.824
20
437.474
0
VERTEX
8
0
10
441.824
20
437.416
0
VERTEX
8
0
10
442.824
20
437.426
0
VERTEX
8
0
10
443.824
20
437.513
0
VERTEX
8
0
10
444.824
20
437.669
0
VERTEX
8
0
10
445.824
20
437.881
0
VERTEX
8
0
10
446.824
20
438.135
0
VERTEX
8
0
10
447.824
20
438.431
0
VERTEX
8
0
10
448.823
20
438.774
0
VERTEX
8
0
10
449.819
20
439.174
0
VERTEX
8
0
10
450.808
20
439.643
0
VERTEX
8
0
10
451.778
20
440.188
0
VERTEX
8
0
10
452.716
20
440.813
0
VERTEX
8
0
10
453.6
20
441.518
0
VERTEX
8
0
10
454.408
20
442.299
0
VERTEX
8
0
10
455.123
20
443.148
0
VERTEX
8
0
10
455.737
20
444.054
0
VERTEX
8
0
10
456.256
20
445.001
0
VERTEX
8
0
10
456.692
20
445.975
0
VERTEX
8
0
10
457.065
20
446.965
0
VERTEX
8
0
10
458.071
20
449.96
0
VERTEX
8
0
10
458.471
20
450.96
0
VERTEX
8
0
10
458.953
20
451.96
0
VERTEX
8
0
10
459.529
20
452.96
0
VERTEX
8
0
10
460.19
20
453.96
0
VERTEX
8
0
10
461.616
20
455.96
0
VERTEX
8
0
10
462.269
20
456.96
0
VERTEX
8
0
10
462.812
20
457.96
0
VERTEX
8
0
10
463.214
20
458.96
0
VERTEX
8
0
10
463.468
20
459.96
0
VERTEX
8
0
10
463.587
20
460.96
0
VERTEX
8
0
10
463.594
20
461.96
0
VERTEX
8
0
10
463.514
20
462.96
0
VERTEX
8
0
10
463.374
20
463.96
0
VERTEX
8
0
10
462.973
20
465.96
0
VERTEX
8
0
10
462.715
20
466.96
0
VERTEX
8
0
10
462.4
20
467.96
0
VERTEX
8
0
10
462.009
20
468.96
0
VERTEX
8
0
10
461.527
20
469.96
0
VERTEX
8
0
10
460.952
20
470.96
0
VERTEX
8
0
10
460.297
20
471.96
0
VERTEX
8
0
10
457.415
20
475.96
0
VERTEX
8
0
10
454.877
20
479.96
0
VERTEX
8
0
10
454.192
20
480.96
0
VERTEX
8
0
10
453.438
20
481.96
0
VERTEX
8
0
10
452.611
20
482.96
0
VERTEX
8
0
10
440.992
20
494.96
0
VERTEX
8
0
10
435.736
20
500.96
0
VERTEX
8
0
10
429.993
20
506.96
0
VERTEX
8
0
10
421.655
20
516.96
0
VERTEX
8
0
10
410.824
20
527.871
0
VERTEX
8
0
10
408.824
20
529.662
0
VERTEX
8
0
10
405.824
20
532.058
0
VERTEX
8
0
10
402.824
20
534.196
0
VERTEX
8
0
10
401.824
20
534.831
0
VERTEX
8
0
10
400.824
20
535.407
0
VERTEX
8
0
10
399.824
20
535.913
0
VERTEX
8
0
10
398.824
20
536.347
0
VERTEX
8
0
10
397.824
20
536.712
0
VERTEX
8
0
10
396.824
20
537.02
0
VERTEX
8
0
10
394.824
20
537.506
0
VERTEX
8
0
10
389.824
20
538.462
0
VERTEX
8
0
10
384.824
20
539.868
0
VERTEX
8
0
10
383.824
20
540.106
0
VERTEX
8
0
10
382.824
20
540.289
0
VERTEX
8
0
10
381.824
20
540.407
0
VERTEX
8
0
10
380.824
20
540.456
0
VERTEX
8
0
10
379.824
20
540.439
0
VERTEX
8
0
10
378.824
20
540.366
0
VERTEX
8
0
10
372.824
20
539.486
0
VERTEX
8
0
10
371.824
20
539.416
0
VERTEX
8
0
10
370.824
20
539.412
0
VERTEX
8
0
10
369.824
20
539.472
0
VERTEX
8
0
10
365.824
20
539.878
0
VERTEX
8
0
10
361.824
20
540.128
0
VERTEX
8
0
10
359.824
20
540.4
0
VERTEX
8
0
10
355.824
20
541.196
0
VERTEX
8
0
10
353.824
20
541.705
0
VERTEX
8
0
10
350.824
20
542.66
0
VERTEX
8
0
10
340.824
20
546.822
0
VERTEX
8
0
10
338.824
20
547.768
0
VERTEX
8
0
10
336.824
20
548.834
0
VERTEX
8
0
10
333.824
20
550.661
0
VERTEX
8
0
10
330.824
20
552.72
0
VERTEX
8
0
10
328.825
20
554.284
0
VERTEX
8
0
10
326.839
20
556.053
0
VERTEX
8
0
10
311.993
20
571.96
0
VERTEX
8
0
10
310.351
20
573.96
0
VERTEX
8
0
10
309.612
20
574.96
0
VERTEX
8
0
10
308.294
20
576.96
0
VERTEX
8
0
10
307.15
20
578.96
0
VERTEX
8
0
10
306.15
20
580.96
0
VERTEX
8
0
10
305.294
20
582.96
0
VERTEX
8
0
10
304.928
20
583.96
0
VERTEX
8
0
10
304.613
20
584.96
0
VERTEX
8
0
10
304.353
20
585.96
0
VERTEX
8
0
10
304.156
20
586.96
0
VERTEX
8
0
10
304.023
20
587.96
0
VERTEX
8
0
10
303.956
20
588.96
0
VERTEX
8
0
10
303.953
20
589.96
0
VERTEX
8
0
10
304.007
20
590.96
0
VERTEX
8
0
10
305.107
20
598.96
0
VERTEX
8
0
10
305.714
20
601.96
0
VERTEX
8
0
10
308.126
20
611.96
0
VERTEX
8
0
10
308.433
20
612.96
0
VERTEX
8
0
10
308.801
20
613.96
0
VERTEX
8
0
10
309.238
20
614.96
0
VERTEX
8
0
10
309.742
20
615.96
0
VERTEX
8
0
10
310.309
20
616.96
0
VERTEX
8
0
10
310.933
20
617.96
0
VERTEX
8
0
10
311.614
20
618.959
0
VERTEX
8
0
10
312.352
20
619.955
0
VERTEX
8
0
10
313.151
20
620.945
0
VERTEX
8
0
10
314.008
20
621.919
0
VERTEX
8
0
10
314.917
20
622.867
0
VERTEX
8
0
10
315.865
20
623.776
0
VERTEX
8
0
10
316.839
20
624.632
0
VERTEX
8
0
10
317.829
20
625.427
0
VERTEX
8
0
10
318.825
20
626.155
0
VERTEX
8
0
10
319.824
20
626.811
0
VERTEX
8
0
10
320.824
20
627.387
0
VERTEX
8
0
10
321.824
20
627.873
0
SEQEND
0
ENDSEC
0
EOF
