999
Creator: CLJ++
0
SECTION
2
HEADER
9
$ACADVER
1
AC1009
9
$EXTMIN
10
0
20
0
9
$EXTMAX
10
200
20
250
9
$LIMMIN
10
0
20
0
9
$LIMMAX
10
200
20
250
0
ENDSEC
0
SECTION
2
TABLES
0
TABLE
2
VPORT
70
1
0
VPORT
2
*Active
70
0
10
0
20
0
11
1
21
1
12
100
22
125
13
0
23
0
14
0.5
24
0.5
15
0.5
25
0.5
16
0
26
0
36
1
17
0
27
0
37
0
40
250
41
1
42
50
43
0
44
0
50
0
51
0
71
0
72
1
73
1
74
3
75
0
76
0
77
0
78
0
0
ENDTAB
0
TABLE
2
LTYPE
70
1
0
LTYPE
2
CONTINUOUS
70
0
3
Solid line
72
65
73
0
40
0
0
ENDTAB
0
TABLE
2
LAYER
70
4
0
LAYER
2
0
70
0
62
255
6
CONTINUOUS
0
LAYER
2
PART
70
0
62
3
6
CONTINUOUS
0
LAYER
2
TEXT
70
0
62
2
6
CONTINUOUS
0
LAYER
2
PLATE
70
0
62
4
6
CONTINUOUS
0
ENDTAB
0
ENDSEC
0
SECTION
2
ENTITIES
0
POLYLINE
8
PART
10
0
20
0
66
1
70
1
62
1
0
VERTEX
8
PART
10
125.992
20
23.0157
0
VERTEX
8
PART
10
125.903
20
23.6252
0
VERTEX
8
PART
10
125.44
20
24.2572
0
VERTEX
8
PART
10
123.437
20
27.0103
0
VERTEX
8
PART
10
123.398
20
26.9714
0
VERTEX
8
PART
10
123.394
20
26.9713
0
VERTEX
8
PART
10
123.139
20
26.7354
0
VERTEX
8
PART
10
123.072
20
26.725
0
VERTEX
8
PART
10
118.525
20
26.8168
0
VERTEX
8
PART
10
120.393
20
19.09
0
VERTEX
8
PART
10
115.921
20
18.009
0
VERTEX
8
PART
10
113.946
20
26.1813
0
VERTEX
8
PART
10
110.961
20
25.4003
0
VERTEX
8
PART
10
110.415
20
25.2837
0
VERTEX
8
PART
10
110.196
20
25.2364
0
VERTEX
8
PART
10
109.684
20
25.2394
0
VERTEX
8
PART
10
103.149
20
25.2544
0
VERTEX
8
PART
10
100.978
20
25.0572
0
VERTEX
8
PART
10
103.472
20
14.7388
0
VERTEX
8
PART
10
99.0011
20
13.6578
0
VERTEX
8
PART
10
96.3167
20
24.7613
0
VERTEX
8
PART
10
96.0389
20
24.7397
0
VERTEX
8
PART
10
95.209
20
24.6175
0
VERTEX
8
PART
10
94.341
20
24.5355
0
VERTEX
8
PART
10
93.2815
20
24.3339
0
VERTEX
8
PART
10
91.5119
20
24.3163
0
VERTEX
8
PART
10
89.5678
20
24.0652
0
VERTEX
8
PART
10
89.1637
20
23.9761
0
VERTEX
8
PART
10
85.9813
20
22.9673
0
VERTEX
8
PART
10
85.5291
20
22.8358
0
VERTEX
8
PART
10
85.281
20
22.7643
0
VERTEX
8
PART
10
83.6312
20
22.4689
0
VERTEX
8
PART
10
86.1022
20
12.2481
0
VERTEX
8
PART
10
81.631
20
11.1671
0
VERTEX
8
PART
10
78.9984
20
22.0564
0
VERTEX
8
PART
10
78.4125
20
22.0215
0
VERTEX
8
PART
10
76.7291
20
21.74
0
VERTEX
8
PART
10
74.7419
20
21.9358
0
VERTEX
8
PART
10
72.7138
20
21.6241
0
VERTEX
8
PART
10
72.5493
20
21.6438
0
VERTEX
8
PART
10
71.2512
20
21.677
0
VERTEX
8
PART
10
69.3789
20
21.6788
0
VERTEX
8
PART
10
69.2865
20
21.6766
0
VERTEX
8
PART
10
68.164
20
21.7211
0
VERTEX
8
PART
10
68.1572
20
21.7206
0
VERTEX
8
PART
10
68.0779
20
21.7092
0
VERTEX
8
PART
10
66.4101
20
21.8113
0
VERTEX
8
PART
10
65.83
20
21.7615
0
VERTEX
8
PART
10
68.1336
20
12.2331
0
VERTEX
8
PART
10
63.6624
20
11.1522
0
VERTEX
8
PART
10
60.2694
20
25.1866
0
VERTEX
8
PART
10
59.197
20
26.0006
0
VERTEX
8
PART
10
58.2257
20
26.2415
0
VERTEX
8
PART
10
57.3391
20
26.2222
0
VERTEX
8
PART
10
56.1797
20
26.3815
0
VERTEX
8
PART
10
55.285
20
26.5799
0
VERTEX
8
PART
10
54.4256
20
26.5913
0
VERTEX
8
PART
10
53.3153
20
26.6883
0
VERTEX
8
PART
10
52.563
20
26.74
0
VERTEX
8
PART
10
51.5663
20
26.8096
0
VERTEX
8
PART
10
50.1158
20
26.6715
0
VERTEX
8
PART
10
48.8495
20
26.7386
0
VERTEX
8
PART
10
48.0329
20
26.7946
0
VERTEX
8
PART
10
47.2046
20
27.0686
0
VERTEX
8
PART
10
46.2981
20
27.2584
0
VERTEX
8
PART
10
45.7136
20
27.3614
0
VERTEX
8
PART
10
45.0564
20
27.4303
0
VERTEX
8
PART
10
44.521
20
27.6229
0
VERTEX
8
PART
10
43.7458
20
28.0747
0
VERTEX
8
PART
10
43.1978
20
28.1911
0
VERTEX
8
PART
10
42.6782
20
28.2145
0
VERTEX
8
PART
10
41.539
20
28.5443
0
VERTEX
8
PART
10
40.4745
20
28.8276
0
VERTEX
8
PART
10
40.0831
20
28.8778
0
VERTEX
8
PART
10
39.7151
20
28.8814
0
VERTEX
8
PART
10
38.3928
20
29.3084
0
VERTEX
8
PART
10
38.0136
20
29.3469
0
VERTEX
8
PART
10
37.2041
20
29.6238
0
VERTEX
8
PART
10
36.8767
20
29.6223
0
VERTEX
8
PART
10
36.847
20
29.6314
0
VERTEX
8
PART
10
35.9837
20
29.823
0
VERTEX
8
PART
10
35.7936
20
29.8387
0
VERTEX
8
PART
10
35.3865
20
29.9711
0
VERTEX
8
PART
10
34.4833
20
30
0
VERTEX
8
PART
10
34.2023
20
29.9749
0
VERTEX
8
PART
10
33.1489
20
29.9572
0
VERTEX
8
PART
10
33.006
20
29.9584
0
VERTEX
8
PART
10
32.8576
20
29.9432
0
VERTEX
8
PART
10
31.8471
20
29.9723
0
VERTEX
8
PART
10
31.8116
20
29.9626
0
VERTEX
8
PART
10
30.5916
20
29.9995
0
VERTEX
8
PART
10
30.5209
20
30
0
VERTEX
8
PART
10
29.4477
20
29.931
0
VERTEX
8
PART
10
29.3993
20
29.9231
0
VERTEX
8
PART
10
28.2032
20
29.843
0
VERTEX
8
PART
10
28.1938
20
29.8426
0
VERTEX
8
PART
10
28.1857
20
29.8416
0
VERTEX
8
PART
10
27.9033
20
29.8107
0
VERTEX
8
PART
10
27.0263
20
29.3397
0
VERTEX
8
PART
10
26.978
20
29.3104
0
VERTEX
8
PART
10
25.8002
20
28.8527
0
VERTEX
8
PART
10
25.088
20
28.6582
0
VERTEX
8
PART
10
24.9748
20
28.5702
0
VERTEX
8
PART
10
23.89
20
27.9452
0
VERTEX
8
PART
10
23.4606
20
27.688
0
VERTEX
8
PART
10
23.2926
20
27.5064
0
VERTEX
8
PART
10
22.3462
20
26.5915
0
VERTEX
8
PART
10
22.0615
20
26.1951
0
VERTEX
8
PART
10
21.7977
20
25.8819
0
VERTEX
8
PART
10
21.3146
20
25.3234
0
VERTEX
8
PART
10
21.0278
20
24.9979
0
VERTEX
8
PART
10
20.6577
20
24.6824
0
VERTEX
8
PART
10
19.9175
20
23.854
0
VERTEX
8
PART
10
19.5957
20
23.5479
0
VERTEX
8
PART
10
19.2229
20
23.0948
0
VERTEX
8
PART
10
18.6992
20
22.4583
0
VERTEX
8
PART
10
18.4406
20
22.0881
0
VERTEX
8
PART
10
17.8749
20
21.599
0
VERTEX
8
PART
10
17.3542
20
20.7946
0
VERTEX
8
PART
10
17.02
20
20.5403
0
VERTEX
8
PART
10
16.2922
20
19.8836
0
VERTEX
8
PART
10
15.6591
20
19.6982
0
VERTEX
8
PART
10
14.9043
20
19.1209
0
VERTEX
8
PART
10
14.3223
20
18.8702
0
VERTEX
8
PART
10
13.5729
20
18.2602
0
VERTEX
8
PART
10
13.0959
20
18.024
0
VERTEX
8
PART
10
12.3381
20
17.4242
0
VERTEX
8
PART
10
11.8929
20
17.2228
0
VERTEX
8
PART
10
10.1463
20
16.3184
0
VERTEX
8
PART
10
9.46552
20
16.0884
0
VERTEX
8
PART
10
7.47781
20
15.1532
0
VERTEX
8
PART
10
6.88535
20
14.9445
0
VERTEX
8
PART
10
4.66039
20
13.9268
0
VERTEX
8
PART
10
4.29969
20
13.7889
0
VERTEX
8
PART
10
1.82115
20
12.6307
0
VERTEX
8
PART
10
1.67582
20
12.5582
0
VERTEX
8
PART
10
0
20
11.7079
0
VERTEX
8
PART
10
0.942418
20
3.14664
0
VERTEX
8
PART
10
0.950834
20
3.06902
0
VERTEX
8
PART
10
0.962049
20
3.0685
0
VERTEX
8
PART
10
3.94203
20
2.93308
0
VERTEX
8
PART
10
4.83875
20
2.97145
0
VERTEX
8
PART
10
7.64443
20
2.88433
0
VERTEX
8
PART
10
9.75264
20
2.79162
0
VERTEX
8
PART
10
11.7574
20
2.83117
0
VERTEX
8
PART
10
10.2314
20
9.14321
0
VERTEX
8
PART
10
14.7026
20
10.2242
0
VERTEX
8
PART
10
16.5437
20
2.60906
0
VERTEX
8
PART
10
17.7918
20
2.57584
0
VERTEX
8
PART
10
18.4431
20
2.4694
0
VERTEX
8
PART
10
19.0308
20
2.3585
0
VERTEX
8
PART
10
19.4291
20
2.2481
0
VERTEX
8
PART
10
24.2475
20
1.24545
0
VERTEX
8
PART
10
24.8037
20
1.24204
0
VERTEX
8
PART
10
24.8914
20
1.24495
0
VERTEX
8
PART
10
27.689
20
1.23543
0
VERTEX
8
PART
10
29.5862
20
1.18071
0
VERTEX
8
PART
10
30.1312
20
1.17024
0
VERTEX
8
PART
10
26.9247
20
14.4334
0
VERTEX
8
PART
10
31.3959
20
15.5144
0
VERTEX
8
PART
10
34.8621
20
1.17684
0
VERTEX
8
PART
10
35.7097
20
1.20699
0
VERTEX
8
PART
10
37.0189
20
1.18374
0
VERTEX
8
PART
10
39.8678
20
1.33199
0
VERTEX
8
PART
10
47.4389
20
1.28547
0
VERTEX
8
PART
10
48.0742
20
1.29093
0
VERTEX
8
PART
10
44.983
20
14.0774
0
VERTEX
8
PART
10
49.4542
20
15.1584
0
VERTEX
8
PART
10
52.7986
20
1.3248
0
VERTEX
8
PART
10
59.444
20
1.36556
0
VERTEX
8
PART
10
63.0415
20
1.1981
0
VERTEX
8
PART
10
67.3866
20
1.97435
0
VERTEX
8
PART
10
69.7056
20
1.93836
0
VERTEX
8
PART
10
73.4486
20
1.73678
0
VERTEX
8
PART
10
73.826
20
1.80549
0
VERTEX
8
PART
10
74.1244
20
1.86041
0
VERTEX
8
PART
10
74.4683
20
1.88034
0
VERTEX
8
PART
10
74.8535
20
1.86269
0
VERTEX
8
PART
10
78.2013
20
1.74046
0
VERTEX
8
PART
10
78.5516
20
1.71213
0
VERTEX
8
PART
10
81.3129
20
1.51148
0
VERTEX
8
PART
10
81.5111
20
1.46944
0
VERTEX
8
PART
10
84.4036
20
1.29012
0
VERTEX
8
PART
10
84.4354
20
1.28682
0
VERTEX
8
PART
10
84.8318
20
1.26629
0
VERTEX
8
PART
10
88.3472
20
1.30176
0
VERTEX
8
PART
10
88.4935
20
1.30227
0
VERTEX
8
PART
10
88.6707
20
1.35627
0
VERTEX
8
PART
10
90.6958
20
1.97092
0
VERTEX
8
PART
10
92.3384
20
2.03694
0
VERTEX
8
PART
10
92.5742
20
2.05228
0
VERTEX
8
PART
10
92.8908
20
2.13208
0
VERTEX
8
PART
10
96.2497
20
2.39035
0
VERTEX
8
PART
10
96.9538
20
2.45218
0
VERTEX
8
PART
10
97.8609
20
2.48239
0
VERTEX
8
PART
10
100.435
20
2.65872
0
VERTEX
8
PART
10
101.776
20
3.191
0
VERTEX
8
PART
10
104.467
20
3.53823
0
VERTEX
8
PART
10
105.605
20
3.64598
0
VERTEX
8
PART
10
109.198
20
4.857
0
VERTEX
8
PART
10
109.637
20
4.9279
0
VERTEX
8
PART
10
110.037
20
5.0468
0
VERTEX
8
PART
10
110.227
20
5.09417
0
VERTEX
8
PART
10
113.728
20
6.88015
0
VERTEX
8
PART
10
113.807
20
6.93003
0
VERTEX
8
PART
10
114.842
20
7.68356
0
VERTEX
8
PART
10
116.565
20
8.75323
0
VERTEX
8
PART
10
116.731
20
8.81375
0
VERTEX
8
PART
10
117.468
20
9.13183
0
VERTEX
8
PART
10
120.199
20
10.4638
0
VERTEX
8
PART
10
121.505
20
12.6718
0
VERTEX
8
PART
10
122.259
20
14.0736
0
VERTEX
8
PART
10
122.351
20
14.2741
0
VERTEX
8
PART
10
122.956
20
16.5176
0
VERTEX
8
PART
10
123.559
20
16.945
0
VERTEX
8
PART
10
124.416
20
19.2265
0
VERTEX
8
PART
10
126.279
20
22.2237
0
SEQEND
0
TEXT
8
TEXT
10
45.1606
20
1.7721
40
8
1
X8.1
50
103.591
0
POLYLINE
8
PART
10
0
20
0
66
1
70
1
62
1
0
VERTEX
8
PART
10
9.28034
20
235.985
0
VERTEX
8
PART
10
9.12267
20
235.99
0
VERTEX
8
PART
10
7.77691
20
235.925
0
VERTEX
8
PART
10
7.43526
20
235.922
0
VERTEX
8
PART
10
6.26501
20
235.8
0
VERTEX
8
PART
10
5.70699
20
235.76
0
VERTEX
8
PART
10
4.74787
20
235.591
0
VERTEX
8
PART
10
3.92466
20
235.474
0
VERTEX
8
PART
10
3.21914
20
235.292
0
VERTEX
8
PART
10
2.06369
20
235.041
0
VERTEX
8
PART
10
1.6602
20
234.905
0
VERTEX
8
PART
10
0.0971523
20
234.439
0
VERTEX
8
PART
10
0.0751522
20
234.43
0
VERTEX
8
PART
10
2.67537e-07
20
234.401
0
VERTEX
8
PART
10
0.0432387
20
234.359
0
VERTEX
8
PART
10
0.0443519
20
234.359
0
VERTEX
8
PART
10
0.0481027
20
234.356
0
VERTEX
8
PART
10
1.05637
20
233.505
0
VERTEX
8
PART
10
1.12565
20
233.449
0
VERTEX
8
PART
10
2.09597
20
232.687
0
VERTEX
8
PART
10
2.21565
20
232.584
0
VERTEX
8
PART
10
3.15444
20
231.913
0
VERTEX
8
PART
10
3.32556
20
231.793
0
VERTEX
8
PART
10
4.22386
20
231.176
0
VERTEX
8
PART
10
4.43133
20
231.029
0
VERTEX
8
PART
10
5.25506
20
230.388
0
VERTEX
8
PART
10
5.49311
20
230.202
0
VERTEX
8
PART
10
6.26376
20
229.589
0
VERTEX
8
PART
10
6.5383
20
229.376
0
VERTEX
8
PART
10
7.27683
20
228.817
0
VERTEX
8
PART
10
7.58154
20
228.585
0
VERTEX
8
PART
10
8.26431
20
228.069
0
VERTEX
8
PART
10
8.59437
20
227.81
0
VERTEX
8
PART
10
9.2172
20
227.325
0
VERTEX
8
PART
10
9.57505
20
227.043
0
VERTEX
8
PART
10
10.1403
20
226.591
0
VERTEX
8
PART
10
10.7485
20
226.061
0
VERTEX
8
PART
10
11.4551
20
225.456
0
VERTEX
8
PART
10
11.9185
20
224.987
0
VERTEX
8
PART
10
12.4694
20
224.432
0
VERTEX
8
PART
10
12.9489
20
223.758
0
VERTEX
8
PART
10
13.3129
20
223.261
0
VERTEX
8
PART
10
13.6529
20
222.629
0
VERTEX
8
PART
10
13.922
20
222.153
0
VERTEX
8
PART
10
14.4018
20
221.151
0
VERTEX
8
PART
10
14.5851
20
220.78
0
VERTEX
8
PART
10
15.1523
20
219.567
0
VERTEX
8
PART
10
15.2662
20
219.318
0
VERTEX
8
PART
10
15.9032
20
217.867
0
VERTEX
8
PART
10
15.9479
20
217.763
0
VERTEX
8
PART
10
16.4738
20
216.715
0
VERTEX
8
PART
10
16.7473
20
216.232
0
VERTEX
8
PART
10
16.7582
20
216.211
0
VERTEX
8
PART
10
17.3575
20
215.116
0
VERTEX
8
PART
10
17.3892
20
215.062
0
VERTEX
8
PART
10
18.2531
20
213.605
0
VERTEX
8
PART
10
18.9821
20
212.147
0
VERTEX
8
PART
10
19.0707
20
211.976
0
VERTEX
8
PART
10
19.6005
20
210.907
0
VERTEX
8
PART
10
19.9576
20
210.178
0
VERTEX
8
PART
10
20.0882
20
209.934
0
VERTEX
8
PART
10
20.6435
20
208.901
0
VERTEX
8
PART
10
21.2766
20
207.807
0
VERTEX
8
PART
10
21.4602
20
207.493
0
VERTEX
8
PART
10
21.9427
20
206.66
0
VERTEX
8
PART
10
22.4333
20
205.774
0
VERTEX
8
PART
10
22.6658
20
205.431
0
VERTEX
8
PART
10
23.0712
20
204.681
0
VERTEX
8
PART
10
23.4924
20
203.832
0
VERTEX
8
PART
10
23.5582
20
203.708
0
VERTEX
8
PART
10
23.7886
20
203.172
0
VERTEX
8
PART
10
23.8613
20
203.029
0
VERTEX
8
PART
10
24.0831
20
202.471
0
VERTEX
8
PART
10
24.1556
20
202.314
0
VERTEX
8
PART
10
24.3701
20
201.667
0
VERTEX
8
PART
10
33.1981
20
201.046
0
VERTEX
8
PART
10
32.8755
20
196.457
0
VERTEX
8
PART
10
25.2834
20
196.991
0
VERTEX
8
PART
10
25.3664
20
196.355
0
VERTEX
8
PART
10
25.3883
20
196.243
0
VERTEX
8
PART
10
25.553
20
194.902
0
VERTEX
8
PART
10
25.692
20
194.185
0
VERTEX
8
PART
10
25.8133
20
193.161
0
VERTEX
8
PART
10
25.917
20
192.173
0
VERTEX
8
PART
10
26.0626
20
191.369
0
VERTEX
8
PART
10
26.1921
20
190.251
0
VERTEX
8
PART
10
26.2797
20
189.403
0
VERTEX
8
PART
10
26.4448
20
188.532
0
VERTEX
8
PART
10
26.5425
20
187.668
0
VERTEX
8
PART
10
26.6958
20
186.785
0
VERTEX
8
PART
10
26.74
20
186.089
0
VERTEX
8
PART
10
26.779
20
185.536
0
VERTEX
8
PART
10
26.9327
20
184.855
0
VERTEX
8
PART
10
27.0645
20
183.996
0
VERTEX
8
PART
10
27.069
20
183.965
0
VERTEX
8
PART
10
36.4557
20
183.305
0
VERTEX
8
PART
10
36.1331
20
178.716
0
VERTEX
8
PART
10
27.8893
20
179.296
0
VERTEX
8
PART
10
28.0214
20
179.01
0
VERTEX
8
PART
10
28.0445
20
178.951
0
VERTEX
8
PART
10
28.0642
20
178.901
0
VERTEX
8
PART
10
28.7489
20
176.077
0
VERTEX
8
PART
10
29.2293
20
174.889
0
VERTEX
8
PART
10
29.4548
20
174.381
0
VERTEX
8
PART
10
29.7954
20
173.716
0
VERTEX
8
PART
10
30.136
20
173.053
0
VERTEX
8
PART
10
29.694
20
173.733
0
VERTEX
8
PART
10
29.7568
20
173.611
0
VERTEX
8
PART
10
29.5561
20
172.974
0
VERTEX
8
PART
10
29.5779
20
172.927
0
VERTEX
8
PART
10
29.4468
20
172.074
0
VERTEX
8
PART
10
29.1242
20
171.125
0
VERTEX
8
PART
10
29.5976
20
168.176
0
VERTEX
8
PART
10
29.2003
20
166.303
0
VERTEX
8
PART
10
38.9021
20
165.621
0
VERTEX
8
PART
10
38.5795
20
161.032
0
VERTEX
8
PART
10
28.2366
20
161.759
0
VERTEX
8
PART
10
28.1536
20
161.368
0
VERTEX
8
PART
10
28.0311
20
158.992
0
VERTEX
8
PART
10
26.9946
20
154.906
0
VERTEX
8
PART
10
25.6764
20
149.077
0
VERTEX
8
PART
10
25.672
20
149.039
0
VERTEX
8
PART
10
36.7131
20
148.263
0
VERTEX
8
PART
10
36.3905
20
143.674
0
VERTEX
8
PART
10
25.1487
20
144.464
0
VERTEX
8
PART
10
24.884
20
142.15
0
VERTEX
8
PART
10
24.8162
20
141.789
0
VERTEX
8
PART
10
21.9385
20
132.365
0
VERTEX
8
PART
10
21.7584
20
131.802
0
VERTEX
8
PART
10
32.8691
20
131.021
0
VERTEX
8
PART
10
32.5465
20
126.432
0
VERTEX
8
PART
10
20.3102
20
127.292
0
VERTEX
8
PART
10
20.2671
20
127.086
0
VERTEX
8
PART
10
20.2627
20
126.633
0
VERTEX
8
PART
10
20.2227
20
126.335
0
VERTEX
8
PART
10
20.1797
20
126.087
0
VERTEX
8
PART
10
20.1259
20
125.917
0
VERTEX
8
PART
10
20.0908
20
125.778
0
VERTEX
8
PART
10
20.0614
20
125.572
0
VERTEX
8
PART
10
19.9652
20
125.348
0
VERTEX
8
PART
10
19.9265
20
125.101
0
VERTEX
8
PART
10
19.2876
20
123.695
0
VERTEX
8
PART
10
19.2034
20
123.451
0
VERTEX
8
PART
10
19.0906
20
123.097
0
VERTEX
8
PART
10
18.4038
20
120.733
0
VERTEX
8
PART
10
18.286
20
120.407
0
VERTEX
8
PART
10
17.9194
20
118.849
0
VERTEX
8
PART
10
17.8087
20
118.183
0
VERTEX
8
PART
10
17.8294
20
117.26
0
VERTEX
8
PART
10
17.6793
20
116.102
0
VERTEX
8
PART
10
17.2309
20
114.608
0
VERTEX
8
PART
10
28.4109
20
113.822
0
VERTEX
8
PART
10
28.0883
20
109.233
0
VERTEX
8
PART
10
13.4169
20
110.265
0
VERTEX
8
PART
10
13.1312
20
110.064
0
VERTEX
8
PART
10
12.4383
20
108.935
0
VERTEX
8
PART
10
12.3243
20
108.546
0
VERTEX
8
PART
10
11.6623
20
107.155
0
VERTEX
8
PART
10
11.0569
20
106.111
0
VERTEX
8
PART
10
10.9291
20
105.726
0
VERTEX
8
PART
10
10.3704
20
104.384
0
VERTEX
8
PART
10
10.0092
20
103.47
0
VERTEX
8
PART
10
9.83102
20
103.02
0
VERTEX
8
PART
10
9.6822
20
102.33
0
VERTEX
8
PART
10
9.07717
20
100.724
0
VERTEX
8
PART
10
8.67055
20
99.6936
0
VERTEX
8
PART
10
8.41603
20
99.3422
0
VERTEX
8
PART
10
8.18964
20
98.9411
0
VERTEX
8
PART
10
7.76964
20
98.1377
0
VERTEX
8
PART
10
7.60989
20
97.7724
0
VERTEX
8
PART
10
20.9946
20
96.8314
0
VERTEX
8
PART
10
20.672
20
92.2427
0
VERTEX
8
PART
10
5.11042
20
93.3368
0
VERTEX
8
PART
10
5.10693
20
93.3293
0
VERTEX
8
PART
10
4.87146
20
92.6119
0
VERTEX
8
PART
10
4.45175
20
92.0237
0
VERTEX
8
PART
10
4.10714
20
91.2274
0
VERTEX
8
PART
10
3.84059
20
90.8672
0
VERTEX
8
PART
10
3.59915
20
90.0942
0
VERTEX
8
PART
10
3.55533
20
90.031
0
VERTEX
8
PART
10
3.3213
20
89.6277
0
VERTEX
8
PART
10
3.12609
20
89.1525
0
VERTEX
8
PART
10
2.99495
20
88.9695
0
VERTEX
8
PART
10
2.83677
20
88.5214
0
VERTEX
8
PART
10
2.63592
20
87.6154
0
VERTEX
8
PART
10
2.47684
20
87.0837
0
VERTEX
8
PART
10
2.30965
20
86.5713
0
VERTEX
8
PART
10
2.19482
20
86.0209
0
VERTEX
8
PART
10
2.01883
20
85.5173
0
VERTEX
8
PART
10
2.01206
20
85.3415
0
VERTEX
8
PART
10
1.79875
20
84.734
0
VERTEX
8
PART
10
1.6282
20
84.2087
0
VERTEX
8
PART
10
1.49191
20
83.6594
0
VERTEX
8
PART
10
1.39719
20
83.0119
0
VERTEX
8
PART
10
1.24665
20
82.3982
0
VERTEX
8
PART
10
1.11636
20
81.9069
0
VERTEX
8
PART
10
1.0314
20
81.4731
0
VERTEX
8
PART
10
0.892329
20
80.7815
0
VERTEX
8
PART
10
0.818794
20
80.4042
0
VERTEX
8
PART
10
0.61613
20
79.6653
0
VERTEX
8
PART
10
0.52282
20
79.1236
0
VERTEX
8
PART
10
0.431265
20
78.6687
0
VERTEX
8
PART
10
0.395601
20
78.3004
0
VERTEX
8
PART
10
0.361866
20
77.517
0
VERTEX
8
PART
10
0.328679
20
77.064
0
VERTEX
8
PART
10
0.321944
20
76.7354
0
VERTEX
8
PART
10
0.245477
20
76.3587
0
VERTEX
8
PART
10
0.348917
20
75.5284
0
VERTEX
8
PART
10
0.288576
20
75.2077
0
VERTEX
8
PART
10
0.297679
20
74.895
0
VERTEX
8
PART
10
0.159081
20
74.5772
0
VERTEX
8
PART
10
0.160249
20
74.0681
0
VERTEX
8
PART
10
0.112942
20
73.9321
0
VERTEX
8
PART
10
0.116334
20
73.5958
0
VERTEX
8
PART
10
0.0148387
20
73.3116
0
VERTEX
8
PART
10
0.0986646
20
72.3714
0
VERTEX
8
PART
10
0
20
72.0824
0
VERTEX
8
PART
10
0.120388
20
71.6464
0
VERTEX
8
PART
10
0.108308
20
71.535
0
VERTEX
8
PART
10
0.245428
20
70.6766
0
VERTEX
8
PART
10
0.21704
20
70.4889
0
VERTEX
8
PART
10
0.398348
20
69.9908
0
VERTEX
8
PART
10
0.37579
20
69.8971
0
VERTEX
8
PART
10
0.908852
20
68.6934
0
VERTEX
8
PART
10
0.908183
20
68.658
0
VERTEX
8
PART
10
0.903762
20
68.5883
0
VERTEX
8
PART
10
0.904208
20
68.5251
0
VERTEX
8
PART
10
0.987245
20
67.8321
0
VERTEX
8
PART
10
0.987405
20
67.7978
0
VERTEX
8
PART
10
0.929232
20
66.5147
0
VERTEX
8
PART
10
0.927248
20
66.4811
0
VERTEX
8
PART
10
1.00458
20
65.1198
0
VERTEX
8
PART
10
1.00448
20
65.092
0
VERTEX
8
PART
10
1.10889
20
63.8013
0
VERTEX
8
PART
10
1.10766
20
63.7903
0
VERTEX
8
PART
10
1.21617
20
62.613
0
VERTEX
8
PART
10
1.23539
20
62.45
0
VERTEX
8
PART
10
1.23571
20
62.4481
0
VERTEX
8
PART
10
1.28017
20
60.0414
0
VERTEX
8
PART
10
1.28859
20
59.9781
0
VERTEX
8
PART
10
1.37353
20
57.254
0
VERTEX
8
PART
10
1.39706
20
57.0614
0
VERTEX
8
PART
10
1.5418
20
54.5572
0
VERTEX
8
PART
10
1.58978
20
54.1895
0
VERTEX
8
PART
10
1.97405
20
51.7374
0
VERTEX
8
PART
10
2.0815
20
51.0806
0
VERTEX
8
PART
10
2.49032
20
48.9019
0
VERTEX
8
PART
10
2.62843
20
47.938
0
VERTEX
8
PART
10
2.91474
20
46.0969
0
VERTEX
8
PART
10
3.05497
20
44.8628
0
VERTEX
8
PART
10
3.30482
20
43.1172
0
VERTEX
8
PART
10
3.439
20
41.5762
0
VERTEX
8
PART
10
3.66086
20
40.167
0
VERTEX
8
PART
10
3.7554
20
39.0131
0
VERTEX
8
PART
10
4.02005
20
37.1878
0
VERTEX
8
PART
10
4.14669
20
36.4564
0
VERTEX
8
PART
10
4.42322
20
34.4329
0
VERTEX
8
PART
10
4.54338
20
33.8451
0
VERTEX
8
PART
10
4.4165
20
31.5429
0
VERTEX
8
PART
10
4.38494
20
31.0992
0
VERTEX
8
PART
10
3.87513
20
22.2088
0
VERTEX
8
PART
10
12.7248
20
18.9301
0
VERTEX
8
PART
10
13.3962
20
18.768
0
VERTEX
8
PART
10
14.7059
20
22.6139
0
VERTEX
8
PART
10
9.61175
20
22.972
0
VERTEX
8
PART
10
9.93436
20
27.5607
0
VERTEX
8
PART
10
16.2395
20
27.1174
0
VERTEX
8
PART
10
17.2848
20
30.1871
0
VERTEX
8
PART
10
18.3035
20
32.97
0
VERTEX
8
PART
10
18.8045
20
34.2785
0
VERTEX
8
PART
10
19.171
20
35.2432
0
VERTEX
8
PART
10
20.256
20
38.2791
0
VERTEX
8
PART
10
20.4594
20
38.787
0
VERTEX
8
PART
10
20.6316
20
39.1724
0
VERTEX
8
PART
10
20.8044
20
39.6972
0
VERTEX
8
PART
10
12.2559
20
40.2982
0
VERTEX
8
PART
10
12.5785
20
44.8869
0
VERTEX
8
PART
10
22.1257
20
44.2156
0
VERTEX
8
PART
10
22.1684
20
44.3937
0
VERTEX
8
PART
10
22.2319
20
44.7087
0
VERTEX
8
PART
10
23.6399
20
50.1738
0
VERTEX
8
PART
10
24.4533
20
54.2123
0
VERTEX
8
PART
10
24.9565
20
56.9173
0
VERTEX
8
PART
10
13.2204
20
57.7425
0
VERTEX
8
PART
10
13.543
20
62.3311
0
VERTEX
8
PART
10
25.8682
20
61.4646
0
VERTEX
8
PART
10
25.8743
20
62.0123
0
VERTEX
8
PART
10
26.5434
20
64.4128
0
VERTEX
8
PART
10
26.5935
20
66.0239
0
VERTEX
8
PART
10
26.8438
20
67.6391
0
VERTEX
8
PART
10
27.7244
20
70.3548
0
VERTEX
8
PART
10
28.3348
20
72.5253
0
VERTEX
8
PART
10
28.6129
20
73.3911
0
VERTEX
8
PART
10
28.8164
20
73.9734
0
VERTEX
8
PART
10
28.8775
20
74.1537
0
VERTEX
8
PART
10
14.8848
20
75.1375
0
VERTEX
8
PART
10
15.2074
20
79.7262
0
VERTEX
8
PART
10
30.831
20
78.6278
0
VERTEX
8
PART
10
31.7603
20
80.8547
0
VERTEX
8
PART
10
31.8697
20
81.7849
0
VERTEX
8
PART
10
32.0999
20
82.5556
0
VERTEX
8
PART
10
32.4163
20
83.6097
0
VERTEX
8
PART
10
32.5844
20
84.5242
0
VERTEX
8
PART
10
32.8164
20
85.666
0
VERTEX
8
PART
10
33.2038
20
86.9622
0
VERTEX
8
PART
10
33.8675
20
89.0628
0
VERTEX
8
PART
10
35.4548
20
93.7109
0
VERTEX
8
PART
10
36.4296
20
96.7172
0
VERTEX
8
PART
10
38.35
20
102.951
0
VERTEX
8
PART
10
38.5375
20
103.554
0
VERTEX
8
PART
10
39.1159
20
105.12
0
VERTEX
8
PART
10
40.0407
20
107.664
0
VERTEX
8
PART
10
40.1914
20
108.083
0
VERTEX
8
PART
10
40.1957
20
108.37
0
VERTEX
8
PART
10
40.128
20
109.82
0
VERTEX
8
PART
10
40.1138
20
110.888
0
VERTEX
8
PART
10
40.4247
20
112.479
0
VERTEX
8
PART
10
40.4772
20
112.683
0
VERTEX
8
PART
10
41.3941
20
116.904
0
VERTEX
8
PART
10
41.5799
20
117.641
0
VERTEX
8
PART
10
42.1851
20
120.888
0
VERTEX
8
PART
10
42.3618
20
121.897
0
VERTEX
8
PART
10
42.6705
20
123.206
0
VERTEX
8
PART
10
43.2026
20
125.421
0
VERTEX
8
PART
10
43.9463
20
127.026
0
VERTEX
8
PART
10
44.5113
20
128.179
0
VERTEX
8
PART
10
44.7602
20
129.333
0
VERTEX
8
PART
10
45.267
20
131.142
0
VERTEX
8
PART
10
45.5927
20
132.615
0
VERTEX
8
PART
10
45.7799
20
133.778
0
VERTEX
8
PART
10
45.8817
20
135.397
0
VERTEX
8
PART
10
46.0899
20
136.404
0
VERTEX
8
PART
10
46.5406
20
138.659
0
VERTEX
8
PART
10
46.5604
20
139.783
0
VERTEX
8
PART
10
46.7365
20
140.63
0
VERTEX
8
PART
10
47.3335
20
142.754
0
VERTEX
8
PART
10
47.5625
20
143.591
0
VERTEX
8
PART
10
47.4952
20
144.536
0
VERTEX
8
PART
10
48.1004
20
146.52
0
VERTEX
8
PART
10
48.3475
20
147.601
0
VERTEX
8
PART
10
48.3424
20
148.801
0
VERTEX
8
PART
10
48.6405
20
151.905
0
VERTEX
8
PART
10
48.7812
20
155.401
0
VERTEX
8
PART
10
48.6896
20
156.195
0
VERTEX
8
PART
10
49.0012
20
158.86
0
VERTEX
8
PART
10
48.9065
20
159.233
0
VERTEX
8
PART
10
48.6955
20
164.219
0
VERTEX
8
PART
10
48.6227
20
164.943
0
VERTEX
8
PART
10
48.2518
20
167.115
0
VERTEX
8
PART
10
48.1819
20
167.254
0
VERTEX
8
PART
10
47.4886
20
170.769
0
VERTEX
8
PART
10
47.2241
20
171.79
0
VERTEX
8
PART
10
47.1161
20
172.314
0
VERTEX
8
PART
10
46.4345
20
175.005
0
VERTEX
8
PART
10
45.7606
20
177.666
0
VERTEX
8
PART
10
45.6813
20
178.008
0
VERTEX
8
PART
10
45.1734
20
180.107
0
VERTEX
8
PART
10
45.111
20
180.327
0
VERTEX
8
PART
10
44.4672
20
182.825
0
VERTEX
8
PART
10
44.391
20
183.091
0
VERTEX
8
PART
10
44.2933
20
183.432
0
VERTEX
8
PART
10
43.8027
20
185.63
0
VERTEX
8
PART
10
43.7082
20
185.978
0
VERTEX
8
PART
10
43.0761
20
188.827
0
VERTEX
8
PART
10
42.994
20
189.124
0
VERTEX
8
PART
10
42.5973
20
190.928
0
VERTEX
8
PART
10
41.8887
20
194.463
0
VERTEX
8
PART
10
41.8445
20
194.641
0
VERTEX
8
PART
10
41.1352
20
198.349
0
VERTEX
8
PART
10
41.1257
20
198.384
0
VERTEX
8
PART
10
41.1108
20
198.439
0
VERTEX
8
PART
10
40.1624
20
202.289
0
VERTEX
8
PART
10
40.1523
20
202.326
0
VERTEX
8
PART
10
39.6008
20
203.637
0
VERTEX
8
PART
10
39.3759
20
204.922
0
VERTEX
8
PART
10
39.266
20
205.383
0
VERTEX
8
PART
10
39.2152
20
205.661
0
VERTEX
8
PART
10
39.0876
20
205.913
0
VERTEX
8
PART
10
38.8731
20
206.429
0
VERTEX
8
PART
10
38.3135
20
207.48
0
VERTEX
8
PART
10
37.7573
20
208.375
0
VERTEX
8
PART
10
37.3864
20
209.102
0
VERTEX
8
PART
10
37.2623
20
209.288
0
VERTEX
8
PART
10
37.0432
20
209.486
0
VERTEX
8
PART
10
36.5292
20
210.107
0
VERTEX
8
PART
10
35.9096
20
210.614
0
VERTEX
8
PART
10
35.2957
20
211.473
0
VERTEX
8
PART
10
34.8764
20
212.027
0
VERTEX
8
PART
10
34.3433
20
212.695
0
VERTEX
8
PART
10
33.6737
20
213.617
0
VERTEX
8
PART
10
33.4404
20
213.93
0
VERTEX
8
PART
10
23.6794
20
214.616
0
VERTEX
8
PART
10
24.002
20
219.204
0
VERTEX
8
PART
10
29.6717
20
218.806
0
VERTEX
8
PART
10
29.6659
20
218.813
0
VERTEX
8
PART
10
28.5776
20
220.398
0
VERTEX
8
PART
10
27.4925
20
221.699
0
VERTEX
8
PART
10
27.3972
20
221.808
0
VERTEX
8
PART
10
27.285
20
221.939
0
VERTEX
8
PART
10
25.3541
20
224.238
0
VERTEX
8
PART
10
25.0738
20
224.566
0
VERTEX
8
PART
10
24.7191
20
224.976
0
VERTEX
8
PART
10
24.2585
20
225.497
0
VERTEX
8
PART
10
22.2628
20
227.633
0
VERTEX
8
PART
10
21.6096
20
228.356
0
VERTEX
8
PART
10
20.7675
20
229.217
0
VERTEX
8
PART
10
20.1842
20
229.84
0
VERTEX
8
PART
10
19.6018
20
230.257
0
VERTEX
8
PART
10
18.6092
20
231.136
0
VERTEX
8
PART
10
18.2094
20
231.448
0
VERTEX
8
PART
10
17.0542
20
232.314
0
VERTEX
8
PART
10
16.6456
20
232.6
0
VERTEX
8
PART
10
15.3803
20
233.478
0
VERTEX
8
PART
10
14.4065
20
234.01
0
VERTEX
8
PART
10
14.1412
20
234.126
0
VERTEX
8
PART
10
13.1216
20
234.686
0
VERTEX
8
PART
10
11.9954
20
235.296
0
VERTEX
8
PART
10
10.7516
20
235.963
0
VERTEX
8
PART
10
10.7423
20
235.968
0
VERTEX
8
PART
10
10.6812
20
236
0
SEQEND
0
TEXT
8
TEXT
10
25.066
20
54.3583
40
8
1
X9.1
50
175.978
0
POLYLINE
8
PART
10
0
20
0
66
1
70
1
62
1
0
VERTEX
8
PART
10
66.4425
20
249.885
0
VERTEX
8
PART
10
65.7845
20
249.86
0
VERTEX
8
PART
10
64.6441
20
249.996
0
VERTEX
8
PART
10
64.4661
20
250
0
VERTEX
8
PART
10
64.1968
20
249.974
0
VERTEX
8
PART
10
64.029
20
249.94
0
VERTEX
8
PART
10
63.3771
20
249.805
0
VERTEX
8
PART
10
63.3444
20
249.823
0
VERTEX
8
PART
10
63.2455
20
249.697
0
VERTEX
8
PART
10
61
20
246.731
0
VERTEX
8
PART
10
61.0085
20
246.717
0
VERTEX
8
PART
10
61.0411
20
246.602
0
VERTEX
8
PART
10
61.0735
20
246.557
0
VERTEX
8
PART
10
61.1043
20
246.512
0
VERTEX
8
PART
10
61.2344
20
246.282
0
VERTEX
8
PART
10
61.2699
20
246.189
0
VERTEX
8
PART
10
61.3965
20
245.901
0
VERTEX
8
PART
10
61.451
20
245.791
0
VERTEX
8
PART
10
61.3911
20
245.611
0
VERTEX
8
PART
10
61.3614
20
245.394
0
VERTEX
8
PART
10
61.5253
20
245.034
0
VERTEX
8
PART
10
61.52
20
244.887
0
VERTEX
8
PART
10
61.4988
20
244.697
0
VERTEX
8
PART
10
61.5166
20
244.632
0
VERTEX
8
PART
10
61.6926
20
244.225
0
VERTEX
8
PART
10
61.7408
20
244.106
0
VERTEX
8
PART
10
61.7745
20
244.014
0
VERTEX
8
PART
10
61.7286
20
243.727
0
VERTEX
8
PART
10
61.7109
20
243.54
0
VERTEX
8
PART
10
61.7414
20
243.474
0
VERTEX
8
PART
10
61.8179
20
243.344
0
VERTEX
8
PART
10
61.8438
20
243.231
0
VERTEX
8
PART
10
61.9209
20
243.069
0
VERTEX
8
PART
10
61.9899
20
242.826
0
VERTEX
8
PART
10
62.0305
20
242.765
0
VERTEX
8
PART
10
62.0693
20
242.624
0
VERTEX
8
PART
10
62.188
20
242.477
0
VERTEX
8
PART
10
62.3028
20
242.233
0
VERTEX
8
PART
10
62.3311
20
242.162
0
VERTEX
8
PART
10
62.3738
20
242.099
0
VERTEX
8
PART
10
62.499
20
241.914
0
VERTEX
8
PART
10
62.6507
20
241.708
0
VERTEX
8
PART
10
62.6936
20
241.65
0
VERTEX
8
PART
10
62.8584
20
241.447
0
VERTEX
8
PART
10
62.9031
20
241.392
0
VERTEX
8
PART
10
62.983
20
241.287
0
VERTEX
8
PART
10
63.1292
20
241.097
0
VERTEX
8
PART
10
63.3141
20
240.865
0
VERTEX
8
PART
10
63.3662
20
240.803
0
VERTEX
8
PART
10
63.4787
20
240.657
0
VERTEX
8
PART
10
63.6281
20
240.446
0
VERTEX
8
PART
10
63.8518
20
240.195
0
VERTEX
8
PART
10
63.9119
20
240.127
0
VERTEX
8
PART
10
64.0745
20
239.93
0
VERTEX
8
PART
10
64.2371
20
239.733
0
VERTEX
8
PART
10
64.5503
20
239.47
0
VERTEX
8
PART
10
64.6183
20
239.396
0
VERTEX
8
PART
10
64.8346
20
239.231
0
VERTEX
8
PART
10
64.9646
20
239.099
0
VERTEX
8
PART
10
64.9875
20
238.99
0
VERTEX
8
PART
10
65.1169
20
238.875
0
VERTEX
8
PART
10
65.2453
20
238.775
0
VERTEX
8
PART
10
65.2517
20
238.773
0
VERTEX
8
PART
10
65.2548
20
238.77
0
VERTEX
8
PART
10
65.4668
20
238.634
0
VERTEX
8
PART
10
65.829
20
238.32
0
VERTEX
8
PART
10
65.9175
20
238.246
0
VERTEX
8
PART
10
66.0357
20
238.142
0
VERTEX
8
PART
10
66.2952
20
237.903
0
VERTEX
8
PART
10
66.3807
20
237.834
0
VERTEX
8
PART
10
66.9393
20
237.394
0
VERTEX
8
PART
10
67.6807
20
236.83
0
VERTEX
8
PART
10
67.9937
20
236.586
0
VERTEX
8
PART
10
68.7205
20
236.024
0
VERTEX
8
PART
10
69.0284
20
235.78
0
VERTEX
8
PART
10
69.6979
20
235.186
0
VERTEX
8
PART
10
69.9921
20
234.938
0
VERTEX
8
PART
10
70.6836
20
234.388
0
VERTEX
8
PART
10
70.9901
20
234.177
0
VERTEX
8
PART
10
71.6949
20
233.687
0
VERTEX
8
PART
10
71.9962
20
233.478
0
VERTEX
8
PART
10
72.6891
20
232.995
0
VERTEX
8
PART
10
72.9799
20
232.773
0
VERTEX
8
PART
10
73.6618
20
232.26
0
VERTEX
8
PART
10
73.9515
20
232.042
0
VERTEX
8
PART
10
74.6393
20
231.543
0
VERTEX
8
PART
10
74.9241
20
231.333
0
VERTEX
8
PART
10
75.6018
20
230.823
0
VERTEX
8
PART
10
75.8778
20
230.613
0
VERTEX
8
PART
10
76.5562
20
230.107
0
VERTEX
8
PART
10
76.8257
20
229.902
0
VERTEX
8
PART
10
77.5575
20
229.335
0
VERTEX
8
PART
10
77.9544
20
229.002
0
VERTEX
8
PART
10
78.4658
20
228.591
0
VERTEX
8
PART
10
78.9929
20
228.117
0
VERTEX
8
PART
10
79.2712
20
227.85
0
VERTEX
8
PART
10
79.7759
20
227.305
0
VERTEX
8
PART
10
80.029
20
226.976
0
VERTEX
8
PART
10
80.4574
20
226.346
0
VERTEX
8
PART
10
80.6122
20
226.081
0
VERTEX
8
PART
10
81.1936
20
225.068
0
VERTEX
8
PART
10
81.3841
20
224.706
0
VERTEX
8
PART
10
81.4168
20
224.646
0
VERTEX
8
PART
10
90.9409
20
223.69
0
VERTEX
8
PART
10
90.4816
20
219.113
0
VERTEX
8
PART
10
83.8371
20
219.78
0
VERTEX
8
PART
10
84.2944
20
218.853
0
VERTEX
8
PART
10
84.4338
20
218.579
0
VERTEX
8
PART
10
85.2985
20
216.985
0
VERTEX
8
PART
10
85.5006
20
216.619
0
VERTEX
8
PART
10
85.6694
20
216.255
0
VERTEX
8
PART
10
86.5521
20
214.414
0
VERTEX
8
PART
10
86.6743
20
214.148
0
VERTEX
8
PART
10
86.7566
20
213.966
0
VERTEX
8
PART
10
87.7089
20
212.055
0
VERTEX
8
PART
10
87.8374
20
211.797
0
VERTEX
8
PART
10
87.9845
20
211.525
0
VERTEX
8
PART
10
89.019
20
209.625
0
VERTEX
8
PART
10
89.1314
20
209.417
0
VERTEX
8
PART
10
89.2454
20
209.195
0
VERTEX
8
PART
10
90.3643
20
207.435
0
VERTEX
8
PART
10
90.4597
20
207.245
0
VERTEX
8
PART
10
90.5583
20
207.031
0
VERTEX
8
PART
10
90.833
20
206.475
0
VERTEX
8
PART
10
90.8865
20
206.339
0
VERTEX
8
PART
10
90.986
20
206.129
0
VERTEX
8
PART
10
99.9507
20
205.229
0
VERTEX
8
PART
10
99.4914
20
200.652
0
VERTEX
8
PART
10
92.3527
20
201.368
0
VERTEX
8
PART
10
92.3598
20
201.311
0
VERTEX
8
PART
10
92.4586
20
200.726
0
VERTEX
8
PART
10
92.5983
20
199.764
0
VERTEX
8
PART
10
92.6272
20
199.477
0
VERTEX
8
PART
10
92.6847
20
199.126
0
VERTEX
8
PART
10
92.7152
20
198.797
0
VERTEX
8
PART
10
93.0578
20
196.695
0
VERTEX
8
PART
10
93.0795
20
196.449
0
VERTEX
8
PART
10
93.0973
20
196.212
0
VERTEX
8
PART
10
93.424
20
194.043
0
VERTEX
8
PART
10
93.4463
20
193.782
0
VERTEX
8
PART
10
93.4608
20
193.584
0
VERTEX
8
PART
10
93.8091
20
191.39
0
VERTEX
8
PART
10
93.8243
20
191.208
0
VERTEX
8
PART
10
94.1334
20
189.049
0
VERTEX
8
PART
10
94.1378
20
188.917
0
VERTEX
8
PART
10
94.1421
20
188.812
0
VERTEX
8
PART
10
94.1673
20
188.682
0
VERTEX
8
PART
10
94.2207
20
188.247
0
VERTEX
8
PART
10
101.932
20
187.474
0
VERTEX
8
PART
10
101.473
20
182.897
0
VERTEX
8
PART
10
95.1259
20
183.533
0
VERTEX
8
PART
10
95.4272
20
182.686
0
VERTEX
8
PART
10
95.8922
20
181.405
0
VERTEX
8
PART
10
95.9776
20
181.001
0
VERTEX
8
PART
10
96.0408
20
180.83
0
VERTEX
8
PART
10
96.4905
20
179.728
0
VERTEX
8
PART
10
96.5347
20
179.635
0
VERTEX
8
PART
10
97.2122
20
178.213
0
VERTEX
8
PART
10
97.1327
20
178.343
0
VERTEX
8
PART
10
97.0813
20
178.233
0
VERTEX
8
PART
10
97.2332
20
177.828
0
VERTEX
8
PART
10
97.1892
20
177.632
0
VERTEX
8
PART
10
97.2341
20
177.25
0
VERTEX
8
PART
10
97.3609
20
176.275
0
VERTEX
8
PART
10
95.9587
20
170.516
0
VERTEX
8
PART
10
104.105
20
169.699
0
VERTEX
8
PART
10
103.646
20
165.122
0
VERTEX
8
PART
10
94.6186
20
166.028
0
VERTEX
8
PART
10
94.1753
20
164.819
0
VERTEX
8
PART
10
94.047
20
163.732
0
VERTEX
8
PART
10
91.0872
20
153.448
0
VERTEX
8
PART
10
101.919
20
152.362
0
VERTEX
8
PART
10
101.46
20
147.784
0
VERTEX
8
PART
10
89.9832
20
148.936
0
VERTEX
8
PART
10
89.0613
20
144.184
0
VERTEX
8
PART
10
88.4665
20
142.548
0
VERTEX
8
PART
10
88.0237
20
141.383
0
VERTEX
8
PART
10
86.8823
20
138.41
0
VERTEX
8
PART
10
86.2479
20
136.693
0
VERTEX
8
PART
10
86.1048
20
136.392
0
VERTEX
8
PART
10
97.4994
20
135.248
0
VERTEX
8
PART
10
97.0401
20
130.671
0
VERTEX
8
PART
10
84.4947
20
131.93
0
VERTEX
8
PART
10
84.3164
20
131.232
0
VERTEX
8
PART
10
83.7364
20
129.859
0
VERTEX
8
PART
10
83.5107
20
129.202
0
VERTEX
8
PART
10
83.1714
20
127.881
0
VERTEX
8
PART
10
82.4983
20
125.782
0
VERTEX
8
PART
10
82.391
20
125.401
0
VERTEX
8
PART
10
81.8096
20
123.619
0
VERTEX
8
PART
10
81.492
20
122.642
0
VERTEX
8
PART
10
80.9632
20
121.251
0
VERTEX
8
PART
10
80.917
20
121.164
0
VERTEX
8
PART
10
80.2621
20
119.421
0
VERTEX
8
PART
10
92.601
20
118.183
0
VERTEX
8
PART
10
92.1417
20
113.606
0
VERTEX
8
PART
10
78.4594
20
114.979
0
VERTEX
8
PART
10
77.9976
20
114.228
0
VERTEX
8
PART
10
77.9562
20
114.162
0
VERTEX
8
PART
10
77.92
20
114.083
0
VERTEX
8
PART
10
77.1995
20
112.512
0
VERTEX
8
PART
10
77.169
20
112.463
0
VERTEX
8
PART
10
77.1214
20
112.382
0
VERTEX
8
PART
10
76.4543
20
111.19
0
VERTEX
8
PART
10
76.4327
20
111.151
0
VERTEX
8
PART
10
76.4136
20
111.12
0
VERTEX
8
PART
10
75.7984
20
109.566
0
VERTEX
8
PART
10
75.3822
20
108.474
0
VERTEX
8
PART
10
75.3629
20
108.44
0
VERTEX
8
PART
10
75.3431
20
108.409
0
VERTEX
8
PART
10
74.6337
20
106.454
0
VERTEX
8
PART
10
74.6222
20
106.437
0
VERTEX
8
PART
10
74.6112
20
106.422
0
VERTEX
8
PART
10
74.1306
20
105.137
0
VERTEX
8
PART
10
74.1287
20
105.134
0
VERTEX
8
PART
10
73.754
20
104.392
0
VERTEX
8
PART
10
73.5695
20
104.063
0
VERTEX
8
PART
10
72.989
20
102.836
0
VERTEX
8
PART
10
72.985
20
102.831
0
VERTEX
8
PART
10
72.9773
20
102.825
0
VERTEX
8
PART
10
72.8461
20
102.609
0
VERTEX
8
PART
10
86.6316
20
101.226
0
VERTEX
8
PART
10
86.1723
20
96.6485
0
VERTEX
8
PART
10
70.7802
20
98.193
0
VERTEX
8
PART
10
70.2571
20
97.0767
0
VERTEX
8
PART
10
70.2319
20
97.0448
0
VERTEX
8
PART
10
69.81
20
95.8232
0
VERTEX
8
PART
10
69.7371
20
95.7246
0
VERTEX
8
PART
10
69.7116
20
95.6835
0
VERTEX
8
PART
10
69.3708
20
94.9194
0
VERTEX
8
PART
10
69.3573
20
94.9018
0
VERTEX
8
PART
10
69.3405
20
94.8582
0
VERTEX
8
PART
10
68.9542
20
93.3325
0
VERTEX
8
PART
10
68.9363
20
93.2787
0
VERTEX
8
PART
10
68.62
20
92.3991
0
VERTEX
8
PART
10
68.3924
20
91.4506
0
VERTEX
8
PART
10
68.3723
20
91.3983
0
VERTEX
8
PART
10
68.3508
20
91.0839
0
VERTEX
8
PART
10
68.3267
20
91.0213
0
VERTEX
8
PART
10
67.9783
20
90.048
0
VERTEX
8
PART
10
67.963
20
89.9934
0
VERTEX
8
PART
10
67.7436
20
88.753
0
VERTEX
8
PART
10
67.7262
20
88.6904
0
VERTEX
8
PART
10
67.4392
20
87.725
0
VERTEX
8
PART
10
67.2452
20
86.8707
0
VERTEX
8
PART
10
67.2276
20
86.7948
0
VERTEX
8
PART
10
67.0521
20
86.0182
0
VERTEX
8
PART
10
67.0281
20
85.9401
0
VERTEX
8
PART
10
66.7914
20
84.7745
0
VERTEX
8
PART
10
66.7799
20
84.725
0
VERTEX
8
PART
10
66.6776
20
83.92
0
VERTEX
8
PART
10
66.6717
20
83.839
0
VERTEX
8
PART
10
66.5654
20
82.8099
0
VERTEX
8
PART
10
66.5637
20
82.7761
0
VERTEX
8
PART
10
66.3607
20
81.9096
0
VERTEX
8
PART
10
66.3679
20
81.8342
0
VERTEX
8
PART
10
66.1954
20
81.0474
0
VERTEX
8
PART
10
66.1954
20
81.0257
0
VERTEX
8
PART
10
65.8109
20
80.2113
0
VERTEX
8
PART
10
65.8097
20
80.1688
0
VERTEX
8
PART
10
65.6646
20
79.7886
0
VERTEX
8
PART
10
65.6641
20
79.7625
0
VERTEX
8
PART
10
65.334
20
78.9183
0
VERTEX
8
PART
10
65.3387
20
78.8388
0
VERTEX
8
PART
10
64.9515
20
77.8066
0
VERTEX
8
PART
10
64.9631
20
77.759
0
VERTEX
8
PART
10
64.9049
20
77.3396
0
VERTEX
8
PART
10
64.9166
20
77.2491
0
VERTEX
8
PART
10
64.752
20
76.3442
0
VERTEX
8
PART
10
64.769
20
76.2927
0
VERTEX
8
PART
10
64.6243
20
75.7616
0
VERTEX
8
PART
10
64.6805
20
75.6237
0
VERTEX
8
PART
10
64.6614
20
75.2315
0
VERTEX
8
PART
10
64.5894
20
74.4606
0
VERTEX
8
PART
10
64.5734
20
73.7603
0
VERTEX
8
PART
10
64.5765
20
73.726
0
VERTEX
8
PART
10
64.5585
20
73.0117
0
VERTEX
8
PART
10
64.5543
20
72.956
0
VERTEX
8
PART
10
64.4816
20
72.1398
0
VERTEX
8
PART
10
64.4826
20
72.102
0
VERTEX
8
PART
10
64.4492
20
71.1
0
VERTEX
8
PART
10
64.4508
20
71.0695
0
VERTEX
8
PART
10
64.3068
20
70.0555
0
VERTEX
8
PART
10
64.251
20
69.5237
0
VERTEX
8
PART
10
64.2503
20
69.5169
0
VERTEX
8
PART
10
64.3173
20
68.3513
0
VERTEX
8
PART
10
78.8534
20
66.8927
0
VERTEX
8
PART
10
78.3941
20
62.3156
0
VERTEX
8
PART
10
63.9513
20
63.7649
0
VERTEX
8
PART
10
63.9006
20
63.2465
0
VERTEX
8
PART
10
63.8725
20
62.9764
0
VERTEX
8
PART
10
63.6515
20
60.6814
0
VERTEX
8
PART
10
63.5972
20
60.1124
0
VERTEX
8
PART
10
63.3997
20
57.9651
0
VERTEX
8
PART
10
63.3427
20
57.0295
0
VERTEX
8
PART
10
63.2291
20
55.2374
0
VERTEX
8
PART
10
63.1481
20
53.9935
0
VERTEX
8
PART
10
63.0752
20
52.646
0
VERTEX
8
PART
10
62.9122
20
50.9356
0
VERTEX
8
PART
10
76.1312
20
49.6091
0
VERTEX
8
PART
10
75.6719
20
45.0321
0
VERTEX
8
PART
10
62.3652
20
46.3674
0
VERTEX
8
PART
10
62.0814
20
44.329
0
VERTEX
8
PART
10
62.0185
20
43.8564
0
VERTEX
8
PART
10
61.8676
20
41.9431
0
VERTEX
8
PART
10
61.8839
20
41.8283
0
VERTEX
8
PART
10
61.8851
20
41.8171
0
VERTEX
8
PART
10
62.2546
20
39.6879
0
VERTEX
8
PART
10
62.2342
20
39.4478
0
VERTEX
8
PART
10
62.0309
20
37.4379
0
VERTEX
8
PART
10
61.8424
20
35.2792
0
VERTEX
8
PART
10
61.6873
20
33.5018
0
VERTEX
8
PART
10
73.3485
20
32.3317
0
VERTEX
8
PART
10
72.8893
20
27.7547
0
VERTEX
8
PART
10
61.2876
20
28.9188
0
VERTEX
8
PART
10
61
20
25.6215
0
VERTEX
8
PART
10
61.337
20
24.9494
0
VERTEX
8
PART
10
61.5
20
24.9069
0
VERTEX
8
PART
10
62.1731
20
24.8608
0
VERTEX
8
PART
10
64.9404
20
24.7927
0
VERTEX
8
PART
10
70.5446
20
23.9278
0
VERTEX
8
PART
10
76.2132
20
23.7506
0
VERTEX
8
PART
10
76.7865
20
23.6369
0
VERTEX
8
PART
10
77.9672
20
23.3205
0
VERTEX
8
PART
10
79.2901
20
23.1548
0
VERTEX
8
PART
10
80.4063
20
23.0726
0
VERTEX
8
PART
10
81.9651
20
22.9154
0
VERTEX
8
PART
10
83.2004
20
22.8044
0
VERTEX
8
PART
10
83.3305
20
23.2512
0
VERTEX
8
PART
10
85.1618
20
30.5061
0
VERTEX
8
PART
10
86.8665
20
37.3466
0
VERTEX
8
PART
10
87.5241
20
39.6288
0
VERTEX
8
PART
10
88.3586
20
43.0703
0
VERTEX
8
PART
10
88.7313
20
44.4005
0
VERTEX
8
PART
10
89.7601
20
48.4999
0
VERTEX
8
PART
10
90.0897
20
49.713
0
VERTEX
8
PART
10
91.3011
20
54.9188
0
VERTEX
8
PART
10
91.4325
20
55.3726
0
VERTEX
8
PART
10
91.5107
20
55.7085
0
VERTEX
8
PART
10
92.2563
20
59.1432
0
VERTEX
8
PART
10
93.4299
20
65.0424
0
VERTEX
8
PART
10
93.4605
20
65.2006
0
VERTEX
8
PART
10
93.5683
20
65.7154
0
VERTEX
8
PART
10
93.6775
20
68.5471
0
VERTEX
8
PART
10
93.8287
20
69.3817
0
VERTEX
8
PART
10
94.0412
20
72.0195
0
VERTEX
8
PART
10
94.2416
20
72.8676
0
VERTEX
8
PART
10
94.7118
20
75.0015
0
VERTEX
8
PART
10
94.9982
20
75.8735
0
VERTEX
8
PART
10
95.3108
20
76.5535
0
VERTEX
8
PART
10
90.8508
20
78.6223
0
VERTEX
8
PART
10
75.3278
20
80.18
0
VERTEX
8
PART
10
75.7871
20
84.757
0
VERTEX
8
PART
10
82.0156
20
84.132
0
VERTEX
8
PART
10
82.1088
20
84.4309
0
VERTEX
8
PART
10
82.502
20
86.0714
0
VERTEX
8
PART
10
83.486
20
89.6142
0
VERTEX
8
PART
10
83.856
20
90.5591
0
VERTEX
8
PART
10
84.361
20
91.8254
0
VERTEX
8
PART
10
84.8992
20
93.0509
0
VERTEX
8
PART
10
85.0616
20
93.2374
0
VERTEX
8
PART
10
100.046
20
93.9205
0
VERTEX
8
PART
10
100.108
20
94.2097
0
VERTEX
8
PART
10
100.131
20
94.3077
0
VERTEX
8
PART
10
100.955
20
97.0347
0
VERTEX
8
PART
10
101.489
20
99.3159
0
VERTEX
8
PART
10
101.866
20
101.102
0
VERTEX
8
PART
10
102.483
20
103.216
0
VERTEX
8
PART
10
103.053
20
105.548
0
VERTEX
8
PART
10
103.757
20
108.858
0
VERTEX
8
PART
10
104.116
20
110.198
0
VERTEX
8
PART
10
105.5
20
115.264
0
VERTEX
8
PART
10
105.612
20
115.726
0
VERTEX
8
PART
10
106.276
20
119.264
0
VERTEX
8
PART
10
106.293
20
119.339
0
VERTEX
8
PART
10
106.541
20
120.201
0
VERTEX
8
PART
10
107.071
20
121.654
0
VERTEX
8
PART
10
107.363
20
122.474
0
VERTEX
8
PART
10
108.321
20
125.177
0
VERTEX
8
PART
10
108.481
20
125.63
0
VERTEX
8
PART
10
108.597
20
126.081
0
VERTEX
8
PART
10
108.937
20
128.776
0
VERTEX
8
PART
10
109.229
20
130.428
0
VERTEX
8
PART
10
109.564
20
132.254
0
VERTEX
8
PART
10
109.718
20
133.093
0
VERTEX
8
PART
10
109.976
20
134.482
0
VERTEX
8
PART
10
110.472
20
136.724
0
VERTEX
8
PART
10
110.497
20
136.833
0
VERTEX
8
PART
10
110.507
20
136.881
0
VERTEX
8
PART
10
111.413
20
140.834
0
VERTEX
8
PART
10
111.456
20
141.251
0
VERTEX
8
PART
10
112.196
20
145.11
0
VERTEX
8
PART
10
112.312
20
145.935
0
VERTEX
8
PART
10
112.352
20
146.451
0
VERTEX
8
PART
10
113.044
20
149.307
0
VERTEX
8
PART
10
113.112
20
149.797
0
VERTEX
8
PART
10
113.677
20
152.013
0
VERTEX
8
PART
10
113.728
20
152.536
0
VERTEX
8
PART
10
113.761
20
152.993
0
VERTEX
8
PART
10
114.121
20
155.207
0
VERTEX
8
PART
10
114.148
20
156.272
0
VERTEX
8
PART
10
114.084
20
157.358
0
VERTEX
8
PART
10
113.934
20
160.545
0
VERTEX
8
PART
10
113.693
20
161.567
0
VERTEX
8
PART
10
113.373
20
162.561
0
VERTEX
8
PART
10
113.298
20
164.424
0
VERTEX
8
PART
10
113.138
20
165.626
0
VERTEX
8
PART
10
111.18
20
168.105
0
VERTEX
8
PART
10
111.107
20
168.444
0
VERTEX
8
PART
10
110.459
20
169.361
0
VERTEX
8
PART
10
109.81
20
170.459
0
VERTEX
8
PART
10
110.449
20
174.839
0
VERTEX
8
PART
10
110.416
20
175.816
0
VERTEX
8
PART
10
110.402
20
175.953
0
VERTEX
8
PART
10
110.393
20
176.026
0
VERTEX
8
PART
10
110.003
20
178.043
0
VERTEX
8
PART
10
109.518
20
180.402
0
VERTEX
8
PART
10
109.506
20
180.509
0
VERTEX
8
PART
10
109.089
20
182.843
0
VERTEX
8
PART
10
109.075
20
182.999
0
VERTEX
8
PART
10
108.604
20
185.944
0
VERTEX
8
PART
10
108.576
20
186.31
0
VERTEX
8
PART
10
108.298
20
188.644
0
VERTEX
8
PART
10
108.263
20
189.168
0
VERTEX
8
PART
10
108.105
20
192.109
0
VERTEX
8
PART
10
107.982
20
193.833
0
VERTEX
8
PART
10
108.003
20
195.196
0
VERTEX
8
PART
10
107.955
20
196.975
0
VERTEX
8
PART
10
107.923
20
198.212
0
VERTEX
8
PART
10
107.682
20
201.657
0
VERTEX
8
PART
10
107.624
20
201.945
0
VERTEX
8
PART
10
107.62
20
201.964
0
VERTEX
8
PART
10
107.616
20
201.984
0
VERTEX
8
PART
10
106.691
20
206.03
0
VERTEX
8
PART
10
106.662
20
206.154
0
VERTEX
8
PART
10
106.661
20
206.36
0
VERTEX
8
PART
10
106.66
20
206.525
0
VERTEX
8
PART
10
106.653
20
208.086
0
VERTEX
8
PART
10
106.652
20
208.129
0
VERTEX
8
PART
10
106.639
20
208.172
0
VERTEX
8
PART
10
106.108
20
209.63
0
VERTEX
8
PART
10
106.035
20
209.836
0
VERTEX
8
PART
10
105.954
20
210.031
0
VERTEX
8
PART
10
105.868
20
210.232
0
VERTEX
8
PART
10
105.766
20
210.463
0
VERTEX
8
PART
10
105.221
20
211.617
0
VERTEX
8
PART
10
105.194
20
211.671
0
VERTEX
8
PART
10
105.139
20
211.732
0
VERTEX
8
PART
10
104.042
20
212.891
0
VERTEX
8
PART
10
103.856
20
213.071
0
VERTEX
8
PART
10
103.728
20
213.189
0
VERTEX
8
PART
10
103.584
20
213.423
0
VERTEX
8
PART
10
102.862
20
214.593
0
VERTEX
8
PART
10
102.215
20
215.585
0
VERTEX
8
PART
10
101.97
20
215.96
0
VERTEX
8
PART
10
101.162
20
217.163
0
VERTEX
8
PART
10
100.727
20
217.807
0
VERTEX
8
PART
10
100.04
20
218.818
0
VERTEX
8
PART
10
98.6244
20
220.796
0
VERTEX
8
PART
10
98.0261
20
221.626
0
VERTEX
8
PART
10
96.8092
20
223.44
0
VERTEX
8
PART
10
96.1526
20
224.507
0
VERTEX
8
PART
10
95.0463
20
226.145
0
VERTEX
8
PART
10
94.5511
20
226.964
0
VERTEX
8
PART
10
93.6974
20
228.567
0
VERTEX
8
PART
10
92.8939
20
229.808
0
VERTEX
8
PART
10
91.178
20
232.372
0
VERTEX
8
PART
10
90.3108
20
233.595
0
VERTEX
8
PART
10
90.1911
20
233.821
0
VERTEX
8
PART
10
89.6438
20
234.636
0
VERTEX
8
PART
10
88.6319
20
235.98
0
VERTEX
8
PART
10
88.3009
20
236.352
0
VERTEX
8
PART
10
88.0371
20
236.486
0
VERTEX
8
PART
10
87.2798
20
236.855
0
VERTEX
8
PART
10
86.9226
20
237.027
0
VERTEX
8
PART
10
72.2691
20
238.497
0
VERTEX
8
PART
10
72.7284
20
243.074
0
VERTEX
8
PART
10
76.5165
20
242.694
0
VERTEX
8
PART
10
73.2601
20
245.069
0
VERTEX
8
PART
10
66.5644
20
249.88
0
SEQEND
0
TEXT
8
TEXT
10
81.4044
20
75.5235
40
8
1
X10.1.1
50
264.27
0
POLYLINE
8
PART
10
0
20
0
66
1
70
1
62
1
0
VERTEX
8
PART
10
12.9649
20
222
0
VERTEX
8
PART
10
11.2601
20
221.607
0
VERTEX
8
PART
10
8.06071
20
221.621
0
VERTEX
8
PART
10
5.94102
20
221.597
0
VERTEX
8
PART
10
5.40835
20
221.79
0
VERTEX
8
PART
10
3.62661
20
221.973
0
VERTEX
8
PART
10
3.41762
20
222
0
VERTEX
8
PART
10
5.1327
20
213.373
0
VERTEX
8
PART
10
0.620992
20
212.476
0
VERTEX
8
PART
10
0.676657
20
212.196
0
VERTEX
8
PART
10
0
20
207.326
0
VERTEX
8
PART
10
1.9338
20
207.068
0
VERTEX
8
PART
10
2.97063
20
206.989
0
VERTEX
8
PART
10
4.12063
20
206.708
0
VERTEX
8
PART
10
5.49252
20
206.681
0
VERTEX
8
PART
10
6.09979
20
206.429
0
VERTEX
8
PART
10
6.89836
20
206.325
0
VERTEX
8
PART
10
9.10018
20
206.657
0
VERTEX
8
PART
10
11.0116
20
206.611
0
VERTEX
8
PART
10
11.4051
20
206.601
0
VERTEX
8
PART
10
13.8556
20
206.644
0
VERTEX
8
PART
10
14.4482
20
206.713
0
VERTEX
8
PART
10
15.484
20
206.824
0
VERTEX
8
PART
10
16.0367
20
207.092
0
VERTEX
8
PART
10
17.9928
20
207.868
0
SEQEND
0
TEXT
8
TEXT
10
13.3476
20
207.411
40
2
1
X10.1.2
50
101.244
0
POLYLINE
8
PART
10
0
20
0
66
1
70
1
62
1
0
VERTEX
8
PART
10
15.3609
20
139.905
0
VERTEX
8
PART
10
15.4943
20
140.278
0
VERTEX
8
PART
10
15.8167
20
140.916
0
VERTEX
8
PART
10
16.0046
20
141.427
0
VERTEX
8
PART
10
16.0976
20
141.763
0
VERTEX
8
PART
10
16.1775
20
141.998
0
VERTEX
8
PART
10
16.3296
20
142.388
0
VERTEX
8
PART
10
16.4384
20
142.663
0
VERTEX
8
PART
10
16.6977
20
143.318
0
VERTEX
8
PART
10
16.9704
20
143.907
0
VERTEX
8
PART
10
17.0081
20
144.086
0
VERTEX
8
PART
10
17.1018
20
144.433
0
VERTEX
8
PART
10
17.2668
20
144.822
0
VERTEX
8
PART
10
17.2967
20
144.922
0
VERTEX
8
PART
10
17.4304
20
145.434
0
VERTEX
8
PART
10
17.4206
20
145.565
0
VERTEX
8
PART
10
17.4286
20
145.587
0
VERTEX
8
PART
10
16.994
20
147.442
0
VERTEX
8
PART
10
17.0789
20
148.895
0
VERTEX
8
PART
10
17.1402
20
149.335
0
VERTEX
8
PART
10
17.2428
20
149.812
0
VERTEX
8
PART
10
17.3012
20
150.066
0
VERTEX
8
PART
10
17.3557
20
150.4
0
VERTEX
8
PART
10
17.3862
20
150.418
0
VERTEX
8
PART
10
17.4772
20
150.797
0
VERTEX
8
PART
10
17.6126
20
151.909
0
VERTEX
8
PART
10
17.6919
20
152.406
0
VERTEX
8
PART
10
17.7412
20
152.7
0
VERTEX
8
PART
10
17.8825
20
153.379
0
VERTEX
8
PART
10
17.9873
20
154.106
0
VERTEX
8
PART
10
17.7672
20
154.226
0
VERTEX
8
PART
10
17.8679
20
155.03
0
VERTEX
8
PART
10
18.0375
20
155.737
0
VERTEX
8
PART
10
18.0748
20
156.621
0
VERTEX
8
PART
10
18.1783
20
157.404
0
VERTEX
8
PART
10
18.2923
20
158.108
0
VERTEX
8
PART
10
18.3357
20
158.733
0
VERTEX
8
PART
10
18.3996
20
159.554
0
VERTEX
8
PART
10
18.4667
20
160.121
0
VERTEX
8
PART
10
18.5233
20
160.974
0
VERTEX
8
PART
10
18.5417
20
161.551
0
VERTEX
8
PART
10
18.5337
20
162.23
0
VERTEX
8
PART
10
18.5198
20
162.974
0
VERTEX
8
PART
10
18.6216
20
163.596
0
VERTEX
8
PART
10
18.7247
20
164.142
0
VERTEX
8
PART
10
18.5922
20
164.753
0
VERTEX
8
PART
10
18.7599
20
165.367
0
VERTEX
8
PART
10
18.8402
20
165.643
0
VERTEX
8
PART
10
18.6653
20
166.215
0
VERTEX
8
PART
10
18.8135
20
166.846
0
VERTEX
8
PART
10
18.4433
20
167.451
0
VERTEX
8
PART
10
18.6055
20
168.243
0
VERTEX
8
PART
10
18.6127
20
168.555
0
VERTEX
8
PART
10
18.1915
20
168.943
0
VERTEX
8
PART
10
18.2304
20
169.626
0
VERTEX
8
PART
10
18.289
20
170.043
0
VERTEX
8
PART
10
17.7161
20
170.397
0
VERTEX
8
PART
10
17.6844
20
170.694
0
VERTEX
8
PART
10
17.6439
20
171.253
0
VERTEX
8
PART
10
17.5646
20
171.707
0
VERTEX
8
PART
10
17.3974
20
172.146
0
VERTEX
8
PART
10
17.3428
20
172.632
0
VERTEX
8
PART
10
17.3859
20
173.034
0
VERTEX
8
PART
10
17.3515
20
173.585
0
VERTEX
8
PART
10
17.2859
20
174.259
0
VERTEX
8
PART
10
17.3042
20
174.618
0
VERTEX
8
PART
10
17.2842
20
175.645
0
VERTEX
8
PART
10
17.2706
20
176.196
0
VERTEX
8
PART
10
17.112
20
177.061
0
VERTEX
8
PART
10
17.0838
20
177.584
0
VERTEX
8
PART
10
16.9942
20
179.039
0
VERTEX
8
PART
10
17.0272
20
179.617
0
VERTEX
8
PART
10
17.0863
20
181.609
0
VERTEX
8
PART
10
17.1569
20
182.42
0
VERTEX
8
PART
10
17.1952
20
184.349
0
VERTEX
8
PART
10
17.2368
20
184.878
0
VERTEX
8
PART
10
17.2873
20
187.043
0
VERTEX
8
PART
10
17.2914
20
189.381
0
VERTEX
8
PART
10
17.3305
20
189.924
0
VERTEX
8
PART
10
17.3507
20
190.453
0
VERTEX
8
PART
10
17.3565
20
190.893
0
VERTEX
8
PART
10
17.3427
20
193.039
0
VERTEX
8
PART
10
17.339
20
193.413
0
VERTEX
8
PART
10
17.3721
20
196.075
0
VERTEX
8
PART
10
17.3688
20
196.294
0
VERTEX
8
PART
10
17.5141
20
199.007
0
VERTEX
8
PART
10
17.5194
20
199.166
0
VERTEX
8
PART
10
17.5198
20
199.306
0
VERTEX
8
PART
10
17.7412
20
204.134
0
VERTEX
8
PART
10
17.7487
20
204.271
0
VERTEX
8
PART
10
17.7575
20
204.938
0
VERTEX
8
PART
10
17.7135
20
205.889
0
VERTEX
8
PART
10
17.707
20
206
0
VERTEX
8
PART
10
2.73042
20
205.178
0
VERTEX
8
PART
10
2.75175
20
204.574
0
VERTEX
8
PART
10
2.58372
20
201.013
0
VERTEX
8
PART
10
9.94336
20
201.19
0
VERTEX
8
PART
10
10.0538
20
196.592
0
VERTEX
8
PART
10
2.37595
20
196.407
0
VERTEX
8
PART
10
2.37293
20
196.23
0
VERTEX
8
PART
10
2.33973
20
193.558
0
VERTEX
8
PART
10
2.34307
20
192.935
0
VERTEX
8
PART
10
2.35652
20
190.847
0
VERTEX
8
PART
10
2.35609
20
190.855
0
VERTEX
8
PART
10
2.35338
20
190.752
0
VERTEX
8
PART
10
2.29305
20
189.605
0
VERTEX
8
PART
10
2.28838
20
187.225
0
VERTEX
8
PART
10
2.24551
20
185.391
0
VERTEX
8
PART
10
2.20309
20
184.836
0
VERTEX
8
PART
10
2.17845
20
183.53
0
VERTEX
8
PART
10
9.52242
20
183.706
0
VERTEX
8
PART
10
9.63286
20
179.107
0
VERTEX
8
PART
10
2.0073
20
178.924
0
VERTEX
8
PART
10
2
20
178.621
0
VERTEX
8
PART
10
2.11037
20
176.693
0
VERTEX
8
PART
10
2.24589
20
175.061
0
VERTEX
8
PART
10
2.30425
20
174.6
0
VERTEX
8
PART
10
2.30154
20
173.574
0
VERTEX
8
PART
10
2.34408
20
172.438
0
VERTEX
8
PART
10
2.81089
20
168.648
0
VERTEX
8
PART
10
3.39358
20
166.085
0
VERTEX
8
PART
10
11.0807
20
166.27
0
VERTEX
8
PART
10
11.1911
20
161.671
0
VERTEX
8
PART
10
3.52799
20
161.487
0
VERTEX
8
PART
10
3.52326
20
161.423
0
VERTEX
8
PART
10
3.46597
20
160.963
0
VERTEX
8
PART
10
3.37688
20
159.844
0
VERTEX
8
PART
10
3.39646
20
159.873
0
VERTEX
8
PART
10
3.33621
20
159.575
0
VERTEX
8
PART
10
3.12798
20
157.883
0
VERTEX
8
PART
10
3.16272
20
157.671
0
VERTEX
8
PART
10
3.10233
20
157.671
0
VERTEX
8
PART
10
2.7444
20
153.893
0
VERTEX
8
PART
10
2.56938
20
152.89
0
VERTEX
8
PART
10
2.37445
20
151.976
0
VERTEX
8
PART
10
2.1235
20
150.05
0
VERTEX
8
PART
10
2
20
148.578
0
VERTEX
8
PART
10
9.41136
20
148.755
0
VERTEX
8
PART
10
9.52181
20
144.157
0
VERTEX
8
PART
10
3.6314
20
144.015
0
VERTEX
8
PART
10
15.2251
20
139.557
0
SEQEND
0
TEXT
8
TEXT
10
15.5445
20
192.076
40
2
1
X11.1.1
50
91.3758
0
POLYLINE
8
PART
10
0
20
0
66
1
70
1
62
1
0
VERTEX
8
PART
10
121.158
20
194.843
0
VERTEX
8
PART
10
116.346
20
193.446
0
VERTEX
8
PART
10
116.748
20
192.514
0
VERTEX
8
PART
10
117.052
20
191.595
0
VERTEX
8
PART
10
117.067
20
191.508
0
VERTEX
8
PART
10
117.1
20
191.26
0
VERTEX
8
PART
10
117.567
20
189.646
0
VERTEX
8
PART
10
117.708
20
188.783
0
VERTEX
8
PART
10
117.89
20
188.072
0
VERTEX
8
PART
10
117.87
20
188.006
0
VERTEX
8
PART
10
117.763
20
187.596
0
VERTEX
8
PART
10
117.8
20
187.398
0
VERTEX
8
PART
10
117.94
20
186.967
0
VERTEX
8
PART
10
118.265
20
186.231
0
VERTEX
8
PART
10
116.555
20
178.574
0
VERTEX
8
PART
10
125.581
20
179.17
0
VERTEX
8
PART
10
125.884
20
174.58
0
VERTEX
8
PART
10
116.602
20
173.967
0
VERTEX
8
PART
10
116.926
20
167.285
0
VERTEX
8
PART
10
116.299
20
161.818
0
VERTEX
8
PART
10
115.968
20
161.029
0
VERTEX
8
PART
10
126.224
20
161.706
0
VERTEX
8
PART
10
126.527
20
157.116
0
VERTEX
8
PART
10
115.506
20
156.388
0
VERTEX
8
PART
10
115.482
20
155.42
0
VERTEX
8
PART
10
115.222
20
154.016
0
VERTEX
8
PART
10
114.887
20
152.315
0
VERTEX
8
PART
10
114.665
20
151.102
0
VERTEX
8
PART
10
114.587
20
150.31
0
VERTEX
8
PART
10
114.351
20
149.6
0
VERTEX
8
PART
10
114.193
20
148.67
0
VERTEX
8
PART
10
114.05
20
147.992
0
VERTEX
8
PART
10
113.585
20
146.37
0
VERTEX
8
PART
10
113.294
20
145.298
0
VERTEX
8
PART
10
113.212
20
144.814
0
VERTEX
8
PART
10
113.009
20
144.188
0
VERTEX
8
PART
10
112.93
20
143.321
0
VERTEX
8
PART
10
124.477
20
144.083
0
VERTEX
8
PART
10
124.78
20
139.493
0
VERTEX
8
PART
10
112.222
20
138.664
0
VERTEX
8
PART
10
112.146
20
138.079
0
VERTEX
8
PART
10
112.045
20
136.951
0
VERTEX
8
PART
10
111.938
20
136.134
0
VERTEX
8
PART
10
111.822
20
135.517
0
VERTEX
8
PART
10
111.807
20
134.704
0
VERTEX
8
PART
10
111.535
20
133.056
0
VERTEX
8
PART
10
111.326
20
131.807
0
VERTEX
8
PART
10
111.193
20
130.68
0
VERTEX
8
PART
10
111.033
20
129.859
0
VERTEX
8
PART
10
110.952
20
129.379
0
VERTEX
8
PART
10
110.808
20
128.689
0
VERTEX
8
PART
10
110.55
20
127.396
0
VERTEX
8
PART
10
110.239
20
126.464
0
VERTEX
8
PART
10
110.075
20
125.626
0
VERTEX
8
PART
10
122.527
20
126.448
0
VERTEX
8
PART
10
122.83
20
121.858
0
VERTEX
8
PART
10
108.76
20
120.929
0
VERTEX
8
PART
10
108.549
20
120.148
0
VERTEX
8
PART
10
108.361
20
119.683
0
VERTEX
8
PART
10
108.07
20
118.928
0
VERTEX
8
PART
10
107.852
20
118.321
0
VERTEX
8
PART
10
107.701
20
117.88
0
VERTEX
8
PART
10
107.559
20
117.534
0
VERTEX
8
PART
10
107.402
20
116.798
0
VERTEX
8
PART
10
107.298
20
116.282
0
VERTEX
8
PART
10
107.063
20
115.644
0
VERTEX
8
PART
10
106.812
20
115.055
0
VERTEX
8
PART
10
106.662
20
114.238
0
VERTEX
8
PART
10
106.376
20
113.603
0
VERTEX
8
PART
10
106.091
20
113.066
0
VERTEX
8
PART
10
106
20
112.596
0
VERTEX
8
PART
10
117.77
20
108.627
0
VERTEX
8
PART
10
127.836
20
109.291
0
VERTEX
8
PART
10
128.139
20
104.701
0
VERTEX
8
PART
10
120.661
20
104.207
0
VERTEX
8
PART
10
120.696
20
102.912
0
VERTEX
8
PART
10
120.921
20
101.144
0
VERTEX
8
PART
10
121.024
20
99.3816
0
VERTEX
8
PART
10
121.05
20
96.8481
0
VERTEX
8
PART
10
121.047
20
93.4303
0
VERTEX
8
PART
10
121.064
20
92.2054
0
VERTEX
8
PART
10
121.024
20
91.3344
0
VERTEX
8
PART
10
128.328
20
91.8166
0
VERTEX
8
PART
10
128.631
20
87.2266
0
VERTEX
8
PART
10
120.977
20
86.7213
0
VERTEX
8
PART
10
120.957
20
86.3852
0
VERTEX
8
PART
10
120.909
20
84.8666
0
VERTEX
8
PART
10
120.954
20
83.9136
0
VERTEX
8
PART
10
121.046
20
81.3493
0
VERTEX
8
PART
10
121.173
20
78.947
0
VERTEX
8
PART
10
121.408
20
77.0257
0
VERTEX
8
PART
10
121.545
20
75.6113
0
VERTEX
8
PART
10
121.755
20
73.8757
0
VERTEX
8
PART
10
129.445
20
74.3833
0
VERTEX
8
PART
10
129.748
20
69.7933
0
VERTEX
8
PART
10
122.435
20
69.3106
0
VERTEX
8
PART
10
122.467
20
69.1002
0
VERTEX
8
PART
10
122.367
20
68.4009
0
VERTEX
8
PART
10
122.196
20
66.0994
0
VERTEX
8
PART
10
122.143
20
64.2961
0
VERTEX
8
PART
10
122.184
20
59.8517
0
VERTEX
8
PART
10
122.245
20
57.9641
0
VERTEX
8
PART
10
122.165
20
56.7765
0
VERTEX
8
PART
10
122.156
20
56.3952
0
VERTEX
8
PART
10
129.454
20
56.877
0
VERTEX
8
PART
10
129.757
20
52.287
0
VERTEX
8
PART
10
121.992
20
51.7744
0
VERTEX
8
PART
10
121.953
20
50.3522
0
VERTEX
8
PART
10
121.964
20
49.7095
0
VERTEX
8
PART
10
121.909
20
48.5822
0
VERTEX
8
PART
10
121.233
20
47.5558
0
VERTEX
8
PART
10
106.304
20
46.1068
0
VERTEX
8
PART
10
106.294
20
45.972
0
VERTEX
8
PART
10
106.276
20
44.9526
0
VERTEX
8
PART
10
106.257
20
31.1617
0
VERTEX
8
PART
10
106.593
20
30.8962
0
VERTEX
8
PART
10
107.194
20
30.7387
0
VERTEX
8
PART
10
107.095
20
30.5555
0
VERTEX
8
PART
10
106.977
20
30.426
0
VERTEX
8
PART
10
113.141
20
30.4618
0
VERTEX
8
PART
10
117.584
20
31.0595
0
VERTEX
8
PART
10
124.436
20
31.9802
0
VERTEX
8
PART
10
125.207
20
31.9551
0
VERTEX
8
PART
10
125.611
20
31.9421
0
VERTEX
8
PART
10
127.288
20
31.775
0
VERTEX
8
PART
10
128.059
20
31.6984
0
VERTEX
8
PART
10
129.949
20
31.7732
0
VERTEX
8
PART
10
130.743
20
31.8047
0
VERTEX
8
PART
10
132.347
20
31.9517
0
VERTEX
8
PART
10
132.989
20
32.0106
0
VERTEX
8
PART
10
135.538
20
32.1601
0
VERTEX
8
PART
10
135.898
20
32.2796
0
VERTEX
8
PART
10
136.019
20
33.5301
0
VERTEX
8
PART
10
136.116
20
35.1997
0
VERTEX
8
PART
10
121.41
20
34.229
0
VERTEX
8
PART
10
121.107
20
38.819
0
VERTEX
8
PART
10
136.397
20
39.8283
0
VERTEX
8
PART
10
136.883
20
47.6851
0
VERTEX
8
PART
10
136.958
20
49.2833
0
VERTEX
8
PART
10
136.951
20
50.0995
0
VERTEX
8
PART
10
137.004
20
52.0382
0
VERTEX
8
PART
10
137.114
20
54.4388
0
VERTEX
8
PART
10
137.154
20
56.2013
0
VERTEX
8
PART
10
137.245
20
57.8565
0
VERTEX
8
PART
10
137.182
20
60.0869
0
VERTEX
8
PART
10
137.143
20
64.3405
0
VERTEX
8
PART
10
137.167
20
65.1678
0
VERTEX
8
PART
10
137.34
20
67.5094
0
VERTEX
8
PART
10
137.447
20
69.8749
0
VERTEX
8
PART
10
137.065
20
72.8379
0
VERTEX
8
PART
10
137
20
73.4484
0
VERTEX
8
PART
10
136.83
20
74.3866
0
VERTEX
8
PART
10
136.706
20
75.1754
0
VERTEX
8
PART
10
136.453
20
77.2692
0
VERTEX
8
PART
10
136.313
20
78.7126
0
VERTEX
8
PART
10
136.118
20
80.23
0
VERTEX
8
PART
10
136.034
20
81.9658
0
VERTEX
8
PART
10
135.94
20
84.5656
0
VERTEX
8
PART
10
135.909
20
84.8371
0
VERTEX
8
PART
10
135.942
20
85.7068
0
VERTEX
8
PART
10
136.02
20
87.2905
0
VERTEX
8
PART
10
135.98
20
89.2789
0
VERTEX
8
PART
10
135.973
20
89.9345
0
VERTEX
8
PART
10
136.061
20
91.9118
0
VERTEX
8
PART
10
136.046
20
93.6408
0
VERTEX
8
PART
10
136.008
20
95.7178
0
VERTEX
8
PART
10
136.316
20
97.2238
0
VERTEX
8
PART
10
136.236
20
98.0294
0
VERTEX
8
PART
10
135.971
20
100.641
0
VERTEX
8
PART
10
135.855
20
102.55
0
VERTEX
8
PART
10
135.661
20
103.935
0
VERTEX
8
PART
10
135.609
20
106.145
0
VERTEX
8
PART
10
135.481
20
107.353
0
VERTEX
8
PART
10
135.378
20
110.063
0
VERTEX
8
PART
10
135.281
20
112.694
0
VERTEX
8
PART
10
135.354
20
114.441
0
VERTEX
8
PART
10
135.409
20
116.634
0
VERTEX
8
PART
10
135.521
20
118.366
0
VERTEX
8
PART
10
135.502
20
120.786
0
VERTEX
8
PART
10
135.585
20
122.71
0
VERTEX
8
PART
10
135.755
20
125.159
0
VERTEX
8
PART
10
135.795
20
127.478
0
VERTEX
8
PART
10
135.99
20
129.811
0
VERTEX
8
PART
10
135.988
20
131.409
0
VERTEX
8
PART
10
136.064
20
133.978
0
VERTEX
8
PART
10
136.131
20
134.894
0
VERTEX
8
PART
10
136.205
20
135.904
0
VERTEX
8
PART
10
136.364
20
138.247
0
VERTEX
8
PART
10
136.366
20
139.152
0
VERTEX
8
PART
10
136.536
20
141.609
0
VERTEX
8
PART
10
136.581
20
142.531
0
VERTEX
8
PART
10
136.738
20
144.696
0
VERTEX
8
PART
10
136.842
20
146.902
0
VERTEX
8
PART
10
136.895
20
147.923
0
VERTEX
8
PART
10
137.066
20
150.649
0
VERTEX
8
PART
10
137.106
20
151.543
0
VERTEX
8
PART
10
137.171
20
152.564
0
VERTEX
8
PART
10
137.051
20
155.276
0
VERTEX
8
PART
10
137.027
20
157.944
0
VERTEX
8
PART
10
137.193
20
159.587
0
VERTEX
8
PART
10
137.175
20
160.792
0
VERTEX
8
PART
10
137.271
20
162.35
0
VERTEX
8
PART
10
137.268
20
163.243
0
VERTEX
8
PART
10
137.405
20
164.793
0
VERTEX
8
PART
10
137.439
20
165.59
0
VERTEX
8
PART
10
137.447
20
166.147
0
VERTEX
8
PART
10
137.421
20
167.091
0
VERTEX
8
PART
10
137.233
20
170.456
0
VERTEX
8
PART
10
137.077
20
171.667
0
VERTEX
8
PART
10
135.857
20
175.08
0
VERTEX
8
PART
10
135.527
20
176.142
0
VERTEX
8
PART
10
135.206
20
176.967
0
VERTEX
8
PART
10
134.882
20
177.692
0
VERTEX
8
PART
10
134.047
20
178.725
0
VERTEX
8
PART
10
133.457
20
180.232
0
VERTEX
8
PART
10
131.905
20
185.187
0
VERTEX
8
PART
10
129.313
20
188.667
0
VERTEX
8
PART
10
127.63
20
190.064
0
VERTEX
8
PART
10
127.409
20
190.177
0
VERTEX
8
PART
10
126.902
20
190.419
0
VERTEX
8
PART
10
126.334
20
190.784
0
VERTEX
8
PART
10
125.681
20
191.289
0
VERTEX
8
PART
10
124.828
20
191.999
0
VERTEX
8
PART
10
124.19
20
192.565
0
VERTEX
8
PART
10
123.474
20
193.293
0
VERTEX
8
PART
10
122.672
20
194.201
0
VERTEX
8
PART
10
122.533
20
194.33
0
VERTEX
8
PART
10
122.024
20
195
0
SEQEND
0
TEXT
8
TEXT
10
124.792
20
138.814
40
6
1
X11.1.2
50
273.777
0
POLYLINE
8
PART
10
0
20
0
66
1
70
1
62
1
0
VERTEX
8
PART
10
65.8942
20
162.12
0
VERTEX
8
PART
10
65.9278
20
162.314
0
VERTEX
8
PART
10
66.2978
20
163.794
0
VERTEX
8
PART
10
66.326
20
163.901
0
VERTEX
8
PART
10
66.3537
20
164.041
0
VERTEX
8
PART
10
66.4495
20
164.093
0
VERTEX
8
PART
10
66.4931
20
164.251
0
VERTEX
8
PART
10
66.5655
20
164.718
0
VERTEX
8
PART
10
66.8574
20
166.226
0
VERTEX
8
PART
10
66.8824
20
166.35
0
VERTEX
8
PART
10
66.9517
20
166.635
0
VERTEX
8
PART
10
67.0062
20
166.942
0
VERTEX
8
PART
10
66.9147
20
166.995
0
VERTEX
8
PART
10
67.1855
20
168.701
0
VERTEX
8
PART
10
67.2693
20
169.006
0
VERTEX
8
PART
10
67.2981
20
169.389
0
VERTEX
8
PART
10
67.573
20
171.048
0
VERTEX
8
PART
10
67.6336
20
171.358
0
VERTEX
8
PART
10
67.6619
20
171.633
0
VERTEX
8
PART
10
67.8566
20
173.386
0
VERTEX
8
PART
10
67.8951
20
173.64
0
VERTEX
8
PART
10
67.9333
20
174.023
0
VERTEX
8
PART
10
67.95
20
174.282
0
VERTEX
8
PART
10
67.9807
20
175.729
0
VERTEX
8
PART
10
67.9855
20
176.07
0
VERTEX
8
PART
10
68.0415
20
176.353
0
VERTEX
8
PART
10
68.0969
20
176.601
0
VERTEX
8
PART
10
67.8632
20
177.882
0
VERTEX
8
PART
10
67.9504
20
178.164
0
VERTEX
8
PART
10
67.9919
20
178.291
0
VERTEX
8
PART
10
67.6654
20
179.499
0
VERTEX
8
PART
10
67.7447
20
179.793
0
VERTEX
8
PART
10
67.0089
20
181.09
0
VERTEX
8
PART
10
67.0973
20
181.459
0
VERTEX
8
PART
10
67.1055
20
181.605
0
VERTEX
8
PART
10
66.2349
20
182.463
0
VERTEX
8
PART
10
66.2639
20
182.784
0
VERTEX
8
PART
10
66.298
20
182.981
0
VERTEX
8
PART
10
65.0939
20
183.78
0
VERTEX
8
PART
10
65.0835
20
183.921
0
VERTEX
8
PART
10
65.0731
20
184.186
0
VERTEX
8
PART
10
65.0426
20
184.401
0
VERTEX
8
PART
10
64.7289
20
185.315
0
VERTEX
8
PART
10
64.711
20
185.54
0
VERTEX
8
PART
10
64.8263
20
186.36
0
VERTEX
8
PART
10
64.8186
20
186.621
0
VERTEX
8
PART
10
64.7982
20
186.939
0
VERTEX
8
PART
10
64.8592
20
187.665
0
VERTEX
8
PART
10
64.8658
20
188.156
0
VERTEX
8
PART
10
64.8748
20
189.253
0
VERTEX
8
PART
10
64.8113
20
189.677
0
VERTEX
8
PART
10
64.7896
20
190.72
0
VERTEX
8
PART
10
64.7688
20
191.445
0
VERTEX
8
PART
10
64.8722
20
192.59
0
VERTEX
8
PART
10
64.9354
20
193.601
0
VERTEX
8
PART
10
65.1401
20
195.303
0
VERTEX
8
PART
10
65.1937
20
196.319
0
VERTEX
8
PART
10
65.3249
20
197.493
0
VERTEX
8
PART
10
65.3907
20
198.662
0
VERTEX
8
PART
10
65.4345
20
199.926
0
VERTEX
8
PART
10
65.5892
20
201.398
0
VERTEX
8
PART
10
65.6915
20
202.834
0
VERTEX
8
PART
10
65.7465
20
204.029
0
VERTEX
8
PART
10
65.7794
20
205.271
0
VERTEX
8
PART
10
65.8068
20
206.461
0
VERTEX
8
PART
10
65.8782
20
208.036
0
VERTEX
8
PART
10
65.8946
20
208.958
0
VERTEX
8
PART
10
66.0352
20
210.581
0
VERTEX
8
PART
10
66.1022
20
211.588
0
VERTEX
8
PART
10
66.1337
20
212.474
0
VERTEX
8
PART
10
66.3673
20
215.436
0
VERTEX
8
PART
10
66.717
20
219.416
0
VERTEX
8
PART
10
66.767
20
220.499
0
VERTEX
8
PART
10
67.8755
20
231.872
0
VERTEX
8
PART
10
68.0929
20
234.558
0
VERTEX
8
PART
10
68.0969
20
234.742
0
VERTEX
8
PART
10
67.3141
20
235.011
0
VERTEX
8
PART
10
67.6502
20
235.537
0
VERTEX
8
PART
10
68.0319
20
235.898
0
VERTEX
8
PART
10
66.5548
20
236
0
VERTEX
8
PART
10
57.7361
20
235.48
0
VERTEX
8
PART
10
49.6472
20
235.003
0
VERTEX
8
PART
10
49.3714
20
235.034
0
VERTEX
8
PART
10
47.9097
20
235.191
0
VERTEX
8
PART
10
47.1646
20
235.219
0
VERTEX
8
PART
10
44.2864
20
235.729
0
VERTEX
8
PART
10
42.9055
20
235.842
0
VERTEX
8
PART
10
40.616
20
235.923
0
VERTEX
8
PART
10
38.6453
20
235.891
0
VERTEX
8
PART
10
37.7909
20
235.757
0
VERTEX
8
PART
10
36.0628
20
235.316
0
VERTEX
8
PART
10
36.0592
20
234.082
0
VERTEX
8
PART
10
51.9662
20
233.941
0
VERTEX
8
PART
10
51.9254
20
229.341
0
VERTEX
8
PART
10
36.0457
20
229.482
0
VERTEX
8
PART
10
36.026
20
222.772
0
VERTEX
8
PART
10
36
20
221.259
0
VERTEX
8
PART
10
36.0114
20
221.042
0
VERTEX
8
PART
10
36.0797
20
219.981
0
VERTEX
8
PART
10
51.1
20
219.043
0
VERTEX
8
PART
10
51.42
20
216.692
0
VERTEX
8
PART
10
51.4269
20
216.476
0
VERTEX
8
PART
10
58.8996
20
216.41
0
VERTEX
8
PART
10
58.8588
20
211.81
0
VERTEX
8
PART
10
51.5747
20
211.875
0
VERTEX
8
PART
10
51.9883
20
199.001
0
VERTEX
8
PART
10
58.6632
20
198.942
0
VERTEX
8
PART
10
58.6224
20
194.342
0
VERTEX
8
PART
10
52.1361
20
194.4
0
VERTEX
8
PART
10
52.5496
20
181.527
0
VERTEX
8
PART
10
60.22
20
181.459
0
VERTEX
8
PART
10
60.1792
20
176.859
0
VERTEX
8
PART
10
52.6974
20
176.925
0
VERTEX
8
PART
10
52.8039
20
173.611
0
VERTEX
8
PART
10
52.7864
20
173.569
0
VERTEX
8
PART
10
52.4613
20
171.596
0
VERTEX
8
PART
10
52.4661
20
171.428
0
VERTEX
8
PART
10
52.4136
20
171.307
0
VERTEX
8
PART
10
51.9919
20
168.516
0
VERTEX
8
PART
10
51.695
20
167.207
0
VERTEX
8
PART
10
51.3459
20
165.831
0
VERTEX
8
PART
10
50.9849
20
163.767
0
VERTEX
8
PART
10
51.2011
20
163.095
0
VERTEX
8
PART
10
65.8355
20
161.479
0
SEQEND
0
TEXT
8
TEXT
10
39.7229
20
220.982
40
6
1
X12.1.1
50
-0.508277
0
POLYLINE
8
PART
10
0
20
0
66
1
70
1
62
1
0
VERTEX
8
PART
10
164.09
20
1.58443
0
VERTEX
8
PART
10
164.401
20
1.61124
0
VERTEX
8
PART
10
165.164
20
1.67879
0
VERTEX
8
PART
10
167.198
20
1.89599
0
VERTEX
8
PART
10
168.008
20
1.9784
0
VERTEX
8
PART
10
169.685
20
2.07833
0
VERTEX
8
PART
10
169.73
20
2.08198
0
VERTEX
8
PART
10
169.846
20
2.08695
0
VERTEX
8
PART
10
169.812
20
2.18448
0
VERTEX
8
PART
10
169.806
20
2.19955
0
VERTEX
8
PART
10
169.396
20
3.61369
0
VERTEX
8
PART
10
169.31
20
3.87117
0
VERTEX
8
PART
10
168.996
20
5.06247
0
VERTEX
8
PART
10
168.823
20
5.55013
0
VERTEX
8
PART
10
168.568
20
6.4537
0
VERTEX
8
PART
10
168.306
20
7.09226
0
VERTEX
8
PART
10
168.089
20
7.70496
0
VERTEX
8
PART
10
167.705
20
8.57901
0
VERTEX
8
PART
10
167.562
20
8.97651
0
VERTEX
8
PART
10
167.329
20
9.49495
0
VERTEX
8
PART
10
167.19
20
9.85201
0
VERTEX
8
PART
10
166.815
20
10.7366
0
VERTEX
8
PART
10
166.711
20
10.9963
0
VERTEX
8
PART
10
166.39
20
11.8676
0
VERTEX
8
PART
10
166.327
20
12.0399
0
VERTEX
8
PART
10
165.896
20
13.212
0
VERTEX
8
PART
10
165.78
20
13.4351
0
VERTEX
8
PART
10
165.775
20
13.4437
0
VERTEX
8
PART
10
165.202
20
14.5426
0
VERTEX
8
PART
10
165.174
20
14.5957
0
VERTEX
8
PART
10
164.506
20
15.7187
0
VERTEX
8
PART
10
163.974
20
16.6267
0
VERTEX
8
PART
10
163.911
20
16.7376
0
VERTEX
8
PART
10
163.278
20
17.8476
0
VERTEX
8
PART
10
155.105
20
17.4489
0
VERTEX
8
PART
10
154.881
20
22.0435
0
VERTEX
8
PART
10
161.553
20
22.3689
0
VERTEX
8
PART
10
161.465
20
22.8176
0
VERTEX
8
PART
10
161.384
20
23.0387
0
VERTEX
8
PART
10
161.276
20
23.7136
0
VERTEX
8
PART
10
161.201
20
23.9932
0
VERTEX
8
PART
10
161.07
20
24.7721
0
VERTEX
8
PART
10
160.996
20
25.1128
0
VERTEX
8
PART
10
160.864
20
25.9579
0
VERTEX
8
PART
10
160.776
20
26.4045
0
VERTEX
8
PART
10
160.643
20
27.2749
0
VERTEX
8
PART
10
160.53
20
28.0095
0
VERTEX
8
PART
10
160.46
20
28.4941
0
VERTEX
8
PART
10
160.347
20
29.2848
0
VERTEX
8
PART
10
160.261
20
29.8496
0
VERTEX
8
PART
10
160.158
20
30.5602
0
VERTEX
8
PART
10
160.087
20
31.0887
0
VERTEX
8
PART
10
159.996
20
31.7229
0
VERTEX
8
PART
10
159.782
20
32.5207
0
VERTEX
8
PART
10
159.681
20
33.1455
0
VERTEX
8
PART
10
159.579
20
33.8483
0
VERTEX
8
PART
10
159.439
20
34.4723
0
VERTEX
8
PART
10
159.339
20
35.1451
0
VERTEX
8
PART
10
151.164
20
34.7464
0
VERTEX
8
PART
10
150.94
20
39.3409
0
VERTEX
8
PART
10
158.07
20
39.6887
0
VERTEX
8
PART
10
157.961
20
40.3788
0
VERTEX
8
PART
10
157.876
20
41.0996
0
VERTEX
8
PART
10
157.637
20
41.9239
0
VERTEX
8
PART
10
157.419
20
42.5772
0
VERTEX
8
PART
10
157.27
20
43.457
0
VERTEX
8
PART
10
157.23
20
43.5498
0
VERTEX
8
PART
10
157.159
20
43.7744
0
VERTEX
8
PART
10
156.774
20
44.8892
0
VERTEX
8
PART
10
156.742
20
45.4136
0
VERTEX
8
PART
10
156.556
20
46.4151
0
VERTEX
8
PART
10
156.263
20
47.941
0
VERTEX
8
PART
10
156.079
20
52.4758
0
VERTEX
8
PART
10
148.227
20
52.0929
0
VERTEX
8
PART
10
148.003
20
56.6874
0
VERTEX
8
PART
10
156.073
20
57.081
0
VERTEX
8
PART
10
156.58
20
59.8681
0
VERTEX
8
PART
10
156.789
20
60.291
0
VERTEX
8
PART
10
156.838
20
60.3877
0
VERTEX
8
PART
10
156.919
20
60.6949
0
VERTEX
8
PART
10
157.815
20
62.9791
0
VERTEX
8
PART
10
158.108
20
63.8612
0
VERTEX
8
PART
10
158.181
20
64.5926
0
VERTEX
8
PART
10
158.228
20
64.7994
0
VERTEX
8
PART
10
158.381
20
66.3484
0
VERTEX
8
PART
10
158.069
20
68.2241
0
VERTEX
8
PART
10
158.141
20
68.3977
0
VERTEX
8
PART
10
158.89
20
70.1027
0
VERTEX
8
PART
10
148.822
20
69.6116
0
VERTEX
8
PART
10
148.598
20
74.2062
0
VERTEX
8
PART
10
159.767
20
74.7509
0
VERTEX
8
PART
10
160.212
20
76.016
0
VERTEX
8
PART
10
160.598
20
78.082
0
VERTEX
8
PART
10
160.944
20
79.586
0
VERTEX
8
PART
10
161.081
20
80.0343
0
VERTEX
8
PART
10
161.799
20
82.5105
0
VERTEX
8
PART
10
162.007
20
83.6306
0
VERTEX
8
PART
10
162.503
20
85.0747
0
VERTEX
8
PART
10
162.572
20
85.7127
0
VERTEX
8
PART
10
162.636
20
86.3572
0
VERTEX
8
PART
10
162.712
20
86.6395
0
VERTEX
8
PART
10
162.96
20
87.7909
0
VERTEX
8
PART
10
150.999
20
87.2075
0
VERTEX
8
PART
10
150.775
20
91.8021
0
VERTEX
8
PART
10
163.665
20
92.4308
0
VERTEX
8
PART
10
163.813
20
93.4238
0
VERTEX
8
PART
10
164.093
20
94.79
0
VERTEX
8
PART
10
164.159
20
96.5974
0
VERTEX
8
PART
10
164.219
20
96.9276
0
VERTEX
8
PART
10
164.265
20
97.1779
0
VERTEX
8
PART
10
164.579
20
99.5026
0
VERTEX
8
PART
10
164.941
20
101.196
0
VERTEX
8
PART
10
165.124
20
102.187
0
VERTEX
8
PART
10
165.446
20
103.608
0
VERTEX
8
PART
10
165.493
20
103.821
0
VERTEX
8
PART
10
166.06
20
105.432
0
VERTEX
8
PART
10
153.518
20
104.82
0
VERTEX
8
PART
10
153.294
20
109.415
0
VERTEX
8
PART
10
167.688
20
110.117
0
VERTEX
8
PART
10
168.025
20
111.31
0
VERTEX
8
PART
10
168.033
20
111.337
0
VERTEX
8
PART
10
168.237
20
112.063
0
VERTEX
8
PART
10
168.376
20
112.575
0
VERTEX
8
PART
10
168.429
20
112.84
0
VERTEX
8
PART
10
168.655
20
113.86
0
VERTEX
8
PART
10
168.66
20
113.88
0
VERTEX
8
PART
10
168.864
20
114.665
0
VERTEX
8
PART
10
168.994
20
115.117
0
VERTEX
8
PART
10
169.251
20
115.961
0
VERTEX
8
PART
10
169.457
20
116.576
0
VERTEX
8
PART
10
169.693
20
117.249
0
VERTEX
8
PART
10
169.746
20
117.672
0
VERTEX
8
PART
10
169.896
20
118.377
0
VERTEX
8
PART
10
169.951
20
118.837
0
VERTEX
8
PART
10
170.246
20
119.746
0
VERTEX
8
PART
10
170.288
20
119.952
0
VERTEX
8
PART
10
170.335
20
120.293
0
VERTEX
8
PART
10
170.433
20
120.817
0
VERTEX
8
PART
10
170.524
20
121.22
0
VERTEX
8
PART
10
170.549
20
121.447
0
VERTEX
8
PART
10
170.871
20
122.54
0
VERTEX
8
PART
10
170.887
20
122.797
0
VERTEX
8
PART
10
170.851
20
123.155
0
VERTEX
8
PART
10
155.331
20
122.398
0
VERTEX
8
PART
10
155.107
20
126.993
0
VERTEX
8
PART
10
155.836
20
127.028
0
VERTEX
8
PART
10
155.403
20
130.685
0
VERTEX
8
PART
10
155.126
20
134.462
0
VERTEX
8
PART
10
155.248
20
134.588
0
VERTEX
8
PART
10
155.08
20
138.195
0
VERTEX
8
PART
10
155.09
20
139.423
0
VERTEX
8
PART
10
155.107
20
139.782
0
VERTEX
8
PART
10
155.103
20
139.877
0
VERTEX
8
PART
10
147.684
20
139.515
0
VERTEX
8
PART
10
147.459
20
144.11
0
VERTEX
8
PART
10
154.903
20
144.473
0
VERTEX
8
PART
10
154.344
20
157.33
0
VERTEX
8
PART
10
147.189
20
156.981
0
VERTEX
8
PART
10
146.965
20
161.575
0
VERTEX
8
PART
10
154.144
20
161.925
0
VERTEX
8
PART
10
153.584
20
174.782
0
VERTEX
8
PART
10
146.181
20
174.421
0
VERTEX
8
PART
10
145.957
20
179.016
0
VERTEX
8
PART
10
153.384
20
179.378
0
VERTEX
8
PART
10
153.361
20
179.907
0
VERTEX
8
PART
10
153.049
20
181.929
0
VERTEX
8
PART
10
138
20
182
0
VERTEX
8
PART
10
138.1
20
180.698
0
VERTEX
8
PART
10
138.12
20
180.548
0
VERTEX
8
PART
10
138.477
20
178.044
0
VERTEX
8
PART
10
138.696
20
175.944
0
VERTEX
8
PART
10
138.996
20
172.879
0
VERTEX
8
PART
10
139.119
20
171.153
0
VERTEX
8
PART
10
139.49
20
167.942
0
VERTEX
8
PART
10
139.598
20
166.48
0
VERTEX
8
PART
10
139.602
20
164.477
0
VERTEX
8
PART
10
139.743
20
161.783
0
VERTEX
8
PART
10
139.776
20
160.009
0
VERTEX
8
PART
10
139.93
20
158.779
0
VERTEX
8
PART
10
139.971
20
156.536
0
VERTEX
8
PART
10
140.013
20
155.299
0
VERTEX
8
PART
10
140.094
20
152.685
0
VERTEX
8
PART
10
140.159
20
151.963
0
VERTEX
8
PART
10
140.183
20
151.182
0
VERTEX
8
PART
10
140.243
20
146.858
0
VERTEX
8
PART
10
140.243
20
146.339
0
VERTEX
8
PART
10
140.238
20
145.849
0
VERTEX
8
PART
10
140.111
20
140.134
0
VERTEX
8
PART
10
140.1
20
139.964
0
VERTEX
8
PART
10
140.1
20
139.833
0
VERTEX
8
PART
10
140.086
20
137.784
0
VERTEX
8
PART
10
140.249
20
134.384
0
VERTEX
8
PART
10
140.14
20
133.814
0
VERTEX
8
PART
10
140.471
20
129.262
0
VERTEX
8
PART
10
140.986
20
124.943
0
VERTEX
8
PART
10
140.942
20
123.837
0
VERTEX
8
PART
10
140.766
20
122.627
0
VERTEX
8
PART
10
140.896
20
119.649
0
VERTEX
8
PART
10
140.674
20
116.566
0
VERTEX
8
PART
10
140.543
20
115.192
0
VERTEX
8
PART
10
140.288
20
112.499
0
VERTEX
8
PART
10
140.15
20
110.847
0
VERTEX
8
PART
10
139.936
20
108.128
0
VERTEX
8
PART
10
139.951
20
107.302
0
VERTEX
8
PART
10
139.707
20
104.318
0
VERTEX
8
PART
10
139.679
20
103.141
0
VERTEX
8
PART
10
139.412
20
100.337
0
VERTEX
8
PART
10
139.363
20
99.3382
0
VERTEX
8
PART
10
139.207
20
96.6056
0
VERTEX
8
PART
10
139.136
20
95.4505
0
VERTEX
8
PART
10
138.862
20
92.9928
0
VERTEX
8
PART
10
138.809
20
91.9871
0
VERTEX
8
PART
10
138.537
20
89.5691
0
VERTEX
8
PART
10
138.389
20
88.5325
0
VERTEX
8
PART
10
138.489
20
86.2919
0
VERTEX
8
PART
10
138.383
20
85.2016
0
VERTEX
8
PART
10
138.319
20
84.3288
0
VERTEX
8
PART
10
138.616
20
82.3918
0
VERTEX
8
PART
10
138.532
20
81.3735
0
VERTEX
8
PART
10
138.456
20
79.3057
0
VERTEX
8
PART
10
138.356
20
78.0486
0
VERTEX
8
PART
10
138.152
20
75.5168
0
VERTEX
8
PART
10
138.122
20
73.1186
0
VERTEX
8
PART
10
138.034
20
71.916
0
VERTEX
8
PART
10
138
20
70.8453
0
VERTEX
8
PART
10
138.221
20
66.6194
0
VERTEX
8
PART
10
138.201
20
65.6024
0
VERTEX
8
PART
10
138.167
20
63.6333
0
VERTEX
8
PART
10
138.344
20
61.2227
0
VERTEX
8
PART
10
138.384
20
60.8403
0
VERTEX
8
PART
10
138.773
20
58.6562
0
VERTEX
8
PART
10
139.889
20
54.7745
0
VERTEX
8
PART
10
140.055
20
53.8726
0
VERTEX
8
PART
10
140.161
20
52.6163
0
VERTEX
8
PART
10
140.388
20
51.5056
0
VERTEX
8
PART
10
140.614
20
49.5698
0
VERTEX
8
PART
10
140.681
20
49.195
0
VERTEX
8
PART
10
140.757
20
48.3905
0
VERTEX
8
PART
10
141.426
20
46.1447
0
VERTEX
8
PART
10
141.672
20
45.0388
0
VERTEX
8
PART
10
142.116
20
43.0145
0
VERTEX
8
PART
10
142.472
20
40.978
0
VERTEX
8
PART
10
142.96
20
39.033
0
VERTEX
8
PART
10
143.273
20
37.6462
0
VERTEX
8
PART
10
143.598
20
36.0716
0
VERTEX
8
PART
10
143.933
20
34.6007
0
VERTEX
8
PART
10
144.209
20
33.2785
0
VERTEX
8
PART
10
144.695
20
31.1672
0
VERTEX
8
PART
10
145.184
20
29.0391
0
VERTEX
8
PART
10
145.274
20
28.5412
0
VERTEX
8
PART
10
145.897
20
25.3366
0
VERTEX
8
PART
10
145.935
20
25.1383
0
VERTEX
8
PART
10
146.406
20
22.974
0
VERTEX
8
PART
10
146.615
20
22.393
0
VERTEX
8
PART
10
146.675
20
22.2347
0
VERTEX
8
PART
10
146.849
20
21.7695
0
VERTEX
8
PART
10
147.969
20
18.8431
0
VERTEX
8
PART
10
148.012
20
18.702
0
VERTEX
8
PART
10
148.421
20
17.7331
0
VERTEX
8
PART
10
149.357
20
15.5651
0
VERTEX
8
PART
10
149.372
20
15.5338
0
VERTEX
8
PART
10
149.382
20
15.5168
0
VERTEX
8
PART
10
149.444
20
15.4245
0
VERTEX
8
PART
10
149.668
20
15.0931
0
VERTEX
8
PART
10
151.335
20
13.527
0
VERTEX
8
PART
10
151.54
20
13.3148
0
VERTEX
8
PART
10
151.776
20
13.0787
0
VERTEX
8
PART
10
154.233
20
11.1416
0
VERTEX
8
PART
10
154.605
20
10.7462
0
VERTEX
8
PART
10
154.985
20
10.3349
0
VERTEX
8
PART
10
156.458
20
9.22441
0
VERTEX
8
PART
10
156.846
20
8.77073
0
VERTEX
8
PART
10
157.211
20
8.30553
0
VERTEX
8
PART
10
158.024
20
7.54534
0
VERTEX
8
PART
10
158.362
20
7.07588
0
VERTEX
8
PART
10
158.685
20
6.61793
0
VERTEX
8
PART
10
159.226
20
6.07712
0
VERTEX
8
PART
10
159.414
20
5.64218
0
VERTEX
8
PART
10
159.722
20
5.25073
0
VERTEX
8
PART
10
159.978
20
4.96856
0
VERTEX
8
PART
10
160.493
20
4.26884
0
VERTEX
8
PART
10
160.918
20
3.84767
0
VERTEX
8
PART
10
161.581
20
3.2118
0
VERTEX
8
PART
10
162.512
20
2.26814
0
VERTEX
8
PART
10
162.654
20
2.11107
0
VERTEX
8
PART
10
163.297
20
1.47834
0
SEQEND
0
TEXT
8
TEXT
10
152.259
20
111.458
40
6
1
X12.1.2
50
92.7924
0
POLYLINE
8
PART
10
0
20
0
66
1
70
1
62
1
0
VERTEX
8
PART
10
182.403
20
148.414
0
VERTEX
8
PART
10
181.819
20
147.599
0
VERTEX
8
PART
10
181.737
20
147.429
0
VERTEX
8
PART
10
181.617
20
147.27
0
VERTEX
8
PART
10
181.607
20
147.206
0
VERTEX
8
PART
10
186.106
20
147.508
0
VERTEX
8
PART
10
186.415
20
142.918
0
VERTEX
8
PART
10
181.114
20
142.562
0
VERTEX
8
PART
10
181.108
20
142.544
0
VERTEX
8
PART
10
180.92
20
141.322
0
VERTEX
8
PART
10
180.787
20
140.609
0
VERTEX
8
PART
10
180.523
20
139.513
0
VERTEX
8
PART
10
179.736
20
137.913
0
VERTEX
8
PART
10
179.3
20
136.134
0
VERTEX
8
PART
10
178.613
20
135.482
0
VERTEX
8
PART
10
178.568
20
135.336
0
VERTEX
8
PART
10
178.203
20
134.902
0
VERTEX
8
PART
10
177.945
20
134.245
0
VERTEX
8
PART
10
177.899
20
133.795
0
VERTEX
8
PART
10
177.803
20
133.084
0
VERTEX
8
PART
10
177.48
20
132.148
0
VERTEX
8
PART
10
177.408
20
131.669
0
VERTEX
8
PART
10
177.076
20
130.476
0
VERTEX
8
PART
10
176.916
20
129.9
0
VERTEX
8
PART
10
176.804
20
129.375
0
VERTEX
8
PART
10
187.45
20
130.09
0
VERTEX
8
PART
10
187.758
20
125.5
0
VERTEX
8
PART
10
175.777
20
124.695
0
VERTEX
8
PART
10
175.777
20
124.671
0
VERTEX
8
PART
10
175.717
20
124.161
0
VERTEX
8
PART
10
175.506
20
123.289
0
VERTEX
8
PART
10
175.334
20
122.625
0
VERTEX
8
PART
10
175.271
20
122.091
0
VERTEX
8
PART
10
175.273
20
121.912
0
VERTEX
8
PART
10
175.154
20
121.172
0
VERTEX
8
PART
10
174.746
20
119.587
0
VERTEX
8
PART
10
174.736
20
118.929
0
VERTEX
8
PART
10
174.736
20
118.878
0
VERTEX
8
PART
10
174.565
20
118.183
0
VERTEX
8
PART
10
174.457
20
117.472
0
VERTEX
8
PART
10
174.353
20
116.711
0
VERTEX
8
PART
10
174.099
20
115.819
0
VERTEX
8
PART
10
173.963
20
115.023
0
VERTEX
8
PART
10
173.925
20
114.655
0
VERTEX
8
PART
10
173.766
20
113.704
0
VERTEX
8
PART
10
173.572
20
112.796
0
VERTEX
8
PART
10
173.44
20
112.086
0
VERTEX
8
PART
10
173.366
20
111.635
0
VERTEX
8
PART
10
185.277
20
112.436
0
VERTEX
8
PART
10
185.585
20
107.846
0
VERTEX
8
PART
10
172.769
20
106.985
0
VERTEX
8
PART
10
172.616
20
106.14
0
VERTEX
8
PART
10
172.514
20
105.506
0
VERTEX
8
PART
10
172.442
20
104.59
0
VERTEX
8
PART
10
172.43
20
103.787
0
VERTEX
8
PART
10
172.323
20
102.834
0
VERTEX
8
PART
10
172.203
20
101.818
0
VERTEX
8
PART
10
172.137
20
100.898
0
VERTEX
8
PART
10
172.059
20
99.9183
0
VERTEX
8
PART
10
171.933
20
99.1702
0
VERTEX
8
PART
10
171.791
20
98.2422
0
VERTEX
8
PART
10
171.728
20
97.8294
0
VERTEX
8
PART
10
171.515
20
97.047
0
VERTEX
8
PART
10
171.413
20
96.4847
0
VERTEX
8
PART
10
171.179
20
95.5623
0
VERTEX
8
PART
10
171.006
20
94.953
0
VERTEX
8
PART
10
170.732
20
94.2413
0
VERTEX
8
PART
10
170.655
20
93.9448
0
VERTEX
8
PART
10
183.239
20
94.7904
0
VERTEX
8
PART
10
183.548
20
90.2007
0
VERTEX
8
PART
10
169.463
20
89.2543
0
VERTEX
8
PART
10
169.45
20
89.207
0
VERTEX
8
PART
10
169.376
20
88.9268
0
VERTEX
8
PART
10
169.302
20
88.6314
0
VERTEX
8
PART
10
169.264
20
88.486
0
VERTEX
8
PART
10
169.238
20
88.3835
0
VERTEX
8
PART
10
168.919
20
86.6401
0
VERTEX
8
PART
10
168.882
20
86.4606
0
VERTEX
8
PART
10
168.861
20
86.3636
0
VERTEX
8
PART
10
168.828
20
86.2264
0
VERTEX
8
PART
10
168.347
20
84.4178
0
VERTEX
8
PART
10
168.309
20
84.2861
0
VERTEX
8
PART
10
168.279
20
84.19
0
VERTEX
8
PART
10
167.575
20
82.0538
0
VERTEX
8
PART
10
167.57
20
82.0142
0
VERTEX
8
PART
10
167.558
20
81.9482
0
VERTEX
8
PART
10
167.553
20
81.9052
0
VERTEX
8
PART
10
166.873
20
79.6725
0
VERTEX
8
PART
10
166.863
20
79.609
0
VERTEX
8
PART
10
166.862
20
79.6039
0
VERTEX
8
PART
10
166.596
20
77.2823
0
VERTEX
8
PART
10
166.556
20
77.1015
0
VERTEX
8
PART
10
166.402
20
76.1507
0
VERTEX
8
PART
10
180.48
20
77.0966
0
VERTEX
8
PART
10
180.788
20
72.507
0
VERTEX
8
PART
10
165.873
20
71.5048
0
VERTEX
8
PART
10
165.71
20
70.2529
0
VERTEX
8
PART
10
165.709
20
69.8009
0
VERTEX
8
PART
10
165.419
20
67.8773
0
VERTEX
8
PART
10
165.42
20
67.452
0
VERTEX
8
PART
10
165.146
20
65.5357
0
VERTEX
8
PART
10
165.187
20
65.1213
0
VERTEX
8
PART
10
165
20
63.0701
0
VERTEX
8
PART
10
165.074
20
62.7073
0
VERTEX
8
PART
10
165.034
20
61.0061
0
VERTEX
8
PART
10
165.137
20
60.7201
0
VERTEX
8
PART
10
165.422
20
59.2122
0
VERTEX
8
PART
10
165.605
20
58.5888
0
VERTEX
8
PART
10
179.879
20
59.5479
0
VERTEX
8
PART
10
180.188
20
54.9583
0
VERTEX
8
PART
10
169.043
20
54.2095
0
VERTEX
8
PART
10
170.077
20
53.6265
0
VERTEX
8
PART
10
170.314
20
53.4908
0
VERTEX
8
PART
10
170.352
20
53.3575
0
VERTEX
8
PART
10
170.97
20
52.1973
0
VERTEX
8
PART
10
170.798
20
51.1499
0
VERTEX
8
PART
10
170.774
20
50.9854
0
VERTEX
8
PART
10
170.772
20
50.9054
0
VERTEX
8
PART
10
170.684
20
49.9746
0
VERTEX
8
PART
10
170.656
20
48.4735
0
VERTEX
8
PART
10
170.655
20
48.3751
0
VERTEX
8
PART
10
170.663
20
46.8761
0
VERTEX
8
PART
10
170.621
20
46.4761
0
VERTEX
8
PART
10
170.602
20
45.1491
0
VERTEX
8
PART
10
170.603
20
45.1179
0
VERTEX
8
PART
10
170.489
20
42.5059
0
VERTEX
8
PART
10
170.491
20
42.4005
0
VERTEX
8
PART
10
170.456
20
41.4064
0
VERTEX
8
PART
10
182.564
20
42.22
0
VERTEX
8
PART
10
182.872
20
37.6303
0
VERTEX
8
PART
10
170.373
20
36.7905
0
VERTEX
8
PART
10
170.38
20
35.4375
0
VERTEX
8
PART
10
170.438
20
33.4847
0
VERTEX
8
PART
10
170.455
20
33.1473
0
VERTEX
8
PART
10
170.561
20
31.142
0
VERTEX
8
PART
10
170.576
20
30.6529
0
VERTEX
8
PART
10
170.671
20
29.0301
0
VERTEX
8
PART
10
170.665
20
28.4881
0
VERTEX
8
PART
10
170.683
20
26.6297
0
VERTEX
8
PART
10
170.749
20
24.9981
0
VERTEX
8
PART
10
170.746
20
23.9176
0
VERTEX
8
PART
10
184.382
20
24.8338
0
VERTEX
8
PART
10
184.69
20
20.2441
0
VERTEX
8
PART
10
170.692
20
19.3036
0
VERTEX
8
PART
10
170.654
20
16.0357
0
VERTEX
8
PART
10
170.67
20
15.5019
0
VERTEX
8
PART
10
170.551
20
9.87893
0
VERTEX
8
PART
10
170.534
20
6.39497
0
VERTEX
8
PART
10
184.586
20
7.33912
0
VERTEX
8
PART
10
184.894
20
2.74947
0
VERTEX
8
PART
10
170.731
20
1.79782
0
VERTEX
8
PART
10
170.407
20
1.19531
0
VERTEX
8
PART
10
171.235
20
1.17108
0
VERTEX
8
PART
10
175.216
20
1.52764
0
VERTEX
8
PART
10
188.756
20
3.36444
0
VERTEX
8
PART
10
190.179
20
3.31037
0
VERTEX
8
PART
10
191.074
20
3.28256
0
VERTEX
8
PART
10
194.928
20
3.43117
0
VERTEX
8
PART
10
195.976
20
3.32684
0
VERTEX
8
PART
10
197.691
20
3.31664
0
VERTEX
8
PART
10
198.957
20
3.60106
0
VERTEX
8
PART
10
198.953
20
19.6316
0
VERTEX
8
PART
10
198.916
20
20.5418
0
VERTEX
8
PART
10
198.908
20
20.6223
0
VERTEX
8
PART
10
198.686
20
22.1086
0
VERTEX
8
PART
10
197.961
20
25.0666
0
VERTEX
8
PART
10
197.862
20
25.5486
0
VERTEX
8
PART
10
196.502
20
32.6194
0
VERTEX
8
PART
10
196.405
20
33.1627
0
VERTEX
8
PART
10
195.72
20
36.5658
0
VERTEX
8
PART
10
195.57
20
37.6641
0
VERTEX
8
PART
10
194.832
20
41.8829
0
VERTEX
8
PART
10
194.695
20
42.9199
0
VERTEX
8
PART
10
194.545
20
44.2098
0
VERTEX
8
PART
10
194.182
20
46.5648
0
VERTEX
8
PART
10
193.971
20
48.8197
0
VERTEX
8
PART
10
193.658
20
50.7081
0
VERTEX
8
PART
10
193.584
20
52.1975
0
VERTEX
8
PART
10
193.311
20
54.3815
0
VERTEX
8
PART
10
193.295
20
56.5575
0
VERTEX
8
PART
10
193.441
20
59.9433
0
VERTEX
8
PART
10
193.333
20
61.6224
0
VERTEX
8
PART
10
193.624
20
65.5676
0
VERTEX
8
PART
10
193.888
20
66.7499
0
VERTEX
8
PART
10
194.515
20
69.1499
0
VERTEX
8
PART
10
195.048
20
72.1142
0
VERTEX
8
PART
10
195.134
20
75.1048
0
VERTEX
8
PART
10
195.132
20
76.7071
0
VERTEX
8
PART
10
195.553
20
80.0963
0
VERTEX
8
PART
10
195.723
20
81.5994
0
VERTEX
8
PART
10
196.003
20
84.8207
0
VERTEX
8
PART
10
196.161
20
86.0632
0
VERTEX
8
PART
10
196.631
20
90.2955
0
VERTEX
8
PART
10
196.747
20
91.2127
0
VERTEX
8
PART
10
196.757
20
93.4124
0
VERTEX
8
PART
10
196.765
20
93.8559
0
VERTEX
8
PART
10
196.914
20
97.1187
0
VERTEX
8
PART
10
196.926
20
97.3879
0
VERTEX
8
PART
10
197.163
20
100.761
0
VERTEX
8
PART
10
197.166
20
100.801
0
VERTEX
8
PART
10
197.215
20
101.402
0
VERTEX
8
PART
10
197.372
20
105.018
0
VERTEX
8
PART
10
197.38
20
105.099
0
VERTEX
8
PART
10
197.503
20
108.647
0
VERTEX
8
PART
10
197.517
20
108.799
0
VERTEX
8
PART
10
197.952
20
112.303
0
VERTEX
8
PART
10
197.922
20
112.773
0
VERTEX
8
PART
10
197.968
20
113.234
0
VERTEX
8
PART
10
198.266
20
116.889
0
VERTEX
8
PART
10
198.344
20
117.729
0
VERTEX
8
PART
10
198.47
20
120.04
0
VERTEX
8
PART
10
198.605
20
121.446
0
VERTEX
8
PART
10
198.543
20
123.175
0
VERTEX
8
PART
10
198.728
20
124.93
0
VERTEX
8
PART
10
198.817
20
126.256
0
VERTEX
8
PART
10
198.89
20
128.965
0
VERTEX
8
PART
10
198.957
20
129.586
0
VERTEX
8
PART
10
198.563
20
132.629
0
VERTEX
8
PART
10
198.086
20
134.227
0
VERTEX
8
PART
10
197.06
20
136.66
0
VERTEX
8
PART
10
195.151
20
139.447
0
VERTEX
8
PART
10
194.975
20
139.777
0
VERTEX
8
PART
10
194.706
20
140.109
0
VERTEX
8
PART
10
192.907
20
143.61
0
VERTEX
8
PART
10
190.138
20
146.336
0
VERTEX
8
PART
10
188.927
20
148.065
0
VERTEX
8
PART
10
188.692
20
148.078
0
VERTEX
8
PART
10
188.433
20
148.202
0
VERTEX
8
PART
10
188.243
20
148.374
0
VERTEX
8
PART
10
187.743
20
148.862
0
VERTEX
8
PART
10
187.446
20
149.208
0
VERTEX
8
PART
10
187.09
20
149.652
0
VERTEX
8
PART
10
186.814
20
150
0
VERTEX
8
PART
10
186.453
20
149.993
0
VERTEX
8
PART
10
183.132
20
149.79
0
SEQEND
0
TEXT
8
TEXT
10
183.822
20
89.9963
40
6
1
X13.1
50
273.844
0
POLYLINE
8
PART
10
0
20
0
66
1
70
1
62
1
0
VERTEX
8
PART
10
76.491
20
228.95
0
VERTEX
8
PART
10
76.4001
20
228.923
0
VERTEX
8
PART
10
74.0277
20
228.102
0
VERTEX
8
PART
10
71.9517
20
227.413
0
VERTEX
8
PART
10
71.9512
20
227.402
0
VERTEX
8
PART
10
71.9989
20
227.227
0
VERTEX
8
PART
10
71.9971
20
227.012
0
VERTEX
8
PART
10
71.9534
20
226.704
0
VERTEX
8
PART
10
71.9975
20
226.333
0
VERTEX
8
PART
10
71.9648
20
226.044
0
VERTEX
8
PART
10
71.9881
20
225.748
0
VERTEX
8
PART
10
71.9502
20
225.3
0
VERTEX
8
PART
10
71.9805
20
225.093
0
VERTEX
8
PART
10
71.792
20
224.426
0
VERTEX
8
PART
10
71.8058
20
224.261
0
VERTEX
8
PART
10
71.7426
20
223.958
0
VERTEX
8
PART
10
71.6426
20
223.277
0
VERTEX
8
PART
10
71.5781
20
223.062
0
VERTEX
8
PART
10
71.4978
20
222.418
0
VERTEX
8
PART
10
71.4616
20
222.254
0
VERTEX
8
PART
10
71.375
20
221.853
0
VERTEX
8
PART
10
71.0968
20
221.141
0
VERTEX
8
PART
10
71
20
220.575
0
VERTEX
8
PART
10
71.0857
20
220.329
0
VERTEX
8
PART
10
71.1738
20
220.091
0
VERTEX
8
PART
10
71.2855
20
219.771
0
VERTEX
8
PART
10
71.5906
20
218.932
0
VERTEX
8
PART
10
71.7167
20
218.554
0
VERTEX
8
PART
10
71.8401
20
218.174
0
VERTEX
8
PART
10
72.0888
20
217.45
0
VERTEX
8
PART
10
72.5474
20
216.327
0
VERTEX
8
PART
10
72.7424
20
215.826
0
VERTEX
8
PART
10
72.9998
20
215.269
0
VERTEX
8
PART
10
73.1925
20
214.789
0
VERTEX
8
PART
10
73.4578
20
214.209
0
VERTEX
8
PART
10
73.6433
20
213.83
0
VERTEX
8
PART
10
73.8642
20
213.296
0
VERTEX
8
PART
10
74.0762
20
212.852
0
VERTEX
8
PART
10
74.283
20
212.331
0
VERTEX
8
PART
10
74.4958
20
211.899
0
VERTEX
8
PART
10
74.7206
20
211.407
0
VERTEX
8
PART
10
74.9078
20
210.92
0
VERTEX
8
PART
10
75.0819
20
210.448
0
VERTEX
8
PART
10
75.3358
20
209.871
0
VERTEX
8
PART
10
75.633
20
209.163
0
VERTEX
8
PART
10
75.8957
20
208.509
0
VERTEX
8
PART
10
76.1069
20
207.92
0
VERTEX
8
PART
10
76.2242
20
207.576
0
VERTEX
8
PART
10
76.4886
20
206.899
0
VERTEX
8
PART
10
76.6201
20
206.41
0
VERTEX
8
PART
10
76.9514
20
205.577
0
VERTEX
8
PART
10
77.0529
20
205.075
0
VERTEX
8
PART
10
77.3022
20
204.307
0
VERTEX
8
PART
10
77.3305
20
203.768
0
VERTEX
8
PART
10
77.4744
20
203.166
0
VERTEX
8
PART
10
77.4564
20
202.606
0
VERTEX
8
PART
10
77.4649
20
201.795
0
VERTEX
8
PART
10
77.4124
20
201.217
0
VERTEX
8
PART
10
77.3998
20
200.228
0
VERTEX
8
PART
10
77.3549
20
199.671
0
VERTEX
8
PART
10
77.2799
20
198.401
0
VERTEX
8
PART
10
77.2579
20
197.902
0
VERTEX
8
PART
10
77.2446
20
197.383
0
VERTEX
8
PART
10
77.1922
20
195.976
0
VERTEX
8
PART
10
77.1862
20
195.725
0
VERTEX
8
PART
10
77.1681
20
195.353
0
VERTEX
8
PART
10
77.1552
20
193.887
0
VERTEX
8
PART
10
77.1269
20
193.578
0
VERTEX
8
PART
10
77.0856
20
193.134
0
VERTEX
8
PART
10
76.9939
20
191.545
0
VERTEX
8
PART
10
76.9641
20
191.222
0
VERTEX
8
PART
10
76.802
20
189.557
0
VERTEX
8
PART
10
76.7907
20
189.246
0
VERTEX
8
PART
10
76.7801
20
188.996
0
VERTEX
8
PART
10
76.762
20
188.667
0
VERTEX
8
PART
10
84.789
20
184.029
0
VERTEX
8
PART
10
82.4874
20
180.046
0
VERTEX
8
PART
10
76.4112
20
183.557
0
VERTEX
8
PART
10
76.3976
20
183.409
0
VERTEX
8
PART
10
76.3235
20
183.203
0
VERTEX
8
PART
10
76.1738
20
182.264
0
VERTEX
8
PART
10
76.1371
20
182.172
0
VERTEX
8
PART
10
75.9386
20
181.29
0
VERTEX
8
PART
10
75.8984
20
181.199
0
VERTEX
8
PART
10
75.5832
20
180.217
0
VERTEX
8
PART
10
75.5423
20
180.122
0
VERTEX
8
PART
10
75.1405
20
179.044
0
VERTEX
8
PART
10
75.1012
20
178.956
0
VERTEX
8
PART
10
74.5873
20
177.661
0
VERTEX
8
PART
10
74.5548
20
177.588
0
VERTEX
8
PART
10
74.5275
20
177.527
0
VERTEX
8
PART
10
73.9758
20
176.322
0
VERTEX
8
PART
10
73.9537
20
176.273
0
VERTEX
8
PART
10
73.3545
20
174.934
0
VERTEX
8
PART
10
73.3429
20
174.909
0
VERTEX
8
PART
10
73.3342
20
174.89
0
VERTEX
8
PART
10
72.6963
20
173.505
0
VERTEX
8
PART
10
72.6941
20
173.499
0
VERTEX
8
PART
10
72.6919
20
173.494
0
VERTEX
8
PART
10
72.5119
20
173.1
0
VERTEX
8
PART
10
72.1361
20
172.079
0
VERTEX
8
PART
10
72.0628
20
171.85
0
VERTEX
8
PART
10
71.6688
20
170.713
0
VERTEX
8
PART
10
71.4505
20
169.971
0
VERTEX
8
PART
10
71.2426
20
169.348
0
VERTEX
8
PART
10
71
20
168.364
0
VERTEX
8
PART
10
73.6493
20
167.108
0
VERTEX
8
PART
10
77.5096
20
165.261
0
VERTEX
8
PART
10
78.4515
20
165.594
0
VERTEX
8
PART
10
79.2446
20
165.94
0
VERTEX
8
PART
10
81.5064
20
166.772
0
VERTEX
8
PART
10
82.5386
20
167.166
0
VERTEX
8
PART
10
84.4278
20
168.19
0
VERTEX
8
PART
10
84.673
20
168.301
0
VERTEX
8
PART
10
85.358
20
168.71
0
VERTEX
8
PART
10
86.0049
20
169.56
0
VERTEX
8
PART
10
86.6045
20
170.304
0
VERTEX
8
PART
10
87.2163
20
171.097
0
VERTEX
8
PART
10
87.6235
20
171.652
0
VERTEX
8
PART
10
88.5568
20
172.648
0
VERTEX
8
PART
10
89.2348
20
174.333
0
VERTEX
8
PART
10
89.3291
20
174.579
0
VERTEX
8
PART
10
89.9397
20
175.877
0
VERTEX
8
PART
10
89.9543
20
175.908
0
VERTEX
8
PART
10
90.0787
20
176.253
0
VERTEX
8
PART
10
90.2048
20
176.622
0
VERTEX
8
PART
10
90.9428
20
178.939
0
VERTEX
8
PART
10
90.9726
20
179.041
0
VERTEX
8
PART
10
90.985
20
179.108
0
VERTEX
8
PART
10
91.1812
20
180.528
0
VERTEX
8
PART
10
91.2488
20
181.115
0
VERTEX
8
PART
10
91.2747
20
181.406
0
VERTEX
8
PART
10
91.2692
20
181.54
0
VERTEX
8
PART
10
91.1665
20
183.424
0
VERTEX
8
PART
10
91.092
20
184.407
0
VERTEX
8
PART
10
91.0651
20
184.759
0
VERTEX
8
PART
10
90.8732
20
185.854
0
VERTEX
8
PART
10
90.7157
20
187
0
VERTEX
8
PART
10
90.5616
20
189.581
0
VERTEX
8
PART
10
90.4957
20
190.607
0
VERTEX
8
PART
10
90.4034
20
191.903
0
VERTEX
8
PART
10
90.3062
20
192.905
0
VERTEX
8
PART
10
90.2457
20
194.106
0
VERTEX
8
PART
10
90.2309
20
195.574
0
VERTEX
8
PART
10
90.2271
20
195.749
0
VERTEX
8
PART
10
82.2778
20
200.343
0
VERTEX
8
PART
10
84.5795
20
204.326
0
VERTEX
8
PART
10
90.1471
20
201.108
0
VERTEX
8
PART
10
90.1723
20
201.491
0
VERTEX
8
PART
10
90.2914
20
202.321
0
VERTEX
8
PART
10
90.2975
20
202.368
0
VERTEX
8
PART
10
90.2923
20
202.435
0
VERTEX
8
PART
10
90.1723
20
203.761
0
VERTEX
8
PART
10
90.1261
20
204.208
0
VERTEX
8
PART
10
90.0749
20
204.615
0
VERTEX
8
PART
10
90.0561
20
204.696
0
VERTEX
8
PART
10
89.3563
20
206.976
0
VERTEX
8
PART
10
89.2656
20
207.236
0
VERTEX
8
PART
10
88.9575
20
207.965
0
VERTEX
8
PART
10
88.7338
20
208.46
0
VERTEX
8
PART
10
87.7501
20
210.321
0
VERTEX
8
PART
10
86.8403
20
212.194
0
VERTEX
8
PART
10
86.7928
20
212.283
0
VERTEX
8
PART
10
86.0952
20
213.509
0
VERTEX
8
PART
10
86.0388
20
213.595
0
VERTEX
8
PART
10
85.8375
20
213.862
0
VERTEX
8
PART
10
85.3695
20
214.429
0
VERTEX
8
PART
10
84.4224
20
215.646
0
VERTEX
8
PART
10
84.4213
20
215.648
0
VERTEX
8
PART
10
84.4182
20
215.654
0
VERTEX
8
PART
10
84.412
20
215.659
0
VERTEX
8
PART
10
83.6298
20
216.391
0
VERTEX
8
PART
10
81.6395
20
220.861
0
VERTEX
8
PART
10
80.3983
20
223.595
0
VERTEX
8
PART
10
80.0058
20
224.479
0
VERTEX
8
PART
10
79.466
20
225.75
0
VERTEX
8
PART
10
79.2033
20
226.258
0
VERTEX
8
PART
10
78.7482
20
226.865
0
VERTEX
8
PART
10
78.6507
20
227.019
0
VERTEX
8
PART
10
78.5474
20
227.169
0
VERTEX
8
PART
10
78.4294
20
227.324
0
VERTEX
8
PART
10
78.282
20
227.5
0
VERTEX
8
PART
10
78.0553
20
227.727
0
VERTEX
8
PART
10
77.503
20
228.221
0
VERTEX
8
PART
10
77.1604
20
228.567
0
VERTEX
8
PART
10
76.6836
20
228.95
0
VERTEX
8
PART
10
76.648
20
229
0
SEQEND
0
TEXT
8
TEXT
10
80.7461
20
181.123
40
4
1
X13.2
50
239.977
0
POLYLINE
8
PART
10
0
20
0
66
1
70
1
62
1
0
VERTEX
8
PART
10
101.593
20
89.8701
0
VERTEX
8
PART
10
101.59
20
89.8583
0
VERTEX
8
PART
10
100.95
20
87.32
0
VERTEX
8
PART
10
100.897
20
87.0129
0
VERTEX
8
PART
10
100.685
20
85.8899
0
VERTEX
8
PART
10
107.485
20
86.166
0
VERTEX
8
PART
10
107.672
20
81.5698
0
VERTEX
8
PART
10
100.08
20
81.2616
0
VERTEX
8
PART
10
100.078
20
81.2427
0
VERTEX
8
PART
10
100.008
20
80.4931
0
VERTEX
8
PART
10
99.7384
20
78.1479
0
VERTEX
8
PART
10
99.6919
20
77.3512
0
VERTEX
8
PART
10
99.4331
20
75.3237
0
VERTEX
8
PART
10
99.3278
20
74.1871
0
VERTEX
8
PART
10
99.2568
20
73.0364
0
VERTEX
8
PART
10
99.0606
20
71.5256
0
VERTEX
8
PART
10
99.0111
20
71.154
0
VERTEX
8
PART
10
98.608
20
68.3223
0
VERTEX
8
PART
10
108.381
20
68.719
0
VERTEX
8
PART
10
108.568
20
64.1228
0
VERTEX
8
PART
10
97.9489
20
63.6917
0
VERTEX
8
PART
10
97.537
20
60.7976
0
VERTEX
8
PART
10
97.4428
20
59.9663
0
VERTEX
8
PART
10
97.3184
20
58.546
0
VERTEX
8
PART
10
97
20
48.3801
0
VERTEX
8
PART
10
97.0047
20
48.208
0
VERTEX
8
PART
10
97.1527
20
47.8542
0
VERTEX
8
PART
10
103.657
20
48.0365
0
VERTEX
8
PART
10
106.921
20
47.8542
0
VERTEX
8
PART
10
108.77
20
47.9706
0
VERTEX
8
PART
10
115.07
20
48.6555
0
VERTEX
8
PART
10
117.633
20
48.4899
0
VERTEX
8
PART
10
117.954
20
48.4714
0
VERTEX
8
PART
10
121.109
20
48.5093
0
VERTEX
8
PART
10
120.965
20
54.7573
0
VERTEX
8
PART
10
118.782
20
65.1888
0
VERTEX
8
PART
10
118.467
20
69.828
0
VERTEX
8
PART
10
118.234
20
70.9027
0
VERTEX
8
PART
10
116.793
20
78.9951
0
VERTEX
8
PART
10
116.722
20
79.4254
0
VERTEX
8
PART
10
116.33
20
82.0132
0
VERTEX
8
PART
10
116.08
20
82.342
0
VERTEX
8
PART
10
114.386
20
84.8573
0
VERTEX
8
PART
10
111.095
20
87.8248
0
VERTEX
8
PART
10
106.898
20
89.0544
0
VERTEX
8
PART
10
102.163
20
89.9057
0
VERTEX
8
PART
10
101.624
20
90
0
SEQEND
0
TEXT
8
TEXT
10
115.713
20
58.3141
40
4
1
X14.1
50
182.325
0
POLYLINE
8
PART
10
0
20
0
66
1
70
1
62
1
0
VERTEX
8
PART
10
58.3277
20
27.8551
0
VERTEX
8
PART
10
59.6564
20
28.2649
0
VERTEX
8
PART
10
59.8929
20
29.0867
0
VERTEX
8
PART
10
59.895
20
29.2174
0
VERTEX
8
PART
10
60.0348
20
29.7505
0
VERTEX
8
PART
10
60.0319
20
29.9249
0
VERTEX
8
PART
10
60.1004
20
30.3494
0
VERTEX
8
PART
10
60.0951
20
30.7775
0
VERTEX
8
PART
10
60.1303
20
31.1447
0
VERTEX
8
PART
10
60.1834
20
31.4469
0
VERTEX
8
PART
10
60.2811
20
31.8716
0
VERTEX
8
PART
10
60.3112
20
32.1411
0
VERTEX
8
PART
10
60.442
20
32.6762
0
VERTEX
8
PART
10
60.4675
20
32.8821
0
VERTEX
8
PART
10
60.5503
20
33.5692
0
VERTEX
8
PART
10
60.5566
20
33.668
0
VERTEX
8
PART
10
60.8085
20
34.3482
0
VERTEX
8
PART
10
60.7947
20
34.4242
0
VERTEX
8
PART
10
60.7937
20
34.4259
0
VERTEX
8
PART
10
60.8988
20
35.2129
0
VERTEX
8
PART
10
60.8583
20
35.263
0
VERTEX
8
PART
10
60.5881
20
35.8605
0
VERTEX
8
PART
10
60.5203
20
35.9523
0
VERTEX
8
PART
10
60.312
20
36.6685
0
VERTEX
8
PART
10
60.1304
20
37.2015
0
VERTEX
8
PART
10
60.0706
20
37.2988
0
VERTEX
8
PART
10
59.9766
20
37.4435
0
VERTEX
8
PART
10
59.809
20
38.0342
0
VERTEX
8
PART
10
59.7163
20
38.4591
0
VERTEX
8
PART
10
59.654
20
38.5694
0
VERTEX
8
PART
10
59.5625
20
38.7688
0
VERTEX
8
PART
10
59.4203
20
39.3326
0
VERTEX
8
PART
10
59.3223
20
40.0462
0
VERTEX
8
PART
10
59.254
20
40.1976
0
VERTEX
8
PART
10
59.1732
20
40.4137
0
VERTEX
8
PART
10
59.1142
20
40.5644
0
VERTEX
8
PART
10
59.0399
20
40.7676
0
VERTEX
8
PART
10
58.7793
20
41.706
0
VERTEX
8
PART
10
58.7373
20
42.0652
0
VERTEX
8
PART
10
58.7046
20
42.3973
0
VERTEX
8
PART
10
58.7965
20
43.8388
0
VERTEX
8
PART
10
58.7004
20
44.1315
0
VERTEX
8
PART
10
58.488
20
44.4778
0
VERTEX
8
PART
10
58.4128
20
44.7323
0
VERTEX
8
PART
10
51.4825
20
43.5431
0
VERTEX
8
PART
10
50.7046
20
48.0769
0
VERTEX
8
PART
10
57.2684
20
49.2032
0
VERTEX
8
PART
10
57.0885
20
49.9167
0
VERTEX
8
PART
10
57.039
20
50.1646
0
VERTEX
8
PART
10
56.9542
20
50.4852
0
VERTEX
8
PART
10
56.4135
20
51.6699
0
VERTEX
8
PART
10
56.392
20
52.3852
0
VERTEX
8
PART
10
56.2623
20
53.8428
0
VERTEX
8
PART
10
56.4284
20
54.8257
0
VERTEX
8
PART
10
56.4514
20
54.9431
0
VERTEX
8
PART
10
56.4641
20
54.9618
0
VERTEX
8
PART
10
56.469
20
54.9814
0
VERTEX
8
PART
10
56.4741
20
55.0057
0
VERTEX
8
PART
10
56.479
20
55.0423
0
VERTEX
8
PART
10
56.4998
20
55.1509
0
VERTEX
8
PART
10
57.093
20
58.9388
0
VERTEX
8
PART
10
57.1273
20
61.8288
0
VERTEX
8
PART
10
57.1435
20
62.2388
0
VERTEX
8
PART
10
48.6897
20
60.7882
0
VERTEX
8
PART
10
47.9118
20
65.3219
0
VERTEX
8
PART
10
58.0337
20
67.0588
0
VERTEX
8
PART
10
58.0579
20
67.397
0
VERTEX
8
PART
10
58.2484
20
68.1027
0
VERTEX
8
PART
10
58.314
20
68.7545
0
VERTEX
8
PART
10
58.3566
20
69.3608
0
VERTEX
8
PART
10
58.346
20
69.5672
0
VERTEX
8
PART
10
58.4888
20
70.1966
0
VERTEX
8
PART
10
58.5605
20
71.0866
0
VERTEX
8
PART
10
58.5291
20
71.8684
0
VERTEX
8
PART
10
58.5233
20
71.931
0
VERTEX
8
PART
10
58.5127
20
72.5433
0
VERTEX
8
PART
10
58.6321
20
73.4115
0
VERTEX
8
PART
10
58.5743
20
74.0353
0
VERTEX
8
PART
10
58.5512
20
74.9394
0
VERTEX
8
PART
10
58.5135
20
75.617
0
VERTEX
8
PART
10
58.5781
20
76.5181
0
VERTEX
8
PART
10
58.5596
20
77.2306
0
VERTEX
8
PART
10
58.576
20
78.2771
0
VERTEX
8
PART
10
58.6293
20
79.0659
0
VERTEX
8
PART
10
58.6736
20
79.8322
0
VERTEX
8
PART
10
58.6779
20
80.2263
0
VERTEX
8
PART
10
51.0217
20
78.9126
0
VERTEX
8
PART
10
50.2437
20
83.4463
0
VERTEX
8
PART
10
58.4386
20
84.8525
0
VERTEX
8
PART
10
58.4391
20
85.4903
0
VERTEX
8
PART
10
58.4427
20
86.3377
0
VERTEX
8
PART
10
58.4025
20
87.0036
0
VERTEX
8
PART
10
58.4241
20
87.8645
0
VERTEX
8
PART
10
58.4142
20
88.5457
0
VERTEX
8
PART
10
58.3801
20
89.3874
0
VERTEX
8
PART
10
58.3937
20
90.0401
0
VERTEX
8
PART
10
58.42
20
90.9799
0
VERTEX
8
PART
10
58.4073
20
91.6965
0
VERTEX
8
PART
10
58.3715
20
92.5097
0
VERTEX
8
PART
10
58.3564
20
93.1659
0
VERTEX
8
PART
10
58.3641
20
93.9566
0
VERTEX
8
PART
10
58.4283
20
94.4912
0
VERTEX
8
PART
10
58.5151
20
95.2077
0
VERTEX
8
PART
10
58.5245
20
95.7956
0
VERTEX
8
PART
10
58.7698
20
96.4963
0
VERTEX
8
PART
10
58.8695
20
96.9283
0
VERTEX
8
PART
10
59.0065
20
98.007
0
VERTEX
8
PART
10
51.3508
20
96.6933
0
VERTEX
8
PART
10
50.5728
20
101.227
0
VERTEX
8
PART
10
59.4416
20
102.749
0
VERTEX
8
PART
10
59.5355
20
103.993
0
VERTEX
8
PART
10
59.5469
20
104.705
0
VERTEX
8
PART
10
59.5488
20
104.742
0
VERTEX
8
PART
10
59.7675
20
106.327
0
VERTEX
8
PART
10
59.846
20
107.013
0
VERTEX
8
PART
10
60.152
20
108.647
0
VERTEX
8
PART
10
60.2298
20
109.38
0
VERTEX
8
PART
10
60.4523
20
111.095
0
VERTEX
8
PART
10
60.4812
20
111.752
0
VERTEX
8
PART
10
60.6487
20
113.558
0
VERTEX
8
PART
10
60.6551
20
114.118
0
VERTEX
8
PART
10
60.8715
20
116.012
0
VERTEX
8
PART
10
60.8988
20
116.489
0
VERTEX
8
PART
10
60.8594
20
118.46
0
VERTEX
8
PART
10
60.8415
20
118.826
0
VERTEX
8
PART
10
60.8577
20
118.841
0
VERTEX
8
PART
10
60.7611
20
120.896
0
VERTEX
8
PART
10
60.768
20
121.161
0
VERTEX
8
PART
10
60.5551
20
123.311
0
VERTEX
8
PART
10
60.5629
20
123.478
0
VERTEX
8
PART
10
60.3231
20
125.727
0
VERTEX
8
PART
10
60.3239
20
125.748
0
VERTEX
8
PART
10
60.2726
20
126
0
VERTEX
8
PART
10
59.7227
20
125.725
0
VERTEX
8
PART
10
56.3713
20
123.831
0
VERTEX
8
PART
10
52.3964
20
121.12
0
VERTEX
8
PART
10
49.9515
20
119.445
0
VERTEX
8
PART
10
48.9544
20
118.674
0
VERTEX
8
PART
10
53.1984
20
119.402
0
VERTEX
8
PART
10
53.9763
20
114.868
0
VERTEX
8
PART
10
44.1322
20
113.179
0
VERTEX
8
PART
10
42.9571
20
111.72
0
VERTEX
8
PART
10
42.883
20
111.21
0
VERTEX
8
PART
10
42.8808
20
111.138
0
VERTEX
8
PART
10
42.8778
20
111.067
0
VERTEX
8
PART
10
42.5495
20
103.963
0
VERTEX
8
PART
10
42.5304
20
103.517
0
VERTEX
8
PART
10
42.6082
20
99.3458
0
VERTEX
8
PART
10
42.6223
20
99.057
0
VERTEX
8
PART
10
43.0243
20
93.9651
0
VERTEX
8
PART
10
43.042
20
93.5721
0
VERTEX
8
PART
10
43.0242
20
93.1373
0
VERTEX
8
PART
10
42.9655
20
92.4482
0
VERTEX
8
PART
10
42.9906
20
85.3568
0
VERTEX
8
PART
10
42.8803
20
84.4449
0
VERTEX
8
PART
10
42.6673
20
83.2523
0
VERTEX
8
PART
10
42.7468
20
78.1313
0
VERTEX
8
PART
10
42.4603
20
76.7553
0
VERTEX
8
PART
10
42.1177
20
73.3838
0
VERTEX
8
PART
10
41.8365
20
71.8527
0
VERTEX
8
PART
10
41.166
20
69.4248
0
VERTEX
8
PART
10
40.8833
20
67.4892
0
VERTEX
8
PART
10
40.2264
20
64.9175
0
VERTEX
8
PART
10
40.0914
20
64.1599
0
VERTEX
8
PART
10
39.4088
20
63.2164
0
VERTEX
8
PART
10
39
20
61.1615
0
VERTEX
8
PART
10
39.2161
20
58.0951
0
VERTEX
8
PART
10
39.305
20
57.2378
0
VERTEX
8
PART
10
39.3573
20
56.6613
0
VERTEX
8
PART
10
40.5707
20
53.3121
0
VERTEX
8
PART
10
41.2972
20
51.6081
0
VERTEX
8
PART
10
41.6641
20
50.6966
0
VERTEX
8
PART
10
42.9061
20
48.4085
0
VERTEX
8
PART
10
43.7346
20
46.386
0
VERTEX
8
PART
10
44.6956
20
43.6856
0
VERTEX
8
PART
10
44.8972
20
43.0452
0
VERTEX
8
PART
10
45.9006
20
39.6724
0
VERTEX
8
PART
10
45.9412
20
39.5608
0
VERTEX
8
PART
10
46.187
20
38.9089
0
VERTEX
8
PART
10
47.7352
20
36.1443
0
VERTEX
8
PART
10
48.6499
20
34.5322
0
VERTEX
8
PART
10
49.7763
20
33.7853
0
VERTEX
8
PART
10
49.9318
20
33.6723
0
VERTEX
8
PART
10
50.1291
20
33.5377
0
VERTEX
8
PART
10
50.3542
20
33.3625
0
VERTEX
8
PART
10
52.1175
20
31.9009
0
VERTEX
8
PART
10
52.455
20
31.5973
0
VERTEX
8
PART
10
52.7956
20
31.2462
0
VERTEX
8
PART
10
53.0629
20
30.993
0
VERTEX
8
PART
10
53.4199
20
30.7409
0
VERTEX
8
PART
10
53.7344
20
30.355
0
VERTEX
8
PART
10
54.0486
20
29.9425
0
VERTEX
8
PART
10
54.3993
20
29.6453
0
VERTEX
8
PART
10
54.6902
20
29.2332
0
VERTEX
8
PART
10
55.0053
20
28.811
0
VERTEX
8
PART
10
55.3684
20
28.3782
0
VERTEX
8
PART
10
55.6976
20
28.1717
0
VERTEX
8
PART
10
56.0331
20
27.7872
0
VERTEX
8
PART
10
56.4641
20
27.4038
0
VERTEX
8
PART
10
56.6025
20
27.3024
0
SEQEND
0
TEXT
8
TEXT
10
45.2904
20
107.283
40
4
1
X14.2
50
9.73661
0
POLYLINE
8
PART
10
0
20
0
66
1
70
1
62
1
0
VERTEX
8
PART
10
20.1258
20
169.853
0
VERTEX
8
PART
10
20.4528
20
169.916
0
VERTEX
8
PART
10
21.4898
20
170.236
0
VERTEX
8
PART
10
22.1265
20
170.414
0
VERTEX
8
PART
10
22.8752
20
170.605
0
VERTEX
8
PART
10
24.185
20
170.936
0
VERTEX
8
PART
10
24.3151
20
170.994
0
VERTEX
8
PART
10
24.8614
20
171.237
0
VERTEX
8
PART
10
24.9904
20
171.574
0
VERTEX
8
PART
10
25.0039
20
171.607
0
VERTEX
8
PART
10
25.231
20
172.286
0
VERTEX
8
PART
10
25.2726
20
172.381
0
VERTEX
8
PART
10
25.4322
20
173.075
0
VERTEX
8
PART
10
25.4424
20
173.141
0
VERTEX
8
PART
10
25.4904
20
173.254
0
VERTEX
8
PART
10
25.7018
20
173.983
0
VERTEX
8
PART
10
25.8454
20
174.613
0
VERTEX
8
PART
10
25.988
20
174.947
0
VERTEX
8
PART
10
26.075
20
175.598
0
VERTEX
8
PART
10
26.1494
20
176.152
0
VERTEX
8
PART
10
26.2373
20
176.607
0
VERTEX
8
PART
10
26.2975
20
176.883
0
VERTEX
8
PART
10
26.3516
20
177.327
0
VERTEX
8
PART
10
26.3953
20
177.831
0
VERTEX
8
PART
10
26.4025
20
178.437
0
VERTEX
8
PART
10
26.4266
20
178.686
0
VERTEX
8
PART
10
26.3964
20
179.366
0
VERTEX
8
PART
10
26.4029
20
179.548
0
VERTEX
8
PART
10
26.4198
20
180.311
0
VERTEX
8
PART
10
26.4065
20
180.514
0
VERTEX
8
PART
10
26.3652
20
181.427
0
VERTEX
8
PART
10
26.3519
20
181.604
0
VERTEX
8
PART
10
26.4034
20
182.621
0
VERTEX
8
PART
10
26.4036
20
182.772
0
VERTEX
8
PART
10
26.3952
20
183.96
0
VERTEX
8
PART
10
26.3905
20
184.089
0
VERTEX
8
PART
10
26.4056
20
185.419
0
VERTEX
8
PART
10
26.4051
20
185.487
0
VERTEX
8
PART
10
26.4266
20
186.687
0
VERTEX
8
PART
10
26.2594
20
187.029
0
VERTEX
8
PART
10
26.2176
20
187.107
0
VERTEX
8
PART
10
25.3435
20
188.794
0
VERTEX
8
PART
10
25.0314
20
189.358
0
VERTEX
8
PART
10
24.2829
20
190.743
0
VERTEX
8
PART
10
23.8339
20
191.627
0
VERTEX
8
PART
10
23.4836
20
192.349
0
VERTEX
8
PART
10
22.7872
20
193.927
0
VERTEX
8
PART
10
22.6218
20
194.336
0
VERTEX
8
PART
10
21.9444
20
196
0
VERTEX
8
PART
10
21.1013
20
194.807
0
VERTEX
8
PART
10
21.0279
20
194.613
0
VERTEX
8
PART
10
20.3157
20
193.173
0
VERTEX
8
PART
10
20.1028
20
192.689
0
VERTEX
8
PART
10
19.6983
20
191.638
0
VERTEX
8
PART
10
19.5451
20
190.984
0
VERTEX
8
PART
10
19.2048
20
189.896
0
VERTEX
8
PART
10
19.0275
20
188.741
0
VERTEX
8
PART
10
18.8295
20
187.931
0
VERTEX
8
PART
10
18.705
20
185.809
0
VERTEX
8
PART
10
18.5941
20
185.225
0
VERTEX
8
PART
10
18.5172
20
184.783
0
VERTEX
8
PART
10
18.2799
20
183.1
0
VERTEX
8
PART
10
18.0066
20
181.603
0
VERTEX
8
PART
10
18.0047
20
181.588
0
VERTEX
8
PART
10
18
20
181.555
0
VERTEX
8
PART
10
18.1161
20
180.402
0
VERTEX
8
PART
10
18.1344
20
180.129
0
VERTEX
8
PART
10
18.1663
20
179.774
0
VERTEX
8
PART
10
18.6263
20
177.926
0
VERTEX
8
PART
10
18.6535
20
177.475
0
VERTEX
8
PART
10
18.4665
20
175.676
0
VERTEX
8
PART
10
18.3485
20
174.572
0
VERTEX
8
PART
10
18.3098
20
173.922
0
VERTEX
8
PART
10
18.9247
20
171.583
0
VERTEX
8
PART
10
19.0836
20
171.047
0
VERTEX
8
PART
10
19.2992
20
170.283
0
VERTEX
8
PART
10
19.3944
20
170.017
0
VERTEX
8
PART
10
19.4905
20
169.755
0
SEQEND
0
TEXT
8
TEXT
10
19.1058
20
186.107
40
2
1
X14.3
50
304.921
0
POLYLINE
8
PART
10
0
20
0
66
1
70
1
62
1
0
VERTEX
8
PART
10
21.2606
20
158.757
0
VERTEX
8
PART
10
25.8996
20
158.146
0
VERTEX
8
PART
10
27.2983
20
157.998
0
VERTEX
8
PART
10
27.378
20
157.936
0
VERTEX
8
PART
10
27.378
20
165.918
0
VERTEX
8
PART
10
27.2394
20
171
0
VERTEX
8
PART
10
23.3191
20
169.542
0
VERTEX
8
PART
10
20.3656
20
168.373
0
VERTEX
8
PART
10
20
20
165.486
0
SEQEND
0
TEXT
8
TEXT
10
21.8998
20
169.397
40
2
1
X15.1
50
271.284
0
POLYLINE
8
PART
10
0
20
0
66
1
70
1
62
1
0
VERTEX
8
PART
10
47.316
20
245.96
0
VERTEX
8
PART
10
47.4559
20
246.428
0
VERTEX
8
PART
10
47.6518
20
247.287
0
VERTEX
8
PART
10
47.873
20
248.166
0
VERTEX
8
PART
10
47.9418
20
248.542
0
VERTEX
8
PART
10
48.0613
20
249.347
0
VERTEX
8
PART
10
47.546
20
249.593
0
VERTEX
8
PART
10
47.4171
20
249.611
0
VERTEX
8
PART
10
46.5988
20
249.81
0
VERTEX
8
PART
10
46.3296
20
249.856
0
VERTEX
8
PART
10
45.5471
20
249.882
0
VERTEX
8
PART
10
45.0257
20
249.949
0
VERTEX
8
PART
10
44.3203
20
249.97
0
VERTEX
8
PART
10
43.528
20
249.993
0
VERTEX
8
PART
10
42.9889
20
250
0
VERTEX
8
PART
10
41.9315
20
249.889
0
VERTEX
8
PART
10
41.59
20
249.884
0
VERTEX
8
PART
10
40.2416
20
249.93
0
VERTEX
8
PART
10
40.1547
20
249.933
0
VERTEX
8
PART
10
39.7025
20
249.961
0
VERTEX
8
PART
10
39.0337
20
249.707
0
VERTEX
8
PART
10
38.9912
20
249.687
0
VERTEX
8
PART
10
38.9425
20
249.665
0
VERTEX
8
PART
10
37.7438
20
249.296
0
VERTEX
8
PART
10
36.8949
20
249.157
0
VERTEX
8
PART
10
36.7317
20
249.081
0
VERTEX
8
PART
10
35.8911
20
249.04
0
VERTEX
8
PART
10
35.6385
20
248.925
0
VERTEX
8
PART
10
35.2002
20
248.867
0
VERTEX
8
PART
10
34.9542
20
248.77
0
VERTEX
8
PART
10
34.3307
20
248.831
0
VERTEX
8
PART
10
33.7625
20
248.831
0
VERTEX
8
PART
10
33.3771
20
248.8
0
VERTEX
8
PART
10
33.1288
20
248.743
0
VERTEX
8
PART
10
32.5236
20
248.761
0
VERTEX
8
PART
10
32.1929
20
248.729
0
VERTEX
8
PART
10
31.6032
20
248.701
0
VERTEX
8
PART
10
31.0363
20
248.7
0
VERTEX
8
PART
10
30.304
20
248.699
0
VERTEX
8
PART
10
29.7423
20
248.692
0
VERTEX
8
PART
10
29.2304
20
248.704
0
VERTEX
8
PART
10
28.7063
20
248.722
0
VERTEX
8
PART
10
28.24
20
248.689
0
VERTEX
8
PART
10
27.7368
20
248.772
0
VERTEX
8
PART
10
26.9948
20
248.785
0
VERTEX
8
PART
10
26.669
20
248.768
0
VERTEX
8
PART
10
23.6332
20
241.477
0
VERTEX
8
PART
10
19.3866
20
243.245
0
VERTEX
8
PART
10
21.7134
20
248.833
0
VERTEX
8
PART
10
21.5931
20
248.827
0
VERTEX
8
PART
10
21.4352
20
248.881
0
VERTEX
8
PART
10
20.961
20
248.762
0
VERTEX
8
PART
10
20.5685
20
248.761
0
VERTEX
8
PART
10
20.3968
20
248.788
0
VERTEX
8
PART
10
19.7233
20
248.795
0
VERTEX
8
PART
10
19.5946
20
248.847
0
VERTEX
8
PART
10
19.1652
20
248.857
0
VERTEX
8
PART
10
19.0428
20
248.959
0
VERTEX
8
PART
10
18.2825
20
248.871
0
VERTEX
8
PART
10
18.17
20
248.886
0
VERTEX
8
PART
10
17.5492
20
248.842
0
VERTEX
8
PART
10
17.4374
20
248.874
0
VERTEX
8
PART
10
17.3519
20
248.895
0
VERTEX
8
PART
10
16.9013
20
248.901
0
VERTEX
8
PART
10
16.2204
20
248.893
0
VERTEX
8
PART
10
16.1541
20
248.912
0
VERTEX
8
PART
10
16.108
20
248.929
0
VERTEX
8
PART
10
15.6984
20
248.95
0
VERTEX
8
PART
10
14.9945
20
249.045
0
VERTEX
8
PART
10
14.9448
20
249.061
0
VERTEX
8
PART
10
14.8859
20
249.088
0
VERTEX
8
PART
10
14.4845
20
249.145
0
VERTEX
8
PART
10
13.9336
20
249.26
0
VERTEX
8
PART
10
13.5458
20
249.335
0
VERTEX
8
PART
10
13.0299
20
249.448
0
VERTEX
8
PART
10
13.0197
20
249.451
0
VERTEX
8
PART
10
12.8313
20
249.541
0
VERTEX
8
PART
10
12.2975
20
249.644
0
VERTEX
8
PART
10
12.2675
20
249.64
0
VERTEX
8
PART
10
11.6539
20
249.732
0
VERTEX
8
PART
10
11.5748
20
249.723
0
VERTEX
8
PART
10
11.0018
20
249.73
0
VERTEX
8
PART
10
10.8839
20
249.723
0
VERTEX
8
PART
10
10.3339
20
249.733
0
VERTEX
8
PART
10
10.173
20
249.718
0
VERTEX
8
PART
10
9.57233
20
249.677
0
VERTEX
8
PART
10
9.37259
20
249.711
0
VERTEX
8
PART
10
8.92649
20
249.74
0
VERTEX
8
PART
10
8.67463
20
249.726
0
VERTEX
8
PART
10
8.26824
20
249.751
0
VERTEX
8
PART
10
8.15705
20
249.755
0
VERTEX
8
PART
10
6.11635
20
244.854
0
VERTEX
8
PART
10
1.86977
20
246.622
0
VERTEX
8
PART
10
3.26062
20
249.962
0
VERTEX
8
PART
10
2.38109
20
250
0
VERTEX
8
PART
10
0.414559
20
246.362
0
VERTEX
8
PART
10
0
20
245.575
0
VERTEX
8
PART
10
2.58378
20
241.197
0
VERTEX
8
PART
10
3.60395
20
239.582
0
VERTEX
8
PART
10
4.29454
20
239.177
0
VERTEX
8
PART
10
5.45296
20
238.639
0
VERTEX
8
PART
10
6.28486
20
238.223
0
VERTEX
8
PART
10
6.99319
20
237.902
0
VERTEX
8
PART
10
9.64772
20
237.295
0
VERTEX
8
PART
10
10.2824
20
237.094
0
VERTEX
8
PART
10
12.6318
20
236.277
0
VERTEX
8
PART
10
12.9195
20
236.169
0
VERTEX
8
PART
10
13.2354
20
236.09
0
VERTEX
8
PART
10
13.6981
20
236.007
0
VERTEX
8
PART
10
14.0493
20
235.95
0
VERTEX
8
PART
10
14.5064
20
235.871
0
VERTEX
8
PART
10
14.7084
20
235.84
0
VERTEX
8
PART
10
15.0361
20
235.753
0
VERTEX
8
PART
10
16.1572
20
235.669
0
VERTEX
8
PART
10
16.6088
20
235.68
0
VERTEX
8
PART
10
16.8905
20
235.702
0
VERTEX
8
PART
10
18.58
20
235.911
0
VERTEX
8
PART
10
19.6417
20
236.023
0
VERTEX
8
PART
10
22.0195
20
236.207
0
VERTEX
8
PART
10
22.7831
20
236.274
0
VERTEX
8
PART
10
25.675
20
236.586
0
VERTEX
8
PART
10
25.8778
20
236.609
0
VERTEX
8
PART
10
27.1181
20
236.722
0
VERTEX
8
PART
10
28.3521
20
237.045
0
VERTEX
8
PART
10
29.7561
20
237.41
0
VERTEX
8
PART
10
30.0691
20
237.541
0
VERTEX
8
PART
10
30.0958
20
237.549
0
VERTEX
8
PART
10
30.1256
20
237.558
0
VERTEX
8
PART
10
30.1585
20
237.567
0
VERTEX
8
PART
10
32.8786
20
238.319
0
VERTEX
8
PART
10
33.0285
20
238.357
0
VERTEX
8
PART
10
33.1823
20
238.39
0
VERTEX
8
PART
10
34.4286
20
238.54
0
VERTEX
8
PART
10
34.6098
20
238.57
0
VERTEX
8
PART
10
34.799
20
238.605
0
VERTEX
8
PART
10
35.0676
20
238.664
0
VERTEX
8
PART
10
36.5195
20
238.947
0
VERTEX
8
PART
10
39.4402
20
245.961
0
VERTEX
8
PART
10
43.6867
20
244.193
0
VERTEX
8
PART
10
42.7684
20
241.987
0
VERTEX
8
PART
10
43.3354
20
242.363
0
VERTEX
8
PART
10
44.229
20
242.915
0
VERTEX
8
PART
10
44.6646
20
243.216
0
VERTEX
8
PART
10
45.6247
20
243.842
0
VERTEX
8
PART
10
46.7848
20
244.642
0
VERTEX
8
PART
10
46.8292
20
244.677
0
VERTEX
8
PART
10
46.9625
20
244.77
0
SEQEND
0
TEXT
8
TEXT
10
19.44
20
240.436
40
4
1
X15.2
50
157.394
0
POLYLINE
8
PART
10
0
20
0
66
1
70
1
62
1
0
VERTEX
8
PART
10
4.80439
20
133.88
0
VERTEX
8
PART
10
3.96434
20
133.778
0
VERTEX
8
PART
10
3.41553
20
133.692
0
VERTEX
8
PART
10
2.43656
20
133.634
0
VERTEX
8
PART
10
2.43838
20
133.583
0
VERTEX
8
PART
10
2.21682
20
133.181
0
VERTEX
8
PART
10
2.19645
20
133.115
0
VERTEX
8
PART
10
2.02602
20
132.589
0
VERTEX
8
PART
10
1.63097
20
132.166
0
VERTEX
8
PART
10
1.01119
20
131.447
0
VERTEX
8
PART
10
0.982565
20
131.386
0
VERTEX
8
PART
10
0.602929
20
130.884
0
VERTEX
8
PART
10
0.567548
20
130.774
0
VERTEX
8
PART
10
0.564194
20
130.749
0
VERTEX
8
PART
10
0.527364
20
130.236
0
VERTEX
8
PART
10
0.560664
20
129.897
0
VERTEX
8
PART
10
0.517219
20
129.7
0
VERTEX
8
PART
10
0.500851
20
129.302
0
VERTEX
8
PART
10
0.528908
20
128.895
0
VERTEX
8
PART
10
0.502495
20
128.692
0
VERTEX
8
PART
10
0.472154
20
128.228
0
VERTEX
8
PART
10
0.422753
20
127.985
0
VERTEX
8
PART
10
0.271286
20
127.493
0
VERTEX
8
PART
10
0.240107
20
127.297
0
VERTEX
8
PART
10
0.110788
20
126.687
0
VERTEX
8
PART
10
0.0943443
20
126.497
0
VERTEX
8
PART
10
0.0251596
20
125.799
0
VERTEX
8
PART
10
0
20
125.607
0
VERTEX
8
PART
10
0.0445537
20
124.879
0
VERTEX
8
PART
10
0.0274934
20
124.672
0
VERTEX
8
PART
10
0.0121018
20
124.457
0
VERTEX
8
PART
10
0.120265
20
123.541
0
VERTEX
8
PART
10
0.12275
20
123.295
0
VERTEX
8
PART
10
0.217713
20
122.208
0
VERTEX
8
PART
10
0.220626
20
121.937
0
VERTEX
8
PART
10
0.257413
20
121.645
0
VERTEX
8
PART
10
0.438575
20
120.644
0
VERTEX
8
PART
10
0.497018
20
120.313
0
VERTEX
8
PART
10
0.613015
20
119.249
0
VERTEX
8
PART
10
0.677302
20
118.882
0
VERTEX
8
PART
10
0.690935
20
118.792
0
VERTEX
8
PART
10
0.839876
20
117.929
0
VERTEX
8
PART
10
0.868805
20
117.763
0
VERTEX
8
PART
10
1.01044
20
116.581
0
VERTEX
8
PART
10
1.16123
20
115.591
0
VERTEX
8
PART
10
1.22706
20
114.795
0
VERTEX
8
PART
10
1.27186
20
114.422
0
VERTEX
8
PART
10
1.26237
20
113.844
0
VERTEX
8
PART
10
1.29762
20
113.463
0
VERTEX
8
PART
10
1.21234
20
112.842
0
VERTEX
8
PART
10
1.23518
20
112.467
0
VERTEX
8
PART
10
1.24136
20
112.128
0
VERTEX
8
PART
10
1.23316
20
111.844
0
VERTEX
8
PART
10
1.0958
20
110.82
0
VERTEX
8
PART
10
1.07982
20
110.58
0
VERTEX
8
PART
10
1.06455
20
110.363
0
VERTEX
8
PART
10
0.953823
20
109.845
0
VERTEX
8
PART
10
0.927883
20
109.587
0
VERTEX
8
PART
10
0.902894
20
109.282
0
VERTEX
8
PART
10
0.85992
20
108.93
0
VERTEX
8
PART
10
0.766887
20
108.373
0
VERTEX
8
PART
10
0.715014
20
107.976
0
VERTEX
8
PART
10
0.599575
20
107.538
0
VERTEX
8
PART
10
0.493416
20
107.166
0
VERTEX
8
PART
10
0.287939
20
105.529
0
VERTEX
8
PART
10
0.25979
20
105.258
0
VERTEX
8
PART
10
0.254975
20
105.074
0
VERTEX
8
PART
10
0.171831
20
104.482
0
VERTEX
8
PART
10
0.16266
20
104.412
0
VERTEX
8
PART
10
0.0896825
20
103.79
0
VERTEX
8
PART
10
0.077285
20
103.713
0
VERTEX
8
PART
10
0
20
102.253
0
VERTEX
8
PART
10
0.546172
20
101.794
0
VERTEX
8
PART
10
1.69279
20
100.808
0
VERTEX
8
PART
10
2.44924
20
100.162
0
VERTEX
8
PART
10
3.83766
20
98.6091
0
VERTEX
8
PART
10
5.83376
20
99.4856
0
VERTEX
8
PART
10
8.23711
20
100.201
0
VERTEX
8
PART
10
8.98628
20
102.612
0
VERTEX
8
PART
10
9.34522
20
103.808
0
VERTEX
8
PART
10
9.80739
20
105.313
0
VERTEX
8
PART
10
10.2866
20
106.608
0
VERTEX
8
PART
10
10.501
20
107.168
0
VERTEX
8
PART
10
10.6574
20
107.558
0
VERTEX
8
PART
10
11.1413
20
108.943
0
VERTEX
8
PART
10
11.2733
20
109.366
0
VERTEX
8
PART
10
11.4959
20
110.204
0
VERTEX
8
PART
10
11.4803
20
110.408
0
VERTEX
8
PART
10
11.3748
20
113.634
0
VERTEX
8
PART
10
11.3524
20
113.833
0
VERTEX
8
PART
10
3.99719
20
120.339
0
VERTEX
8
PART
10
7.04482
20
123.785
0
VERTEX
8
PART
10
9.73507
20
121.405
0
VERTEX
8
PART
10
9.52485
20
123.136
0
VERTEX
8
PART
10
9.26922
20
125.191
0
VERTEX
8
PART
10
8.68477
20
128.738
0
VERTEX
8
PART
10
8.14864
20
131.857
0
VERTEX
8
PART
10
6.19498
20
133.786
0
VERTEX
8
PART
10
5.9605
20
134
0
SEQEND
0
TEXT
8
TEXT
10
8.41344
20
113.996
40
2
1
X16.1
50
228.507
0
ENDSEC
0
EOF
