999
Creator: CLJ++
0
SECTION
2
HEADER
9
$ACADVER
1
AC1009
9
$EXTMIN
10
0
20
0
9
$EXTMAX
10
200
20
250
9
$LIMMIN
10
0
20
0
9
$LIMMAX
10
200
20
250
0
ENDSEC
0
SECTION
2
TABLES
0
TABLE
2
VPORT
70
1
0
VPORT
2
*Active
70
0
10
0
20
0
11
1
21
1
12
100
22
125
13
0
23
0
14
0.5
24
0.5
15
0.5
25
0.5
16
0
26
0
36
1
17
0
27
0
37
0
40
250
41
1
42
50
43
0
44
0
50
0
51
0
71
0
72
1
73
1
74
3
75
0
76
0
77
0
78
0
0
ENDTAB
0
TABLE
2
LTYPE
70
1
0
LTYPE
2
CONTINUOUS
70
0
3
Solid line
72
65
73
0
40
0
0
ENDTAB
0
TABLE
2
LAYER
70
4
0
LAYER
2
0
70
0
62
255
6
CONTINUOUS
0
LAYER
2
PART
70
0
62
3
6
CONTINUOUS
0
LAYER
2
TEXT
70
0
62
2
6
CONTINUOUS
0
LAYER
2
PLATE
70
0
62
4
6
CONTINUOUS
0
ENDTAB
0
ENDSEC
0
SECTION
2
ENTITIES
0
POLYLINE
8
PART
10
0
20
0
66
1
70
1
62
1
0
VERTEX
8
PART
10
0
20
229.093
0
VERTEX
8
PART
10
2.43861
20
231.841
0
VERTEX
8
PART
10
1.44072
20
234.366
0
VERTEX
8
PART
10
1.42386
20
235.027
0
VERTEX
8
PART
10
2.47481
20
237.325
0
VERTEX
8
PART
10
3.30942
20
241.914
0
VERTEX
8
PART
10
4.83781
20
249.094
0
VERTEX
8
PART
10
6.8507
20
249.741
0
VERTEX
8
PART
10
7.29864
20
249.789
0
VERTEX
8
PART
10
7.77579
20
249.798
0
VERTEX
8
PART
10
26.6662
20
249.983
0
VERTEX
8
PART
10
24.9974
20
234.442
0
VERTEX
8
PART
10
29.5711
20
233.951
0
VERTEX
8
PART
10
31.2945
20
250
0
VERTEX
8
PART
10
35.9341
20
250
0
VERTEX
8
PART
10
36.9341
20
249.92
0
VERTEX
8
PART
10
35.3361
20
235.038
0
VERTEX
8
PART
10
39.9098
20
234.547
0
VERTEX
8
PART
10
41.521
20
249.551
0
VERTEX
8
PART
10
43.0269
20
249.43
0
VERTEX
8
PART
10
46.1048
20
249.061
0
VERTEX
8
PART
10
52.4075
20
245.351
0
VERTEX
8
PART
10
59.9854
20
240.89
0
VERTEX
8
PART
10
59.9255
20
236.536
0
VERTEX
8
PART
10
59.6282
20
231.456
0
VERTEX
8
PART
10
55.0987
20
228.471
0
VERTEX
8
PART
10
52.0401
20
226.124
0
VERTEX
8
PART
10
49.1544
20
224.954
0
VERTEX
8
PART
10
50.2709
20
235.351
0
VERTEX
8
PART
10
45.6972
20
235.843
0
VERTEX
8
PART
10
44.3174
20
222.993
0
VERTEX
8
PART
10
44.1163
20
222.912
0
VERTEX
8
PART
10
38.6253
20
220.696
0
VERTEX
8
PART
10
35.2906
20
219.614
0
VERTEX
8
PART
10
28.4463
20
217.354
0
VERTEX
8
PART
10
27.217
20
217.858
0
VERTEX
8
PART
10
21.8591
20
219.618
0
VERTEX
8
PART
10
19.8561
20
220.069
0
VERTEX
8
PART
10
17.8814
20
220.775
0
VERTEX
8
PART
10
19.4618
20
235.492
0
VERTEX
8
PART
10
14.8881
20
235.983
0
VERTEX
8
PART
10
13.4259
20
222.366
0
VERTEX
8
PART
10
10.5927
20
223.378
0
VERTEX
8
PART
10
0.480486
20
228.608
0
VERTEX
8
PART
10
0.386633
20
228.675
0
SEQEND
0
TEXT
8
TEXT
10
35.7096
20
229.255
40
6
1
Z1.1
50
173.871
0
POLYLINE
8
PART
10
0
20
0
66
1
70
1
62
1
0
VERTEX
8
PART
10
61.4705
20
244.211
0
VERTEX
8
PART
10
61.8792
20
246.899
0
VERTEX
8
PART
10
66.9835
20
248.515
0
VERTEX
8
PART
10
72.5302
20
250
0
VERTEX
8
PART
10
86.7061
20
249.979
0
VERTEX
8
PART
10
88.2999
20
249.982
0
VERTEX
8
PART
10
87.5115
20
242.908
0
VERTEX
8
PART
10
92.0832
20
242.398
0
VERTEX
8
PART
10
92.9293
20
249.99
0
VERTEX
8
PART
10
98.5811
20
250
0
VERTEX
8
PART
10
97.7778
20
242.792
0
VERTEX
8
PART
10
102.35
20
242.283
0
VERTEX
8
PART
10
103.208
20
249.99
0
VERTEX
8
PART
10
108.58
20
249.391
0
VERTEX
8
PART
10
114.432
20
248.712
0
VERTEX
8
PART
10
116.286
20
247.626
0
VERTEX
8
PART
10
118.709
20
246.14
0
VERTEX
8
PART
10
117.577
20
235.978
0
VERTEX
8
PART
10
122.149
20
235.469
0
VERTEX
8
PART
10
123.044
20
243.504
0
VERTEX
8
PART
10
125.441
20
242.051
0
VERTEX
8
PART
10
128.289
20
240.291
0
VERTEX
8
PART
10
127.908
20
234.738
0
VERTEX
8
PART
10
127.735
20
231.819
0
VERTEX
8
PART
10
124.926
20
230.235
0
VERTEX
8
PART
10
118.704
20
226.542
0
VERTEX
8
PART
10
112.428
20
224.275
0
VERTEX
8
PART
10
110.544
20
223.573
0
VERTEX
8
PART
10
111.888
20
235.633
0
VERTEX
8
PART
10
107.316
20
236.142
0
VERTEX
8
PART
10
105.715
20
221.774
0
VERTEX
8
PART
10
104.239
20
221.225
0
VERTEX
8
PART
10
100.929
20
220.257
0
VERTEX
8
PART
10
99.8588
20
219.934
0
VERTEX
8
PART
10
100.585
20
226.448
0
VERTEX
8
PART
10
96.0131
20
226.958
0
VERTEX
8
PART
10
95.069
20
218.486
0
VERTEX
8
PART
10
93.5692
20
218.033
0
VERTEX
8
PART
10
90.5265
20
219.31
0
VERTEX
8
PART
10
89.5554
20
219.717
0
VERTEX
8
PART
10
90.4163
20
227.442
0
VERTEX
8
PART
10
85.8446
20
227.951
0
VERTEX
8
PART
10
85.0456
20
220.782
0
VERTEX
8
PART
10
82.2623
20
221.353
0
VERTEX
8
PART
10
80.3243
20
221.725
0
VERTEX
8
PART
10
79.5178
20
221.885
0
VERTEX
8
PART
10
81.0876
20
235.971
0
VERTEX
8
PART
10
76.5159
20
236.481
0
VERTEX
8
PART
10
75.1075
20
223.844
0
VERTEX
8
PART
10
72.4506
20
225.541
0
VERTEX
8
PART
10
69.8593
20
227.455
0
VERTEX
8
PART
10
71.1372
20
238.921
0
VERTEX
8
PART
10
66.5655
20
239.431
0
VERTEX
8
PART
10
65.5829
20
230.614
0
VERTEX
8
PART
10
63.9029
20
231.855
0
VERTEX
8
PART
10
63.5193
20
232.791
0
VERTEX
8
PART
10
61
20
237.491
0
SEQEND
0
TEXT
8
TEXT
10
105.567
20
236.446
40
6
1
Z2.1
50
173.641
0
POLYLINE
8
PART
10
0
20
0
66
1
70
1
62
1
0
VERTEX
8
PART
10
130.27
20
246.729
0
VERTEX
8
PART
10
132.869
20
247.56
0
VERTEX
8
PART
10
137.533
20
249.033
0
VERTEX
8
PART
10
139.671
20
249.684
0
VERTEX
8
PART
10
140.681
20
250
0
VERTEX
8
PART
10
145.682
20
249.898
0
VERTEX
8
PART
10
147.075
20
249.912
0
VERTEX
8
PART
10
149.485
20
249.919
0
VERTEX
8
PART
10
151.107
20
249.903
0
VERTEX
8
PART
10
150.375
20
243.608
0
VERTEX
8
PART
10
154.944
20
243.077
0
VERTEX
8
PART
10
155.735
20
249.881
0
VERTEX
8
PART
10
159.662
20
249.91
0
VERTEX
8
PART
10
161.391
20
249.899
0
VERTEX
8
PART
10
160.553
20
242.691
0
VERTEX
8
PART
10
165.122
20
242.16
0
VERTEX
8
PART
10
166.023
20
249.909
0
VERTEX
8
PART
10
173.698
20
249.988
0
VERTEX
8
PART
10
173.793
20
249.988
0
VERTEX
8
PART
10
174.131
20
250
0
VERTEX
8
PART
10
181.105
20
249.144
0
VERTEX
8
PART
10
181.862
20
249.051
0
VERTEX
8
PART
10
180.447
20
236.878
0
VERTEX
8
PART
10
185.016
20
236.347
0
VERTEX
8
PART
10
186.297
20
247.368
0
VERTEX
8
PART
10
190.768
20
244.661
0
VERTEX
8
PART
10
191.583
20
244.199
0
VERTEX
8
PART
10
190.643
20
236.115
0
VERTEX
8
PART
10
195.212
20
235.584
0
VERTEX
8
PART
10
195.927
20
241.736
0
VERTEX
8
PART
10
198.681
20
240.175
0
VERTEX
8
PART
10
198.462
20
236.929
0
VERTEX
8
PART
10
198.085
20
231.43
0
VERTEX
8
PART
10
190.772
20
228.133
0
VERTEX
8
PART
10
188.599
20
227.14
0
VERTEX
8
PART
10
186.67
20
226.178
0
VERTEX
8
PART
10
177.058
20
223.242
0
VERTEX
8
PART
10
173.054
20
221.912
0
VERTEX
8
PART
10
174.613
20
235.324
0
VERTEX
8
PART
10
170.043
20
235.855
0
VERTEX
8
PART
10
168.264
20
220.543
0
VERTEX
8
PART
10
162.429
20
218.981
0
VERTEX
8
PART
10
163.248
20
226.032
0
VERTEX
8
PART
10
158.679
20
226.563
0
VERTEX
8
PART
10
157.88
20
219.686
0
VERTEX
8
PART
10
156.553
20
220.194
0
VERTEX
8
PART
10
155.423
20
220.421
0
VERTEX
8
PART
10
152.384
20
221.052
0
VERTEX
8
PART
10
153.235
20
228.367
0
VERTEX
8
PART
10
148.665
20
228.898
0
VERTEX
8
PART
10
147.858
20
221.952
0
VERTEX
8
PART
10
146.76
20
222.169
0
VERTEX
8
PART
10
145.728
20
222.409
0
VERTEX
8
PART
10
144.542
20
222.658
0
VERTEX
8
PART
10
142.446
20
224.029
0
VERTEX
8
PART
10
144.003
20
237.427
0
VERTEX
8
PART
10
139.434
20
237.958
0
VERTEX
8
PART
10
138.142
20
226.843
0
VERTEX
8
PART
10
135.163
20
228.79
0
VERTEX
8
PART
10
131.282
20
231.423
0
VERTEX
8
PART
10
130.488
20
234.6
0
VERTEX
8
PART
10
130
20
237.109
0
VERTEX
8
PART
10
130
20
240.003
0
VERTEX
8
PART
10
130.053
20
243.215
0
SEQEND
0
TEXT
8
TEXT
10
167.928
20
237.249
40
6
1
Z3.1
50
173.371
0
POLYLINE
8
PART
10
0
20
0
66
1
70
1
62
1
0
VERTEX
8
PART
10
81.9471
20
192.052
0
VERTEX
8
PART
10
81.9308
20
191.909
0
VERTEX
8
PART
10
80.8453
20
191.339
0
VERTEX
8
PART
10
79.6119
20
190.668
0
VERTEX
8
PART
10
76.1582
20
188.951
0
VERTEX
8
PART
10
75.0018
20
188.39
0
VERTEX
8
PART
10
72.3191
20
187.032
0
VERTEX
8
PART
10
66.8484
20
186.95
0
VERTEX
8
PART
10
65.7652
20
187.112
0
VERTEX
8
PART
10
65.5575
20
187.124
0
VERTEX
8
PART
10
66.2122
20
194.611
0
VERTEX
8
PART
10
61.6297
20
195.012
0
VERTEX
8
PART
10
60.9643
20
187.403
0
VERTEX
8
PART
10
59.6959
20
187.48
0
VERTEX
8
PART
10
58.857
20
187.644
0
VERTEX
8
PART
10
56.4953
20
188.099
0
VERTEX
8
PART
10
55.3977
20
188.212
0
VERTEX
8
PART
10
56.0619
20
195.809
0
VERTEX
8
PART
10
51.4794
20
196.209
0
VERTEX
8
PART
10
50.8409
20
188.907
0
VERTEX
8
PART
10
50.5526
20
188.966
0
VERTEX
8
PART
10
46.7076
20
189.728
0
VERTEX
8
PART
10
45.2956
20
189.96
0
VERTEX
8
PART
10
46.059
20
198.691
0
VERTEX
8
PART
10
41.4765
20
199.091
0
VERTEX
8
PART
10
40.6429
20
189.56
0
VERTEX
8
PART
10
39.4978
20
189.371
0
VERTEX
8
PART
10
34.9215
20
188.598
0
VERTEX
8
PART
10
36.1482
20
202.627
0
VERTEX
8
PART
10
31.5657
20
203.027
0
VERTEX
8
PART
10
30.2367
20
187.83
0
VERTEX
8
PART
10
24.5224
20
186.95
0
VERTEX
8
PART
10
25.7899
20
201.445
0
VERTEX
8
PART
10
21.2074
20
201.846
0
VERTEX
8
PART
10
20.0296
20
188.377
0
VERTEX
8
PART
10
6.32384
20
194.276
0
VERTEX
8
PART
10
0
20
196.904
0
VERTEX
8
PART
10
0.227427
20
199.388
0
VERTEX
8
PART
10
1.04257
20
207.746
0
VERTEX
8
PART
10
3.80071
20
209.208
0
VERTEX
8
PART
10
11.9516
20
213.272
0
VERTEX
8
PART
10
11.0718
20
203.212
0
VERTEX
8
PART
10
15.6543
20
202.811
0
VERTEX
8
PART
10
16.6906
20
214.661
0
VERTEX
8
PART
10
16.8681
20
214.691
0
VERTEX
8
PART
10
21.6142
20
215.298
0
VERTEX
8
PART
10
28.5582
20
216.571
0
VERTEX
8
PART
10
37.373
20
217.739
0
VERTEX
8
PART
10
37.6718
20
217.784
0
VERTEX
8
PART
10
43.2754
20
219.663
0
VERTEX
8
PART
10
42.8107
20
214.349
0
VERTEX
8
PART
10
47.3932
20
213.948
0
VERTEX
8
PART
10
48.0324
20
221.257
0
VERTEX
8
PART
10
50.2543
20
222
0
VERTEX
8
PART
10
50.2733
20
221.997
0
VERTEX
8
PART
10
50.3047
20
221.991
0
VERTEX
8
PART
10
53.1409
20
221.464
0
VERTEX
8
PART
10
53.6771
20
221.341
0
VERTEX
8
PART
10
52.996
20
213.552
0
VERTEX
8
PART
10
57.5785
20
213.152
0
VERTEX
8
PART
10
58.2154
20
220.435
0
VERTEX
8
PART
10
59.1075
20
220.279
0
VERTEX
8
PART
10
62.483
20
219.696
0
VERTEX
8
PART
10
63.7656
20
219.438
0
VERTEX
8
PART
10
63.1
20
211.826
0
VERTEX
8
PART
10
67.6826
20
211.425
0
VERTEX
8
PART
10
68.2816
20
218.275
0
VERTEX
8
PART
10
73.5646
20
215.632
0
VERTEX
8
PART
10
73.6818
20
215.563
0
VERTEX
8
PART
10
72.4228
20
201.165
0
VERTEX
8
PART
10
77.0053
20
200.765
0
VERTEX
8
PART
10
78.074
20
212.985
0
VERTEX
8
PART
10
79.7281
20
212.015
0
VERTEX
8
PART
10
81.6577
20
207.006
0
VERTEX
8
PART
10
82.206
20
206.142
0
VERTEX
8
PART
10
82.0255
20
202.418
0
VERTEX
8
PART
10
82.0001
20
200.869
0
VERTEX
8
PART
10
81.9698
20
192.406
0
SEQEND
0
TEXT
8
TEXT
10
48.2987
20
201.33
40
6
1
Z4.1
50
-4.99763
0
POLYLINE
8
PART
10
0
20
0
66
1
70
1
62
1
0
VERTEX
8
PART
10
194.025
20
224.966
0
VERTEX
8
PART
10
194.049
20
224.893
0
VERTEX
8
PART
10
187.476
20
225
0
VERTEX
8
PART
10
187.401
20
220.401
0
VERTEX
8
PART
10
195.582
20
220.267
0
VERTEX
8
PART
10
198.984
20
209.948
0
VERTEX
8
PART
10
198.467
20
205.509
0
VERTEX
8
PART
10
198.401
20
204.863
0
VERTEX
8
PART
10
198.013
20
200.398
0
VERTEX
8
PART
10
197.643
20
194.182
0
VERTEX
8
PART
10
189.828
20
194.31
0
VERTEX
8
PART
10
189.753
20
189.71
0
VERTEX
8
PART
10
197.304
20
189.587
0
VERTEX
8
PART
10
196.576
20
186.778
0
VERTEX
8
PART
10
196.276
20
185.758
0
VERTEX
8
PART
10
195.218
20
182.286
0
VERTEX
8
PART
10
195.386
20
181.004
0
VERTEX
8
PART
10
195.438
20
180.509
0
VERTEX
8
PART
10
195.567
20
179.242
0
VERTEX
8
PART
10
196.879
20
168.375
0
VERTEX
8
PART
10
197.372
20
163.535
0
VERTEX
8
PART
10
183.852
20
163.755
0
VERTEX
8
PART
10
183.777
20
159.155
0
VERTEX
8
PART
10
197.59
20
158.931
0
VERTEX
8
PART
10
197.662
20
157.008
0
VERTEX
8
PART
10
198.152
20
149.832
0
VERTEX
8
PART
10
198.364
20
147.537
0
VERTEX
8
PART
10
198.459
20
146.394
0
VERTEX
8
PART
10
198.984
20
139.673
0
VERTEX
8
PART
10
198.69
20
133.853
0
VERTEX
8
PART
10
198.632
20
132.862
0
VERTEX
8
PART
10
187.654
20
133.041
0
VERTEX
8
PART
10
187.579
20
128.442
0
VERTEX
8
PART
10
198.362
20
128.266
0
VERTEX
8
PART
10
198.227
20
125.963
0
VERTEX
8
PART
10
198.336
20
124.833
0
VERTEX
8
PART
10
198.263
20
124.278
0
VERTEX
8
PART
10
198.105
20
122.388
0
VERTEX
8
PART
10
198.04
20
120.842
0
VERTEX
8
PART
10
197.905
20
119.837
0
VERTEX
8
PART
10
196.963
20
119.565
0
VERTEX
8
PART
10
195.644
20
118.897
0
VERTEX
8
PART
10
192.752
20
117.804
0
VERTEX
8
PART
10
191.614
20
117.402
0
VERTEX
8
PART
10
189.219
20
115.975
0
VERTEX
8
PART
10
186.784
20
116.977
0
VERTEX
8
PART
10
184.561
20
118.273
0
VERTEX
8
PART
10
189.395
20
118.195
0
VERTEX
8
PART
10
189.47
20
122.794
0
VERTEX
8
PART
10
179.244
20
122.961
0
VERTEX
8
PART
10
178.364
20
125.381
0
VERTEX
8
PART
10
177.626
20
128.061
0
VERTEX
8
PART
10
176.429
20
131.901
0
VERTEX
8
PART
10
176.196
20
132.704
0
VERTEX
8
PART
10
176.003
20
133.405
0
VERTEX
8
PART
10
175.794
20
134.014
0
VERTEX
8
PART
10
175.133
20
136.498
0
VERTEX
8
PART
10
175.056
20
136.962
0
VERTEX
8
PART
10
175.035
20
137.214
0
VERTEX
8
PART
10
174.937
20
138.865
0
VERTEX
8
PART
10
186.803
20
138.672
0
VERTEX
8
PART
10
186.877
20
143.271
0
VERTEX
8
PART
10
174.553
20
143.472
0
VERTEX
8
PART
10
174.503
20
143.974
0
VERTEX
8
PART
10
174.103
20
147.225
0
VERTEX
8
PART
10
173.586
20
149.104
0
VERTEX
8
PART
10
185.474
20
148.911
0
VERTEX
8
PART
10
185.548
20
153.51
0
VERTEX
8
PART
10
172.314
20
153.725
0
VERTEX
8
PART
10
170.034
20
162.01
0
VERTEX
8
PART
10
168.781
20
166.52
0
VERTEX
8
PART
10
167.947
20
169.631
0
VERTEX
8
PART
10
181.881
20
169.404
0
VERTEX
8
PART
10
181.955
20
174.003
0
VERTEX
8
PART
10
166.77
20
174.25
0
VERTEX
8
PART
10
166.146
20
176.824
0
VERTEX
8
PART
10
165.937
20
177.612
0
VERTEX
8
PART
10
165.843
20
178.129
0
VERTEX
8
PART
10
165.619
20
179.306
0
VERTEX
8
PART
10
165.814
20
179.883
0
VERTEX
8
PART
10
180.532
20
179.643
0
VERTEX
8
PART
10
180.607
20
184.242
0
VERTEX
8
PART
10
165.605
20
184.487
0
VERTEX
8
PART
10
165.531
20
185.293
0
VERTEX
8
PART
10
165.334
20
186.578
0
VERTEX
8
PART
10
165.222
20
187.016
0
VERTEX
8
PART
10
165
20
187.898
0
VERTEX
8
PART
10
165.312
20
188.583
0
VERTEX
8
PART
10
165.516
20
189.2
0
VERTEX
8
PART
10
165.74
20
190.101
0
VERTEX
8
PART
10
173.775
20
189.97
0
VERTEX
8
PART
10
173.85
20
194.57
0
VERTEX
8
PART
10
166.793
20
194.685
0
VERTEX
8
PART
10
167.807
20
199.577
0
VERTEX
8
PART
10
167.829
20
199.677
0
VERTEX
8
PART
10
167.84
20
199.741
0
VERTEX
8
PART
10
167.849
20
199.828
0
VERTEX
8
PART
10
167.874
20
200.284
0
VERTEX
8
PART
10
182.245
20
200.05
0
VERTEX
8
PART
10
182.32
20
204.649
0
VERTEX
8
PART
10
168.119
20
204.88
0
VERTEX
8
PART
10
168.419
20
210.492
0
VERTEX
8
PART
10
183.639
20
210.245
0
VERTEX
8
PART
10
183.714
20
214.844
0
VERTEX
8
PART
10
170.157
20
215.065
0
VERTEX
8
PART
10
170.725
20
216.349
0
VERTEX
8
PART
10
173.038
20
218.399
0
VERTEX
8
PART
10
176.623
20
222.25
0
VERTEX
8
PART
10
183.548
20
223.399
0
VERTEX
8
PART
10
186.908
20
223.917
0
SEQEND
0
TEXT
8
TEXT
10
193.948
20
196.794
40
6
1
Z5.1
50
89.0671
0
POLYLINE
8
PART
10
0
20
0
66
1
70
1
62
1
0
VERTEX
8
PART
10
138.25
20
100.284
0
VERTEX
8
PART
10
136.239
20
107.508
0
VERTEX
8
PART
10
135
20
111.567
0
VERTEX
8
PART
10
135.175
20
113.4
0
VERTEX
8
PART
10
135.604
20
116.944
0
VERTEX
8
PART
10
136.329
20
124.219
0
VERTEX
8
PART
10
136.339
20
124.317
0
VERTEX
8
PART
10
136.352
20
124.419
0
VERTEX
8
PART
10
137.986
20
129.245
0
VERTEX
8
PART
10
138.805
20
131.674
0
VERTEX
8
PART
10
139.947
20
135.128
0
VERTEX
8
PART
10
143.321
20
146.403
0
VERTEX
8
PART
10
143.906
20
147.649
0
VERTEX
8
PART
10
144.471
20
149.947
0
VERTEX
8
PART
10
144.968
20
152.057
0
VERTEX
8
PART
10
145.127
20
153.204
0
VERTEX
8
PART
10
146.61
20
156.569
0
VERTEX
8
PART
10
147.923
20
160.396
0
VERTEX
8
PART
10
148.422
20
162.588
0
VERTEX
8
PART
10
146.474
20
174.428
0
VERTEX
8
PART
10
145.329
20
182.047
0
VERTEX
8
PART
10
144.884
20
185.603
0
VERTEX
8
PART
10
143.12
20
196.751
0
VERTEX
8
PART
10
140.883
20
200.751
0
VERTEX
8
PART
10
140.378
20
201.644
0
VERTEX
8
PART
10
139.176
20
203.602
0
VERTEX
8
PART
10
138.345
20
205.057
0
VERTEX
8
PART
10
148.961
20
203.577
0
VERTEX
8
PART
10
149.596
20
208.133
0
VERTEX
8
PART
10
135.348
20
210.119
0
VERTEX
8
PART
10
135
20
210.545
0
VERTEX
8
PART
10
135.079
20
211.31
0
VERTEX
8
PART
10
135.552
20
214.635
0
VERTEX
8
PART
10
136.269
20
215.38
0
VERTEX
8
PART
10
141.418
20
221
0
VERTEX
8
PART
10
145.999
20
220.605
0
VERTEX
8
PART
10
148.316
20
220.521
0
VERTEX
8
PART
10
152.084
20
220.2
0
VERTEX
8
PART
10
153.587
20
218.908
0
VERTEX
8
PART
10
154.586
20
217.753
0
VERTEX
8
PART
10
147.82
20
218.695
0
VERTEX
8
PART
10
147.185
20
214.139
0
VERTEX
8
PART
10
158.085
20
212.621
0
VERTEX
8
PART
10
159.135
20
210.711
0
VERTEX
8
PART
10
161.133
20
205.956
0
VERTEX
8
PART
10
162.226
20
202.523
0
VERTEX
8
PART
10
162.523
20
196.017
0
VERTEX
8
PART
10
153.238
20
197.311
0
VERTEX
8
PART
10
152.603
20
192.755
0
VERTEX
8
PART
10
162.81
20
191.333
0
VERTEX
8
PART
10
163.073
20
187.56
0
VERTEX
8
PART
10
163.22
20
185.606
0
VERTEX
8
PART
10
154.402
20
186.834
0
VERTEX
8
PART
10
153.767
20
182.278
0
VERTEX
8
PART
10
163.819
20
180.878
0
VERTEX
8
PART
10
165.031
20
175.039
0
VERTEX
8
PART
10
156.251
20
176.262
0
VERTEX
8
PART
10
155.617
20
171.706
0
VERTEX
8
PART
10
166.024
20
170.256
0
VERTEX
8
PART
10
166.803
20
166.505
0
VERTEX
8
PART
10
167.313
20
164.406
0
VERTEX
8
PART
10
158.298
20
165.662
0
VERTEX
8
PART
10
157.663
20
161.106
0
VERTEX
8
PART
10
168.48
20
159.599
0
VERTEX
8
PART
10
169.802
20
154.158
0
VERTEX
8
PART
10
169.867
20
153.735
0
VERTEX
8
PART
10
157.914
20
155.401
0
VERTEX
8
PART
10
157.28
20
150.845
0
VERTEX
8
PART
10
169.159
20
149.19
0
VERTEX
8
PART
10
169.042
20
147.706
0
VERTEX
8
PART
10
168.884
20
144.599
0
VERTEX
8
PART
10
168.813
20
143.568
0
VERTEX
8
PART
10
156.064
20
145.344
0
VERTEX
8
PART
10
155.429
20
140.788
0
VERTEX
8
PART
10
168.789
20
138.926
0
VERTEX
8
PART
10
168.272
20
138.083
0
VERTEX
8
PART
10
167.897
20
137.509
0
VERTEX
8
PART
10
166.574
20
133.565
0
VERTEX
8
PART
10
153.178
20
135.431
0
VERTEX
8
PART
10
152.543
20
130.875
0
VERTEX
8
PART
10
165.063
20
129.131
0
VERTEX
8
PART
10
164.028
20
126.174
0
VERTEX
8
PART
10
163.934
20
125.765
0
VERTEX
8
PART
10
163.68
20
123.653
0
VERTEX
8
PART
10
150.313
20
125.516
0
VERTEX
8
PART
10
149.678
20
120.96
0
VERTEX
8
PART
10
163.132
20
119.085
0
VERTEX
8
PART
10
162.562
20
114.332
0
VERTEX
8
PART
10
162.473
20
113.507
0
VERTEX
8
PART
10
148.947
20
115.391
0
VERTEX
8
PART
10
148.312
20
110.835
0
VERTEX
8
PART
10
160.683
20
109.112
0
VERTEX
8
PART
10
159.503
20
107.014
0
VERTEX
8
PART
10
156.47
20
104.457
0
VERTEX
8
PART
10
156.027
20
104.09
0
VERTEX
8
PART
10
145.681
20
105.532
0
VERTEX
8
PART
10
145.047
20
100.976
0
VERTEX
8
PART
10
145.667
20
100.889
0
VERTEX
8
PART
10
141.81
20
100.593
0
VERTEX
8
PART
10
139.537
20
100.39
0
SEQEND
0
TEXT
8
TEXT
10
147.796
20
153.73
40
6
1
Z6.1
50
262.068
0
POLYLINE
8
PART
10
0
20
0
66
1
70
1
62
1
0
VERTEX
8
PART
10
6.82043
20
101.907
0
VERTEX
8
PART
10
4.0502
20
106.551
0
VERTEX
8
PART
10
1.86236
20
109.983
0
VERTEX
8
PART
10
1.44121
20
112.941
0
VERTEX
8
PART
10
3.07514e-07
20
122.82
0
VERTEX
8
PART
10
0.616011
20
131.825
0
VERTEX
8
PART
10
0.855218
20
134.461
0
VERTEX
8
PART
10
1.18159
20
137.35
0
VERTEX
8
PART
10
1.21997
20
138.031
0
VERTEX
8
PART
10
1.59541
20
144.331
0
VERTEX
8
PART
10
1.51986
20
146.762
0
VERTEX
8
PART
10
1.61999
20
147.71
0
VERTEX
8
PART
10
1.89497
20
150.23
0
VERTEX
8
PART
10
1.93708
20
151.362
0
VERTEX
8
PART
10
1.9936
20
152.493
0
VERTEX
8
PART
10
2.03249
20
153.355
0
VERTEX
8
PART
10
2.05376
20
154.18
0
VERTEX
8
PART
10
2.06942
20
154.873
0
VERTEX
8
PART
10
1.94445
20
155.832
0
VERTEX
8
PART
10
1.88134
20
156.368
0
VERTEX
8
PART
10
1.76808
20
156.984
0
VERTEX
8
PART
10
1.71586
20
157.461
0
VERTEX
8
PART
10
1.54747
20
157.99
0
VERTEX
8
PART
10
1.41328
20
158.625
0
VERTEX
8
PART
10
1.36577
20
159.394
0
VERTEX
8
PART
10
1.60833
20
161.18
0
VERTEX
8
PART
10
1.73282
20
163.625
0
VERTEX
8
PART
10
1.86843
20
167.808
0
VERTEX
8
PART
10
1.87373
20
168.027
0
VERTEX
8
PART
10
1.87122
20
168.066
0
VERTEX
8
PART
10
1.86962
20
168.125
0
VERTEX
8
PART
10
1.865
20
168.185
0
VERTEX
8
PART
10
1.85718
20
168.271
0
VERTEX
8
PART
10
1.84726
20
168.38
0
VERTEX
8
PART
10
1.84398
20
168.412
0
VERTEX
8
PART
10
1.4668
20
173.756
0
VERTEX
8
PART
10
1.28628
20
175.253
0
VERTEX
8
PART
10
1.04617
20
177.565
0
VERTEX
8
PART
10
0.829506
20
180.417
0
VERTEX
8
PART
10
0.73247
20
181.155
0
VERTEX
8
PART
10
0.355194
20
184.487
0
VERTEX
8
PART
10
0.277559
20
185.648
0
VERTEX
8
PART
10
0.122375
20
186.835
0
VERTEX
8
PART
10
0.0170855
20
187.563
0
VERTEX
8
PART
10
0.0945651
20
190
0
VERTEX
8
PART
10
0
20
191.778
0
VERTEX
8
PART
10
3.34813
20
192.346
0
VERTEX
8
PART
10
7.12249
20
193
0
VERTEX
8
PART
10
9.62422
20
191.459
0
VERTEX
8
PART
10
10.4924
20
190.72
0
VERTEX
8
PART
10
6.07893
20
190.363
0
VERTEX
8
PART
10
6.44975
20
185.778
0
VERTEX
8
PART
10
14.4056
20
186.421
0
VERTEX
8
PART
10
17.2036
20
181.013
0
VERTEX
8
PART
10
9.51132
20
180.391
0
VERTEX
8
PART
10
9.88214
20
175.806
0
VERTEX
8
PART
10
19.4563
20
176.581
0
VERTEX
8
PART
10
22.2054
20
171.169
0
VERTEX
8
PART
10
12.3549
20
170.372
0
VERTEX
8
PART
10
12.7257
20
165.787
0
VERTEX
8
PART
10
23.3232
20
166.644
0
VERTEX
8
PART
10
23.9652
20
164.744
0
VERTEX
8
PART
10
24.6685
20
162.305
0
VERTEX
8
PART
10
24.9121
20
161.205
0
VERTEX
8
PART
10
24.9172
20
161.139
0
VERTEX
8
PART
10
13.2478
20
160.195
0
VERTEX
8
PART
10
13.6186
20
155.61
0
VERTEX
8
PART
10
25.2701
20
156.552
0
VERTEX
8
PART
10
25.6947
20
151.033
0
VERTEX
8
PART
10
25.6972
20
151.003
0
VERTEX
8
PART
10
25.6984
20
150.995
0
VERTEX
8
PART
10
25.6999
20
150.985
0
VERTEX
8
PART
10
25.7133
20
150.954
0
VERTEX
8
PART
10
13.5572
20
149.97
0
VERTEX
8
PART
10
13.928
20
145.385
0
VERTEX
8
PART
10
25.6637
20
146.334
0
VERTEX
8
PART
10
25.1647
20
140.66
0
VERTEX
8
PART
10
12.8327
20
139.662
0
VERTEX
8
PART
10
13.2035
20
135.077
0
VERTEX
8
PART
10
24.761
20
136.012
0
VERTEX
8
PART
10
24.6729
20
134.991
0
VERTEX
8
PART
10
25.0081
20
133.828
0
VERTEX
8
PART
10
25.0518
20
133.677
0
VERTEX
8
PART
10
24.7983
20
132.416
0
VERTEX
8
PART
10
24.7946
20
132.397
0
VERTEX
8
PART
10
24.7941
20
132.328
0
VERTEX
8
PART
10
24.8235
20
131.96
0
VERTEX
8
PART
10
24.9209
20
130.391
0
VERTEX
8
PART
10
12.458
20
129.383
0
VERTEX
8
PART
10
12.8288
20
124.798
0
VERTEX
8
PART
10
25.2059
20
125.799
0
VERTEX
8
PART
10
25.554
20
120.193
0
VERTEX
8
PART
10
13.1676
20
119.191
0
VERTEX
8
PART
10
13.5384
20
114.606
0
VERTEX
8
PART
10
25.422
20
115.567
0
VERTEX
8
PART
10
24.8832
20
113.535
0
VERTEX
8
PART
10
24.2662
20
111.143
0
VERTEX
8
PART
10
23.1303
20
109.747
0
VERTEX
8
PART
10
12.2386
20
108.866
0
VERTEX
8
PART
10
12.6095
20
104.281
0
VERTEX
8
PART
10
14.6932
20
104.45
0
VERTEX
8
PART
10
10.3703
20
103.053
0
SEQEND
0
TEXT
8
TEXT
10
3.11288
20
133.899
40
6
1
Z7.1
50
274.624
0
POLYLINE
8
PART
10
0
20
0
66
1
70
1
62
1
0
VERTEX
8
PART
10
32.7642
20
4.16558
0
VERTEX
8
PART
10
32.5521
20
4.04419
0
VERTEX
8
PART
10
32.126
20
4.0272
0
VERTEX
8
PART
10
28.6993
20
3.22723
0
VERTEX
8
PART
10
26.1828
20
1.62466
0
VERTEX
8
PART
10
24.814
20
1.36715
0
VERTEX
8
PART
10
23.7415
20
1.46572
0
VERTEX
8
PART
10
20.1542
20
1.83916
0
VERTEX
8
PART
10
15.9948
20
2.22034
0
VERTEX
8
PART
10
21.6582
20
6.32142
0
VERTEX
8
PART
10
18.9603
20
10.0472
0
VERTEX
8
PART
10
7.15957
20
1.50184
0
VERTEX
8
PART
10
6.58897
20
1.36715
0
VERTEX
8
PART
10
4.31101
20
2.10201
0
VERTEX
8
PART
10
0.832395
20
3.05979
0
VERTEX
8
PART
10
0.572723
20
6.63633
0
VERTEX
8
PART
10
0
20
11.214
0
VERTEX
8
PART
10
0.774863
20
12.1548
0
VERTEX
8
PART
10
2.57599
20
14.0485
0
VERTEX
8
PART
10
3.10831
20
14.5847
0
VERTEX
8
PART
10
4.12725
20
15.158
0
VERTEX
8
PART
10
5.86403
20
16.5025
0
VERTEX
8
PART
10
8.63077
20
17.3809
0
VERTEX
8
PART
10
9.794
20
17.8523
0
VERTEX
8
PART
10
13.3103
20
18.8142
0
VERTEX
8
PART
10
13.7152
20
18.9753
0
VERTEX
8
PART
10
13.9054
20
19
0
VERTEX
8
PART
10
8.03176
20
14.7467
0
VERTEX
8
PART
10
10.7297
20
11.0209
0
VERTEX
8
PART
10
21.0258
20
18.4767
0
VERTEX
8
PART
10
25.6567
20
16.6577
0
VERTEX
8
PART
10
26.9164
20
16.026
0
VERTEX
8
PART
10
30.3848
20
10.385
0
VERTEX
8
PART
10
30.8453
20
9.69926
0
VERTEX
8
PART
10
30.9339
20
9.21924
0
VERTEX
8
PART
10
31.0596
20
8.9264
0
SEQEND
0
TEXT
8
TEXT
10
20.7304
20
13.158
40
2
1
Z7.2
50
-54.0903
0
POLYLINE
8
PART
10
0
20
0
66
1
70
1
62
1
0
VERTEX
8
PART
10
199.004
20
5.79846
0
VERTEX
8
PART
10
190.13
20
1.78374
0
VERTEX
8
PART
10
189.173
20
1.38712
0
VERTEX
8
PART
10
188.198
20
1.37505
0
VERTEX
8
PART
10
187.524
20
1.36018
0
VERTEX
8
PART
10
186.7
20
1.2775
0
VERTEX
8
PART
10
182.364
20
0.804948
0
VERTEX
8
PART
10
180.354
20
0.763443
0
VERTEX
8
PART
10
178.755
20
0.744116
0
VERTEX
8
PART
10
176.655
20
0.708916
0
VERTEX
8
PART
10
176.343
20
0.85435
0
VERTEX
8
PART
10
173.724
20
0.987374
0
VERTEX
8
PART
10
173.393
20
1.02426
0
VERTEX
8
PART
10
172.715
20
1.10589
0
VERTEX
8
PART
10
171.798
20
1.21068
0
VERTEX
8
PART
10
149.358
20
2.41131
0
VERTEX
8
PART
10
149.002
20
2.48183
0
VERTEX
8
PART
10
148.499
20
2.55606
0
VERTEX
8
PART
10
147.812
20
2.70665
0
VERTEX
8
PART
10
146.9
20
2.65359
0
VERTEX
8
PART
10
138.597
20
2.40712
0
VERTEX
8
PART
10
137.525
20
2.28752
0
VERTEX
8
PART
10
136.601
20
2.12957
0
VERTEX
8
PART
10
136.122
20
2.0591
0
VERTEX
8
PART
10
133.105
20
1.51975
0
VERTEX
8
PART
10
132.465
20
1.30693
0
VERTEX
8
PART
10
130.927
20
1.05376
0
VERTEX
8
PART
10
130.111
20
1.01341
0
VERTEX
8
PART
10
128.967
20
0.870015
0
VERTEX
8
PART
10
126.766
20
0.847998
0
VERTEX
8
PART
10
126.125
20
0.732034
0
VERTEX
8
PART
10
125.606
20
0.708916
0
VERTEX
8
PART
10
123.795
20
0.839208
0
VERTEX
8
PART
10
123.154
20
0.947472
0
VERTEX
8
PART
10
116.045
20
1.91633
0
VERTEX
8
PART
10
115.468
20
1.90524
0
VERTEX
8
PART
10
115.144
20
1.96901
0
VERTEX
8
PART
10
108.262
20
4.48453
0
VERTEX
8
PART
10
107.599
20
4.73214
0
VERTEX
8
PART
10
105.08
20
5.99655
0
VERTEX
8
PART
10
105.005
20
14.1356
0
VERTEX
8
PART
10
105
20
14.2968
0
VERTEX
8
PART
10
105.078
20
14.3648
0
VERTEX
8
PART
10
109.249
20
17.9752
0
VERTEX
8
PART
10
109.448
20
11.2166
0
VERTEX
8
PART
10
114.046
20
11.3517
0
VERTEX
8
PART
10
113.786
20
20.1815
0
VERTEX
8
PART
10
117.902
20
21.5111
0
VERTEX
8
PART
10
119.352
20
21.9671
0
VERTEX
8
PART
10
119.651
20
11.8087
0
VERTEX
8
PART
10
124.249
20
11.9438
0
VERTEX
8
PART
10
123.914
20
23.3289
0
VERTEX
8
PART
10
124.657
20
23.5685
0
VERTEX
8
PART
10
124.729
20
23.562
0
VERTEX
8
PART
10
125.658
20
23.1764
0
VERTEX
8
PART
10
125.985
20
23.1605
0
VERTEX
8
PART
10
126.445
20
23.2103
0
VERTEX
8
PART
10
129.533
20
23.3093
0
VERTEX
8
PART
10
129.857
20
12.2909
0
VERTEX
8
PART
10
134.455
20
12.426
0
VERTEX
8
PART
10
134.128
20
23.5605
0
VERTEX
8
PART
10
134.385
20
23.5779
0
VERTEX
8
PART
10
137.55
20
24.1504
0
VERTEX
8
PART
10
139.719
20
24.4936
0
VERTEX
8
PART
10
140.038
20
13.6244
0
VERTEX
8
PART
10
144.636
20
13.7595
0
VERTEX
8
PART
10
144.3
20
25.2185
0
VERTEX
8
PART
10
146.384
20
25.5484
0
VERTEX
8
PART
10
146.637
20
25.5852
0
VERTEX
8
PART
10
147.903
20
26
0
VERTEX
8
PART
10
148.019
20
25.9842
0
VERTEX
8
PART
10
149.339
20
25.5484
0
VERTEX
8
PART
10
149.493
20
25.5084
0
VERTEX
8
PART
10
149.664
20
25.4702
0
VERTEX
8
PART
10
149.912
20
25.4109
0
VERTEX
8
PART
10
150.263
20
13.4727
0
VERTEX
8
PART
10
154.861
20
13.6078
0
VERTEX
8
PART
10
154.547
20
24.306
0
VERTEX
8
PART
10
157.272
20
23.6562
0
VERTEX
8
PART
10
160.198
20
23.198
0
VERTEX
8
PART
10
160.514
20
12.4351
0
VERTEX
8
PART
10
165.112
20
12.5702
0
VERTEX
8
PART
10
164.786
20
23.6519
0
VERTEX
8
PART
10
166.015
20
23.9438
0
VERTEX
8
PART
10
166.073
20
23.9593
0
VERTEX
8
PART
10
167.409
20
23.5184
0
VERTEX
8
PART
10
167.472
20
23.4933
0
VERTEX
8
PART
10
170.427
20
22.8967
0
VERTEX
8
PART
10
170.757
20
11.6608
0
VERTEX
8
PART
10
175.355
20
11.7958
0
VERTEX
8
PART
10
175.058
20
21.8942
0
VERTEX
8
PART
10
175.084
20
21.8879
0
VERTEX
8
PART
10
177.149
20
22.5554
0
VERTEX
8
PART
10
180.629
20
23.517
0
VERTEX
8
PART
10
180.963
20
12.167
0
VERTEX
8
PART
10
185.561
20
12.302
0
VERTEX
8
PART
10
185.231
20
23.534
0
VERTEX
8
PART
10
188.15
20
23.5816
0
VERTEX
8
PART
10
189.644
20
23.5361
0
VERTEX
8
PART
10
190.248
20
23.4881
0
VERTEX
8
PART
10
190.858
20
23.2295
0
VERTEX
8
PART
10
191.167
20
12.7203
0
VERTEX
8
PART
10
195.765
20
12.8554
0
VERTEX
8
PART
10
195.593
20
18.6969
0
VERTEX
8
PART
10
196.375
20
17.0779
0
VERTEX
8
PART
10
197.643
20
15.1079
0
VERTEX
8
PART
10
197.54
20
13.1332
0
VERTEX
8
PART
10
197.639
20
12.2571
0
VERTEX
8
PART
10
198.007
20
10.2024
0
SEQEND
0
TEXT
8
TEXT
10
133.459
20
4.50816
40
6
1
Z8.1
50
1.68285
0
POLYLINE
8
PART
10
0
20
0
66
1
70
1
62
1
0
VERTEX
8
PART
10
1.85343
20
30.3936
0
VERTEX
8
PART
10
4.29528
20
30.6559
0
VERTEX
8
PART
10
10.06
20
32
0
VERTEX
8
PART
10
12.2243
20
31.805
0
VERTEX
8
PART
10
13.1297
20
31.6776
0
VERTEX
8
PART
10
13.2089
20
31.6742
0
VERTEX
8
PART
10
13.4577
20
31.6437
0
VERTEX
8
PART
10
15.5212
20
31.2844
0
VERTEX
8
PART
10
16.426
20
31.0503
0
VERTEX
8
PART
10
19.022
20
30.5358
0
VERTEX
8
PART
10
20.2262
20
30.2971
0
VERTEX
8
PART
10
22.0319
20
29.9392
0
VERTEX
8
PART
10
22.1683
20
29.8921
0
VERTEX
8
PART
10
14.3007
20
26.0773
0
VERTEX
8
PART
10
16.3077
20
21.9382
0
VERTEX
8
PART
10
27.7
20
27.4621
0
VERTEX
8
PART
10
29.4716
20
26.7427
0
VERTEX
8
PART
10
29.5293
20
26.7169
0
VERTEX
8
PART
10
29.5208
20
26.6773
0
VERTEX
8
PART
10
29.5108
20
26.6256
0
VERTEX
8
PART
10
28.954
20
23.8338
0
VERTEX
8
PART
10
28.5615
20
21.6828
0
VERTEX
8
PART
10
27.9627
20
21.1144
0
VERTEX
8
PART
10
26.7988
20
19.9644
0
VERTEX
8
PART
10
26.2844
20
19.8166
0
VERTEX
8
PART
10
25.8648
20
19.734
0
VERTEX
8
PART
10
25.6976
20
19.7173
0
VERTEX
8
PART
10
25.018
20
19.6053
0
VERTEX
8
PART
10
23.4612
20
19.5994
0
VERTEX
8
PART
10
22.8439
20
19.5695
0
VERTEX
8
PART
10
21.5
20
19.5073
0
VERTEX
8
PART
10
20.699
20
19.5116
0
VERTEX
8
PART
10
17.1528
20
19.6984
0
VERTEX
8
PART
10
16.065
20
19.7523
0
VERTEX
8
PART
10
15.3368
20
19.8297
0
VERTEX
8
PART
10
14.7916
20
19.9298
0
VERTEX
8
PART
10
11.4233
20
20.2469
0
VERTEX
8
PART
10
11.1754
20
20.0432
0
VERTEX
8
PART
10
10.3723
20
19.3453
0
VERTEX
8
PART
10
10.3697
20
19.3432
0
VERTEX
8
PART
10
10.3657
20
19.3432
0
VERTEX
8
PART
10
3.60332
20
19.3432
0
VERTEX
8
PART
10
3.27114
20
19.5578
0
VERTEX
8
PART
10
0
20
21.9375
0
VERTEX
8
PART
10
0.973671
20
26.674
0
SEQEND
0
TEXT
8
TEXT
10
10.359
20
22.9411
40
2
1
Z8.2
50
115.868
0
POLYLINE
8
PART
10
0
20
0
66
1
70
1
62
1
0
VERTEX
8
PART
10
100
20
41.2892
0
VERTEX
8
PART
10
100.297
20
44.4054
0
VERTEX
8
PART
10
100.355
20
45.8637
0
VERTEX
8
PART
10
102.146
20
46.5331
0
VERTEX
8
PART
10
103.835
20
47.1777
0
VERTEX
8
PART
10
106.009
20
48
0
VERTEX
8
PART
10
107.437
20
47.6864
0
VERTEX
8
PART
10
109.058
20
47.4009
0
VERTEX
8
PART
10
111.202
20
47.0159
0
VERTEX
8
PART
10
112.835
20
46.6947
0
VERTEX
8
PART
10
118.526
20
45.6433
0
VERTEX
8
PART
10
118.749
20
45.5993
0
VERTEX
8
PART
10
118.877
20
45.5743
0
VERTEX
8
PART
10
118.97
20
45.5593
0
VERTEX
8
PART
10
119.592
20
45.4409
0
VERTEX
8
PART
10
121.609
20
45.1011
0
VERTEX
8
PART
10
123.066
20
44.6738
0
VERTEX
8
PART
10
123.36
20
44.6354
0
VERTEX
8
PART
10
123.601
20
44.5202
0
VERTEX
8
PART
10
124.776
20
44.639
0
VERTEX
8
PART
10
125.963
20
44.5588
0
VERTEX
8
PART
10
126.598
20
44.7727
0
VERTEX
8
PART
10
127.086
20
45.0808
0
VERTEX
8
PART
10
127.534
20
45.1102
0
VERTEX
8
PART
10
127.825
20
45.3513
0
VERTEX
8
PART
10
129.528
20
45.8215
0
VERTEX
8
PART
10
130.826
20
46.2717
0
VERTEX
8
PART
10
132.478
20
46.1496
0
VERTEX
8
PART
10
132.752
20
46.3676
0
VERTEX
8
PART
10
134.44
20
46.0629
0
VERTEX
8
PART
10
135.906
20
46.3454
0
VERTEX
8
PART
10
139.976
20
47.0836
0
VERTEX
8
PART
10
140.21
20
47.1628
0
VERTEX
8
PART
10
140.248
20
47.1731
0
VERTEX
8
PART
10
140.275
20
47.1725
0
VERTEX
8
PART
10
140.965
20
47.2748
0
VERTEX
8
PART
10
141.072
20
47.2735
0
VERTEX
8
PART
10
141.188
20
47.2278
0
VERTEX
8
PART
10
141.972
20
47.1347
0
VERTEX
8
PART
10
146.396
20
46.4252
0
VERTEX
8
PART
10
152.743
20
44.6275
0
VERTEX
8
PART
10
153.183
20
44.5573
0
VERTEX
8
PART
10
154.152
20
44.4923
0
VERTEX
8
PART
10
174.39
20
44.7647
0
VERTEX
8
PART
10
174.702
20
44.8138
0
VERTEX
8
PART
10
175.156
20
44.741
0
VERTEX
8
PART
10
177.066
20
44.7516
0
VERTEX
8
PART
10
177.501
20
44.8014
0
VERTEX
8
PART
10
178.377
20
44.8327
0
VERTEX
8
PART
10
179.653
20
45.4066
0
VERTEX
8
PART
10
181.415
20
45.7631
0
VERTEX
8
PART
10
182.478
20
46.3396
0
VERTEX
8
PART
10
183.809
20
46.9497
0
VERTEX
8
PART
10
183.803
20
46.9228
0
VERTEX
8
PART
10
184.806
20
47.2366
0
VERTEX
8
PART
10
186.009
20
47.6692
0
VERTEX
8
PART
10
187.511
20
47.6301
0
VERTEX
8
PART
10
189.429
20
47.7557
0
VERTEX
8
PART
10
191.292
20
47.7753
0
VERTEX
8
PART
10
192.035
20
47.773
0
VERTEX
8
PART
10
193.206
20
48
0
VERTEX
8
PART
10
195.588
20
46.5325
0
VERTEX
8
PART
10
198.621
20
44.7304
0
VERTEX
8
PART
10
198.715
20
41.3471
0
VERTEX
8
PART
10
198.785
20
38.2316
0
VERTEX
8
PART
10
198.861
20
36.2454
0
VERTEX
8
PART
10
198.954
20
33.4016
0
VERTEX
8
PART
10
197.212
20
31.7348
0
VERTEX
8
PART
10
195.979
20
30.6059
0
VERTEX
8
PART
10
196.287
20
37.9814
0
VERTEX
8
PART
10
191.691
20
38.1732
0
VERTEX
8
PART
10
191.288
20
28.5016
0
VERTEX
8
PART
10
186.056
20
27.6617
0
VERTEX
8
PART
10
186.054
20
27.6613
0
VERTEX
8
PART
10
186.049
20
27.6609
0
VERTEX
8
PART
10
185.63
20
27.631
0
VERTEX
8
PART
10
186.028
20
37.1509
0
VERTEX
8
PART
10
181.432
20
37.3427
0
VERTEX
8
PART
10
181.037
20
27.8927
0
VERTEX
8
PART
10
179.57
20
28.476
0
VERTEX
8
PART
10
175.582
20
29.2785
0
VERTEX
8
PART
10
175.475
20
29.2913
0
VERTEX
8
PART
10
175.768
20
36.3107
0
VERTEX
8
PART
10
171.172
20
36.5025
0
VERTEX
8
PART
10
170.781
20
27.1373
0
VERTEX
8
PART
10
165.876
20
25.4961
0
VERTEX
8
PART
10
165.082
20
25.2537
0
VERTEX
8
PART
10
165.467
20
34.4851
0
VERTEX
8
PART
10
160.871
20
34.6768
0
VERTEX
8
PART
10
160.439
20
24.3412
0
VERTEX
8
PART
10
158.037
20
24.5248
0
VERTEX
8
PART
10
157.834
20
24.5223
0
VERTEX
8
PART
10
156.843
20
24.9543
0
VERTEX
8
PART
10
154.892
20
26.0982
0
VERTEX
8
PART
10
155.3
20
35.8846
0
VERTEX
8
PART
10
150.704
20
36.0763
0
VERTEX
8
PART
10
150.396
20
28.6901
0
VERTEX
8
PART
10
147.984
20
29.0717
0
VERTEX
8
PART
10
146.148
20
29.3971
0
VERTEX
8
PART
10
144.789
20
29.0122
0
VERTEX
8
PART
10
145.146
20
37.5822
0
VERTEX
8
PART
10
140.55
20
37.774
0
VERTEX
8
PART
10
140.146
20
28.077
0
VERTEX
8
PART
10
139.66
20
28.0103
0
VERTEX
8
PART
10
139.37
20
27.9811
0
VERTEX
8
PART
10
138.905
20
27.9178
0
VERTEX
8
PART
10
138.687
20
27.9741
0
VERTEX
8
PART
10
137.579
20
28.2261
0
VERTEX
8
PART
10
136.152
20
28.567
0
VERTEX
8
PART
10
134.85
20
28.7827
0
VERTEX
8
PART
10
134.561
20
28.9403
0
VERTEX
8
PART
10
134.945
20
38.1445
0
VERTEX
8
PART
10
130.349
20
38.3362
0
VERTEX
8
PART
10
130.053
20
31.2587
0
VERTEX
8
PART
10
126.035
20
36.3372
0
VERTEX
8
PART
10
124.699
20
36.9489
0
VERTEX
8
PART
10
124.669
20
36.9293
0
VERTEX
8
PART
10
124.797
20
39.983
0
VERTEX
8
PART
10
120.201
20
40.1748
0
VERTEX
8
PART
10
119.93
20
33.6989
0
VERTEX
8
PART
10
118.937
20
32.898
0
VERTEX
8
PART
10
116.434
20
32.4025
0
VERTEX
8
PART
10
115.659
20
32.3472
0
VERTEX
8
PART
10
114.265
20
32.6252
0
VERTEX
8
PART
10
114.565
20
39.8194
0
VERTEX
8
PART
10
109.969
20
40.0112
0
VERTEX
8
PART
10
109.698
20
33.5123
0
VERTEX
8
PART
10
107.808
20
33.8378
0
VERTEX
8
PART
10
106.462
20
34.0608
0
VERTEX
8
PART
10
104.945
20
34.3997
0
VERTEX
8
PART
10
103.455
20
35.5347
0
VERTEX
8
PART
10
103.083
20
35.8028
0
VERTEX
8
PART
10
102.767
20
36.3579
0
SEQEND
0
TEXT
8
TEXT
10
191.762
20
43.7047
40
4
1
Z9.1
50
177.611
0
POLYLINE
8
PART
10
0
20
0
66
1
70
1
62
1
0
VERTEX
8
PART
10
195.484
20
73
0
VERTEX
8
PART
10
196.038
20
72.1966
0
VERTEX
8
PART
10
196.355
20
71.6919
0
VERTEX
8
PART
10
197.26
20
70.2849
0
VERTEX
8
PART
10
197.817
20
69.408
0
VERTEX
8
PART
10
198.194
20
68.812
0
VERTEX
8
PART
10
199.069
20
67.567
0
VERTEX
8
PART
10
199.069
20
57.2178
0
VERTEX
8
PART
10
199.066
20
54.6778
0
VERTEX
8
PART
10
198.881
20
54.4282
0
VERTEX
8
PART
10
198.657
20
54.0743
0
VERTEX
8
PART
10
197.358
20
52.1292
0
VERTEX
8
PART
10
196.275
20
50.3346
0
VERTEX
8
PART
10
196.124
20
50.1008
0
VERTEX
8
PART
10
195.901
20
49.7285
0
VERTEX
8
PART
10
195.028
20
49.347
0
VERTEX
8
PART
10
194.474
20
49.1003
0
VERTEX
8
PART
10
193.92
20
48.8759
0
VERTEX
8
PART
10
193.095
20
48.5342
0
VERTEX
8
PART
10
191.455
20
49.6378
0
VERTEX
8
PART
10
189.187
20
51.1806
0
VERTEX
8
PART
10
188.401
20
51.7198
0
VERTEX
8
PART
10
186.827
20
52.6584
0
VERTEX
8
PART
10
186.473
20
53.2803
0
VERTEX
8
PART
10
186.183
20
53.7735
0
VERTEX
8
PART
10
186.016
20
54.1744
0
VERTEX
8
PART
10
186.032
20
55.4688
0
VERTEX
8
PART
10
193.378
20
58.2534
0
VERTEX
8
PART
10
191.748
20
62.5547
0
VERTEX
8
PART
10
186.038
20
60.3905
0
VERTEX
8
PART
10
186.019
20
61.5008
0
VERTEX
8
PART
10
186
20
63.9511
0
VERTEX
8
PART
10
186.179
20
64.8673
0
VERTEX
8
PART
10
186.476
20
66.86
0
VERTEX
8
PART
10
186.544
20
67.2412
0
VERTEX
8
PART
10
186.576
20
67.4773
0
VERTEX
8
PART
10
188.649
20
69.4486
0
VERTEX
8
PART
10
190.302
20
70.7958
0
VERTEX
8
PART
10
190.509
20
70.9812
0
VERTEX
8
PART
10
190.652
20
71.1179
0
VERTEX
8
PART
10
193.652
20
72.2793
0
SEQEND
0
TEXT
8
TEXT
10
196.649
20
63.6127
40
2
1
Z10.1
50
110.759
0
POLYLINE
8
PART
10
0
20
0
66
1
70
1
62
1
0
VERTEX
8
PART
10
0.633329
20
32.0355
0
VERTEX
8
PART
10
0.0449818
20
33.101
0
VERTEX
8
PART
10
7.10543e-15
20
33.169
0
VERTEX
8
PART
10
0.018393
20
37.5941
0
VERTEX
8
PART
10
0
20
52.7495
0
VERTEX
8
PART
10
0.0394646
20
52.8145
0
VERTEX
8
PART
10
0.806204
20
52.9538
0
VERTEX
8
PART
10
1.34628
20
53.0603
0
VERTEX
8
PART
10
3.27163
20
53.5296
0
VERTEX
8
PART
10
5.58013
20
53.9376
0
VERTEX
8
PART
10
5.72623
20
53.9636
0
VERTEX
8
PART
10
5.91598
20
54
0
VERTEX
8
PART
10
6.59369
20
53.7275
0
VERTEX
8
PART
10
13.7801
20
50.7483
0
VERTEX
8
PART
10
14.426
20
49.1307
0
VERTEX
8
PART
10
15.0155
20
47.9733
0
VERTEX
8
PART
10
15.0172
20
47.0049
0
VERTEX
8
PART
10
7.20584
20
45.9085
0
VERTEX
8
PART
10
7.84521
20
41.3532
0
VERTEX
8
PART
10
15.0698
20
42.3672
0
VERTEX
8
PART
10
15.1054
20
39.6978
0
VERTEX
8
PART
10
15.1065
20
39.5962
0
VERTEX
8
PART
10
15.1074
20
39.5459
0
VERTEX
8
PART
10
15.0924
20
39.5198
0
VERTEX
8
PART
10
13.5501
20
36.8988
0
VERTEX
8
PART
10
10.571
20
35.0718
0
VERTEX
8
PART
10
7.78679
20
33.2976
0
VERTEX
8
PART
10
5.60786
20
32.9167
0
SEQEND
0
TEXT
8
TEXT
10
2.51162
20
41.5891
40
2
1
Z10.2
50
277.99
0
POLYLINE
8
PART
10
0
20
0
66
1
70
1
62
1
0
VERTEX
8
PART
10
103.63
20
1.28902
0
VERTEX
8
PART
10
95.612
20
1.37149
0
VERTEX
8
PART
10
83.0918
20
1.28902
0
VERTEX
8
PART
10
83.0763
20
1.32724
0
VERTEX
8
PART
10
83.0865
20
1.79792
0
VERTEX
8
PART
10
83.0909
20
2.09913
0
VERTEX
8
PART
10
83.0228
20
5.20584
0
VERTEX
8
PART
10
83.0172
20
7.47968
0
VERTEX
8
PART
10
83
20
8.82217
0
VERTEX
8
PART
10
84.6469
20
12.0822
0
VERTEX
8
PART
10
86.2728
20
16.0575
0
VERTEX
8
PART
10
86.5214
20
16.5949
0
VERTEX
8
PART
10
86.5622
20
16.7035
0
VERTEX
8
PART
10
86.5851
20
16.7641
0
VERTEX
8
PART
10
86.7157
20
17.1406
0
VERTEX
8
PART
10
89.802
20
18.1804
0
VERTEX
8
PART
10
89.4515
20
10.2582
0
VERTEX
8
PART
10
94.047
20
10.0548
0
VERTEX
8
PART
10
94.4428
20
19
0
VERTEX
8
PART
10
98.3275
20
18.5436
0
VERTEX
8
PART
10
99.4332
20
18.4092
0
VERTEX
8
PART
10
100.092
20
17.7231
0
VERTEX
8
PART
10
102.484
20
15.3809
0
VERTEX
8
PART
10
103.214
20
11.1313
0
VERTEX
8
PART
10
103.868
20
7.83926
0
VERTEX
8
PART
10
103.806
20
6.27736
0
SEQEND
0
TEXT
8
TEXT
10
93.5756
20
5.61758
40
2
1
Z10.3
50
-2.53352
0
POLYLINE
8
PART
10
0
20
0
66
1
70
1
62
1
0
VERTEX
8
PART
10
81.9976
20
7.12006
0
VERTEX
8
PART
10
81.8084
20
4.86718
0
VERTEX
8
PART
10
81.5431
20
1.77791
0
VERTEX
8
PART
10
81.5063
20
1.24708
0
VERTEX
8
PART
10
81.5025
20
0.630243
0
VERTEX
8
PART
10
79.7881
20
0.644996
0
VERTEX
8
PART
10
72.3546
20
0.633757
0
VERTEX
8
PART
10
66.9379
20
0.651729
0
VERTEX
8
PART
10
66.3352
20
0.659629
0
VERTEX
8
PART
10
65.599
20
0.630243
0
VERTEX
8
PART
10
61.3977
20
3.06228
0
VERTEX
8
PART
10
61
20
3.29251
0
VERTEX
8
PART
10
61.0424
20
6.27853
0
VERTEX
8
PART
10
61.0628
20
7.95932
0
VERTEX
8
PART
10
61.0718
20
9.52234
0
VERTEX
8
PART
10
61.0835
20
12.7041
0
VERTEX
8
PART
10
61.0835
20
12.7151
0
VERTEX
8
PART
10
61.0833
20
12.7394
0
VERTEX
8
PART
10
62.4537
20
13.929
0
VERTEX
8
PART
10
62.1737
20
8.90863
0
VERTEX
8
PART
10
66.7666
20
8.65246
0
VERTEX
8
PART
10
67.247
20
17.2669
0
VERTEX
8
PART
10
69.3493
20
17.8396
0
VERTEX
8
PART
10
70.0125
20
18
0
VERTEX
8
PART
10
72.5433
20
17.9163
0
VERTEX
8
PART
10
72.9073
20
17.9041
0
VERTEX
8
PART
10
72.4307
20
9.35999
0
VERTEX
8
PART
10
77.0236
20
9.10382
0
VERTEX
8
PART
10
77.4644
20
17.0066
0
VERTEX
8
PART
10
79.6735
20
14.9542
0
VERTEX
8
PART
10
81.3496
20
9.25713
0
VERTEX
8
PART
10
81.7986
20
8.01771
0
SEQEND
0
TEXT
8
TEXT
10
67.2424
20
4.11268
40
2
1
Z10.4
50
-3.19242
0
POLYLINE
8
PART
10
0
20
0
66
1
70
1
62
1
0
VERTEX
8
PART
10
28
20
18.8803
0
VERTEX
8
PART
10
28.638
20
20.165
0
VERTEX
8
PART
10
28.8379
20
20.5331
0
VERTEX
8
PART
10
29.3227
20
21.4241
0
VERTEX
8
PART
10
29.7295
20
22.109
0
VERTEX
8
PART
10
30.0076
20
22.5768
0
VERTEX
8
PART
10
30.6181
20
23.5225
0
VERTEX
8
PART
10
30.6902
20
23.635
0
VERTEX
8
PART
10
30.9471
20
24
0
VERTEX
8
PART
10
32.009
20
23.8362
0
VERTEX
8
PART
10
32.3916
20
23.8147
0
VERTEX
8
PART
10
33.5799
20
23.6387
0
VERTEX
8
PART
10
31.8621
20
16.9331
0
VERTEX
8
PART
10
36.3182
20
15.7915
0
VERTEX
8
PART
10
38.0773
20
22.6584
0
VERTEX
8
PART
10
38.3526
20
22.3772
0
VERTEX
8
PART
10
41.106
20
19.6773
0
VERTEX
8
PART
10
42.6963
20
18.0585
0
VERTEX
8
PART
10
40.4476
20
9.28084
0
VERTEX
8
PART
10
44.9037
20
8.13928
0
VERTEX
8
PART
10
45.177
20
9.2059
0
VERTEX
8
PART
10
45.304
20
8.72194
0
VERTEX
8
PART
10
45.3
20
8.70698
0
VERTEX
8
PART
10
45.2982
20
8.7002
0
VERTEX
8
PART
10
44.8758
20
7.17667
0
VERTEX
8
PART
10
44.6546
20
6.38933
0
VERTEX
8
PART
10
44.432
20
5.62087
0
VERTEX
8
PART
10
43.9872
20
4.11139
0
VERTEX
8
PART
10
43.8049
20
4.08092
0
VERTEX
8
PART
10
43.7174
20
4.04931
0
VERTEX
8
PART
10
43.4952
20
3.9961
0
VERTEX
8
PART
10
41.0623
20
3.49364
0
VERTEX
8
PART
10
39.1039
20
2.95433
0
VERTEX
8
PART
10
37.4286
20
4.27839
0
VERTEX
8
PART
10
37.2169
20
4.44573
0
VERTEX
8
PART
10
36.8242
20
4.78239
0
VERTEX
8
PART
10
34.3742
20
7.23586
0
VERTEX
8
PART
10
32.8461
20
8.76055
0
VERTEX
8
PART
10
31.6192
20
10.2205
0
VERTEX
8
PART
10
31.1426
20
10.7764
0
VERTEX
8
PART
10
30.6382
20
11.2365
0
VERTEX
8
PART
10
30.6369
20
11.2384
0
VERTEX
8
PART
10
30.6359
20
11.2395
0
VERTEX
8
PART
10
30.2577
20
11.7094
0
VERTEX
8
PART
10
29.57
20
12.9285
0
VERTEX
8
PART
10
29.1546
20
13.8281
0
VERTEX
8
PART
10
28.9759
20
14.0618
0
VERTEX
8
PART
10
28.861
20
14.2539
0
VERTEX
8
PART
10
28.5944
20
14.6538
0
VERTEX
8
PART
10
28.2355
20
16.713
0
VERTEX
8
PART
10
28.197
20
17.1724
0
VERTEX
8
PART
10
28.0206
20
18.6947
0
VERTEX
8
PART
10
28.0101
20
18.7954
0
SEQEND
0
TEXT
8
TEXT
10
40.246
20
11.868
40
2
1
Z11.1
50
165.631
0
POLYLINE
8
PART
10
0
20
0
66
1
70
1
62
1
0
VERTEX
8
PART
10
175.251
20
68.912
0
VERTEX
8
PART
10
177.192
20
69.1977
0
VERTEX
8
PART
10
178.081
20
69.3144
0
VERTEX
8
PART
10
179.898
20
69.5567
0
VERTEX
8
PART
10
182.827
20
69.9217
0
VERTEX
8
PART
10
183.088
20
69.955
0
VERTEX
8
PART
10
183.462
20
70
0
VERTEX
8
PART
10
183.728
20
69.3666
0
VERTEX
8
PART
10
184.881
20
66.5147
0
VERTEX
8
PART
10
184.763
20
63.8347
0
VERTEX
8
PART
10
184.705
20
61.6247
0
VERTEX
8
PART
10
184.549
20
57.0642
0
VERTEX
8
PART
10
184.569
20
50.8868
0
VERTEX
8
PART
10
184.452
20
50.5808
0
VERTEX
8
PART
10
184.236
20
49.977
0
VERTEX
8
PART
10
183.739
20
48.5027
0
VERTEX
8
PART
10
183.552
20
47.9096
0
VERTEX
8
PART
10
181.466
20
47.5151
0
VERTEX
8
PART
10
179.193
20
47.0816
0
VERTEX
8
PART
10
178.743
20
46.9572
0
VERTEX
8
PART
10
177.303
20
46.5724
0
VERTEX
8
PART
10
176.803
20
46.7924
0
VERTEX
8
PART
10
172.409
20
48.9024
0
VERTEX
8
PART
10
177.827
20
49.8572
0
VERTEX
8
PART
10
177.028
20
54.3874
0
VERTEX
8
PART
10
169.491
20
53.059
0
VERTEX
8
PART
10
169.44
20
53.4908
0
VERTEX
8
PART
10
169.419
20
53.7285
0
VERTEX
8
PART
10
169.021
20
58.3901
0
VERTEX
8
PART
10
169
20
58.675
0
VERTEX
8
PART
10
177.194
20
60.1193
0
VERTEX
8
PART
10
176.396
20
64.6494
0
VERTEX
8
PART
10
169
20
63.3459
0
VERTEX
8
PART
10
169.404
20
64.0375
0
VERTEX
8
PART
10
169.808
20
64.6528
0
VERTEX
8
PART
10
170.025
20
64.9977
0
VERTEX
8
PART
10
172.388
20
66.7574
0
VERTEX
8
PART
10
174.003
20
67.9873
0
VERTEX
8
PART
10
174.768
20
68.5026
0
SEQEND
0
TEXT
8
TEXT
10
183.175
20
47.8716
40
2
1
Z11.2
50
99.9958
0
POLYLINE
8
PART
10
0
20
0
66
1
70
1
62
1
0
VERTEX
8
PART
10
199.255
20
116
0
VERTEX
8
PART
10
199.256
20
115.406
0
VERTEX
8
PART
10
199.266
20
114.185
0
VERTEX
8
PART
10
199.227
20
112.83
0
VERTEX
8
PART
10
199.222
20
112.121
0
VERTEX
8
PART
10
199.17
20
107.791
0
VERTEX
8
PART
10
199.15
20
105.133
0
VERTEX
8
PART
10
199.216
20
99.7272
0
VERTEX
8
PART
10
199.219
20
98.8346
0
VERTEX
8
PART
10
199.266
20
96.2802
0
VERTEX
8
PART
10
198.911
20
94.8217
0
VERTEX
8
PART
10
198.439
20
93.0122
0
VERTEX
8
PART
10
197.967
20
93.0065
0
VERTEX
8
PART
10
197.75
20
93.0005
0
VERTEX
8
PART
10
194.99
20
92.9494
0
VERTEX
8
PART
10
193.249
20
92.898
0
VERTEX
8
PART
10
191.762
20
92.8655
0
VERTEX
8
PART
10
188.787
20
93.021
0
VERTEX
8
PART
10
184.874
20
97.1834
0
VERTEX
8
PART
10
184.777
20
97.3027
0
VERTEX
8
PART
10
184.444
20
97.8117
0
VERTEX
8
PART
10
184.383
20
97.9045
0
VERTEX
8
PART
10
191.108
20
98.0543
0
VERTEX
8
PART
10
191.006
20
102.653
0
VERTEX
8
PART
10
183
20
102.475
0
VERTEX
8
PART
10
183.16
20
105.579
0
VERTEX
8
PART
10
183.292
20
108.099
0
VERTEX
8
PART
10
191.362
20
108.278
0
VERTEX
8
PART
10
191.26
20
112.877
0
VERTEX
8
PART
10
185.251
20
112.744
0
VERTEX
8
PART
10
185.514
20
113.047
0
VERTEX
8
PART
10
189.396
20
114.633
0
VERTEX
8
PART
10
190.327
20
115.103
0
VERTEX
8
PART
10
191.291
20
115.577
0
VERTEX
8
PART
10
192.181
20
115.64
0
VERTEX
8
PART
10
192.502
20
115.66
0
VERTEX
8
PART
10
194.413
20
115.781
0
VERTEX
8
PART
10
195.535
20
115.842
0
VERTEX
8
PART
10
196.603
20
115.9
0
VERTEX
8
PART
10
198.394
20
115.975
0
VERTEX
8
PART
10
198.632
20
115.985
0
SEQEND
0
TEXT
8
TEXT
10
197.205
20
95.2486
40
2
1
Z11.3
50
91.2755
0
POLYLINE
8
PART
10
0
20
0
66
1
70
1
62
1
0
VERTEX
8
PART
10
198.799
20
75.2619
0
VERTEX
8
PART
10
198.65
20
74.9606
0
VERTEX
8
PART
10
198.191
20
73.9924
0
VERTEX
8
PART
10
191.431
20
73.7111
0
VERTEX
8
PART
10
182.673
20
73.3264
0
VERTEX
8
PART
10
181.465
20
74.1794
0
VERTEX
8
PART
10
179.732
20
75.2861
0
VERTEX
8
PART
10
178.819
20
75.8808
0
VERTEX
8
PART
10
178.076
20
76.3237
0
VERTEX
8
PART
10
178.017
20
77.6648
0
VERTEX
8
PART
10
178
20
78.0603
0
VERTEX
8
PART
10
178.019
20
79.6592
0
VERTEX
8
PART
10
178.024
20
80.8331
0
VERTEX
8
PART
10
178.03
20
81.7621
0
VERTEX
8
PART
10
178.03
20
83.6541
0
VERTEX
8
PART
10
178.03
20
84.0101
0
VERTEX
8
PART
10
178.023
20
85.4193
0
VERTEX
8
PART
10
179.57
20
87.2344
0
VERTEX
8
PART
10
179.836
20
87.5382
0
VERTEX
8
PART
10
179.672
20
81.8972
0
VERTEX
8
PART
10
184.27
20
81.7635
0
VERTEX
8
PART
10
184.533
20
90.8035
0
VERTEX
8
PART
10
184.923
20
91
0
VERTEX
8
PART
10
190.027
20
90.9999
0
VERTEX
8
PART
10
190.157
20
91
0
VERTEX
8
PART
10
189.908
20
82.4312
0
VERTEX
8
PART
10
194.506
20
82.2975
0
VERTEX
8
PART
10
194.739
20
90.3254
0
VERTEX
8
PART
10
196.222
20
89.2791
0
VERTEX
8
PART
10
196.608
20
89.0504
0
VERTEX
8
PART
10
196.836
20
88.5173
0
VERTEX
8
PART
10
196.966
20
88.2234
0
VERTEX
8
PART
10
197.388
20
87.2365
0
VERTEX
8
PART
10
198.387
20
84.8006
0
VERTEX
8
PART
10
198.759
20
83.9422
0
VERTEX
8
PART
10
198.9
20
83.6079
0
VERTEX
8
PART
10
198.861
20
82.6259
0
VERTEX
8
PART
10
198.844
20
82.3999
0
VERTEX
8
PART
10
198.741
20
80.5749
0
VERTEX
8
PART
10
198.711
20
80.1603
0
VERTEX
8
PART
10
198.659
20
79.3389
0
VERTEX
8
PART
10
198.634
20
78.4381
0
VERTEX
8
PART
10
198.613
20
77.5826
0
VERTEX
8
PART
10
198.793
20
75.5738
0
VERTEX
8
PART
10
198.795
20
75.4865
0
SEQEND
0
TEXT
8
TEXT
10
184.339
20
76.9085
40
2
1
Z11.4
50
-1.66565
0
POLYLINE
8
PART
10
0
20
0
66
1
70
1
62
1
0
VERTEX
8
PART
10
123.279
20
209.906
0
VERTEX
8
PART
10
122.685
20
210.204
0
VERTEX
8
PART
10
122.429
20
210.332
0
VERTEX
8
PART
10
120.322
20
211.372
0
VERTEX
8
PART
10
119.415
20
211.81
0
VERTEX
8
PART
10
118.497
20
212.248
0
VERTEX
8
PART
10
116.611
20
213.133
0
VERTEX
8
PART
10
116.324
20
213.267
0
VERTEX
8
PART
10
115.584
20
213.618
0
VERTEX
8
PART
10
115.303
20
215.615
0
VERTEX
8
PART
10
115
20
217.791
0
VERTEX
8
PART
10
118.049
20
220.608
0
VERTEX
8
PART
10
118.288
20
220.846
0
VERTEX
8
PART
10
126.321
20
217.411
0
VERTEX
8
PART
10
128.129
20
221.64
0
VERTEX
8
PART
10
121.882
20
224.312
0
VERTEX
8
PART
10
124.331
20
226.959
0
VERTEX
8
PART
10
124.72
20
227.356
0
VERTEX
8
PART
10
125.411
20
228.202
0
VERTEX
8
PART
10
126.614
20
228.633
0
VERTEX
8
PART
10
127.443
20
229.003
0
VERTEX
8
PART
10
128.318
20
229.381
0
VERTEX
8
PART
10
129.546
20
230
0
VERTEX
8
PART
10
130.082
20
229.773
0
VERTEX
8
PART
10
130.302
20
229.684
0
VERTEX
8
PART
10
130.792
20
229.487
0
VERTEX
8
PART
10
132.646
20
228.726
0
VERTEX
8
PART
10
133.46
20
228.391
0
VERTEX
8
PART
10
135.003
20
227.788
0
VERTEX
8
PART
10
135.193
20
227.71
0
VERTEX
8
PART
10
135.78
20
227.483
0
VERTEX
8
PART
10
136.881
20
224.243
0
VERTEX
8
PART
10
137.415
20
222.711
0
VERTEX
8
PART
10
137.258
20
222.175
0
VERTEX
8
PART
10
136.525
20
219.481
0
VERTEX
8
PART
10
134.801
20
217.053
0
VERTEX
8
PART
10
132.839
20
214.333
0
VERTEX
8
PART
10
131.81
20
212.905
0
VERTEX
8
PART
10
131.534
20
212.524
0
VERTEX
8
PART
10
131.446
20
212.388
0
VERTEX
8
PART
10
130.893
20
211.546
0
VERTEX
8
PART
10
129.871
20
211.122
0
VERTEX
8
PART
10
128.988
20
210.736
0
VERTEX
8
PART
10
127.934
20
210.522
0
VERTEX
8
PART
10
126.935
20
210.375
0
VERTEX
8
PART
10
125.29
20
210.173
0
SEQEND
0
TEXT
8
TEXT
10
116.411
20
215.643
40
2
1
Z12.1
50
336.847
0
POLYLINE
8
PART
10
0
20
0
66
1
70
1
62
1
0
VERTEX
8
PART
10
10.6218
20
80.345
0
VERTEX
8
PART
10
8.26186
20
80.1603
0
VERTEX
8
PART
10
6.60009
20
80.0334
0
VERTEX
8
PART
10
4.41029
20
79.864
0
VERTEX
8
PART
10
1.45513
20
79.6376
0
VERTEX
8
PART
10
1.39867
20
80.0799
0
VERTEX
8
PART
10
1
20
83.0944
0
VERTEX
8
PART
10
1.00122
20
89.2786
0
VERTEX
8
PART
10
1
20
94.4412
0
VERTEX
8
PART
10
9.02823
20
95.3188
0
VERTEX
8
PART
10
8.52835
20
99.8915
0
VERTEX
8
PART
10
1.74577
20
99.1501
0
VERTEX
8
PART
10
2.15148
20
100.527
0
VERTEX
8
PART
10
2.16919
20
100.59
0
VERTEX
8
PART
10
2.18968
20
100.664
0
VERTEX
8
PART
10
4.05798
20
100.924
0
VERTEX
8
PART
10
4.55143
20
100.996
0
VERTEX
8
PART
10
6.0744
20
101.196
0
VERTEX
8
PART
10
7.12211
20
101.339
0
VERTEX
8
PART
10
8.16778
20
101.467
0
VERTEX
8
PART
10
9.821
20
101.677
0
VERTEX
8
PART
10
10.3623
20
101.736
0
VERTEX
8
PART
10
12.627
20
101.998
0
VERTEX
8
PART
10
12.6288
20
101.998
0
VERTEX
8
PART
10
12.6405
20
102
0
VERTEX
8
PART
10
12.6574
20
101.986
0
VERTEX
8
PART
10
16.2106
20
99.1879
0
VERTEX
8
PART
10
16.5814
20
98.204
0
VERTEX
8
PART
10
17.5421
20
95.6428
0
VERTEX
8
PART
10
17.6109
20
95.4252
0
VERTEX
8
PART
10
17.3989
20
92.4241
0
VERTEX
8
PART
10
17.2675
20
90.57
0
VERTEX
8
PART
10
8.80162
20
89.6445
0
VERTEX
8
PART
10
9.3015
20
85.0718
0
VERTEX
8
PART
10
16.9369
20
85.9064
0
VERTEX
8
PART
10
16.9239
20
85.7227
0
VERTEX
8
PART
10
16.3969
20
85.0422
0
VERTEX
8
PART
10
15.1648
20
83.349
0
VERTEX
8
PART
10
12.2788
20
81.5249
0
SEQEND
0
TEXT
8
TEXT
10
2.95309
20
88.8266
40
2
1
Z12.2
50
276.239
0
POLYLINE
8
PART
10
0
20
0
66
1
70
1
62
1
0
VERTEX
8
PART
10
162.193
20
46.4812
0
VERTEX
8
PART
10
161.553
20
46.5161
0
VERTEX
8
PART
10
161.409
20
46.5251
0
VERTEX
8
PART
10
160.187
20
46.5951
0
VERTEX
8
PART
10
159.739
20
46.6252
0
VERTEX
8
PART
10
158.804
20
46.6797
0
VERTEX
8
PART
10
158.07
20
46.7277
0
VERTEX
8
PART
10
157.764
20
46.7451
0
VERTEX
8
PART
10
157.457
20
46.7627
0
VERTEX
8
PART
10
156.59
20
46.8252
0
VERTEX
8
PART
10
156.26
20
46.8433
0
VERTEX
8
PART
10
155.324
20
46.9033
0
VERTEX
8
PART
10
155.205
20
46.9091
0
VERTEX
8
PART
10
154.404
20
46.9456
0
VERTEX
8
PART
10
154.274
20
47.0245
0
VERTEX
8
PART
10
154.249
20
47.047
0
VERTEX
8
PART
10
153.517
20
47.4623
0
VERTEX
8
PART
10
153.376
20
47.5462
0
VERTEX
8
PART
10
152.881
20
47.801
0
VERTEX
8
PART
10
152.675
20
47.9398
0
VERTEX
8
PART
10
152.011
20
48.182
0
VERTEX
8
PART
10
151.494
20
48.6197
0
VERTEX
8
PART
10
151.079
20
48.8211
0
VERTEX
8
PART
10
150.589
20
49.2367
0
VERTEX
8
PART
10
150.345
20
49.3696
0
VERTEX
8
PART
10
149.693
20
49.9479
0
VERTEX
8
PART
10
149.57
20
50.0254
0
VERTEX
8
PART
10
148.748
20
50.7083
0
VERTEX
8
PART
10
148.73
20
50.7217
0
VERTEX
8
PART
10
148.716
20
50.7324
0
VERTEX
8
PART
10
148.57
20
50.8618
0
VERTEX
8
PART
10
148.542
20
51.3955
0
VERTEX
8
PART
10
158.157
20
50.9775
0
VERTEX
8
PART
10
158.357
20
55.5731
0
VERTEX
8
PART
10
148.299
20
56.0104
0
VERTEX
8
PART
10
148
20
61.6447
0
VERTEX
8
PART
10
158.485
20
61.1888
0
VERTEX
8
PART
10
158.685
20
65.7845
0
VERTEX
8
PART
10
152.924
20
66.035
0
VERTEX
8
PART
10
153.63
20
66.7046
0
VERTEX
8
PART
10
153.642
20
66.7148
0
VERTEX
8
PART
10
153.732
20
66.8005
0
VERTEX
8
PART
10
154.465
20
66.8762
0
VERTEX
8
PART
10
154.529
20
66.8823
0
VERTEX
8
PART
10
155.268
20
66.9403
0
VERTEX
8
PART
10
155.405
20
66.9501
0
VERTEX
8
PART
10
156.105
20
66.9839
0
VERTEX
8
PART
10
156.333
20
66.9937
0
VERTEX
8
PART
10
156.927
20
66.9966
0
VERTEX
8
PART
10
157.26
20
67
0
VERTEX
8
PART
10
157.786
20
66.9765
0
VERTEX
8
PART
10
158.239
20
66.9643
0
VERTEX
8
PART
10
158.704
20
66.9195
0
VERTEX
8
PART
10
159.289
20
66.8795
0
VERTEX
8
PART
10
159.513
20
66.8343
0
VERTEX
8
PART
10
159.912
20
66.7716
0
VERTEX
8
PART
10
160.124
20
66.7585
0
VERTEX
8
PART
10
160.637
20
66.7352
0
VERTEX
8
PART
10
160.817
20
66.7397
0
VERTEX
8
PART
10
161.453
20
66.7571
0
VERTEX
8
PART
10
161.577
20
66.7671
0
VERTEX
8
PART
10
162.342
20
66.8242
0
VERTEX
8
PART
10
162.394
20
66.8301
0
VERTEX
8
PART
10
162.919
20
66.885
0
VERTEX
8
PART
10
163.58
20
66.4323
0
VERTEX
8
PART
10
164.558
20
65.7673
0
VERTEX
8
PART
10
165.058
20
65.4266
0
VERTEX
8
PART
10
165.356
20
65.2201
0
VERTEX
8
PART
10
166.659
20
64.2576
0
VERTEX
8
PART
10
167.572
20
61.0809
0
VERTEX
8
PART
10
168.094
20
59.3118
0
VERTEX
8
PART
10
168.094
20
53.5772
0
VERTEX
8
PART
10
168.092
20
52.119
0
VERTEX
8
PART
10
167.024
20
50.2545
0
VERTEX
8
PART
10
166.512
20
49.3563
0
VERTEX
8
PART
10
164.116
20
47.8187
0
VERTEX
8
PART
10
163.93
20
47.675
0
VERTEX
8
PART
10
163.552
20
47.4057
0
VERTEX
8
PART
10
162.824
20
46.9045
0
SEQEND
0
TEXT
8
TEXT
10
162.53
20
60.1072
40
2
1
Z12.3
50
267.51
0
POLYLINE
8
PART
10
0
20
0
66
1
70
1
62
1
0
VERTEX
8
PART
10
3.05973
20
223
0
VERTEX
8
PART
10
4.04571
20
221.986
0
VERTEX
8
PART
10
4.21466
20
221.792
0
VERTEX
8
PART
10
5.04957
20
220.475
0
VERTEX
8
PART
10
5.40872
20
219.909
0
VERTEX
8
PART
10
5.92777
20
218.891
0
VERTEX
8
PART
10
6.31681
20
218.08
0
VERTEX
8
PART
10
6.52962
20
217.32
0
VERTEX
8
PART
10
6.76307
20
216.415
0
VERTEX
8
PART
10
6.81267
20
215.471
0
VERTEX
8
PART
10
6.8642
20
214.813
0
VERTEX
8
PART
10
6.81014
20
214.29
0
VERTEX
8
PART
10
6.7876
20
213.933
0
VERTEX
8
PART
10
6.68569
20
213.473
0
VERTEX
8
PART
10
6.62752
20
213.15
0
VERTEX
8
PART
10
6.46589
20
212.753
0
VERTEX
8
PART
10
6.35424
20
212.452
0
VERTEX
8
PART
10
6.14557
20
212.113
0
VERTEX
8
PART
10
5.96239
20
211.817
0
VERTEX
8
PART
10
5.70324
20
211.533
0
VERTEX
8
PART
10
5.42909
20
211.211
0
VERTEX
8
PART
10
5.14056
20
210.976
0
VERTEX
8
PART
10
4.72765
20
210.637
0
VERTEX
8
PART
10
4.44412
20
210.453
0
VERTEX
8
PART
10
3.84978
20
210.07
0
VERTEX
8
PART
10
3.60486
20
209.939
0
VERTEX
8
PART
10
1.66339
20
209.178
0
VERTEX
8
PART
10
0.0705431
20
211.174
0
VERTEX
8
PART
10
0
20
211.324
0
VERTEX
8
PART
10
0.201306
20
211.756
0
VERTEX
8
PART
10
0.137939
20
211.933
0
VERTEX
8
PART
10
0.104453
20
212.118
0
VERTEX
8
PART
10
0.105899
20
213.248
0
VERTEX
8
PART
10
0.0882766
20
213.553
0
VERTEX
8
PART
10
0.0505174
20
213.923
0
VERTEX
8
PART
10
0.0356092
20
214.399
0
VERTEX
8
PART
10
0
20
216.287
0
VERTEX
8
PART
10
0.0153668
20
216.766
0
VERTEX
8
PART
10
0.0253436
20
218.577
0
VERTEX
8
PART
10
0.0804727
20
218.908
0
VERTEX
8
PART
10
0.398273
20
220.955
0
VERTEX
8
PART
10
0.414901
20
221.026
0
VERTEX
8
PART
10
0.501293
20
221.373
0
VERTEX
8
PART
10
0.827362
20
221.654
0
VERTEX
8
PART
10
0.99043
20
221.792
0
VERTEX
8
PART
10
1.23047
20
221.954
0
VERTEX
8
PART
10
2.91145
20
222.918
0
VERTEX
8
PART
10
3.02143
20
222.974
0
SEQEND
0
TEXT
8
TEXT
10
6.44097
20
212.19
40
2
1
Z13.1
50
109.301
0
POLYLINE
8
PART
10
0
20
0
66
1
70
1
62
1
0
VERTEX
8
PART
10
169.849
20
67.9245
0
VERTEX
8
PART
10
168.587
20
67.8748
0
VERTEX
8
PART
10
168.428
20
67.8694
0
VERTEX
8
PART
10
167.092
20
67.8277
0
VERTEX
8
PART
10
166.733
20
67.8178
0
VERTEX
8
PART
10
165.538
20
67.7871
0
VERTEX
8
PART
10
164.934
20
67.769
0
VERTEX
8
PART
10
163.904
20
67.7406
0
VERTEX
8
PART
10
163.361
20
67.6484
0
VERTEX
8
PART
10
162.68
20
67.6203
0
VERTEX
8
PART
10
161.975
20
67.6152
0
VERTEX
8
PART
10
161.525
20
67.6026
0
VERTEX
8
PART
10
160.82
20
67.6197
0
VERTEX
8
PART
10
160.53
20
67.6215
0
VERTEX
8
PART
10
159.859
20
67.679
0
VERTEX
8
PART
10
159.688
20
67.691
0
VERTEX
8
PART
10
159.018
20
67.8105
0
VERTEX
8
PART
10
158.932
20
67.8251
0
VERTEX
8
PART
10
158.265
20
68.0332
0
VERTEX
8
PART
10
158.243
20
68.0399
0
VERTEX
8
PART
10
158
20
68.1537
0
VERTEX
8
PART
10
157.393
20
70.0526
0
VERTEX
8
PART
10
157.252
20
70.3837
0
VERTEX
8
PART
10
157
20
71.0576
0
VERTEX
8
PART
10
157.006
20
71.8697
0
VERTEX
8
PART
10
157.006
20
71.976
0
VERTEX
8
PART
10
157.019
20
72.3033
0
VERTEX
8
PART
10
167.316
20
74.1667
0
VERTEX
8
PART
10
166.497
20
78.6932
0
VERTEX
8
PART
10
157.232
20
77.0166
0
VERTEX
8
PART
10
157.241
20
77.2472
0
VERTEX
8
PART
10
157.31
20
78.7008
0
VERTEX
8
PART
10
157.51
20
79.1977
0
VERTEX
8
PART
10
157.661
20
79.5481
0
VERTEX
8
PART
10
157.886
20
80.4607
0
VERTEX
8
PART
10
158.261
20
81.6812
0
VERTEX
8
PART
10
158.349
20
81.9178
0
VERTEX
8
PART
10
158.517
20
82.4068
0
VERTEX
8
PART
10
159.05
20
84.4825
0
VERTEX
8
PART
10
159.251
20
84.5553
0
VERTEX
8
PART
10
159.281
20
84.5668
0
VERTEX
8
PART
10
160.469
20
85.0081
0
VERTEX
8
PART
10
160.684
20
85.0928
0
VERTEX
8
PART
10
161.74
20
85.4413
0
VERTEX
8
PART
10
162.112
20
85.5706
0
VERTEX
8
PART
10
163.04
20
85.8424
0
VERTEX
8
PART
10
163.561
20
86.0031
0
VERTEX
8
PART
10
164.356
20
86.2108
0
VERTEX
8
PART
10
165.025
20
86.3947
0
VERTEX
8
PART
10
165.684
20
86.5503
0
VERTEX
8
PART
10
166.512
20
86.7541
0
VERTEX
8
PART
10
167.04
20
86.8681
0
VERTEX
8
PART
10
168.024
20
87.0886
0
VERTEX
8
PART
10
168.424
20
87.1683
0
VERTEX
8
PART
10
169.557
20
87.4049
0
VERTEX
8
PART
10
169.823
20
87.4553
0
VERTEX
8
PART
10
171.088
20
87.7074
0
VERTEX
8
PART
10
171.219
20
87.7315
0
VERTEX
8
PART
10
172.604
20
88
0
VERTEX
8
PART
10
172.654
20
87.9764
0
VERTEX
8
PART
10
174.323
20
87.1763
0
VERTEX
8
PART
10
175.077
20
86.81
0
VERTEX
8
PART
10
176.797
20
86.2192
0
VERTEX
8
PART
10
176.946
20
86.155
0
VERTEX
8
PART
10
177.048
20
86.0968
0
VERTEX
8
PART
10
177.271
20
85.9675
0
VERTEX
8
PART
10
177.334
20
85.1859
0
VERTEX
8
PART
10
177.334
20
81.5551
0
VERTEX
8
PART
10
176.988
20
79.7321
0
VERTEX
8
PART
10
175.944
20
74.2126
0
VERTEX
8
PART
10
175.22
20
72.4983
0
VERTEX
8
PART
10
175.086
20
72.1609
0
VERTEX
8
PART
10
174.668
20
71.1695
0
VERTEX
8
PART
10
173.045
20
70.096
0
VERTEX
8
PART
10
172.637
20
69.8218
0
VERTEX
8
PART
10
171.922
20
69.3498
0
VERTEX
8
PART
10
171.032
20
68.6421
0
VERTEX
8
PART
10
170.025
20
68.0323
0
VERTEX
8
PART
10
169.976
20
67.9982
0
SEQEND
0
TEXT
8
TEXT
10
168.573
20
84.7894
40
2
1
Z13.2
50
280.257
0
POLYLINE
8
PART
10
0
20
0
66
1
70
1
62
1
0
VERTEX
8
PART
10
120.118
20
57.1737
0
VERTEX
8
PART
10
120.188
20
56.6244
0
VERTEX
8
PART
10
120.355
20
55.4486
0
VERTEX
8
PART
10
120.393
20
55.2562
0
VERTEX
8
PART
10
120.539
20
54.5505
0
VERTEX
8
PART
10
120.733
20
54.4464
0
VERTEX
8
PART
10
121.1
20
54.3611
0
VERTEX
8
PART
10
121.272
20
54.2862
0
VERTEX
8
PART
10
121.63
20
54.1938
0
VERTEX
8
PART
10
121.873
20
54.0133
0
VERTEX
8
PART
10
122.257
20
53.7742
0
VERTEX
8
PART
10
122.611
20
53.7733
0
VERTEX
8
PART
10
123.074
20
53.5318
0
VERTEX
8
PART
10
123.481
20
53.3707
0
VERTEX
8
PART
10
123.873
20
53.143
0
VERTEX
8
PART
10
124.317
20
52.9571
0
VERTEX
8
PART
10
124.755
20
52.8781
0
VERTEX
8
PART
10
125.168
20
52.5609
0
VERTEX
8
PART
10
125.65
20
52.557
0
VERTEX
8
PART
10
126.155
20
52.2791
0
VERTEX
8
PART
10
126.671
20
52.2882
0
VERTEX
8
PART
10
126.938
20
52.1298
0
VERTEX
8
PART
10
127.106
20
51.8728
0
VERTEX
8
PART
10
127.354
20
51.6681
0
VERTEX
8
PART
10
127.8
20
51.5728
0
VERTEX
8
PART
10
128.118
20
51.4049
0
VERTEX
8
PART
10
128.729
20
51.1312
0
VERTEX
8
PART
10
129.095
20
51.046
0
VERTEX
8
PART
10
129.538
20
50.8833
0
VERTEX
8
PART
10
130.097
20
50.6733
0
VERTEX
8
PART
10
130.461
20
50.5709
0
VERTEX
8
PART
10
130.84
20
50.3835
0
VERTEX
8
PART
10
131.228
20
50.2761
0
VERTEX
8
PART
10
131.481
20
50.2283
0
VERTEX
8
PART
10
131.754
20
50.252
0
VERTEX
8
PART
10
134.012
20
50.0195
0
VERTEX
8
PART
10
134.256
20
50.0094
0
VERTEX
8
PART
10
134.541
20
49.9665
0
VERTEX
8
PART
10
134.855
20
50.0104
0
VERTEX
8
PART
10
135.211
20
50.071
0
VERTEX
8
PART
10
136.879
20
50.0375
0
VERTEX
8
PART
10
137.286
20
50.1494
0
VERTEX
8
PART
10
137.57
20
50.2318
0
VERTEX
8
PART
10
137.678
20
50.2764
0
VERTEX
8
PART
10
138.055
20
50.3038
0
VERTEX
8
PART
10
138.287
20
50.3648
0
VERTEX
8
PART
10
138.736
20
50.2939
0
VERTEX
8
PART
10
139.358
20
50.3736
0
VERTEX
8
PART
10
139.704
20
50.4486
0
VERTEX
8
PART
10
140.046
20
50.5734
0
VERTEX
8
PART
10
140.069
20
50.5887
0
VERTEX
8
PART
10
140.483
20
50.6863
0
VERTEX
8
PART
10
141.079
20
51.0056
0
VERTEX
8
PART
10
141.138
20
51.0683
0
VERTEX
8
PART
10
141.14
20
51.0712
0
VERTEX
8
PART
10
141.877
20
52.061
0
VERTEX
8
PART
10
141.932
20
52.1244
0
VERTEX
8
PART
10
141.997
20
52.1987
0
VERTEX
8
PART
10
142.086
20
52.2687
0
VERTEX
8
PART
10
145.484
20
56.3052
0
VERTEX
8
PART
10
145.721
20
56.551
0
VERTEX
8
PART
10
145.953
20
56.7946
0
VERTEX
8
PART
10
146.135
20
57.013
0
VERTEX
8
PART
10
147.048
20
58.1594
0
VERTEX
8
PART
10
146.284
20
71.8435
0
VERTEX
8
PART
10
150.877
20
72.0997
0
VERTEX
8
PART
10
151.303
20
64.4693
0
VERTEX
8
PART
10
151.358
20
64.5424
0
VERTEX
8
PART
10
151.886
20
65.593
0
VERTEX
8
PART
10
152.808
20
67.0306
0
VERTEX
8
PART
10
152.94
20
67.2494
0
VERTEX
8
PART
10
153.255
20
67.6402
0
VERTEX
8
PART
10
154.386
20
69.2857
0
VERTEX
8
PART
10
154.665
20
69.5663
0
VERTEX
8
PART
10
156.186
20
71.4249
0
VERTEX
8
PART
10
156.196
20
71.4376
0
VERTEX
8
PART
10
156.256
20
71.5076
0
VERTEX
8
PART
10
156.115
20
73.1479
0
VERTEX
8
PART
10
155.479
20
79.1934
0
VERTEX
8
PART
10
155.177
20
79.6316
0
VERTEX
8
PART
10
152.041
20
82.6096
0
VERTEX
8
PART
10
149.398
20
83
0
VERTEX
8
PART
10
148.627
20
82.8756
0
VERTEX
8
PART
10
147.239
20
82.7541
0
VERTEX
8
PART
10
146.139
20
82.3493
0
VERTEX
8
PART
10
145.221
20
82.0393
0
VERTEX
8
PART
10
141.974
20
80.5333
0
VERTEX
8
PART
10
141.314
20
80.4253
0
VERTEX
8
PART
10
140.833
20
80.2279
0
VERTEX
8
PART
10
140.418
20
79.9365
0
VERTEX
8
PART
10
139.579
20
79.3161
0
VERTEX
8
PART
10
138.96
20
78.7808
0
VERTEX
8
PART
10
138.514
20
78.5072
0
VERTEX
8
PART
10
137.787
20
77.7864
0
VERTEX
8
PART
10
137.261
20
77.5761
0
VERTEX
8
PART
10
136.52
20
77.3183
0
VERTEX
8
PART
10
136.166
20
77.0066
0
VERTEX
8
PART
10
135.511
20
76.4443
0
VERTEX
8
PART
10
135.501
20
76.1723
0
VERTEX
8
PART
10
135.446
20
75.578
0
VERTEX
8
PART
10
133.646
20
73.7411
0
VERTEX
8
PART
10
133.307
20
73.4301
0
VERTEX
8
PART
10
134
20
60.9981
0
VERTEX
8
PART
10
129.407
20
60.7419
0
VERTEX
8
PART
10
128.945
20
69.0287
0
VERTEX
8
PART
10
128.768
20
68.7995
0
VERTEX
8
PART
10
127.973
20
68.1561
0
VERTEX
8
PART
10
127.606
20
68.0761
0
VERTEX
8
PART
10
127.142
20
67.9875
0
VERTEX
8
PART
10
127.101
20
67.9461
0
VERTEX
8
PART
10
127.087
20
67.9339
0
VERTEX
8
PART
10
126.623
20
67.2738
0
VERTEX
8
PART
10
126.408
20
66.4833
0
VERTEX
8
PART
10
126.189
20
66.308
0
VERTEX
8
PART
10
124.683
20
65.2719
0
VERTEX
8
PART
10
123.527
20
64.3975
0
VERTEX
8
PART
10
123.147
20
64.0575
0
VERTEX
8
PART
10
123.089
20
63.9899
0
VERTEX
8
PART
10
122.64
20
63.5732
0
VERTEX
8
PART
10
122.596
20
63.5237
0
VERTEX
8
PART
10
121.95
20
62.5822
0
VERTEX
8
PART
10
121.489
20
62.2149
0
VERTEX
8
PART
10
121.427
20
62.1867
0
VERTEX
8
PART
10
121.373
20
62.0779
0
VERTEX
8
PART
10
120.96
20
61.503
0
VERTEX
8
PART
10
120.926
20
61.4541
0
VERTEX
8
PART
10
120.873
20
61.3679
0
VERTEX
8
PART
10
120.57
20
61.0382
0
VERTEX
8
PART
10
120.556
20
61.0138
0
VERTEX
8
PART
10
120.531
20
60.9825
0
VERTEX
8
PART
10
120.398
20
60.8649
0
VERTEX
8
PART
10
120.191
20
60.1317
0
VERTEX
8
PART
10
120.178
20
59.9905
0
VERTEX
8
PART
10
120
20
59.0273
0
VERTEX
8
PART
10
120.01
20
58.6395
0
VERTEX
8
PART
10
120.048
20
57.8418
0
SEQEND
0
TEXT
8
TEXT
10
137.834
20
73.8196
40
4
1
X2.1
50
-86.8063
0
POLYLINE
8
PART
10
0
20
0
66
1
70
1
62
1
0
VERTEX
8
PART
10
10.7012
20
68.2706
0
VERTEX
8
PART
10
10.6303
20
68.1834
0
VERTEX
8
PART
10
10.779
20
67.5495
0
VERTEX
8
PART
10
10.5342
20
67.3568
0
VERTEX
8
PART
10
10.5564
20
66.9718
0
VERTEX
8
PART
10
10.7343
20
66.6802
0
VERTEX
8
PART
10
10.6067
20
66.5823
0
VERTEX
8
PART
10
10.3651
20
66.3914
0
VERTEX
8
PART
10
10.6651
20
65.9058
0
VERTEX
8
PART
10
10.2152
20
65.4135
0
VERTEX
8
PART
10
10.4947
20
65.2196
0
VERTEX
8
PART
10
11.0301
20
64.9081
0
VERTEX
8
PART
10
9
20
62.5634
0
VERTEX
8
PART
10
9.10725
20
62.1406
0
VERTEX
8
PART
10
9.11065
20
62.1329
0
VERTEX
8
PART
10
9.12587
20
62.0816
0
VERTEX
8
PART
10
9.36808
20
60.4648
0
VERTEX
8
PART
10
9.4715
20
60.332
0
VERTEX
8
PART
10
10.3075
20
58.276
0
VERTEX
8
PART
10
10.4604
20
58.0572
0
VERTEX
8
PART
10
10.6624
20
57.6972
0
VERTEX
8
PART
10
11.8837
20
55.8506
0
VERTEX
8
PART
10
12.0896
20
55.4335
0
VERTEX
8
PART
10
12.3831
20
54.8996
0
VERTEX
8
PART
10
15.9073
20
49.893
0
VERTEX
8
PART
10
16.0412
20
49.2255
0
VERTEX
8
PART
10
16.0098
20
49.0841
0
VERTEX
8
PART
10
16.2469
20
48.555
0
VERTEX
8
PART
10
16.1978
20
48.1673
0
VERTEX
8
PART
10
16.1911
20
48.1444
0
VERTEX
8
PART
10
15.7536
20
47.0908
0
VERTEX
8
PART
10
15.7545
20
46.5453
0
VERTEX
8
PART
10
15.7162
20
46.4395
0
VERTEX
8
PART
10
15.9926
20
45.7527
0
VERTEX
8
PART
10
15.8342
20
45.003
0
VERTEX
8
PART
10
15.8445
20
44.7622
0
VERTEX
8
PART
10
16.6399
20
43.1039
0
VERTEX
8
PART
10
16.5744
20
42.9472
0
VERTEX
8
PART
10
16.8958
20
42.0474
0
VERTEX
8
PART
10
16.9332
20
41.9591
0
VERTEX
8
PART
10
17.0329
20
41.1428
0
VERTEX
8
PART
10
17.1852
20
40.9287
0
VERTEX
8
PART
10
17.2627
20
40.8437
0
VERTEX
8
PART
10
17.8595
20
39.759
0
VERTEX
8
PART
10
18.3387
20
39.1545
0
VERTEX
8
PART
10
18.8234
20
38.3408
0
VERTEX
8
PART
10
20.055
20
36.7365
0
VERTEX
8
PART
10
20.1614
20
36.5786
0
VERTEX
8
PART
10
20.3964
20
36.2261
0
VERTEX
8
PART
10
22.3846
20
34.4885
0
VERTEX
8
PART
10
23.0063
20
34.039
0
VERTEX
8
PART
10
23.383
20
33.7064
0
VERTEX
8
PART
10
34.1953
20
35.8767
0
VERTEX
8
PART
10
35.1006
20
31.3666
0
VERTEX
8
PART
10
27.9818
20
29.9377
0
VERTEX
8
PART
10
28.0362
20
29.8925
0
VERTEX
8
PART
10
31.1119
20
27.5241
0
VERTEX
8
PART
10
31.3931
20
27.2494
0
VERTEX
8
PART
10
33.4091
20
25.9117
0
VERTEX
8
PART
10
38.9256
20
27.1954
0
VERTEX
8
PART
10
41.0823
20
27.4719
0
VERTEX
8
PART
10
44.3758
20
29.5432
0
VERTEX
8
PART
10
44.2106
20
30.965
0
VERTEX
8
PART
10
43.6336
20
35.7796
0
VERTEX
8
PART
10
42.1689
20
39.7289
0
VERTEX
8
PART
10
41.0902
20
42.5288
0
VERTEX
8
PART
10
40.7211
20
43.7859
0
VERTEX
8
PART
10
38.1676
20
47.5838
0
VERTEX
8
PART
10
37.4497
20
49.5227
0
VERTEX
8
PART
10
37.3109
20
49.6276
0
VERTEX
8
PART
10
26.0304
20
47.3634
0
VERTEX
8
PART
10
25.1251
20
51.8735
0
VERTEX
8
PART
10
33.183
20
53.4909
0
VERTEX
8
PART
10
32.7967
20
54.1758
0
VERTEX
8
PART
10
32.7347
20
54.2065
0
VERTEX
8
PART
10
32.6996
20
54.2214
0
VERTEX
8
PART
10
30.628
20
55.1544
0
VERTEX
8
PART
10
30.002
20
55.4446
0
VERTEX
8
PART
10
27.7163
20
56.7073
0
VERTEX
8
PART
10
26.389
20
57.6161
0
VERTEX
8
PART
10
25.3812
20
58.3248
0
VERTEX
8
PART
10
23.8457
20
59.261
0
VERTEX
8
PART
10
23.0669
20
59.7334
0
VERTEX
8
PART
10
21.0918
20
60.9546
0
VERTEX
8
PART
10
20.6315
20
61.256
0
VERTEX
8
PART
10
19.7627
20
62.9145
0
VERTEX
8
PART
10
19.3132
20
63.5377
0
VERTEX
8
PART
10
18.9999
20
63.7696
0
VERTEX
8
PART
10
13.9976
20
62.7656
0
VERTEX
8
PART
10
13.0924
20
67.2756
0
VERTEX
8
PART
10
13.3497
20
67.3273
0
VERTEX
8
PART
10
12.8589
20
67.6506
0
VERTEX
8
PART
10
12.5861
20
67.8074
0
VERTEX
8
PART
10
11.5899
20
68.3317
0
VERTEX
8
PART
10
10.5514
20
69
0
SEQEND
0
TEXT
8
TEXT
10
36.6188
20
43.9808
40
4
1
X3.1
50
191.35
0
POLYLINE
8
PART
10
0
20
0
66
1
70
1
62
1
0
VERTEX
8
PART
10
140.453
20
176.494
0
VERTEX
8
PART
10
140.232
20
176.606
0
VERTEX
8
PART
10
141.054
20
177.86
0
VERTEX
8
PART
10
143.634
20
179.503
0
VERTEX
8
PART
10
144.502
20
180.204
0
VERTEX
8
PART
10
144.23
20
181.157
0
VERTEX
8
PART
10
144.298
20
181.252
0
VERTEX
8
PART
10
144.237
20
182.669
0
VERTEX
8
PART
10
144.211
20
182.756
0
VERTEX
8
PART
10
144.274
20
184.403
0
VERTEX
8
PART
10
144.248
20
184.509
0
VERTEX
8
PART
10
143.874
20
186.093
0
VERTEX
8
PART
10
143.718
20
186.349
0
VERTEX
8
PART
10
143.772
20
187.406
0
VERTEX
8
PART
10
143.597
20
187.763
0
VERTEX
8
PART
10
142.945
20
188.731
0
VERTEX
8
PART
10
142.728
20
189.849
0
VERTEX
8
PART
10
142.413
20
190.896
0
VERTEX
8
PART
10
142.449
20
192.133
0
VERTEX
8
PART
10
142.168
20
192.738
0
VERTEX
8
PART
10
141.594
20
194.004
0
VERTEX
8
PART
10
141.034
20
195.649
0
VERTEX
8
PART
10
140.789
20
196.159
0
VERTEX
8
PART
10
140.213
20
197.593
0
VERTEX
8
PART
10
139.606
20
198.661
0
VERTEX
8
PART
10
139.359
20
199.119
0
VERTEX
8
PART
10
138.194
20
200.085
0
VERTEX
8
PART
10
137.103
20
201.335
0
VERTEX
8
PART
10
136.891
20
201.662
0
VERTEX
8
PART
10
136.605
20
202.183
0
VERTEX
8
PART
10
133.736
20
203.839
0
VERTEX
8
PART
10
132.807
20
204.485
0
VERTEX
8
PART
10
132.206
20
205.268
0
VERTEX
8
PART
10
131.159
20
206.022
0
VERTEX
8
PART
10
130.896
20
206.394
0
VERTEX
8
PART
10
130.206
20
206.985
0
VERTEX
8
PART
10
130.026
20
207.268
0
VERTEX
8
PART
10
129.338
20
207.872
0
VERTEX
8
PART
10
129.219
20
208.048
0
VERTEX
8
PART
10
121.064
20
203.217
0
VERTEX
8
PART
10
118.719
20
207.175
0
VERTEX
8
PART
10
121.801
20
209
0
VERTEX
8
PART
10
118.491
20
208.315
0
VERTEX
8
PART
10
116.489
20
207.782
0
VERTEX
8
PART
10
116.148
20
207.224
0
VERTEX
8
PART
10
112
20
199.886
0
VERTEX
8
PART
10
112.161
20
199.303
0
VERTEX
8
PART
10
113.307
20
195.997
0
VERTEX
8
PART
10
114.647
20
191.618
0
VERTEX
8
PART
10
117.248
20
186
0
VERTEX
8
PART
10
128.45
20
192.635
0
VERTEX
8
PART
10
130.795
20
188.677
0
VERTEX
8
PART
10
120.606
20
182.643
0
VERTEX
8
PART
10
123.827
20
179.738
0
VERTEX
8
PART
10
126.635
20
178.315
0
VERTEX
8
PART
10
129.543
20
178.209
0
VERTEX
8
PART
10
131.319
20
177.845
0
VERTEX
8
PART
10
132.775
20
177.608
0
VERTEX
8
PART
10
133.162
20
177.652
0
VERTEX
8
PART
10
134.174
20
177.734
0
VERTEX
8
PART
10
135.13
20
177.427
0
VERTEX
8
PART
10
136.834
20
176.849
0
VERTEX
8
PART
10
137.358
20
176.516
0
VERTEX
8
PART
10
139.268
20
176.234
0
VERTEX
8
PART
10
139.967
20
176.135
0
SEQEND
0
TEXT
8
TEXT
10
118.413
20
192.389
40
4
1
X4.1
50
30.6383
0
POLYLINE
8
PART
10
0
20
0
66
1
70
1
62
1
0
VERTEX
8
PART
10
131.103
20
176.608
0
VERTEX
8
PART
10
126.784
20
175.709
0
VERTEX
8
PART
10
125.509
20
175.457
0
VERTEX
8
PART
10
124.814
20
175.326
0
VERTEX
8
PART
10
122.889
20
173.476
0
VERTEX
8
PART
10
122.586
20
173.312
0
VERTEX
8
PART
10
122.564
20
173.262
0
VERTEX
8
PART
10
122.322
20
171.779
0
VERTEX
8
PART
10
122.29
20
171.719
0
VERTEX
8
PART
10
121.985
20
170.329
0
VERTEX
8
PART
10
121.969
20
170.257
0
VERTEX
8
PART
10
122.178
20
167.903
0
VERTEX
8
PART
10
122.177
20
167.901
0
VERTEX
8
PART
10
122.176
20
167.671
0
VERTEX
8
PART
10
122.17
20
167.159
0
VERTEX
8
PART
10
131.655
20
167.895
0
VERTEX
8
PART
10
132.011
20
163.309
0
VERTEX
8
PART
10
121.855
20
162.521
0
VERTEX
8
PART
10
121.85
20
162.465
0
VERTEX
8
PART
10
121.843
20
162.43
0
VERTEX
8
PART
10
121.84
20
162.394
0
VERTEX
8
PART
10
121.843
20
162.34
0
VERTEX
8
PART
10
121.8
20
162.345
0
VERTEX
8
PART
10
121.769
20
162.345
0
VERTEX
8
PART
10
121.578
20
159.79
0
VERTEX
8
PART
10
121.532
20
159.746
0
VERTEX
8
PART
10
121.52
20
159.719
0
VERTEX
8
PART
10
121.199
20
157.408
0
VERTEX
8
PART
10
121.182
20
157.353
0
VERTEX
8
PART
10
121.166
20
157.31
0
VERTEX
8
PART
10
120.783
20
155.122
0
VERTEX
8
PART
10
120.759
20
155.027
0
VERTEX
8
PART
10
120.745
20
154.963
0
VERTEX
8
PART
10
120.165
20
152.485
0
VERTEX
8
PART
10
120
20
149.939
0
VERTEX
8
PART
10
120.109
20
149.286
0
VERTEX
8
PART
10
120.158
20
148.965
0
VERTEX
8
PART
10
120.07
20
148.383
0
VERTEX
8
PART
10
120.135
20
147.789
0
VERTEX
8
PART
10
120.148
20
147.438
0
VERTEX
8
PART
10
120.267
20
146.605
0
VERTEX
8
PART
10
120.238
20
146.432
0
VERTEX
8
PART
10
120.099
20
146.229
0
VERTEX
8
PART
10
120.308
20
145.259
0
VERTEX
8
PART
10
120.315
20
145.024
0
VERTEX
8
PART
10
120.467
20
143.714
0
VERTEX
8
PART
10
120.449
20
143.519
0
VERTEX
8
PART
10
120.608
20
142.624
0
VERTEX
8
PART
10
120.551
20
142.399
0
VERTEX
8
PART
10
120.963
20
142.108
0
VERTEX
8
PART
10
122.136
20
140.983
0
VERTEX
8
PART
10
122.12
20
140.86
0
VERTEX
8
PART
10
122.4
20
140.373
0
VERTEX
8
PART
10
122.395
20
140.264
0
VERTEX
8
PART
10
123.155
20
139.088
0
VERTEX
8
PART
10
123.16
20
139.064
0
VERTEX
8
PART
10
124.078
20
137.237
0
VERTEX
8
PART
10
124.268
20
137.238
0
VERTEX
8
PART
10
124.985
20
137.299
0
VERTEX
8
PART
10
131.627
20
137.804
0
VERTEX
8
PART
10
133.46
20
137.973
0
VERTEX
8
PART
10
133.716
20
138.353
0
VERTEX
8
PART
10
133.997
20
138.563
0
VERTEX
8
PART
10
135.369
20
140.052
0
VERTEX
8
PART
10
138.593
20
142.041
0
VERTEX
8
PART
10
139.656
20
142.737
0
VERTEX
8
PART
10
140.541
20
143.272
0
VERTEX
8
PART
10
141.331
20
146.51
0
VERTEX
8
PART
10
131.213
20
145.726
0
VERTEX
8
PART
10
130.857
20
150.312
0
VERTEX
8
PART
10
142.425
20
151.209
0
VERTEX
8
PART
10
142.533
20
151.678
0
VERTEX
8
PART
10
142.524
20
154.459
0
VERTEX
8
PART
10
142.533
20
157.744
0
VERTEX
8
PART
10
142.512
20
158.315
0
VERTEX
8
PART
10
141.374
20
168.83
0
VERTEX
8
PART
10
141.097
20
171.573
0
VERTEX
8
PART
10
140.966
20
172.583
0
VERTEX
8
PART
10
135.144
20
176.257
0
VERTEX
8
PART
10
133.447
20
177
0
SEQEND
0
TEXT
8
TEXT
10
140.046
20
158.823
40
4
1
X5.1
50
184.435
0
POLYLINE
8
PART
10
0
20
0
66
1
70
1
62
1
0
VERTEX
8
PART
10
68.4707
20
26.6836
0
VERTEX
8
PART
10
70.7743
20
30.249
0
VERTEX
8
PART
10
69.8766
20
31.1545
0
VERTEX
8
PART
10
69.7987
20
31.2124
0
VERTEX
8
PART
10
69.7615
20
31.2432
0
VERTEX
8
PART
10
69.6889
20
31.3416
0
VERTEX
8
PART
10
68.6755
20
32.282
0
VERTEX
8
PART
10
68.5909
20
32.4009
0
VERTEX
8
PART
10
68.3462
20
32.6254
0
VERTEX
8
PART
10
67.3981
20
33.467
0
VERTEX
8
PART
10
67.0052
20
33.7921
0
VERTEX
8
PART
10
66.1343
20
34.4534
0
VERTEX
8
PART
10
65.3652
20
34.9809
0
VERTEX
8
PART
10
64.9041
20
35.3336
0
VERTEX
8
PART
10
64.249
20
35.8077
0
VERTEX
8
PART
10
63.7166
20
36.266
0
VERTEX
8
PART
10
63.1562
20
36.6482
0
VERTEX
8
PART
10
62.632
20
37.1147
0
VERTEX
8
PART
10
62.3228
20
37.3475
0
VERTEX
8
PART
10
61.955
20
37.6819
0
VERTEX
8
PART
10
61.6857
20
37.8912
0
VERTEX
8
PART
10
61.281
20
38.2599
0
VERTEX
8
PART
10
61.0552
20
38.4448
0
VERTEX
8
PART
10
60.6292
20
38.7352
0
VERTEX
8
PART
10
60.4197
20
38.91
0
VERTEX
8
PART
10
59.9747
20
39.2157
0
VERTEX
8
PART
10
59.7858
20
39.3764
0
VERTEX
8
PART
10
59.3423
20
39.6912
0
VERTEX
8
PART
10
59.1703
20
39.8468
0
VERTEX
8
PART
10
58.8392
20
40.1006
0
VERTEX
8
PART
10
58.6792
20
40.2428
0
VERTEX
8
PART
10
58.2566
20
40.5709
0
VERTEX
8
PART
10
58.11
20
40.6964
0
VERTEX
8
PART
10
57.7192
20
41.012
0
VERTEX
8
PART
10
57.5849
20
41.1477
0
VERTEX
8
PART
10
57.2464
20
41.4993
0
VERTEX
8
PART
10
57.1346
20
41.6334
0
VERTEX
8
PART
10
56.8695
20
42.0252
0
VERTEX
8
PART
10
56.7625
20
42.1574
0
VERTEX
8
PART
10
56.5004
20
42.5906
0
VERTEX
8
PART
10
56.3903
20
42.7243
0
VERTEX
8
PART
10
56.1358
20
43.1809
0
VERTEX
8
PART
10
56.0731
20
43.2569
0
VERTEX
8
PART
10
56.0149
20
43.3604
0
VERTEX
8
PART
10
55.7758
20
43.8537
0
VERTEX
8
PART
10
55.7128
20
43.9649
0
VERTEX
8
PART
10
55.4689
20
44.4223
0
VERTEX
8
PART
10
55.4153
20
44.5479
0
VERTEX
8
PART
10
55.1758
20
45.0665
0
VERTEX
8
PART
10
55.1207
20
45.192
0
VERTEX
8
PART
10
55.0728
20
45.3185
0
VERTEX
8
PART
10
54.6244
20
46.2302
0
VERTEX
8
PART
10
54.5747
20
46.3476
0
VERTEX
8
PART
10
54.5273
20
46.4561
0
VERTEX
8
PART
10
54.0262
20
47.4337
0
VERTEX
8
PART
10
53.9885
20
47.5359
0
VERTEX
8
PART
10
53.9476
20
47.6232
0
VERTEX
8
PART
10
53.9083
20
47.6999
0
VERTEX
8
PART
10
53.2725
20
48.971
0
VERTEX
8
PART
10
53.2338
20
49.0262
0
VERTEX
8
PART
10
53.1909
20
49.0864
0
VERTEX
8
PART
10
53.1387
20
49.173
0
VERTEX
8
PART
10
52.52
20
50.3173
0
VERTEX
8
PART
10
52.4548
20
50.4093
0
VERTEX
8
PART
10
52.3822
20
50.5228
0
VERTEX
8
PART
10
51.7405
20
51.742
0
VERTEX
8
PART
10
51.6736
20
51.8609
0
VERTEX
8
PART
10
51.6009
20
51.9959
0
VERTEX
8
PART
10
50.7598
20
53.5116
0
VERTEX
8
PART
10
50.6771
20
53.671
0
VERTEX
8
PART
10
50.5798
20
53.8347
0
VERTEX
8
PART
10
49.7977
20
54.9802
0
VERTEX
8
PART
10
40.0423
20
56.2915
0
VERTEX
8
PART
10
40.6551
20
60.8505
0
VERTEX
8
PART
10
46.6987
20
60.0382
0
VERTEX
8
PART
10
46.2719
20
61.0017
0
VERTEX
8
PART
10
46.1619
20
61.2756
0
VERTEX
8
PART
10
45.9409
20
62.0338
0
VERTEX
8
PART
10
45.8661
20
62.3042
0
VERTEX
8
PART
10
45.6611
20
63.3744
0
VERTEX
8
PART
10
45.6018
20
63.6521
0
VERTEX
8
PART
10
45.4909
20
64.324
0
VERTEX
8
PART
10
45.4447
20
64.6082
0
VERTEX
8
PART
10
45.303
20
65.6838
0
VERTEX
8
PART
10
45.2672
20
65.9786
0
VERTEX
8
PART
10
45.1955
20
66.6438
0
VERTEX
8
PART
10
45.1602
20
66.9504
0
VERTEX
8
PART
10
45.0528
20
67.9696
0
VERTEX
8
PART
10
45.0163
20
68.296
0
VERTEX
8
PART
10
44.9763
20
68.6464
0
VERTEX
8
PART
10
44.8045
20
70.1889
0
VERTEX
8
PART
10
44.761
20
70.5777
0
VERTEX
8
PART
10
44.6464
20
71.6298
0
VERTEX
8
PART
10
44.5958
20
72.0654
0
VERTEX
8
PART
10
44.5021
20
73.1791
0
VERTEX
8
PART
10
44.4912
20
73.3196
0
VERTEX
8
PART
10
36.764
20
74.3582
0
VERTEX
8
PART
10
37.3768
20
78.9172
0
VERTEX
8
PART
10
44.0172
20
78.0247
0
VERTEX
8
PART
10
44.0146
20
78.0442
0
VERTEX
8
PART
10
43.9435
20
78.5861
0
VERTEX
8
PART
10
43.7826
20
79.7852
0
VERTEX
8
PART
10
43.718
20
80.303
0
VERTEX
8
PART
10
43.6654
20
80.7841
0
VERTEX
8
PART
10
43.4315
20
82.4488
0
VERTEX
8
PART
10
43.389
20
82.9136
0
VERTEX
8
PART
10
43.2721
20
83.7822
0
VERTEX
8
PART
10
43.236
20
84.2225
0
VERTEX
8
PART
10
43.1842
20
85.5067
0
VERTEX
8
PART
10
43.1741
20
85.9283
0
VERTEX
8
PART
10
43.2102
20
86.9005
0
VERTEX
8
PART
10
43.1606
20
87.2766
0
VERTEX
8
PART
10
43.1531
20
87.6299
0
VERTEX
8
PART
10
43.0259
20
88.3
0
VERTEX
8
PART
10
42.9524
20
88.5623
0
VERTEX
8
PART
10
43.0493
20
89.2518
0
VERTEX
8
PART
10
43.0766
20
89.4926
0
VERTEX
8
PART
10
43.016
20
90.1617
0
VERTEX
8
PART
10
43.2628
20
91.1107
0
VERTEX
8
PART
10
33.8373
20
92.3777
0
VERTEX
8
PART
10
34.4501
20
96.9367
0
VERTEX
8
PART
10
43.1909
20
95.7618
0
VERTEX
8
PART
10
43.1699
20
95.9431
0
VERTEX
8
PART
10
43.196
20
97.6848
0
VERTEX
8
PART
10
43.1751
20
98.0082
0
VERTEX
8
PART
10
43.1798
20
98.2652
0
VERTEX
8
PART
10
43.1194
20
99.2784
0
VERTEX
8
PART
10
43.1327
20
99.4929
0
VERTEX
8
PART
10
42.9606
20
100.639
0
VERTEX
8
PART
10
42.9622
20
100.845
0
VERTEX
8
PART
10
42.9517
20
101.053
0
VERTEX
8
PART
10
42.8447
20
102.542
0
VERTEX
8
PART
10
42.8503
20
102.778
0
VERTEX
8
PART
10
42.8319
20
103.035
0
VERTEX
8
PART
10
42.5627
20
104.658
0
VERTEX
8
PART
10
42.5542
20
105.121
0
VERTEX
8
PART
10
42.5913
20
105.809
0
VERTEX
8
PART
10
42.4868
20
107.8
0
VERTEX
8
PART
10
42.4227
20
108.85
0
VERTEX
8
PART
10
33.8815
20
109.998
0
VERTEX
8
PART
10
34.4943
20
114.557
0
VERTEX
8
PART
10
42.4369
20
113.489
0
VERTEX
8
PART
10
43.0826
20
116.602
0
VERTEX
8
PART
10
43.3462
20
117.269
0
VERTEX
8
PART
10
43.8686
20
118.579
0
VERTEX
8
PART
10
44.4094
20
120.076
0
VERTEX
8
PART
10
44.704
20
120.586
0
VERTEX
8
PART
10
44.7978
20
120.788
0
VERTEX
8
PART
10
45.3343
20
121.928
0
VERTEX
8
PART
10
45.4134
20
122.072
0
VERTEX
8
PART
10
45.9811
20
123.171
0
VERTEX
8
PART
10
46.0252
20
123.257
0
VERTEX
8
PART
10
46.4931
20
124.175
0
VERTEX
8
PART
10
46.6108
20
124.38
0
VERTEX
8
PART
10
47.2077
20
125.392
0
VERTEX
8
PART
10
47.2377
20
125.437
0
VERTEX
8
PART
10
47.4221
20
125.804
0
VERTEX
8
PART
10
41.9871
20
126.534
0
VERTEX
8
PART
10
42.5999
20
131.093
0
VERTEX
8
PART
10
49.5858
20
130.154
0
VERTEX
8
PART
10
49.9842
20
130.921
0
VERTEX
8
PART
10
49.9943
20
130.941
0
VERTEX
8
PART
10
50.47
20
132.036
0
VERTEX
8
PART
10
50.8711
20
133.009
0
VERTEX
8
PART
10
51.2629
20
133.655
0
VERTEX
8
PART
10
51.6266
20
134.217
0
VERTEX
8
PART
10
52.7335
20
136.006
0
VERTEX
8
PART
10
54.7472
20
137.587
0
VERTEX
8
PART
10
55.5095
20
138.351
0
VERTEX
8
PART
10
56.2206
20
139.087
0
VERTEX
8
PART
10
56.2795
20
139.304
0
VERTEX
8
PART
10
56.4729
20
139.715
0
VERTEX
8
PART
10
56.5437
20
139.861
0
VERTEX
8
PART
10
56.6874
20
140.082
0
VERTEX
8
PART
10
57.5666
20
141.153
0
VERTEX
8
PART
10
57.7047
20
141.417
0
VERTEX
8
PART
10
58.0262
20
141.446
0
VERTEX
8
PART
10
58.1346
20
141.634
0
VERTEX
8
PART
10
58.2946
20
141.662
0
VERTEX
8
PART
10
58.8759
20
141.89
0
VERTEX
8
PART
10
50.6019
20
143.002
0
VERTEX
8
PART
10
51.2147
20
147.561
0
VERTEX
8
PART
10
62.0484
20
146.105
0
VERTEX
8
PART
10
62.5102
20
147.678
0
VERTEX
8
PART
10
63.1728
20
148.085
0
VERTEX
8
PART
10
63.3763
20
148.373
0
VERTEX
8
PART
10
64.0092
20
150.113
0
VERTEX
8
PART
10
64.2176
20
150.487
0
VERTEX
8
PART
10
64.4041
20
150.767
0
VERTEX
8
PART
10
65.0665
20
152.406
0
VERTEX
8
PART
10
65.2594
20
152.797
0
VERTEX
8
PART
10
65.385
20
153.064
0
VERTEX
8
PART
10
66.2505
20
154.9
0
VERTEX
8
PART
10
67.0569
20
157.748
0
VERTEX
8
PART
10
67.2099
20
158.087
0
VERTEX
8
PART
10
67.3121
20
158.305
0
VERTEX
8
PART
10
67.3699
20
158.375
0
VERTEX
8
PART
10
56.7066
20
159.808
0
VERTEX
8
PART
10
57.3194
20
164.367
0
VERTEX
8
PART
10
70.0175
20
162.66
0
VERTEX
8
PART
10
70.1334
20
163.295
0
VERTEX
8
PART
10
70.191
20
163.899
0
VERTEX
8
PART
10
70.3943
20
164.546
0
VERTEX
8
PART
10
70.411
20
165.011
0
VERTEX
8
PART
10
70.7743
20
165.749
0
VERTEX
8
PART
10
70.5869
20
165.953
0
VERTEX
8
PART
10
70.0865
20
166.692
0
VERTEX
8
PART
10
70.2366
20
167.111
0
VERTEX
8
PART
10
70.1385
20
167.416
0
VERTEX
8
PART
10
70.2544
20
167.856
0
VERTEX
8
PART
10
69.9636
20
168.621
0
VERTEX
8
PART
10
69.968
20
168.798
0
VERTEX
8
PART
10
69.6531
20
170.008
0
VERTEX
8
PART
10
69.6483
20
170.409
0
VERTEX
8
PART
10
69.6632
20
170.851
0
VERTEX
8
PART
10
69.3152
20
171.857
0
VERTEX
8
PART
10
69.2935
20
172.221
0
VERTEX
8
PART
10
68.9421
20
173.312
0
VERTEX
8
PART
10
68.9
20
173.66
0
VERTEX
8
PART
10
68.711
20
174.799
0
VERTEX
8
PART
10
68.7024
20
175.053
0
VERTEX
8
PART
10
68.7035
20
175.315
0
VERTEX
8
PART
10
68.3499
20
176.597
0
VERTEX
8
PART
10
68.3237
20
176.811
0
VERTEX
8
PART
10
68.0196
20
178.537
0
VERTEX
8
PART
10
68.0196
20
178.653
0
VERTEX
8
PART
10
68.0266
20
178.72
0
VERTEX
8
PART
10
67.479
20
180.556
0
VERTEX
8
PART
10
67.4787
20
180.559
0
VERTEX
8
PART
10
67.4785
20
180.559
0
VERTEX
8
PART
10
67.4602
20
180.597
0
VERTEX
8
PART
10
57.0816
20
181.908
0
VERTEX
8
PART
10
56.2594
20
182
0
VERTEX
8
PART
10
56.1524
20
181.889
0
VERTEX
8
PART
10
56.1271
20
181.864
0
VERTEX
8
PART
10
55.227
20
180.338
0
VERTEX
8
PART
10
54.9014
20
180.016
0
VERTEX
8
PART
10
54.0795
20
178.777
0
VERTEX
8
PART
10
53.3361
20
178.196
0
VERTEX
8
PART
10
52.7886
20
177.274
0
VERTEX
8
PART
10
50.8481
20
175.672
0
VERTEX
8
PART
10
50.5899
20
175.279
0
VERTEX
8
PART
10
48.5391
20
173.657
0
VERTEX
8
PART
10
48.1843
20
172.383
0
VERTEX
8
PART
10
47.7779
20
171.365
0
VERTEX
8
PART
10
45.5453
20
166.058
0
VERTEX
8
PART
10
44.1021
20
159.011
0
VERTEX
8
PART
10
43.9107
20
158.094
0
VERTEX
8
PART
10
43.8817
20
157.943
0
VERTEX
8
PART
10
43.8443
20
157.768
0
VERTEX
8
PART
10
43.727
20
157.022
0
VERTEX
8
PART
10
41.0591
20
143.446
0
VERTEX
8
PART
10
40.9996
20
143.3
0
VERTEX
8
PART
10
40.8944
20
143.067
0
VERTEX
8
PART
10
40.5212
20
141.135
0
VERTEX
8
PART
10
40.2289
20
139.605
0
VERTEX
8
PART
10
39.6848
20
137.923
0
VERTEX
8
PART
10
38.884
20
136.114
0
VERTEX
8
PART
10
38.8795
20
136.103
0
VERTEX
8
PART
10
38.7887
20
135.916
0
VERTEX
8
PART
10
38.3153
20
133.628
0
VERTEX
8
PART
10
38.2329
20
133.5
0
VERTEX
8
PART
10
38.183
20
133.388
0
VERTEX
8
PART
10
38.0724
20
133.268
0
VERTEX
8
PART
10
37.322
20
131.278
0
VERTEX
8
PART
10
37.0815
20
131.034
0
VERTEX
8
PART
10
36.7146
20
130.867
0
VERTEX
8
PART
10
36.5171
20
130.657
0
VERTEX
8
PART
10
35.61
20
128.553
0
VERTEX
8
PART
10
35.4161
20
128.296
0
VERTEX
8
PART
10
35.1783
20
127.998
0
VERTEX
8
PART
10
34.9661
20
127.645
0
VERTEX
8
PART
10
33.7206
20
125.54
0
VERTEX
8
PART
10
33.4869
20
125.13
0
VERTEX
8
PART
10
33.2147
20
124.647
0
VERTEX
8
PART
10
30.9111
20
121.396
0
VERTEX
8
PART
10
30.6666
20
120.985
0
VERTEX
8
PART
10
30.3277
20
120.553
0
VERTEX
8
PART
10
27.6392
20
117.231
0
VERTEX
8
PART
10
27.3134
20
116.666
0
VERTEX
8
PART
10
27.2896
20
116.609
0
VERTEX
8
PART
10
27.266
20
116.548
0
VERTEX
8
PART
10
25.5164
20
111.788
0
VERTEX
8
PART
10
25.4496
20
111.405
0
VERTEX
8
PART
10
24
20
106.697
0
VERTEX
8
PART
10
24.3602
20
101.706
0
VERTEX
8
PART
10
24.3182
20
101.506
0
VERTEX
8
PART
10
24.3164
20
101.366
0
VERTEX
8
PART
10
24.3321
20
101.214
0
VERTEX
8
PART
10
24.3926
20
100.935
0
VERTEX
8
PART
10
24.4334
20
100.688
0
VERTEX
8
PART
10
24.4802
20
100.343
0
VERTEX
8
PART
10
25.2159
20
94.1993
0
VERTEX
8
PART
10
25.2288
20
94.1117
0
VERTEX
8
PART
10
25.2491
20
93.9755
0
VERTEX
8
PART
10
25.3275
20
93.6421
0
VERTEX
8
PART
10
26.1465
20
90.2185
0
VERTEX
8
PART
10
27.3948
20
86.3632
0
VERTEX
8
PART
10
27.4365
20
86.0892
0
VERTEX
8
PART
10
27.5038
20
85.953
0
VERTEX
8
PART
10
27.5523
20
85.8332
0
VERTEX
8
PART
10
27.6052
20
85.7031
0
VERTEX
8
PART
10
28.4832
20
82.7099
0
VERTEX
8
PART
10
28.5511
20
82.545
0
VERTEX
8
PART
10
28.6035
20
82.3703
0
VERTEX
8
PART
10
28.6568
20
82.1789
0
VERTEX
8
PART
10
29.2089
20
80.0988
0
VERTEX
8
PART
10
29.2676
20
79.8733
0
VERTEX
8
PART
10
29.3264
20
79.627
0
VERTEX
8
PART
10
29.9238
20
77.3732
0
VERTEX
8
PART
10
29.9864
20
77.0822
0
VERTEX
8
PART
10
30.4747
20
74.5364
0
VERTEX
8
PART
10
30.5282
20
74.2576
0
VERTEX
8
PART
10
30.5681
20
73.9556
0
VERTEX
8
PART
10
30.9162
20
70.5219
0
VERTEX
8
PART
10
30.9319
20
70.3337
0
VERTEX
8
PART
10
30.9527
20
70.1655
0
VERTEX
8
PART
10
31.2435
20
67.3175
0
VERTEX
8
PART
10
31.2505
20
67.2699
0
VERTEX
8
PART
10
31.257
20
67.2267
0
VERTEX
8
PART
10
31.3998
20
66.0127
0
VERTEX
8
PART
10
31.6575
20
64.5374
0
VERTEX
8
PART
10
31.6823
20
64.3989
0
VERTEX
8
PART
10
32.1795
20
61.8509
0
VERTEX
8
PART
10
32.1786
20
61.7619
0
VERTEX
8
PART
10
32.6264
20
59.2955
0
VERTEX
8
PART
10
32.6384
20
58.8053
0
VERTEX
8
PART
10
32.6786
20
58.6932
0
VERTEX
8
PART
10
32.91
20
58.1691
0
VERTEX
8
PART
10
34.0113
20
55.5297
0
VERTEX
8
PART
10
34.0816
20
55.4003
0
VERTEX
8
PART
10
34.4218
20
54.9214
0
VERTEX
8
PART
10
36.006
20
52.4399
0
VERTEX
8
PART
10
36.1697
20
52.3555
0
VERTEX
8
PART
10
36.3507
20
52.1874
0
VERTEX
8
PART
10
37.1516
20
51.2002
0
VERTEX
8
PART
10
37.2196
20
51.1061
0
VERTEX
8
PART
10
37.45
20
50.7933
0
VERTEX
8
PART
10
38.7748
20
48.9697
0
VERTEX
8
PART
10
38.8925
20
48.8129
0
VERTEX
8
PART
10
39.1168
20
48.5259
0
VERTEX
8
PART
10
40.4909
20
46.6635
0
VERTEX
8
PART
10
40.8431
20
46.2089
0
VERTEX
8
PART
10
42.3373
20
44.1117
0
VERTEX
8
PART
10
42.6724
20
43.5948
0
VERTEX
8
PART
10
43.1001
20
42.8958
0
VERTEX
8
PART
10
53.4198
20
41.5087
0
VERTEX
8
PART
10
52.807
20
36.9497
0
VERTEX
8
PART
10
46.6715
20
37.7744
0
VERTEX
8
PART
10
47.094
20
37.2142
0
VERTEX
8
PART
10
47.2841
20
36.9525
0
VERTEX
8
PART
10
47.3561
20
36.7799
0
VERTEX
8
PART
10
48.5167
20
35.3311
0
VERTEX
8
PART
10
48.641
20
35.1456
0
VERTEX
8
PART
10
48.7284
20
35.0457
0
VERTEX
8
PART
10
50.7122
20
33.286
0
VERTEX
8
PART
10
50.9427
20
33.0726
0
VERTEX
8
PART
10
51.0594
20
32.9761
0
VERTEX
8
PART
10
52.5305
20
32.0261
0
VERTEX
8
PART
10
52.9029
20
31.9616
0
VERTEX
8
PART
10
54.3924
20
31.125
0
VERTEX
8
PART
10
54.4519
20
31.0899
0
VERTEX
8
PART
10
55.9256
20
30.3297
0
VERTEX
8
PART
10
55.9419
20
30.3237
0
VERTEX
8
PART
10
55.9429
20
30.3233
0
VERTEX
8
PART
10
55.9439
20
30.3229
0
VERTEX
8
PART
10
57.7238
20
29.6984
0
VERTEX
8
PART
10
57.8262
20
29.6576
0
VERTEX
8
PART
10
59.1046
20
29.2877
0
VERTEX
8
PART
10
59.3105
20
29.1877
0
VERTEX
8
PART
10
59.9661
20
28.7526
0
VERTEX
8
PART
10
60.2397
20
28.647
0
VERTEX
8
PART
10
61.3425
20
28.1904
0
VERTEX
8
PART
10
61.7203
20
28.0689
0
VERTEX
8
PART
10
62.8971
20
27.6226
0
VERTEX
8
PART
10
63.4486
20
27.451
0
VERTEX
8
PART
10
64.1807
20
27.1967
0
VERTEX
8
PART
10
64.9643
20
26.9801
0
VERTEX
8
PART
10
65.624
20
26.8711
0
VERTEX
8
PART
10
66.508
20
26.2518
0
VERTEX
8
PART
10
66.7623
20
26.1692
0
VERTEX
8
PART
10
66.8584
20
26.1701
0
VERTEX
8
PART
10
67.9177
20
25.8125
0
SEQEND
0
TEXT
8
TEXT
10
51.3499
20
169.394
40
6
1
X6.1
50
-7.65567
0
POLYLINE
8
PART
10
0
20
0
66
1
70
1
62
1
0
VERTEX
8
PART
10
95.4652
20
20.0159
0
VERTEX
8
PART
10
95.7603
20
20.0235
0
VERTEX
8
PART
10
95.9837
20
20.1323
0
VERTEX
8
PART
10
96.905
20
20.3977
0
VERTEX
8
PART
10
97.0435
20
20.393
0
VERTEX
8
PART
10
97.316
20
20.4987
0
VERTEX
8
PART
10
97.4392
20
20.559
0
VERTEX
8
PART
10
98.28
20
21.8577
0
VERTEX
8
PART
10
99.5997
20
23.8964
0
VERTEX
8
PART
10
99.5909
20
23.9319
0
VERTEX
8
PART
10
99.5871
20
23.9603
0
VERTEX
8
PART
10
99.5634
20
24.0889
0
VERTEX
8
PART
10
99.5547
20
24.1312
0
VERTEX
8
PART
10
99.5133
20
24.2983
0
VERTEX
8
PART
10
99.5109
20
24.3982
0
VERTEX
8
PART
10
99.4504
20
24.6077
0
VERTEX
8
PART
10
99.4434
20
24.7344
0
VERTEX
8
PART
10
99.3477
20
24.8639
0
VERTEX
8
PART
10
99.3105
20
24.9587
0
VERTEX
8
PART
10
99.2853
20
25.1144
0
VERTEX
8
PART
10
99.2193
20
25.6924
0
VERTEX
8
PART
10
99.2005
20
25.7505
0
VERTEX
8
PART
10
99.1144
20
25.9404
0
VERTEX
8
PART
10
98.9355
20
26.3444
0
VERTEX
8
PART
10
98.8218
20
26.5502
0
VERTEX
8
PART
10
98.7481
20
26.7406
0
VERTEX
8
PART
10
98.6863
20
26.8254
0
VERTEX
8
PART
10
98.5215
20
27.057
0
VERTEX
8
PART
10
98.2554
20
27.3678
0
VERTEX
8
PART
10
98.1081
20
27.534
0
VERTEX
8
PART
10
97.999
20
27.6343
0
VERTEX
8
PART
10
97.6792
20
27.9655
0
VERTEX
8
PART
10
97.6288
20
28.0142
0
VERTEX
8
PART
10
97.481
20
28.1604
0
VERTEX
8
PART
10
97.354
20
28.3092
0
VERTEX
8
PART
10
97.0026
20
28.6849
0
VERTEX
8
PART
10
96.957
20
28.732
0
VERTEX
8
PART
10
96.9066
20
28.7779
0
VERTEX
8
PART
10
96.5418
20
29.1661
0
VERTEX
8
PART
10
96.3196
20
29.3949
0
VERTEX
8
PART
10
96.1909
20
29.5221
0
VERTEX
8
PART
10
95.7799
20
29.9643
0
VERTEX
8
PART
10
95.757
20
29.9851
0
VERTEX
8
PART
10
95.5985
20
30.1457
0
VERTEX
8
PART
10
95.3617
20
30.408
0
VERTEX
8
PART
10
94.7782
20
31.0027
0
VERTEX
8
PART
10
94.7674
20
31.0095
0
VERTEX
8
PART
10
94.7638
20
31.0158
0
VERTEX
8
PART
10
94.3097
20
31.3353
0
VERTEX
8
PART
10
93.7507
20
31.7331
0
VERTEX
8
PART
10
93.663
20
31.7951
0
VERTEX
8
PART
10
93.0681
20
32.1867
0
VERTEX
8
PART
10
92.8359
20
32.3465
0
VERTEX
8
PART
10
92.0364
20
32.7832
0
VERTEX
8
PART
10
91.7414
20
32.9689
0
VERTEX
8
PART
10
91.0541
20
33.3562
0
VERTEX
8
PART
10
90.7731
20
33.5131
0
VERTEX
8
PART
10
89.5605
20
34.265
0
VERTEX
8
PART
10
89.2638
20
34.4525
0
VERTEX
8
PART
10
88.7649
20
34.7869
0
VERTEX
8
PART
10
88.1913
20
35.1468
0
VERTEX
8
PART
10
87.9001
20
35.3327
0
VERTEX
8
PART
10
87.3933
20
35.6475
0
VERTEX
8
PART
10
87.2095
20
35.7657
0
VERTEX
8
PART
10
86.7336
20
36.0627
0
VERTEX
8
PART
10
86.3227
20
36.334
0
VERTEX
8
PART
10
86.1215
20
36.4614
0
VERTEX
8
PART
10
85.5605
20
36.8297
0
VERTEX
8
PART
10
85.3745
20
36.9519
0
VERTEX
8
PART
10
85.0445
20
37.1854
0
VERTEX
8
PART
10
84.8536
20
37.312
0
VERTEX
8
PART
10
84.4714
20
37.5837
0
VERTEX
8
PART
10
84.2854
20
37.7114
0
VERTEX
8
PART
10
83.8949
20
38.0268
0
VERTEX
8
PART
10
83.7525
20
38.1326
0
VERTEX
8
PART
10
83.5747
20
38.2666
0
VERTEX
8
PART
10
83.2057
20
38.6124
0
VERTEX
8
PART
10
83.0323
20
38.7482
0
VERTEX
8
PART
10
82.6647
20
39.1946
0
VERTEX
8
PART
10
82.366
20
39.6169
0
VERTEX
8
PART
10
82.3136
20
39.6845
0
VERTEX
8
PART
10
82.1877
20
39.8119
0
VERTEX
8
PART
10
82.1296
20
39.9045
0
VERTEX
8
PART
10
81.9299
20
40.2242
0
VERTEX
8
PART
10
81.7656
20
40.4915
0
VERTEX
8
PART
10
81.6422
20
40.6915
0
VERTEX
8
PART
10
81.4573
20
41.0067
0
VERTEX
8
PART
10
81.3122
20
41.2482
0
VERTEX
8
PART
10
81.1706
20
41.478
0
VERTEX
8
PART
10
80.9315
20
41.9558
0
VERTEX
8
PART
10
80.8169
20
42.1845
0
VERTEX
8
PART
10
80.7017
20
42.393
0
VERTEX
8
PART
10
80.4876
20
42.7903
0
VERTEX
8
PART
10
80.3761
20
43.0238
0
VERTEX
8
PART
10
80.1144
20
43.5264
0
VERTEX
8
PART
10
79.907
20
43.9347
0
VERTEX
8
PART
10
79.6165
20
44.4955
0
VERTEX
8
PART
10
79.1978
20
45.1469
0
VERTEX
8
PART
10
78.9577
20
45.6009
0
VERTEX
8
PART
10
78.4932
20
46.3676
0
VERTEX
8
PART
10
78.198
20
46.9407
0
VERTEX
8
PART
10
77.6896
20
47.7912
0
VERTEX
8
PART
10
77.3976
20
48.3144
0
VERTEX
8
PART
10
76.9506
20
49.3172
0
VERTEX
8
PART
10
76.65
20
49.8675
0
VERTEX
8
PART
10
76.1404
20
50.8282
0
VERTEX
8
PART
10
75.7838
20
51.5195
0
VERTEX
8
PART
10
75.2385
20
52.4128
0
VERTEX
8
PART
10
75.2352
20
52.4177
0
VERTEX
8
PART
10
64.8584
20
53.9522
0
VERTEX
8
PART
10
65.5313
20
58.5027
0
VERTEX
8
PART
10
72.4645
20
57.4774
0
VERTEX
8
PART
10
72.4544
20
57.5028
0
VERTEX
8
PART
10
72.2687
20
57.8601
0
VERTEX
8
PART
10
72.1566
20
58.2357
0
VERTEX
8
PART
10
71.9708
20
58.7769
0
VERTEX
8
PART
10
71.8756
20
59.0322
0
VERTEX
8
PART
10
71.8279
20
59.2705
0
VERTEX
8
PART
10
71.7852
20
59.5353
0
VERTEX
8
PART
10
71.6807
20
60.0631
0
VERTEX
8
PART
10
71.5891
20
60.5168
0
VERTEX
8
PART
10
71.4862
20
61.1433
0
VERTEX
8
PART
10
71.3955
20
61.8719
0
VERTEX
8
PART
10
71.3153
20
62.6297
0
VERTEX
8
PART
10
71.2597
20
63.0309
0
VERTEX
8
PART
10
71.1909
20
63.6802
0
VERTEX
8
PART
10
71.1144
20
64.4417
0
VERTEX
8
PART
10
71.0527
20
65.1707
0
VERTEX
8
PART
10
71.0192
20
65.5784
0
VERTEX
8
PART
10
70.9688
20
66.2098
0
VERTEX
8
PART
10
70.9117
20
66.8758
0
VERTEX
8
PART
10
70.8759
20
67.4481
0
VERTEX
8
PART
10
70.7922
20
68.4198
0
VERTEX
8
PART
10
70.7531
20
68.8636
0
VERTEX
8
PART
10
70.6965
20
69.5391
0
VERTEX
8
PART
10
70.653
20
70.164
0
VERTEX
8
PART
10
70.6385
20
70.5284
0
VERTEX
8
PART
10
70.6262
20
70.7582
0
VERTEX
8
PART
10
61.6313
20
72.0883
0
VERTEX
8
PART
10
62.3042
20
76.6389
0
VERTEX
8
PART
10
69.9865
20
75.5028
0
VERTEX
8
PART
10
69.9735
20
75.693
0
VERTEX
8
PART
10
69.8941
20
76.4392
0
VERTEX
8
PART
10
69.6679
20
77.1167
0
VERTEX
8
PART
10
69.5742
20
77.9867
0
VERTEX
8
PART
10
69.2748
20
79.1319
0
VERTEX
8
PART
10
69.0058
20
80.2164
0
VERTEX
8
PART
10
68.8693
20
81.4183
0
VERTEX
8
PART
10
68.56
20
82.1115
0
VERTEX
8
PART
10
68.4929
20
82.7377
0
VERTEX
8
PART
10
68.0492
20
83.2935
0
VERTEX
8
PART
10
67.9963
20
84.2028
0
VERTEX
8
PART
10
67.4647
20
84.6539
0
VERTEX
8
PART
10
67.3935
20
85.298
0
VERTEX
8
PART
10
67.2975
20
85.723
0
VERTEX
8
PART
10
67.3757
20
86.1479
0
VERTEX
8
PART
10
67.014
20
86.1815
0
VERTEX
8
PART
10
67.0339
20
86.602
0
VERTEX
8
PART
10
67.0473
20
87.2986
0
VERTEX
8
PART
10
67.1081
20
87.5715
0
VERTEX
8
PART
10
67.6591
20
87.5829
0
VERTEX
8
PART
10
67.5891
20
87.6017
0
VERTEX
8
PART
10
68.0436
20
88.6104
0
VERTEX
8
PART
10
68.1031
20
88.7902
0
VERTEX
8
PART
10
58.7096
20
90.1793
0
VERTEX
8
PART
10
59.3825
20
94.7299
0
VERTEX
8
PART
10
68.9232
20
93.319
0
VERTEX
8
PART
10
68.9199
20
93.6492
0
VERTEX
8
PART
10
69.3877
20
94.9559
0
VERTEX
8
PART
10
69.2948
20
95.9159
0
VERTEX
8
PART
10
69.2356
20
96.2212
0
VERTEX
8
PART
10
69.2549
20
97.0614
0
VERTEX
8
PART
10
69.3462
20
99.8259
0
VERTEX
8
PART
10
69.7094
20
100.797
0
VERTEX
8
PART
10
70.0725
20
101.986
0
VERTEX
8
PART
10
70.1892
20
103.014
0
VERTEX
8
PART
10
70.2386
20
103.256
0
VERTEX
8
PART
10
70.3401
20
103.701
0
VERTEX
8
PART
10
70.48
20
104.467
0
VERTEX
8
PART
10
70.4781
20
104.686
0
VERTEX
8
PART
10
70.7101
20
106.064
0
VERTEX
8
PART
10
59.9413
20
107.656
0
VERTEX
8
PART
10
60.6143
20
112.207
0
VERTEX
8
PART
10
71.2062
20
110.64
0
VERTEX
8
PART
10
71.5532
20
114.065
0
VERTEX
8
PART
10
71.9471
20
117.857
0
VERTEX
8
PART
10
72.1637
20
118.889
0
VERTEX
8
PART
10
72.4234
20
119.927
0
VERTEX
8
PART
10
72.8238
20
120.91
0
VERTEX
8
PART
10
73.1491
20
121.913
0
VERTEX
8
PART
10
73.4476
20
122.563
0
VERTEX
8
PART
10
73.7538
20
123.164
0
VERTEX
8
PART
10
73.8052
20
123.265
0
VERTEX
8
PART
10
65.9644
20
124.424
0
VERTEX
8
PART
10
66.6373
20
128.975
0
VERTEX
8
PART
10
75.5551
20
127.656
0
VERTEX
8
PART
10
75.6208
20
127.802
0
VERTEX
8
PART
10
76.0324
20
128.617
0
VERTEX
8
PART
10
76.3538
20
129.216
0
VERTEX
8
PART
10
76.9331
20
130.31
0
VERTEX
8
PART
10
77.1575
20
130.808
0
VERTEX
8
PART
10
77.3469
20
131.252
0
VERTEX
8
PART
10
77.5301
20
131.545
0
VERTEX
8
PART
10
77.6999
20
131.8
0
VERTEX
8
PART
10
78.2173
20
132.612
0
VERTEX
8
PART
10
79.1484
20
133.323
0
VERTEX
8
PART
10
79.5019
20
133.668
0
VERTEX
8
PART
10
79.8317
20
134.001
0
VERTEX
8
PART
10
80.197
20
135.28
0
VERTEX
8
PART
10
80.2901
20
135.471
0
VERTEX
8
PART
10
80.6557
20
136.2
0
VERTEX
8
PART
10
80.7252
20
136.304
0
VERTEX
8
PART
10
81.149
20
136.806
0
VERTEX
8
PART
10
81.6775
20
137.786
0
VERTEX
8
PART
10
81.8352
20
137.798
0
VERTEX
8
PART
10
82.1757
20
138.372
0
VERTEX
8
PART
10
82.2558
20
138.384
0
VERTEX
8
PART
10
82.9149
20
138.634
0
VERTEX
8
PART
10
83.1915
20
139.536
0
VERTEX
8
PART
10
74.1297
20
140.876
0
VERTEX
8
PART
10
74.8027
20
145.426
0
VERTEX
8
PART
10
86.9651
20
143.628
0
VERTEX
8
PART
10
87.1258
20
144.149
0
VERTEX
8
PART
10
88.4063
20
144.912
0
VERTEX
8
PART
10
88.8035
20
145.46
0
VERTEX
8
PART
10
89.2886
20
146.74
0
VERTEX
8
PART
10
89.6863
20
147.434
0
VERTEX
8
PART
10
90.0409
20
147.95
0
VERTEX
8
PART
10
90.5492
20
149.161
0
VERTEX
8
PART
10
90.9011
20
149.852
0
VERTEX
8
PART
10
91.1306
20
150.324
0
VERTEX
8
PART
10
91.7945
20
151.685
0
VERTEX
8
PART
10
92.4241
20
153.802
0
VERTEX
8
PART
10
92.7711
20
154.545
0
VERTEX
8
PART
10
93.0026
20
155.021
0
VERTEX
8
PART
10
93.5474
20
155.663
0
VERTEX
8
PART
10
82.2315
20
157.337
0
VERTEX
8
PART
10
82.9044
20
161.887
0
VERTEX
8
PART
10
96.9964
20
159.803
0
VERTEX
8
PART
10
97.8085
20
160.837
0
VERTEX
8
PART
10
98.5336
20
161.802
0
VERTEX
8
PART
10
98.6189
20
162.062
0
VERTEX
8
PART
10
98.62
20
162.084
0
VERTEX
8
PART
10
99.2609
20
163.343
0
VERTEX
8
PART
10
99.228
20
163.38
0
VERTEX
8
PART
10
99.1407
20
163.513
0
VERTEX
8
PART
10
99.4084
20
164.232
0
VERTEX
8
PART
10
99.3855
20
164.306
0
VERTEX
8
PART
10
99.5997
20
165.077
0
VERTEX
8
PART
10
99.5182
20
165.301
0
VERTEX
8
PART
10
99.5308
20
165.629
0
VERTEX
8
PART
10
99.4342
20
166.021
0
VERTEX
8
PART
10
99.4352
20
166.826
0
VERTEX
8
PART
10
99.4766
20
167.71
0
VERTEX
8
PART
10
99.3461
20
168.104
0
VERTEX
8
PART
10
99.3093
20
168.897
0
VERTEX
8
PART
10
99.1665
20
169.361
0
VERTEX
8
PART
10
99.0759
20
170.204
0
VERTEX
8
PART
10
98.9958
20
170.73
0
VERTEX
8
PART
10
98.9813
20
171.425
0
VERTEX
8
PART
10
98.9938
20
172.144
0
VERTEX
8
PART
10
98.8924
20
172.532
0
VERTEX
8
PART
10
87.0113
20
174.289
0
VERTEX
8
PART
10
87.6842
20
178.839
0
VERTEX
8
PART
10
98.2653
20
177.275
0
VERTEX
8
PART
10
98.2499
20
177.37
0
VERTEX
8
PART
10
97.7048
20
178.528
0
VERTEX
8
PART
10
97.484
20
179.074
0
VERTEX
8
PART
10
97.3673
20
179.258
0
VERTEX
8
PART
10
96.6639
20
180.587
0
VERTEX
8
PART
10
96.5351
20
180.839
0
VERTEX
8
PART
10
96.4608
20
180.987
0
VERTEX
8
PART
10
95.9995
20
182.37
0
VERTEX
8
PART
10
95.8507
20
182.672
0
VERTEX
8
PART
10
95.8012
20
182.797
0
VERTEX
8
PART
10
95.0828
20
184.118
0
VERTEX
8
PART
10
95.0073
20
184.256
0
VERTEX
8
PART
10
94.9602
20
184.329
0
VERTEX
8
PART
10
94.4119
20
185.935
0
VERTEX
8
PART
10
94.3738
20
185.989
0
VERTEX
8
PART
10
94.3662
20
186.017
0
VERTEX
8
PART
10
94.0396
20
186.911
0
VERTEX
8
PART
10
88.5983
20
188.149
0
VERTEX
8
PART
10
84.5697
20
189
0
VERTEX
8
PART
10
83.5433
20
187.444
0
VERTEX
8
PART
10
82.5393
20
185.932
0
VERTEX
8
PART
10
81.6217
20
184.785
0
VERTEX
8
PART
10
81.0835
20
183.836
0
VERTEX
8
PART
10
80.4216
20
182.945
0
VERTEX
8
PART
10
79.9488
20
182.165
0
VERTEX
8
PART
10
78.8897
20
181.107
0
VERTEX
8
PART
10
78.442
20
180.654
0
VERTEX
8
PART
10
76.8168
20
179.121
0
VERTEX
8
PART
10
76.743
20
179
0
VERTEX
8
PART
10
76.1667
20
178.444
0
VERTEX
8
PART
10
74.6285
20
174.192
0
VERTEX
8
PART
10
73.5816
20
171.49
0
VERTEX
8
PART
10
73.0247
20
169.687
0
VERTEX
8
PART
10
72.7577
20
168.775
0
VERTEX
8
PART
10
72.1318
20
167.266
0
VERTEX
8
PART
10
71.6953
20
165.366
0
VERTEX
8
PART
10
67.3732
20
154.478
0
VERTEX
8
PART
10
66.6253
20
152.85
0
VERTEX
8
PART
10
64.6475
20
143.443
0
VERTEX
8
PART
10
64.1657
20
142.302
0
VERTEX
8
PART
10
63.3169
20
140.489
0
VERTEX
8
PART
10
63.0787
20
139.337
0
VERTEX
8
PART
10
62.892
20
138.426
0
VERTEX
8
PART
10
62.5537
20
137.426
0
VERTEX
8
PART
10
62.0611
20
136.351
0
VERTEX
8
PART
10
61.375
20
134.817
0
VERTEX
8
PART
10
60.6877
20
133.446
0
VERTEX
8
PART
10
60.1027
20
132.255
0
VERTEX
8
PART
10
59.2629
20
131.009
0
VERTEX
8
PART
10
58.6968
20
129.825
0
VERTEX
8
PART
10
57.8797
20
128.284
0
VERTEX
8
PART
10
57.1625
20
126.744
0
VERTEX
8
PART
10
56.183
20
125.143
0
VERTEX
8
PART
10
55.4684
20
123.594
0
VERTEX
8
PART
10
54.4968
20
121.449
0
VERTEX
8
PART
10
53.306
20
119.564
0
VERTEX
8
PART
10
51.8981
20
116.479
0
VERTEX
8
PART
10
51.1738
20
115.26
0
VERTEX
8
PART
10
50.0069
20
112.576
0
VERTEX
8
PART
10
48.8439
20
109.671
0
VERTEX
8
PART
10
48.7765
20
109.495
0
VERTEX
8
PART
10
48.5757
20
108.426
0
VERTEX
8
PART
10
48.3306
20
105.856
0
VERTEX
8
PART
10
48.1467
20
104.227
0
VERTEX
8
PART
10
48.159
20
103.481
0
VERTEX
8
PART
10
48
20
102.573
0
VERTEX
8
PART
10
48.3361
20
100.566
0
VERTEX
8
PART
10
48.5744
20
99.4748
0
VERTEX
8
PART
10
48.7263
20
98.3708
0
VERTEX
8
PART
10
48.8476
20
97.6366
0
VERTEX
8
PART
10
49.1061
20
95.5492
0
VERTEX
8
PART
10
49.2157
20
94.6779
0
VERTEX
8
PART
10
49.5266
20
92.9971
0
VERTEX
8
PART
10
49.5878
20
92.5827
0
VERTEX
8
PART
10
50.139
20
90.0643
0
VERTEX
8
PART
10
50.2365
20
89.4432
0
VERTEX
8
PART
10
50.7479
20
87.7342
0
VERTEX
8
PART
10
51.057
20
86.4567
0
VERTEX
8
PART
10
51.4433
20
85.0598
0
VERTEX
8
PART
10
51.5603
20
84.5246
0
VERTEX
8
PART
10
52.0676
20
82.0901
0
VERTEX
8
PART
10
52.2242
20
81.3505
0
VERTEX
8
PART
10
52.6503
20
79.3118
0
VERTEX
8
PART
10
52.7778
20
78.7211
0
VERTEX
8
PART
10
53.2764
20
76.4408
0
VERTEX
8
PART
10
53.3714
20
75.9957
0
VERTEX
8
PART
10
54.004
20
73.0612
0
VERTEX
8
PART
10
54.1628
20
72.3198
0
VERTEX
8
PART
10
54.6597
20
69.9593
0
VERTEX
8
PART
10
54.8149
20
69.181
0
VERTEX
8
PART
10
55.1593
20
67.2933
0
VERTEX
8
PART
10
55.4276
20
65.6611
0
VERTEX
8
PART
10
55.5343
20
65.0232
0
VERTEX
8
PART
10
55.9299
20
63.0328
0
VERTEX
8
PART
10
56.03
20
62.5227
0
VERTEX
8
PART
10
56.5318
20
60.1621
0
VERTEX
8
PART
10
56.6423
20
59.6436
0
VERTEX
8
PART
10
56.6526
20
57.5021
0
VERTEX
8
PART
10
56.6521
20
57.3987
0
VERTEX
8
PART
10
56.6734
20
56.8693
0
VERTEX
8
PART
10
56.687
20
56.5155
0
VERTEX
8
PART
10
56.7124
20
56.4371
0
VERTEX
8
PART
10
57.2652
20
54.7274
0
VERTEX
8
PART
10
57.4125
20
54.3651
0
VERTEX
8
PART
10
57.6252
20
53.8032
0
VERTEX
8
PART
10
57.6658
20
53.723
0
VERTEX
8
PART
10
58.5788
20
51.7632
0
VERTEX
8
PART
10
58.775
20
51.4561
0
VERTEX
8
PART
10
59.1404
20
50.9228
0
VERTEX
8
PART
10
59.2361
20
50.8662
0
VERTEX
8
PART
10
60.7389
20
49.4094
0
VERTEX
8
PART
10
60.8657
20
49.2797
0
VERTEX
8
PART
10
61.0306
20
49.1049
0
VERTEX
8
PART
10
61.0808
20
49.0319
0
VERTEX
8
PART
10
62.1861
20
47.4135
0
VERTEX
8
PART
10
62.3505
20
47.1786
0
VERTEX
8
PART
10
62.4396
20
47.0535
0
VERTEX
8
PART
10
64.2557
20
44.5017
0
VERTEX
8
PART
10
64.4123
20
44.2911
0
VERTEX
8
PART
10
66.3182
20
41.7146
0
VERTEX
8
PART
10
66.534
20
41.422
0
VERTEX
8
PART
10
67.0373
20
40.6211
0
VERTEX
8
PART
10
78.7465
20
38.8895
0
VERTEX
8
PART
10
78.0735
20
34.339
0
VERTEX
8
PART
10
70.4092
20
35.4724
0
VERTEX
8
PART
10
70.5022
20
35.334
0
VERTEX
8
PART
10
70.8041
20
34.8965
0
VERTEX
8
PART
10
70.8988
20
34.7596
0
VERTEX
8
PART
10
71.5078
20
33.2973
0
VERTEX
8
PART
10
71.5279
20
33.2474
0
VERTEX
8
PART
10
72.5006
20
32.0112
0
VERTEX
8
PART
10
72.5443
20
31.9452
0
VERTEX
8
PART
10
72.5742
20
31.9094
0
VERTEX
8
PART
10
74.1142
20
30.2763
0
VERTEX
8
PART
10
74.1825
20
30.2098
0
VERTEX
8
PART
10
74.684
20
29.7736
0
VERTEX
8
PART
10
74.7171
20
29.7436
0
VERTEX
8
PART
10
76.4659
20
28.7075
0
VERTEX
8
PART
10
76.585
20
28.6829
0
VERTEX
8
PART
10
78.1037
20
28.3155
0
VERTEX
8
PART
10
78.1541
20
28.2846
0
VERTEX
8
PART
10
81.0779
20
27.2292
0
VERTEX
8
PART
10
81.3012
20
27.1275
0
VERTEX
8
PART
10
82.9146
20
26.5484
0
VERTEX
8
PART
10
83.6123
20
26.1306
0
VERTEX
8
PART
10
84.0749
20
26.1891
0
VERTEX
8
PART
10
84.6522
20
26.1297
0
VERTEX
8
PART
10
90.8176
20
22.3609
0
VERTEX
8
PART
10
93.8201
20
20.5545
0
VERTEX
8
PART
10
94.6272
20
20.0665
0
VERTEX
8
PART
10
94.7906
20
20.0353
0
SEQEND
0
TEXT
8
TEXT
10
74.2468
20
167.031
40
6
1
X7.1
50
-8.41199
0
ENDSEC
0
EOF
