<?xml version="1.0"?>
<svg version="1.0" xmlns="http://www.w3.org/2000/svg" width="175pt" height="37pt" viewBox="0 0 175 37">

<path d="M 103.997 7.73377 L 103.997 7.73377 L 102.761 7.68864 L 102.575 7.67602 L 102.379 7.65014 L 101.673 7.52258 L 100.967 7.38017 L 100.865 7.36686 L 100.793 7.34846 L 99.646 7.22683 L 99.3703 7.08786 L 99.191 6.95132 L 98.079 6.08651 L 98.0761 4.65536 L 98.0605 2.91952 L 98.0617 2.25696 L 98.0591 1.64615 L 100.356 1.01515 L 101.21 0.748773 L 107.369 0.797352 L 107.877 0.798419 L 107.953 0.82288 L 109.668 1.53421 L 109.894 4.561 L 109.994 6.48793 L 109.375 6.73224 L 107.484 7.48666 L 107.229 7.52676 L 107.182 7.5361 L 106.024 7.66236 L 105.847 7.68273 L 104.198 7.72114Z " fill-rule="evenodd" fill="rgb(220,220,220)" stroke="rgb(255,0,0)" />

<text x="96.8914" y="7.05241" fill="rgb(0,0,0)" style="font:5pt Times New Roman">1.1</text>

</svg>