<?xml version="1.0"?>
<svg version="1.0" xmlns="http://www.w3.org/2000/svg" width="175pt" height="37pt" viewBox="0 0 175 37">

<path d="M 103.651 8.01765 L 103.651 8.01765 L 102.822 7.98736 L 102.135 7.94088 L 101.412 7.84558 L 100.973 7.76617 L 100.534 7.67752 L 100.018 7.61009 L 99.652 7.51684 L 99.0692 7.45504 L 98.6075 7.36888 L 98.5565 7.44413 L 98.154 8.03641 L 98.144 8.04311 L 98.0669 7.93055 L 96.8229 6.35591 L 96.838 4.20459 L 96.8409 0.950497 L 97.1783 0.897409 L 97.5196 0.852958 L 100.97 0.282819 L 102.07 0.101743 L 105.733 0.203105 L 106.038 0.209007 L 107.596 0.474819 L 110.282 0.934584 L 110.835 1.02444 L 110.771 3.64619 L 110.696 6.69955 L 109.232 7.83316 L 109.199 7.85276 L 108.895 7.48697 L 108.668 7.51317 L 108.039 7.58377 L 107.563 7.65878 L 106.952 7.78085 L 106.207 7.8621 L 105.464 7.9474 L 104.359 7.97312Z " fill-rule="evenodd" fill="rgb(220,220,220)" stroke="rgb(255,0,0)" />

<text x="96.711" y="6.28997" fill="rgb(0,0,0)" style="font:5pt Times New Roman">2.1</text>

</svg>