<?xml version="1.0"?>
<svg version="1.0" xmlns="http://www.w3.org/2000/svg" width="175pt" height="37pt" viewBox="0 0 175 37">

<path d="M 70.6579 7.40933 L 70.6579 7.40933 L 70.4112 7.43486 L 70.2231 7.46492 L 70.2087 7.46795 L 70.1932 7.46923 L 70.1511 7.46906 L 68.4444 7.47196 L 66.9375 7.47452 L 66.8797 7.46684 L 66.4251 7.39774 L 64.695 6.75863 L 63.3606 6.26877 L 63.5 4.55888 L 63.5212 1.86533 L 63.6609 1.77169 L 63.8987 1.60784 L 64.7119 1.06341 L 67.1776 1.18487 L 72.0671 1.42238 L 73.1559 2.11781 L 73.1795 2.1315 L 73.1875 2.13801 L 73.2053 2.14795 L 73.2232 2.38814 L 73.4532 5.71631 L 71.0445 7.25183Z " fill-rule="evenodd" fill="rgb(220,220,220)" stroke="rgb(255,0,0)" />

<text x="61.1956" y="6.49439" fill="rgb(0,0,0)" style="font:5pt Times New Roman">3.1</text>

<path d="M 103.306 8.30154 L 103.306 8.30154 L 102.882 8.28607 L 101.695 8.20574 L 100.446 8.04101 L 100.273 8.00976 L 100.1 7.97487 L 99.171 7.85332 L 98.895 7.78304 L 98.5374 8.40353 L 98.4448 8.54618 L 98.3213 8.54632 L 97.8129 8.54688 L 96.8051 7.50973 L 95.8456 6.62545 L 95.8506 4.24069 L 95.8441 0.801046 L 96.1345 0.754506 L 97.172 0.58214 L 99.6316 0.176665 L 100.307 0.0596146 L 104.311 0.212384 L 106.531 0.290756 L 108.856 0.697393 L 110.888 1.03666 L 110.855 6.0699 L 110.849 6.92125 L 110.714 7.04577 L 109.152 8.47031 L 108.884 8.47147 L 108.761 8.47336 L 108.599 8.23127 L 108.348 7.81551 L 108.275 7.74291 L 108.151 7.75721 L 108.006 7.77349 L 107.896 7.79079 L 106.722 8.02559 L 106.39 8.06184 L 105.081 8.21206 L 104.521 8.22511Z " fill-rule="evenodd" fill="rgb(220,220,220)" stroke="rgb(255,0,0)" />

<text x="94.6323" y="6.52475" fill="rgb(0,0,0)" style="font:5pt Times New Roman">3.2</text>

</svg>