<?xml version="1.0"?>
<svg version="1.0" xmlns="http://www.w3.org/2000/svg" width="175pt" height="37pt" viewBox="0 0 175 37">

<path d="M 65.1365 7.5259 L 65.1365 7.5259 L 64.6435 7.36992 L 63.7576 7.13591 L 63.6946 7.1171 L 63.6273 7.10637 L 63.4656 7.23949 L 62.0786 6.52052 L 61.9292 6.43039 L 61.931 6.19757 L 61.9334 5.60292 L 61.9647 3.14174 L 61.9735 2.11217 L 63.8974 1.18784 L 65.6969 0.351853 L 68.6657 0.478693 L 71.4367 0.603291 L 74.4324 2.02732 L 75.131 2.36065 L 75.1331 2.43982 L 75.2011 6.0319 L 73.8966 7.23862 L 73.6468 7.45379 L 73.292 7.29194 L 73.1535 7.22699 L 73.1343 7.21552 L 72.537 7.3931 L 72.0973 7.55183 L 71.1071 7.71005 L 70.7515 7.78502 L 70.3673 7.81688 L 69.3234 7.81264 L 68.1674 7.81461 L 67.1468 7.81634 L 66.3628 7.71235Z " fill-rule="evenodd" fill="rgb(220,220,220)" stroke="rgb(255,0,0)" />

<text x="61.948" y="6.94026" fill="rgb(0,0,0)" style="font:5pt Times New Roman">4.1</text>

<path d="M 102.96 8.58542 L 102.96 8.58542 L 102.942 8.58478 L 102.381 8.54679 L 100.682 8.85749 L 100.56 8.89381 L 100.535 8.91327 L 98.121 8.87643 L 97.5173 8.88762 L 96.6264 8.11614 L 95.1858 6.89514 L 95.1904 4.55394 L 95.1839 0.86907 L 95.3197 0.846609 L 95.9195 0.747993 L 98.9291 0.250584 L 99.6107 0.139051 L 104.273 0.306871 L 106.618 0.39503 L 108.841 0.715441 L 111.002 1.01998 L 110.957 6.64625 L 110.953 7.14387 L 110.811 7.24974 L 108.743 8.87525 L 108.177 8.86403 L 106.552 8.79716 L 106.374 8.66903 L 104.929 8.45028 L 104.698 8.47673 L 104.682 8.4771Z " fill-rule="evenodd" fill="rgb(220,220,220)" stroke="rgb(255,0,0)" />

<text x="94.9612" y="7.29703" fill="rgb(0,0,0)" style="font:5pt Times New Roman">4.2</text>

</svg>