<?xml version="1.0"?>
<svg version="1.0" xmlns="http://www.w3.org/2000/svg" width="175pt" height="37pt" viewBox="0 0 175 37">

<path d="M 135.289 7.01386 L 135.289 7.01386 L 134.782 6.95605 L 133.944 6.89097 L 133.434 6.81748 L 132.672 6.65304 L 131.963 6.48293 L 132.091 5.46664 L 132.184 4.62439 L 132.33 3.74056 L 132.556 2.38911 L 132.762 2.35004 L 133.449 2.23327 L 133.79 2.21205 L 135.17 2.19167 L 137.01 2.31104 L 137.627 2.33252 L 139.271 2.45491 L 139.681 4.00437 L 140.298 6.33611 L 138.726 6.73713 L 138.138 6.8029 L 137.071 6.99558 L 136.398 7.04158Z " fill-rule="evenodd" fill="rgb(220,220,220)" stroke="rgb(255,0,0)" />

<text x="129.983" y="7.46058" fill="rgb(0,0,0)" style="font:5pt Times New Roman">5.1</text>

<path d="M 96.7623 8.96599 L 96.7623 8.96599 L 96.3755 8.63344 L 94.668 7.1649 L 94.6827 4.90166 L 94.6947 1.20689 L 94.6955 1.01571 L 94.6957 0.902691 L 98.2754 0.294238 L 98.9149 0.187462 L 104.748 0.398827 L 106.705 0.47077 L 108.071 0.658616 L 110.977 1.05381 L 110.938 4.34916 L 110.896 7.36942 L 109.18 8.68549 L 108.829 8.9523 L 108.504 9.21593 L 108.248 9.26265 L 106.146 9.56506 L 103.984 9.56538 L 100.525 9.5659 L 97.4846 9.26051 L 97.0711 9.22852Z " fill-rule="evenodd" fill="rgb(220,220,220)" stroke="rgb(255,0,0)" />

<text x="95.6881" y="7.68961" fill="rgb(0,0,0)" style="font:5pt Times New Roman">5.2</text>

<path d="M 65.2824 7.87217 L 65.2824 7.87217 L 64.153 7.51483 L 64.0362 7.48398 L 63.9368 7.45428 L 63.6815 7.90992 L 63.5156 8.18322 L 63.3117 8.17995 L 63.1747 8.17923 L 62.5557 7.56613 L 61.2901 6.28328 L 61.2971 4.3056 L 61.2971 2.19295 L 62.2249 1.7312 L 64.3571 0.686564 L 65.4423 0.186428 L 67.8569 0.228647 L 71.6832 0.296113 L 74.0706 1.39975 L 76.1028 2.451 L 76.1101 5.9498 L 76.1109 6.3689 L 75.9688 6.49225 L 74.1338 8.12304 L 73.7827 8.15696 L 73.4295 7.93212 L 73.0228 7.65261 L 72.3381 7.89974 L 71.9912 7.95518 L 71.2943 8.10208 L 70.5414 8.16453 L 68.4958 8.15622 L 67.8905 8.15725 L 67.3561 8.15816 L 65.846 7.95786Z " fill-rule="evenodd" fill="rgb(220,220,220)" stroke="rgb(255,0,0)" />

<text x="61.0882" y="6.40277" fill="rgb(0,0,0)" style="font:5pt Times New Roman">5.3</text>

</svg>