<?xml version="1.0"?>
<svg version="1.0" xmlns="http://www.w3.org/2000/svg" width="175pt" height="37pt" viewBox="0 0 175 37">

<path d="M 94.2183 0.98176 L 94.2183 0.98176 L 97.6716 0.371118 L 98.2182 0.27592 L 105.109 0.519578 L 106.792 0.580435 L 109.897 0.998748 L 110.744 1.11307 L 110.706 3.30523 L 110.624 7.59894 L 109.363 8.65974 L 108.852 9.08522 L 108.331 9.56581 L 107.688 9.71514 L 105.989 10.0401 L 100.96 10.0659 L 100.025 10.0661 L 98.8429 9.89737 L 96.6541 9.61081 L 95.1702 8.3088 L 94.203 7.43469 L 94.2117 5.59221 L 94.2142 1.36172 L 94.2171 1.12793Z " fill-rule="evenodd" fill="rgb(220,220,220)" stroke="rgb(255,0,0)" />

<text x="93.8844" y="7.386" fill="rgb(0,0,0)" style="font:5pt Times New Roman">6.1</text>

<path d="M 66.7167 8.38742 L 66.7167 8.38742 L 65.7663 8.22 L 65.5371 8.31671 L 64.9748 8.67415 L 64.2016 8.56898 L 63.6703 8.60748 L 63.1878 8.60495 L 62.1887 7.66471 L 61.0666 6.61309 L 61.0629 6.05008 L 61.0501 4.66336 L 61.0455 2.9464 L 61.0418 2.30846 L 62.2025 1.71452 L 64.9097 0.296749 L 67.9637 0.350998 L 72.9927 0.438617 L 74.353 1.19466 L 75.0187 1.55532 L 76.5073 2.36734 L 76.8935 2.5792 L 76.9187 6.4464 L 76.9194 6.70537 L 76.8602 6.75198 L 74.5293 8.67613 L 73.6171 8.67211 L 72.0218 8.80081 L 71.8301 8.75622 L 70.7319 8.51081 L 70.7155 8.51217 L 67.6682 8.4998 L 67.6136 8.4999 L 67.5653 8.49998Z " fill-rule="evenodd" fill="rgb(220,220,220)" stroke="rgb(255,0,0)" />

<text x="64.0339" y="7.30083" fill="rgb(0,0,0)" style="font:5pt Times New Roman">6.2</text>

<path d="M 134.552 7.93596 L 134.552 7.93596 L 134.169 7.91038 L 133.872 7.87744 L 133.634 7.85768 L 132.745 7.81834 L 132.682 7.80854 L 132.467 7.75479 L 132.268 7.8276 L 131.813 7.7007 L 130.985 7.32984 L 130.287 7.04604 L 130.013 6.88933 L 130.012 6.01768 L 130.009 4.19314 L 130.013 2.50722 L 133.131 1.07709 L 133.767 0.772085 L 134.305 0.819916 L 141.307 1.44512 L 141.476 1.52653 L 143.418 2.47144 L 143.527 4.50876 L 143.636 6.53936 L 141.792 7.48629 L 141.532 7.62098 L 141.165 7.78934 L 139.814 7.96133 L 139.616 7.98407 L 138.162 8.07049 L 137.826 8.09295 L 136.448 8.0339 L 136.029 8.02309Z " fill-rule="evenodd" fill="rgb(220,220,220)" stroke="rgb(255,0,0)" />

<text x="129.762" y="7.27497" fill="rgb(0,0,0)" style="font:5pt Times New Roman">6.3</text>

</svg>