<?xml version="1.0"?>
<svg version="1.0" xmlns="http://www.w3.org/2000/svg" width="175pt" height="37pt" viewBox="0 0 175 37">

<path d="M 67.6386 9.62369 L 67.6386 9.62369 L 66.9218 9.55368 L 64.1747 9.11549 L 63.2889 9.03113 L 62.1645 7.94243 L 61.1463 6.94444 L 61.1489 5.66225 L 61.1492 3.82133 L 61.1479 2.97583 L 61.1459 2.40586 L 62.6417 1.5079 L 64.4827 0.385815 L 69.8307 0.475287 L 74.0502 0.548468 L 74.9895 1.12227 L 76.7246 2.30234 L 77.1056 2.55266 L 77.2796 2.68073 L 77.2541 3.58014 L 77.1557 7.03888 L 76.8959 7.23759 L 74.6981 9.10354 L 72.8552 9.30941 L 71.8806 9.60691 L 69.1703 9.56858Z " fill-rule="evenodd" fill="rgb(220,220,220)" stroke="rgb(255,0,0)" />

<text x="62.1013" y="7.8079" fill="rgb(0,0,0)" style="font:5pt Times New Roman">7.1</text>

<path d="M 97.3687 0.362391 L 97.3687 0.362391 L 97.5222 0.333697 L 105.776 0.629156 L 106.879 0.668973 L 109.693 1.06119 L 110.33 1.14919 L 110.295 3.0119 L 110.153 7.81817 L 109.414 8.46845 L 108.835 9.04069 L 108.049 10.0364 L 107.866 10.0853 L 106.609 10.5928 L 105.81 10.8915 L 99.7367 10.7836 L 99.5112 10.7751 L 99.1087 10.6817 L 96.3656 9.94249 L 94.8538 8.52867 L 93.8919 7.70456 L 93.9286 5.35618 L 93.9797 1.03254 L 94.0953 1.00869 L 95.6825 0.69595Z " fill-rule="evenodd" fill="rgb(220,220,220)" stroke="rgb(255,0,0)" />

<text x="96.0627" y="8.35916" fill="rgb(0,0,0)" style="font:5pt Times New Roman">7.2</text>

<path d="M 134.917 8.41756 L 134.917 8.41756 L 134.043 8.36599 L 133.087 8.30213 L 132.345 8.21988 L 131.751 8.17054 L 131.632 8.16529 L 131.569 8.1553 L 131.247 8.44958 L 131.116 8.47922 L 131.056 8.48799 L 130.799 8.53256 L 130.231 8.20331 L 128.589 7.17489 L 128.608 2.9035 L 128.611 2.58071 L 128.725 2.49694 L 129.521 1.93426 L 131.184 0.75328 L 131.826 0.326886 L 133.717 0.295963 L 139.868 0.190791 L 139.956 0.206517 L 140.741 0.603306 L 142.264 1.42479 L 144.138 2.44608 L 144.146 3.40068 L 144.151 6.7902 L 143.532 7.19759 L 142.232 8.03107 L 142.104 7.94728 L 141.94 7.98682 L 141.792 8.02952 L 140.977 8.06219 L 140.328 8.15811 L 139.362 8.28112 L 138.63 8.36524 L 137.722 8.41922 L 136.8 8.48085 L 135.941 8.44403Z " fill-rule="evenodd" fill="rgb(220,220,220)" stroke="rgb(255,0,0)" />

<text x="129.333" y="6.58212" fill="rgb(0,0,0)" style="font:5pt Times New Roman">7.3</text>

</svg>