<?xml version="1.0"?>
<svg version="1.0" xmlns="http://www.w3.org/2000/svg" width="175pt" height="37pt" viewBox="0 0 175 37">

<path d="M 99.0312 10.9483 L 99.0312 10.9483 L 98.1154 10.7482 L 95.8876 10.251 L 94.116 8.60209 L 93.4224 7.97435 L 93.5056 4.56706 L 93.5778 1.10079 L 94.2789 0.949084 L 96.8257 0.411773 L 99.2977 0.499139 L 106.966 0.774543 L 109.034 1.06372 L 110.064 1.20705 L 109.931 4.95419 L 109.827 7.89058 L 109.006 8.81947 L 108.188 9.74756 L 107.747 10.2741 L 107.449 10.3971 L 105.676 10.9733 L 101.095 10.9544Z " fill-rule="evenodd" fill="rgb(220,220,220)" stroke="rgb(255,0,0)" />

<text x="95.2256" y="8.43927" fill="rgb(0,0,0)" style="font:5pt Times New Roman">8.1</text>

<path d="M 74.9663 9.6173 L 74.9663 9.6173 L 73.8408 10.1198 L 72.3644 10.8263 L 68.8042 10.9019 L 67.1565 10.818 L 63.7506 9.67163 L 63.1922 9.4575 L 63.048 9.31767 L 62.3796 8.64626 L 61.0161 7.27472 L 61.0336 4.86131 L 61.0464 2.51314 L 62.0243 1.94432 L 64.4768 0.495363 L 70.1215 0.591157 L 75.0108 0.674109 L 76.3508 1.84053 L 77.3324 2.79107 L 77.3207 5.41234 L 77.3171 7.20587 L 76.6139 7.93991 L 75.773 8.82345Z " fill-rule="evenodd" fill="rgb(220,220,220)" stroke="rgb(255,0,0)" />

<text x="62.0389" y="7.91711" fill="rgb(0,0,0)" style="font:5pt Times New Roman">8.2</text>

<path d="M 133.805 8.81203 L 133.805 8.81203 L 133.534 8.79603 L 132.005 8.69388 L 131.823 8.67381 L 131.471 8.87231 L 131.053 9.06225 L 130.262 9.07491 L 129.782 9.08239 L 129.554 8.93758 L 127.355 7.43496 L 127.362 6.02265 L 127.373 2.67607 L 129.404 1.21854 L 130.323 0.545415 L 135.209 0.455152 L 140.774 0.359691 L 141.971 1.24028 L 143.838 2.55406 L 143.809 4.65858 L 143.78 7.1053 L 142.392 8.18876 L 141.726 8.69704 L 141.566 8.69934 L 141.364 8.68769 L 141.257 8.57046 L 140.893 8.30895 L 140.75 8.35011 L 140.628 8.35499 L 139.299 8.55143 L 138.91 8.60091 L 137.644 8.74641 L 137.282 8.76795 L 135.775 8.86875 L 135.435 8.85417Z " fill-rule="evenodd" fill="rgb(220,220,220)" stroke="rgb(255,0,0)" />

<text x="128.44" y="7.48832" fill="rgb(0,0,0)" style="font:5pt Times New Roman">8.3</text>

</svg>