<?xml version="1.0"?>
<svg version="1.0" xmlns="http://www.w3.org/2000/svg" width="175pt" height="37pt" viewBox="0 0 175 37">

<path d="M 62.247 8.66635 L 62.247 8.66635 L 61.1339 7.60626 L 61.1272 6.693 L 61.1168 5.5277 L 61.1127 3.88644 L 61.1076 2.64812 L 63.9399 1.09398 L 64.7617 0.643286 L 65.4314 0.655563 L 68.586 0.709511 L 75.138 0.823736 L 75.2373 0.825467 L 76.1443 0.839933 L 76.4459 0.843983 L 76.7656 1.28519 L 77.5958 2.49473 L 77.9154 2.94596 L 77.9177 6.42227 L 77.9184 7.38785 L 77.7302 7.58523 L 75.4601 9.98211 L 74.6531 10.3125 L 73.837 10.7821 L 72.9145 11.2463 L 70.8138 11.2047 L 67.4242 11.2219 L 66.5278 10.9298 L 64.7098 10.322 L 63.5973 9.93727Z " fill-rule="evenodd" fill="rgb(220,220,220)" stroke="rgb(255,0,0)" />

<text x="64.0372" y="8.69384" fill="rgb(0,0,0)" style="font:5pt Times New Roman">9.1</text>

<path d="M 142.947 7.35855 L 142.947 7.35855 L 141.983 8.09044 L 141.355 8.51788 L 140.301 9.2762 L 139.46 9.32919 L 138.726 9.35855 L 137.993 9.40702 L 137.415 9.42496 L 136.987 9.46762 L 135.27 9.56071 L 134.669 9.57928 L 133.625 9.73043 L 132.174 9.84746 L 131.778 9.86669 L 129.627 9.59803 L 129.15 9.54792 L 128.783 9.5538 L 127.837 8.86806 L 126.2 7.66411 L 126.239 4.11223 L 126.249 3.34205 L 126.255 2.76999 L 128.376 1.29569 L 129.114 0.792953 L 131.928 0.752528 L 139.492 0.638128 L 139.972 0.629934 L 140.167 0.626487 L 140.343 0.754329 L 143.058 2.69457 L 143.032 3.90629Z " fill-rule="evenodd" fill="rgb(220,220,220)" stroke="rgb(255,0,0)" />

<text x="127.031" y="8.04989" fill="rgb(0,0,0)" style="font:5pt Times New Roman">9.2</text>

<path d="M 105.829 11.2653 L 105.829 11.2653 L 105.522 11.3905 L 98.5383 11.4 L 98.5338 11.4001 L 95.731 10.7137 L 95.2865 10.5921 L 94.7651 10.0899 L 92.8592 8.24409 L 92.8709 7.89313 L 92.8895 7.2595 L 93.0109 3.31411 L 93.0693 1.18202 L 94.4831 0.886077 L 96.2362 0.514501 L 99.3027 0.625005 L 107.053 0.912885 L 109.404 1.23871 L 109.878 1.30301 L 109.815 3.11256 L 109.647 7.94592 L 108.239 9.67444 L 107.478 10.5843Z " fill-rule="evenodd" fill="rgb(220,220,220)" stroke="rgb(255,0,0)" />

<text x="94.8164" y="8.72208" fill="rgb(0,0,0)" style="font:5pt Times New Roman">9.3</text>

</svg>