<?xml version="1.0"?>
<svg version="1.0" xmlns="http://www.w3.org/2000/svg" width="175pt" height="37pt" viewBox="0 0 175 37">

<path d="M 75.9967 10.3748 L 75.9967 10.3748 L 74.6125 10.9417 L 73.6505 11.3409 L 67.8886 11.3106 L 67.877 11.3106 L 67.8454 11.3104 L 67.8197 11.3039 L 63.8547 10.311 L 61.8679 8.22644 L 61.5869 7.93949 L 61.5951 7.42079 L 61.6023 6.92391 L 61.6238 4.8972 L 61.6439 2.75627 L 62.474 2.26863 L 65.0468 0.735069 L 68.0806 0.788709 L 74.2048 0.890619 L 76.0936 0.920525 L 76.9889 0.936467 L 77.6011 1.77447 L 78.5418 3.04201 L 78.5394 3.90873 L 78.5305 4.9066 L 78.5178 6.33148 L 78.4989 7.56973 L 78.2962 7.82286Z " fill-rule="evenodd" fill="rgb(220,220,220)" stroke="rgb(255,0,0)" />

<text x="62.5845" y="8.78719" fill="rgb(0,0,0)" style="font:5pt Times New Roman">10.1</text>

<path d="M 107.241 10.9194 L 107.241 10.9194 L 106.187 11.3245 L 105.369 11.7721 L 101.739 11.8581 L 98.0359 11.8587 L 95.6012 11.1803 L 94.8086 10.9331 L 93.5702 9.73833 L 92.2967 8.51383 L 92.3735 6.32743 L 92.4928 2.60569 L 92.5226 1.7406 L 92.5381 1.25413 L 95.1025 0.733105 L 95.7086 0.608093 L 102.037 0.836665 L 107.14 1.00148 L 109.121 1.26322 L 109.716 1.3439 L 109.572 5.50256 L 109.486 8.0012 L 109.092 8.52722Z " fill-rule="evenodd" fill="rgb(220,220,220)" stroke="rgb(255,0,0)" />

<text x="92.4179" y="9.01843" fill="rgb(0,0,0)" style="font:5pt Times New Roman">10.2</text>

<path d="M 137.601 10.1801 L 137.601 10.1801 L 137.57 10.1845 L 137.505 10.1898 L 137.4 10.1964 L 134.656 10.3724 L 132.35 10.454 L 130.436 10.5816 L 128.939 10.2265 L 127.855 10.0239 L 127.178 9.46765 L 126.403 8.78711 L 125.26 7.78932 L 125.28 6.79436 L 125.3 5.03376 L 125.314 3.75159 L 125.317 2.87064 L 126.856 1.7848 L 127.926 1.01021 L 137.674 0.854238 L 138.939 0.834574 L 139.32 0.828704 L 139.729 1.10798 L 142.16 2.76249 L 142.096 4.92945 L 142.02 7.60218 L 141.638 7.87495 L 139.3 9.83663 L 137.78 10.1671 L 137.694 10.1772Z " fill-rule="evenodd" fill="rgb(220,220,220)" stroke="rgb(255,0,0)" />

<text x="124.106" y="7.91996" fill="rgb(0,0,0)" style="font:5pt Times New Roman">10.3</text>

</svg>