<?xml version="1.0"?>
<svg version="1.0" xmlns="http://www.w3.org/2000/svg" width="175pt" height="37pt" viewBox="0 0 175 37">

<path d="M 103.367 12.3164 L 103.367 12.3164 L 97.5381 12.3173 L 95.4588 11.6647 L 94.3577 11.274 L 92.203 9.1389 L 91.8404 8.78362 L 91.9832 4.66352 L 92.0894 1.31046 L 92.8222 1.15855 L 94.6889 0.777439 L 95.0568 0.701871 L 95.1815 0.676441 L 96.732 0.730248 L 107.227 1.09174 L 107.698 1.15002 L 109.561 1.38726 L 109.477 3.78737 L 109.328 8.05648 L 107.739 10.351 L 107.07 11.26 L 105.518 12.1504 L 105.209 12.3161Z " fill-rule="evenodd" fill="rgb(220,220,220)" stroke="rgb(255,0,0)" />

<text x="90.6073" y="8.71025" fill="rgb(0,0,0)" style="font:5pt Times New Roman">11.1</text>

<path d="M 75.4396 11.216 L 75.4396 11.216 L 74.2273 11.7696 L 71.591 11.7557 L 68.1481 11.7376 L 67.2558 11.4981 L 64.0219 10.7376 L 63.686 10.4157 L 63.5613 10.2958 L 63.3731 10.1207 L 62.9794 9.74613 L 61.4783 8.26988 L 61.4796 7.89128 L 61.4802 7.62216 L 61.5064 5.48534 L 61.531 3.25915 L 61.5344 3.06549 L 61.5379 2.84807 L 63.9249 1.59201 L 65.1463 0.95136 L 65.2278 0.909042 L 65.3318 0.854484 L 65.8365 0.862528 L 77.9802 1.05785 L 78.4798 2.0883 L 78.9038 3.05064 L 78.8386 6.27372 L 78.8087 7.75021 L 78.3556 8.34097 L 76.4269 10.8027Z " fill-rule="evenodd" fill="rgb(220,220,220)" stroke="rgb(255,0,0)" />

<text x="62.6979" y="9.07842" fill="rgb(0,0,0)" style="font:5pt Times New Roman">11.2</text>

<path d="M 134.329 11.1744 L 134.329 11.1744 L 132.818 11.3101 L 129.334 11.4736 L 128.981 11.3571 L 128.281 11.1029 L 126.666 10.4989 L 124.561 8.47804 L 123.994 7.91894 L 124.021 7.33039 L 124.062 6.13787 L 124.141 4.02019 L 124.17 2.94703 L 125.708 2.00997 L 126.929 1.21513 L 130.935 1.15065 L 138.472 1.03013 L 139.369 1.62932 L 141.174 2.84071 L 141.017 7.42601 L 141.003 7.84106 L 140.869 7.96031 L 140.047 8.7377 L 138.618 10.0787 L 138.374 10.3107 L 138.177 10.4219 L 136.857 11.0101 L 134.829 11.1476Z " fill-rule="evenodd" fill="rgb(220,220,220)" stroke="rgb(255,0,0)" />

<text x="122.936" y="8.47053" fill="rgb(0,0,0)" style="font:5pt Times New Roman">11.3</text>

</svg>