<?xml version="1.0"?>
<svg version="1.0" xmlns="http://www.w3.org/2000/svg" width="175pt" height="37pt" viewBox="0 0 175 37">

<path d="M 108.032 9.75877 L 108.032 9.75877 L 106.871 11.4479 L 106.767 11.6007 L 106.593 11.7268 L 105.053 12.7746 L 101.933 12.7751 L 97.0402 12.7758 L 94.8454 11.967 L 93.9534 11.6148 L 92.1628 9.93652 L 91.2263 9.05334 L 91.3291 6.72737 L 91.4147 4.69765 L 91.4876 3.05959 L 91.56 1.34506 L 93.8541 0.884343 L 94.6547 0.723154 L 96.1562 0.772639 L 101.927 0.974594 L 107.314 1.16005 L 108.548 1.30372 L 109.401 1.40863 L 109.179 7.70103 L 109.165 8.11177 L 109.086 8.2253Z " fill-rule="evenodd" fill="rgb(220,220,220)" stroke="rgb(255,0,0)" />

<text x="90.1412" y="8.96477" fill="rgb(0,0,0)" style="font:5pt Times New Roman">12.1</text>

<path d="M 75.3179 11.9636 L 75.3179 11.9636 L 74.8039 12.1982 L 70.638 12.1764 L 68.4507 12.1649 L 66.6259 11.6509 L 64.8119 11.1674 L 63.1879 9.5904 L 62.157 8.60425 L 62.1577 7.89191 L 62.1573 6.94923 L 62.153 4.75151 L 62.147 2.9331 L 63.8641 1.94291 L 65.617 0.911016 L 72.9608 1.03777 L 78.6234 1.15199 L 79.1644 2.44896 L 79.2785 2.72788 L 79.2424 4.28987 L 79.1582 7.92596 L 78.1046 9.49269 L 76.8727 11.2307Z " fill-rule="evenodd" fill="rgb(220,220,220)" stroke="rgb(255,0,0)" />

<text x="63.2279" y="9.3417" fill="rgb(0,0,0)" style="font:5pt Times New Roman">12.2</text>

<path d="M 134.838 11.9097 L 134.838 11.9097 L 134.293 11.9185 L 133.97 11.9029 L 132.799 11.8465 L 130.438 11.7729 L 129.55 11.7452 L 129.473 11.7464 L 128.256 11.766 L 125.773 11.0775 L 125.399 10.9736 L 125.234 10.8024 L 122.682 8.04787 L 122.849 5.26583 L 122.961 3.00417 L 123.645 2.65557 L 125.932 1.39758 L 126.115 1.39466 L 126.607 1.38646 L 134.246 1.2689 L 137.625 1.22789 L 139.77 2.58628 L 140.24 2.89217 L 140.193 4.37579 L 140.079 8.08484 L 138.391 9.83773 L 137.293 11.032 L 136.736 11.3899 L 135.981 11.8914 L 135.275 11.9027Z " fill-rule="evenodd" fill="rgb(220,220,220)" stroke="rgb(255,0,0)" />

<text x="123.474" y="9.3271" fill="rgb(0,0,0)" style="font:5pt Times New Roman">12.3</text>

</svg>