<?xml version="1.0"?>
<svg version="1.0" xmlns="http://www.w3.org/2000/svg" width="175pt" height="37pt" viewBox="0 0 175 37">

<path d="M 109.207 2.16619 L 109.207 2.16619 L 108.988 8.1671 L 107.331 10.5992 L 106.427 11.9415 L 105.96 12.3138 L 104.897 13.2331 L 101.91 13.2336 L 98.3707 13.2341 L 96.5424 13.2344 L 95.3344 12.7386 L 93.5264 11.9557 L 91.9653 10.5142 L 91.1501 9.78527 L 90.6647 9.32308 L 90.7515 7.65597 L 90.8145 6.40015 L 90.9198 4.2564 L 91.0542 1.40413 L 91.3517 1.34606 L 94.0197 0.827726 L 94.1123 0.809794 L 94.1273 0.806835 L 105.635 1.18938 L 106.425 1.21538 L 107.401 1.24761 L 109.159 1.44339 L 109.232 1.45199Z " fill-rule="evenodd" fill="rgb(220,220,220)" stroke="rgb(255,0,0)" />

<text x="89.3698" y="9.23761" fill="rgb(0,0,0)" style="font:5pt Times New Roman">13.1</text>

<path d="M 75.5574 12.5437 L 75.5574 12.5437 L 75.3807 12.6269 L 73.3178 12.6161 L 68.7533 12.5921 L 66.5588 11.9522 L 65.7635 11.7203 L 65.3197 11.5957 L 64.4315 10.7251 L 62.6087 8.93747 L 62.6265 6.82308 L 62.6502 3.37147 L 62.6514 3.16957 L 62.652 3.04226 L 62.8658 2.9155 L 64.9366 1.68406 L 66.0953 1.02565 L 76.0959 1.19798 L 78.9973 1.2463 L 79.6481 2.40627 L 79.6551 2.42066 L 79.6524 2.52875 L 79.512 8.10279 L 77.9084 10.7995 L 77.3776 11.659Z " fill-rule="evenodd" fill="rgb(220,220,220)" stroke="rgb(255,0,0)" />

<text x="61.5053" y="9.0395" fill="rgb(0,0,0)" style="font:5pt Times New Roman">13.2</text>

<path d="M 129.583 12.2575 L 129.583 12.2575 L 128.12 12.281 L 127.166 12.2963 L 126.556 12.0553 L 124.757 11.4391 L 122.7 9.38571 L 121.829 8.54928 L 121.451 8.17803 L 121.496 7.35656 L 121.599 5.80941 L 121.783 3.08921 L 122.756 2.64854 L 123.449 2.32122 L 124.192 1.98439 L 124.935 1.61632 L 131.721 1.50783 L 133.966 1.47111 L 136.777 1.42593 L 138.797 2.59257 L 139.423 2.97257 L 139.334 5.74836 L 139.251 8.33364 L 137.32 10.3217 L 136.451 11.2519 L 135.753 11.731 L 135.134 12.1684 L 133.006 12.2026Z " fill-rule="evenodd" fill="rgb(220,220,220)" stroke="rgb(255,0,0)" />

<text x="122.427" y="9.62504" fill="rgb(0,0,0)" style="font:5pt Times New Roman">13.3</text>

</svg>