<?xml version="1.0"?>
<svg version="1.0" xmlns="http://www.w3.org/2000/svg" width="175pt" height="37pt" viewBox="0 0 175 37">

<path d="M 108.567 8.83105 L 108.567 8.83105 L 106.495 12.328 L 105.769 13.0502 L 104.714 14.146 L 101.71 14.1465 L 96.0161 14.1474 L 95.283 13.6891 L 93.6134 12.6454 L 93.3154 12.4366 L 92.1015 11.3864 L 90.4886 9.99114 L 90.0297 9.59279 L 90.1401 6.42401 L 90.2548 2.89921 L 90.2975 2.22979 L 90.345 1.45848 L 92.4257 1.09789 L 93.6 0.883901 L 97.962 1.11708 L 104.733 1.45343 L 106.343 1.53654 L 107.502 1.59228 L 107.716 1.6143 L 109.147 1.75104 L 109.137 2.15944 L 108.935 8.22206 L 108.834 8.3697Z " fill-rule="evenodd" fill="rgb(220,220,220)" stroke="rgb(255,0,0)" />

<text x="91.04" y="10.2886" fill="rgb(0,0,0)" style="font:5pt Times New Roman">14.1</text>

<path d="M 63.0283 3.13592 L 63.0283 3.13592 L 63.7724 2.72229 L 66.7604 1.12523 L 70.0391 1.18264 L 74.852 1.26481 L 79.7646 1.34817 L 80.0396 1.8524 L 79.9515 7.33118 L 79.9581 8.27995 L 79.4806 9.18174 L 77.9047 12.1243 L 77.3803 12.391 L 75.8072 13.4686 L 70.1827 13.2762 L 68.9783 13.2629 L 68.4154 13.015 L 66.7296 12.3892 L 65.7297 12.0886 L 64.3212 10.6351 L 62.9464 9.27012 L 62.9682 7.81561 L 63.0026 5.2373 L 63.0199 3.89151Z " fill-rule="evenodd" fill="rgb(220,220,220)" stroke="rgb(255,0,0)" />

<text x="62.9342" y="9.51352" fill="rgb(0,0,0)" style="font:5pt Times New Roman">14.2</text>

<path d="M 137.861 9.24161 L 137.861 9.24161 L 136.141 11.1465 L 135.609 11.7206 L 134.695 12.3821 L 134.275 12.6951 L 130.937 12.7487 L 126.617 12.818 L 126.298 12.8232 L 126.076 12.8267 L 125.92 12.7562 L 123.97 11.9069 L 122.176 9.90185 L 120.87 8.30826 L 121.033 3.38628 L 121.037 3.2753 L 121.04 3.16446 L 121.366 3.01277 L 123.938 1.81903 L 126.309 1.78234 L 130.154 1.72972 L 135.929 1.63554 L 137.224 2.28612 L 138.652 3.04996 L 138.481 8.03242 L 138.463 8.58451 L 138.323 8.73285Z " fill-rule="evenodd" fill="rgb(220,220,220)" stroke="rgb(255,0,0)" />

<text x="120.709" y="10.0129" fill="rgb(0,0,0)" style="font:5pt Times New Roman">14.3</text>

</svg>