<?xml version="1.0"?>
<svg version="1.0" xmlns="http://www.w3.org/2000/svg" width="175pt" height="37pt" viewBox="0 0 175 37">

<path d="M 90.255 1.52948 L 90.255 1.52948 L 91.9181 1.18822 L 93.0726 0.964639 L 98.6096 1.31295 L 102.791 1.54415 L 107.594 1.81617 L 108.345 1.8781 L 108.972 1.93111 L 108.842 4.58738 L 108.65 8.27771 L 107.878 9.86071 L 106.384 12.6865 L 104.673 14.1233 L 104.581 14.2173 L 104.276 14.2096 L 103.336 14.1921 L 101.114 14.1507 L 95.5467 14.1515 L 94.2334 13.2736 L 93.3962 12.6367 L 91.3403 10.8975 L 89.9086 9.64561 L 89.9952 7.8051 L 90.1127 4.9809 L 90.1992 2.96302Z " fill-rule="evenodd" fill="rgb(220,220,220)" stroke="rgb(255,0,0)" />

<text x="90.896" y="10.3635" fill="rgb(0,0,0)" style="font:5pt Times New Roman">15.1</text>

<path d="M 63.347 5.87222 L 63.347 5.87222 L 63.3649 3.23589 L 66.0269 1.8888 L 67.3148 1.23291 L 69.1076 1.26419 L 71.3555 1.30294 L 78.5989 1.42797 L 79.8498 1.44781 L 80.6243 1.45353 L 80.7016 8.20822 L 80.7019 8.24883 L 80.686 8.28349 L 78.6969 12.515 L 77.1633 13.5254 L 76.3124 14.0941 L 74.8926 14.0866 L 69.1388 14.0564 L 68.7848 13.8729 L 66.2176 12.6292 L 65.9688 12.3667 L 64.9377 11.2924 L 63.3155 9.60293Z " fill-rule="evenodd" fill="rgb(220,220,220)" stroke="rgb(255,0,0)" />

<text x="64.5167" y="10.4179" fill="rgb(0,0,0)" style="font:5pt Times New Roman">15.2</text>

<path d="M 135.284 11.6867 L 135.284 11.6867 L 134.935 12.0645 L 134.829 12.1883 L 133.654 13.052 L 133.416 13.225 L 128.111 13.3181 L 124.977 13.5258 L 123.306 12.8002 L 122.923 12.6281 L 120.778 9.53303 L 120.012 8.44071 L 120.155 5.46315 L 120.247 3.23943 L 122.757 2.10979 L 122.941 2.0252 L 127.806 1.95907 L 135.081 1.8527 L 135.619 2.08371 L 137.9 3.13305 L 137.775 6.48346 L 137.68 9.06049 L 137.147 9.63579Z " fill-rule="evenodd" fill="rgb(220,220,220)" stroke="rgb(255,0,0)" />

<text x="119.892" y="9.9028" fill="rgb(0,0,0)" style="font:5pt Times New Roman">15.3</text>

</svg>