<?xml version="1.0"?>
<svg version="1.0" xmlns="http://www.w3.org/2000/svg" width="175pt" height="37pt" viewBox="0 0 175 37">

<path d="M 165.838 6.65903 L 165.838 6.65903 L 165.484 6.57526 L 164.879 6.48496 L 164.621 6.42333 L 164.564 6.43192 L 164.16 6.61841 L 163.774 6.52207 L 162.41 6.12107 L 161.72 5.8769 L 161.97 4.51497 L 162.235 3.17134 L 162.648 2.90731 L 163.606 2.24524 L 165.134 1.22844 L 165.681 0.792296 L 166.575 0.954351 L 167.348 1.09214 L 172.288 1.73999 L 172.392 1.79995 L 172.995 2.15191 L 173.167 3.42989 L 173.371 4.99248 L 173.071 5.18957 L 170.761 6.6781 L 170.348 6.73935 L 170.234 6.74102 L 167.56 6.75794 L 167.125 6.73958Z " fill-rule="evenodd" fill="rgb(220,220,220)" stroke="rgb(255,0,0)" />

<text x="158.461" y="5.99599" fill="rgb(0,0,0)" style="font:5pt Times New Roman">16.1</text>

<path d="M 103.521 14.6003 L 103.521 14.6003 L 95.6416 14.61 L 95.2602 14.3199 L 93.3783 12.9771 L 91.8833 11.6401 L 89.9197 9.56883 L 89.9278 6.36325 L 90.1516 1.58644 L 90.209 1.57206 L 91.2657 1.32596 L 92.4556 1.04778 L 92.5455 1.02826 L 102.731 1.72719 L 107.685 2.04527 L 108.272 2.08916 L 108.498 2.10695 L 108.436 3.16468 L 108.35 4.55689 L 108.218 6.71349 L 108.117 8.3341 L 107.078 10.905 L 106.608 12.0659 L 106.191 13.0277 L 106.089 13.1099 L 104.102 14.6001Z " fill-rule="evenodd" fill="rgb(220,220,220)" stroke="rgb(255,0,0)" />

<text x="89.6662" y="10.0318" fill="rgb(0,0,0)" style="font:5pt Times New Roman">16.2</text>

<path d="M 77.1075 13.9221 L 77.1075 13.9221 L 72.0944 14.0557 L 71.0176 14.0844 L 70.7811 14.091 L 69.5708 14.1247 L 68.7146 13.7143 L 66.8234 12.9799 L 65.6056 11.8118 L 64.7663 10.9204 L 63.8393 9.93651 L 63.8676 7.59997 L 63.9048 4.11746 L 63.9102 3.63449 L 63.913 3.34007 L 64.2476 3.16894 L 67.8296 1.33444 L 71.9229 1.40318 L 81.3165 1.55823 L 81.3166 1.57555 L 81.3296 8.14716 L 80.2676 10.515 L 79.6233 11.9279 L 79.3076 12.6907 L 77.3364 13.7893 L 77.139 13.9Z " fill-rule="evenodd" fill="rgb(220,220,220)" stroke="rgb(255,0,0)" />

<text x="63.9894" y="10.4807" fill="rgb(0,0,0)" style="font:5pt Times New Roman">16.3</text>

<path d="M 130.233 14.0449 L 130.233 14.0449 L 126.792 14.2196 L 125.24 14.306 L 124.415 14.352 L 124.372 14.3526 L 123.872 14.3607 L 123.547 14.1943 L 121.828 13.3232 L 119.882 10.0997 L 118.993 8.57065 L 119.054 7.63592 L 119.165 5.78203 L 119.258 4.20284 L 119.306 3.32577 L 120.817 2.67749 L 121.844 2.24556 L 126.714 2.17515 L 134.233 2.06647 L 134.248 2.07178 L 137.153 3.21422 L 137.026 6.37247 L 136.909 9.29585 L 136.42 9.85777 L 134.565 12.1177 L 134.225 12.5261 L 134.123 12.6657 L 133.004 13.5259 L 132.551 13.8681 L 130.89 14.0116Z " fill-rule="evenodd" fill="rgb(220,220,220)" stroke="rgb(255,0,0)" />

<text x="118.978" y="10.43" fill="rgb(0,0,0)" style="font:5pt Times New Roman">16.4</text>

</svg>