<?xml version="1.0"?>
<svg version="1.0" xmlns="http://www.w3.org/2000/svg" width="175pt" height="37pt" viewBox="0 0 175 37">

<path d="M 163.609 7.5329 L 163.609 7.5329 L 163.369 7.47599 L 163.126 7.57226 L 162.694 7.7726 L 162.653 7.77881 L 162.313 7.79059 L 161.055 7.77071 L 159.231 6.8236 L 158.361 6.31075 L 158.514 5.27733 L 158.802 3.27909 L 158.821 3.26642 L 158.872 3.2342 L 162.096 1.17577 L 163.686 0.228496 L 165.9 0.153389 L 168.455 0.118733 L 168.558 0.0991885 L 168.798 0.135036 L 171.373 1.37947 L 173.892 2.57551 L 173.993 5.3307 L 174.003 5.64846 L 173.923 5.70135 L 173.401 6.03891 L 172.496 6.66696 L 172.28 6.70164 L 172.164 6.73303 L 170.821 7.11142 L 170.205 7.24416 L 169.402 7.36792 L 167.985 7.57809 L 166.41 7.60113 L 165.308 7.6081 L 163.781 7.54367Z " fill-rule="evenodd" fill="rgb(220,220,220)" stroke="rgb(255,0,0)" />

<text x="158.185" y="6.16062" fill="rgb(0,0,0)" style="font:5pt Times New Roman">17.1</text>

<path d="M 96.0189 15.0684 L 96.0189 15.0684 L 93.3776 13.4057 L 93.2544 13.3176 L 92.7968 12.7847 L 89.8649 9.15478 L 89.9927 5.53517 L 90.0747 1.65626 L 90.6026 1.49719 L 92.0181 1.11432 L 103.261 2.0024 L 106.735 2.2761 L 107.778 2.35146 L 108.018 2.36065 L 108.043 2.36263 L 108.009 3.06741 L 107.774 8.38992 L 107.035 10.4093 L 105.915 13.3676 L 104.248 14.7325 L 103.811 15.0605 L 96.8671 15.0673Z " fill-rule="evenodd" fill="rgb(220,220,220)" stroke="rgb(255,0,0)" />

<text x="92.0076" y="11.3871" fill="rgb(0,0,0)" style="font:5pt Times New Roman">17.2</text>

<path d="M 67.5992 13.3103 L 67.5992 13.3103 L 64.7465 10.6576 L 64.3465 10.27 L 64.3872 7.4693 L 64.4373 3.6932 L 64.4393 3.55158 L 64.4406 3.45002 L 64.6329 3.3515 L 68.3446 1.44916 L 76.3904 1.58917 L 81.9015 1.68072 L 81.9949 4.20895 L 82.1087 7.82731 L 81.2058 10.0191 L 79.9275 12.9026 L 78.929 13.4936 L 77.5432 14.3409 L 75.209 14.3286 L 70.4092 14.3034 L 70.1319 14.2083 L 68.0896 13.4841 L 67.6545 13.3305Z " fill-rule="evenodd" fill="rgb(220,220,220)" stroke="rgb(255,0,0)" />

<text x="66.2802" y="10.6508" fill="rgb(0,0,0)" style="font:5pt Times New Roman">17.3</text>

<path d="M 133.33 13.6258 L 133.33 13.6258 L 133.293 13.651 L 131.98 14.5297 L 131.675 14.7483 L 129.002 14.7912 L 128.775 14.7948 L 128.313 14.7876 L 125.8 14.7483 L 122.791 14.7124 L 120.706 13.5736 L 120.7 13.57 L 120.686 13.5629 L 120.682 13.5604 L 120.615 13.4511 L 117.795 8.69777 L 117.915 7.60193 L 117.996 6.83607 L 118.161 4.49972 L 118.232 3.41065 L 119.718 2.77309 L 120.431 2.46619 L 129.437 2.34342 L 133.408 2.28708 L 135.746 3.08279 L 136.378 3.30395 L 136.318 4.67688 L 136.087 9.54692 L 135.595 10.1725 L 133.377 13.5916 L 133.366 13.5999Z " fill-rule="evenodd" fill="rgb(220,220,220)" stroke="rgb(255,0,0)" />

<text x="118.582" y="11.279" fill="rgb(0,0,0)" style="font:5pt Times New Roman">17.4</text>

</svg>