<?xml version="1.0"?>
<svg version="1.0" xmlns="http://www.w3.org/2000/svg" width="175pt" height="37pt" viewBox="0 0 175 37">

<path d="M 164.574 8.43215 L 164.574 8.43215 L 163.8 8.68355 L 163.741 8.71443 L 162.993 8.75606 L 162.165 8.80672 L 160.845 8.78148 L 158.837 8.71465 L 157.173 7.67818 L 155.762 6.74055 L 155.955 5.3455 L 156.165 3.77862 L 156.86 3.30069 L 158.478 2.23527 L 159.967 1.24467 L 160.697 0.749764 L 163.898 0.574991 L 168.212 0.32008 L 171.048 1.59817 L 173.392 2.7181 L 173.371 4.53025 L 173.335 6.32237 L 172.941 6.62382 L 172.726 6.80506 L 172.476 7.03896 L 171.843 7.56293 L 171.649 7.60616 L 171.388 7.25123 L 171.034 6.98325 L 170.921 7.33791 L 170.827 7.35301 L 169.887 7.60707 L 169.424 7.73753 L 167.876 8.0708 L 165.86 8.3815 L 165.622 8.41682Z " fill-rule="evenodd" fill="rgb(220,220,220)" stroke="rgb(255,0,0)" />

<text x="155.543" y="6.7849" fill="rgb(0,0,0)" style="font:5pt Times New Roman">18.1</text>

<path d="M 71.3338 14.7339 L 71.3338 14.7339 L 69.714 14.1952 L 68.3932 13.7401 L 66.9174 12.4547 L 65.709 11.3657 L 64.8646 10.6036 L 64.912 7.63947 L 64.972 3.55808 L 66.0636 2.99453 L 68.8594 1.55176 L 70.1139 1.57263 L 72.5141 1.61295 L 80.2125 1.74172 L 82.4001 1.77786 L 82.4325 1.77642 L 82.4533 2.99361 L 82.4162 4.56488 L 82.411 5.44514 L 82.3801 6.30445 L 82.371 7.52404 L 81.8381 8.90636 L 80.4075 13.1138 L 79.3513 13.8063 L 77.9552 14.7687 L 75.5264 14.7559 L 73.536 14.7455Z " fill-rule="evenodd" fill="rgb(220,220,220)" stroke="rgb(255,0,0)" />

<text x="66.711" y="10.9311" fill="rgb(0,0,0)" style="font:5pt Times New Roman">18.2</text>

<path d="M 122.088 14.9548 L 122.088 14.9548 L 121.814 14.9563 L 121.724 14.9584 L 121.672 14.9304 L 119.609 13.7976 L 116.824 9.26239 L 116.423 8.60884 L 116.477 8.01662 L 116.55 7.2174 L 116.793 5.11235 L 116.904 3.5015 L 117.598 3.23328 L 119.018 2.68772 L 120.314 2.6695 L 122.294 2.64115 L 128.094 2.55707 L 132.702 2.49464 L 134.4 3.04136 L 135.443 3.38032 L 135.303 5.90211 L 135.084 9.61553 L 134.324 10.7743 L 132.361 13.856 L 131.834 14.2452 L 131.489 14.511 L 130.829 15.0027 L 128.416 14.9141Z " fill-rule="evenodd" fill="rgb(220,220,220)" stroke="rgb(255,0,0)" />

<text x="117.392" y="11.4868" fill="rgb(0,0,0)" style="font:5pt Times New Roman">18.3</text>

<path d="M 92.0537 12.131 L 92.0537 12.131 L 89.7725 8.70798 L 89.8597 7.17086 L 89.9768 4.44651 L 90.0682 2.6698 L 90.1039 1.71331 L 91.192 1.27984 L 91.491 1.17852 L 94.7873 1.46938 L 107.786 2.6876 L 107.61 6.32798 L 107.513 8.4455 L 107.161 9.41041 L 105.655 13.7083 L 103.654 15.4169 L 103.532 15.5214 L 103.469 15.5215 L 102.783 15.522 L 96.856 15.5264 L 96.4216 15.5268 L 93.267 13.7561 L 93.1103 13.6582Z " fill-rule="evenodd" fill="rgb(220,220,220)" stroke="rgb(255,0,0)" />

<text x="91.8326" y="11.6806" fill="rgb(0,0,0)" style="font:5pt Times New Roman">18.4</text>

</svg>