<?xml version="1.0"?>
<svg version="1.0" xmlns="http://www.w3.org/2000/svg" width="175pt" height="37pt" viewBox="0 0 175 37">

<path d="M 163.724 9.48584 L 163.724 9.48584 L 162.26 9.59202 L 159.599 9.81426 L 159.239 9.81752 L 159.098 9.81984 L 157.153 9.99546 L 155.496 8.78403 L 153.468 7.16872 L 153.671 5.61455 L 153.842 4.2748 L 154.576 3.70893 L 155.743 2.86277 L 157.097 1.86037 L 157.981 1.2429 L 162.435 0.981223 L 166.587 0.727194 L 170.111 2.24691 L 172.013 3.05918 L 171.95 4.37102 L 171.866 5.87288 L 171.86 5.99486 L 171.854 6.15126 L 171.896 6.81968 L 171.636 7.04216 L 169.719 8.4974 L 169.458 8.55057 L 169.323 8.58344 L 169.127 8.61482 L 168.305 8.89381 L 167.084 9.18333 L 166.901 9.2083 L 166.7 9.20881 L 166.233 9.23649 L 165.542 9.31502Z " fill-rule="evenodd" fill="rgb(220,220,220)" stroke="rgb(255,0,0)" />

<text x="154.238" y="8.16659" fill="rgb(0,0,0)" style="font:5pt Times New Roman">19.1</text>

<path d="M 101.238 15.9836 L 101.238 15.9836 L 96.8244 15.9852 L 94.2376 14.6325 L 92.9662 13.9988 L 91.7941 11.6982 L 89.942 8.27253 L 89.9597 8.09248 L 89.9841 7.79344 L 90.269 4.31192 L 90.4387 1.78775 L 90.5233 1.65919 L 90.9346 1.28216 L 100.115 2.24211 L 104.862 2.76006 L 106.07 2.89249 L 107.595 3.04203 L 107.529 4.3442 L 107.322 8.50087 L 106.515 10.9619 L 105.483 14.0489 L 103.61 15.6754 L 103.252 15.9824Z " fill-rule="evenodd" fill="rgb(220,220,220)" stroke="rgb(255,0,0)" />

<text x="90.776" y="11.3755" fill="rgb(0,0,0)" style="font:5pt Times New Roman">19.2</text>

<path d="M 80.2011 13.6463 L 80.2011 13.6463 L 78.3691 15.1911 L 74.1936 15.173 L 72.2592 15.1627 L 70.1179 14.4802 L 69.1872 14.1699 L 66.7796 12.1138 L 65.4163 10.9373 L 65.4283 10.118 L 65.4479 8.64635 L 65.5016 5.4604 L 65.5297 3.66374 L 67.4465 2.66989 L 69.4203 1.66169 L 79.5469 1.88196 L 82.7056 1.97528 L 82.8519 6.35317 L 82.8718 7.22085 L 82.3283 9.12704 L 80.6932 13.2887Z " fill-rule="evenodd" fill="rgb(220,220,220)" stroke="rgb(255,0,0)" />

<text x="65.5522" y="10.6389" fill="rgb(0,0,0)" style="font:5pt Times New Roman">19.3</text>

<path d="M 127.381 15.2004 L 127.381 15.2004 L 123.081 15.2886 L 120.913 15.3495 L 119.852 14.8045 L 118.844 14.2651 L 116.398 10.2116 L 115.556 8.79225 L 115.642 7.79139 L 115.741 6.61801 L 115.89 4.90545 L 116.004 3.58868 L 116.687 3.28853 L 117.605 2.91256 L 121.268 2.8614 L 132.002 2.72637 L 132.191 2.78761 L 134.351 3.48279 L 133.971 9.20825 L 133.94 9.67676 L 133.891 9.75258 L 133.77 9.93103 L 131.905 12.7251 L 131.15 13.9249 L 130.107 14.6864 L 129.497 15.1661 L 128.671 15.1708Z " fill-rule="evenodd" fill="rgb(220,220,220)" stroke="rgb(255,0,0)" />

<text x="116.431" y="11.7814" fill="rgb(0,0,0)" style="font:5pt Times New Roman">19.4</text>

</svg>