<?xml version="1.0"?>
<svg version="1.0" xmlns="http://www.w3.org/2000/svg" width="175pt" height="37pt" viewBox="0 0 175 37">

<path d="M 164.567 10.1249 L 164.567 10.1249 L 164.515 10.1293 L 161.855 10.4813 L 160.523 10.7256 L 160.096 10.7394 L 159.441 10.7581 L 157.033 10.8369 L 156.839 10.8092 L 155.585 10.557 L 153.295 8.80025 L 151.678 7.5942 L 151.775 6.76663 L 151.893 5.74534 L 151.947 5.19935 L 151.993 4.72242 L 153.146 3.67072 L 154.687 2.35107 L 155.074 2.01203 L 155.434 1.72162 L 158.617 1.5788 L 164.853 1.17151 L 165.192 1.31802 L 167.887 2.47677 L 170.234 3.50808 L 169.946 5.85163 L 169.771 7.17584 L 168.813 8.31205 L 167.807 9.58667 L 167.608 9.61164 L 167.475 9.63771 L 166.472 9.87849 L 164.642 10.1194Z " fill-rule="evenodd" fill="rgb(220,220,220)" stroke="rgb(255,0,0)" />

<text x="153.49" y="8.21852" fill="rgb(0,0,0)" style="font:5pt Times New Roman">20.1</text>

<path d="M 90.4542 2.95775 L 90.4542 2.95775 L 90.5568 1.75646 L 90.5921 1.6909 L 101.739 2.78712 L 107.484 3.34416 L 107.211 8.47611 L 107.207 8.55602 L 105.535 14.1445 L 105.466 14.3893 L 105.388 14.4499 L 102.973 16.4434 L 99.6863 16.4434 L 97.2271 16.4437 L 96.6771 16.1721 L 92.7663 14.3394 L 91.0676 10.2306 L 89.9843 7.91808 L 90.1125 6.59453 L 90.3331 4.43994Z " fill-rule="evenodd" fill="rgb(220,220,220)" stroke="rgb(255,0,0)" />

<text x="91.2387" y="11.811" fill="rgb(0,0,0)" style="font:5pt Times New Roman">20.2</text>

<path d="M 79.0924 15.3595 L 79.0924 15.3595 L 78.7795 15.6234 L 73.9248 15.598 L 73.1833 15.5946 L 70.2271 14.7251 L 69.8336 14.5989 L 66.7916 11.967 L 65.9872 11.2711 L 66.0408 8.82743 L 66.1196 5.03753 L 66.1344 4.2298 L 66.1425 3.75687 L 66.5752 3.5332 L 69.9992 1.75512 L 74.4552 1.93146 L 83.5298 2.35165 L 83.5583 6.15959 L 83.5528 7.01932 L 83.3721 7.60895 L 82.5413 10.4736 L 81.443 13.4541Z " fill-rule="evenodd" fill="rgb(220,220,220)" stroke="rgb(255,0,0)" />

<text x="65.7453" y="10.903" fill="rgb(0,0,0)" style="font:5pt Times New Roman">20.3</text>

<path d="M 120.155 15.7404 L 120.155 15.7404 L 118.478 14.9073 L 118.122 14.7318 L 117.846 14.2427 L 117.179 13.0774 L 114.828 8.97321 L 115.022 7.04621 L 115.237 4.89365 L 115.254 4.71573 L 115.342 3.69858 L 115.936 3.38417 L 116.197 3.24678 L 125.451 2.9919 L 131.302 2.91591 L 132.602 3.36724 L 133.146 3.55037 L 132.996 5.59231 L 132.681 9.73202 L 131.679 11.3395 L 129.993 14.2199 L 129.431 14.6052 L 128.545 15.2129 L 128.095 15.5086 L 123.587 15.6249Z " fill-rule="evenodd" fill="rgb(220,220,220)" stroke="rgb(255,0,0)" />

<text x="115.957" y="12.0809" fill="rgb(0,0,0)" style="font:5pt Times New Roman">20.4</text>

</svg>