<?xml version="1.0"?>
<svg version="1.0" xmlns="http://www.w3.org/2000/svg" width="175pt" height="37pt" viewBox="0 0 175 37">

<path d="M 162.056 11.0472 L 162.056 11.0472 L 161.891 11.0527 L 161.29 11.0637 L 160.917 11.0706 L 159.141 11.1355 L 158.855 11.1534 L 157.457 11.2721 L 154.593 11.5151 L 154.543 11.5194 L 154.461 11.5263 L 154.423 11.5148 L 153.507 11.231 L 149.737 8.3874 L 149.275 8.02295 L 149.352 7.62093 L 149.463 7.01495 L 149.651 5.95145 L 149.779 5.20465 L 150.847 4.17921 L 152.531 2.56332 L 152.753 2.34768 L 152.902 2.20691 L 159.276 1.84272 L 163.07 1.62567 L 163.22 1.68656 L 163.326 1.73167 L 165.261 2.55561 L 168.523 3.94542 L 168.512 4.03204 L 168.437 4.55955 L 168.144 6.63929 L 168.016 7.60973 L 167.082 9.01361 L 166.133 10.6205 L 165.63 10.7182 L 165.392 10.7422 L 163.634 10.9015 L 162.384 11.0379Z " fill-rule="evenodd" fill="rgb(220,220,220)" stroke="rgb(255,0,0)" />

<text x="150.34" y="8.79162" fill="rgb(0,0,0)" style="font:5pt Times New Roman">21.1</text>

<path d="M 131.191 10.0149 L 131.191 10.0149 L 130.085 11.9533 L 128.756 14.5148 L 128.156 14.909 L 126.707 15.8598 L 120.461 16.0852 L 119.397 16.1313 L 118.206 15.5603 L 117.352 15.1994 L 114.941 10.8581 L 114.009 9.15577 L 114.119 8.26595 L 114.234 7.20307 L 114.405 5.66377 L 114.567 4.17678 L 114.75 3.99347 L 114.813 3.94731 L 129.231 3.21401 L 130.601 3.12844 L 130.66 3.15526 L 131.837 3.64107 L 131.426 8.54162 L 131.322 9.78206Z " fill-rule="evenodd" fill="rgb(220,220,220)" stroke="rgb(255,0,0)" />

<text x="117.031" y="12.3909" fill="rgb(0,0,0)" style="font:5pt Times New Roman">21.2</text>

<path d="M 83.0572 10.2517 L 83.0572 10.2517 L 82.1663 13.4015 L 82.1305 13.5288 L 82.1227 13.5816 L 82.0664 13.7245 L 81.9566 13.8249 L 79.1872 16.0632 L 77.8291 16.0557 L 74.1067 16.0286 L 72.2655 15.5875 L 70.1857 15.0264 L 68.618 13.6267 L 66.3481 11.6039 L 66.3847 10.4518 L 66.4299 8.98091 L 66.5152 6.01464 L 66.5746 3.86918 L 67.6179 3.32536 L 70.5141 1.86306 L 77.9655 2.32141 L 84.2097 2.68871 L 84.1168 6.21002 L 84.0894 6.80356Z " fill-rule="evenodd" fill="rgb(220,220,220)" stroke="rgb(255,0,0)" />

<text x="66.218" y="11.1782" fill="rgb(0,0,0)" style="font:5pt Times New Roman">21.3</text>

<path d="M 103.571 3.54055 L 103.571 3.54055 L 107.48 3.96783 L 107.231 8.18436 L 107.206 8.61083 L 105.97 13.1533 L 105.554 14.7296 L 104.913 15.1964 L 102.694 16.9043 L 100.863 16.8969 L 97.4039 16.8854 L 95.4613 16.0263 L 92.5024 14.6801 L 91.8872 12.8937 L 91.7483 12.4749 L 91.4425 11.5676 L 89.9025 7.60861 L 89.999 6.52358 L 90.4449 2.00107 L 94.5378 2.47624Z " fill-rule="evenodd" fill="rgb(220,220,220)" stroke="rgb(255,0,0)" />

<text x="91.743" y="12.2024" fill="rgb(0,0,0)" style="font:5pt Times New Roman">21.4</text>

</svg>