<?xml version="1.0"?>
<svg version="1.0" xmlns="http://www.w3.org/2000/svg" width="175pt" height="37pt" viewBox="0 0 175 37">

<path d="M 159.879 11.7058 L 159.879 11.7058 L 159.738 11.7178 L 156.734 11.9728 L 154.444 12.1672 L 153.601 12.2387 L 151.893 12.3837 L 150.661 12.0339 L 150.635 12.0265 L 150.474 11.9032 L 146.026 8.45621 L 146.2 7.75715 L 146.469 6.61425 L 146.584 6.11439 L 146.658 5.77968 L 148.424 4.18654 L 149.896 2.7534 L 152.412 2.60236 L 160.854 2.1125 L 166.4 4.33777 L 166.598 4.41717 L 166.591 4.46716 L 166.07 8.20901 L 165.225 9.3272 L 163.789 11.058 L 163.676 11.0699 L 163.605 11.0789 L 161.816 11.3611 L 160.121 11.6853Z " fill-rule="evenodd" fill="rgb(220,220,220)" stroke="rgb(255,0,0)" />

<text x="147.813" y="9.46581" fill="rgb(0,0,0)" style="font:5pt Times New Roman">22.1</text>

<path d="M 91.5991 2.92022 L 91.5991 2.92022 L 92.8509 3.04777 L 98.2448 3.75709 L 107.692 4.60193 L 107.615 5.94038 L 107.557 7.22197 L 107.578 8.73084 L 107.019 10.3678 L 105.76 15.0395 L 103.23 16.7414 L 102.417 17.3279 L 98.9435 17.3051 L 97.6898 17.2989 L 93.0861 15.3085 L 92.3064 14.9637 L 90.0178 8.82264 L 89.9092 8.4869 L 89.6381 7.52632 L 89.4911 7.08859 L 89.9271 4.31775 L 90.0479 3.54148 L 90.1425 2.73064Z " fill-rule="evenodd" fill="rgb(220,220,220)" stroke="rgb(255,0,0)" />

<text x="91.6455" y="12.7669" fill="rgb(0,0,0)" style="font:5pt Times New Roman">22.2</text>

<path d="M 84.5576 7.84813 L 84.5576 7.84813 L 83.872 9.58781 L 83.6674 10.4442 L 83.6045 10.8013 L 83.5829 11.0259 L 82.7349 13.9324 L 81.0743 15.1026 L 79.6044 16.4766 L 75.8214 16.462 L 75.0318 16.4581 L 71.8865 15.7915 L 70.5103 15.4538 L 67.4562 12.7817 L 66.5104 11.9356 L 66.572 10.216 L 66.651 8.14066 L 66.7334 5.84876 L 66.8035 3.90079 L 70.2992 2.19091 L 70.924 1.87736 L 81.8511 2.95844 L 84.8916 3.14275 L 84.779 4.98147 L 84.7483 6.56449Z " fill-rule="evenodd" fill="rgb(220,220,220)" stroke="rgb(255,0,0)" />

<text x="67.6677" y="11.9146" fill="rgb(0,0,0)" style="font:5pt Times New Roman">22.3</text>

<path d="M 118.475 16.4508 L 118.475 16.4508 L 117.757 16.2163 L 116.385 15.7508 L 116.08 15.675 L 113.815 11.363 L 112.755 9.3461 L 112.959 7.99867 L 113.362 4.90957 L 114.34 4.77843 L 117.278 4.5535 L 129.907 3.46425 L 130.082 3.59636 L 130.472 3.82822 L 129.938 9.61331 L 129.918 9.82973 L 128.237 13.1255 L 127.359 14.8094 L 126.393 15.4613 L 125.319 16.211 L 121.88 16.3523 L 118.639 16.5223Z " fill-rule="evenodd" fill="rgb(220,220,220)" stroke="rgb(255,0,0)" />

<text x="113.618" y="12.7568" fill="rgb(0,0,0)" style="font:5pt Times New Roman">22.4</text>

</svg>