<?xml version="1.0"?>
<svg version="1.0" xmlns="http://www.w3.org/2000/svg" width="175pt" height="37pt" viewBox="0 0 175 37">

<path d="M 156.234 12.6546 L 156.234 12.6546 L 155.346 12.73 L 153.318 12.9021 L 151.123 13.1139 L 150.653 13.1906 L 149.328 13.4922 L 148.183 13.3385 L 148.074 13.307 L 147.827 13.2442 L 145.934 11.5036 L 142.999 8.88829 L 143.084 8.3267 L 143.145 7.7349 L 143.219 7.16626 L 143.384 6.52251 L 144.118 5.92021 L 145.122 5.08373 L 147.164 3.39989 L 148.013 3.33013 L 148.931 3.26739 L 152.758 3.00878 L 156.909 2.72113 L 157.71 2.66758 L 158.64 2.60233 L 159.578 2.99115 L 164.203 4.84852 L 164.078 5.54893 L 163.782 7.17818 L 163.613 8.09672 L 163.508 8.67336 L 162.204 10.3496 L 161.132 11.8291 L 160.525 11.9353 L 159.645 12.1272 L 158.593 12.3378 L 157.861 12.5165Z " fill-rule="evenodd" fill="rgb(220,220,220)" stroke="rgb(255,0,0)" />

<text x="145.056" y="10.8122" fill="rgb(0,0,0)" style="font:5pt Times New Roman">23.1</text>

<path d="M 117.544 16.8943 L 117.544 16.8943 L 117.177 16.8031 L 115.704 16.2893 L 114.693 15.9162 L 113.463 14.2153 L 111.322 10.6623 L 111.151 10.6165 L 110.959 10.6017 L 110.375 10.2168 L 109.872 10.3971 L 108.55 11.0808 L 107.957 11.127 L 107.684 11.2082 L 107.449 11.3558 L 106.371 14.0837 L 105.863 15.3068 L 105.444 15.6125 L 102.169 17.7069 L 101.759 17.7046 L 100.386 17.6881 L 97.9794 17.6414 L 97.0405 17.2314 L 92.2461 15.1745 L 90.2596 12.5505 L 89.2703 10.2049 L 88.2816 8.09572 L 88.1218 8.0667 L 87.8884 7.90078 L 87.4728 7.90665 L 86.7866 10.4803 L 84.0105 14.1057 L 82.3271 15.2667 L 80.0373 16.8464 L 79.4672 16.8459 L 75.9735 16.8423 L 74.57 16.5811 L 70.6888 15.7909 L 68.9185 14.1778 L 67.0807 12.8178 L 66.6096 12.3908 L 66.7053 8.64905 L 66.7749 6.3116 L 66.8065 5.29626 L 66.8509 3.94158 L 67.7267 3.54218 L 68.5518 3.03174 L 69.8388 2.25019 L 71.3119 1.4512 L 73.188 1.74077 L 78.8372 2.62719 L 79.8442 2.76137 L 79.3805 2.23706 L 80.036 2.36484 L 82.5664 2.80041 L 83.6813 3.02453 L 84.2878 3.10313 L 85.0464 3.26823 L 85.3496 3.32147 L 85.9652 3.21009 L 86.4143 3.31615 L 86.7427 3.41583 L 87.1816 3.45129 L 87.4962 3.54642 L 87.6911 3.52294 L 87.784 3.51965 L 88.1786 3.48427 L 96.8938 2.49204 L 105.186 4.31176 L 108.627 4.82236 L 108.729 4.82625 L 109.946 4.96956 L 110.584 4.87813 L 111.17 4.86619 L 112.869 5.02194 L 114.339 4.84629 L 121.079 4.51632 L 121.996 4.48261 L 123.356 4.39041 L 129.22 4.05581 L 129.314 4.23559 L 128.792 9.70855 L 128.775 9.89101 L 127.314 12.7146 L 126.04 15.1041 L 125.605 15.4173 L 123.92 16.5421 L 119.372 16.9025 L 117.834 16.9926Z " fill-rule="evenodd" fill="rgb(220,220,220)" stroke="rgb(255,0,0)" />

<text x="69.233" y="11.7936" fill="rgb(0,0,0)" style="font:5pt Times New Roman">23.2</text>

</svg>