<?xml version="1.0"?>
<svg version="1.0" xmlns="http://www.w3.org/2000/svg" width="175pt" height="37pt" viewBox="0 0 175 37">

<path d="M 70.7864 16.0782 L 70.7864 16.0782 L 68.5069 14.0011 L 66.9395 12.4928 L 67.0132 10.0321 L 67.1788 3.94497 L 67.1861 3.61574 L 67.188 3.50271 L 67.2872 3.44043 L 67.3254 3.41865 L 71.6155 0.90285 L 72.1115 0.942167 L 72.359 0.925201 L 72.8676 0.897268 L 75.4383 0.892114 L 77.8877 0.704036 L 77.9137 0.709695 L 79.2163 0.938417 L 79.3189 0.919852 L 81.1762 1.35847 L 82.5344 1.77067 L 84.3494 1.91732 L 85.6502 2.31072 L 86.4564 2.21362 L 86.8403 2.20001 L 88.4722 2.05372 L 91.982 1.65412 L 95.3215 2.38697 L 107.611 4.21074 L 107.974 4.22464 L 108.895 4.33304 L 112.329 3.8411 L 112.679 3.83399 L 115.82 4.12197 L 116.192 4.13866 L 116.478 4.20307 L 117.331 4.51163 L 117.555 4.64533 L 120.237 4.62074 L 120.268 4.63054 L 121.5 4.67269 L 125.423 4.55109 L 127.837 4.8134 L 128.382 4.83246 L 128.329 6.26802 L 128.012 9.98194 L 127.26 11.3003 L 126.342 12.9687 L 124.981 15.4489 L 122.776 16.7504 L 122.519 16.9321 L 122.239 16.9562 L 117.278 17.3277 L 116.441 17.0356 L 113.428 15.9242 L 111.454 13.1938 L 110.923 13.2688 L 109.85 12.576 L 108.712 12.987 L 107.795 13.1924 L 106.391 13.8218 L 105.709 15.4603 L 103.15 17.3307 L 102.092 18.0074 L 98.6663 17.9878 L 98.3207 17.9837 L 97.3173 17.5526 L 95.835 17.0831 L 93.1766 16.1305 L 91.6138 15.6063 L 91.4492 15.5186 L 91.0485 14.9838 L 89.9236 13.5261 L 89.3296 12.7672 L 88.7341 11.8471 L 87.1432 12.6406 L 86.493 13.0275 L 85.533 14.3264 L 81.4096 16.4909 L 80.5022 17.1281 L 78.2084 17.166 L 76.9297 17.1871 L 74.3007 16.7494 L 71.769 16.2783Z " fill-rule="evenodd" fill="rgb(220,220,220)" stroke="rgb(255,0,0)" />

<text x="68.6584" y="11.026" fill="rgb(0,0,0)" style="font:5pt Times New Roman">24.1</text>

<path d="M 153.693 13.6997 L 153.693 13.6997 L 152.999 13.8578 L 152.55 13.9601 L 152.179 14.0384 L 150.943 14.2239 L 150.551 14.2196 L 150.413 14.2326 L 150.154 14.2546 L 149.64 14.2976 L 148.676 14.3794 L 148.559 14.3841 L 147.646 14.3496 L 147.373 14.3448 L 146.713 14.3587 L 145.57 14.021 L 144.487 13.7498 L 142.488 11.702 L 140.959 10.1888 L 140.05 9.31996 L 140.161 9.00629 L 140.309 8.56012 L 140.559 7.72952 L 140.751 7.0683 L 141.461 6.26082 L 142.39 5.49597 L 143.205 4.69693 L 144.231 3.91867 L 148.313 3.70297 L 152.536 3.39326 L 154.736 3.23259 L 156.437 3.10772 L 157.868 3.71979 L 161.605 5.34472 L 161.249 8.12191 L 161.079 9.29152 L 160.955 9.47816 L 160.704 9.7924 L 159.082 11.8387 L 158.443 12.611 L 157.465 12.8302 L 156.141 13.1976 L 155.809 13.3072 L 155.601 13.3884Z " fill-rule="evenodd" fill="rgb(220,220,220)" stroke="rgb(255,0,0)" />

<text x="144.91" y="11.5324" fill="rgb(0,0,0)" style="font:5pt Times New Roman">24.2</text>

</svg>