<?xml version="1.0"?>
<svg version="1.0" xmlns="http://www.w3.org/2000/svg" width="175pt" height="37pt" viewBox="0 0 175 37">

<path d="M 112.163 15.9322 L 112.163 15.9322 L 111.413 14.8945 L 109.734 15.1316 L 109.446 14.9459 L 109.141 15.0561 L 106.492 15.6492 L 105.964 15.6926 L 103.14 17.4819 L 101.946 18.3901 L 101.451 18.3942 L 98.7187 18.4784 L 95.2616 17.3171 L 90.1064 15.5881 L 88.9031 14.9464 L 88.6084 14.5532 L 88.1771 14.7991 L 85.7128 15.7736 L 80.9828 17.3662 L 79.6008 17.369 L 77.769 17.3961 L 75.4416 17.0153 L 70.8776 16.264 L 67.3788 12.8903 L 66.985 12.5279 L 67.0352 11.5109 L 67.1143 9.71618 L 67.281 5.50691 L 67.3561 3.31929 L 68.6098 2.64666 L 72.077 0.591946 L 72.6118 0.568664 L 72.7309 0.546407 L 74.2831 0.507588 L 76.6259 0.461286 L 77.0424 0.374818 L 78.2234 0.265129 L 78.3582 0.236645 L 78.4191 0.244894 L 78.47 0.235733 L 78.5507 0.23673 L 78.592 0.233006 L 78.8764 0.242387 L 80.3905 0.292312 L 81.5172 0.38335 L 83.8041 1.07502 L 85.1572 0.912052 L 85.2213 0.921303 L 85.7633 1.01407 L 85.9348 1.04645 L 86.3063 1.09052 L 88.8735 1.15775 L 90.7952 1.25436 L 106.596 3.59913 L 107.22 3.62302 L 107.844 3.69652 L 114.075 2.80408 L 114.187 2.80179 L 115.197 2.89438 L 116.124 2.93601 L 116.838 3.09666 L 118.967 3.86629 L 119.525 4.19978 L 121.637 4.18042 L 121.812 4.23667 L 124.187 4.31789 L 124.698 4.41536 L 126.485 4.89657 L 127.196 4.81636 L 127.727 4.87401 L 128.121 4.89983 L 128.032 6.14334 L 127.957 6.96463 L 127.795 8.92851 L 127.734 9.67521 L 127.714 9.97356 L 127.39 10.5376 L 126.44 12.2192 L 124.355 16.0243 L 121.174 17.4946 L 121.172 17.4955 L 121.167 17.4958 L 117.982 17.661 L 116.727 17.708 L 114.997 16.9775Z " fill-rule="evenodd" fill="rgb(220,220,220)" stroke="rgb(255,0,0)" />

<text x="71.7224" y="11.5697" fill="rgb(0,0,0)" style="font:5pt Times New Roman">25.1</text>

<path d="M 153.18 14.6364 L 153.18 14.6364 L 153.171 14.6372 L 153.155 14.6386 L 152.606 14.6605 L 152.523 14.6574 L 149.958 14.613 L 148.007 14.654 L 146.364 14.7744 L 143.75 14.9953 L 143.499 14.9457 L 143.063 14.8856 L 141.72 14.67 L 140.529 14.5238 L 137.761 12.0207 L 135.846 10.2636 L 135.303 9.76121 L 135.397 9.38769 L 135.695 8.25519 L 136.058 6.99067 L 136.949 6.45923 L 137.975 5.9258 L 139.813 4.85375 L 141.146 4.74759 L 142.984 4.60188 L 154.051 3.72411 L 156.733 4.9323 L 159.108 6.00038 L 158.945 7.41244 L 158.724 9.33081 L 158.699 9.55136 L 158.69 9.63503 L 158.685 9.68206 L 158.666 9.84816 L 156.375 12.8779 L 155.725 13.7524 L 154.898 14.038 L 154.255 14.3009 L 154.015 14.3829 L 153.793 14.4538 L 153.28 14.6279Z " fill-rule="evenodd" fill="rgb(220,220,220)" stroke="rgb(255,0,0)" />

<text x="143.376" y="12.1459" fill="rgb(0,0,0)" style="font:5pt Times New Roman">25.2</text>

</svg>