<?xml version="1.0"?>
<svg version="1.0" xmlns="http://www.w3.org/2000/svg" width="175pt" height="37pt" viewBox="0 0 175 37">

<path d="M 105.58 2.98751 L 105.58 2.98751 L 106.466 3.02141 L 106.793 3.06 L 111.913 2.32668 L 115.784 2.20174 L 116.56 2.06428 L 116.628 2.04612 L 116.715 2.03682 L 117.362 2.08404 L 117.38 2.08259 L 117.404 2.0871 L 117.557 2.12014 L 120.603 3.22095 L 121.495 3.75423 L 123.037 3.74009 L 123.357 3.84279 L 125.029 3.89997 L 126.25 4.13316 L 128.255 4.67287 L 128.681 4.8943 L 128.937 4.90516 L 129.885 5.37775 L 130.201 5.49147 L 130.896 7.25947 L 131.011 7.54698 L 131.193 7.72913 L 131.398 7.68444 L 131.838 6.13558 L 132.881 6.42263 L 134.16 5.65178 L 134.445 5.49916 L 135.38 5.31803 L 142.789 4.9679 L 147.214 4.66902 L 151.923 4.34933 L 154.894 5.74606 L 156.739 6.66029 L 156.604 7.68749 L 156.501 8.56057 L 156.285 10.3903 L 154.955 12.1175 L 152.919 14.2151 L 152.809 14.2395 L 152.677 14.2758 L 150.602 15.0827 L 148.705 15.2217 L 147.784 15.2996 L 145.2 15.5165 L 142.767 15.7209 L 142.322 15.7533 L 140.788 15.7649 L 139.712 15.5452 L 138.007 15.1475 L 137.509 15.0548 L 137.258 14.9873 L 131.516 10.8481 L 130.954 10.5204 L 130.55 10.7169 L 123.808 16.4026 L 123.575 16.4835 L 123.268 16.5953 L 119.666 18.0487 L 117.788 18.1203 L 116.124 18.3156 L 111.737 17.0695 L 110.13 16.4366 L 109.607 16.4718 L 109.22 16.5037 L 108.673 16.8502 L 107.659 17.2333 L 101.844 19.4032 L 100.646 19.25 L 99.2056 19.1575 L 94.6784 18.0549 L 89.2681 16.2862 L 85.029 17.3952 L 81.3806 18.2078 L 79.7147 18.169 L 78.4555 18.1545 L 74.5914 17.3792 L 74.2649 17.2947 L 72.8668 16.9661 L 72.0729 16.7577 L 70.7893 16.4559 L 69.0667 14.7847 L 66.6146 12.5639 L 66.9729 6.82656 L 67.0887 4.83407 L 67.1565 3.56065 L 67.611 3.28467 L 67.8886 3.12435 L 69.4463 2.18751 L 71.0514 1.36748 L 71.5327 1.11197 L 71.7627 1.00636 L 72.5399 0.583711 L 73.8881 0.546144 L 74.5403 0.321239 L 74.6439 0.299338 L 75.2014 0.302307 L 75.6408 0.322998 L 75.7396 0.302249 L 76.4743 0.284424 L 77.478 0.296812 L 77.7956 0.300732 L 78.3365 0.251868 L 78.4702 0.239785 L 79.9356 0.288105 L 81.6647 0.496831 L 82.2542 0.567999 L 82.4474 0.581056 L 82.7427 0.601009 L 82.9717 0.615044 L 83.0815 0.621772 L 83.4736 0.681545 L 83.7366 0.72163 L 84.4468 0.810464 L 85.2758 0.967012 L 88.4215 1.34019 L 89.4977 1.36838 L 97.3192 1.76159Z " fill-rule="evenodd" fill="rgb(220,220,220)" stroke="rgb(255,0,0)" />

<text x="71.273" y="11.4997" fill="rgb(0,0,0)" style="font:5pt Times New Roman">26.1</text>

</svg>