<?xml version="1.0"?>
<svg version="1.0" xmlns="http://www.w3.org/2000/svg" width="175pt" height="37pt" viewBox="0 0 175 37">

<path d="M 104.565 2.37589 L 104.565 2.37589 L 105.711 2.41979 L 105.743 2.42348 L 106.232 2.35341 L 117.461 1.99098 L 118.051 1.88646 L 118.328 1.81207 L 118.687 1.77395 L 119.179 1.8099 L 119.351 1.79563 L 119.593 1.84011 L 121.106 2.16637 L 122.239 2.57562 L 123.465 3.30868 L 124.438 3.29976 L 124.901 3.44892 L 125.87 3.48204 L 127.803 3.85097 L 128.438 4.0219 L 128.573 4.09202 L 129.275 4.1218 L 132.642 4.93031 L 133.5 5.06217 L 136.168 5.12356 L 136.994 5.23154 L 141.913 5.02913 L 149.383 4.74579 L 153.307 6.79514 L 154.143 7.2346 L 154.1 7.59345 L 153.686 10.9431 L 153.007 11.6933 L 151.844 12.9731 L 149.997 14.9997 L 148.86 15.5296 L 147.931 15.9296 L 147.117 15.998 L 146.751 16.0288 L 144.739 16.175 L 142.982 16.1883 L 141.692 16.2097 L 137.825 16.3984 L 137.39 16.3176 L 135.653 15.8503 L 134.924 15.6718 L 134.792 15.5999 L 133.869 15.1357 L 130.223 13.0107 L 126.664 14.7407 L 124.382 16.6651 L 118.133 18.8353 L 118.119 18.8402 L 118.107 18.8418 L 116.145 19.3516 L 110.752 18.1113 L 110.16 17.9431 L 108.957 18.3484 L 101.959 20.4874 L 101.343 20.4398 L 100.557 20.2812 L 99.6072 20.1617 L 92.502 18.7922 L 89.5081 18.0792 L 87.2632 18.5791 L 84.9998 18.8137 L 81.8134 19.2039 L 81.6184 19.2279 L 81.3867 19.1912 L 79.5573 19.0987 L 79.1048 19.0855 L 78.8948 19.0304 L 77.8215 18.778 L 70.1731 16.8064 L 68.9027 15.5003 L 66.6537 12.8449 L 66.2836 12.4352 L 66.3533 8.11451 L 66.6245 3.99252 L 67.724 3.48771 L 68.4862 3.07319 L 69.7186 2.44775 L 70.3999 2.17555 L 72.3825 1.23449 L 72.6533 1.11639 L 72.8526 1.02198 L 73.5895 0.638261 L 73.9855 0.496428 L 74.3041 0.429612 L 74.5719 0.373454 L 74.8284 0.372739 L 76.9823 0.364018 L 77.0396 0.364725 L 77.0405 0.364736 L 78.3436 0.247007 L 78.3485 0.246564 L 78.4023 0.248336 L 79.1223 0.335259 L 83.0326 0.811647 L 83.2305 0.835751 L 83.5648 0.848375 L 83.7974 0.864089 L 84.1247 0.886208 L 84.7801 0.926372 L 84.8154 0.928535 L 84.839 0.932141 L 85.5115 1.09955 L 89.4882 1.5321 L 90.1156 1.62467 L 100.751 2.11337 L 103.843 2.26882Z " fill-rule="evenodd" fill="rgb(220,220,220)" stroke="rgb(255,0,0)" />

<text x="74.9548" y="12.5805" fill="rgb(0,0,0)" style="font:5pt Times New Roman">27.1</text>

</svg>