<?xml version="1.0"?>
<svg version="1.0" xmlns="http://www.w3.org/2000/svg" width="175pt" height="37pt" viewBox="0 0 175 37">

<path d="M 125.435 2.86312 L 125.435 2.86312 L 125.838 2.85943 L 126.446 3.05504 L 126.712 3.06412 L 127.646 3.24249 L 131.523 3.91501 L 136.23 4.66821 L 136.787 4.75658 L 140.135 5.42682 L 142.469 5.32128 L 146.724 5.1469 L 151.189 7.40516 L 151.311 7.46693 L 151.366 7.49538 L 151.363 7.52629 L 150.936 11.5035 L 148.692 13.9805 L 147.519 15.732 L 147.245 15.8634 L 145.258 16.6375 L 144.867 16.644 L 144.516 16.6611 L 134.884 17.2313 L 134.629 17.1688 L 132.405 15.9583 L 131.841 15.6745 L 130.558 15.4543 L 128.599 15.0237 L 125.162 16.7247 L 122.716 17.6128 L 121.499 18.0547 L 120.022 18.5562 L 119.064 18.9117 L 117.551 19.4443 L 116.665 19.7341 L 116.024 20.1176 L 115.389 19.9822 L 112.03 19.2683 L 110.616 19.0054 L 106.667 20.2076 L 102.14 21.4556 L 101.616 21.535 L 101.064 21.4667 L 100.316 21.3368 L 99.7895 21.2281 L 96.1788 20.5276 L 89.6249 19.4865 L 85.2551 19.5498 L 82.2902 19.9795 L 81.9476 20.1332 L 81.3949 20.2015 L 80.9117 20.0494 L 80.0096 19.9525 L 78.4743 19.4223 L 70.2734 16.6553 L 70.254 16.6377 L 65.9326 12.5527 L 65.9397 12.1433 L 65.9509 11.3339 L 66.0378 7.44098 L 66.0933 4.91086 L 66.8658 4.6022 L 67.2495 4.42007 L 68.849 3.7225 L 70.0257 3.16492 L 71.8638 2.20782 L 74.0219 1.34967 L 75.3758 0.958987 L 75.7928 0.898927 L 76.2107 0.872062 L 76.4709 0.891313 L 77.647 0.931632 L 78.3284 0.954994 L 78.8571 0.973117 L 80.7656 1.01223 L 81.3551 1.02431 L 81.6895 1.03116 L 82.7027 1.11967 L 83.0595 1.15084 L 83.3528 1.1517 L 83.5389 1.16553 L 83.9246 1.15345 L 84.6303 1.15564 L 85.2213 1.16706 L 85.4318 1.17113 L 85.508 1.17601 L 86.4373 1.39308 L 86.645 1.44479 L 87.8339 1.57411 L 90.7166 1.99946 L 98.5326 2.35861 L 103.549 2.65573 L 103.766 2.60504 L 104.605 2.63061 L 110.632 2.05476 L 119.137 1.78023 L 119.542 1.70865 L 120.028 1.57801 L 120.658 1.51107 L 120.996 1.53576 L 121.322 1.50867 L 121.781 1.59313 L 123.644 1.99466 L 123.806 2.01045 L 123.882 2.04123 L 124.532 2.32337Z " fill-rule="evenodd" fill="rgb(220,220,220)" stroke="rgb(255,0,0)" />

<text x="74.7159" y="12.8963" fill="rgb(0,0,0)" style="font:5pt Times New Roman">28.1</text>

</svg>