<?xml version="1.0"?>
<svg version="1.0" xmlns="http://www.w3.org/2000/svg" width="175pt" height="37pt" viewBox="0 0 175 37">

<path d="M 121.032 1.53083 L 121.032 1.53083 L 121.728 1.34395 L 122.629 1.2482 L 122.812 1.26162 L 123.294 1.22171 L 123.97 1.34615 L 124.717 1.50703 L 125.274 1.5615 L 125.538 1.66768 L 126.605 2.13116 L 126.923 2.09472 L 127.456 2.08483 L 128.563 2.10153 L 129.006 2.07179 L 130.538 2.26694 L 137.742 4.28227 L 138.976 4.54656 L 140.218 4.97476 L 140.746 5.15415 L 143.014 5.8098 L 143.986 5.84325 L 146.306 6.97081 L 148.606 8.1167 L 148.483 9.396 L 148.314 12.0772 L 146.993 13.8714 L 145.027 16.5458 L 144.749 16.865 L 142.681 17.7139 L 142.587 17.7604 L 135.55 17.9186 L 133.947 17.9385 L 132.769 17.9764 L 129.584 17.1511 L 127.361 16.4476 L 126.701 16.3025 L 126.157 16.5717 L 125.77 16.7122 L 125.232 16.9073 L 123.056 17.6976 L 117.11 19.9345 L 116.695 20.1803 L 115.807 20.5848 L 115.405 20.4956 L 114.646 20.3362 L 111.374 19.7891 L 111.066 19.7282 L 110.544 19.8699 L 102.338 21.9041 L 101.425 22.203 L 101.208 22.2363 L 100.264 21.9175 L 99.9776 21.8719 L 92.4893 20.7147 L 90.2968 20.4433 L 89.4678 20.3912 L 85.5277 20.355 L 83.201 20.4571 L 82.7062 20.6717 L 82.4184 20.804 L 81.56 20.5594 L 81.0447 20.413 L 73.3178 17.7297 L 71.8062 17.2076 L 70.5492 16.7835 L 69.3326 15.683 L 65.9191 12.6815 L 66.0327 8.90039 L 66.041 5.85648 L 67.1988 5.30786 L 67.6966 5.04865 L 74.1084 2.49908 L 74.7079 2.32608 L 76.1553 2.33731 L 79.7464 1.89863 L 79.966 1.85535 L 81.5299 1.73856 L 81.7041 1.7449 L 81.9155 1.78258 L 83.9679 1.76842 L 85.1265 1.85457 L 85.9663 1.82826 L 87.6085 1.9676 L 87.8135 2.02933 L 90.7911 2.29654 L 91.3177 2.37425 L 91.9699 2.40422 L 102.533 3.0299 L 102.99 2.92316 L 103.457 2.9374 L 116.222 1.71769 L 120.814 1.56947Z " fill-rule="evenodd" fill="rgb(220,220,220)" stroke="rgb(255,0,0)" />

<text x="76.5873" y="13.4138" fill="rgb(0,0,0)" style="font:5pt Times New Roman">29.1</text>

</svg>