<?xml version="1.0"?>
<svg version="1.0" xmlns="http://www.w3.org/2000/svg" width="175pt" height="37pt" viewBox="0 0 175 37">

<path d="M 122.523 1.35301 L 122.523 1.35301 L 123.429 1.1099 L 124.6 0.985329 L 124.629 0.987483 L 125.215 0.938883 L 125.255 0.933202 L 125.863 0.946376 L 126.73 0.90535 L 129.014 0.953973 L 130.258 1.08796 L 132.101 1.318 L 133.552 1.45912 L 134.812 1.66746 L 135.779 2.07059 L 137.719 2.95744 L 139.41 3.69918 L 143.004 5.15882 L 143.248 5.27631 L 143.295 5.30338 L 143.353 5.33591 L 143.669 5.60732 L 146.422 7.68093 L 146.389 8.59069 L 146.214 12.5163 L 143.899 15.3008 L 142 17.4816 L 141.039 17.9616 L 139.738 18.4531 L 137.633 18.4792 L 135.892 18.5351 L 132.89 18.5756 L 130.66 18.592 L 128.504 18.015 L 124.936 17.488 L 120.907 19.0039 L 116.886 20.4592 L 116.733 20.5281 L 115.681 20.9339 L 115.645 20.9262 L 114.435 20.7183 L 114.38 20.7113 L 111.287 20.4893 L 104.148 21.7931 L 102.56 22.161 L 101.491 22.4767 L 101.37 22.5157 L 100.392 22.1897 L 100.214 22.1321 L 91.2163 21.4335 L 90.5874 21.387 L 90.461 21.3779 L 87.4724 21.2105 L 84.2463 20.9464 L 83.7946 21.1259 L 83.4429 21.2779 L 82.6919 21.0602 L 82.0774 20.8852 L 75.5306 18.504 L 70.9779 16.9115 L 67.0045 13.8741 L 65.423 12.8111 L 65.4613 11.5878 L 65.7093 7.2994 L 65.7744 5.9813 L 67.2353 5.83955 L 68.8365 5.29264 L 72.5842 3.7892 L 76.3052 3.21495 L 81.4654 2.5846 L 82.1595 2.44785 L 83.3175 2.36137 L 83.84 2.38039 L 84.4738 2.49337 L 85.9057 2.4835 L 86.714 2.5436 L 87.3 2.52524 L 88.4457 2.62246 L 89.008 2.79181 L 91.4127 3.00762 L 91.7919 3.04941 L 92.4838 3.12868 L 93.214 3.17887 L 99.5857 3.28968 L 101.517 3.40407 L 102.214 3.24128 L 102.309 3.24419 L 121.813 1.38061 L 122.491 1.35872Z " fill-rule="evenodd" fill="rgb(220,220,220)" stroke="rgb(255,0,0)" />

<text x="86.3014" y="14.9562" fill="rgb(0,0,0)" style="font:5pt Times New Roman">30.1</text>

<path d="M 9.05101 14.0214 L 9.05101 14.0214 L 8.61659 14.1024 L 8.277 14.0131 L 7.90628 14.0253 L 7.57239 13.85 L 7.21983 13.6392 L 6.82166 13.3349 L 6.54004 13.098 L 5.95006 12.5764 L 5.79376 12.4108 L 5.1031 11.6515 L 5.27421 11.6463 L 6.64331 11.6623 L 8.90839 11.5924 L 9.02986 11.5911 L 9.23258 11.5678 L 10.4874 11.4704 L 11.5783 11.5352 L 12.7138 11.5692 L 14.5859 11.6169 L 15.918 11.7172 L 15.3632 11.9839 L 15.3206 12.0059 L 13.9892 12.4924 L 13.8362 12.5704 L 12.7271 13.0721 L 12.4661 13.1949 L 11.651 13.4659 L 11.3198 13.6043 L 10.6871 13.7608 L 10.3293 13.9049 L 9.84967 13.9644 L 9.44879 14.0392Z " fill-rule="evenodd" fill="rgb(220,220,220)" stroke="rgb(255,0,0)" />

<text x="3.51055" y="14.9464" fill="rgb(0,0,0)" style="font:5pt Times New Roman">30.2</text>

</svg>