<?xml version="1.0"?>
<svg version="1.0" xmlns="http://www.w3.org/2000/svg" width="175pt" height="37pt" viewBox="0 0 175 37">

<path d="M 88.6336 3.22223 L 88.6336 3.22223 L 89.2829 3.27732 L 90.2025 3.55429 L 91.4571 3.66688 L 92.2533 3.75465 L 93.7065 3.92114 L 95.2401 4.02655 L 98.3758 4.08108 L 100.453 4.10383 L 100.848 3.99838 L 101.835 3.82251 L 102.449 3.67893 L 120.129 1.15713 L 124.168 0.759616 L 124.45 0.738295 L 125.19 0.672293 L 126.21 0.651438 L 127.733 0.599041 L 129.224 0.584964 L 129.628 0.565762 L 131.518 0.687996 L 131.895 0.720382 L 132.291 0.753152 L 132.442 0.773152 L 133.463 0.922567 L 134.927 1.16185 L 135.708 1.37032 L 136.449 1.69528 L 137.071 1.94753 L 144.416 5.49196 L 144.964 5.80802 L 144.695 7.17447 L 144.354 12.6191 L 141.117 16.2651 L 140.088 17.9138 L 139.343 18.2018 L 136.886 19.0115 L 135.456 19.0308 L 134.07 19.041 L 131.784 18.8434 L 128.429 19.1674 L 127.48 19.0421 L 123.765 18.4594 L 118.308 20.339 L 116.654 20.9301 L 115.525 21.2689 L 115.458 21.2942 L 114.294 21.0804 L 114.259 21.0744 L 114.169 21.0684 L 111.261 21.1673 L 110.416 21.3237 L 102.731 22.58 L 101.844 22.8612 L 101.54 22.9519 L 100.709 22.6603 L 100.4 22.5541 L 91.9038 22.2493 L 91.0398 22.2184 L 90.6507 22.1623 L 88.0111 21.6249 L 85.293 21.4292 L 84.853 21.5984 L 84.4674 21.7518 L 83.8173 21.5679 L 83.1091 21.3623 L 78.3069 19.6969 L 70.9769 17.0402 L 65.1336 13.2422 L 64.6332 12.9412 L 64.6762 12.3381 L 64.726 11.4199 L 64.9089 8.06702 L 64.9593 6.20808 L 66.6326 5.85436 L 68.8908 5.43881 L 70.2793 4.92473 L 70.5881 4.81928 L 72.9592 4.66686 L 73.2866 4.64883 L 73.7404 4.61148 L 79.5616 3.71312 L 83.1844 3.27057 L 84.353 3.04035 L 85.105 2.98418 L 85.9758 3.01589 L 87.0321 3.20417 L 87.8435 3.19857 L 88.3016 3.23263Z " fill-rule="evenodd" fill="rgb(220,220,220)" stroke="rgb(255,0,0)" />

<text x="115.158" y="12.9013" fill="rgb(0,0,0)" style="font:5pt Times New Roman">31.1</text>

<path d="M 15.3604 15.9304 L 15.3604 15.9304 L 14.9164 15.912 L 14.73 15.9149 L 13.9043 15.9117 L 11.5185 15.874 L 11.3152 15.8616 L 10.5515 15.8429 L 10.4055 15.8323 L 8.22993 15.5293 L 8.41593 15.2359 L 7.93515 15.2173 L 6.87495 15.1369 L 5.31321 14.8609 L 4.11135 13.8588 L 3.64593 13.4311 L 2.90855 12.8494 L 2.4382 12.441 L 2.0758 12.103 L 1.7044 11.3122 L 1.49808 10.6925 L 1.18666 9.81779 L 0.876909 8.60367 L 1.48939 8.56306 L 1.66867 8.51592 L 4.04824 8.34521 L 5.16263 8.08005 L 6.741 7.91579 L 7.56217 7.6662 L 7.86009 7.34658 L 8.818 6.92878 L 8.92442 6.90341 L 9.0864 6.84484 L 9.11295 6.83977 L 9.1374 6.83661 L 10.499 6.85042 L 11.1849 6.91371 L 12.42 7.02768 L 13.5923 7.11854 L 14.4073 7.10455 L 15.8264 7.27382 L 19.9112 9.52906 L 22.052 10.5067 L 21.2985 11.233 L 20.831 11.7015 L 20.3927 12.1533 L 19.6419 12.8365 L 18.992 13.3945 L 18.1893 14.1964 L 16.3249 15.3932 L 16.2292 15.4481 L 16.1414 15.5293 L 16.0356 15.5801Z " fill-rule="evenodd" fill="rgb(220,220,220)" stroke="rgb(255,0,0)" />

<text x="5.0497" y="14.1766" fill="rgb(0,0,0)" style="font:5pt Times New Roman">31.2</text>

</svg>