<?xml version="1.0"?>
<svg version="1.0" xmlns="http://www.w3.org/2000/svg" width="175pt" height="37pt" viewBox="0 0 175 37">

<path d="M 11.7912 4.32097 L 11.7912 4.32097 L 12.5862 4.41579 L 13.0051 4.50141 L 13.1476 4.548 L 14.9561 4.8696 L 17.8592 5.58902 L 17.9333 5.61397 L 18.2748 5.70309 L 19.2538 5.83413 L 19.43 5.90224 L 21.5225 6.38941 L 21.822 6.69956 L 25.568 10.8472 L 25.4465 11.0987 L 25.3197 11.3161 L 23.6807 13.2368 L 22.4555 14.7782 L 22.1724 15.0749 L 20.6592 16.2834 L 18.2179 16.209 L 17.0547 16.2403 L 15.79 16.2474 L 14.7769 16.262 L 14.7173 16.2651 L 14.4488 16.2214 L 13.9356 16.0654 L 13.2859 15.6941 L 13.1076 15.3194 L 12.8463 14.9222 L 12.205 14.9214 L 8.88743 14.3722 L 7.17888 13.9083 L 5.35038 13.5689 L 2.76997 12.9094 L 2.04219 12.6833 L 0.93584 11.1706 L 0.541866 10.6415 L 0.0585381 9.84455 L 0.0256419 9.0883 L 0.0722737 8.09408 L 0.128463 7.03609 L 0.214722 6.1707 L 2.17188 5.55916 L 3.7437 4.94711 L 4.71404 4.67535 L 5.14889 4.57481 L 5.55914 4.53766 L 7.71928 4.10905 L 8.13357 4.07381 L 8.82526 4.12742 L 10.1059 4.22668 L 11.4074 4.32756Z " fill-rule="evenodd" fill="rgb(220,220,220)" stroke="rgb(255,0,0)" />

<text x="8.9255" y="13.5147" fill="rgb(0,0,0)" style="font:5pt Times New Roman">32.1</text>

<path d="M 89.9672 3.91921 L 89.9672 3.91921 L 90.12 3.93218 L 91.397 4.31677 L 91.5014 4.32614 L 91.8682 4.36658 L 92.7645 4.35402 L 94.6127 4.49258 L 96.2798 4.53988 L 99.3971 4.73488 L 100.754 4.64471 L 101.595 4.49488 L 103.035 4.15799 L 112.319 2.83375 L 116.164 2.16919 L 118.407 1.75457 L 119.36 1.58282 L 122.134 1.20349 L 124.461 0.643231 L 125.006 0.61938 L 125.079 0.61394 L 129.189 0.447681 L 129.513 0.451649 L 129.785 0.45195 L 130.436 0.495335 L 133.916 0.740691 L 135.01 0.778925 L 135.388 0.788862 L 136.255 1.19904 L 143.836 4.8104 L 142.25 10.8115 L 141.978 11.931 L 141.919 12.2301 L 141.888 12.7277 L 141.592 13.0609 L 141.38 13.4002 L 138.821 16.7248 L 138.213 17.5525 L 138.153 17.6343 L 135.517 18.5581 L 134.181 18.9701 L 131.822 19.1313 L 129.645 19.3291 L 128.104 19.5315 L 126.358 19.6336 L 124.576 19.3515 L 123.388 19.0277 L 121.412 19.6868 L 116.436 21.294 L 116.239 21.352 L 115.267 21.6429 L 114.257 21.4696 L 114.083 21.4377 L 111.941 21.7626 L 110.448 21.9717 L 102.917 22.9509 L 102.478 23.0901 L 101.704 23.3357 L 101.034 23.093 L 100.597 22.9411 L 95.4433 23.036 L 92.3975 22.9964 L 91.6376 22.9654 L 88.663 22.2359 L 86.3419 21.9014 L 85.8594 22.0842 L 85.4919 22.2256 L 84.7535 22.0163 L 84.1401 21.8429 L 75.0485 18.6917 L 70.4391 17.1699 L 65.4345 14.1853 L 63.5032 13.0719 L 63.7564 10.1262 L 64.1797 6.36197 L 64.2618 6.34573 L 64.3076 6.33657 L 64.3241 6.33322 L 64.5292 6.28852 L 67.382 5.65413 L 68.9898 5.34226 L 70.2241 5.33505 L 72.5014 5.28058 L 75.0261 5.03099 L 76.8814 4.91172 L 77.965 4.85203 L 79.4672 4.72841 L 82.818 4.21129 L 84.9034 3.95654 L 86.5464 3.63285 L 86.8926 3.60699 L 88.1117 3.65138 L 89.5904 3.91496 L 89.7813 3.91365 L 89.8891 3.92166Z " fill-rule="evenodd" fill="rgb(220,220,220)" stroke="rgb(255,0,0)" />

<text x="90.6116" y="16.7168" fill="rgb(0,0,0)" style="font:5pt Times New Roman">32.2</text>

</svg>