<?xml version="1.0"?>
<svg version="1.0" xmlns="http://www.w3.org/2000/svg" width="175pt" height="37pt" viewBox="0 0 175 37">

<path d="M 10.2141 1.79347 L 10.2141 1.79347 L 13.8775 2.44495 L 15.0537 2.73643 L 15.2946 2.81742 L 16.4033 3.10683 L 16.8785 3.17045 L 17.6146 3.45496 L 18.7445 3.71801 L 19.3243 3.90028 L 19.9813 4.08771 L 21.8255 4.7228 L 22.2048 4.83959 L 22.5783 4.96584 L 24.216 5.68907 L 25.4786 6.06063 L 25.5595 6.08614 L 25.9457 6.37791 L 27.1503 8.09162 L 28.3565 10.2789 L 28.4741 10.715 L 28.2376 10.9397 L 28.1138 11.0561 L 26.6146 12.5052 L 25.8666 13.2904 L 25.3279 14.406 L 24.1066 16.5004 L 23.1957 16.7708 L 21.8022 16.8735 L 19.494 17.0663 L 17.6889 16.3782 L 15.2157 15.4313 L 14.3817 15.0941 L 13.9877 14.5219 L 13.805 14.232 L 13.6998 14.0735 L 10.5069 13.2065 L 9.76453 13.0687 L 8.71692 12.801 L 7.01207 12.2713 L 4.6858 11.5555 L 3.67241 11.1898 L 3.11822 10.9547 L 2.87534 10.851 L 1.43595 10.321 L 1.20751 9.82761 L 1.0192 9.36758 L 0.913248 8.93913 L 0.667159 7.91925 L 0.79859 7.60301 L 0.831744 7.52419 L 1.18272 6.60761 L 1.33122 6.24535 L 1.60047 5.53215 L 1.88945 4.87614 L 2.06143 4.44154 L 2.50821 3.46903 L 2.57092 3.32367 L 2.8404 2.81559 L 3.61455 2.72717 L 4.71548 2.61512 L 7.54979 2.02317 L 8.26318 1.91321 L 9.82437 1.67844 L 9.92541 1.69909Z " fill-rule="evenodd" fill="rgb(220,220,220)" stroke="rgb(255,0,0)" />

<text x="12.7909" y="13.2483" fill="rgb(0,0,0)" style="font:5pt Times New Roman">33.1</text>

<path d="M 88.0723 4.35688 L 88.0723 4.35688 L 88.7637 4.1765 L 90.1408 4.13628 L 91.382 4.28731 L 92.4796 4.51592 L 93.4877 4.5018 L 94.8613 4.60478 L 96.1003 4.63994 L 98.4171 4.78486 L 100.191 4.66696 L 102.451 4.50551 L 104.179 4.35695 L 106.066 4.03075 L 111.037 3.11184 L 113.15 2.7312 L 114.708 2.5181 L 116.831 2.00704 L 121.677 1.1179 L 124.37 0.597528 L 128.337 0.551492 L 132.387 0.447006 L 135.417 0.412156 L 136.395 0.86852 L 137.822 1.57491 L 140.477 2.92508 L 142.869 4.07541 L 141.803 8.02789 L 141.15 10.5162 L 140.482 12.9887 L 139.694 14.0608 L 139.108 14.865 L 137.887 16.6846 L 136.723 18.0697 L 135.877 18.3581 L 132.389 19.6271 L 132.342 19.6333 L 132.269 19.6376 L 127.889 19.9148 L 124.181 20.1874 L 123.797 20.0947 L 122.934 19.6695 L 122.391 19.8485 L 116.22 21.6438 L 116.195 21.6515 L 115.078 21.991 L 113.949 21.8025 L 113.907 21.7952 L 113.371 21.8685 L 103.11 23.3009 L 102.516 23.4895 L 101.866 23.6979 L 101.353 23.504 L 100.801 23.3042 L 93.4251 23.3597 L 92.2556 23.3817 L 89.6221 22.8728 L 87.3898 22.3783 L 86.8805 22.57 L 86.5161 22.708 L 85.7523 22.497 L 85.1694 22.3317 L 76.4512 19.4973 L 69.2344 17.3007 L 65.2246 14.9592 L 63.5155 13.8643 L 62.4841 13.0492 L 62.5304 12.2131 L 62.9187 6.67093 L 63.2081 6.59124 L 63.5803 6.50014 L 63.7433 6.45702 L 65.2924 6.03007 L 66.5933 5.72493 L 67.2732 5.58279 L 67.3681 5.56142 L 67.4804 5.53632 L 70.106 5.45372 L 72.4146 5.44106 L 73.3831 5.44198 L 73.8268 5.43924 L 75.5257 5.40101 L 77.1048 5.39178 L 78.3701 5.36152 L 79.7728 5.22285 L 80.8037 5.15658 L 82.6434 5.05523 L 85.1939 4.84535 L 86.0744 4.70946 L 86.6225 4.64251Z " fill-rule="evenodd" fill="rgb(220,220,220)" stroke="rgb(255,0,0)" />

<text x="90.6332" y="16.9264" fill="rgb(0,0,0)" style="font:5pt Times New Roman">33.2</text>

</svg>