<?xml version="1.0"?>
<svg version="1.0" xmlns="http://www.w3.org/2000/svg" width="175pt" height="37pt" viewBox="0 0 175 37">

<path d="M 15.7992 1.00767 L 15.7992 1.00767 L 15.9265 1.03732 L 17.0891 1.40282 L 18.4066 1.77866 L 19.0414 1.99728 L 20.083 2.31796 L 21.1085 2.66463 L 25.6055 4.65051 L 26.0275 4.77469 L 26.5345 4.93462 L 26.7057 5.06399 L 27.0473 5.13333 L 27.2782 5.19424 L 28.6629 5.95198 L 32.0571 7.40511 L 32.1065 8.55554 L 32.612 10.22 L 32.8317 10.8089 L 32.9417 11.1384 L 31.5657 11.8946 L 31.1163 12.2428 L 30.05 13.2997 L 29.1067 14.3124 L 28.6141 14.7805 L 27.1966 16.1126 L 26.7456 16.229 L 25.9152 16.456 L 22.699 17.4409 L 22.5311 17.4587 L 22.4253 17.462 L 22.3798 17.4474 L 21.4753 17.1641 L 21.3758 17.0668 L 20.9453 16.676 L 17.8533 15.5817 L 15.9236 14.7186 L 15.376 14.4707 L 14.8114 14.2434 L 14.4812 14.0718 L 12.9464 13.2658 L 12.442 12.5122 L 12.0252 11.8829 L 9.56623 11.1263 L 9.3101 11.0339 L 7.42325 10.2334 L 6.59633 9.88027 L 5.92487 9.63303 L 4.79525 8.94783 L 4.49992 8.80102 L 4.05969 8.50789 L 3.85036 8.5031 L 3.49795 8.55262 L 3.3554 8.54903 L 3.28391 8.54346 L 3.0325 7.6303 L 2.73451 6.53272 L 3.43125 5.51042 L 3.62999 5.31725 L 4.28955 4.53729 L 4.79296 4.04739 L 5.12207 3.60809 L 5.7124 3.04778 L 6.10967 2.71747 L 6.44801 2.43755 L 6.57398 2.33062 L 7.12376 1.81879 L 7.24035 1.70765 L 7.98069 0.883603 L 7.99347 0.870588 L 8.08174 0.790166 L 12.9312 0.667569 L 14.9242 0.669463Z " fill-rule="evenodd" fill="rgb(220,220,220)" stroke="rgb(255,0,0)" />

<text x="9.84514" y="10.7495" fill="rgb(0,0,0)" style="font:5pt Times New Roman">34.1</text>

<path d="M 84.7259 5.40144 L 84.7259 5.40144 L 86.1041 5.32551 L 87.2657 5.192 L 89.3516 4.8978 L 91.1191 4.43669 L 92.0204 4.41036 L 92.8327 4.50921 L 93.5511 4.65883 L 94.2109 4.64959 L 95.1099 4.71698 L 95.9207 4.73999 L 97.437 4.83484 L 98.598 4.75768 L 100.077 4.65201 L 101.744 4.50871 L 104.157 4.29331 L 105.032 4.22338 L 106.939 3.87959 L 107.282 3.8327 L 107.749 3.72026 L 108.816 3.52464 L 110.482 3.20271 L 115.886 2.09219 L 123.819 0.495747 L 126.321 0.49516 L 135.079 0.675538 L 141.545 3.33559 L 141.756 3.42563 L 141.908 3.5 L 141.912 3.66036 L 140.808 8.14455 L 139.474 13.2751 L 138.684 14.4505 L 138.145 15.093 L 136.31 17.6095 L 135.901 18.184 L 135.699 18.4347 L 132.283 19.6614 L 131.122 20.1166 L 127.34 20.3718 L 124.451 20.5983 L 120.397 21.1432 L 116.002 22.025 L 115.286 22.2467 L 114.89 22.3712 L 114.099 22.2435 L 113.73 22.1832 L 108.2 22.9467 L 103.299 23.665 L 102.629 23.8793 L 102.03 24.0796 L 101.57 23.8995 L 101 23.6841 L 97.814 23.4715 L 93.182 23.1611 L 89.8921 23.0508 L 88.4401 22.8435 L 87.7791 23.0946 L 87.5405 23.1845 L 86.5832 22.9285 L 86.1984 22.8222 L 80.6924 21.1574 L 67.4299 17.2353 L 65.4012 15.8261 L 64.1254 14.9689 L 60.9603 13.0075 L 61.165 8.42561 L 61.2107 7.07042 L 63.6364 6.57277 L 64.4959 6.34118 L 65.7306 6.00739 L 67.7946 5.93425 L 72.3287 5.72883 L 72.9084 5.69725 L 74.8245 5.59492 L 76.1701 5.54023 L 76.5136 5.53531 L 78.4514 5.49457 L 79.528 5.4607 L 80.4069 5.45588 L 83.2407 5.45856 L 83.3295 5.45802 L 83.6695 5.45037 L 83.9856 5.44852 L 84.2388 5.44246 L 84.5196 5.41471Z " fill-rule="evenodd" fill="rgb(220,220,220)" stroke="rgb(255,0,0)" />

<text x="117.283" y="13.469" fill="rgb(0,0,0)" style="font:5pt Times New Roman">34.2</text>

</svg>