<?xml version="1.0"?>
<svg version="1.0" xmlns="http://www.w3.org/2000/svg" width="175pt" height="37pt" viewBox="0 0 175 37">

<path d="M 17.2034 14.1655 L 17.2034 14.1655 L 15.5955 13.3211 L 14.7673 12.8581 L 14.454 12.6764 L 14.2602 12.5769 L 13.5801 12.2127 L 12.3539 11.3805 L 12.0439 11.1074 L 11.5694 10.7628 L 11.1917 10.2585 L 10.4081 9.72442 L 9.73585 9.25774 L 8.25065 8.46004 L 7.38621 6.32464 L 7.24237 5.98764 L 7.30918 5.91961 L 7.32244 5.90753 L 8.22692 4.98059 L 8.91257 4.26488 L 9.3749 3.55673 L 12.752 0.553294 L 12.8051 0.50271 L 12.8358 0.473236 L 12.8541 0.457609 L 13.0173 0.324212 L 18.478 0.450005 L 20.2686 0.431237 L 22.3092 1.13384 L 24.3146 2.10224 L 25.1888 2.53038 L 25.4322 2.59375 L 26.2136 2.96628 L 26.8205 3.22165 L 31.8629 5.32933 L 35.5905 6.75639 L 36.5782 7.16056 L 37.3854 7.73338 L 38.3191 9.53704 L 40.0338 11.2746 L 40.7983 11.8134 L 40.884 12.1579 L 38.8078 12.8903 L 37.3422 13.2302 L 36.4141 13.6873 L 35.5662 14.0651 L 33.5631 15.0878 L 33.1656 15.2635 L 32.2864 15.6647 L 31.678 15.7835 L 28.6024 16.842 L 26.7193 17.4856 L 26.3439 17.62 L 25.1702 17.3705 L 24.4317 17.1467 L 23.5804 16.9197 L 23.1834 16.8086 L 23.0291 16.794 L 22.1428 16.3705 L 21.5979 16.3609 L 21.4117 16.3368 L 21.2323 16.3122 L 20.907 16.165 L 20.5431 16.0003 L 20.1867 15.8609 L 20.0156 15.7056 L 19.5388 15.2718 L 18.6209 14.9024Z " fill-rule="evenodd" fill="rgb(220,220,220)" stroke="rgb(255,0,0)" />

<text x="18.1369" y="12.8182" fill="rgb(0,0,0)" style="font:5pt Times New Roman">35.1</text>

<path d="M 96.457 4.88482 L 96.457 4.88482 L 97.005 4.8484 L 97.7031 4.79852 L 98.4902 4.73087 L 99.6292 4.62919 L 100.909 4.52683 L 104.545 4.04696 L 104.854 4.00673 L 105.363 3.99246 L 121.407 0.813187 L 122.973 0.517279 L 125.41 0.544625 L 134.332 0.753918 L 136.272 1.63585 L 141.062 3.73694 L 140.347 6.64472 L 138.665 13.5646 L 137.196 15.6273 L 135.659 17.5351 L 135.111 18.3232 L 134.723 18.6929 L 131.245 20.0515 L 130.002 20.555 L 121.507 21.6091 L 115.788 22.3542 L 115.299 22.5077 L 114.699 22.7 L 114.043 22.5985 L 113.555 22.5189 L 109.509 23.1112 L 103.459 24.12 L 102.54 24.4545 L 102.169 24.5801 L 101.463 24.2901 L 101.166 24.1701 L 90.4721 23.3627 L 89.8906 23.3239 L 89.4928 23.2973 L 88.6095 23.6333 L 88.5653 23.6501 L 87.318 23.3264 L 87.2294 23.3027 L 85.9311 22.9187 L 65.5187 17.4003 L 65.4045 17.3283 L 62.2084 15.3262 L 60.3807 14.7664 L 59.1155 14.2058 L 58.6851 13.9899 L 57.6499 13.5548 L 56.847 13.1052 L 56.0256 8.27452 L 55.9834 7.56467 L 56.6212 7.45787 L 58.1786 7.33191 L 60.485 6.96161 L 62.3567 6.69669 L 64.4013 6.33877 L 64.8741 6.32498 L 68.2619 6.20852 L 71.531 6.00141 L 73.9658 5.85943 L 78.2285 5.89257 L 79.8218 5.8361 L 81.0726 5.77944 L 81.2325 5.77072 L 84.8954 5.57512 L 85.8492 5.48083 L 88.4098 5.30374 L 90.2105 5.21952 L 91.6556 5.05342 L 92.6403 4.91454 L 93.4746 4.69687 L 93.9001 4.68444 L 94.2835 4.7311 L 94.6227 4.80173 L 94.9341 4.79737 L 95.3585 4.82919 L 95.7412 4.84005Z " fill-rule="evenodd" fill="rgb(220,220,220)" stroke="rgb(255,0,0)" />

<text x="116.418" y="13.7104" fill="rgb(0,0,0)" style="font:5pt Times New Roman">35.2</text>

</svg>