<?xml version="1.0"?>
<svg version="1.0" xmlns="http://www.w3.org/2000/svg" width="175pt" height="37pt" viewBox="0 0 175 37">

<path d="M 60.8866 17.5859 L 60.8866 17.5859 L 59.1062 16.6931 L 58.7493 16.543 L 58.169 16.2181 L 56.7023 15.3837 L 53.8185 14.6117 L 52.784 14.1529 L 51.6177 13.5573 L 50.5872 13.5093 L 49.5847 13.8796 L 47.5181 13.7488 L 46.739 13.9005 L 45.6272 14.0582 L 44.8644 14.0585 L 43.4568 14.066 L 40.6805 14.8782 L 38.1129 15.737 L 36.0971 16.5967 L 31.5665 17.7792 L 31.3911 17.7584 L 30.9437 17.6846 L 27.6762 17.0745 L 26.7657 17.1358 L 24.5106 16.6502 L 22.6231 15.8635 L 21.7606 15.4139 L 21.1933 15.0631 L 20.6934 14.7498 L 20.3084 14.4807 L 19.8034 14.3621 L 19.2357 14.2214 L 19.0672 14.1245 L 18.8426 13.9954 L 18.1959 13.6072 L 18.1649 13.5708 L 18.1374 13.5415 L 17.8713 13.2569 L 17.4253 12.7333 L 14.3146 10.6221 L 13.3653 9.78566 L 12.4999 9.15726 L 11.4115 6.38006 L 11.1317 5.6533 L 11.3485 5.44564 L 12.0542 4.84175 L 12.3897 4.5675 L 13.018 4.08073 L 13.2296 3.87585 L 13.7382 3.41253 L 14.3026 2.94673 L 16.4728 1.58567 L 16.9429 1.24115 L 18.5477 0.611997 L 22.236 0.602504 L 23.3727 0.58683 L 23.4917 0.580714 L 23.6767 0.542738 L 24.0704 0.461633 L 24.9167 0.560885 L 30.4848 2.76955 L 38.1565 5.69799 L 38.474 5.71179 L 38.5983 5.7112 L 42.3519 6.04545 L 44.3426 5.92046 L 46.2122 5.95945 L 48.802 6.64914 L 51.006 6.25222 L 51.2525 6.26791 L 52.2342 6.09779 L 52.7881 6.1192 L 59.3457 5.98493 L 62.7679 5.74432 L 80.5392 5.54559 L 82.2789 5.53851 L 82.8813 5.53631 L 84.2238 5.59481 L 93.4404 5.07195 L 95.7788 4.8697 L 98.3579 4.53327 L 103.598 4.38652 L 104.692 4.33246 L 110.412 3.06716 L 113.894 2.37599 L 122.451 0.761479 L 126.272 0.717859 L 130.129 0.777793 L 133.581 0.845946 L 138.002 2.85352 L 140.34 3.92255 L 139.715 6.49735 L 138.767 10.4127 L 138.468 11.71 L 137.974 13.9284 L 135.954 16.8307 L 134.527 18.1896 L 133.726 19.0209 L 130.565 20.3083 L 128.983 20.9866 L 122.386 21.8673 L 115.576 22.6677 L 115.265 22.7676 L 114.507 22.9857 L 113.665 22.9033 L 113.381 22.8595 L 111.215 23.2162 L 103.654 24.4633 L 102.418 24.9197 L 102.347 24.9449 L 101.452 24.5871 L 101.364 24.5514 L 92.0635 24.0171 L 90.515 23.8993 L 89.7167 24.2187 L 89.597 24.2643 L 88.4087 23.9599 L 88.2336 23.9141 L 85.455 23.1603 L 81.7493 22.254 L 64.0338 17.9314 L 62.0866 17.9756 L 61.0488 17.6578Z " fill-rule="evenodd" fill="rgb(220,220,220)" stroke="rgb(255,0,0)" />

<text x="110.711" y="14.9167" fill="rgb(0,0,0)" style="font:5pt Times New Roman">36.1</text>

</svg>