<?xml version="1.0"?>
<svg version="1.0" xmlns="http://www.w3.org/2000/svg" width="175pt" height="37pt" viewBox="0 0 175 37">

<path d="M 120.906 11.7176 L 120.906 11.7176 L 126.146 11.1116 L 125.584 11.043Z M 136.379 15.7365 L 136.379 15.7365 L 134.983 17.185 L 133.429 18.8895 L 132.694 19.5458 L 129.843 20.7618 L 128.172 21.5273 L 122.181 22.2516 L 115.115 23.1068 L 114.899 23.1691 L 114.316 23.2782 L 113.685 23.2738 L 113.455 23.2524 L 109.009 23.9553 L 103.851 24.8009 L 102.74 25.1918 L 102.51 25.2924 L 101.709 24.9443 L 101.577 24.8864 L 100.833 24.8334 L 98.5679 24.7216 L 93.8657 24.5223 L 91.5603 24.3889 L 91.3527 24.4726 L 90.5512 24.793 L 89.6707 24.5858 L 89.2477 24.4774 L 70.2078 20.3962 L 63.1382 18.697 L 61.5664 18.5923 L 60.2183 18.5513 L 59.6937 18.4858 L 55.5291 18.9252 L 52.9087 18.2237 L 52.6301 18.1002 L 52.316 17.9397 L 52.0384 17.9268 L 51.7684 18.0265 L 43.7838 17.5214 L 40.7734 18.1075 L 40.2995 18.1747 L 37.588 18.2709 L 36.5959 18.1335 L 33.1868 17.9054 L 32.0268 17.7677 L 29.2918 17.3162 L 26.4647 16.4705 L 25.5672 16.2247 L 25.0133 15.8885 L 22.9519 14.6921 L 22.7063 14.3928 L 21.1524 13.0206 L 20.1309 12.2201 L 17.638 10.6154 L 17.5472 10.5769 L 17.4918 10.5278 L 16.7507 10.3458 L 16.486 9.99673 L 16.2018 8.72456 L 15.6251 5.71014 L 17.8478 4.45051 L 18.7951 4.12046 L 20.4367 3.44566 L 20.8693 3.26633 L 22.386 2.45897 L 23.0418 2.16445 L 24.702 1.11041 L 25.9063 0.915816 L 28.1956 0.761887 L 28.7817 0.73024 L 29.0066 0.693425 L 30.6547 1.36684 L 37.0786 4.01711 L 38.7375 4.3029 L 40.8168 4.3069 L 42.6672 4.38109 L 44.0687 4.69415 L 48.6825 4.52151 L 49.4615 4.55537 L 50.9501 4.54824 L 54.9561 4.5338 L 57.9891 4.65983 L 59.8879 4.71714 L 63.5555 4.82911 L 75.652 5.12313 L 84.2505 5.47804 L 87.0438 5.2563 L 97.715 4.67127 L 97.9801 4.65722 L 98.7745 4.63385 L 103.936 4.4631 L 105.624 4.16655 L 106.998 3.88126 L 112.978 2.75146 L 121.522 1.11815 L 130.185 1.0204 L 132.253 1.00179 L 133.395 1.54042 L 139.68 4.20321 L 139.678 4.21094 L 137.389 14.4877 L 136.797 15.3383Z " fill-rule="evenodd" fill="rgb(220,220,220)" stroke="rgb(255,0,0)" />

<text x="87.8624" y="16.7482" fill="rgb(0,0,0)" style="font:5pt Times New Roman">37.1</text>

</svg>