<?xml version="1.0"?>
<svg version="1.0" xmlns="http://www.w3.org/2000/svg" width="175pt" height="37pt" viewBox="0 0 175 37">

<path d="M 111.332 13.2677 L 111.332 13.2677 L 113.034 13.0696 L 113.21 13.0678 L 121.392 12.2186 L 125.141 11.804 L 124.757 11.6912 L 126.41 10.9948 L 122.526 11.8191 L 122.062 11.9014 L 73.2983 15.0832Z M 50.925 4.03413 L 50.925 4.03413 L 53.7326 3.95315 L 64.3183 4.39344 L 73.7038 4.60223 L 81.3791 5.05343 L 85.4766 5.39065 L 91.4858 5.2533 L 94.6508 5.01558 L 96.5692 4.94429 L 97.7133 4.92101 L 98.2037 4.93234 L 98.6771 4.94331 L 99.6065 4.7949 L 101.658 4.6972 L 102.695 4.64942 L 120.25 1.57028 L 120.591 1.51031 L 120.798 1.46734 L 130.261 1.2999 L 131.149 1.28814 L 134.415 2.65948 L 139.133 4.62002 L 138.306 8.29356 L 137.87 10.2603 L 136.771 15.0041 L 134.424 17.5784 L 132.662 19.1518 L 131.727 20.0362 L 129.159 21.2115 L 127.36 22.0556 L 122.535 22.645 L 114.241 23.4933 L 114.109 23.5181 L 113.964 23.5171 L 113.083 23.6094 L 108.925 24.3703 L 105.344 25.0531 L 103.989 25.289 L 103.745 25.3977 L 102.637 25.8589 L 101.855 25.5271 L 101.709 25.4431 L 100.528 25.4065 L 97.1387 25.1876 L 94.2874 24.9845 L 92.6009 24.9012 L 92.3422 25.0037 L 91.5339 25.3771 L 90.6063 25.1549 L 90.2556 25.0709 L 82.8232 23.4786 L 63.0125 19.3575 L 62.4412 19.3979 L 60.2191 19.2467 L 54.7285 19.8302 L 53.0019 19.6985 L 51.4679 19.7593 L 44.491 19.2748 L 40.4379 18.787 L 39.545 18.8101 L 38.6167 18.8431 L 35.8941 18.466 L 31.5795 17.2753 L 28.8959 16.5402 L 27.7516 15.8457 L 25.2222 13.2448 L 24.5765 12.2267 L 23.8731 11.5485 L 22.7325 8.67466 L 21.7021 6.06393 L 23.3774 5.12829 L 24.0671 4.75703 L 25.853 3.78812 L 27.9719 2.47269 L 28.5151 2.15799 L 28.7171 2.01764 L 29.166 1.67461 L 31.1191 1.25784 L 33.0064 0.753835 L 34.5312 1.27878 L 37.4 2.24261 L 39.8663 2.62937 L 43.1478 3.06421 L 45.6803 3.61421 L 46.9701 3.79359 L 47.7482 3.92764 L 48.2951 3.92869Z " fill-rule="evenodd" fill="rgb(220,220,220)" stroke="rgb(255,0,0)" />

<text x="35.4728" y="13.9433" fill="rgb(0,0,0)" style="font:5pt Times New Roman">38.1</text>

</svg>