<?xml version="1.0"?>
<svg version="1.0" xmlns="http://www.w3.org/2000/svg" width="175pt" height="37pt" viewBox="0 0 175 37">

<path d="M 124.33 12.3673 L 124.33 12.3673 L 124.046 12.5868 L 121.502 12.7681 L 112.949 13.5557 L 111.795 13.7031 L 110.068 14.0326 L 101.337 15.3473 L 102.54 15.0189 L 106.469 14.3419 L 108.073 14.1207 L 112.756 13.4049 L 115.682 12.9217 L 118.936 12.3627 L 120.733 11.994Z M 135.419 16.2674 L 135.419 16.2674 L 134.887 16.7424 L 133.636 17.9266 L 130.988 20.567 L 129.142 21.4352 L 126.549 22.647 L 122.507 23.0862 L 113.904 23.8785 L 113.617 23.9087 L 111.877 24.2405 L 104.144 25.5871 L 102.752 26.2076 L 102.686 26.235 L 102.64 26.2153 L 101.873 25.7726 L 95.6444 25.5794 L 93.6341 25.4496 L 92.9151 25.66 L 92.5556 25.8265 L 91.7988 25.6743 L 91.2862 25.5535 L 84.3045 24.3777 L 63.1005 19.9668 L 61.6617 20.0686 L 60.6476 19.9996 L 58.1418 20.2659 L 53.6805 19.9254 L 49.7172 20.0826 L 42.4514 19.578 L 40.299 19.2085 L 38.0838 18.5947 L 32.8041 17.1225 L 30.4584 15.3441 L 29.356 13.9574 L 28.4982 13.0583 L 26.7958 6.80121 L 26.755 6.65972 L 26.8001 6.63358 L 28.676 5.32976 L 29.4822 4.71374 L 31.8503 2.67054 L 32.2586 2.34681 L 32.7402 1.88198 L 35.0031 1.1676 L 36.8802 0.574544 L 37.5498 0.789082 L 38.147 0.99334 L 41.617 1.79305 L 47.3466 2.65928 L 49.2276 2.9992 L 49.7426 3.07996 L 51.0232 3.24967 L 53.6589 3.3083 L 54.5473 3.36052 L 56.5937 3.52894 L 72.4051 4.63028 L 87.2206 5.49529 L 91.2236 5.34655 L 95.12 5.26727 L 96.7902 5.30583 L 98.4025 5.34319 L 98.9927 5.24895 L 100.545 4.84571 L 104.8 4.11028 L 106.544 3.86717 L 111.143 3.16425 L 113.957 2.69929 L 117.204 2.14165 L 120.202 1.64066 L 126.327 1.67379 L 130.732 1.63034 L 135.23 3.5453 L 138.59 4.9816 L 137.566 9.28711 L 136.128 15.4902Z " fill-rule="evenodd" fill="rgb(220,220,220)" stroke="rgb(255,0,0)" />

<text x="81.7735" y="17.6774" fill="rgb(0,0,0)" style="font:5pt Times New Roman">39.1</text>

</svg>