<?xml version="1.0"?>
<svg version="1.0" xmlns="http://www.w3.org/2000/svg" width="175pt" height="37pt" viewBox="0 0 175 37">

<path d="M 77.9036 13.1742 L 77.9036 13.1742 L 86.601 14.6363 L 91.9658 15.4951 L 94.5602 15.6869 L 98.5962 15.8091 L 109.356 14.6428 L 112.828 14.0677 L 123.773 13.3168 L 125.1 11.9923 L 122.936 11.9176 L 119.955 11.8907 L 117.117 12.3068 L 101.527 15.0019 L 100.832 15.1478 L 99.313 15.2636 L 97.6985 15.2778Z M 61.2285 20.7148 L 61.2285 20.7148 L 60.7531 20.6727 L 60.1002 20.5905 L 54.3592 20.1523 L 48.4254 20.3877 L 48.1633 20.3808 L 47.9246 20.3587 L 42.4641 19.4213 L 37.6666 18.092 L 36.7965 17.7262 L 36.3063 17.5013 L 32.8562 15.1995 L 32.0989 14.694 L 30.6118 8.00612 L 30.4422 7.33029 L 30.7412 7.09323 L 31.0824 6.76399 L 33.9406 4.12859 L 36.2631 1.73118 L 37.0271 1.49857 L 37.4427 1.37913 L 38.5845 0.873875 L 39.152 0.644958 L 39.5301 0.521003 L 40.7815 0.747666 L 44.6493 1.34799 L 51.1363 2.63399 L 61.1958 3.12263 L 73.4674 3.73915 L 98.2152 5.04589 L 98.9414 5.02539 L 99.4052 5.0027 L 99.7626 4.90987 L 115.436 2.20066 L 119.235 1.67111 L 122.929 1.6726 L 129.87 1.66373 L 132.309 2.70876 L 138.037 5.21704 L 137.491 7.50568 L 135.532 16.0552 L 132.572 19.0094 L 130.319 21.1976 L 129.446 21.606 L 125.765 23.3566 L 125.744 23.3661 L 125.742 23.3674 L 125.712 23.3696 L 113.771 24.2692 L 111.298 24.7021 L 104.319 26.0941 L 103.199 26.554 L 102.871 26.7026 L 102.674 26.5849 L 102.057 26.2775 L 98.1156 26.0428 L 94.6811 25.9311 L 94.1484 26.0896 L 93.5693 26.3206 L 92.8326 26.1608 L 92.3143 26.0479 L 90.1845 25.584 L 84.9307 24.7442 L 75.9747 23.236 L 63.1884 20.5762Z " fill-rule="evenodd" fill="rgb(220,220,220)" stroke="rgb(255,0,0)" />

<text x="41.0559" y="13.7214" fill="rgb(0,0,0)" style="font:5pt Times New Roman">40.1</text>

</svg>