<?xml version="1.0"?>
<svg version="1.0" xmlns="http://www.w3.org/2000/svg" width="175pt" height="37pt" viewBox="0 0 175 37">

<path d="M 88.5535 15.2121 L 88.5535 15.2121 L 95.4997 16.2453 L 99.9633 16.4869 L 108.773 15.2554 L 112.529 14.5514 L 120.416 13.976 L 122.285 14.0131 L 124.131 12.9473 L 123.603 13.435 L 125.324 11.8692 L 126.019 11.9349 L 125.143 11.5205 L 118.298 11.5949 L 115.253 12.1617 L 100.707 14.6032 L 93.6627 14.3858 L 78.6909 13.624Z M 62.6067 21.2328 L 62.6067 21.2328 L 59.169 20.9283 L 55.535 20.471 L 54.7832 20.3324 L 50.2618 20.2136 L 45.3574 19.759 L 44.6292 19.634 L 43.9893 19.4567 L 37.6275 16.7822 L 36.4101 16.2236 L 35.0314 12.2896 L 34.4128 9.79974 L 33.9662 7.61705 L 35.887 5.67219 L 36.905 4.40717 L 38.2478 3.03757 L 38.8934 1.76119 L 39.4071 1.59315 L 44.0069 0.790187 L 47.2181 1.33846 L 51.0001 2.0221 L 76.1583 3.35898 L 94.171 4.27548 L 99.6195 4.53865 L 113.564 2.18045 L 117.608 1.49542 L 125.002 1.39843 L 128.729 1.34093 L 134.54 3.69487 L 137.458 4.85239 L 135.875 12.273 L 134.986 16.6327 L 132.189 19.3084 L 129.668 21.5399 L 128.464 22.0962 L 124.928 23.7852 L 121.158 24.0718 L 113.593 24.6183 L 110.866 25.1597 L 104.526 26.5343 L 103.379 26.9543 L 103.035 27.0946 L 102.832 26.9963 L 102.269 26.7523 L 99.3649 26.5923 L 95.7378 26.3656 L 94.9255 26.6967 L 94.6146 26.8265 L 93.4638 26.6125 L 93.3327 26.5904 L 93.0163 26.5273 L 92.7676 26.4819 L 86.8035 25.1828 L 70.7049 22.6095 L 67.645 22.0942 L 63.2763 21.1855Z " fill-rule="evenodd" fill="rgb(220,220,220)" stroke="rgb(255,0,0)" />

<text x="44.7396" y="14.0424" fill="rgb(0,0,0)" style="font:5pt Times New Roman">41.1</text>

</svg>