<?xml version="1.0"?>
<svg version="1.0" xmlns="http://www.w3.org/2000/svg" width="175pt" height="37pt" viewBox="0 0 175 37">

<path d="M 85.1079 14.9235 L 85.1079 14.9235 L 89.8337 15.9433 L 92.6012 16.4472 L 96.1361 16.8473 L 99.6369 17.0247 L 107.898 15.9511 L 112.175 15.0651 L 119.133 14.5093 L 121.987 14.4333 L 122.554 13.8306 L 123.598 13.4233 L 123.82 13.0678 L 115.934 11.4303 L 113.88 11.8207 L 100.523 14.3102 L 90.4969 13.8883 L 55.2882 10.3585 L 59.6051 11.1941 L 59.9708 11.2928 L 63.236 11.5825 L 64.192 11.688 L 64.9762 11.7723 L 66.3911 11.9312Z M 64.8383 21.8111 L 64.8383 21.8111 L 63.9367 21.7192 L 63.1014 21.6295 L 62.3016 21.5398 L 58.8327 21.2289 L 57.7087 21.0138 L 53.3993 20.1796 L 52.729 20.056 L 52.3604 20.0463 L 51.8265 19.9968 L 45.0289 18.5785 L 42.8361 17.8162 L 41.5246 17.2605 L 38.9175 13.1419 L 38.222 10.3947 L 37.4313 8.01688 L 38.3298 7.10041 L 38.5242 6.71601 L 39.622 5.87733 L 40.0927 4.65767 L 41.1986 2.04054 L 43.7417 1.86424 L 47.3666 1.52864 L 48.4698 1.43617 L 49.4381 1.26714 L 50.5648 1.45952 L 91.0854 3.90453 L 99.6143 4.35041 L 112.013 1.99528 L 114.243 1.57169 L 115.382 1.3816 L 126.253 1.2094 L 126.883 1.19957 L 127.248 1.19424 L 127.918 1.43763 L 136.972 4.70617 L 134.528 16.9097 L 134.522 16.9395 L 134.517 16.9631 L 130.449 20.5559 L 129.032 21.8197 L 126.993 22.7926 L 124.301 24.1631 L 119.89 24.4817 L 113.401 24.9908 L 110.243 25.6734 L 104.697 27.0902 L 103.905 27.4349 L 103.499 27.5845 L 103.277 27.4897 L 102.465 27.2782 L 98.8446 26.9944 L 96.7888 26.8271 L 95.8903 27.1876 L 95.7531 27.2359 L 95.2127 27.1397 L 94.3784 26.9988 L 90.7158 26.269 L 87.8353 25.7428 L 83.4225 24.7816Z " fill-rule="evenodd" fill="rgb(220,220,220)" stroke="rgb(255,0,0)" />

<text x="43.0122" y="12.363" fill="rgb(0,0,0)" style="font:5pt Times New Roman">42.1</text>

</svg>