<?xml version="1.0"?>
<svg version="1.0" xmlns="http://www.w3.org/2000/svg" width="175pt" height="37pt" viewBox="0 0 175 37">

<path d="M 81.7064 14.6425 L 81.7064 14.6425 L 84.7908 15.3065 L 90.249 16.3031 L 93.7253 16.9955 L 97.4078 17.4736 L 100.644 17.6368 L 105.102 17.4342 L 111.825 15.8382 L 116.838 15.4005 L 121.678 14.7791 L 121.224 14.6796 L 122.84 13.9465 L 123.91 12.8633 L 125.469 11.4734 L 123.741 10.6779 L 123.717 11.0344 L 120.619 11.0755 L 113.226 11.1558 L 112.587 11.4042 L 102.822 13.7359 L 102.197 13.8841 L 100.507 14.1827 L 98.5727 14.1712 L 98.4532 14.1621 L 94.8987 13.9436 L 60.9288 11.7601 L 61.1903 11.8139 L 61.2418 11.7971 L 63.7202 12.075 L 66.2416 12.3457 L 69.4465 12.6828Z M 67.9908 22.4542 L 67.9908 22.4542 L 65.2147 22.1715 L 62.6429 21.8953 L 60.1802 21.6192 L 59.6398 21.5707 L 58.4876 21.3502 L 57.1476 20.9691 L 56.8545 20.8494 L 56.539 20.7414 L 56.1951 20.6276 L 52.8685 19.5362 L 51.4331 19.109 L 48.8704 18.2924 L 45.883 17.5584 L 44.9933 16.4901 L 44.2307 15.3636 L 42.2586 12.7758 L 40.7517 9.68304 L 41.9166 7.44679 L 42.2438 6.46553 L 42.9439 4.4476 L 43.4373 3.4601 L 43.7628 2.28973 L 44.7567 2.16676 L 45.5105 2.12182 L 47.021 2.08318 L 48.7603 1.97804 L 49.2673 1.96375 L 50.5957 1.84675 L 54.7209 1.58395 L 55.6202 1.52801 L 58.3476 1.69347 L 61.5628 1.90122 L 95.5298 4.08457 L 99.0675 4.302 L 99.3499 4.32259 L 99.6067 4.34455 L 99.9226 4.27019 L 100.529 4.12652 L 110.34 1.78402 L 112.656 1.29308 L 120.495 1.19708 L 123.586 1.15603 L 126.243 1.12075 L 135.269 4.21424 L 136.418 4.61418 L 136.287 5.25297 L 133.805 17.2919 L 132.025 18.8644 L 130.501 20.2226 L 128.389 22.12 L 125.67 23.502 L 123.818 24.4237 L 117.933 25.2189 L 113.507 25.5732 L 107.453 27.0296 L 104.854 27.6936 L 104.016 27.9656 L 103.755 28.0786 L 103.463 28.004 L 102.655 27.8224 L 99.6696 27.4678 L 97.8286 27.3438 L 97.2687 27.5701 L 96.8385 27.7224 L 95.5991 27.4951 L 95.4134 27.46 L 95.1484 27.4012 L 91.7272 26.6706 L 88.4153 26.0106 L 82.903 25.0037 L 80.0415 24.3804Z " fill-rule="evenodd" fill="rgb(220,220,220)" stroke="rgb(255,0,0)" />

<text x="44.3366" y="11.0871" fill="rgb(0,0,0)" style="font:5pt Times New Roman">43.1</text>

</svg>