<?xml version="1.0"?>
<svg version="1.0" xmlns="http://www.w3.org/2000/svg" width="175pt" height="37pt" viewBox="0 0 175 37">

<path d="M 78.3049 14.3615 L 78.3049 14.3615 L 79.7692 14.6745 L 87.9 16.1597 L 90.2181 16.6211 L 92.5231 17.1132 L 95.3133 17.7355 L 99.3594 18.1722 L 100.827 18.3203 L 111.547 16.8211 L 116.042 15.9143 L 120.465 15.275 L 122.641 14.2143 L 121.737 14.6275 L 124.178 12.613 L 123.394 10.4828 L 118.444 10.8003 L 117.841 10.8368 L 115.844 10.9691 L 110.5 11.2789 L 109.554 11.5893 L 104.706 12.7475 L 99.2987 13.7453 L 88.5714 12.5746 L 77.0712 11.3407 L 66.4493 10.4584 L 61.4974 10.9196 L 60.872 11.2691 L 62.0894 11.7776 L 62.9216 12 L 64.2015 12.3298 L 67.3404 12.9219 L 67.4893 12.9174 L 72.4325 13.4256Z M 71.1432 23.0973 L 71.1432 23.0973 L 66.4927 22.6237 L 65.6734 22.5357 L 62.1925 21.878 L 60.4055 21.4273 L 58.9046 21.0005 L 57.4536 20.408 L 55.8918 19.8735 L 54.1896 19.3102 L 53.2216 18.9927 L 51.3081 18.4232 L 50.2241 17.2086 L 49.5267 16.5496 L 47.0547 14.1777 L 44.6524 11.276 L 44.4843 11.0742 L 44.2885 10.785 L 44.4187 10.5245 L 44.4504 10.4104 L 44.5226 10.1558 L 45.9454 6.73591 L 46.3388 4.97063 L 46.875 2.96649 L 47.5135 2.81002 L 49.4991 2.628 L 50.2381 2.53915 L 51.1079 2.45374 L 60.4073 1.22343 L 66.6731 0.703708 L 77.9899 1.62673 L 89.6331 2.87527 L 99.6038 3.99282 L 102.371 3.27372 L 107.28 2.10079 L 109.44 1.57934 L 115.244 1.23034 L 117.218 1.09936 L 118.05 1.05093 L 124.605 0.800818 L 130.497 2.60668 L 135.698 4.29036 L 134.255 11.55 L 133.589 14.8374 L 133.013 17.6201 L 128.386 21.7687 L 127.727 22.5416 L 124.327 24.247 L 123.355 24.7049 L 117.673 25.5342 L 113.608 26.3582 L 105.29 28.2105 L 105.018 28.2696 L 104.828 28.3147 L 103.907 28.563 L 102.985 28.4143 L 102.841 28.3816 L 99.6954 28.0118 L 98.8568 27.9166 L 98.7822 27.9647 L 97.889 28.4747 L 96.8262 28.2268 L 96.4056 28.1303 L 92.9565 27.2039 L 90.4447 26.6466 L 88.2446 26.1767 L 86.1147 25.7523 L 77.9706 24.2646 L 76.6606 23.9792Z " fill-rule="evenodd" fill="rgb(220,220,220)" stroke="rgb(255,0,0)" />

<text x="47.9648" y="12.7025" fill="rgb(0,0,0)" style="font:5pt Times New Roman">44.1</text>

</svg>