<?xml version="1.0"?>
<svg version="1.0" xmlns="http://www.w3.org/2000/svg" width="175pt" height="37pt" viewBox="0 0 175 37">

<path d="M 85.5607 16.0182 L 85.5607 16.0182 L 86.7109 16.2466 L 87.7935 16.4777 L 89.1996 16.7932 L 91.142 17.3135 L 93.8107 18.0451 L 99.1306 19.2099 L 101.534 19.3202 L 103.625 19.4364 L 107.906 18.5939 L 111.725 17.721 L 119.121 16.2247 L 122.511 13.4563 L 122.077 10.4397 L 122.739 10.2328 L 114.959 10.8355 L 108.199 12.0555 L 105.415 12.4784 L 105.032 12.581 L 104.269 12.7059 L 99.0574 13.5011 L 89.3036 12.1716 L 72.2104 9.86627 L 63.6465 11.8646 L 63.7029 11.8874 L 65.114 12.1527 L 72.6968 13.5598 L 74.719 13.982 L 75.0741 14.0557 L 74.9442 14.0266 L 75.7674 14.1754 L 76.9173 14.4394Z M 75.1315 23.9078 L 75.1315 23.9078 L 73.7008 23.5865 L 73.5509 23.5607 L 73.3397 23.5337 L 72.7566 23.4154 L 70.8954 23.0253 L 63.3508 21.6254 L 61.7574 21.3244 L 61.1618 21.1741 L 60.6615 21.0319 L 58.0527 19.9666 L 57.812 19.8842 L 54.7496 17.1917 L 53.0367 15.5043 L 51.8884 14.4362 L 49.7894 11.999 L 50.5105 9.09498 L 50.4919 4.24529 L 51.1447 3.86598 L 51.4082 3.72423 L 56.1342 2.67411 L 58.8897 1.99231 L 72.4017 0.232794 L 90.5846 2.62179 L 99.597 3.88081 L 102.28 3.27784 L 103.179 3.12551 L 103.827 2.9748 L 106.575 2.55792 L 113.794 1.27087 L 122.662 0.597781 L 124.751 1.18265 L 134.794 4.10132 L 134.268 6.6994 L 131.94 17.9464 L 130.29 19.426 L 127.174 23.0814 L 127.046 23.2119 L 127.003 23.2552 L 126.943 23.2859 L 122.814 25.1436 L 121.531 25.5661 L 113.714 27.1489 L 110.014 27.9958 L 105.11 29.0784 L 104.618 29.1246 L 104.2 29.1844 L 103.471 29.0736 L 103.1 29.0575 L 100.814 28.9287 L 99.8788 28.8161 L 99.0753 29.0641 L 98.9699 29.1303 L 97.7341 28.8995 L 97.3909 28.8341 L 91.4453 27.3857 L 88.6164 26.612 L 86.8589 26.1399 L 85.7411 25.8919 L 84.762 25.6828 L 83.8142 25.4939Z " fill-rule="evenodd" fill="rgb(220,220,220)" stroke="rgb(255,0,0)" />

<text x="52.4145" y="12.2509" fill="rgb(0,0,0)" style="font:5pt Times New Roman">45.1</text>

</svg>