<?xml version="1.0"?>
<svg version="1.0" xmlns="http://www.w3.org/2000/svg" width="175pt" height="37pt" viewBox="0 0 175 37">

<path d="M 118.632 16.3739 L 118.632 16.3739 L 119.184 16.1925 L 119.891 15.8265 L 121.009 14.5259 L 122.324 13.6816 L 122.204 12.4193 L 122.62 10.5176 L 120.054 10.3645 L 119.701 10.4156 L 118.61 10.5688 L 117.84 10.6138 L 116.703 10.7892 L 104.175 12.766 L 103.27 12.9088 L 98.2637 13.3553 L 86.0397 11.3129 L 76.3168 9.83694 L 75.8089 9.59507 L 75.5773 9.84305 L 63.6402 7.85548 L 64.3527 9.60509 L 65.5951 10.8935 L 68.482 13.2584 L 67.9255 12.6492 L 72.0578 13.4897 L 73.2902 13.6349 L 75.0557 13.9449 L 83.0481 15.7398 L 83.3963 15.8062 L 85.6307 16.3134 L 90.1721 17.6811 L 101.576 20.5227 L 101.943 20.2863 L 102.315 20.2579 L 112.069 18.5524Z M 114.058 27.8697 L 114.058 27.8697 L 113.701 27.9249 L 103.866 29.6441 L 102.428 29.7874 L 99.7286 29.8549 L 87.7534 26.8819 L 83.0727 25.4765 L 81.393 25.1063 L 80.9762 25.0249 L 73.0282 23.2398 L 71.9145 23.0484 L 70.3453 22.8477 L 66.0125 21.9683 L 63.7026 21.4842 L 59.4475 18.1539 L 57.6699 16.376 L 54.7254 13.4932 L 54.6264 12.514 L 54.5251 11.4096 L 54.1522 8.55117 L 54.088 5.44903 L 73.2585 0.616503 L 75.4126 0.0898741 L 77.7353 0.429844 L 87.55 1.92011 L 99.3206 3.90078 L 101.787 3.51163 L 102.692 3.3688 L 115.227 1.39082 L 116.721 1.16639 L 117.648 1.10425 L 118.302 1.00554 L 118.656 0.954338 L 121.085 0.592051 L 132.093 3.60752 L 133.667 4.04904 L 133.274 5.99286 L 131.93 12.4734 L 131.496 14.4594 L 130.657 18.2713 L 127.776 21.2123 L 125.433 23.5588 L 122.189 25.217 L 122.179 25.2223 L 121.607 25.41 L 114.304 27.8157 L 114.213 27.8342Z " fill-rule="evenodd" fill="rgb(220,220,220)" stroke="rgb(255,0,0)" />

<text x="66.7559" y="7.9145" fill="rgb(0,0,0)" style="font:5pt Times New Roman">46.1</text>

</svg>