<?xml version="1.0"?>
<svg version="1.0" xmlns="http://www.w3.org/2000/svg" width="175pt" height="37pt" viewBox="0 0 175 37">

<path d="M 71.6712 13.2484 L 71.6712 13.2484 L 74.2447 13.6935 L 77.9156 14.517 L 80.4456 15.0114 L 87.1763 16.4962 L 91.1949 17.1725 L 95.0971 18.2699 L 101.037 20.6901 L 102.524 20.9517 L 102.582 20.9475 L 105.73 20.3347 L 113.088 19.0638 L 113.348 18.9504 L 114.774 18.1578 L 118.184 16.9464 L 120.243 14.244 L 121.839 12.5995 L 120.39 10.1357 L 112.551 11.5621 L 104.769 12.7018 L 99.0743 13.5089 L 94.3907 12.8023 L 90.9267 12.1639 L 83.3778 10.7682 L 79.6767 9.56067 L 71.2615 13.1257Z M 68.2219 22.2731 L 68.2219 22.2731 L 65.8929 20.8314 L 57.7658 14.9883 L 57.7608 14.9439 L 57.1238 6.63514 L 59.9814 5.76673 L 78.1105 0.300655 L 85.0501 1.52675 L 92.6326 2.92865 L 96.1546 3.57793 L 98.8614 4.11979 L 103.375 3.41421 L 111.124 2.27966 L 120.708 0.749551 L 127.257 2.82603 L 132.254 4.299 L 131.832 6.22936 L 129.113 18.5943 L 128.507 19.2127 L 127.418 20.3033 L 125.901 22.2982 L 125.073 23.684 L 118.876 26.606 L 117.024 27.5925 L 114.984 28.262 L 107.39 29.5783 L 104.307 30.1793 L 103.676 30.2722 L 100.577 30.6405 L 100.007 30.3744 L 97.5218 29.3989 L 91.8587 27.0854 L 89.2515 26.3607 L 85.325 25.7035 L 78.4834 24.1957 L 75.9629 23.7033 L 72.3557 22.8931 L 70.2781 22.536Z " fill-rule="evenodd" fill="rgb(220,220,220)" stroke="rgb(255,0,0)" />

<text x="71.9818" y="8.23467" fill="rgb(0,0,0)" style="font:5pt Times New Roman">47.1</text>

</svg>