<?xml version="1.0"?>
<svg version="1.0" xmlns="http://www.w3.org/2000/svg" width="175pt" height="37pt" viewBox="0 0 175 37">

<path d="M 77.436 14.2044 L 77.436 14.2044 L 79.2171 14.5987 L 80.9943 14.8976 L 86.4171 16.0413 L 90.2634 16.8152 L 92.1828 17.2207 L 95.9102 18.2537 L 101.004 20.5629 L 103.57 21.4487 L 108.225 20.5755 L 112.355 20.0188 L 118.488 16.9901 L 119.586 15.8345 L 120.266 14.673 L 121.06 10.3603 L 108.717 12.3347 L 103.159 13.1546 L 98.2042 13.7612 L 93.5273 12.8992 L 83.2058 10.7771 L 80.9144 9.93951 L 69.832 8.4088 L 72.9931 12.4086Z M 72.6286 22.7096 L 72.6286 22.7096 L 68.4358 20.4806 L 61.4937 16.4232 L 61.2806 14.7069 L 61.0162 12.5935 L 60.6301 9.52682 L 60.3684 7.26146 L 78.4104 1.29311 L 80.2302 0.695194 L 81.9007 1.03476 L 85.0794 1.69879 L 95.4263 3.82622 L 98.437 4.49449 L 101.793 3.98617 L 107.311 3.17225 L 120.599 1.10215 L 123.866 2.34857 L 130.516 4.65295 L 129.511 9.09974 L 128.66 18.9155 L 127.996 19.7892 L 127.2 21.1218 L 125.958 22.7231 L 125.558 23.7198 L 122.616 25.2901 L 115.381 28.7805 L 109.837 29.7039 L 104.862 30.6377 L 104.583 30.6785 L 101.321 31.0135 L 100.063 30.3804 L 97.1 28.9701 L 92.5708 26.9009 L 90.0095 26.2319 L 88.4148 25.8986 L 84.5391 25.1186 L 79.1734 23.9866 L 77.4436 23.6971 L 75.5738 23.285Z " fill-rule="evenodd" fill="rgb(220,220,220)" stroke="rgb(255,0,0)" />

<text x="75.2578" y="8.62511" fill="rgb(0,0,0)" style="font:5pt Times New Roman">48.1</text>

</svg>