<?xml version="1.0"?>
<svg version="1.0" xmlns="http://www.w3.org/2000/svg" width="175pt" height="37pt" viewBox="0 0 175 37">

<path d="M 119.221 15.9111 L 119.221 15.9111 L 118.079 18.6231 L 111.994 20.666 L 103.799 22.0192 L 102.013 21.4084 L 97.4149 19.1035 L 93.5677 17.6614 L 88.4665 16.4617 L 84.6285 15.462 L 80.5261 14.6891 L 76.3772 12.5353 L 72.3634 11.4305 L 73.3762 9.38109 L 73.1793 8.05525 L 81.9748 10.6998 L 92.2678 13.1217 L 98.2405 14.0503 L 110.754 12.2944 L 119.131 11.2576 L 119.204 11.9887Z M 127.311 20.1817 L 127.311 20.1817 L 126.571 22.023 L 125.827 23.8881 L 116.608 28.786 L 115.586 29.3529 L 114.884 29.4605 L 113.484 29.6915 L 105.365 31.0319 L 103.503 31.4256 L 101.929 31.6547 L 97.8646 29.5613 L 93.6179 27.4259 L 91.0709 26.4617 L 86.2858 25.3456 L 82.5698 24.375 L 77.456 23.3061 L 72.2444 20.6962 L 65.1736 17.0861 L 64.3117 10.6114 L 64.1141 9.28035 L 63.9605 8.01259 L 80.75 1.54402 L 81.6231 1.22821 L 82.475 1.42864 L 84.0639 1.7939 L 94.3194 4.20702 L 97.6537 4.92143 L 109.525 3.22964 L 120.531 1.82076 L 122.869 2.90858 L 128.671 5.46509 L 128.429 9.01569 L 128.345 12.3364 L 128.04 19.2409Z " fill-rule="evenodd" fill="rgb(220,220,220)" stroke="rgb(255,0,0)" />

<text x="116.203" y="11.2844" fill="rgb(0,0,0)" style="font:5pt Times New Roman">49.1</text>

</svg>