<?xml version="1.0"?>
<svg version="1.0" xmlns="http://www.w3.org/2000/svg" width="175pt" height="37pt" viewBox="0 0 175 37">

<path d="M 88.4834 16.2589 L 88.4834 16.2589 L 83.4238 15.1206 L 75.6567 13.227 L 84.1321 11.8463 L 86.1178 12.1284 L 91.7917 13.0258 L 97.2829 13.7133 L 108.835 13.4812 L 116.231 13.3543 L 118.55 13.1341 L 118.901 13.6972 L 118.833 18.4353 L 116.244 19.4483 L 113.297 21.3297 L 105.652 22.4204 L 104.195 22.6433 L 103.236 22.8616 L 101.351 21.714 L 97.7055 19.8478 L 92.2136 17.6359Z M 86.0272 24.944 L 86.0272 24.944 L 80.4574 23.6449 L 76.3589 21.5796 L 74.2732 20.5376 L 69.4879 18.139 L 68.6078 17.7132 L 68.0264 12.9425 L 67.6081 9.1424 L 70.5119 8.04493 L 77.6513 5.3928 L 84.6727 2.77512 L 85.5014 2.92502 L 87.4916 3.2078 L 93.1151 4.0976 L 97.4916 4.68997 L 108.661 4.45716 L 115.847 4.33667 L 120.385 3.95852 L 121.757 4.65318 L 122.593 5.06452 L 126.831 7.19506 L 127.633 7.62295 L 128.007 7.8162 L 128.018 7.99409 L 128.026 8.35294 L 127.924 13.8896 L 127.787 19.5728 L 126.918 21.8147 L 126.053 24.2462 L 120.671 27.3143 L 115.851 29.9865 L 107.019 31.342 L 105.757 31.533 L 105.366 31.6324 L 102.324 32.3665 L 97.2161 29.7367 L 94.0318 28.0921 L 88.9102 26.0354Z " fill-rule="evenodd" fill="rgb(220,220,220)" stroke="rgb(255,0,0)" />

<text x="77.5333" y="10.5667" fill="rgb(0,0,0)" style="font:5pt Times New Roman">50.1</text>

</svg>