<?xml version="1.0"?>
<svg version="1.0" xmlns="http://www.w3.org/2000/svg" width="175pt" height="37pt" viewBox="0 0 175 37">

<path d="M 115.349 20.7894 L 115.349 20.7894 L 113.6 22.0547 L 108.361 22.6932 L 104.534 23.2912 L 100.994 22.2506 L 98.4127 20.9201 L 92.8367 18.2141 L 86.1277 15.6805 L 84.983 14.903 L 87.2245 14.2463 L 89.0792 13.4778 L 89.3929 13.7126 L 95.9733 13.9475 L 101.474 14.6349 L 118.76 16.6794 L 117.787 16.6021 L 119.161 19.0474Z M 126.626 24.5445 L 126.626 24.5445 L 119.793 28.5051 L 116.123 30.5935 L 109.645 31.504 L 106.162 32.0449 L 104.448 32.4706 L 102.662 32.9083 L 97.0831 30.2498 L 94.4502 28.8936 L 89.3531 26.4082 L 82.6108 23.8603 L 80.5401 22.6191 L 79.5847 22.1179 L 77.1363 20.8576 L 71.5677 18.0894 L 71.5006 16.071 L 71.3663 10.2186 L 84.3457 5.82067 L 87.443 4.72563 L 89.7252 4.81501 L 96.652 5.06956 L 102.531 5.79409 L 120.002 7.8626 L 121.36 8.44631 L 128.071 11.397 L 128.07 11.4125 L 127.939 13.145 L 127.918 15.608 L 128.023 19.9081 L 127.213 22.8674Z " fill-rule="evenodd" fill="rgb(220,220,220)" stroke="rgb(255,0,0)" />

<text x="85.1613" y="11.6002" fill="rgb(0,0,0)" style="font:5pt Times New Roman">51.1</text>

</svg>