<?xml version="1.0"?>
<svg version="1.0" xmlns="http://www.w3.org/2000/svg" width="175pt" height="37pt" viewBox="0 0 175 37">

<path d="M 119.524 18.272 L 119.524 18.272 L 117.961 17.1787 L 106.251 15.6791 L 94.9809 14.2256 L 94.5727 14.2741 L 88.4814 14.1946 L 89.1532 14.3857 L 86.8378 15.6904 L 87.1988 16.0153 L 94.0532 19.1357 L 98.6701 21.4646 L 102.886 24.4274 L 104.948 23.6449 L 108.693 23.119 L 113.763 22.6562 L 116.811 20.6383Z M 128.138 21.0399 L 128.138 21.0399 L 127.254 24.8513 L 121.156 28.2702 L 116.39 31.036 L 109.795 31.8315 L 106.528 32.2835 L 104.601 32.7815 L 103.041 33.208 L 102.173 32.8245 L 94.8428 29.3686 L 90.2849 27.068 L 83.3602 23.9138 L 82.1364 23.1079 L 81.0098 22.4241 L 74.3437 18.4516 L 74.3396 16.72 L 74.1738 11.1172 L 85.758 6.28661 L 87.6983 5.44769 L 94.6303 5.49238 L 95.9919 5.50206 L 107.371 6.9689 L 120.434 8.64447 L 121.508 9.14054 L 124.684 10.5317 L 128.256 12.2153 L 128.305 18.1632 L 128.356 20.2441Z " fill-rule="evenodd" fill="rgb(220,220,220)" stroke="rgb(255,0,0)" />

<text x="83.0494" y="12.2516" fill="rgb(0,0,0)" style="font:5pt Times New Roman">52.1</text>

</svg>