<?xml version="1.0"?>
<svg version="1.0" xmlns="http://www.w3.org/2000/svg" width="175pt" height="37pt" viewBox="0 0 175 37">

<path d="M 88.0807 16.3903 L 88.0807 16.3903 L 88.6178 16.7329 L 84.1669 16.3046 L 89.5963 14.829 L 88.9116 14.6229 L 93.9686 14.7107 L 95.1242 14.6763 L 107.37 16.163 L 118.335 17.4234 L 119.226 17.8172 L 120.342 19.5181 L 113.146 23.4534 L 111.983 23.1764 L 105.75 24.056 L 104.993 24.2057 L 102.436 23.5235 L 99.0745 21.9397Z M 84.1862 24.1252 L 84.1862 24.1252 L 83.8994 23.9945 L 77.5603 19.8199 L 75.8729 18.7957 L 75.8922 14.2659 L 75.9034 11.6144 L 85.942 6.97779 L 87.9239 6.01945 L 94.016 6.05083 L 96.0308 6.06386 L 108.428 7.56791 L 121.031 9.14151 L 121.856 9.5113 L 122.73 9.8977 L 125.825 11.2674 L 129.198 12.712 L 129.21 14.3226 L 128.936 20.5817 L 127.889 24.9976 L 127.825 25.1887 L 127.284 25.4876 L 116.65 31.3729 L 113.097 31.7643 L 106.997 32.6257 L 106.713 32.6931 L 104.548 33.122 L 103.429 33.4279 L 98.8513 31.4066 L 95.2233 29.6962Z " fill-rule="evenodd" fill="rgb(220,220,220)" stroke="rgb(255,0,0)" />

<text x="83.7743" y="12.9415" fill="rgb(0,0,0)" style="font:5pt Times New Roman">53.1</text>

</svg>