<?xml version="1.0"?>
<svg version="1.0" xmlns="http://www.w3.org/2000/svg" width="175pt" height="37pt" viewBox="0 0 175 37">

<path d="M 121.063 20.0296 L 121.063 20.0296 L 115.257 23.3333 L 113.244 23.5241 L 106.035 24.2769 L 103.463 24.1329 L 99.385 22.3663 L 98.957 22.1476 L 88.7104 16.925 L 91.3927 14.3781 L 91.2439 14.9133 L 96.4699 14.9415 L 99.6965 15.3603 L 102.46 15.7083 L 112.145 16.9148 L 115.133 17.3037 L 120.323 17.9246 L 119.5 17.8265 L 121.109 18.6122Z M 129.554 20.9196 L 129.554 20.9196 L 129.343 21.8112 L 128.1 25.5251 L 117.591 31.3333 L 116.911 31.7097 L 114.136 32.0154 L 107.336 32.7153 L 104.204 33.5467 L 103.88 33.6294 L 100.053 31.9605 L 95.6037 30.0239 L 95.4815 29.9598 L 95.0725 29.7509 L 84.4442 24.3208 L 80.261 21.207 L 77.1464 19.1381 L 77.1665 17.7335 L 77.2222 11.9378 L 80.7099 10.2433 L 88.4642 6.35794 L 91.3024 6.37548 L 96.9321 6.41596 L 100.751 6.88769 L 103.518 7.23599 L 113.212 8.44355 L 116.19 8.83123 L 121.783 9.51229 L 122.906 9.99697 L 129.018 12.659 L 129.733 12.9714 L 129.894 13.0441 L 129.882 13.487 L 129.639 18.988Z " fill-rule="evenodd" fill="rgb(220,220,220)" stroke="rgb(255,0,0)" />

<text x="84.8831" y="13.2562" fill="rgb(0,0,0)" style="font:5pt Times New Roman">54.1</text>

</svg>