<?xml version="1.0"?>
<svg version="1.0" xmlns="http://www.w3.org/2000/svg" width="175pt" height="37pt" viewBox="0 0 175 37">

<path d="M 103.516 16.0144 L 103.516 16.0144 L 96.9014 15.1511 L 96.1687 15.1895 L 91.0799 15.1262 L 87.718 16.0671 L 89.3614 17.467 L 93.6357 19.625 L 99.736 22.8275 L 102.015 23.8073 L 106.604 24.4974 L 113.275 23.9269 L 115.242 23.855 L 114.658 23.8202 L 117.402 22.3233 L 122.288 20.1949 L 123.521 18.4872 L 121.682 18.8093 L 120.603 18.109 L 112.955 17.1797 L 106.282 16.3514Z M 107.313 7.99868 L 107.313 7.99868 L 113.996 8.82813 L 122.308 9.86758 L 125.133 11.1332 L 127.462 12.1845 L 130.248 13.4294 L 130.238 15.877 L 130.285 21.2582 L 129.099 24.462 L 128.507 25.8655 L 127.19 26.5559 L 121.442 29.7062 L 118.703 31.2004 L 117.172 32.0469 L 113.978 32.3136 L 107.708 32.8407 L 106.022 33.3668 L 104.151 33.9637 L 98.6183 31.5076 L 95.9839 30.361 L 89.7606 27.096 L 84.9891 24.6582 L 82.5633 22.72 L 80.6165 21.2703 L 78.1771 19.4788 L 78.2688 14.508 L 78.3115 12.3169 L 88.2352 7.34301 L 89.4802 6.7189 L 96.2333 6.77357 L 97.796 6.78266 L 104.583 7.66617Z " fill-rule="evenodd" fill="rgb(220,220,220)" stroke="rgb(255,0,0)" />

<text x="86.0211" y="13.6126" fill="rgb(0,0,0)" style="font:5pt Times New Roman">55.1</text>

</svg>