<?xml version="1.0"?>
<svg version="1.0" xmlns="http://www.w3.org/2000/svg" width="175pt" height="37pt" viewBox="0 0 175 37">

<path d="M 89.0978 17.1966 L 89.0978 17.1966 L 89.6669 17.8044 L 96.8676 21.5574 L 99.9542 23.2211 L 104.846 26.0173 L 106.342 25.0722 L 108.29 24.8367 L 115.355 24.3545 L 118.586 22.2945 L 122.657 20.3298 L 121.944 18.9906 L 120.913 18.371 L 117.784 18.0114 L 109.431 16.9635 L 102.348 16.0614 L 98.1649 15.5205 L 93.4214 15.5037 L 93.1102 15.0237Z M 79.053 19.8185 L 79.053 19.8185 L 79.0549 19.7377 L 79.2145 12.804 L 83.3317 10.7437 L 90.3807 7.19141 L 93.4726 7.20969 L 98.6851 7.24264 L 103.39 7.83286 L 110.47 8.73463 L 118.834 9.78385 L 122.919 10.323 L 125.247 11.3826 L 131.081 13.8672 L 131.09 16.0531 L 131.087 21.5974 L 130.309 23.0746 L 128.987 26.2053 L 122.497 29.6086 L 117.432 32.3846 L 108.993 33.1011 L 108.098 33.1783 L 106.748 33.5874 L 104.419 34.3005 L 102.295 33.3576 L 96.3642 30.6981 L 93.0032 28.8964 L 85.5341 24.9956 L 83.9203 23.6765 L 79.1984 19.9333 L 79.0764 19.8359Z " fill-rule="evenodd" fill="rgb(220,220,220)" stroke="rgb(255,0,0)" />

<text x="86.8769" y="14.0615" fill="rgb(0,0,0)" style="font:5pt Times New Roman">56.1</text>

</svg>