<?xml version="1.0"?>
<svg version="1.0" xmlns="http://www.w3.org/2000/svg" width="175pt" height="37pt" viewBox="0 0 175 37">

<path d="M 114.829 24.7666 L 114.829 24.7666 L 107.705 25.3855 L 105.826 25.7828 L 103.296 26.5903 L 100.217 23.6473 L 99.0898 23.0077 L 94.921 20.7853 L 91.0183 18.6932 L 90.863 18.7072 L 88.9807 17.1497 L 87.3163 16.9671 L 91.6507 15.7577 L 98.7377 15.801 L 98.6818 15.7525 L 109.869 17.1436 L 117.482 18.1372 L 121.396 18.6204 L 122.562 19.2688 L 122.656 21.9517 L 115.867 24.4494Z M 117.804 32.6612 L 117.804 32.6612 L 117.693 32.7223 L 117.507 32.7381 L 115.535 32.9083 L 108.488 33.5202 L 108.142 33.6201 L 104.686 34.6435 L 104.012 34.3329 L 96.7442 31.0451 L 95.2189 30.2051 L 91.0685 27.9926 L 87.1741 25.9049 L 86.0791 25.333 L 83.7864 23.4589 L 79.7924 20.1572 L 79.9501 14.4108 L 79.9842 13.1518 L 91.0472 7.59928 L 91.0828 7.58184 L 98.7883 7.62885 L 99.6253 7.63482 L 110.897 9.03622 L 118.549 10.0349 L 123.27 10.6659 L 125.68 11.7147 L 130.598 13.6908 L 131.947 14.2315 L 131.929 18.3173 L 131.876 21.925 L 131.628 22.3108 L 129.436 26.5146 L 128.396 27.1131 L 119.659 31.6887Z " fill-rule="evenodd" fill="rgb(220,220,220)" stroke="rgb(255,0,0)" />

<text x="86.6252" y="14.4437" fill="rgb(0,0,0)" style="font:5pt Times New Roman">57.1</text>

</svg>