<?xml version="1.0"?>
<svg version="1.0" xmlns="http://www.w3.org/2000/svg" width="175pt" height="37pt" viewBox="0 0 175 37">

<path d="M 91.7099 19.2602 L 91.7099 19.2602 L 100.95 24.3491 L 101.57 24.6074 L 103.82 25.644 L 107.382 26.058 L 109.523 25.8412 L 115.615 25.3616 L 124.285 20.3845 L 122.029 18.7834 L 112.601 17.598 L 99.5728 15.8798 L 96.4911 15.8954 L 94.1936 15.5758 L 89.7247 17.9198 L 87.3404 17.9418 L 88.1463 18.0917Z M 86.6241 25.6711 L 86.6241 25.6711 L 81.1053 21.027 L 80.4632 20.4954 L 80.5025 19.1001 L 80.6632 13.4447 L 86.1584 10.7025 L 92.0588 7.81368 L 96.5477 7.84521 L 100.402 7.87228 L 113.646 9.6157 L 123.852 10.9421 L 130.102 13.4409 L 132.324 14.4445 L 132.389 15.6744 L 132.294 22.182 L 130.322 25.2528 L 129.628 26.5819 L 119.321 32.5169 L 117.95 33.2345 L 110.172 33.8653 L 108.877 33.9684 L 107.338 34.4006 L 104.954 35.0616 L 100.423 32.9428 L 98.218 31.927 L 97.1231 31.4317 L 87.8375 26.318Z " fill-rule="evenodd" fill="rgb(220,220,220)" stroke="rgb(255,0,0)" />

<text x="91.3159" y="14.7079" fill="rgb(0,0,0)" style="font:5pt Times New Roman">58.1</text>

</svg>