<?xml version="1.0"?>
<svg version="1.0" xmlns="http://www.w3.org/2000/svg" width="175pt" height="37pt" viewBox="0 0 175 37">

<path d="M 124.629 19.7271 L 124.629 19.7271 L 123.28 18.9925 L 102.738 16.3278 L 100.751 16.0504 L 94.7434 16.0732 L 88.7862 18.8866 L 91.7636 19.5472 L 94.5257 21.0102 L 100.936 24.6402 L 105.353 27.5027 L 106.821 26.7356 L 108.525 26.4065 L 115.74 25.7327 L 116.275 25.5993 L 116.227 25.6905 L 123.863 21.6322Z M 130.302 26.1901 L 130.302 26.1901 L 129.956 26.7049 L 129.619 27.0107 L 120.085 32.6169 L 118.481 33.2146 L 116.669 33.6067 L 109.307 34.2963 L 108.957 34.3708 L 106.449 35.096 L 105.222 35.43 L 104.435 35.0625 L 97.2918 31.6812 L 90.6498 27.9267 L 87.1691 26.0087 L 83.4129 22.7808 L 81.1005 20.8334 L 81.2909 14.4036 L 81.3061 13.89 L 85.2199 11.9592 L 92.9529 8.15225 L 93.7117 8.14858 L 101 8.1259 L 103.753 8.46464 L 124.577 11.1709 L 127.768 12.4466 L 132.643 14.6489 L 132.786 17.3477 L 132.711 22.439Z " fill-rule="evenodd" fill="rgb(220,220,220)" stroke="rgb(255,0,0)" />

<text x="88.8243" y="15.0299" fill="rgb(0,0,0)" style="font:5pt Times New Roman">59.1</text>

</svg>