<?xml version="1.0"?>
<svg version="1.0" xmlns="http://www.w3.org/2000/svg" width="175pt" height="37pt" viewBox="0 0 175 37">

<path d="M 124.025 19.101 L 124.025 19.101 L 123.453 19.0316 L 122.948 18.9694 L 100.616 16.1113 L 99.9928 16.1134 L 96.447 15.6699 L 93.6656 16.9723 L 88.7968 18.0477 L 91.714 19.5175 L 91.8875 19.84 L 93.4466 20.6905 L 101.054 24.9948 L 105.803 27.8342 L 105.937 27.3112 L 108.907 26.6998 L 113.992 26.2298 L 116.887 25.6044 L 118.964 24.8662 L 124.4 21.8812 L 124.854 21.1351Z M 131.39 25.4036 L 131.39 25.4036 L 130.399 26.8759 L 129.436 27.7505 L 122.542 31.8043 L 119.06 33.1026 L 115.122 33.9541 L 109.89 34.4442 L 107.872 34.8742 L 105.281 35.6232 L 103.006 34.5477 L 97.4151 31.9012 L 89.6019 27.4846 L 87.4458 26.2597 L 86.5559 25.3771 L 81.6284 21.1388 L 81.8489 14.4613 L 81.8973 13.7914 L 90.407 9.87839 L 93.7803 8.33292 L 94.7127 8.31346 L 100.048 8.30707 L 101.563 8.36236 L 123.938 11.2259 L 124.44 11.2877 L 125.302 11.3996 L 125.434 11.4524 L 132.962 14.8533 L 133.183 19.0211 L 133.129 22.696Z " fill-rule="evenodd" fill="rgb(220,220,220)" stroke="rgb(255,0,0)" />

<text x="121.726" y="20.4865" fill="rgb(0,0,0)" style="font:5pt Times New Roman">60.1</text>

</svg>