<?xml version="1.0"?>
<svg version="1.0" xmlns="http://www.w3.org/2000/svg" width="175pt" height="37pt" viewBox="0 0 175 37">

<path d="M 126.924 19.376 L 126.924 19.376 L 125.049 19.7713 L 123.858 19.0782 L 117.343 18.2473 L 101.04 16.1598 L 98.0836 16.0715 L 95.5601 15.9177 L 93.7818 16.9528 L 89.0994 18.3674 L 90.3345 18.4111 L 91.9086 20.1315 L 97.1349 23.0658 L 101.121 25.3227 L 103.825 26.595 L 109.27 27.0022 L 112.252 26.7316 L 117.499 25.6094 L 121.742 24.0315 L 124.954 22.1212 L 124.937 22.1303Z M 132.478 24.6171 L 132.478 24.6171 L 130.843 27.047 L 129.254 28.4903 L 125 30.9916 L 119.638 32.9905 L 113.575 34.3015 L 110.473 34.5921 L 106.786 35.3775 L 105.319 35.8018 L 100.539 33.5416 L 97.5384 32.1212 L 93.3451 29.7508 L 87.5362 26.4509 L 85.1389 24.0731 L 82.0429 21.4102 L 82.1815 17.2147 L 82.4346 13.7125 L 90.5708 9.97118 L 94.0005 8.39301 L 98.2096 8.38797 L 101.889 8.52231 L 118.327 10.6259 L 125.481 11.567 L 128.188 12.7571 L 133.28 15.0578 L 133.58 20.6944 L 133.547 22.953Z " fill-rule="evenodd" fill="rgb(220,220,220)" stroke="rgb(255,0,0)" />

<text x="97.8245" y="33.3046" fill="rgb(0,0,0)" style="font:5pt Times New Roman">61.1</text>

</svg>