<?xml version="1.0"?>
<svg version="1.0" xmlns="http://www.w3.org/2000/svg" width="175pt" height="37pt" viewBox="0 0 175 37">

<path d="M 124.038 19.1237 L 124.038 19.1237 L 110.028 17.3064 L 101.527 16.2135 L 96.1721 16.0289 L 96.7148 15.6013 L 90.1397 18.6614 L 89.6095 17.2579 L 89.402 18.687 L 91.9297 20.4229 L 100.823 25.4409 L 101.187 25.6506 L 101.305 25.6988 L 109.61 27.3167 L 110.522 27.2377 L 118.111 25.6144 L 124.469 23.2267 L 125.474 22.3793Z M 133.566 23.8305 L 133.566 23.8305 L 131.286 27.218 L 129.071 29.2301 L 127.457 30.179 L 120.216 32.8784 L 112.028 34.6489 L 111.056 34.74 L 105.7 35.8809 L 105.357 35.9803 L 98.0721 32.5355 L 97.6617 32.3412 L 97.0882 32.0171 L 87.6267 26.6421 L 83.7219 22.7691 L 82.4575 21.6816 L 82.5141 19.9681 L 82.9718 13.6335 L 86.9791 11.7909 L 94.1928 8.47149 L 96.3707 8.46888 L 102.216 8.68227 L 111.004 9.80703 L 125.636 11.7316 L 131.172 14.1655 L 133.599 15.2622 L 133.977 22.3678 L 133.965 23.21Z " fill-rule="evenodd" fill="rgb(220,220,220)" stroke="rgb(255,0,0)" />

<text x="99.2435" y="33.6403" fill="rgb(0,0,0)" style="font:5pt Times New Roman">62.1</text>

</svg>