<?xml version="1.0"?>
<!DOCTYPE svg PUBLIC "-//W3C//DTD SVG 1.1//EN" "http://www.w3.org/Graphics/SVG/1.1/DTD/svg11.dtd">
                <svg xmlns="http://www.w3.org/2000/svg" version="1.1"
    width="1700.7874015748034"
    height="1700.7874015748034"
    viewbox="0 0 1700.7874015748034 1700.7874015748034">
                <desc>Laser SVG Slices from Object: Sphere_net. Exported from Blender3D with the Laser Slicer Script</desc>

<g>
<polygon points="34.736,4.643 36.421,4.742 44.66,5.41 45.07,5.61 45.71,5.93 51.59,8.89 56.04,11.21 56.36,12.13 57.11,14.27 57.68,15.96 58.69,22.89 58.86,24.24 54.44,26.40 50.87,28.16 46.11,28.69 43.30,29.06 32.93,30.38 29.00,30.87 24.58,31.45 16.56,31.39 15.94,31.38 6.29,26.49 4.50,25.61 4.12,21.69 3.78,18.22 6.39,16.33 11.30,12.86 16.39,10.44 22.87,7.26 26.33,5.82 27.74,5.23 31.21,3.78 32.75,4.18 " style="fill:none;stroke:rgb(255,0,0);stroke-width:1.0" />
</g>
<g>
<polygon points="111.095,4.683 111.131,4.687 111.23,4.71 117.76,6.24 121.10,7.94 121.89,8.27 122.23,8.75 126.19,13.68 127.28,21.65 127.00,24.47 126.82,28.26 125.97,28.66 124.82,29.27 118.87,32.32 110.06,32.21 108.53,32.11 101.90,31.68 97.77,31.50 95.01,31.26 91.50,32.11 90.03,32.43 85.98,33.45 80.87,34.47 78.51,33.50 71.62,30.69 63.81,27.55 63.62,26.29 63.42,24.76 62.99,21.54 62.64,18.95 64.41,17.84 65.96,16.66 68.24,14.93 70.93,12.83 74.27,11.93 85.33,8.43 85.43,8.40 85.47,8.39 91.80,5.60 97.22,3.86 100.81,3.79 101.14,3.78 101.15,3.78 110.98,4.67 " style="fill:none;stroke:rgb(255,0,0);stroke-width:1.0" />
</g>
<g>
<polygon points="209.486,7.462 205.096,5.597 201.83,5.78 194.46,6.24 191.29,5.61 185.28,4.37 184.66,4.14 183.84,3.78 183.32,4.05 183.06,4.18 177.08,4.82 176.58,4.89 176.11,4.71 175.47,4.47 175.40,4.49 174.32,4.79 167.56,7.11 150.86,12.81 148.51,13.17 145.70,13.53 143.76,13.70 142.88,13.91 140.96,14.57 139.98,15.01 138.63,15.49 136.74,16.20 135.51,16.69 134.23,17.15 131.19,24.14 131.06,24.43 131.13,24.53 131.14,24.56 131.16,24.62 132.70,27.03 133.27,29.07 133.72,30.47 134.08,31.69 136.17,32.23 136.88,32.36 144.18,34.37 145.32,34.72 149.92,35.02 151.08,35.17 153.66,35.36 162.34,33.44 169.99,31.73 178.64,30.09 180.26,29.76 181.03,29.95 181.51,30.07 183.11,30.47 187.91,31.64 189.72,32.10 192.75,31.96 205.44,31.43 206.40,31.05 207.34,30.65 212.81,28.37 217.40,26.32 217.27,25.36 216.81,22.17 215.31,13.23 215.25,12.83 215.22,12.67 215.20,12.59 215.15,12.34 214.94,12.14 209.76,7.57 " style="fill:none;stroke:rgb(255,0,0);stroke-width:1.0" />
</g>
<g>
<polygon points="300.900,6.125 308.885,6.160 309.98,6.55 313.51,7.72 315.15,9.48 316.52,10.87 317.77,12.67 318.55,16.58 318.90,18.26 319.42,20.73 319.95,23.35 318.27,24.25 316.62,25.12 314.29,26.32 311.91,27.60 303.09,28.22 301.90,28.31 301.38,28.35 288.71,26.92 286.92,26.71 285.66,26.58 282.07,26.18 280.46,26.10 278.81,25.84 278.04,25.87 277.25,25.89 275.99,25.56 274.38,25.29 271.90,25.09 265.98,24.92 265.78,24.91 264.74,25.25 247.91,30.75 243.31,32.20 244.18,32.30 244.71,32.47 238.50,33.82 236.96,35.03 236.67,35.28 236.32,35.54 234.20,37.15 233.31,37.54 231.60,38.47 230.74,39.00 230.23,39.34 227.13,39.29 226.73,39.27 225.38,37.62 221.63,34.61 221.21,26.21 221.18,25.84 221.24,25.40 221.64,25.00 225.06,21.59 226.39,20.66 230.58,18.39 231.30,18.10 237.84,16.92 240.84,16.32 244.40,15.58 246.70,15.09 247.05,15.09 249.68,14.12 250.56,13.72 254.30,11.97 259.51,9.74 261.66,8.82 263.17,8.12 264.26,7.57 268.70,5.34 269.54,5.11 269.99,4.98 270.60,5.21 270.94,5.35 279.61,4.41 281.91,4.21 282.71,3.86 282.90,3.78 283.91,4.17 284.22,4.29 287.50,4.87 294.34,6.10 294.92,5.98 295.46,5.90 295.94,6.02 296.50,6.19 " style="fill:none;stroke:rgb(255,0,0);stroke-width:1.0" />
</g>
<g>
<polygon points="362.206,23.607 360.196,23.731 359.68,23.78 359.61,23.78 359.30,23.81 358.04,23.69 357.19,23.65 356.44,23.57 355.13,23.51 355.00,19.58 354.92,15.95 355.23,15.67 355.55,15.40 357.37,13.86 358.46,12.94 361.07,10.47 368.89,7.13 372.28,5.82 372.56,5.74 373.58,5.41 373.76,5.49 374.40,5.75 375.70,5.56 376.95,5.41 380.26,4.96 387.95,4.32 389.24,4.20 389.77,4.17 390.89,3.80 390.93,3.78 392.07,4.14 392.15,4.17 393.37,4.40 401.25,6.00 402.79,6.02 404.29,5.86 404.92,5.71 405.49,5.57 406.12,5.80 406.63,5.93 411.55,7.02 412.68,7.24 413.72,6.94 417.82,5.97 419.74,6.07 421.56,6.05 424.30,6.24 426.26,6.48 428.62,7.57 429.13,7.86 430.32,11.01 431.67,13.60 431.29,15.32 431.28,15.90 431.38,17.01 431.93,20.44 432.02,21.22 432.10,21.74 429.02,23.39 427.38,24.25 425.77,25.26 425.34,25.50 424.50,25.96 417.79,26.35 415.36,26.47 413.65,26.56 409.73,26.06 405.79,25.62 404.03,25.29 402.56,25.20 400.68,24.99 396.45,24.48 392.98,24.08 392.01,23.99 389.65,23.81 387.77,23.68 385.26,23.89 383.95,23.99 382.49,24.20 381.42,24.26 380.27,24.60 378.96,24.83 378.05,24.83 377.50,24.84 377.46,24.84 375.33,24.39 374.20,24.20 372.35,23.88 370.07,23.61 368.49,23.46 367.30,23.49 365.60,23.43 364.08,23.49 " style="fill:none;stroke:rgb(255,0,0);stroke-width:1.0" />
<polygon points="331.56,29.97 329.92,30.74 328.52,31.55 327.98,32.00 325.78,33.68 324.96,34.88 324.07,37.61 323.83,39.01 323.73,39.32 323.77,40.01 323.95,45.23 327.05,46.79 329.87,48.20 330.92,48.04 332.53,47.72 333.41,46.91 333.84,46.57 335.29,45.40 335.99,44.53 337.45,43.32 339.08,41.56 339.29,41.30 339.48,41.13 341.00,38.99 341.11,38.87 341.13,38.86 342.22,37.81 342.29,37.58 343.00,36.99 342.93,33.80 342.73,32.86 343.00,31.79 340.90,30.99 336.57,30.23 334.57,29.78 332.91,29.41 " style="fill:none;stroke:rgb(255,0,0);stroke-width:1.0" />
</g>
<g>
<polygon points="483.550,23.896 484.746,23.732 487.61,23.29 488.03,23.19 488.05,23.19 488.75,23.13 488.89,23.12 489.07,23.09 489.42,23.08 489.60,23.02 490.20,22.94 493.38,22.26 494.49,22.01 507.10,21.66 508.61,21.60 508.67,21.61 509.80,21.62 511.37,21.65 522.37,22.94 522.83,22.97 523.20,23.11 523.51,23.09 523.89,23.00 524.04,22.99 524.25,22.91 525.34,22.37 526.63,22.03 527.98,21.65 528.98,21.79 529.23,21.55 530.22,21.58 531.46,21.06 532.38,20.75 532.56,20.59 533.12,20.52 533.28,20.40 533.54,20.28 534.12,20.25 535.32,20.02 536.07,19.89 537.44,20.21 539.20,20.45 540.82,20.70 541.43,20.79 542.71,20.99 549.91,22.12 551.29,22.34 551.56,22.38 552.03,22.21 556.90,20.49 556.99,20.01 557.55,16.92 556.57,15.09 555.29,12.75 553.68,11.81 553.45,11.67 549.76,10.94 547.82,10.53 546.89,10.35 544.12,9.96 543.63,10.00 542.82,10.09 541.36,10.18 540.69,10.30 536.36,13.34 534.94,14.06 534.22,13.72 531.33,10.31 531.26,10.33 531.15,10.29 531.02,10.19 530.91,10.11 530.80,10.00 530.71,9.90 530.64,9.81 530.59,9.73 530.36,9.05 529.20,8.42 526.66,7.13 524.38,6.80 522.92,6.47 518.85,7.01 516.27,7.53 515.45,7.39 514.58,7.26 512.63,6.13 506.98,3.82 505.20,3.85 503.87,3.78 497.26,5.95 494.01,6.91 486.87,6.07 486.72,6.06 486.68,6.05 486.62,6.05 483.87,6.18 480.70,6.68 480.58,6.70 479.63,6.96 478.83,7.29 475.92,7.75 473.45,9.79 471.82,11.23 471.35,11.76 471.26,16.07 471.24,20.15 471.65,20.36 471.94,20.51 474.05,21.65 475.08,22.16 476.86,22.89 477.28,23.10 477.57,23.26 478.39,23.61 478.94,23.78 479.06,23.80 479.16,23.82 479.62,23.84 481.25,23.81 481.61,23.82 481.67,23.82 482.65,23.89 483.04,23.90 " style="fill:none;stroke:rgb(255,0,0);stroke-width:1.0" />
<polygon points="440.08,44.47 439.77,45.05 439.33,45.76 439.04,46.40 437.89,48.90 437.78,49.17 437.73,49.29 437.70,49.36 437.37,50.09 437.17,50.73 437.13,50.96 437.04,51.32 437.05,52.10 436.89,52.62 436.71,53.22 435.88,55.43 436.10,56.86 436.28,58.30 437.81,59.50 441.23,62.13 441.37,62.04 441.82,61.66 441.87,61.63 444.31,59.83 444.40,59.72 446.70,56.39 448.30,53.85 448.44,53.62 449.00,52.72 449.84,51.52 450.02,51.17 451.12,49.40 451.40,45.39 451.41,44.66 451.68,43.35 448.72,41.06 446.08,39.20 443.12,39.97 442.98,39.98 442.94,39.95 442.88,40.16 442.36,40.98 440.60,43.51 " style="fill:none;stroke:rgb(255,0,0);stroke-width:1.0" />
</g>
<g>
<polygon points="612.892,6.388 614.183,5.968 614.61,6.03 622.03,7.08 622.22,7.24 623.97,8.60 624.18,9.19 624.42,9.74 625.96,13.40 625.52,18.80 625.46,19.53 624.16,19.88 624.05,19.92 616.29,18.81 611.75,17.99 609.79,17.68 607.30,17.19 607.33,15.27 607.48,12.41 609.79,9.39 610.66,8.24 611.90,6.66 " style="fill:none;stroke:rgb(255,0,0);stroke-width:1.0" />
<polygon points="596.88,4.42 595.62,4.27 592.89,3.96 591.27,3.78 587.22,5.04 585.97,5.43 584.53,9.18 584.11,10.22 583.10,12.72 582.99,12.95 583.07,16.47 583.10,18.34 586.03,18.26 593.41,17.95 595.53,17.97 600.45,17.99 600.56,14.94 600.64,12.91 600.36,11.59 599.45,6.82 597.78,5.29 " style="fill:none;stroke:rgb(255,0,0);stroke-width:1.0" />
<polygon points="571.13,7.42 569.75,7.39 568.47,7.61 565.44,8.24 561.78,11.27 561.33,11.66 561.47,14.66 561.61,17.16 561.66,18.35 561.75,19.86 563.14,20.53 566.02,21.91 567.03,21.72 567.27,21.73 570.09,21.36 571.30,21.34 574.27,21.03 577.67,20.87 579.50,20.80 579.51,19.22 579.47,16.52 578.58,13.48 578.07,11.78 577.61,9.98 576.25,8.85 574.65,7.52 " style="fill:none;stroke:rgb(255,0,0);stroke-width:1.0" />
<polygon points="640.15,12.39 640.96,12.40 641.34,12.42 641.89,12.65 642.22,12.79 645.15,14.01 647.97,15.25 648.27,15.38 648.71,15.56 650.19,16.30 651.93,17.16 651.96,17.24 652.04,17.43 652.85,19.47 653.22,20.59 652.69,23.86 652.61,24.37 646.84,24.93 646.64,24.95 646.61,24.96 646.55,24.96 646.46,24.92 646.08,24.76 636.84,20.94 635.59,18.68 634.81,17.18 634.88,16.41 635.03,14.97 635.06,14.58 635.08,14.38 635.58,14.18 " style="fill:none;stroke:rgb(255,0,0);stroke-width:1.0" />
</g>
<g>
<polygon points="714.319,4.833 714.952,4.965 715.00,4.98 715.70,5.18 716.71,5.49 719.86,6.46 720.30,6.60 722.32,7.36 722.67,7.49 723.18,7.63 723.80,8.34 724.55,9.19 724.87,9.79 725.25,10.45 726.17,12.13 726.86,13.24 726.53,15.83 726.07,19.26 724.09,19.66 722.95,19.85 719.64,19.03 718.60,18.74 717.03,18.31 714.58,17.65 711.07,16.71 710.89,16.66 710.38,16.53 709.03,15.63 707.84,14.85 707.88,14.39 707.94,13.78 708.14,11.57 708.31,9.63 710.11,7.54 712.02,5.45 713.75,4.99 " style="fill:none;stroke:rgb(255,0,0);stroke-width:1.0" />
<polygon points="690.96,4.32 695.29,4.85 695.96,5.44 697.15,6.55 697.21,6.70 697.23,6.75 697.28,6.88 697.67,7.83 699.06,11.25 698.98,13.77 698.89,15.80 698.85,16.70 698.80,17.65 698.37,17.61 697.28,17.54 697.19,17.53 697.17,17.52 694.90,17.34 693.08,17.21 691.85,17.16 690.38,17.07 688.20,16.99 687.33,16.95 686.34,16.92 682.74,16.83 682.66,16.83 681.71,16.81 680.27,16.37 679.32,16.07 679.38,14.80 679.71,11.43 679.88,9.35 679.95,8.32 681.78,6.76 683.26,5.46 683.76,5.13 685.81,4.03 686.24,3.78 " style="fill:none;stroke:rgb(255,0,0);stroke-width:1.0" />
<polygon points="670.67,8.55 670.32,8.34 667.54,8.25 662.96,8.10 660.56,8.88 660.23,8.99 658.42,10.63 657.00,11.92 657.01,12.44 657.02,12.79 657.07,15.34 657.11,17.44 657.13,17.99 657.14,18.75 658.72,19.58 661.08,20.84 662.04,20.82 664.35,20.81 665.62,20.80 668.31,20.77 670.77,20.76 671.62,20.76 672.23,20.76 674.54,20.74 674.58,17.59 674.58,14.10 674.38,13.68 672.87,10.35 672.60,9.78 672.57,9.72 672.54,9.63 " style="fill:none;stroke:rgb(255,0,0);stroke-width:1.0" />
<polygon points="747.91,26.54 748.20,26.81 748.97,27.60 749.37,28.58 749.57,29.03 749.81,29.65 749.31,30.35 748.91,30.94 748.42,31.61 747.75,32.34 747.32,32.35 746.10,32.35 741.34,30.41 740.66,30.13 740.46,30.06 740.08,29.93 739.97,29.72 739.88,29.58 739.01,28.14 738.38,27.13 738.17,26.76 737.29,25.34 737.30,25.10 737.29,24.99 737.28,24.04 737.29,23.48 737.32,22.94 737.36,21.91 737.37,21.80 737.38,21.58 739.31,21.43 739.86,21.39 740.01,21.40 740.95,22.07 741.07,22.18 741.12,22.28 741.51,22.86 742.12,22.98 742.50,23.16 743.65,23.73 744.94,24.44 746.04,25.08 747.49,26.22 " style="fill:none;stroke:rgb(255,0,0);stroke-width:1.0" />
</g>
<g>
<polygon points="813.845,6.395 813.565,6.413 812.94,6.46 812.01,7.02 809.82,8.29 809.74,9.24 809.70,9.65 809.57,10.95 809.46,11.90 809.41,12.39 809.26,13.60 809.26,13.62 809.25,13.69 809.87,14.58 810.05,14.86 810.53,15.61 811.19,16.60 811.33,16.84 811.62,17.29 813.56,18.32 814.10,18.62 815.69,19.44 816.77,20.00 817.89,20.62 819.36,21.45 820.03,21.80 822.17,23.02 822.26,23.07 822.60,23.26 823.07,23.08 824.56,22.48 825.65,22.04 825.94,21.92 826.14,20.91 826.28,20.08 826.61,18.02 826.70,17.42 826.92,15.85 826.77,15.60 826.16,14.59 825.45,13.12 825.14,12.56 824.67,11.60 824.07,11.10 823.22,10.24 823.07,10.14 823.00,10.11 822.84,10.01 819.08,7.90 818.45,7.57 817.88,7.30 815.80,6.40 " style="fill:none;stroke:rgb(255,0,0);stroke-width:1.0" />
<polygon points="793.82,5.74 794.92,6.71 795.63,7.18 797.07,9.79 797.59,10.67 797.41,12.87 797.20,15.42 797.09,16.65 797.01,17.63 794.40,17.46 794.03,17.44 789.83,16.71 787.82,16.35 782.64,15.37 782.62,15.37 782.61,15.37 781.23,14.76 779.77,14.11 779.52,14.00 779.31,13.90 779.39,12.12 779.42,11.40 779.49,9.98 779.58,8.30 779.61,7.69 779.71,6.05 780.60,5.44 782.58,4.02 783.58,3.91 786.01,3.78 787.63,4.21 791.78,5.23 793.38,5.62 " style="fill:none;stroke:rgb(255,0,0);stroke-width:1.0" />
<polygon points="760.16,9.09 763.59,9.35 766.44,9.53 767.79,10.30 768.65,10.77 769.67,12.23 770.25,13.05 771.16,14.28 771.18,14.82 771.19,15.02 771.25,16.25 771.25,16.47 771.26,16.78 771.25,17.25 771.25,17.60 771.23,18.47 771.23,18.66 771.21,19.31 770.91,19.72 770.72,19.99 770.25,20.66 769.66,21.55 767.42,21.45 766.97,21.43 766.33,21.39 764.49,21.33 763.32,21.30 761.67,21.23 760.81,21.19 758.22,21.12 758.06,21.11 757.62,21.10 756.15,20.14 755.71,19.87 754.96,19.41 754.41,19.06 753.67,18.64 753.66,18.53 753.66,18.51 753.61,17.80 753.60,17.68 753.59,17.11 753.59,16.90 753.61,16.47 753.62,16.21 753.66,15.81 753.69,15.45 753.72,14.81 753.74,14.45 753.75,14.14 753.77,13.19 753.78,13.06 753.78,12.44 754.60,11.65 755.36,10.92 756.45,9.82 759.22,9.29 " style="fill:none;stroke:rgb(255,0,0);stroke-width:1.0" />
</g>
<g>
<polygon points="863.341,5.127 860.308,4.000 859.75,3.78 859.21,4.18 857.07,5.77 857.03,6.56 857.02,6.67 856.96,7.86 856.94,8.17 856.89,9.15 856.87,9.66 856.84,10.43 856.82,11.12 856.81,11.68 856.79,12.56 856.80,12.91 856.80,13.99 856.80,14.14 856.83,15.07 857.16,15.28 857.28,15.36 857.35,15.41 858.77,16.25 859.23,16.51 859.64,16.72 860.48,17.14 861.32,17.50 862.09,17.98 862.55,18.26 862.68,18.30 862.75,18.33 864.34,18.83 864.81,18.98 865.09,19.07 866.08,19.39 866.46,19.51 867.12,19.71 867.14,19.72 867.47,19.82 868.68,19.95 870.86,20.08 870.98,20.09 871.06,20.10 871.15,20.10 871.16,20.07 871.16,20.07 871.43,19.37 871.46,19.26 871.67,18.58 871.72,18.32 871.89,17.64 871.97,17.18 872.11,16.55 872.24,15.79 872.27,15.36 872.52,14.10 872.58,13.81 872.83,12.54 872.77,12.39 872.67,12.16 872.16,10.94 871.96,10.49 871.42,9.41 871.40,9.38 871.35,9.30 870.28,8.85 869.42,8.53 869.14,9.05 869.03,9.24 868.87,9.12 868.86,9.11 867.41,8.23 867.20,8.05 867.50,7.61 866.98,7.26 866.50,6.93 866.39,6.90 864.93,5.91 " style="fill:none;stroke:rgb(255,0,0);stroke-width:1.0" />
<polygon points="832.37,15.10 832.12,15.05 832.12,15.07 831.68,16.34 830.70,17.50 830.76,17.74 830.77,17.80 831.11,18.91 831.19,19.16 831.50,19.98 831.65,20.41 831.93,21.00 832.16,21.50 832.39,21.88 832.70,22.42 832.94,22.61 833.32,23.07 833.50,23.18 833.89,23.48 834.01,23.51 834.35,23.64 834.73,23.72 835.04,23.79 835.52,23.83 835.68,23.85 836.18,23.86 836.34,23.86 836.94,23.81 837.11,23.80 837.68,23.76 837.86,23.73 838.44,23.61 838.65,23.56 839.20,23.42 839.44,23.34 839.88,23.20 840.15,23.08 840.52,22.93 840.80,22.76 841.10,22.60 841.39,22.42 841.59,22.28 841.96,22.01 842.07,21.92 842.59,21.34 842.65,21.25 842.70,21.18 843.06,20.61 842.92,20.24 842.86,19.95 842.67,19.34 842.53,18.87 842.46,18.66 842.35,18.20 842.22,18.24 842.03,18.05 841.79,17.87 841.54,17.66 840.46,17.11 840.14,16.92 839.74,16.77 838.46,16.49 837.31,16.23 836.41,16.03 835.24,16.05 834.32,16.09 833.49,16.38 832.99,16.51 832.81,16.56 832.69,16.57 832.47,16.00 832.48,15.68 " style="fill:none;stroke:rgb(255,0,0);stroke-width:1.0" />
</g>
</svg>
