<?xml version="1.0" encoding="UTF-8" standalone="no"?>
<!-- Created with Inkscape (http://www.inkscape.org/) -->

<svg
   xmlns:dc="http://purl.org/dc/elements/1.1/"
   xmlns:cc="http://creativecommons.org/ns#"
   xmlns:rdf="http://www.w3.org/1999/02/22-rdf-syntax-ns#"
   xmlns:svg="http://www.w3.org/2000/svg"
   xmlns="http://www.w3.org/2000/svg"
   xmlns:sodipodi="http://sodipodi.sourceforge.net/DTD/sodipodi-0.dtd"
   xmlns:inkscape="http://www.inkscape.org/namespaces/inkscape"
   width="223.39316mm"
   height="249.23201mm"
   viewBox="0 0 791.55056 883.10554"
   id="svg2"
   version="1.1"
   inkscape:version="0.91 r13725"
   sodipodi:docname="Rt_hand_vector.svg">
  <defs
     id="defs4" />
  <sodipodi:namedview
     id="base"
     pagecolor="#ffffff"
     bordercolor="#666666"
     borderopacity="1.0"
     inkscape:pageopacity="0.0"
     inkscape:pageshadow="2"
     inkscape:zoom="0.64"
     inkscape:cx="149.10952"
     inkscape:cy="480.03082"
     inkscape:document-units="px"
     inkscape:current-layer="layer1"
     showgrid="false"
     inkscape:window-width="1366"
     inkscape:window-height="706"
     inkscape:window-x="-8"
     inkscape:window-y="-8"
     inkscape:window-maximized="1"
     fit-margin-top="0"
     fit-margin-left="0"
     fit-margin-right="0"
     fit-margin-bottom="0" />
  <metadata
     id="metadata7">
    <rdf:RDF>
      <cc:Work
         rdf:about="">
        <dc:format>image/svg+xml</dc:format>
        <dc:type
           rdf:resource="http://purl.org/dc/dcmitype/StillImage" />
        <dc:title></dc:title>
      </cc:Work>
    </rdf:RDF>
  </metadata>
  <g
     inkscape:groupmode="layer"
     id="layer1"
     inkscape:label="Trace"
     transform="translate(6.6689549,-9.8308466)">
    <path
       style="display:inline;fill:#000000"
       d="m 171.87242,889.60888 8.79684,-47.04597 c 2.34483,-12.54028 10.83247,-33.41468 10.05122,-44.41299 -0.59916,-8.43467 6.2737,-25.02001 7.63414,-31.12713 1.36042,-6.10712 1.74324,-12.94798 0.85069,-15.20192 0.33086,-20.76511 2.70446,-25.72507 -7.89026,-41.94967 -20.16859,-31.66582 -29.63781,-68.92948 -33.48198,-102.44312 -1.37814,-6.65395 -5.7349,-30.84758 -9.6817,-53.76361 C 142.73443,522.21234 138.11668,503.75314 129.31332,478.3602 116.7307,442.06619 117.85733,443.91206 86.990668,409.01833 79.915785,401.02041 69.543375,388.04493 63.940871,380.18393 58.338368,372.32292 47.380579,358.22226 39.590231,348.84912 31.799885,339.47598 22.753289,327.15362 19.486683,321.46609 16.220079,315.77855 3.835585,292.13704 2.469056,289.93633 -8.0587656,272.98195 -9.2459551,261.99044 -9.0071161,252.93025 -8.5940993,237.26275 4.840975,233.83719 14.966897,230.03113 c 10.125923,-3.80606 26.317693,8.41362 38.494103,19.3491 11.23125,10.08664 33.34754,40.19891 36.772421,48.78899 3.982892,9.98966 17.200969,24.86314 34.162809,39.0287 8.772,7.32587 7.91094,16.87607 28.5767,29.04365 16.76342,9.86996 22.76997,18.44118 28.48217,20.80746 8.14784,3.37525 18.9041,-6.16985 19.44684,-11.11948 0,0 2.6317,-17.50939 -13.24175,-52.59197 -10.17677,-22.49211 -20.05247,-48.76113 -24.99799,-67.45187 -4.06335,-15.35673 -14.81683,-64.88541 -21.1488,-84.8485 -9.12567,-28.77093 -13.61883,-44.10251 -12.03418,-51.80149 1.63113,-7.92484 2.27857,-24.348555 7.0273,-31.404178 0,0 22.85298,-11.389914 30.67154,-10.603851 15.58227,1.56661 19.2994,5.21952 29.24986,28.744579 5.05974,11.96219 12.99529,33.19864 14.93388,41.79056 1.93857,8.59193 17.64582,47.02482 18.70045,51.64697 2.2984,10.07321 4.18544,24.33115 16.24953,57.94506 6.10506,8.5023 12.87593,41.93022 12.87593,41.93022 3.62786,16.54516 7.74055,32.7527 15.78497,39.90455 3.68067,2.74141 14.61099,-1.60518 17.65831,-7.02218 2.98646,-5.30867 2.64628,-45.74853 -1.93679,-87.5637 0,0 -5.02174,-24.25366 -3.59287,-36.92387 -2.55772,-44.20023 -3.69735,-87.85339 -5.84219,-102.02552 -3.25564,-21.512077 -2.96953,-36.364272 -1.90148,-56.872807 1.19537,-22.953035 -0.3728,-23.212751 14.14596,-34.044576 11.45299,-8.5445865 23.13562,-6.1026525 32.57004,-2.010348 10.10895,4.38491 10.38173,4.758062 17.03938,23.310006 7.39833,18.825211 8.90974,39.442348 12.05188,58.649666 1.24228,29.035079 7.69755,52.462929 10.08964,77.008029 3.75816,17.9481 3.45236,25.49037 7.61564,39.95576 -0.24686,16.55945 2.49755,53.60918 -0.0801,67.02295 -2.83788,12.70271 2.88858,43.98425 2.88858,43.98425 0,0 14.89039,9.67532 17.07419,-0.19037 4.34507,-19.62963 14.88635,-47.56641 12.96621,-52.41531 0,0 6.64013,-35.70861 11.18342,-49.27399 2.83807,-7.73477 8.64193,-52.42247 9.41378,-64.81842 0.22983,-3.69085 6.58792,-30.39928 6.65407,-38.34514 -1.84806,-17.37237 1.01625,-18.282777 4.3922,-34.074733 3.69707,-18.408219 11.54163,-32.518312 19.92412,-35.837729 8.96347,-3.549483 28.91581,-2.448657 35.6122,1.964824 10.62041,6.999764 15.65114,38.371301 13.3396,58.193568 -0.26088,13.4792 1.88358,26.74923 -1.27076,39.77729 -2.98337,6.67009 0.70695,21.0975 -1.51412,27.19116 -2.21276,5.90524 -5.47422,27.00549 -7.39795,49.77599 -4.7467,26.27503 -6.14633,36.81934 -10.96517,62.95745 -6.0835,27.07611 -5.45866,43.73698 -6.26784,59.98086 -6.98108,44.66892 6.08669,49.44155 3.84957,89.3618 6.84734,43.71181 16.86775,47.82053 20.0318,67.88651 15.60636,14.26197 51.2497,22.69742 65.95621,19.71309 51.90564,-5.62527 72.44008,-22.11317 105.97284,-56.05117 14.53528,-7.42606 9.67308,-8.59159 31.0946,-19.65844 26.87822,-13.88591 32.72789,-14.01596 49.95442,-6.96696 14.60225,6.21105 28.0778,19.67542 24.76161,37.81136 -4.90408,6.97229 -3.38723,20.66501 -21.04771,31.65022 -5.40676,3.36312 -31.38754,27.25433 -31.38754,27.25433 -49.41039,23.02245 -62.53577,23.58713 -112.65745,83.47943 -20.75301,16.09348 -40.35137,38.31942 -64.03288,42.04172 -10.86485,7.64053 -24.41907,20.50862 -32.88568,31.11193 -29.45562,26.31022 -61.80077,55.64779 -75.43702,74.46291 -20.91099,38.89973 -26.28976,79.31154 -35.28258,121.40301 -39.01937,1.31932 -158.60543,4.14207 -235.84042,-1.4336 z"
       id="path4137"
       inkscape:connector-curvature="0"
       sodipodi:nodetypes="cssscccsssssssssssssssssssssssscsccccssssccccccsccsccssccccccccccsccscccccccc" />
  </g>
</svg>
