<?xml version='1.0' encoding='ascii'?>
<svg xmlns="http://www.w3.org/2000/svg" xmlns:inkscape="http://www.inkscape.org/namespaces/inkscape" height="540" version="1.1" width="960">
    <g id="RenderLayer_LineSet" inkscape:groupmode="lineset" inkscape:label="RenderLayer_LineSet">
        <g id="strokes" inkscape:groupmode="layer" inkscape:label="strokes">
            <path d=" M 514.328, 89.487 508.241, 81.553 502.154, 73.619 496.067, 65.685 489.980, 57.751 483.893, 49.816 477.806, 41.882 471.719, 33.948 465.632, 26.014 463.105, 22.720 456.569, 30.289 450.034, 37.858 443.499, 45.427 436.963, 52.996 430.428, 60.565 423.893, 68.134 417.357, 75.703 410.822, 83.272 404.286, 90.841 397.751, 98.410 391.216, 105.979 384.680, 113.547 378.145, 121.116 371.610, 128.685 365.074, 136.254 358.539, 143.823 352.003, 151.392 345.468, 158.961 338.933, 166.530 332.397, 174.099 325.862, 181.668 319.327, 189.237 312.791, 196.806 306.256, 204.375 299.720, 211.944 293.185, 219.513 286.650, 227.082 280.114, 234.651 273.579, 242.219 267.044, 249.788 260.508, 257.357 253.973, 264.926 247.437, 272.495 240.902, 280.064 234.367, 287.633 227.831, 295.202 221.296, 302.771 214.761, 310.340 208.225, 317.909 201.690, 325.478 195.154, 333.047 190.745, 338.154 200.619, 336.575 204.163, 336.008 " fill="none" stroke="rgb(0, 0, 0)" stroke-linecap="butt" stroke-linejoin="round" stroke-opacity="1.0" stroke-width="3.0" />
            <path d=" M 514.328, 302.728 514.682, 303.606 518.415, 312.883 522.149, 322.160 525.882, 331.437 529.615, 340.714 533.349, 349.991 537.082, 359.268 540.815, 368.545 544.549, 377.822 548.282, 387.099 552.015, 396.376 555.748, 405.653 559.482, 414.930 563.215, 424.207 566.948, 433.484 570.682, 442.761 574.415, 452.038 578.148, 461.315 580.219, 466.460 583.952, 475.737 587.686, 485.014 591.419, 494.291 595.152, 503.568 598.886, 512.845 600.890, 517.826 604.844, 508.641 608.799, 499.456 612.753, 490.271 616.708, 481.086 620.662, 471.901 624.616, 462.716 628.571, 453.531 632.525, 444.347 636.479, 435.162 640.434, 425.977 644.388, 416.792 648.342, 407.607 652.297, 398.422 656.251, 389.237 660.206, 380.052 664.160, 370.867 668.114, 361.682 672.069, 352.497 676.023, 343.312 679.977, 334.127 683.932, 324.942 687.886, 315.757 691.840, 306.572 695.795, 297.388 700.122, 287.336 694.035, 279.402 687.948, 271.467 681.862, 263.533 675.775, 255.599 669.688, 247.665 663.601, 239.731 657.514, 231.797 651.427, 223.863 645.340, 215.929 639.253, 207.995 633.166, 200.061 627.079, 192.127 620.992, 184.193 614.905, 176.259 608.819, 168.325 602.732, 160.391 596.645, 152.456 590.558, 144.522 584.471, 136.588 578.384, 128.654 572.297, 120.720 566.210, 112.786 560.123, 104.852 554.036, 96.918 547.949, 88.984 541.862, 81.050 535.776, 73.116 529.689, 65.182 523.602, 57.248 517.515, 49.314 514.328, 45.159 514.328, 55.159 514.328, 65.159 514.328, 75.159 514.328, 85.159 514.328, 89.487 514.328, 99.487 514.328, 109.487 514.328, 119.487 514.328, 129.487 514.328, 139.487 514.328, 149.487 514.328, 159.487 514.328, 169.487 514.328, 179.487 514.328, 189.487 514.328, 199.487 514.328, 209.487 514.328, 219.487 514.328, 229.487 514.328, 239.487 514.328, 249.487 514.328, 259.487 514.328, 269.487 514.328, 276.045 514.328, 286.045 514.328, 286.415 514.328, 292.413 514.328, 302.413 514.328, 302.728 " fill="none" stroke="rgb(0, 0, 0)" stroke-linecap="butt" stroke-linejoin="round" stroke-opacity="1.0" stroke-width="3.0" />
            <path d=" M 600.890, 517.826 599.089, 507.990 597.287, 498.153 595.486, 488.317 593.685, 478.480 591.883, 468.644 590.082, 458.808 588.280, 448.971 588.122, 448.105 586.320, 438.268 584.519, 428.432 582.717, 418.596 580.916, 408.759 579.115, 398.923 577.313, 389.086 575.512, 379.250 573.710, 369.414 571.909, 359.577 570.108, 349.741 568.306, 339.904 566.505, 330.068 564.703, 320.232 562.902, 310.395 561.101, 300.559 559.299, 290.722 558.932, 288.717 557.253, 279.551 555.452, 269.715 553.651, 259.878 551.849, 250.042 550.048, 240.206 548.246, 230.369 546.445, 220.533 544.643, 210.696 542.842, 200.860 541.041, 191.024 539.239, 181.187 537.438, 171.351 535.636, 161.514 533.835, 151.678 532.034, 141.842 530.232, 132.005 528.431, 122.169 526.629, 112.332 524.991, 103.386 523.190, 93.549 521.388, 83.713 519.587, 73.877 517.785, 64.040 515.984, 54.204 514.328, 45.159 " fill="none" stroke="rgb(0, 0, 0)" stroke-linecap="butt" stroke-linejoin="round" stroke-opacity="1.0" stroke-width="3.0" />
            <path d=" M 179.119, 365.012 188.279, 369.025 197.439, 373.037 206.598, 377.050 215.758, 381.062 224.918, 385.075 234.077, 389.087 243.237, 393.100 252.397, 397.112 261.556, 401.125 270.716, 405.138 279.876, 409.150 289.035, 413.163 298.195, 417.175 307.355, 421.188 316.514, 425.200 325.674, 429.213 334.834, 433.226 343.993, 437.238 353.153, 441.251 362.313, 445.263 371.472, 449.276 380.632, 453.288 389.792, 457.301 398.951, 461.314 408.111, 465.326 417.271, 469.339 426.430, 473.351 435.590, 477.364 444.750, 481.376 453.909, 485.389 463.069, 489.401 472.228, 493.414 481.388, 497.427 490.548, 501.439 499.707, 505.452 508.867, 509.464 518.027, 513.477 527.186, 517.489 538.044, 522.246 536.243, 512.409 534.441, 502.573 533.752, 498.811 531.951, 488.975 530.149, 479.138 528.348, 469.302 526.546, 459.466 524.745, 449.629 522.943, 439.793 521.142, 429.956 519.341, 420.120 517.539, 410.284 515.738, 400.447 514.921, 395.987 513.119, 386.150 511.318, 376.314 509.516, 366.477 507.715, 356.641 505.913, 346.805 504.112, 336.968 502.311, 327.132 500.509, 317.295 498.708, 307.459 498.477, 306.197 496.675, 296.361 496.227, 293.913 495.408, 289.440 493.606, 279.604 493.274, 277.789 491.472, 267.952 489.671, 258.116 487.869, 248.280 486.068, 238.443 484.266, 228.607 482.465, 218.770 480.664, 208.934 478.862, 199.098 477.061, 189.261 475.259, 179.425 473.458, 169.588 471.656, 159.752 469.855, 149.916 468.053, 140.079 466.252, 130.243 464.450, 120.406 463.105, 113.058 461.303, 103.222 459.502, 93.386 457.700, 83.549 455.899, 73.713 454.097, 63.876 452.296, 54.040 451.479, 49.579 444.944, 57.148 438.408, 64.717 431.873, 72.286 425.338, 79.855 418.802, 87.424 412.267, 94.993 405.731, 102.562 399.196, 110.131 392.661, 117.700 386.125, 125.269 379.590, 132.838 373.054, 140.407 366.519, 147.976 359.984, 155.545 353.448, 163.114 346.913, 170.682 340.378, 178.251 333.842, 185.820 327.307, 193.389 320.771, 200.958 314.236, 208.527 307.701, 216.096 301.165, 223.665 294.630, 231.234 288.094, 238.803 281.559, 246.372 275.024, 253.941 268.488, 261.510 261.953, 269.079 255.418, 276.648 248.882, 284.216 242.347, 291.785 235.811, 299.354 229.276, 306.923 222.741, 314.492 216.205, 322.061 209.670, 329.630 204.908, 335.145 204.163, 336.008 197.627, 343.577 191.092, 351.146 184.556, 358.715 179.119, 365.012 " fill="none" stroke="rgb(0, 0, 0)" stroke-linecap="butt" stroke-linejoin="round" stroke-opacity="1.0" stroke-width="3.0" />
            <path d=" M 533.752, 498.811 542.912, 502.824 552.071, 506.836 561.128, 510.804 565.083, 501.619 569.037, 492.434 572.991, 483.249 576.946, 474.064 580.219, 466.460 " fill="none" stroke="rgb(0, 0, 0)" stroke-linecap="butt" stroke-linejoin="round" stroke-opacity="1.0" stroke-width="3.0" />
            <path d=" M 204.908, 335.145 195.127, 337.223 190.745, 338.154 " fill="none" stroke="rgb(0, 0, 0)" stroke-linecap="butt" stroke-linejoin="round" stroke-opacity="1.0" stroke-width="3.0" />
            <path d=" M 463.105, 113.058 463.105, 103.058 463.105, 93.058 463.105, 83.058 463.105, 73.058 463.105, 63.058 463.105, 53.058 463.105, 43.058 463.105, 33.058 463.105, 22.720 " fill="none" stroke="rgb(0, 0, 0)" stroke-linecap="butt" stroke-linejoin="round" stroke-opacity="1.0" stroke-width="3.0" />
            <path d=" M 514.921, 395.987 518.654, 405.264 522.388, 414.541 526.121, 423.817 529.854, 433.094 533.588, 442.371 537.321, 451.648 541.055, 460.925 544.788, 470.202 548.522, 479.479 552.255, 488.756 555.989, 498.033 559.722, 507.310 561.128, 510.804 " fill="none" stroke="rgb(0, 0, 0)" stroke-linecap="butt" stroke-linejoin="round" stroke-opacity="1.0" stroke-width="3.0" />
            <path d=" M 514.328, 276.045 504.362, 276.870 494.396, 277.696 493.274, 277.789 " fill="none" stroke="rgb(0, 0, 0)" stroke-linecap="butt" stroke-linejoin="round" stroke-opacity="1.0" stroke-width="3.0" />
            <path d=" M 495.408, 289.440 505.282, 287.861 514.328, 286.415 " fill="none" stroke="rgb(0, 0, 0)" stroke-linecap="butt" stroke-linejoin="round" stroke-opacity="1.0" stroke-width="3.0" />
            <path d=" M 514.328, 292.413 504.362, 293.239 496.227, 293.913 " fill="none" stroke="rgb(0, 0, 0)" stroke-linecap="butt" stroke-linejoin="round" stroke-opacity="1.0" stroke-width="3.0" />
        </g>
    </g>
    <g id="RenderLayer_LineSet 2" inkscape:groupmode="lineset" inkscape:label="RenderLayer_LineSet 2" xmlns:inkscape="http://www.inkscape.org/namespaces/inkscape">
        <g id="strokes" inkscape:groupmode="layer" inkscape:label="strokes" xmlns:inkscape="http://www.inkscape.org/namespaces/inkscape">
            <path d=" M 648.901, 264.897 638.936, 265.723 628.970, 266.548 619.004, 267.374 609.038, 268.199 599.072, 269.025 589.106, 269.850 579.140, 270.676 569.175, 271.502 559.209, 272.327 549.243, 273.153 539.277, 273.978 529.311, 274.804 519.345, 275.629 514.328, 276.045 " fill="none" stroke="rgb(0, 0, 0)" stroke-dasharray="1,2" stroke-linecap="butt" stroke-linejoin="round" stroke-opacity="1.0" stroke-width="1.1000001430511475" />
            <path d=" M 463.104, 280.288 453.323, 282.366 443.541, 284.444 433.759, 286.523 423.978, 288.601 414.196, 290.679 404.414, 292.757 394.633, 294.836 384.851, 296.914 375.070, 298.992 365.288, 301.070 355.506, 303.148 345.725, 305.227 335.943, 307.305 326.161, 309.383 316.380, 311.461 306.598, 313.540 296.816, 315.618 287.035, 317.696 277.253, 319.774 267.471, 321.852 257.690, 323.931 247.908, 326.009 238.126, 328.087 228.345, 330.165 218.563, 332.244 208.781, 334.322 204.908, 335.145 " fill="none" stroke="rgb(0, 0, 0)" stroke-dasharray="1,2" stroke-linecap="butt" stroke-linejoin="round" stroke-opacity="1.0" stroke-width="1.1000001430511475" />
            <path d=" M 493.274, 277.789 483.308, 278.614 473.342, 279.440 463.104, 280.288 463.105, 270.288 463.105, 260.288 463.105, 250.288 463.105, 240.288 463.105, 230.288 463.105, 220.288 463.105, 210.288 463.105, 200.288 463.105, 190.288 463.105, 180.288 463.105, 170.288 463.105, 160.288 463.105, 150.288 463.105, 140.288 463.105, 130.288 463.105, 120.288 463.105, 113.058 " fill="none" stroke="rgb(0, 0, 0)" stroke-dasharray="1,2" stroke-linecap="butt" stroke-linejoin="round" stroke-opacity="1.0" stroke-width="1.1000001430511475" />
            <path d=" M 514.328, 286.415 524.203, 284.836 534.077, 283.257 543.952, 281.678 553.826, 280.099 557.253, 279.551 567.128, 277.972 577.002, 276.394 586.877, 274.815 596.752, 273.236 606.626, 271.657 616.501, 270.078 626.375, 268.499 636.250, 266.920 646.124, 265.341 648.901, 264.897 642.815, 256.963 636.728, 249.029 630.641, 241.095 624.554, 233.161 618.467, 225.227 612.380, 217.293 606.293, 209.359 600.206, 201.425 594.119, 193.491 588.032, 185.557 581.945, 177.623 575.858, 169.689 569.771, 161.755 563.684, 153.821 557.597, 145.887 551.510, 137.953 545.423, 130.019 539.336, 122.084 533.250, 114.150 527.163, 106.216 524.991, 103.386 518.904, 95.452 514.328, 89.487 " fill="none" stroke="rgb(0, 0, 0)" stroke-dasharray="1,2" stroke-linecap="butt" stroke-linejoin="round" stroke-opacity="1.0" stroke-width="1.1000001430511475" />
            <path d=" M 514.328, 302.728 524.294, 301.902 534.260, 301.076 544.226, 300.251 554.192, 299.425 564.158, 298.599 574.123, 297.774 584.089, 296.948 594.055, 296.123 604.021, 295.297 613.987, 294.471 623.953, 293.646 633.919, 292.820 643.884, 291.995 653.850, 291.169 655.755, 291.011 665.720, 290.186 675.686, 289.360 685.652, 288.534 695.618, 287.709 700.122, 287.336 " fill="none" stroke="rgb(0, 0, 0)" stroke-dasharray="1,2" stroke-linecap="butt" stroke-linejoin="round" stroke-opacity="1.0" stroke-width="1.1000001430511475" />
            <path d=" M 179.119, 365.012 188.901, 362.934 198.683, 360.856 208.465, 358.777 212.254, 357.972 222.035, 355.894 231.817, 353.816 241.599, 351.738 251.380, 349.660 261.162, 347.582 270.944, 345.503 280.725, 343.425 290.507, 341.347 300.289, 339.269 310.070, 337.191 319.852, 335.113 329.634, 333.034 339.416, 330.956 349.197, 328.878 358.979, 326.800 368.761, 324.722 378.542, 322.644 388.324, 320.565 398.106, 318.487 407.887, 316.409 417.669, 314.331 427.451, 312.253 437.232, 310.175 447.014, 308.096 451.478, 307.148 " fill="none" stroke="rgb(0, 0, 0)" stroke-dasharray="1,2" stroke-linecap="butt" stroke-linejoin="round" stroke-opacity="1.0" stroke-width="1.1000001430511475" />
            <path d=" M 451.479, 49.579 451.479, 59.579 451.479, 69.579 451.479, 79.579 451.479, 89.579 451.479, 99.579 451.479, 109.579 451.479, 119.579 451.479, 129.579 451.479, 139.579 451.479, 149.579 451.479, 159.579 451.479, 169.579 451.479, 179.579 451.479, 189.579 451.479, 199.579 451.479, 209.579 451.479, 219.579 451.479, 229.579 451.479, 239.579 451.479, 249.579 451.479, 259.579 451.479, 269.579 451.479, 279.579 451.479, 289.579 451.478, 296.464 451.478, 300.612 451.478, 307.148 455.212, 316.425 458.945, 325.702 462.679, 334.979 466.412, 344.256 470.146, 353.533 473.879, 362.809 477.613, 372.086 481.346, 381.363 485.080, 390.640 488.813, 399.917 492.547, 409.194 496.280, 418.471 500.014, 427.748 503.747, 437.025 507.481, 446.302 511.214, 455.579 514.948, 464.856 518.681, 474.132 522.414, 483.409 526.148, 492.686 527.513, 496.078 531.246, 505.355 534.980, 514.632 538.044, 522.246 " fill="none" stroke="rgb(0, 0, 0)" stroke-dasharray="1,2" stroke-linecap="butt" stroke-linejoin="round" stroke-opacity="1.0" stroke-width="1.1000001430511475" />
            <path d=" M 580.219, 466.460 584.173, 457.275 588.122, 448.105 592.076, 438.920 596.030, 429.735 599.985, 420.550 603.939, 411.365 607.893, 402.180 611.848, 392.995 615.802, 383.810 619.757, 374.625 623.711, 365.440 627.665, 356.255 631.620, 347.071 635.574, 337.886 639.528, 328.701 643.483, 319.516 647.437, 310.331 651.391, 301.146 655.755, 291.011 659.709, 281.826 660.360, 280.313 650.395, 281.139 640.429, 281.965 630.463, 282.790 620.497, 283.616 610.531, 284.442 600.565, 285.268 590.599, 286.093 580.634, 286.919 570.668, 287.745 560.702, 288.571 558.932, 288.717 548.966, 289.543 539.000, 290.369 529.034, 291.195 519.069, 292.020 514.328, 292.413 " fill="none" stroke="rgb(0, 0, 0)" stroke-dasharray="1,2" stroke-linecap="butt" stroke-linejoin="round" stroke-opacity="1.0" stroke-width="1.1000001430511475" />
            <path d=" M 474.564, 295.708 478.298, 304.985 482.031, 314.262 485.764, 323.539 489.498, 332.815 493.231, 342.092 496.965, 351.369 500.698, 360.646 504.432, 369.923 508.165, 379.200 511.898, 388.477 514.921, 395.987 " fill="none" stroke="rgb(0, 0, 0)" stroke-dasharray="1,2" stroke-linecap="butt" stroke-linejoin="round" stroke-opacity="1.0" stroke-width="1.1000001430511475" />
            <path d=" M 496.227, 293.913 486.261, 294.739 476.295, 295.564 474.564, 295.708 464.782, 297.786 455.001, 299.864 451.478, 300.612 441.697, 302.690 431.915, 304.768 422.133, 306.846 412.352, 308.925 402.570, 311.003 392.788, 313.081 383.007, 315.159 373.225, 317.237 363.443, 319.315 353.662, 321.393 343.880, 323.471 334.098, 325.549 324.316, 327.627 314.535, 329.705 304.753, 331.783 294.971, 333.862 285.190, 335.940 275.408, 338.018 265.626, 340.096 255.845, 342.174 246.063, 344.252 236.281, 346.330 226.499, 348.408 216.718, 350.486 206.936, 352.564 202.204, 353.570 211.363, 357.582 212.254, 357.972 221.413, 361.985 230.573, 365.998 239.733, 370.010 248.892, 374.023 258.052, 378.035 267.212, 382.048 276.371, 386.060 285.531, 390.073 294.691, 394.086 303.850, 398.098 313.010, 402.111 322.170, 406.123 331.329, 410.136 340.489, 414.148 349.649, 418.161 358.808, 422.173 367.968, 426.186 377.128, 430.199 386.287, 434.211 395.447, 438.224 404.607, 442.236 413.766, 446.249 422.926, 450.261 432.085, 454.274 441.245, 458.287 450.405, 462.299 459.564, 466.312 468.724, 470.324 477.884, 474.337 487.043, 478.349 496.203, 482.362 505.363, 486.375 514.522, 490.387 523.682, 494.400 527.513, 496.078 533.752, 498.811 " fill="none" stroke="rgb(0, 0, 0)" stroke-dasharray="1,2" stroke-linecap="butt" stroke-linejoin="round" stroke-opacity="1.0" stroke-width="1.1000001430511475" />
            <path d=" M 660.360, 280.313 650.486, 281.892 640.611, 283.471 630.737, 285.050 620.862, 286.629 610.987, 288.208 601.113, 289.787 591.238, 291.365 581.364, 292.944 571.489, 294.523 561.615, 296.102 551.740, 297.681 541.866, 299.260 531.991, 300.839 522.116, 302.418 514.682, 303.606 504.807, 305.185 498.477, 306.197 488.602, 307.776 478.727, 309.355 468.853, 310.934 458.978, 312.513 449.104, 314.092 439.229, 315.671 429.355, 317.250 419.480, 318.829 409.605, 320.407 399.731, 321.986 389.856, 323.565 379.982, 325.144 370.107, 326.723 360.233, 328.302 350.358, 329.881 340.483, 331.460 330.609, 333.039 320.734, 334.617 310.860, 336.196 300.985, 337.775 291.111, 339.354 281.236, 340.933 271.361, 342.512 261.487, 344.091 251.612, 345.670 241.738, 347.248 231.863, 348.827 221.989, 350.406 212.114, 351.985 202.204, 353.570 " fill="none" stroke="rgb(0, 0, 0)" stroke-dasharray="1,2" stroke-linecap="butt" stroke-linejoin="round" stroke-opacity="1.0" stroke-width="1.1000001430511475" />
            <path d=" M 204.163, 336.008 214.037, 334.430 223.912, 332.851 233.786, 331.272 243.661, 329.693 253.535, 328.114 263.410, 326.535 273.284, 324.956 283.159, 323.377 293.034, 321.798 302.908, 320.220 312.783, 318.641 322.657, 317.062 332.532, 315.483 342.406, 313.904 352.281, 312.325 362.156, 310.746 372.030, 309.167 381.905, 307.589 391.779, 306.010 401.654, 304.431 411.528, 302.852 421.403, 301.273 431.278, 299.694 441.152, 298.115 451.478, 296.464 461.353, 294.885 471.228, 293.306 481.102, 291.727 490.977, 290.149 495.408, 289.440 " fill="none" stroke="rgb(0, 0, 0)" stroke-dasharray="1,2" stroke-linecap="butt" stroke-linejoin="round" stroke-opacity="1.0" stroke-width="1.1000001430511475" />
        </g>
    </g>
</svg>
