<?xml version='1.0' encoding='ascii'?>
<svg xmlns="http://www.w3.org/2000/svg" xmlns:inkscape="http://www.inkscape.org/namespaces/inkscape" height="540" version="1.1" width="960">
    <g id="RenderLayer_LineSet" inkscape:groupmode="lineset" inkscape:label="RenderLayer_LineSet">
        <g id="strokes" inkscape:groupmode="layer" inkscape:label="strokes">
            <path d=" M 474.560, 38.140 468.025, 45.709 461.489, 53.278 454.954, 60.847 448.419, 68.416 441.883, 75.985 435.348, 83.554 428.813, 91.122 422.277, 98.691 415.742, 106.260 409.206, 113.829 402.671, 121.398 396.136, 128.967 389.600, 136.536 383.065, 144.105 376.530, 151.674 369.994, 159.243 363.459, 166.812 356.923, 174.381 350.388, 181.950 343.853, 189.519 337.317, 197.088 330.782, 204.657 324.247, 212.226 317.711, 219.794 311.176, 227.363 304.640, 234.932 298.105, 242.501 291.570, 250.070 285.034, 257.639 278.499, 265.208 271.964, 272.777 265.428, 280.346 258.893, 287.915 252.357, 295.484 245.822, 303.053 239.287, 310.622 232.751, 318.191 226.216, 325.760 219.681, 333.329 213.145, 340.898 206.610, 348.466 202.206, 353.566 202.204, 353.569 202.203, 353.570 202.204, 353.570 " fill="none" stroke="rgb(0, 0, 0)" stroke-linecap="butt" stroke-linejoin="round" stroke-opacity="1.0" stroke-width="3.0" />
            <path d=" M 474.565, 38.139 474.563, 38.136 474.561, 38.139 " fill="none" stroke="rgb(0, 0, 0)" stroke-linecap="butt" stroke-linejoin="round" stroke-opacity="1.0" stroke-width="3.0" />
            <path d=" M 561.124, 510.794 561.128, 510.803 561.128, 510.804 561.128, 510.804 " fill="none" stroke="rgb(0, 0, 0)" stroke-linecap="butt" stroke-linejoin="round" stroke-opacity="1.0" stroke-width="3.0" />
            <path d=" M 660.360, 280.313 660.360, 280.313 654.273, 272.379 648.186, 264.445 642.099, 256.511 636.012, 248.577 629.925, 240.643 623.838, 232.709 617.751, 224.775 611.664, 216.841 605.577, 208.907 599.491, 200.973 593.404, 193.039 587.317, 185.104 581.230, 177.170 575.143, 169.236 569.056, 161.302 562.969, 153.368 556.882, 145.434 550.795, 137.500 544.708, 129.566 538.621, 121.632 532.534, 113.698 526.448, 105.764 520.361, 97.830 514.274, 89.896 508.187, 81.962 502.100, 74.028 496.013, 66.094 489.926, 58.159 483.839, 50.225 477.752, 42.291 474.565, 38.137 474.565, 38.139 474.565, 38.162 " fill="none" stroke="rgb(0, 0, 0)" stroke-linecap="butt" stroke-linejoin="round" stroke-opacity="1.0" stroke-width="3.0" />
            <path d=" M 561.128, 510.804 561.128, 510.803 559.326, 500.967 557.525, 491.131 555.723, 481.294 553.922, 471.458 552.121, 461.621 550.319, 451.785 548.518, 441.949 546.716, 432.112 544.915, 422.276 543.114, 412.439 541.312, 402.603 539.511, 392.767 537.709, 382.930 535.908, 373.094 534.107, 363.257 532.305, 353.421 530.504, 343.585 528.702, 333.748 526.901, 323.912 525.099, 314.075 522.940, 302.286 521.139, 292.450 521.031, 291.858 519.229, 282.021 517.428, 272.185 515.626, 262.348 513.825, 252.512 512.024, 242.676 510.222, 232.839 508.421, 223.003 506.619, 213.166 504.818, 203.330 503.017, 193.494 501.215, 183.657 499.414, 173.821 497.612, 163.984 495.811, 154.148 494.010, 144.312 492.208, 134.475 490.407, 124.639 488.605, 114.802 486.804, 104.966 485.003, 95.129 483.201, 85.293 481.400, 75.457 479.598, 65.620 477.797, 55.784 475.995, 45.947 474.566, 38.139 474.565, 38.137 " fill="none" stroke="rgb(0, 0, 0)" stroke-linecap="butt" stroke-linejoin="round" stroke-opacity="1.0" stroke-width="3.0" />
            <path d=" M 561.125, 510.801 561.124, 510.794 561.123, 510.792 559.322, 500.956 557.521, 491.119 555.719, 481.283 553.918, 471.446 552.116, 461.610 550.315, 451.774 548.513, 441.937 546.712, 432.101 544.910, 422.264 543.109, 412.428 541.307, 402.592 539.506, 392.755 537.705, 382.919 535.903, 373.082 534.102, 363.246 532.300, 353.410 530.499, 343.573 528.697, 333.737 526.896, 323.900 525.094, 314.064 522.937, 302.287 522.937, 302.286 521.136, 292.450 521.027, 291.858 521.027, 291.856 521.027, 291.855 519.226, 282.019 517.424, 272.182 515.623, 262.346 513.821, 252.510 512.020, 242.673 510.218, 232.837 508.417, 223.000 506.615, 213.164 504.814, 203.328 503.012, 193.491 501.211, 183.655 499.409, 173.818 497.608, 163.982 495.807, 154.146 494.005, 144.309 492.204, 134.473 490.402, 124.636 488.601, 114.800 486.799, 104.964 484.998, 95.127 483.196, 85.291 481.395, 75.454 479.593, 65.618 477.792, 55.782 475.991, 45.945 474.565, 38.162 474.563, 38.152 474.561, 38.139 474.560, 38.135 468.025, 45.704 461.489, 53.273 454.954, 60.842 448.419, 68.411 441.883, 75.980 435.348, 83.549 428.812, 91.118 422.277, 98.687 415.742, 106.255 409.206, 113.824 402.671, 121.393 396.136, 128.962 389.600, 136.531 383.065, 144.100 376.529, 151.669 369.994, 159.238 363.459, 166.807 356.923, 174.376 350.388, 181.945 343.853, 189.514 337.317, 197.083 330.782, 204.652 324.246, 212.221 317.711, 219.790 311.176, 227.358 304.640, 234.927 298.105, 242.496 291.569, 250.065 285.034, 257.634 278.499, 265.203 271.963, 272.772 265.428, 280.341 258.893, 287.910 252.357, 295.479 245.822, 303.048 239.286, 310.617 232.751, 318.186 226.216, 325.755 219.680, 333.324 213.145, 340.892 206.609, 348.461 202.201, 353.568 202.204, 353.569 " fill="none" stroke="rgb(0, 0, 0)" stroke-linecap="butt" stroke-linejoin="round" stroke-opacity="1.0" stroke-width="3.0" />
            <path d=" M 561.128, 510.804 561.128, 510.804 565.083, 501.619 569.037, 492.434 572.991, 483.249 576.946, 474.064 580.900, 464.879 584.854, 455.694 588.809, 446.509 592.763, 437.324 596.717, 428.139 600.672, 418.954 604.626, 409.769 608.580, 400.584 612.535, 391.400 616.489, 382.215 620.443, 373.030 624.398, 363.845 628.352, 354.660 632.307, 345.475 636.261, 336.290 640.215, 327.105 644.170, 317.920 648.124, 308.735 652.078, 299.550 656.033, 290.365 660.360, 280.313 660.360, 280.313 660.360, 280.313 " fill="none" stroke="rgb(0, 0, 0)" stroke-linecap="butt" stroke-linejoin="round" stroke-opacity="1.0" stroke-width="3.0" />
            <path d=" M 202.205, 353.570 202.204, 353.570 202.203, 353.570 " fill="none" stroke="rgb(0, 0, 0)" stroke-linecap="butt" stroke-linejoin="round" stroke-opacity="1.0" stroke-width="3.0" />
            <path d=" M 474.563, 38.152 474.563, 38.136 " fill="none" stroke="rgb(0, 0, 0)" stroke-linecap="butt" stroke-linejoin="round" stroke-opacity="1.0" stroke-width="3.0" />
            <path d=" M 561.128, 510.803 561.128, 510.804 " fill="none" stroke="rgb(0, 0, 0)" stroke-linecap="butt" stroke-linejoin="round" stroke-opacity="1.0" stroke-width="3.0" />
            <path d=" M 202.204, 353.570 211.364, 357.582 220.523, 361.595 229.683, 365.608 238.843, 369.620 248.002, 373.633 257.162, 377.645 266.322, 381.658 275.481, 385.670 284.641, 389.683 293.801, 393.696 302.960, 397.708 312.120, 401.721 321.280, 405.733 330.439, 409.746 339.599, 413.758 348.758, 417.771 357.918, 421.784 367.078, 425.796 376.237, 429.809 385.397, 433.821 394.557, 437.834 403.716, 441.846 412.876, 445.859 422.036, 449.872 431.195, 453.884 440.355, 457.897 449.515, 461.909 458.674, 465.922 467.834, 469.934 476.994, 473.947 486.153, 477.959 495.313, 481.972 504.473, 485.985 513.632, 489.997 522.792, 494.010 531.952, 498.022 541.111, 502.035 550.271, 506.047 561.128, 510.803 " fill="none" stroke="rgb(0, 0, 0)" stroke-linecap="butt" stroke-linejoin="round" stroke-opacity="1.0" stroke-width="3.0" />
            <path d=" M 660.360, 280.313 660.360, 280.313 " fill="none" stroke="rgb(0, 0, 0)" stroke-linecap="butt" stroke-linejoin="round" stroke-opacity="1.0" stroke-width="3.0" />
        </g>
    </g>
    <g id="RenderLayer_LineSet 2" inkscape:groupmode="lineset" inkscape:label="RenderLayer_LineSet 2" xmlns:inkscape="http://www.inkscape.org/namespaces/inkscape">
        <g id="strokes" inkscape:groupmode="layer" inkscape:label="strokes" xmlns:inkscape="http://www.inkscape.org/namespaces/inkscape">
            <path d=" M 660.360, 280.314 650.394, 281.139 650.051, 281.167 640.085, 281.993 630.119, 282.819 620.153, 283.644 610.188, 284.470 600.222, 285.295 590.256, 286.121 580.290, 286.946 570.324, 287.772 560.358, 288.597 550.392, 289.423 540.427, 290.248 530.461, 291.074 521.027, 291.855 511.061, 292.681 501.095, 293.506 491.129, 294.332 481.164, 295.157 474.566, 295.704 474.563, 295.704 " fill="none" stroke="rgb(0, 0, 0)" stroke-dasharray="1,2" stroke-linecap="butt" stroke-linejoin="round" stroke-opacity="1.0" stroke-width="1.1000001430511475" />
            <path d=" M 474.563, 38.152 474.563, 48.152 474.563, 58.152 474.563, 68.152 474.563, 78.152 474.563, 88.152 474.563, 98.152 474.563, 108.152 474.563, 118.152 474.563, 128.152 474.563, 138.152 474.563, 148.152 474.563, 158.152 474.563, 168.152 474.563, 178.152 474.563, 188.152 474.563, 198.152 474.563, 208.152 474.563, 218.152 474.563, 228.152 474.563, 238.152 474.563, 248.152 474.563, 258.152 474.563, 268.152 474.563, 278.152 474.563, 288.152 474.563, 295.704 464.781, 297.782 455.000, 299.861 445.218, 301.939 435.436, 304.017 425.655, 306.095 415.873, 308.174 406.091, 310.252 396.310, 312.330 386.528, 314.408 376.746, 316.486 366.965, 318.565 357.183, 320.643 347.401, 322.721 337.620, 324.799 327.838, 326.878 318.056, 328.956 308.275, 331.034 298.493, 333.112 288.711, 335.190 278.930, 337.269 269.148, 339.347 259.366, 341.425 249.585, 343.503 239.803, 345.582 230.021, 347.660 220.240, 349.738 215.809, 350.679 206.027, 352.758 202.205, 353.570 " fill="none" stroke="rgb(0, 0, 0)" stroke-dasharray="1,2" stroke-linecap="butt" stroke-linejoin="round" stroke-opacity="1.0" stroke-width="1.1000001430511475" />
            <path d=" M 202.204, 353.570 202.206, 353.570 212.080, 351.991 221.955, 350.412 231.829, 348.833 241.704, 347.254 251.578, 345.675 261.453, 344.096 271.328, 342.517 281.202, 340.939 291.077, 339.360 300.951, 337.781 310.826, 336.202 320.700, 334.623 330.575, 333.044 340.450, 331.465 350.324, 329.886 360.199, 328.308 370.073, 326.729 379.948, 325.150 389.822, 323.571 399.697, 321.992 409.572, 320.413 419.446, 318.834 429.321, 317.255 439.195, 315.676 449.070, 314.098 458.944, 312.519 468.819, 310.940 479.974, 309.156 479.976, 309.156 479.978, 309.155 489.853, 307.577 499.728, 305.998 509.602, 304.419 519.477, 302.840 522.937, 302.287 522.940, 302.286 532.815, 300.707 542.690, 299.128 552.564, 297.549 562.439, 295.971 572.313, 294.392 582.188, 292.813 592.062, 291.234 601.937, 289.655 611.812, 288.076 621.686, 286.497 631.561, 284.918 641.435, 283.339 651.310, 281.761 660.360, 280.314 660.360, 280.314 660.360, 280.313 " fill="none" stroke="rgb(0, 0, 0)" stroke-dasharray="1,2" stroke-linecap="butt" stroke-linejoin="round" stroke-opacity="1.0" stroke-width="1.1000001430511475" />
            <path d=" M 474.565, 38.162 474.565, 48.162 474.565, 58.162 474.565, 68.162 474.565, 78.162 474.565, 88.162 474.565, 98.162 474.565, 108.162 474.565, 118.162 474.565, 128.162 474.565, 138.162 474.565, 148.162 474.565, 158.162 474.565, 168.162 474.566, 178.162 474.566, 188.162 474.566, 198.162 474.566, 208.162 474.566, 218.162 474.566, 228.162 474.566, 238.162 474.566, 248.162 474.566, 258.162 474.566, 268.162 474.566, 278.162 474.566, 288.162 474.566, 295.704 474.566, 295.705 474.567, 295.708 478.300, 304.984 479.978, 309.155 479.978, 309.155 483.712, 318.432 487.445, 327.709 491.178, 336.986 494.912, 346.263 498.645, 355.540 502.378, 364.817 506.112, 374.094 509.845, 383.371 513.578, 392.648 517.312, 401.925 521.045, 411.202 524.778, 420.479 528.512, 429.756 532.245, 439.033 535.978, 448.310 539.712, 457.587 543.445, 466.864 547.098, 475.942 550.832, 485.219 554.565, 494.496 558.298, 503.773 561.124, 510.794 " fill="none" stroke="rgb(0, 0, 0)" stroke-dasharray="1,2" stroke-linecap="butt" stroke-linejoin="round" stroke-opacity="1.0" stroke-width="1.1000001430511475" />
            <path d=" M 474.566, 295.705 484.532, 294.880 494.498, 294.054 504.463, 293.229 514.429, 292.403 521.027, 291.856 530.993, 291.031 540.959, 290.205 550.925, 289.380 560.891, 288.554 570.856, 287.728 580.822, 286.903 590.788, 286.077 600.754, 285.251 610.720, 284.426 620.686, 283.600 630.652, 282.775 640.617, 281.949 644.949, 281.590 654.915, 280.765 660.360, 280.314 660.360, 280.313 " fill="none" stroke="rgb(0, 0, 0)" stroke-dasharray="1,2" stroke-linecap="butt" stroke-linejoin="round" stroke-opacity="1.0" stroke-width="1.1000001430511475" />
            <path d=" M 561.128, 510.804 561.128, 510.803 565.082, 501.618 569.037, 492.433 572.991, 483.248 576.945, 474.063 580.900, 464.879 584.854, 455.694 588.808, 446.509 592.763, 437.324 596.717, 428.139 600.672, 418.954 604.626, 409.769 608.580, 400.584 612.535, 391.399 616.489, 382.214 620.443, 373.029 624.398, 363.844 628.352, 354.659 632.306, 345.474 636.261, 336.289 640.215, 327.105 644.169, 317.920 648.124, 308.735 652.078, 299.550 656.033, 290.365 660.360, 280.313 660.360, 280.313 " fill="none" stroke="rgb(0, 0, 0)" stroke-dasharray="1,2" stroke-linecap="butt" stroke-linejoin="round" stroke-opacity="1.0" stroke-width="1.1000001430511475" />
            <path d=" M 202.201, 353.568 202.206, 353.566 211.988, 351.488 221.770, 349.410 231.551, 347.332 241.333, 345.254 251.115, 343.175 260.896, 341.097 270.678, 339.019 280.460, 336.941 290.241, 334.863 300.023, 332.785 309.805, 330.706 319.587, 328.628 329.368, 326.550 339.150, 324.472 348.932, 322.394 358.713, 320.316 368.495, 318.237 378.277, 316.159 388.058, 314.081 397.840, 312.003 407.622, 309.925 417.403, 307.847 427.185, 305.768 436.967, 303.690 446.748, 301.612 456.530, 299.534 466.312, 297.456 474.560, 295.704 " fill="none" stroke="rgb(0, 0, 0)" stroke-dasharray="1,2" stroke-linecap="butt" stroke-linejoin="round" stroke-opacity="1.0" stroke-width="1.1000001430511475" />
            <path d=" M 474.560, 38.135 474.560, 38.140 474.560, 48.140 474.560, 58.140 474.560, 68.140 474.560, 78.140 474.560, 88.140 474.560, 98.140 474.560, 108.140 474.560, 118.140 474.560, 128.140 474.560, 138.140 474.560, 148.140 474.560, 158.140 474.560, 168.140 474.560, 178.140 474.560, 188.140 474.560, 198.140 474.560, 208.140 474.560, 218.140 474.560, 228.140 474.560, 238.140 474.560, 248.140 474.560, 258.140 474.560, 268.140 474.560, 278.140 474.560, 288.140 474.560, 295.704 474.561, 295.708 478.295, 304.985 479.974, 309.156 483.707, 318.433 487.441, 327.710 491.174, 336.987 494.907, 346.264 498.641, 355.541 502.374, 364.818 506.108, 374.095 509.841, 383.372 513.575, 392.648 517.308, 401.925 521.042, 411.202 524.775, 420.479 528.509, 429.756 532.242, 439.033 535.976, 448.310 539.709, 457.587 543.443, 466.864 547.176, 476.141 550.910, 485.418 554.643, 494.695 558.376, 503.971 561.125, 510.801 551.966, 506.789 542.806, 502.776 533.646, 498.764 524.487, 494.751 515.327, 490.739 506.167, 486.726 497.008, 482.713 487.848, 478.701 478.688, 474.688 469.529, 470.676 460.369, 466.663 451.209, 462.651 442.050, 458.638 432.890, 454.626 423.730, 450.613 414.571, 446.600 405.411, 442.588 396.251, 438.575 387.092, 434.563 377.932, 430.550 368.772, 426.538 359.613, 422.525 350.453, 418.512 341.293, 414.500 332.134, 410.487 322.974, 406.475 313.814, 402.462 304.655, 398.450 295.495, 394.437 286.336, 390.424 277.176, 386.412 268.016, 382.399 258.857, 378.387 249.697, 374.374 240.537, 370.362 231.378, 366.349 222.218, 362.336 213.058, 358.324 202.206, 353.570 202.205, 353.570 202.205, 353.570 202.205, 353.569 202.204, 353.569 " fill="none" stroke="rgb(0, 0, 0)" stroke-dasharray="1,2" stroke-linecap="butt" stroke-linejoin="round" stroke-opacity="1.0" stroke-width="1.1000001430511475" />
            <path d=" M 474.564, 295.708 478.298, 304.985 479.976, 309.156 483.710, 318.433 487.443, 327.710 491.176, 336.987 494.910, 346.264 498.643, 355.540 502.377, 364.817 506.110, 374.094 509.844, 383.371 513.577, 392.648 517.311, 401.925 521.044, 411.202 524.777, 420.479 528.511, 429.756 532.244, 439.033 535.978, 448.310 539.711, 457.587 543.445, 466.864 547.098, 475.942 550.832, 485.219 554.565, 494.496 558.299, 503.773 561.123, 510.792 561.128, 510.803 " fill="none" stroke="rgb(0, 0, 0)" stroke-dasharray="1,2" stroke-linecap="butt" stroke-linejoin="round" stroke-opacity="1.0" stroke-width="1.1000001430511475" />
            <path d=" M 660.360, 280.313 650.394, 281.139 650.051, 281.167 644.949, 281.590 634.983, 282.416 625.017, 283.242 615.051, 284.067 605.086, 284.893 595.120, 285.719 585.154, 286.545 575.188, 287.370 565.222, 288.196 555.256, 289.022 545.291, 289.848 535.325, 290.673 525.359, 291.499 521.031, 291.858 521.027, 291.858 511.062, 292.684 501.096, 293.509 491.130, 294.335 481.164, 295.161 474.567, 295.708 474.564, 295.708 474.561, 295.708 464.780, 297.786 454.998, 299.864 445.216, 301.943 435.435, 304.021 425.653, 306.099 415.871, 308.177 406.090, 310.255 396.308, 312.333 386.526, 314.411 376.745, 316.489 366.963, 318.567 357.181, 320.645 347.399, 322.723 337.618, 324.801 327.836, 326.880 318.054, 328.958 308.273, 331.036 298.491, 333.114 288.709, 335.192 278.928, 337.270 269.146, 339.348 259.364, 341.426 249.583, 343.504 239.801, 345.582 230.019, 347.660 220.237, 349.739 215.809, 350.679 206.027, 352.757 202.205, 353.569 202.204, 353.570 202.204, 353.570 202.204, 353.570 " fill="none" stroke="rgb(0, 0, 0)" stroke-dasharray="1,2" stroke-linecap="butt" stroke-linejoin="round" stroke-opacity="1.0" stroke-width="1.1000001430511475" />
            <path d=" M 660.360, 280.313 660.360, 280.313 660.360, 280.313 650.485, 281.892 640.611, 283.471 630.736, 285.050 620.861, 286.629 610.987, 288.208 601.112, 289.787 591.238, 291.366 581.363, 292.944 571.489, 294.523 561.614, 296.102 551.740, 297.681 541.865, 299.260 531.990, 300.839 522.937, 302.286 513.063, 303.865 503.188, 305.444 493.314, 307.023 483.439, 308.602 479.978, 309.155 470.104, 310.734 460.229, 312.313 450.355, 313.892 440.480, 315.471 430.606, 317.050 420.731, 318.629 410.856, 320.207 400.982, 321.786 391.107, 323.365 381.233, 324.944 371.358, 326.523 361.484, 328.102 351.609, 329.681 341.734, 331.260 331.860, 332.839 321.985, 334.417 312.111, 335.996 302.236, 337.575 292.362, 339.154 282.487, 340.733 272.612, 342.312 262.738, 343.891 252.863, 345.470 242.989, 347.048 233.114, 348.627 223.240, 350.206 213.365, 351.785 202.205, 353.570 202.204, 353.570 " fill="none" stroke="rgb(0, 0, 0)" stroke-dasharray="1,2" stroke-linecap="butt" stroke-linejoin="round" stroke-opacity="1.0" stroke-width="1.1000001430511475" />
            <path d=" M 474.561, 38.139 474.560, 38.140 " fill="none" stroke="rgb(0, 0, 0)" stroke-dasharray="1,2" stroke-linecap="butt" stroke-linejoin="round" stroke-opacity="1.0" stroke-width="1.1000001430511475" />
            <path d=" M 561.128, 510.803 561.128, 510.803 561.128, 510.804 " fill="none" stroke="rgb(0, 0, 0)" stroke-dasharray="1,2" stroke-linecap="butt" stroke-linejoin="round" stroke-opacity="1.0" stroke-width="1.1000001430511475" />
            <path d=" M 660.360, 280.313 654.273, 272.379 648.186, 264.445 642.099, 256.511 636.012, 248.577 629.925, 240.643 623.838, 232.709 617.751, 224.775 611.664, 216.841 605.577, 208.907 599.490, 200.973 593.403, 193.039 587.316, 185.105 581.229, 177.171 575.142, 169.237 569.056, 161.303 562.969, 153.369 556.882, 145.435 550.795, 137.500 544.708, 129.566 538.621, 121.632 532.534, 113.698 526.447, 105.764 520.360, 97.830 514.273, 89.896 508.186, 81.962 502.099, 74.028 496.012, 66.094 489.925, 58.160 483.838, 50.226 477.751, 42.292 474.566, 38.139 474.565, 38.139 " fill="none" stroke="rgb(0, 0, 0)" stroke-dasharray="1,2" stroke-linecap="butt" stroke-linejoin="round" stroke-opacity="1.0" stroke-width="1.1000001430511475" />
        </g>
    </g>
</svg>
