# Blender v2.78 (sub 0) OBJ File: 'Tetra_4pod_connected.blend'
# www.blender.org
mtllib Tetra_4pod_connected.mtl
o Tetra-p2_10.001_Cone.040
v 54.677681 -78.129700 19.955269
v 57.377647 -75.053009 29.073380
v 54.515587 -84.520660 27.637627
v 63.250443 -81.330780 23.974808
vn -0.9468 0.2569 0.1937
vn 0.4538 -0.2662 0.8504
vn 0.0127 -0.7688 -0.6393
vn 0.4803 0.7781 -0.4048
usemtl Material.010
s off
f 1//1 3//1 2//1
f 2//2 3//2 4//2
f 4//3 3//3 1//3
f 1//4 2//4 4//4
o Tetra-p2_16.001_Cone.039
v 54.239784 -77.363815 16.772739
v 58.555450 -72.445969 31.347340
v 53.980701 -87.579254 29.052376
v 43.241135 -75.779617 28.250954
vn -0.9468 0.2569 0.1937
vn 0.1774 0.0949 -0.9796
vn 0.6185 0.5976 0.5102
vn 0.1509 -0.9493 0.2756
usemtl Material.009
s off
f 5//5 7//5 6//5
f 6//6 7//6 8//6
f 8//7 7//7 5//7
f 5//8 6//8 8//8
o Tetra-p2_22.001_Cone.038
v 60.826775 -70.340607 31.908260
v 54.527607 -91.177994 28.748848
v 48.512905 -80.520691 47.026463
v 39.740707 -74.930267 27.645506
vn 0.8286 -0.3201 0.4593
vn -0.7368 -0.6608 0.1429
vn -0.2692 0.8861 0.3774
vn 0.1774 0.0949 -0.9796
usemtl Material.008
s off
f 9//9 11//9 10//9
f 10//10 11//10 12//10
f 12//11 11//11 9//11
f 9//12 10//12 12//12
o Tetra-p2_28.001_Cone.037
v 63.816204 -69.042755 30.918915
v 48.149197 -81.995087 50.153854
v 36.990093 -74.881927 25.495682
v 43.500786 -55.059925 44.146343
vn -0.2692 0.8861 0.3774
vn 0.9163 0.0702 -0.3944
vn 0.0021 -0.6856 0.7280
vn -0.6491 -0.2706 -0.7109
usemtl Material.007
s off
f 13//13 15//13 14//13
f 14//14 15//14 16//14
f 16//15 15//15 13//15
f 13//16 14//16 16//16
o Tetra-p2_34.001_Cone.036
v 17.474838 -72.593155 50.675743
v 49.328785 -84.439880 52.146694
v 35.764584 -75.793655 22.174046
v 43.678524 -51.699474 44.844398
vn -0.3416 -0.9328 -0.1145
vn 0.9163 0.0702 -0.3944
vn -0.6129 0.6389 -0.4650
vn 0.0383 0.2238 0.9739
usemtl Material
s off
f 17//17 19//17 18//17
f 18//18 19//18 20//18
f 20//19 19//19 17//19
f 17//20 18//20 20//20
o Tetra-p2_40.001_Cone.035
v 14.468433 -73.725052 52.570980
v 35.986618 -77.490616 19.038509
v 45.295376 -49.145237 45.710892
v 11.890892 -45.910755 23.911627
vn -0.6129 0.6389 -0.4650
vn -0.5077 -0.4961 0.7044
vn 0.3703 -0.6497 -0.6639
vn 0.7502 0.5069 0.4245
usemtl Material.006
s off
f 21//21 23//21 22//21
f 22//22 23//22 24//22
f 24//23 23//23 21//23
f 21//24 22//24 24//24
o Tetra-p2_46.001_Cone.034
v 12.978012 -76.187668 54.357227
v 48.383450 -47.957401 46.478142
v 10.017958 -44.244717 21.443485
v 9.895115 -31.746342 65.672478
vn 0.3703 -0.6497 -0.6639
vn 0.2608 0.9292 -0.2619
vn -0.9971 -0.0738 0.0181
vn 0.3660 -0.2057 0.9076
usemtl Material.005
s off
f 25//25 27//25 26//25
f 26//26 27//26 28//26
f 28//27 27//27 25//27
f 25//28 26//28 28//28
o Tetra-p2_52.001_Cone.033
v 8.743097 -44.467831 19.213596
v 52.126530 -48.666111 47.522625
v 8.607212 -30.335773 69.225914
v 34.224991 -1.725170 34.209801
vn 0.2608 0.9292 -0.2619
vn -0.5399 -0.4138 -0.7330
vn 0.8233 -0.5457 0.1564
vn -0.5442 0.0303 0.8384
usemtl Material.004
s off
f 29//29 31//29 30//29
f 30//30 31//30 32//30
f 32//31 31//31 29//31
f 29//32 30//32 32//32
o Tetra-p2_58.001_Cone.032
v 7.711338 -47.072414 16.679440
v -21.970730 -0.145267 33.652649
v 7.711102 -31.369823 72.576424
v 36.084560 0.745651 33.402622
v 7.711340 -47.072414 16.679449
v 7.711336 -47.072407 16.679455
v 7.711346 -47.072414 16.679464
v 7.711340 -47.072407 16.679472
v 7.711348 -47.072407 16.679478
v 7.711348 -47.072392 16.679485
v 7.711349 -47.072392 16.679489
v 7.711361 -47.072384 16.679491
v 7.711367 -47.072376 16.679493
v 7.711370 -47.072369 16.679497
v 7.711370 -47.072353 16.679499
v 7.711370 -47.072353 16.679501
v 7.711372 -47.072353 16.679501
v 7.711372 -47.072338 16.679497
v 7.711374 -47.072330 16.679495
v 7.711370 -47.072323 16.679495
v 7.711370 -47.072315 16.679491
v 7.711367 -47.072308 16.679487
vn -0.8072 -0.5683 0.1596
vn -0.0092 0.7766 0.6300
vn 0.8256 -0.5432 0.1526
vn -0.0092 0.3350 -0.9422
usemtl Material.003
s off
f 33//33 35//33 34//33
f 34//34 35//34 36//34
f 36//35 35//35 33//35
f 33//36 34//36 36//36
l 33 37
l 37 38
l 38 39
l 39 40
l 40 41
l 41 42
l 42 43
l 43 44
l 44 45
l 45 46
l 46 47
l 47 48
l 48 49
l 49 50
l 50 51
l 51 52
l 52 53
l 53 54
o Tetra-p2_64.001_Cone.031
v 8.022427 -51.482624 15.060437
v 39.328537 1.288631 33.489750
v -24.727669 0.305660 33.759132
v 7.063821 0.868652 -21.857590
vn -0.0091 0.3345 -0.9424
vn 0.0153 -0.9999 -0.0014
vn 0.8133 0.3452 0.4684
vn -0.8195 0.3202 0.4753
usemtl Material.002
s off
f 55//37 57//37 56//37
f 56//38 57//38 58//38
f 58//39 57//39 55//39
f 55//40 56//40 58//40
o Tetra-p3_10_Cone.030
v 80.530098 9.198688 -60.243267
v 72.753624 10.266883 -66.430458
v 81.312813 15.082911 -68.283928
v 80.823151 5.160980 -69.381477
vn -0.3216 0.7788 0.5386
vn -0.2737 0.1191 -0.9544
vn 0.9969 -0.0554 0.0565
vn -0.4016 -0.8424 0.3593
usemtl Material.010
s off
f 59//41 61//41 60//41
f 60//42 61//42 62//42
f 62//43 61//43 59//43
f 59//44 60//44 62//44
o Tetra-p3_16_Cone.029
v 81.742195 7.800660 -57.507694
v 69.312126 9.508099 -67.397438
v 82.993317 17.206125 -70.360077
v 73.821609 21.663744 -58.062878
vn -0.3216 0.7788 0.5386
vn 0.4880 -0.6382 0.5954
vn -0.7825 -0.4637 -0.4155
vn 0.6160 0.3232 -0.7184
usemtl Material.009
s off
f 63//45 65//45 64//45
f 64//46 65//46 66//46
f 66//47 65//47 63//47
f 63//48 64//48 66//48
o Tetra-p3_22_Cone.028
v 67.269279 7.216188 -68.090286
v 86.106918 17.816122 -72.169960
v 66.852562 27.790619 -75.858482
v 73.477638 23.953285 -55.237881
vn -0.0038 -0.3533 -0.9355
vn 0.4571 0.8892 0.0186
vn -0.9414 0.1023 0.3215
vn 0.4881 -0.6382 0.5954
usemtl Material.008
s off
f 67//49 69//49 68//49
f 68//50 69//50 70//50
f 70//51 69//51 67//51
f 67//52 68//52 70//52
o Tetra-p3_28_Cone.027
v 66.780838 3.876328 -68.544891
v 66.250771 30.053328 -78.428459
v 74.679359 25.169598 -52.193810
v 47.726833 22.038040 -59.042366
vn -0.9414 0.1023 0.3215
vn 0.1704 -0.9574 -0.2330
vn 0.1395 0.5700 -0.8097
vn 0.6314 0.2851 0.7212
usemtl Material.007
s off
f 71//53 73//53 72//53
f 72//54 73//54 74//54
f 74//55 73//55 71//55
f 71//56 72//56 74//56
o Tetra-p3_34_Cone.026
v 58.272533 52.210644 -56.634258
v 67.096352 30.844589 -81.590523
v 77.341522 24.908312 -49.701622
v 44.580021 21.101795 -58.026226
vn 0.8277 0.5359 -0.1662
vn 0.1704 -0.9574 -0.2330
vn -0.2531 0.0682 0.9650
vn -0.7450 0.3532 -0.5658
usemtl Material
s off
f 75//57 77//57 76//57
f 76//58 77//58 78//58
f 78//59 77//59 75//59
f 75//60 76//60 78//60
o Tetra-p3_40_Cone.025
v 58.102493 55.936085 -56.695560
v 80.537392 23.814600 -48.539410
v 41.994247 19.338665 -58.333313
v 51.938927 35.258766 -22.989531
vn -0.2531 0.0682 0.9650
vn -0.0016 0.9119 -0.4103
vn 0.9138 -0.3987 -0.0775
vn -0.6590 -0.5814 -0.4772
usemtl Material.006
s off
f 79//61 81//61 80//61
f 80//62 81//62 82//62
f 82//63 81//63 79//63
f 79//64 80//64 82//64
o Tetra-p3_46_Cone.024
v 59.081879 58.815948 -58.186775
v 40.581436 16.782999 -60.067787
v 52.003601 35.069145 -19.477398
v 16.262899 51.852814 -43.000565
vn 0.9138 -0.3987 -0.0775
vn -0.6075 -0.6461 0.4620
vn 0.0498 0.8472 0.5289
vn -0.3561 0.1976 -0.9133
usemtl Material.005
s off
f 83//65 85//65 84//65
f 84//66 85//66 86//66
f 86//67 85//67 83//67
f 83//68 84//68 86//68
o Tetra-p3_52_Cone.023
v 53.473206 35.133266 -17.359945
v 40.557114 14.455421 -63.259293
v 13.059584 54.109264 -43.960995
v 9.916230 7.148629 -21.920496
vn -0.6075 -0.6461 0.4620
vn 0.7611 0.2332 0.6053
vn 0.3552 -0.4165 -0.8368
vn -0.5088 0.8295 -0.2305
usemtl Material.004
s off
f 87//69 89//69 88//69
f 88//70 89//70 90//70
f 90//71 89//71 87//71
f 87//72 88//72 90//72
o Tetra-p3_58_Cone.022
v 57.062916 35.649303 -16.302614
v 8.947369 52.242733 11.640630
v 11.969423 56.765057 -46.164726
v 8.364860 4.426161 -21.291252
v 57.062912 35.649307 -16.302618
v 57.062904 35.649311 -16.302622
v 57.062901 35.649311 -16.302629
v 57.062893 35.649315 -16.302633
v 57.062885 35.649311 -16.302637
v 57.062878 35.649311 -16.302643
v 57.062866 35.649311 -16.302643
v 57.062859 35.649300 -16.302647
v 57.062851 35.649296 -16.302650
v 57.062847 35.649292 -16.302654
v 57.062840 35.649288 -16.302649
v 57.062832 35.649288 -16.302643
v 57.062828 35.649281 -16.302643
v 57.062820 35.649277 -16.302637
v 57.062813 35.649273 -16.302635
v 57.062805 35.649273 -16.302624
v 57.062805 35.649269 -16.302620
v 57.062801 35.649269 -16.302612
vn 0.3718 0.9238 0.0917
vn -0.9978 0.0456 -0.0486
vn 0.3555 -0.4211 -0.8345
vn 0.2705 -0.5483 0.7913
usemtl Material.003
s off
f 91//73 93//73 92//73
f 92//74 93//74 94//74
f 94//75 93//75 91//75
f 91//76 92//76 94//76
l 91 95
l 95 96
l 96 97
l 97 98
l 98 99
l 99 100
l 100 101
l 101 102
l 102 103
l 103 104
l 104 105
l 105 106
l 106 107
l 107 108
l 108 109
l 109 110
l 110 111
l 111 112
o Tetra-p3_64_Cone.021
v 61.598568 36.102219 -17.481857
v 7.871264 1.637544 -22.966293
v 8.517688 54.393627 13.373965
v 40.168953 2.030589 32.362011
vn 0.2710 -0.5483 0.7912
vn 0.8172 0.3201 -0.4793
vn -0.5523 -0.5583 -0.6191
vn -0.5358 0.7864 0.3072
usemtl Material.002
s off
f 113//77 115//77 114//77
f 114//78 115//78 116//78
f 116//79 115//79 113//79
f 113//80 114//80 116//80
o Tetra-p2_64_Cone.020
v 7.561380 36.102226 76.730995
v 39.174683 1.637547 32.944000
v 7.379874 54.393627 15.333690
v -24.889874 2.030585 33.250484
vn -0.8207 -0.5483 -0.1609
vn 0.0065 0.3201 0.9473
vn 0.8123 -0.5583 -0.1687
vn 0.0019 0.7864 -0.6177
usemtl Material.002
s off
f 117//81 119//81 118//81
f 118//82 119//82 120//82
f 120//83 119//83 117//83
f 117//84 118//84 120//84
o Tetra-p2_58_Cone.019
v 8.807932 35.649303 72.213379
v 8.666130 52.242722 16.572474
v 57.216019 56.765060 48.092316
v 37.477242 4.426154 32.533947
v 8.807941 35.649307 72.213379
v 8.807945 35.649311 72.213371
v 8.807957 35.649311 72.213379
v 8.807962 35.649315 72.213371
v 8.807970 35.649311 72.213371
v 8.807976 35.649311 72.213356
v 8.807981 35.649311 72.213356
v 8.807989 35.649300 72.213348
v 8.807994 35.649296 72.213348
v 8.807998 35.649292 72.213341
v 8.807998 35.649288 72.213326
v 8.808000 35.649288 72.213326
v 8.808002 35.649281 72.213318
v 8.808000 35.649277 72.213310
v 8.807998 35.649273 72.213303
v 8.807996 35.649273 72.213295
v 8.807992 35.649269 72.213287
v 8.807986 35.649269 72.213280
vn -0.2653 0.9238 0.2762
vn 0.5410 0.0456 -0.8398
vn 0.5450 -0.4211 0.7251
vn -0.8206 -0.5483 -0.1614
usemtl Material.003
s off
f 121//85 123//85 122//85
f 122//86 123//86 124//86
f 124//87 123//87 121//87
f 121//88 122//88 124//88
l 121 125
l 125 126
l 126 127
l 127 128
l 128 129
l 129 130
l 130 131
l 131 132
l 132 133
l 133 134
l 134 135
l 135 136
l 136 137
l 137 138
l 138 139
l 139 140
l 140 141
l 141 142
o Tetra-p2_52_Cone.018
v 11.518454 35.133259 69.633247
v 57.726509 14.455426 81.397255
v 54.762447 54.109261 47.934544
v 37.246494 7.148622 34.192081
vn -0.0964 -0.6461 -0.7571
vn -0.9048 0.2332 0.3564
vn 0.5471 -0.4165 0.7261
vn 0.4540 0.8295 -0.3254
usemtl Material.004
s off
f 143//89 145//89 144//89
f 144//90 145//90 146//90
f 146//91 145//91 143//91
f 143//92 144//92 146//92
o Tetra-p2_46_Cone.017
v 44.071190 58.815956 94.903923
v 54.950420 16.783003 79.822586
v 14.087027 35.069145 69.419266
v 52.329037 51.852806 50.228497
vn -0.3898 -0.3987 0.8301
vn -0.0964 -0.6461 -0.7571
vn -0.4829 0.8472 -0.2213
vn 0.9690 0.1976 0.1483
usemtl Material.005
s off
f 147//93 149//93 148//93
f 148//94 149//94 150//94
f 150//95 149//95 147//95
f 147//96 148//96 150//96
o Tetra-p2_40_Cone.016
v 43.269466 55.936092 93.310143
v 24.988586 23.814606 108.661285
v 52.741924 19.338669 80.178879
v 17.160967 35.258762 71.119331
vn -0.7092 0.0682 -0.7017
vn 0.3562 0.9119 0.2037
vn -0.3898 -0.3987 0.8301
vn 0.7427 -0.5814 -0.3321
usemtl Material.006
s off
f 151//97 153//97 152//97
f 152//98 153//98 154//98
f 154//99 153//99 151//99
f 151//100 152//100 154//100
o Tetra-p2_34_Cone.015
v 43.131348 52.210648 93.426765
v 60.332195 30.844604 113.546539
v 27.593021 24.908318 106.474678
v 51.183090 21.101799 82.264687
vn -0.2700 0.5359 0.7999
vn 0.1166 -0.9574 0.2641
vn -0.7092 0.0682 -0.7017
vn 0.8625 0.3532 -0.3623
usemtl Material
s off
f 155//101 157//101 156//101
f 156//102 157//102 158//102
f 158//103 157//103 155//103
f 155//104 156//104 158//104
o Tetra-p2_28_Cone.014
v 49.192112 3.876337 106.750481
v 58.016556 30.053337 111.233208
v 31.082397 25.169603 105.415260
v 50.489693 22.038044 85.497971
vn 0.1923 0.1023 -0.9760
vn 0.1166 -0.9574 0.2641
vn 0.6315 0.5700 0.5257
vn -0.9402 0.2851 0.1862
usemtl Material.007
s off
f 159//105 161//105 160//105
f 160//106 161//106 162//106
f 162//107 161//107 159//107
f 159//108 160//108 162//108
o Tetra-p2_22_Cone.013
v 48.554195 7.216197 106.946190
v 42.668480 17.816135 125.299889
v 55.490009 27.790628 110.469383
v 34.319508 23.953293 105.896584
vn 0.8121 -0.3533 0.4645
vn -0.2447 0.8892 0.3865
vn 0.1923 0.1023 -0.9760
vn -0.7596 -0.6382 0.1250
usemtl Material.008
s off
f 163//109 165//109 164//109
f 164//110 165//110 166//110
f 166//111 165//111 163//111
f 163//112 164//112 166//112
o Tetra-p2_16_Cone.010
v 32.152954 7.800669 114.188820
v 46.932762 9.508109 108.368927
v 42.657890 17.206135 121.698509
v 36.594055 21.663752 107.606964
vn -0.3057 0.7788 -0.5478
vn -0.7596 -0.6382 0.1250
vn 0.7511 -0.4637 -0.4699
vn 0.3142 0.3232 0.8927
usemtl Material.009
s off
f 167//113 169//113 168//113
f 168//114 169//114 170//114
f 170//115 169//115 167//115
f 167//116 168//116 170//116
o Tetra-p2_10_Cone.009
v 35.128052 9.198688 114.506874
v 44.374550 10.266879 110.865852
v 41.700123 15.082915 119.205063
v 42.895454 5.160980 119.329765
vn -0.3057 0.7788 -0.5478
vn 0.9634 0.1191 0.2402
vn -0.5473 -0.0554 0.8351
vn -0.1104 -0.8424 -0.5275
usemtl Material.010
s off
f 171//117 173//117 172//117
f 172//118 173//118 174//118
f 174//119 173//119 171//119
f 171//120 172//120 174//120
o Tetra-p1_10_Cone.012
v -93.232109 10.210201 -12.374673
v -94.732544 11.285152 -2.551792
v -100.513046 16.199608 -9.057412
v -101.373001 6.287960 -8.104107
vn 0.6389 0.7692 0.0134
vn -0.6912 0.1284 0.7112
vn -0.4461 -0.0473 -0.8937
vn 0.4984 -0.8503 0.1692
usemtl Material.010
s off
f 175//121 177//121 176//121
f 176//122 177//122 178//122
f 178//123 177//123 175//123
f 175//124 176//124 178//124
o Tetra-p1_16_Cone.011
v -91.478966 8.789497 -14.786076
v -93.877296 10.507722 0.915034
v -103.116959 18.363094 -9.483698
v -87.824562 22.587297 -7.610065
vn 0.6389 0.7692 0.0134
vn 0.2653 -0.6411 -0.7201
vn 0.0202 -0.4655 0.8848
vn -0.9243 0.3375 -0.1781
usemtl Material.009
s off
f 179//125 181//125 180//125
f 180//126 181//126 182//126
f 182//127 181//127 179//127
f 179//128 180//128 182//128
o Tetra-p1_22_Cone.008
v -93.500587 8.206399 3.028838
v -106.223022 19.022993 -11.288969
v -99.728455 28.870300 7.276511
v -85.166504 24.838758 -8.708548
vn -0.8157 -0.3418 0.4666
vn -0.1970 0.8930 -0.4047
vn 0.7474 0.0900 0.6582
vn 0.2653 -0.6411 -0.7201
usemtl Material.008
s off
f 183//129 185//129 184//129
f 184//130 185//130 186//130
f 186//131 185//131 183//131
f 183//132 184//132 186//132
o Tetra-p1_28_Cone.007
v -93.703560 4.868181 3.672984
v -101.627411 31.159012 9.077229
v -83.100845 26.028202 -11.259666
v -75.731041 22.741299 15.536427
vn 0.7474 0.0900 0.6582
vn -0.3013 -0.9529 -0.0340
vn -0.7636 0.5812 0.2813
vn 0.3174 0.2818 -0.9054
usemtl Material.007
s off
f 187//133 189//133 188//133
f 188//134 189//134 190//134
f 190//135 189//135 187//135
f 187//136 188//136 190//136
o Tetra-p1_34_Cone.006
v -78.413399 52.974686 5.233792
v -104.780327 31.996605 9.912293
v -82.260788 25.759993 -14.807732
v -73.302597 21.764650 17.763609
vn -0.5466 0.5453 -0.6355
vn -0.3013 -0.9529 -0.0340
vn 0.9645 0.0541 -0.2586
vn -0.1166 0.3535 0.9281
usemtl Material
s off
f 191//137 193//137 192//137
f 192//138 193//138 194//138
f 194//139 193//139 191//139
f 191//140 192//140 194//140
o Tetra-p1_40_Cone.001
v -78.326080 56.698944 5.417947
v -82.852753 24.680563 -18.161083
v -72.313774 19.982479 20.158455
v -46.315472 35.554562 -5.978254
vn 0.9645 0.0541 -0.2586
vn -0.3417 0.9169 0.2064
vn -0.5264 -0.3896 -0.7557
vn -0.0964 -0.5813 0.8079
usemtl Material.006
s off
f 195//141 197//141 196//141
f 196//142 197//142 198//142
f 198//143 197//143 195//143
f 195//144 196//144 198//144
o Tetra-p1_46_Cone.005
v -80.063065 59.605518 5.311640
v -73.157898 17.435856 22.241262
v -43.300861 35.322338 -7.776396
v -45.751511 52.075222 34.952564
vn -0.5264 -0.3896 -0.7557
vn 0.6926 -0.6571 0.2974
vn 0.4473 0.8411 -0.3041
vn -0.6135 0.2056 0.7624
usemtl Material.005
s off
f 199//145 201//145 200//145
f 200//146 201//146 202//146
f 202//147 201//147 199//147
f 199//148 200//148 202//148
o Tetra-p1_52_Cone.004
v -42.189991 35.373497 -10.102504
v -75.952141 15.147584 23.841259
v -44.963116 54.314720 38.214218
v -24.975830 7.060423 29.937368
vn 0.6926 -0.6571 0.2974
vn 0.1518 0.2325 -0.9607
vn -0.9090 -0.4030 0.1058
vn 0.0646 0.8277 0.5575
usemtl Material.004
s off
f 203//149 205//149 204//149
f 204//150 205//150 206//150
f 206//151 205//151 203//151
f 203//152 204//152 206//152
o Tetra-p1_58_Cone.003
v -43.043953 35.908424 -13.743214
v 5.326183 51.727905 14.209367
v -46.295952 56.987602 40.258053
v -23.701344 4.316705 30.968071
v -43.043957 35.908428 -13.743204
v -43.043957 35.908432 -13.743198
v -43.043961 35.908432 -13.743189
v -43.043961 35.908436 -13.743183
v -43.043961 35.908432 -13.743174
v -43.043961 35.908432 -13.743164
v -43.043957 35.908432 -13.743156
v -43.043957 35.908421 -13.743149
v -43.043953 35.908417 -13.743141
v -43.043953 35.908413 -13.743134
v -43.043945 35.908409 -13.743128
v -43.043938 35.908409 -13.743126
v -43.043938 35.908401 -13.743120
v -43.043930 35.908398 -13.743116
v -43.043922 35.908394 -13.743114
v -43.043911 35.908394 -13.743113
v -43.043907 35.908390 -13.743113
v -43.043900 35.908390 -13.743114
vn -0.0908 0.9258 -0.3669
vn 0.4532 0.0373 0.8906
vn -0.9072 -0.4076 0.1045
vn 0.5447 -0.5556 -0.6282
usemtl Material.003
s off
f 207//153 209//153 208//153
f 208//154 209//154 210//154
f 210//155 209//155 207//155
f 207//156 208//156 210//156
l 207 211
l 211 212
l 212 213
l 213 214
l 214 215
l 215 216
l 216 217
l 217 218
l 218 219
l 219 220
l 220 221
l 221 222
l 222 223
l 223 224
l 224 225
l 225 226
l 226 227
l 227 228
o Tetra-p1_64_Cone.002
v -46.309956 36.416183 -17.096333
v -24.953167 1.544632 32.222816
v 7.076702 53.853424 13.726463
v 7.080074 1.544636 -23.260399
vn 0.5443 -0.5556 -0.6285
vn -0.8165 0.3333 -0.4714
vn -0.2722 -0.5556 0.7857
vn 0.5443 0.7778 0.3143
usemtl Material.002
s off
f 229//157 231//157 230//157
f 230//158 231//158 232//158
f 232//159 231//159 229//159
f 229//160 230//160 232//160
o Tetra-base_70_Cone
v 7.680401 0.000000 -26.319221
v 42.657764 0.000000 34.263351
v 7.680401 57.114883 14.069160
v -27.296967 0.000000 34.263348
vn 0.8165 0.3333 -0.4714
vn -0.0000 0.3333 0.9428
vn -0.8165 0.3333 -0.4714
vn 0.0000 -1.0000 0.0000
usemtl Material.001
s off
f 233//161 235//161 234//161
f 234//162 235//162 236//162
f 236//163 235//163 233//163
f 233//164 234//164 236//164
