<?xml version='1.0' encoding='ascii'?>
<svg xmlns="http://www.w3.org/2000/svg" xmlns:inkscape="http://www.inkscape.org/namespaces/inkscape" height="540" version="1.1" width="960">
    <g id="RenderLayer_LineSet" inkscape:groupmode="lineset" inkscape:label="RenderLayer_LineSet">
        <g id="strokes" inkscape:groupmode="layer" inkscape:label="strokes">
            <path d=" M 465.172, 338.077 467.215, 328.288 467.797, 325.503 468.220, 315.512 468.345, 312.561 467.146, 302.633 466.797, 299.748 464.343, 291.406 462.992, 294.848 460.949, 304.637 460.367, 307.422 459.944, 317.413 459.819, 320.364 461.019, 330.292 461.367, 333.177 463.821, 341.519 465.172, 338.077 " fill="none" stroke="rgb(0, 0, 0)" stroke-linecap="butt" stroke-linejoin="round" stroke-opacity="1.0" stroke-width="3.0" />
            <path d=" M 457.407, 39.519 452.131, 48.014 446.855, 56.509 441.579, 65.004 436.303, 73.499 431.028, 81.995 425.752, 90.490 420.476, 98.985 415.200, 107.480 409.924, 115.975 404.649, 124.470 399.373, 132.965 394.097, 141.460 388.821, 149.955 383.545, 158.450 378.270, 166.945 372.994, 175.440 367.718, 183.935 362.442, 192.430 357.166, 200.925 351.891, 209.420 346.615, 217.915 341.339, 226.410 336.063, 234.906 330.787, 243.401 325.512, 251.896 320.236, 260.391 314.960, 268.886 309.684, 277.381 304.408, 285.876 299.133, 294.371 293.857, 302.866 288.581, 311.361 286.581, 314.581 289.320, 324.199 292.058, 333.817 294.797, 343.434 297.535, 353.052 300.274, 362.670 303.012, 372.288 305.751, 381.905 308.490, 391.523 311.228, 401.141 313.967, 410.758 316.705, 420.376 319.444, 429.994 322.182, 439.611 324.921, 449.229 327.659, 458.847 330.398, 468.465 333.137, 478.082 335.875, 487.700 338.614, 497.318 341.352, 506.935 344.051, 516.412 353.615, 513.493 363.180, 510.574 372.744, 507.655 382.309, 504.737 391.873, 501.818 401.438, 498.899 411.002, 495.980 420.567, 493.061 430.131, 490.142 439.696, 487.223 449.260, 484.304 458.825, 481.385 468.389, 478.466 477.954, 475.548 487.519, 472.629 497.083, 469.710 506.648, 466.791 516.212, 463.872 525.777, 460.953 535.341, 458.034 544.906, 455.115 554.470, 452.196 564.035, 449.278 573.599, 446.359 583.164, 443.440 592.728, 440.521 602.293, 437.602 611.857, 434.683 621.422, 431.764 630.986, 428.845 640.551, 425.926 650.115, 423.008 659.680, 420.089 669.244, 417.170 678.809, 414.251 688.373, 411.332 697.938, 408.413 707.503, 405.494 717.067, 402.575 726.632, 399.656 736.196, 396.738 741.707, 395.056 735.462, 387.246 729.217, 379.436 722.972, 371.625 716.726, 363.815 710.481, 356.005 704.236, 348.195 697.991, 340.385 691.745, 332.575 685.500, 324.765 679.255, 316.955 673.010, 309.145 666.764, 301.335 660.519, 293.525 654.274, 285.715 648.029, 277.905 641.784, 270.095 635.538, 262.285 629.293, 254.474 623.048, 246.664 616.803, 238.854 610.557, 231.044 604.312, 223.234 598.067, 215.424 591.822, 207.614 585.576, 199.804 579.331, 191.994 573.086, 184.184 566.841, 176.374 560.596, 168.564 554.350, 160.754 548.105, 152.944 541.860, 145.134 535.615, 137.324 529.369, 129.513 523.124, 121.703 516.879, 113.893 510.634, 106.083 504.388, 98.273 498.143, 90.463 491.898, 82.653 485.653, 74.843 479.408, 67.033 473.162, 59.223 466.917, 51.413 460.672, 43.603 457.407, 39.519 455.094, 49.248 452.781, 58.977 450.469, 68.706 448.156, 78.435 445.844, 88.164 443.531, 97.893 441.219, 107.622 438.906, 117.351 436.594, 127.080 434.281, 136.809 431.969, 146.538 429.656, 156.267 427.344, 165.995 425.031, 175.724 422.719, 185.453 420.406, 195.182 418.093, 204.911 415.781, 214.640 413.468, 224.369 411.156, 234.098 408.843, 243.827 407.222, 250.649 404.909, 260.378 402.597, 270.107 400.284, 279.836 397.972, 289.564 395.659, 299.293 393.347, 309.022 391.034, 318.751 388.721, 328.480 386.409, 338.209 384.096, 347.938 381.784, 357.667 379.510, 367.233 377.198, 376.962 374.885, 386.691 372.573, 396.420 370.260, 406.149 367.947, 415.878 365.635, 425.607 363.322, 435.335 361.010, 445.064 358.697, 454.793 356.385, 464.522 354.072, 474.251 351.760, 483.980 349.447, 493.709 347.135, 503.438 344.822, 513.167 344.051, 516.412 " fill="none" stroke="rgb(0, 0, 0)" stroke-linecap="butt" stroke-linejoin="round" stroke-opacity="1.0" stroke-width="3.0" />
            <path d=" M 464.343, 291.406 467.592, 283.126 472.824, 274.604 473.990, 272.704 480.728, 265.315 481.940, 263.985 490.031, 258.108 491.138, 257.303 500.308, 253.316 501.229, 252.915 511.068, 251.128 511.825, 250.990 521.809, 251.560 522.521, 251.601 532.096, 254.482 532.903, 254.725 541.589, 259.680 542.574, 260.242 550.021, 266.917 551.162, 267.941 557.156, 275.946 558.337, 277.524 562.768, 286.489 563.823, 288.624 566.645, 298.218 567.409, 300.815 568.609, 310.743 568.958, 313.627 568.534, 323.618 568.409, 326.569 566.366, 336.358 565.784, 339.143 562.132, 348.452 561.185, 350.866 555.953, 359.388 554.787, 361.287 548.049, 368.676 546.836, 370.006 538.746, 375.884 537.639, 376.688 528.468, 380.676 527.547, 381.076 517.709, 382.864 516.951, 383.002 506.967, 382.431 506.256, 382.390 496.680, 379.509 495.873, 379.266 487.187, 374.311 486.202, 373.749 478.756, 367.074 477.614, 366.051 471.621, 358.046 470.439, 356.467 466.009, 347.502 465.361, 346.193 464.953, 345.367 463.821, 341.519 " fill="none" stroke="rgb(0, 0, 0)" stroke-linecap="butt" stroke-linejoin="round" stroke-opacity="1.0" stroke-width="3.0" />
        </g>
    </g>
    <g id="RenderLayer_LineSet 2" inkscape:groupmode="lineset" inkscape:label="RenderLayer_LineSet 2" xmlns:inkscape="http://www.inkscape.org/namespaces/inkscape">
        <g id="strokes" inkscape:groupmode="layer" inkscape:label="strokes" xmlns:inkscape="http://www.inkscape.org/namespaces/inkscape">
            <path d=" M 511.825, 250.990 510.829, 250.979 509.833, 250.969 508.837, 250.958 " fill="none" stroke="rgb(0, 0, 0)" stroke-linecap="butt" stroke-linejoin="round" stroke-opacity="1.0" stroke-width="3.0" />
            <path d=" M 506.845, 250.937 505.849, 250.926 504.853, 250.916 503.857, 250.905 " fill="none" stroke="rgb(0, 0, 0)" stroke-linecap="butt" stroke-linejoin="round" stroke-opacity="1.0" stroke-width="3.0" />
            <path d=" M 501.865, 250.884 500.869, 250.874 499.873, 250.863 498.877, 250.853 " fill="none" stroke="rgb(0, 0, 0)" stroke-linecap="butt" stroke-linejoin="round" stroke-opacity="1.0" stroke-width="3.0" />
            <path d=" M 496.885, 250.831 495.889, 250.821 494.893, 250.810 493.897, 250.800 " fill="none" stroke="rgb(0, 0, 0)" stroke-linecap="butt" stroke-linejoin="round" stroke-opacity="1.0" stroke-width="3.0" />
            <path d=" M 491.905, 250.779 490.909, 250.768 489.913, 250.758 488.917, 250.747 " fill="none" stroke="rgb(0, 0, 0)" stroke-linecap="butt" stroke-linejoin="round" stroke-opacity="1.0" stroke-width="3.0" />
            <path d=" M 486.925, 250.726 485.929, 250.715 484.933, 250.705 483.937, 250.694 " fill="none" stroke="rgb(0, 0, 0)" stroke-linecap="butt" stroke-linejoin="round" stroke-opacity="1.0" stroke-width="3.0" />
            <path d=" M 481.945, 250.673 480.949, 250.663 479.953, 250.652 478.957, 250.641 " fill="none" stroke="rgb(0, 0, 0)" stroke-linecap="butt" stroke-linejoin="round" stroke-opacity="1.0" stroke-width="3.0" />
            <path d=" M 476.965, 250.620 475.969, 250.610 474.973, 250.599 473.977, 250.589 " fill="none" stroke="rgb(0, 0, 0)" stroke-linecap="butt" stroke-linejoin="round" stroke-opacity="1.0" stroke-width="3.0" />
            <path d=" M 471.985, 250.568 470.989, 250.557 469.993, 250.546 468.997, 250.536 " fill="none" stroke="rgb(0, 0, 0)" stroke-linecap="butt" stroke-linejoin="round" stroke-opacity="1.0" stroke-width="3.0" />
            <path d=" M 467.005, 250.515 466.009, 250.504 465.013, 250.494 464.017, 250.483 " fill="none" stroke="rgb(0, 0, 0)" stroke-linecap="butt" stroke-linejoin="round" stroke-opacity="1.0" stroke-width="3.0" />
            <path d=" M 462.025, 250.462 461.029, 250.451 460.032, 250.441 459.036, 250.430 " fill="none" stroke="rgb(0, 0, 0)" stroke-linecap="butt" stroke-linejoin="round" stroke-opacity="1.0" stroke-width="3.0" />
            <path d=" M 457.044, 250.409 456.048, 250.399 455.052, 250.388 454.056, 250.378 " fill="none" stroke="rgb(0, 0, 0)" stroke-linecap="butt" stroke-linejoin="round" stroke-opacity="1.0" stroke-width="3.0" />
            <path d=" M 452.064, 250.356 451.068, 250.346 450.072, 250.335 449.076, 250.325 " fill="none" stroke="rgb(0, 0, 0)" stroke-linecap="butt" stroke-linejoin="round" stroke-opacity="1.0" stroke-width="3.0" />
            <path d=" M 447.084, 250.304 446.088, 250.293 445.092, 250.283 444.096, 250.272 " fill="none" stroke="rgb(0, 0, 0)" stroke-linecap="butt" stroke-linejoin="round" stroke-opacity="1.0" stroke-width="3.0" />
            <path d=" M 442.104, 250.251 441.108, 250.240 440.112, 250.230 439.116, 250.219 " fill="none" stroke="rgb(0, 0, 0)" stroke-linecap="butt" stroke-linejoin="round" stroke-opacity="1.0" stroke-width="3.0" />
            <path d=" M 437.124, 250.198 436.128, 250.188 435.132, 250.177 434.136, 250.166 " fill="none" stroke="rgb(0, 0, 0)" stroke-linecap="butt" stroke-linejoin="round" stroke-opacity="1.0" stroke-width="3.0" />
            <path d=" M 432.144, 250.145 431.148, 250.135 430.152, 250.124 429.156, 250.114 " fill="none" stroke="rgb(0, 0, 0)" stroke-linecap="butt" stroke-linejoin="round" stroke-opacity="1.0" stroke-width="3.0" />
            <path d=" M 427.164, 250.093 426.168, 250.082 425.172, 250.071 424.176, 250.061 " fill="none" stroke="rgb(0, 0, 0)" stroke-linecap="butt" stroke-linejoin="round" stroke-opacity="1.0" stroke-width="3.0" />
            <path d=" M 422.184, 250.040 421.188, 250.029 420.192, 250.019 419.196, 250.008 " fill="none" stroke="rgb(0, 0, 0)" stroke-linecap="butt" stroke-linejoin="round" stroke-opacity="1.0" stroke-width="3.0" />
            <path d=" M 417.204, 249.987 416.208, 249.976 415.212, 249.966 414.215, 249.955 " fill="none" stroke="rgb(0, 0, 0)" stroke-linecap="butt" stroke-linejoin="round" stroke-opacity="1.0" stroke-width="3.0" />
            <path d=" M 412.223, 249.934 411.227, 249.924 411.213, 249.923 410.230, 250.102 " fill="none" stroke="rgb(0, 0, 0)" stroke-linecap="butt" stroke-linejoin="round" stroke-opacity="1.0" stroke-width="3.0" />
            <path d=" M 408.264, 250.459 407.281, 250.638 407.222, 250.649 406.239, 250.827 " fill="none" stroke="rgb(0, 0, 0)" stroke-linecap="butt" stroke-linejoin="round" stroke-opacity="1.0" stroke-width="3.0" />
            <path d=" M 404.273, 251.185 403.289, 251.363 402.306, 251.542 401.323, 251.721 " fill="none" stroke="rgb(0, 0, 0)" stroke-linecap="butt" stroke-linejoin="round" stroke-opacity="1.0" stroke-width="3.0" />
            <path d=" M 399.700, 252.247 398.784, 252.646 397.867, 253.044 396.951, 253.443 " fill="none" stroke="rgb(0, 0, 0)" stroke-linecap="butt" stroke-linejoin="round" stroke-opacity="1.0" stroke-width="3.0" />
            <path d=" M 395.118, 254.240 394.202, 254.638 393.285, 255.037 392.369, 255.435 " fill="none" stroke="rgb(0, 0, 0)" stroke-linecap="butt" stroke-linejoin="round" stroke-opacity="1.0" stroke-width="3.0" />
            <path d=" M 390.536, 256.232 390.526, 256.237 389.717, 256.824 388.908, 257.412 " fill="none" stroke="rgb(0, 0, 0)" stroke-linecap="butt" stroke-linejoin="round" stroke-opacity="1.0" stroke-width="3.0" />
            <path d=" M 387.291, 258.587 386.483, 259.174 385.674, 259.762 384.866, 260.349 " fill="none" stroke="rgb(0, 0, 0)" stroke-linecap="butt" stroke-linejoin="round" stroke-opacity="1.0" stroke-width="3.0" />
            <path d=" M 383.248, 261.524 382.440, 262.111 381.631, 262.699 381.328, 262.919 " fill="none" stroke="rgb(0, 0, 0)" stroke-linecap="butt" stroke-linejoin="round" stroke-opacity="1.0" stroke-width="3.0" />
            <path d=" M 379.981, 264.396 379.308, 265.135 378.634, 265.874 377.960, 266.612 " fill="none" stroke="rgb(0, 0, 0)" stroke-linecap="butt" stroke-linejoin="round" stroke-opacity="1.0" stroke-width="3.0" />
            <path d=" M 376.613, 268.089 375.940, 268.828 375.266, 269.567 374.593, 270.305 " fill="none" stroke="rgb(0, 0, 0)" stroke-linecap="butt" stroke-linejoin="round" stroke-opacity="1.0" stroke-width="3.0" />
            <path d=" M 373.378, 271.638 372.855, 272.490 372.331, 273.342 371.808, 274.194 " fill="none" stroke="rgb(0, 0, 0)" stroke-linecap="butt" stroke-linejoin="round" stroke-opacity="1.0" stroke-width="3.0" />
            <path d=" M 370.762, 275.898 370.239, 276.750 369.716, 277.602 369.193, 278.454 " fill="none" stroke="rgb(0, 0, 0)" stroke-linecap="butt" stroke-linejoin="round" stroke-opacity="1.0" stroke-width="3.0" />
            <path d=" M 368.147, 280.158 367.624, 281.010 367.101, 281.862 366.980, 282.059 " fill="none" stroke="rgb(0, 0, 0)" stroke-linecap="butt" stroke-linejoin="round" stroke-opacity="1.0" stroke-width="3.0" />
            <path d=" M 366.249, 283.921 365.884, 284.852 365.519, 285.782 365.153, 286.713 " fill="none" stroke="rgb(0, 0, 0)" stroke-linecap="butt" stroke-linejoin="round" stroke-opacity="1.0" stroke-width="3.0" />
            <path d=" M 364.423, 288.575 364.058, 289.506 363.693, 290.436 363.327, 291.367 " fill="none" stroke="rgb(0, 0, 0)" stroke-linecap="butt" stroke-linejoin="round" stroke-opacity="1.0" stroke-width="3.0" />
            <path d=" M 362.597, 293.229 362.380, 293.782 362.176, 294.761 361.971, 295.740 " fill="none" stroke="rgb(0, 0, 0)" stroke-linecap="butt" stroke-linejoin="round" stroke-opacity="1.0" stroke-width="3.0" />
            <path d=" M 361.563, 297.698 361.358, 298.676 361.154, 299.655 360.950, 300.634 " fill="none" stroke="rgb(0, 0, 0)" stroke-linecap="butt" stroke-linejoin="round" stroke-opacity="1.0" stroke-width="3.0" />
            <path d=" M 360.541, 302.592 360.337, 303.571 360.132, 304.550 359.928, 305.529 " fill="none" stroke="rgb(0, 0, 0)" stroke-linecap="butt" stroke-linejoin="round" stroke-opacity="1.0" stroke-width="3.0" />
            <path d=" M 359.713, 307.355 359.671, 308.354 359.628, 309.353 359.586, 310.352 " fill="none" stroke="rgb(0, 0, 0)" stroke-linecap="butt" stroke-linejoin="round" stroke-opacity="1.0" stroke-width="3.0" />
            <path d=" M 359.501, 312.351 359.459, 313.350 359.416, 314.349 359.374, 315.348 " fill="none" stroke="rgb(0, 0, 0)" stroke-linecap="butt" stroke-linejoin="round" stroke-opacity="1.0" stroke-width="3.0" />
            <path d=" M 359.289, 317.346 359.247, 318.345 359.207, 319.298 359.327, 320.291 " fill="none" stroke="rgb(0, 0, 0)" stroke-linecap="butt" stroke-linejoin="round" stroke-opacity="1.0" stroke-width="3.0" />
            <path d=" M 359.567, 322.276 359.687, 323.269 359.807, 324.262 359.927, 325.254 " fill="none" stroke="rgb(0, 0, 0)" stroke-linecap="butt" stroke-linejoin="round" stroke-opacity="1.0" stroke-width="3.0" />
            <path d=" M 360.167, 327.240 360.210, 327.600 360.330, 328.593 360.450, 329.586 " fill="none" stroke="rgb(0, 0, 0)" stroke-linecap="butt" stroke-linejoin="round" stroke-opacity="1.0" stroke-width="3.0" />
            <path d=" M 360.690, 331.571 360.755, 332.110 361.037, 333.069 361.320, 334.029 " fill="none" stroke="rgb(0, 0, 0)" stroke-linecap="butt" stroke-linejoin="round" stroke-opacity="1.0" stroke-width="3.0" />
            <path d=" M 361.884, 335.947 362.166, 336.907 362.448, 337.866 362.730, 338.825 " fill="none" stroke="rgb(0, 0, 0)" stroke-linecap="butt" stroke-linejoin="round" stroke-opacity="1.0" stroke-width="3.0" />
            <path d=" M 363.295, 340.744 363.577, 341.703 363.859, 342.662 364.141, 343.622 " fill="none" stroke="rgb(0, 0, 0)" stroke-linecap="butt" stroke-linejoin="round" stroke-opacity="1.0" stroke-width="3.0" />
            <path d=" M 364.784, 345.197 365.227, 346.093 365.670, 346.990 366.113, 347.886 " fill="none" stroke="rgb(0, 0, 0)" stroke-linecap="butt" stroke-linejoin="round" stroke-opacity="1.0" stroke-width="3.0" />
            <path d=" M 366.999, 349.679 367.442, 350.575 367.885, 351.471 368.328, 352.368 " fill="none" stroke="rgb(0, 0, 0)" stroke-linecap="butt" stroke-linejoin="round" stroke-opacity="1.0" stroke-width="3.0" />
            <path d=" M 369.214, 354.161 369.657, 355.057 369.827, 355.401 370.426, 356.201 " fill="none" stroke="rgb(0, 0, 0)" stroke-linecap="butt" stroke-linejoin="round" stroke-opacity="1.0" stroke-width="3.0" />
            <path d=" M 371.624, 357.802 372.224, 358.602 372.823, 359.402 373.422, 360.203 " fill="none" stroke="rgb(0, 0, 0)" stroke-linecap="butt" stroke-linejoin="round" stroke-opacity="1.0" stroke-width="3.0" />
            <path d=" M 374.620, 361.803 375.219, 362.603 375.818, 363.404 376.417, 364.204 " fill="none" stroke="rgb(0, 0, 0)" stroke-linecap="butt" stroke-linejoin="round" stroke-opacity="1.0" stroke-width="3.0" />
            <path d=" M 377.746, 365.652 378.490, 366.319 379.235, 366.986 379.510, 367.233 " fill="none" stroke="rgb(0, 0, 0)" stroke-linecap="butt" stroke-linejoin="round" stroke-opacity="1.0" stroke-width="3.0" />
            <path d=" M 380.999, 368.567 381.743, 369.234 382.487, 369.902 383.231, 370.569 " fill="none" stroke="rgb(0, 0, 0)" stroke-linecap="butt" stroke-linejoin="round" stroke-opacity="1.0" stroke-width="3.0" />
            <path d=" M 384.720, 371.903 385.464, 372.570 385.590, 372.683 386.458, 373.178 " fill="none" stroke="rgb(0, 0, 0)" stroke-linecap="butt" stroke-linejoin="round" stroke-opacity="1.0" stroke-width="3.0" />
            <path d=" M 388.194, 374.168 389.062, 374.663 389.930, 375.159 390.798, 375.654 " fill="none" stroke="rgb(0, 0, 0)" stroke-linecap="butt" stroke-linejoin="round" stroke-opacity="1.0" stroke-width="3.0" />
            <path d=" M 392.534, 376.644 393.402, 377.139 394.270, 377.635 395.138, 378.130 " fill="none" stroke="rgb(0, 0, 0)" stroke-linecap="butt" stroke-linejoin="round" stroke-opacity="1.0" stroke-width="3.0" />
            <path d=" M 396.218, 378.488 397.174, 378.776 398.131, 379.064 399.088, 379.352 " fill="none" stroke="rgb(0, 0, 0)" stroke-linecap="butt" stroke-linejoin="round" stroke-opacity="1.0" stroke-width="3.0" />
            <path d=" M 401.002, 379.927 401.959, 380.215 402.915, 380.503 403.872, 380.791 " fill="none" stroke="rgb(0, 0, 0)" stroke-linecap="butt" stroke-linejoin="round" stroke-opacity="1.0" stroke-width="3.0" />
            <path d=" M 405.643, 381.324 406.641, 381.381 407.639, 381.438 408.636, 381.495 " fill="none" stroke="rgb(0, 0, 0)" stroke-linecap="butt" stroke-linejoin="round" stroke-opacity="1.0" stroke-width="3.0" />
            <path d=" M 410.631, 381.609 411.629, 381.666 412.626, 381.723 413.624, 381.780 " fill="none" stroke="rgb(0, 0, 0)" stroke-linecap="butt" stroke-linejoin="round" stroke-opacity="1.0" stroke-width="3.0" />
            <path d=" M 415.619, 381.894 416.339, 381.935 417.335, 381.946 418.331, 381.956 " fill="none" stroke="rgb(0, 0, 0)" stroke-linecap="butt" stroke-linejoin="round" stroke-opacity="1.0" stroke-width="3.0" />
            <path d=" M 420.323, 381.977 421.319, 381.988 422.315, 381.999 423.311, 382.009 " fill="none" stroke="rgb(0, 0, 0)" stroke-linecap="butt" stroke-linejoin="round" stroke-opacity="1.0" stroke-width="3.0" />
            <path d=" M 425.303, 382.030 426.299, 382.041 427.295, 382.051 428.291, 382.062 " fill="none" stroke="rgb(0, 0, 0)" stroke-linecap="butt" stroke-linejoin="round" stroke-opacity="1.0" stroke-width="3.0" />
            <path d=" M 430.283, 382.083 431.279, 382.094 432.275, 382.104 433.271, 382.115 " fill="none" stroke="rgb(0, 0, 0)" stroke-linecap="butt" stroke-linejoin="round" stroke-opacity="1.0" stroke-width="3.0" />
            <path d=" M 435.263, 382.136 436.259, 382.146 437.255, 382.157 438.251, 382.167 " fill="none" stroke="rgb(0, 0, 0)" stroke-linecap="butt" stroke-linejoin="round" stroke-opacity="1.0" stroke-width="3.0" />
            <path d=" M 440.243, 382.189 441.239, 382.199 442.235, 382.210 443.231, 382.220 " fill="none" stroke="rgb(0, 0, 0)" stroke-linecap="butt" stroke-linejoin="round" stroke-opacity="1.0" stroke-width="3.0" />
            <path d=" M 445.223, 382.241 446.219, 382.252 447.215, 382.262 448.211, 382.273 " fill="none" stroke="rgb(0, 0, 0)" stroke-linecap="butt" stroke-linejoin="round" stroke-opacity="1.0" stroke-width="3.0" />
            <path d=" M 450.203, 382.294 451.199, 382.305 452.195, 382.315 453.191, 382.326 " fill="none" stroke="rgb(0, 0, 0)" stroke-linecap="butt" stroke-linejoin="round" stroke-opacity="1.0" stroke-width="3.0" />
            <path d=" M 455.183, 382.347 456.179, 382.357 457.175, 382.368 458.171, 382.379 " fill="none" stroke="rgb(0, 0, 0)" stroke-linecap="butt" stroke-linejoin="round" stroke-opacity="1.0" stroke-width="3.0" />
            <path d=" M 460.163, 382.400 461.159, 382.410 462.156, 382.421 463.152, 382.431 " fill="none" stroke="rgb(0, 0, 0)" stroke-linecap="butt" stroke-linejoin="round" stroke-opacity="1.0" stroke-width="3.0" />
            <path d=" M 465.144, 382.452 466.140, 382.463 467.136, 382.474 468.132, 382.484 " fill="none" stroke="rgb(0, 0, 0)" stroke-linecap="butt" stroke-linejoin="round" stroke-opacity="1.0" stroke-width="3.0" />
            <path d=" M 470.124, 382.505 471.120, 382.516 472.116, 382.526 473.112, 382.537 " fill="none" stroke="rgb(0, 0, 0)" stroke-linecap="butt" stroke-linejoin="round" stroke-opacity="1.0" stroke-width="3.0" />
            <path d=" M 475.104, 382.558 476.100, 382.569 477.096, 382.579 478.092, 382.590 " fill="none" stroke="rgb(0, 0, 0)" stroke-linecap="butt" stroke-linejoin="round" stroke-opacity="1.0" stroke-width="3.0" />
            <path d=" M 480.084, 382.611 481.080, 382.621 482.076, 382.632 483.072, 382.642 " fill="none" stroke="rgb(0, 0, 0)" stroke-linecap="butt" stroke-linejoin="round" stroke-opacity="1.0" stroke-width="3.0" />
            <path d=" M 485.064, 382.664 486.060, 382.674 487.056, 382.685 488.052, 382.695 " fill="none" stroke="rgb(0, 0, 0)" stroke-linecap="butt" stroke-linejoin="round" stroke-opacity="1.0" stroke-width="3.0" />
            <path d=" M 490.044, 382.716 491.040, 382.727 492.036, 382.737 493.032, 382.748 " fill="none" stroke="rgb(0, 0, 0)" stroke-linecap="butt" stroke-linejoin="round" stroke-opacity="1.0" stroke-width="3.0" />
            <path d=" M 495.024, 382.769 496.020, 382.780 497.016, 382.790 498.012, 382.801 " fill="none" stroke="rgb(0, 0, 0)" stroke-linecap="butt" stroke-linejoin="round" stroke-opacity="1.0" stroke-width="3.0" />
            <path d=" M 500.004, 382.822 501.000, 382.832 501.996, 382.843 502.992, 382.854 " fill="none" stroke="rgb(0, 0, 0)" stroke-linecap="butt" stroke-linejoin="round" stroke-opacity="1.0" stroke-width="3.0" />
            <path d=" M 504.984, 382.875 505.980, 382.885 506.976, 382.896 507.973, 382.906 " fill="none" stroke="rgb(0, 0, 0)" stroke-linecap="butt" stroke-linejoin="round" stroke-opacity="1.0" stroke-width="3.0" />
            <path d=" M 509.965, 382.927 510.961, 382.938 511.957, 382.949 512.953, 382.959 " fill="none" stroke="rgb(0, 0, 0)" stroke-linecap="butt" stroke-linejoin="round" stroke-opacity="1.0" stroke-width="3.0" />
            <path d=" M 514.945, 382.980 515.941, 382.991 516.937, 383.001 516.951, 383.002 " fill="none" stroke="rgb(0, 0, 0)" stroke-linecap="butt" stroke-linejoin="round" stroke-opacity="1.0" stroke-width="3.0" />
            <path d=" M 416.339, 381.935 417.322, 381.757 418.305, 381.578 419.288, 381.399 " fill="none" stroke="rgb(0, 0, 0)" stroke-linecap="butt" stroke-linejoin="round" stroke-opacity="1.0" stroke-width="3.0" />
            <path d=" M 421.254, 381.042 422.237, 380.863 423.220, 380.685 424.203, 380.506 " fill="none" stroke="rgb(0, 0, 0)" stroke-linecap="butt" stroke-linejoin="round" stroke-opacity="1.0" stroke-width="3.0" />
            <path d=" M 426.170, 380.149 426.935, 380.010 427.852, 379.611 428.768, 379.213 " fill="none" stroke="rgb(0, 0, 0)" stroke-linecap="butt" stroke-linejoin="round" stroke-opacity="1.0" stroke-width="3.0" />
            <path d=" M 430.601, 378.416 431.517, 378.017 432.434, 377.619 433.350, 377.220 " fill="none" stroke="rgb(0, 0, 0)" stroke-linecap="butt" stroke-linejoin="round" stroke-opacity="1.0" stroke-width="3.0" />
            <path d=" M 435.183, 376.423 436.099, 376.025 437.016, 375.626 437.026, 375.622 " fill="none" stroke="rgb(0, 0, 0)" stroke-linecap="butt" stroke-linejoin="round" stroke-opacity="1.0" stroke-width="3.0" />
            <path d=" M 438.644, 374.447 439.452, 373.859 440.261, 373.272 441.069, 372.685 " fill="none" stroke="rgb(0, 0, 0)" stroke-linecap="butt" stroke-linejoin="round" stroke-opacity="1.0" stroke-width="3.0" />
            <path d=" M 442.687, 371.510 443.495, 370.922 444.304, 370.335 445.112, 369.747 " fill="none" stroke="rgb(0, 0, 0)" stroke-linecap="butt" stroke-linejoin="round" stroke-opacity="1.0" stroke-width="3.0" />
            <path d=" M 446.224, 368.940 446.897, 368.201 447.571, 367.462 448.245, 366.724 " fill="none" stroke="rgb(0, 0, 0)" stroke-linecap="butt" stroke-linejoin="round" stroke-opacity="1.0" stroke-width="3.0" />
            <path d=" M 449.592, 365.247 450.265, 364.508 450.939, 363.769 451.612, 363.031 " fill="none" stroke="rgb(0, 0, 0)" stroke-linecap="butt" stroke-linejoin="round" stroke-opacity="1.0" stroke-width="3.0" />
            <path d=" M 452.959, 361.553 453.633, 360.815 454.174, 360.221 454.698, 359.369 " fill="none" stroke="rgb(0, 0, 0)" stroke-linecap="butt" stroke-linejoin="round" stroke-opacity="1.0" stroke-width="3.0" />
            <path d=" M 455.744, 357.665 456.267, 356.813 456.790, 355.961 457.313, 355.109 " fill="none" stroke="rgb(0, 0, 0)" stroke-linecap="butt" stroke-linejoin="round" stroke-opacity="1.0" stroke-width="3.0" />
            <path d=" M 458.359, 353.405 458.882, 352.553 459.405, 351.701 459.928, 350.848 " fill="none" stroke="rgb(0, 0, 0)" stroke-linecap="butt" stroke-linejoin="round" stroke-opacity="1.0" stroke-width="3.0" />
            <path d=" M 460.573, 349.799 460.938, 348.869 461.303, 347.938 461.668, 347.007 " fill="none" stroke="rgb(0, 0, 0)" stroke-linecap="butt" stroke-linejoin="round" stroke-opacity="1.0" stroke-width="3.0" />
            <path d=" M 462.399, 345.145 462.764, 344.215 463.129, 343.284 463.494, 342.353 " fill="none" stroke="rgb(0, 0, 0)" stroke-linecap="butt" stroke-linejoin="round" stroke-opacity="1.0" stroke-width="3.0" />
            <path d=" M 464.343, 291.406 464.061, 290.447 463.778, 289.487 463.496, 288.528 " fill="none" stroke="rgb(0, 0, 0)" stroke-linecap="butt" stroke-linejoin="round" stroke-opacity="1.0" stroke-width="3.0" />
            <path d=" M 463.211, 287.558 462.768, 286.662 462.325, 285.765 461.882, 284.869 " fill="none" stroke="rgb(0, 0, 0)" stroke-linecap="butt" stroke-linejoin="round" stroke-opacity="1.0" stroke-width="3.0" />
            <path d=" M 460.996, 283.076 460.553, 282.180 460.110, 281.284 459.667, 280.387 " fill="none" stroke="rgb(0, 0, 0)" stroke-linecap="butt" stroke-linejoin="round" stroke-opacity="1.0" stroke-width="3.0" />
            <path d=" M 458.781, 278.594 458.338, 277.698 457.895, 276.802 457.725, 276.458 " fill="none" stroke="rgb(0, 0, 0)" stroke-linecap="butt" stroke-linejoin="round" stroke-opacity="1.0" stroke-width="3.0" />
            <path d=" M 456.527, 274.857 455.928, 274.057 455.328, 273.257 454.729, 272.456 " fill="none" stroke="rgb(0, 0, 0)" stroke-linecap="butt" stroke-linejoin="round" stroke-opacity="1.0" stroke-width="3.0" />
            <path d=" M 453.531, 270.856 452.932, 270.056 452.333, 269.255 451.734, 268.455 " fill="none" stroke="rgb(0, 0, 0)" stroke-linecap="butt" stroke-linejoin="round" stroke-opacity="1.0" stroke-width="3.0" />
            <path d=" M 450.550, 266.874 449.806, 266.207 449.062, 265.540 448.317, 264.873 " fill="none" stroke="rgb(0, 0, 0)" stroke-linecap="butt" stroke-linejoin="round" stroke-opacity="1.0" stroke-width="3.0" />
            <path d=" M 446.829, 263.538 446.085, 262.871 445.340, 262.204 444.596, 261.537 " fill="none" stroke="rgb(0, 0, 0)" stroke-linecap="butt" stroke-linejoin="round" stroke-opacity="1.0" stroke-width="3.0" />
            <path d=" M 443.108, 260.203 442.363, 259.535 441.962, 259.176 441.094, 258.681 " fill="none" stroke="rgb(0, 0, 0)" stroke-linecap="butt" stroke-linejoin="round" stroke-opacity="1.0" stroke-width="3.0" />
            <path d=" M 439.358, 257.690 438.490, 257.195 437.622, 256.700 436.754, 256.205 " fill="none" stroke="rgb(0, 0, 0)" stroke-linecap="butt" stroke-linejoin="round" stroke-opacity="1.0" stroke-width="3.0" />
            <path d=" M 435.018, 255.214 434.150, 254.719 433.282, 254.224 432.414, 253.729 " fill="none" stroke="rgb(0, 0, 0)" stroke-linecap="butt" stroke-linejoin="round" stroke-opacity="1.0" stroke-width="3.0" />
            <path d=" M 431.334, 253.371 430.378, 253.083 429.421, 252.795 428.464, 252.507 " fill="none" stroke="rgb(0, 0, 0)" stroke-linecap="butt" stroke-linejoin="round" stroke-opacity="1.0" stroke-width="3.0" />
            <path d=" M 426.550, 251.931 425.593, 251.643 424.636, 251.355 423.680, 251.068 " fill="none" stroke="rgb(0, 0, 0)" stroke-linecap="butt" stroke-linejoin="round" stroke-opacity="1.0" stroke-width="3.0" />
            <path d=" M 421.909, 250.535 420.911, 250.478 419.913, 250.421 418.916, 250.364 " fill="none" stroke="rgb(0, 0, 0)" stroke-linecap="butt" stroke-linejoin="round" stroke-opacity="1.0" stroke-width="3.0" />
            <path d=" M 416.921, 250.250 415.923, 250.193 414.926, 250.136 413.928, 250.079 " fill="none" stroke="rgb(0, 0, 0)" stroke-linecap="butt" stroke-linejoin="round" stroke-opacity="1.0" stroke-width="3.0" />
            <path d=" M 411.933, 249.965 411.213, 249.923 " fill="none" stroke="rgb(0, 0, 0)" stroke-linecap="butt" stroke-linejoin="round" stroke-opacity="1.0" stroke-width="3.0" />
            <path d=" M 286.581, 314.581 287.565, 314.755 288.550, 314.929 289.534, 315.104 " fill="none" stroke="rgb(0, 0, 0)" stroke-linecap="butt" stroke-linejoin="round" stroke-opacity="1.0" stroke-width="3.0" />
            <path d=" M 291.503, 315.452 292.488, 315.626 293.472, 315.800 294.457, 315.974 " fill="none" stroke="rgb(0, 0, 0)" stroke-linecap="butt" stroke-linejoin="round" stroke-opacity="1.0" stroke-width="3.0" />
            <path d=" M 296.426, 316.322 297.410, 316.496 298.394, 316.670 299.379, 316.844 " fill="none" stroke="rgb(0, 0, 0)" stroke-linecap="butt" stroke-linejoin="round" stroke-opacity="1.0" stroke-width="3.0" />
            <path d=" M 301.348, 317.192 302.332, 317.366 303.317, 317.540 304.301, 317.715 " fill="none" stroke="rgb(0, 0, 0)" stroke-linecap="butt" stroke-linejoin="round" stroke-opacity="1.0" stroke-width="3.0" />
            <path d=" M 306.270, 318.063 307.255, 318.237 308.239, 318.411 309.223, 318.585 " fill="none" stroke="rgb(0, 0, 0)" stroke-linecap="butt" stroke-linejoin="round" stroke-opacity="1.0" stroke-width="3.0" />
            <path d=" M 311.192, 318.933 312.177, 319.107 313.161, 319.281 314.146, 319.455 " fill="none" stroke="rgb(0, 0, 0)" stroke-linecap="butt" stroke-linejoin="round" stroke-opacity="1.0" stroke-width="3.0" />
            <path d=" M 316.115, 319.803 317.099, 319.977 318.084, 320.152 319.068, 320.326 " fill="none" stroke="rgb(0, 0, 0)" stroke-linecap="butt" stroke-linejoin="round" stroke-opacity="1.0" stroke-width="3.0" />
            <path d=" M 321.037, 320.674 322.021, 320.848 323.006, 321.022 323.990, 321.196 " fill="none" stroke="rgb(0, 0, 0)" stroke-linecap="butt" stroke-linejoin="round" stroke-opacity="1.0" stroke-width="3.0" />
            <path d=" M 325.959, 321.544 326.944, 321.718 327.928, 321.892 328.913, 322.066 " fill="none" stroke="rgb(0, 0, 0)" stroke-linecap="butt" stroke-linejoin="round" stroke-opacity="1.0" stroke-width="3.0" />
            <path d=" M 330.881, 322.414 331.866, 322.588 332.850, 322.763 333.835, 322.937 " fill="none" stroke="rgb(0, 0, 0)" stroke-linecap="butt" stroke-linejoin="round" stroke-opacity="1.0" stroke-width="3.0" />
            <path d=" M 335.804, 323.285 336.788, 323.459 337.773, 323.633 338.757, 323.807 " fill="none" stroke="rgb(0, 0, 0)" stroke-linecap="butt" stroke-linejoin="round" stroke-opacity="1.0" stroke-width="3.0" />
            <path d=" M 340.726, 324.155 341.710, 324.329 342.695, 324.503 343.679, 324.677 " fill="none" stroke="rgb(0, 0, 0)" stroke-linecap="butt" stroke-linejoin="round" stroke-opacity="1.0" stroke-width="3.0" />
            <path d=" M 345.648, 325.025 346.633, 325.200 347.617, 325.374 348.602, 325.548 " fill="none" stroke="rgb(0, 0, 0)" stroke-linecap="butt" stroke-linejoin="round" stroke-opacity="1.0" stroke-width="3.0" />
            <path d=" M 350.571, 325.896 351.555, 326.070 352.539, 326.244 353.524, 326.418 " fill="none" stroke="rgb(0, 0, 0)" stroke-linecap="butt" stroke-linejoin="round" stroke-opacity="1.0" stroke-width="3.0" />
            <path d=" M 355.493, 326.766 356.477, 326.940 357.462, 327.114 358.446, 327.288 " fill="none" stroke="rgb(0, 0, 0)" stroke-linecap="butt" stroke-linejoin="round" stroke-opacity="1.0" stroke-width="3.0" />
            <path d=" M 360.210, 327.600 361.195, 327.774 362.179, 327.948 363.163, 328.122 " fill="none" stroke="rgb(0, 0, 0)" stroke-linecap="butt" stroke-linejoin="round" stroke-opacity="1.0" stroke-width="3.0" />
            <path d=" M 365.132, 328.471 366.117, 328.645 367.101, 328.819 368.086, 328.993 " fill="none" stroke="rgb(0, 0, 0)" stroke-linecap="butt" stroke-linejoin="round" stroke-opacity="1.0" stroke-width="3.0" />
            <path d=" M 370.055, 329.341 371.039, 329.515 372.024, 329.689 373.008, 329.863 " fill="none" stroke="rgb(0, 0, 0)" stroke-linecap="butt" stroke-linejoin="round" stroke-opacity="1.0" stroke-width="3.0" />
            <path d=" M 374.977, 330.211 375.961, 330.385 376.946, 330.559 377.930, 330.733 " fill="none" stroke="rgb(0, 0, 0)" stroke-linecap="butt" stroke-linejoin="round" stroke-opacity="1.0" stroke-width="3.0" />
            <path d=" M 379.899, 331.082 380.884, 331.256 381.868, 331.430 382.853, 331.604 " fill="none" stroke="rgb(0, 0, 0)" stroke-linecap="butt" stroke-linejoin="round" stroke-opacity="1.0" stroke-width="3.0" />
            <path d=" M 384.821, 331.952 385.806, 332.126 386.790, 332.300 387.775, 332.474 " fill="none" stroke="rgb(0, 0, 0)" stroke-linecap="butt" stroke-linejoin="round" stroke-opacity="1.0" stroke-width="3.0" />
            <path d=" M 389.744, 332.822 390.728, 332.996 391.713, 333.170 392.697, 333.344 " fill="none" stroke="rgb(0, 0, 0)" stroke-linecap="butt" stroke-linejoin="round" stroke-opacity="1.0" stroke-width="3.0" />
            <path d=" M 394.666, 333.693 395.650, 333.867 396.635, 334.041 397.619, 334.215 " fill="none" stroke="rgb(0, 0, 0)" stroke-linecap="butt" stroke-linejoin="round" stroke-opacity="1.0" stroke-width="3.0" />
            <path d=" M 399.588, 334.563 400.573, 334.737 401.557, 334.911 402.542, 335.085 " fill="none" stroke="rgb(0, 0, 0)" stroke-linecap="butt" stroke-linejoin="round" stroke-opacity="1.0" stroke-width="3.0" />
            <path d=" M 404.510, 335.433 405.495, 335.607 406.479, 335.781 407.464, 335.956 " fill="none" stroke="rgb(0, 0, 0)" stroke-linecap="butt" stroke-linejoin="round" stroke-opacity="1.0" stroke-width="3.0" />
            <path d=" M 409.433, 336.304 410.417, 336.478 411.402, 336.652 412.386, 336.826 " fill="none" stroke="rgb(0, 0, 0)" stroke-linecap="butt" stroke-linejoin="round" stroke-opacity="1.0" stroke-width="3.0" />
            <path d=" M 414.355, 337.174 415.340, 337.348 416.324, 337.522 417.308, 337.696 " fill="none" stroke="rgb(0, 0, 0)" stroke-linecap="butt" stroke-linejoin="round" stroke-opacity="1.0" stroke-width="3.0" />
            <path d=" M 419.277, 338.044 420.262, 338.218 421.246, 338.392 422.231, 338.567 " fill="none" stroke="rgb(0, 0, 0)" stroke-linecap="butt" stroke-linejoin="round" stroke-opacity="1.0" stroke-width="3.0" />
            <path d=" M 424.200, 338.915 425.184, 339.089 426.169, 339.263 427.153, 339.437 " fill="none" stroke="rgb(0, 0, 0)" stroke-linecap="butt" stroke-linejoin="round" stroke-opacity="1.0" stroke-width="3.0" />
            <path d=" M 429.122, 339.785 430.106, 339.959 431.091, 340.133 432.075, 340.307 " fill="none" stroke="rgb(0, 0, 0)" stroke-linecap="butt" stroke-linejoin="round" stroke-opacity="1.0" stroke-width="3.0" />
            <path d=" M 434.044, 340.655 435.029, 340.829 436.013, 341.004 436.998, 341.178 " fill="none" stroke="rgb(0, 0, 0)" stroke-linecap="butt" stroke-linejoin="round" stroke-opacity="1.0" stroke-width="3.0" />
            <path d=" M 438.966, 341.526 439.951, 341.700 440.935, 341.874 441.920, 342.048 " fill="none" stroke="rgb(0, 0, 0)" stroke-linecap="butt" stroke-linejoin="round" stroke-opacity="1.0" stroke-width="3.0" />
            <path d=" M 443.889, 342.396 444.873, 342.570 445.858, 342.744 446.842, 342.918 " fill="none" stroke="rgb(0, 0, 0)" stroke-linecap="butt" stroke-linejoin="round" stroke-opacity="1.0" stroke-width="3.0" />
            <path d=" M 448.811, 343.266 449.795, 343.440 450.780, 343.615 451.764, 343.789 " fill="none" stroke="rgb(0, 0, 0)" stroke-linecap="butt" stroke-linejoin="round" stroke-opacity="1.0" stroke-width="3.0" />
            <path d=" M 453.733, 344.137 454.718, 344.311 455.702, 344.485 456.687, 344.659 " fill="none" stroke="rgb(0, 0, 0)" stroke-linecap="butt" stroke-linejoin="round" stroke-opacity="1.0" stroke-width="3.0" />
            <path d=" M 458.656, 345.007 459.640, 345.181 460.624, 345.355 461.609, 345.529 " fill="none" stroke="rgb(0, 0, 0)" stroke-linecap="butt" stroke-linejoin="round" stroke-opacity="1.0" stroke-width="3.0" />
            <path d=" M 463.578, 345.877 464.562, 346.052 465.361, 346.193 466.346, 346.367 " fill="none" stroke="rgb(0, 0, 0)" stroke-linecap="butt" stroke-linejoin="round" stroke-opacity="1.0" stroke-width="3.0" />
            <path d=" M 468.315, 346.715 469.299, 346.889 470.284, 347.063 471.268, 347.237 " fill="none" stroke="rgb(0, 0, 0)" stroke-linecap="butt" stroke-linejoin="round" stroke-opacity="1.0" stroke-width="3.0" />
            <path d=" M 473.237, 347.585 474.221, 347.759 475.206, 347.934 476.190, 348.108 " fill="none" stroke="rgb(0, 0, 0)" stroke-linecap="butt" stroke-linejoin="round" stroke-opacity="1.0" stroke-width="3.0" />
            <path d=" M 478.159, 348.456 479.144, 348.630 480.128, 348.804 481.113, 348.978 " fill="none" stroke="rgb(0, 0, 0)" stroke-linecap="butt" stroke-linejoin="round" stroke-opacity="1.0" stroke-width="3.0" />
            <path d=" M 483.082, 349.326 484.066, 349.500 485.051, 349.674 486.035, 349.848 " fill="none" stroke="rgb(0, 0, 0)" stroke-linecap="butt" stroke-linejoin="round" stroke-opacity="1.0" stroke-width="3.0" />
            <path d=" M 488.004, 350.196 488.988, 350.370 489.973, 350.545 490.957, 350.719 " fill="none" stroke="rgb(0, 0, 0)" stroke-linecap="butt" stroke-linejoin="round" stroke-opacity="1.0" stroke-width="3.0" />
            <path d=" M 492.926, 351.067 493.911, 351.241 494.895, 351.415 495.879, 351.589 " fill="none" stroke="rgb(0, 0, 0)" stroke-linecap="butt" stroke-linejoin="round" stroke-opacity="1.0" stroke-width="3.0" />
            <path d=" M 497.848, 351.937 498.833, 352.111 499.817, 352.285 500.802, 352.459 " fill="none" stroke="rgb(0, 0, 0)" stroke-linecap="butt" stroke-linejoin="round" stroke-opacity="1.0" stroke-width="3.0" />
            <path d=" M 502.771, 352.807 503.755, 352.982 504.740, 353.156 505.724, 353.330 " fill="none" stroke="rgb(0, 0, 0)" stroke-linecap="butt" stroke-linejoin="round" stroke-opacity="1.0" stroke-width="3.0" />
            <path d=" M 507.693, 353.678 508.677, 353.852 509.662, 354.026 510.646, 354.200 " fill="none" stroke="rgb(0, 0, 0)" stroke-linecap="butt" stroke-linejoin="round" stroke-opacity="1.0" stroke-width="3.0" />
            <path d=" M 512.615, 354.548 513.600, 354.722 514.584, 354.896 515.569, 355.070 " fill="none" stroke="rgb(0, 0, 0)" stroke-linecap="butt" stroke-linejoin="round" stroke-opacity="1.0" stroke-width="3.0" />
            <path d=" M 517.538, 355.418 518.522, 355.593 519.506, 355.767 520.491, 355.941 " fill="none" stroke="rgb(0, 0, 0)" stroke-linecap="butt" stroke-linejoin="round" stroke-opacity="1.0" stroke-width="3.0" />
            <path d=" M 522.460, 356.289 523.444, 356.463 524.429, 356.637 525.413, 356.811 " fill="none" stroke="rgb(0, 0, 0)" stroke-linecap="butt" stroke-linejoin="round" stroke-opacity="1.0" stroke-width="3.0" />
            <path d=" M 527.382, 357.159 528.367, 357.333 529.351, 357.507 530.335, 357.681 " fill="none" stroke="rgb(0, 0, 0)" stroke-linecap="butt" stroke-linejoin="round" stroke-opacity="1.0" stroke-width="3.0" />
            <path d=" M 532.304, 358.030 533.289, 358.204 534.273, 358.378 535.258, 358.552 " fill="none" stroke="rgb(0, 0, 0)" stroke-linecap="butt" stroke-linejoin="round" stroke-opacity="1.0" stroke-width="3.0" />
            <path d=" M 537.227, 358.900 538.211, 359.074 539.196, 359.248 540.180, 359.422 " fill="none" stroke="rgb(0, 0, 0)" stroke-linecap="butt" stroke-linejoin="round" stroke-opacity="1.0" stroke-width="3.0" />
            <path d=" M 542.149, 359.770 543.133, 359.944 544.118, 360.118 545.102, 360.292 " fill="none" stroke="rgb(0, 0, 0)" stroke-linecap="butt" stroke-linejoin="round" stroke-opacity="1.0" stroke-width="3.0" />
            <path d=" M 547.071, 360.641 548.056, 360.815 549.040, 360.989 550.024, 361.163 " fill="none" stroke="rgb(0, 0, 0)" stroke-linecap="butt" stroke-linejoin="round" stroke-opacity="1.0" stroke-width="3.0" />
            <path d=" M 551.993, 361.511 552.978, 361.685 553.962, 361.859 554.947, 362.033 " fill="none" stroke="rgb(0, 0, 0)" stroke-linecap="butt" stroke-linejoin="round" stroke-opacity="1.0" stroke-width="3.0" />
            <path d=" M 556.916, 362.381 557.900, 362.555 558.885, 362.729 559.869, 362.903 " fill="none" stroke="rgb(0, 0, 0)" stroke-linecap="butt" stroke-linejoin="round" stroke-opacity="1.0" stroke-width="3.0" />
            <path d=" M 561.838, 363.252 562.822, 363.426 563.807, 363.600 564.791, 363.774 " fill="none" stroke="rgb(0, 0, 0)" stroke-linecap="butt" stroke-linejoin="round" stroke-opacity="1.0" stroke-width="3.0" />
            <path d=" M 566.760, 364.122 567.745, 364.296 568.729, 364.470 569.714, 364.644 " fill="none" stroke="rgb(0, 0, 0)" stroke-linecap="butt" stroke-linejoin="round" stroke-opacity="1.0" stroke-width="3.0" />
            <path d=" M 571.682, 364.992 572.667, 365.166 573.651, 365.340 574.636, 365.514 " fill="none" stroke="rgb(0, 0, 0)" stroke-linecap="butt" stroke-linejoin="round" stroke-opacity="1.0" stroke-width="3.0" />
            <path d=" M 576.605, 365.863 577.589, 366.037 578.574, 366.211 579.558, 366.385 " fill="none" stroke="rgb(0, 0, 0)" stroke-linecap="butt" stroke-linejoin="round" stroke-opacity="1.0" stroke-width="3.0" />
            <path d=" M 581.527, 366.733 582.511, 366.907 583.496, 367.081 584.480, 367.255 " fill="none" stroke="rgb(0, 0, 0)" stroke-linecap="butt" stroke-linejoin="round" stroke-opacity="1.0" stroke-width="3.0" />
            <path d=" M 586.449, 367.603 587.434, 367.777 588.418, 367.951 589.403, 368.125 " fill="none" stroke="rgb(0, 0, 0)" stroke-linecap="butt" stroke-linejoin="round" stroke-opacity="1.0" stroke-width="3.0" />
            <path d=" M 591.371, 368.474 592.356, 368.648 593.340, 368.822 594.325, 368.996 " fill="none" stroke="rgb(0, 0, 0)" stroke-linecap="butt" stroke-linejoin="round" stroke-opacity="1.0" stroke-width="3.0" />
            <path d=" M 596.294, 369.344 597.278, 369.518 598.263, 369.692 599.247, 369.866 " fill="none" stroke="rgb(0, 0, 0)" stroke-linecap="butt" stroke-linejoin="round" stroke-opacity="1.0" stroke-width="3.0" />
            <path d=" M 601.216, 370.214 602.200, 370.388 603.185, 370.562 604.169, 370.737 " fill="none" stroke="rgb(0, 0, 0)" stroke-linecap="butt" stroke-linejoin="round" stroke-opacity="1.0" stroke-width="3.0" />
            <path d=" M 606.138, 371.085 607.123, 371.259 608.107, 371.433 609.092, 371.607 " fill="none" stroke="rgb(0, 0, 0)" stroke-linecap="butt" stroke-linejoin="round" stroke-opacity="1.0" stroke-width="3.0" />
            <path d=" M 611.061, 371.955 612.045, 372.129 613.029, 372.303 614.014, 372.477 " fill="none" stroke="rgb(0, 0, 0)" stroke-linecap="butt" stroke-linejoin="round" stroke-opacity="1.0" stroke-width="3.0" />
            <path d=" M 615.983, 372.825 616.967, 372.999 617.952, 373.173 618.936, 373.348 " fill="none" stroke="rgb(0, 0, 0)" stroke-linecap="butt" stroke-linejoin="round" stroke-opacity="1.0" stroke-width="3.0" />
            <path d=" M 620.905, 373.696 621.889, 373.870 622.874, 374.044 623.858, 374.218 " fill="none" stroke="rgb(0, 0, 0)" stroke-linecap="butt" stroke-linejoin="round" stroke-opacity="1.0" stroke-width="3.0" />
            <path d=" M 625.827, 374.566 626.812, 374.740 627.796, 374.914 628.781, 375.088 " fill="none" stroke="rgb(0, 0, 0)" stroke-linecap="butt" stroke-linejoin="round" stroke-opacity="1.0" stroke-width="3.0" />
            <path d=" M 630.750, 375.436 631.734, 375.610 632.718, 375.784 633.703, 375.959 " fill="none" stroke="rgb(0, 0, 0)" stroke-linecap="butt" stroke-linejoin="round" stroke-opacity="1.0" stroke-width="3.0" />
            <path d=" M 635.672, 376.307 636.656, 376.481 637.641, 376.655 638.625, 376.829 " fill="none" stroke="rgb(0, 0, 0)" stroke-linecap="butt" stroke-linejoin="round" stroke-opacity="1.0" stroke-width="3.0" />
            <path d=" M 640.594, 377.177 641.579, 377.351 642.563, 377.525 643.547, 377.699 " fill="none" stroke="rgb(0, 0, 0)" stroke-linecap="butt" stroke-linejoin="round" stroke-opacity="1.0" stroke-width="3.0" />
            <path d=" M 645.516, 378.047 646.501, 378.221 647.485, 378.396 648.470, 378.570 " fill="none" stroke="rgb(0, 0, 0)" stroke-linecap="butt" stroke-linejoin="round" stroke-opacity="1.0" stroke-width="3.0" />
            <path d=" M 650.439, 378.918 651.423, 379.092 652.407, 379.266 653.392, 379.440 " fill="none" stroke="rgb(0, 0, 0)" stroke-linecap="butt" stroke-linejoin="round" stroke-opacity="1.0" stroke-width="3.0" />
            <path d=" M 655.361, 379.788 656.345, 379.962 657.330, 380.136 658.314, 380.310 " fill="none" stroke="rgb(0, 0, 0)" stroke-linecap="butt" stroke-linejoin="round" stroke-opacity="1.0" stroke-width="3.0" />
            <path d=" M 660.283, 380.658 661.268, 380.832 662.252, 381.007 663.236, 381.181 " fill="none" stroke="rgb(0, 0, 0)" stroke-linecap="butt" stroke-linejoin="round" stroke-opacity="1.0" stroke-width="3.0" />
            <path d=" M 665.205, 381.529 666.190, 381.703 667.174, 381.877 668.159, 382.051 " fill="none" stroke="rgb(0, 0, 0)" stroke-linecap="butt" stroke-linejoin="round" stroke-opacity="1.0" stroke-width="3.0" />
            <path d=" M 670.128, 382.399 671.112, 382.573 672.097, 382.747 673.081, 382.921 " fill="none" stroke="rgb(0, 0, 0)" stroke-linecap="butt" stroke-linejoin="round" stroke-opacity="1.0" stroke-width="3.0" />
            <path d=" M 675.050, 383.269 676.034, 383.443 677.019, 383.618 678.003, 383.792 " fill="none" stroke="rgb(0, 0, 0)" stroke-linecap="butt" stroke-linejoin="round" stroke-opacity="1.0" stroke-width="3.0" />
            <path d=" M 679.972, 384.140 680.957, 384.314 681.941, 384.488 682.925, 384.662 " fill="none" stroke="rgb(0, 0, 0)" stroke-linecap="butt" stroke-linejoin="round" stroke-opacity="1.0" stroke-width="3.0" />
            <path d=" M 684.894, 385.010 685.879, 385.184 686.863, 385.358 687.848, 385.532 " fill="none" stroke="rgb(0, 0, 0)" stroke-linecap="butt" stroke-linejoin="round" stroke-opacity="1.0" stroke-width="3.0" />
            <path d=" M 689.817, 385.880 690.801, 386.055 691.786, 386.229 692.770, 386.403 " fill="none" stroke="rgb(0, 0, 0)" stroke-linecap="butt" stroke-linejoin="round" stroke-opacity="1.0" stroke-width="3.0" />
            <path d=" M 694.739, 386.751 695.723, 386.925 696.708, 387.099 697.692, 387.273 " fill="none" stroke="rgb(0, 0, 0)" stroke-linecap="butt" stroke-linejoin="round" stroke-opacity="1.0" stroke-width="3.0" />
            <path d=" M 699.661, 387.621 700.646, 387.795 701.630, 387.969 702.615, 388.143 " fill="none" stroke="rgb(0, 0, 0)" stroke-linecap="butt" stroke-linejoin="round" stroke-opacity="1.0" stroke-width="3.0" />
            <path d=" M 704.583, 388.491 705.568, 388.666 706.552, 388.840 707.537, 389.014 " fill="none" stroke="rgb(0, 0, 0)" stroke-linecap="butt" stroke-linejoin="round" stroke-opacity="1.0" stroke-width="3.0" />
            <path d=" M 709.506, 389.362 710.490, 389.536 711.475, 389.710 712.459, 389.884 " fill="none" stroke="rgb(0, 0, 0)" stroke-linecap="butt" stroke-linejoin="round" stroke-opacity="1.0" stroke-width="3.0" />
            <path d=" M 714.428, 390.232 715.412, 390.406 716.397, 390.580 717.381, 390.754 " fill="none" stroke="rgb(0, 0, 0)" stroke-linecap="butt" stroke-linejoin="round" stroke-opacity="1.0" stroke-width="3.0" />
            <path d=" M 719.350, 391.103 720.335, 391.277 721.319, 391.451 722.304, 391.625 " fill="none" stroke="rgb(0, 0, 0)" stroke-linecap="butt" stroke-linejoin="round" stroke-opacity="1.0" stroke-width="3.0" />
            <path d=" M 724.272, 391.973 725.257, 392.147 726.241, 392.321 727.226, 392.495 " fill="none" stroke="rgb(0, 0, 0)" stroke-linecap="butt" stroke-linejoin="round" stroke-opacity="1.0" stroke-width="3.0" />
            <path d=" M 729.195, 392.843 730.179, 393.017 731.164, 393.191 732.148, 393.365 " fill="none" stroke="rgb(0, 0, 0)" stroke-linecap="butt" stroke-linejoin="round" stroke-opacity="1.0" stroke-width="3.0" />
            <path d=" M 734.117, 393.714 735.101, 393.888 736.086, 394.062 737.070, 394.236 " fill="none" stroke="rgb(0, 0, 0)" stroke-linecap="butt" stroke-linejoin="round" stroke-opacity="1.0" stroke-width="3.0" />
            <path d=" M 739.039, 394.584 740.024, 394.758 741.008, 394.932 741.707, 395.056 " fill="none" stroke="rgb(0, 0, 0)" stroke-linecap="butt" stroke-linejoin="round" stroke-opacity="1.0" stroke-width="3.0" />
        </g>
    </g>
</svg>
