  0
SECTION
  2
HEADER
  0
ENDSEC
  0
SECTION
  2
TABLES
  0
TABLE
  2
LAYER
  70
    153
  0
LAYER
  2
NoName1
 70
0
 62
15
  6
CONTINUOUS
  0
ENDTAB
  0
ENDSEC
  0
SECTION
  2
ENTITIES
  0
3DFACE
  8
NoName1
 10
0.023861
 20
-0.032201
 30
0.326006
 11
0.119077
 21
-0.041505
 31
0.320031
 12
0.006010
 22
-0.174291
 32
0.309437
 13
0.006010
 23
-0.174291
 33
0.309437
 62
0
  0
3DFACE
  8
NoName1
 10
-0.300190
 20
-0.413738
 30
0.286065
 11
-0.282114
 21
-0.296329
 31
0.278958
 12
-0.194199
 22
-0.283385
 32
0.308463
 13
-0.194199
 23
-0.283385
 33
0.308463
 62
0
  0
3DFACE
  8
NoName1
 10
-0.300190
 20
-0.413738
 30
0.286065
 11
-0.194199
 21
-0.283385
 31
0.308463
 12
-0.218872
 22
-0.398919
 32
0.308439
 13
-0.218872
 23
-0.398919
 33
0.308439
 62
0
  0
3DFACE
  8
NoName1
 10
-0.187273
 20
0.280463
 30
-0.104688
 11
-0.210733
 21
0.197754
 31
-0.054711
 12
-0.218392
 22
0.314182
 32
-0.146190
 13
-0.218392
 23
0.314182
 33
-0.146190
 62
0
  0
3DFACE
  8
NoName1
 10
-0.210733
 20
0.197754
 30
-0.054711
 11
-0.260984
 21
0.227975
 31
-0.119000
 12
-0.218392
 22
0.314182
 32
-0.146190
 13
-0.218392
 23
0.314182
 33
-0.146190
 62
0
  0
3DFACE
  8
NoName1
 10
0.002571
 20
-0.313966
 30
0.294024
 11
-0.038939
 21
-0.462464
 31
0.265271
 12
-0.097682
 22
-0.456555
 32
0.289601
 13
-0.097682
 23
-0.456555
 33
0.289601
 62
0
  0
3DFACE
  8
NoName1
 10
-0.038939
 20
-0.462464
 30
0.265271
 11
0.002571
 21
-0.313966
 31
0.294024
 12
0.026772
 22
-0.411525
 32
0.249398
 13
0.026772
 23
-0.411525
 33
0.249398
 62
0
  0
3DFACE
  8
NoName1
 10
0.100464
 20
0.089873
 30
0.368142
 11
0.023861
 21
-0.032201
 31
0.326006
 12
-0.015539
 22
0.056564
 32
0.314281
 13
-0.015539
 23
0.056564
 33
0.314281
 62
0
  0
3DFACE
  8
NoName1
 10
-0.112926
 20
0.364749
 30
-0.416057
 11
-0.065249
 21
0.337006
 31
-0.327838
 12
-0.077167
 22
0.369156
 32
-0.271124
 13
-0.077167
 23
0.369156
 33
-0.271124
 62
0
  0
3DFACE
  8
NoName1
 10
-0.192845
 20
0.392917
 30
-0.228452
 11
-0.136237
 21
0.323748
 31
-0.151626
 12
-0.218392
 22
0.314182
 32
-0.146190
 13
-0.218392
 23
0.314182
 33
-0.146190
 62
0
  0
3DFACE
  8
NoName1
 10
-0.113243
 20
0.409514
 30
-0.362998
 11
-0.112926
 21
0.364749
 31
-0.416057
 12
-0.077167
 22
0.369156
 32
-0.271124
 13
-0.077167
 23
0.369156
 33
-0.271124
 62
0
  0
3DFACE
  8
NoName1
 10
-0.136753
 20
0.385553
 30
-0.219315
 11
-0.136237
 21
0.323748
 31
-0.151626
 12
-0.192845
 22
0.392917
 32
-0.228452
 13
-0.192845
 23
0.392917
 33
-0.228452
 62
0
  0
3DFACE
  8
NoName1
 10
-0.082384
 20
0.310340
 30
-0.210609
 11
-0.136237
 21
0.323748
 31
-0.151626
 12
-0.077167
 22
0.369156
 32
-0.271124
 13
-0.077167
 23
0.369156
 33
-0.271124
 62
0
  0
3DFACE
  8
NoName1
 10
0.100464
 20
0.089873
 30
0.368142
 11
0.092744
 21
0.016175
 31
0.359295
 12
0.023861
 22
-0.032201
 32
0.326006
 13
0.023861
 23
-0.032201
 33
0.326006
 62
0
  0
3DFACE
  8
NoName1
 10
-0.077305
 20
-0.052049
 30
0.299341
 11
-0.205774
 21
-0.051061
 31
0.238560
 12
-0.065024
 22
0.044655
 32
0.289288
 13
-0.065024
 23
0.044655
 33
0.289288
 62
0
  0
3DFACE
  8
NoName1
 10
-0.144789
 20
0.049953
 30
-0.168611
 11
-0.017770
 21
0.131137
 31
-0.094893
 12
-0.110989
 22
0.134651
 32
-0.120555
 13
-0.110989
 23
0.134651
 33
-0.120555
 62
0
  0
3DFACE
  8
NoName1
 10
0.382534
 20
0.246800
 30
-0.213156
 11
0.313407
 21
0.244471
 31
-0.173285
 12
0.381601
 22
0.266915
 32
-0.260611
 13
0.381601
 23
0.266915
 33
-0.260611
 62
0
  0
3DFACE
  8
NoName1
 10
-0.295044
 20
-0.600177
 30
0.232759
 11
-0.211613
 21
-0.484728
 31
0.290557
 12
-0.186631
 22
-0.567712
 32
0.253913
 13
-0.186631
 23
-0.567712
 33
0.253913
 62
0
  0
3DFACE
  8
NoName1
 10
-0.340408
 20
-0.482058
 30
0.261623
 11
-0.211613
 21
-0.484728
 31
0.290557
 12
-0.295044
 22
-0.600177
 32
0.232759
 13
-0.295044
 23
-0.600177
 33
0.232759
 62
0
  0
3DFACE
  8
NoName1
 10
-0.097682
 20
-0.456555
 30
0.289601
 11
-0.107992
 21
-0.354834
 31
0.315808
 12
0.002571
 22
-0.313966
 32
0.294024
 13
0.002571
 23
-0.313966
 33
0.294024
 62
0
  0
3DFACE
  8
NoName1
 10
-0.107992
 20
-0.354834
 30
0.315808
 11
-0.097682
 21
-0.456555
 31
0.289601
 12
-0.211613
 22
-0.484728
 32
0.290557
 13
-0.211613
 23
-0.484728
 33
0.290557
 62
0
  0
3DFACE
  8
NoName1
 10
-0.211613
 20
-0.484728
 30
0.290557
 11
-0.218872
 21
-0.398919
 31
0.308439
 12
-0.107992
 22
-0.354834
 32
0.315808
 13
-0.107992
 23
-0.354834
 33
0.315808
 62
0
  0
3DFACE
  8
NoName1
 10
0.006010
 20
-0.174291
 30
0.309437
 11
-0.068644
 21
-0.247637
 31
0.320236
 12
-0.038813
 22
-0.104396
 32
0.315458
 13
-0.038813
 23
-0.104396
 33
0.315458
 62
0
  0
3DFACE
  8
NoName1
 10
-0.121825
 20
-0.175047
 30
0.308835
 11
-0.038813
 21
-0.104396
 31
0.315458
 12
-0.068644
 22
-0.247637
 32
0.320236
 13
-0.068644
 23
-0.247637
 33
0.320236
 62
0
  0
3DFACE
  8
NoName1
 10
0.088191
 20
-0.175168
 30
0.275606
 11
0.119077
 21
-0.041505
 31
0.320031
 12
0.139514
 22
-0.097580
 32
0.261705
 13
0.139514
 23
-0.097580
 33
0.261705
 62
0
  0
3DFACE
  8
NoName1
 10
-0.395211
 20
-0.347476
 30
0.217676
 11
-0.404245
 21
-0.244203
 31
0.166486
 12
-0.294257
 22
-0.239240
 32
0.257328
 13
-0.294257
 23
-0.239240
 33
0.257328
 62
0
  0
3DFACE
  8
NoName1
 10
-0.395211
 20
-0.347476
 30
0.217676
 11
-0.294257
 21
-0.239240
 31
0.257328
 12
-0.282114
 22
-0.296329
 32
0.278958
 13
-0.282114
 23
-0.296329
 33
0.278958
 62
0
  0
3DFACE
  8
NoName1
 10
0.119077
 20
-0.041505
 30
0.320031
 11
0.088191
 21
-0.175168
 31
0.275606
 12
0.006010
 22
-0.174291
 32
0.309437
 13
0.006010
 23
-0.174291
 33
0.309437
 62
0
  0
3DFACE
  8
NoName1
 10
0.015852
 20
-0.567437
 30
0.093730
 11
-0.031886
 21
-0.583468
 31
0.152023
 12
0.010854
 22
-0.490993
 32
0.200754
 13
0.010854
 23
-0.490993
 33
0.200754
 62
0
  0
3DFACE
  8
NoName1
 10
-0.294257
 20
-0.239240
 30
0.257328
 11
-0.299233
 21
-0.158518
 31
0.222452
 12
-0.193720
 22
-0.134833
 32
0.270077
 13
-0.193720
 23
-0.134833
 33
0.270077
 62
0
  0
3DFACE
  8
NoName1
 10
-0.038813
 20
-0.104396
 30
0.315458
 11
0.023861
 21
-0.032201
 31
0.326006
 12
0.006010
 22
-0.174291
 32
0.309437
 13
0.006010
 23
-0.174291
 33
0.309437
 62
0
  0
3DFACE
  8
NoName1
 10
-0.294257
 20
-0.239240
 30
0.257328
 11
-0.193720
 21
-0.134833
 31
0.270077
 12
-0.194199
 22
-0.283385
 32
0.308463
 13
-0.194199
 23
-0.283385
 33
0.308463
 62
0
  0
3DFACE
  8
NoName1
 10
-0.193720
 20
-0.134833
 30
0.270077
 11
-0.299233
 21
-0.158518
 31
0.222452
 12
-0.205774
 22
-0.051061
 32
0.238560
 13
-0.205774
 23
-0.051061
 33
0.238560
 62
0
  0
3DFACE
  8
NoName1
 10
-0.065249
 20
0.337006
 30
-0.327838
 11
-0.082384
 21
0.310340
 31
-0.210609
 12
-0.077167
 22
0.369156
 32
-0.271124
 13
-0.077167
 23
0.369156
 33
-0.271124
 62
0
  0
3DFACE
  8
NoName1
 10
-0.065249
 20
0.337006
 30
-0.327838
 11
-0.083078
 21
0.266883
 31
-0.298590
 12
-0.082384
 22
0.310340
 32
-0.210609
 13
-0.082384
 23
0.310340
 33
-0.210609
 62
0
  0
3DFACE
  8
NoName1
 10
0.015852
 20
-0.567437
 30
0.093730
 11
0.010854
 21
-0.490993
 31
0.200754
 12
0.066609
 22
-0.440818
 32
0.123998
 13
0.066609
 23
-0.440818
 33
0.123998
 62
0
  0
3DFACE
  8
NoName1
 10
-0.404245
 20
-0.244203
 30
0.166486
 11
-0.395211
 21
-0.347476
 31
0.217676
 12
-0.484046
 22
-0.376840
 32
0.138587
 13
-0.484046
 23
-0.376840
 33
0.138587
 62
0
  0
3DFACE
  8
NoName1
 10
-0.463013
 20
-0.183763
 30
-0.079261
 11
-0.518104
 21
-0.240045
 31
-0.040146
 12
-0.507690
 22
-0.099786
 32
-0.137543
 13
-0.507690
 23
-0.099786
 33
-0.137543
 62
0
  0
3DFACE
  8
NoName1
 10
-0.186631
 20
-0.567712
 30
0.253913
 11
-0.097682
 21
-0.456555
 31
0.289601
 12
-0.038939
 22
-0.462464
 32
0.265271
 13
-0.038939
 23
-0.462464
 33
0.265271
 62
0
  0
3DFACE
  8
NoName1
 10
-0.186631
 20
-0.567712
 30
0.253913
 11
-0.211613
 21
-0.484728
 31
0.290557
 12
-0.097682
 22
-0.456555
 32
0.289601
 13
-0.097682
 23
-0.456555
 33
0.289601
 62
0
  0
3DFACE
  8
NoName1
 10
0.427813
 20
0.115378
 30
0.238593
 11
0.412435
 21
0.126298
 31
0.315279
 12
0.411719
 22
0.175280
 32
0.311350
 13
0.411719
 23
0.175280
 33
0.311350
 62
0
  0
3DFACE
  8
NoName1
 10
0.427813
 20
0.115378
 30
0.238593
 11
0.411719
 21
0.175280
 31
0.311350
 12
0.399971
 22
0.205508
 32
0.259385
 13
0.399971
 23
0.205508
 33
0.259385
 62
0
  0
3DFACE
  8
NoName1
 10
-0.194199
 20
-0.283385
 30
0.308463
 11
-0.193720
 21
-0.134833
 31
0.270077
 12
-0.121825
 22
-0.175047
 32
0.308835
 13
-0.121825
 23
-0.175047
 33
0.308835
 62
0
  0
3DFACE
  8
NoName1
 10
0.066609
 20
-0.440818
 30
0.123998
 11
0.068632
 21
-0.479717
 31
0.034252
 12
0.015852
 22
-0.567437
 32
0.093730
 13
0.015852
 23
-0.567437
 33
0.093730
 62
0
  0
3DFACE
  8
NoName1
 10
-0.121825
 20
-0.175047
 30
0.308835
 11
-0.068644
 21
-0.247637
 31
0.320236
 12
-0.194199
 22
-0.283385
 32
0.308463
 13
-0.194199
 23
-0.283385
 33
0.308463
 62
0
  0
3DFACE
  8
NoName1
 10
-0.014153
 20
0.183944
 30
-0.052460
 11
0.032070
 21
0.205361
 31
0.060386
 12
-0.056696
 22
0.204467
 32
0.047848
 13
-0.056696
 23
0.204467
 33
0.047848
 62
0
  0
3DFACE
  8
NoName1
 10
-0.150025
 20
0.168970
 30
0.083387
 11
-0.044819
 21
0.196681
 31
0.137033
 12
-0.062970
 22
0.172310
 32
0.174842
 13
-0.062970
 23
0.172310
 33
0.174842
 62
0
  0
3DFACE
  8
NoName1
 10
-0.193720
 20
-0.134833
 30
0.270077
 11
-0.077305
 21
-0.052049
 31
0.299341
 12
-0.121825
 22
-0.175047
 32
0.308835
 13
-0.121825
 23
-0.175047
 33
0.308835
 62
0
  0
3DFACE
  8
NoName1
 10
0.382534
 20
0.246800
 30
-0.213156
 11
0.422519
 21
0.204712
 31
-0.261627
 12
0.379998
 22
0.144563
 32
-0.173713
 13
0.379998
 23
0.144563
 33
-0.173713
 62
0
  0
3DFACE
  8
NoName1
 10
-0.017770
 20
0.131137
 30
-0.094893
 11
-0.144789
 21
0.049953
 31
-0.168611
 12
-0.046168
 22
0.068001
 32
-0.134958
 13
-0.046168
 23
0.068001
 33
-0.134958
 62
0
  0
3DFACE
  8
NoName1
 10
-0.014153
 20
0.183944
 30
-0.052460
 11
0.077577
 21
0.168461
 31
-0.044749
 12
0.032070
 22
0.205361
 32
0.060386
 13
0.032070
 23
0.205361
 33
0.060386
 62
0
  0
3DFACE
  8
NoName1
 10
0.379998
 20
0.144563
 30
-0.173713
 11
0.422519
 21
0.204712
 31
-0.261627
 12
0.386565
 22
0.118225
 32
-0.233634
 13
0.386565
 23
0.118225
 33
-0.233634
 62
0
  0
3DFACE
  8
NoName1
 10
-0.299233
 20
-0.158518
 30
0.222452
 11
-0.296536
 21
-0.062815
 31
0.176885
 12
-0.205774
 22
-0.051061
 32
0.238560
 13
-0.205774
 23
-0.051061
 33
0.238560
 62
0
  0
3DFACE
  8
NoName1
 10
-0.077305
 20
-0.052049
 30
0.299341
 11
-0.038813
 21
-0.104396
 31
0.315458
 12
-0.121825
 22
-0.175047
 32
0.308835
 13
-0.121825
 23
-0.175047
 33
0.308835
 62
0
  0
3DFACE
  8
NoName1
 10
-0.184127
 20
0.103010
 30
0.157220
 11
-0.150025
 21
0.168970
 31
0.083387
 12
-0.062970
 22
0.172310
 32
0.174842
 13
-0.062970
 23
0.172310
 33
0.174842
 62
0
  0
3DFACE
  8
NoName1
 10
-0.126958
 20
0.026842
 30
0.256373
 11
-0.219532
 21
0.018943
 31
0.199688
 12
-0.096244
 22
0.094304
 32
0.222203
 13
-0.096244
 23
0.094304
 33
0.222203
 62
0
  0
3DFACE
  8
NoName1
 10
-0.219532
 20
0.018943
 30
0.199688
 11
-0.184127
 21
0.103010
 31
0.157220
 12
-0.096244
 22
0.094304
 32
0.222203
 13
-0.096244
 23
0.094304
 33
0.222203
 62
0
  0
3DFACE
  8
NoName1
 10
0.006010
 20
-0.174291
 30
0.309437
 11
0.088191
 21
-0.175168
 31
0.275606
 12
0.002571
 22
-0.313966
 32
0.294024
 13
0.002571
 23
-0.313966
 33
0.294024
 62
0
  0
3DFACE
  8
NoName1
 10
0.122634
 20
-0.284443
 30
0.189545
 11
0.078539
 21
-0.264385
 31
0.259861
 12
0.156833
 22
-0.152920
 32
0.213976
 13
0.156833
 23
-0.152920
 33
0.213976
 62
0
  0
3DFACE
  8
NoName1
 10
-0.093431
 20
-0.568937
 30
0.223100
 11
-0.038939
 21
-0.462464
 31
0.265271
 12
0.010854
 22
-0.490993
 32
0.200754
 13
0.010854
 23
-0.490993
 33
0.200754
 62
0
  0
3DFACE
  8
NoName1
 10
0.122634
 20
-0.284443
 30
0.189545
 11
0.156833
 21
-0.152920
 31
0.213976
 12
0.147915
 22
-0.227074
 32
0.150381
 13
0.147915
 23
-0.227074
 33
0.150381
 62
0
  0
3DFACE
  8
NoName1
 10
-0.015539
 20
0.056564
 30
0.314281
 11
0.023861
 21
-0.032201
 31
0.326006
 12
-0.077305
 22
-0.052049
 32
0.299341
 13
-0.077305
 23
-0.052049
 33
0.299341
 62
0
  0
3DFACE
  8
NoName1
 10
-0.038939
 20
-0.462464
 30
0.265271
 11
-0.093431
 21
-0.568937
 31
0.223100
 12
-0.186631
 22
-0.567712
 32
0.253913
 13
-0.186631
 23
-0.567712
 33
0.253913
 62
0
  0
3DFACE
  8
NoName1
 10
-0.065024
 20
0.044655
 30
0.289288
 11
-0.015539
 21
0.056564
 31
0.314281
 12
-0.077305
 22
-0.052049
 32
0.299341
 13
-0.077305
 23
-0.052049
 33
0.299341
 62
0
  0
3DFACE
  8
NoName1
 10
0.053390
 20
0.220724
 30
0.399328
 11
0.053284
 21
0.293936
 31
0.359573
 12
0.127038
 22
0.242153
 32
0.386183
 13
0.127038
 23
0.242153
 33
0.386183
 62
0
  0
3DFACE
  8
NoName1
 10
0.081632
 20
-0.375003
 30
0.021990
 11
0.089519
 21
-0.425978
 31
-0.013424
 12
0.098668
 22
-0.377991
 32
0.116032
 13
0.098668
 23
-0.377991
 33
0.116032
 62
0
  0
3DFACE
  8
NoName1
 10
-0.299233
 20
-0.158518
 30
0.222452
 11
-0.294257
 21
-0.239240
 31
0.257328
 12
-0.404245
 22
-0.244203
 32
0.166486
 13
-0.404245
 23
-0.244203
 33
0.166486
 62
0
  0
3DFACE
  8
NoName1
 10
0.071748
 20
0.195685
 30
0.386335
 11
0.217910
 21
0.250769
 31
0.369810
 12
0.187710
 22
0.160532
 32
0.398343
 13
0.187710
 23
0.160532
 33
0.398343
 62
0
  0
3DFACE
  8
NoName1
 10
-0.186631
 20
-0.567712
 30
0.253913
 11
-0.166148
 21
-0.654824
 31
0.158791
 12
-0.235371
 22
-0.650660
 32
0.193681
 13
-0.235371
 23
-0.650660
 33
0.193681
 62
0
  0
3DFACE
  8
NoName1
 10
-0.158685
 20
0.136753
 30
-0.178762
 11
-0.110989
 21
0.134651
 31
-0.120555
 12
-0.118350
 22
0.190516
 32
-0.083415
 13
-0.118350
 23
0.190516
 33
-0.083415
 62
0
  0
3DFACE
  8
NoName1
 10
-0.186631
 20
-0.567712
 30
0.253913
 11
-0.093431
 21
-0.568937
 31
0.223100
 12
-0.166148
 22
-0.654824
 32
0.158791
 13
-0.166148
 23
-0.654824
 33
0.158791
 62
0
  0
3DFACE
  8
NoName1
 10
0.071748
 20
0.195685
 30
0.386335
 11
0.127038
 21
0.242153
 31
0.386183
 12
0.217910
 22
0.250769
 32
0.369810
 13
0.217910
 23
0.250769
 33
0.369810
 62
0
  0
3DFACE
  8
NoName1
 10
0.006010
 20
-0.174291
 30
0.309437
 11
0.002571
 21
-0.313966
 31
0.294024
 12
-0.068644
 22
-0.247637
 32
0.320236
 13
-0.068644
 23
-0.247637
 33
0.320236
 62
0
  0
3DFACE
  8
NoName1
 10
0.089519
 20
-0.425978
 30
-0.013424
 11
0.066609
 21
-0.440818
 31
0.123998
 12
0.098668
 22
-0.377991
 32
0.116032
 13
0.098668
 23
-0.377991
 33
0.116032
 62
0
  0
3DFACE
  8
NoName1
 10
-0.299233
 20
-0.158518
 30
0.222452
 11
-0.404245
 21
-0.244203
 31
0.166486
 12
-0.370141
 22
-0.138763
 32
0.136170
 13
-0.370141
 23
-0.138763
 33
0.136170
 62
0
  0
3DFACE
  8
NoName1
 10
-0.110989
 20
0.134651
 30
-0.120555
 11
-0.014153
 21
0.183944
 31
-0.052460
 12
-0.118350
 22
0.190516
 32
-0.083415
 13
-0.118350
 23
0.190516
 33
-0.083415
 62
0
  0
3DFACE
  8
NoName1
 10
-0.410701
 20
-0.179970
 30
-0.109726
 11
-0.463013
 21
-0.183763
 31
-0.079261
 12
-0.414983
 22
-0.063141
 32
-0.191146
 13
-0.414983
 23
-0.063141
 33
-0.191146
 62
0
  0
3DFACE
  8
NoName1
 10
-0.410701
 20
-0.179970
 30
-0.109726
 11
-0.414983
 21
-0.063141
 31
-0.191146
 12
-0.396908
 22
-0.105229
 32
-0.203371
 13
-0.396908
 23
-0.105229
 33
-0.203371
 62
0
  0
3DFACE
  8
NoName1
 10
-0.218872
 20
-0.398919
 30
0.308439
 11
-0.340408
 21
-0.482058
 31
0.261623
 12
-0.300190
 22
-0.413738
 32
0.286065
 13
-0.300190
 23
-0.413738
 33
0.286065
 62
0
  0
3DFACE
  8
NoName1
 10
-0.014153
 20
0.183944
 30
-0.052460
 11
-0.110989
 21
0.134651
 31
-0.120555
 12
-0.017770
 22
0.131137
 32
-0.094893
 13
-0.017770
 23
0.131137
 33
-0.094893
 62
0
  0
3DFACE
  8
NoName1
 10
-0.166148
 20
-0.654824
 30
0.158791
 11
-0.093431
 21
-0.568937
 31
0.223100
 12
-0.076421
 22
-0.628930
 32
0.141568
 13
-0.076421
 23
-0.628930
 33
0.141568
 62
0
  0
3DFACE
  8
NoName1
 10
-0.340408
 20
-0.482058
 30
0.261623
 11
-0.218872
 21
-0.398919
 31
0.308439
 12
-0.211613
 22
-0.484728
 32
0.290557
 13
-0.211613
 23
-0.484728
 33
0.290557
 62
0
  0
3DFACE
  8
NoName1
 10
-0.096244
 20
0.094304
 30
0.222203
 11
-0.184127
 21
0.103010
 31
0.157220
 12
-0.062970
 22
0.172310
 32
0.174842
 13
-0.062970
 23
0.172310
 33
0.174842
 62
0
  0
3DFACE
  8
NoName1
 10
0.002571
 20
-0.313966
 30
0.294024
 11
0.088191
 21
-0.175168
 31
0.275606
 12
0.078539
 22
-0.264385
 32
0.259861
 13
0.078539
 23
-0.264385
 33
0.259861
 62
0
  0
3DFACE
  8
NoName1
 10
-0.219532
 20
0.018943
 30
0.199688
 11
-0.283759
 21
0.035991
 31
0.119376
 12
-0.184127
 22
0.103010
 32
0.157220
 13
-0.184127
 23
0.103010
 33
0.157220
 62
0
  0
3DFACE
  8
NoName1
 10
0.077522
 20
-0.498503
 30
-0.042799
 11
0.049407
 21
-0.558785
 31
-0.042544
 12
0.068632
 22
-0.479717
 32
0.034252
 13
0.068632
 23
-0.479717
 33
0.034252
 62
0
  0
3DFACE
  8
NoName1
 10
0.020705
 20
-0.589598
 30
0.017811
 11
0.068632
 21
-0.479717
 31
0.034252
 12
0.049407
 22
-0.558785
 32
-0.042544
 13
0.049407
 23
-0.558785
 33
-0.042544
 62
0
  0
3DFACE
  8
NoName1
 10
-0.095660
 20
0.394903
 30
-0.293944
 11
-0.136753
 21
0.385553
 31
-0.219315
 12
-0.163037
 22
0.428592
 32
-0.311785
 13
-0.163037
 23
0.428592
 33
-0.311785
 62
0
  0
3DFACE
  8
NoName1
 10
0.356843
 20
0.236454
 30
0.188190
 11
0.385693
 21
0.164374
 31
0.254941
 12
0.382873
 22
0.199503
 32
0.298735
 13
0.382873
 23
0.199503
 33
0.298735
 62
0
  0
3DFACE
  8
NoName1
 10
-0.163037
 20
0.428592
 30
-0.311785
 11
-0.136753
 21
0.385553
 31
-0.219315
 12
-0.192845
 22
0.392917
 32
-0.228452
 13
-0.192845
 23
0.392917
 33
-0.228452
 62
0
  0
3DFACE
  8
NoName1
 10
-0.118350
 20
0.190516
 30
-0.083415
 11
-0.104513
 21
0.226180
 31
-0.170768
 12
-0.158685
 22
0.136753
 32
-0.178762
 13
-0.158685
 23
0.136753
 33
-0.178762
 62
0
  0
3DFACE
  8
NoName1
 10
0.427813
 20
0.115378
 30
0.238593
 11
0.412225
 21
0.066376
 31
0.283745
 12
0.412435
 22
0.126298
 32
0.315279
 13
0.412435
 23
0.126298
 33
0.315279
 62
0
  0
3DFACE
  8
NoName1
 10
-0.507690
 20
-0.099786
 30
-0.137543
 11
-0.454631
 21
-0.068617
 31
-0.168613
 12
-0.463013
 22
-0.183763
 32
-0.079261
 13
-0.463013
 23
-0.183763
 33
-0.079261
 62
0
  0
3DFACE
  8
NoName1
 10
-0.031886
 20
-0.583468
 30
0.152023
 11
-0.093431
 21
-0.568937
 31
0.223100
 12
0.010854
 22
-0.490993
 32
0.200754
 13
0.010854
 23
-0.490993
 33
0.200754
 62
0
  0
3DFACE
  8
NoName1
 10
0.339921
 20
0.212275
 30
0.350489
 11
0.313226
 21
0.092068
 31
0.374526
 12
0.271814
 22
0.176275
 32
0.387043
 13
0.271814
 23
0.176275
 33
0.387043
 62
0
  0
3DFACE
  8
NoName1
 10
-0.295044
 20
-0.600177
 30
0.232759
 11
-0.385730
 21
-0.564650
 31
0.193497
 12
-0.340408
 22
-0.482058
 32
0.261623
 13
-0.340408
 23
-0.482058
 33
0.261623
 62
0
  0
3DFACE
  8
NoName1
 10
0.117613
 20
-0.423950
 30
-0.119011
 11
0.106556
 21
-0.453814
 31
-0.159205
 12
0.089519
 22
-0.425978
 32
-0.013424
 13
0.089519
 23
-0.425978
 33
-0.013424
 62
0
  0
3DFACE
  8
NoName1
 10
0.173729
 20
0.049373
 30
0.377834
 11
0.119077
 21
-0.041505
 31
0.320031
 12
0.092744
 22
0.016175
 32
0.359295
 13
0.092744
 23
0.016175
 33
0.359295
 62
0
  0
3DFACE
  8
NoName1
 10
-0.118350
 20
0.190516
 30
-0.083415
 11
-0.157496
 21
0.193987
 31
0.005944
 12
-0.138846
 22
0.239457
 32
-0.100060
 13
-0.138846
 23
0.239457
 33
-0.100060
 62
0
  0
3DFACE
  8
NoName1
 10
0.173729
 20
0.049373
 30
0.377834
 11
0.234078
 21
0.030335
 31
0.366939
 12
0.119077
 22
-0.041505
 32
0.320031
 13
0.119077
 23
-0.041505
 33
0.320031
 62
0
  0
3DFACE
  8
NoName1
 10
-0.414983
 20
-0.063141
 30
-0.191146
 11
-0.463013
 21
-0.183763
 31
-0.079261
 12
-0.454631
 22
-0.068617
 32
-0.168613
 13
-0.454631
 23
-0.068617
 33
-0.168613
 62
0
  0
3DFACE
  8
NoName1
 10
0.119077
 20
-0.041505
 30
0.320031
 11
0.234078
 21
0.030335
 31
0.366939
 12
0.254099
 22
0.008487
 32
0.304845
 13
0.254099
 23
0.008487
 33
0.304845
 62
0
  0
3DFACE
  8
NoName1
 10
0.117613
 20
-0.423950
 30
-0.119011
 11
0.089519
 21
-0.425978
 31
-0.013424
 12
0.073862
 22
-0.417755
 32
-0.077777
 13
0.073862
 23
-0.417755
 33
-0.077777
 62
0
  0
3DFACE
  8
NoName1
 10
-0.056696
 20
0.204467
 30
0.047848
 11
-0.044819
 21
0.196681
 31
0.137033
 12
-0.150025
 22
0.168970
 32
0.083387
 13
-0.150025
 23
0.168970
 33
0.083387
 62
0
  0
3DFACE
  8
NoName1
 10
-0.295044
 20
-0.600177
 30
0.232759
 11
-0.186631
 21
-0.567712
 31
0.253913
 12
-0.235371
 22
-0.650660
 32
0.193681
 13
-0.235371
 23
-0.650660
 33
0.193681
 62
0
  0
3DFACE
  8
NoName1
 10
-0.107992
 20
-0.354834
 30
0.315808
 11
-0.194199
 21
-0.283385
 31
0.308463
 12
-0.068644
 22
-0.247637
 32
0.320236
 13
-0.068644
 23
-0.247637
 33
0.320236
 62
0
  0
3DFACE
  8
NoName1
 10
0.173729
 20
0.049373
 30
0.377834
 11
0.187710
 21
0.160532
 31
0.398343
 12
0.232863
 22
0.105668
 32
0.397820
 13
0.232863
 23
0.105668
 33
0.397820
 62
0
  0
3DFACE
  8
NoName1
 10
0.100464
 20
0.089873
 30
0.368142
 11
0.187710
 21
0.160532
 31
0.398343
 12
0.173729
 22
0.049373
 32
0.377834
 13
0.173729
 23
0.049373
 33
0.377834
 62
0
  0
3DFACE
  8
NoName1
 10
0.068632
 20
-0.479717
 30
0.034252
 11
0.089519
 21
-0.425978
 31
-0.013424
 12
0.106556
 22
-0.453814
 32
-0.159205
 13
0.106556
 23
-0.453814
 33
-0.159205
 62
0
  0
3DFACE
  8
NoName1
 10
0.071748
 20
0.195685
 30
0.386335
 11
0.187710
 21
0.160532
 31
0.398343
 12
0.100464
 22
0.089873
 32
0.368142
 13
0.100464
 23
0.089873
 33
0.368142
 62
0
  0
3DFACE
  8
NoName1
 10
-0.395211
 20
-0.347476
 30
0.217676
 11
-0.282114
 21
-0.296329
 31
0.278958
 12
-0.300190
 22
-0.413738
 32
0.286065
 13
-0.300190
 23
-0.413738
 33
0.286065
 62
0
  0
3DFACE
  8
NoName1
 10
-0.194199
 20
-0.283385
 30
0.308463
 11
-0.107992
 21
-0.354834
 31
0.315808
 12
-0.218872
 22
-0.398919
 32
0.308439
 13
-0.218872
 23
-0.398919
 33
0.308439
 62
0
  0
3DFACE
  8
NoName1
 10
0.243732
 20
0.155338
 30
-0.094821
 11
0.293910
 21
0.129718
 31
-0.100576
 12
0.252767
 22
0.056427
 32
-0.087956
 13
0.252767
 23
0.056427
 33
-0.087956
 62
0
  0
3DFACE
  8
NoName1
 10
-0.118350
 20
0.190516
 30
-0.083415
 11
-0.014153
 21
0.183944
 31
-0.052460
 12
-0.095882
 22
0.203819
 32
-0.016886
 13
-0.095882
 23
0.203819
 33
-0.016886
 62
0
  0
3DFACE
  8
NoName1
 10
0.167561
 20
-0.161011
 30
-0.006005
 11
0.206654
 21
-0.077981
 31
0.053144
 12
0.192443
 22
-0.079569
 32
-0.012965
 13
0.192443
 23
-0.079569
 33
-0.012965
 62
0
  0
3DFACE
  8
NoName1
 10
0.066040
 20
-0.342434
 30
0.232725
 11
0.026772
 21
-0.411525
 31
0.249398
 12
0.002571
 22
-0.313966
 32
0.294024
 13
0.002571
 23
-0.313966
 33
0.294024
 62
0
  0
3DFACE
  8
NoName1
 10
0.206654
 20
-0.077981
 30
0.053144
 11
0.167561
 21
-0.161011
 31
-0.006005
 12
0.178293
 22
-0.144558
 32
0.115392
 13
0.178293
 23
-0.144558
 33
0.115392
 62
0
  0
3DFACE
  8
NoName1
 10
0.020705
 20
-0.589598
 30
0.017811
 11
0.015852
 21
-0.567437
 31
0.093730
 12
0.068632
 22
-0.479717
 32
0.034252
 13
0.068632
 23
-0.479717
 33
0.034252
 62
0
  0
3DFACE
  8
NoName1
 10
-0.062970
 20
0.172310
 30
0.174842
 11
0.018327
 21
0.196280
 31
0.190198
 12
-0.096244
 22
0.094304
 32
0.222203
 13
-0.096244
 23
0.094304
 33
0.222203
 62
0
  0
3DFACE
  8
NoName1
 10
-0.065024
 20
0.044655
 30
0.289288
 11
-0.205774
 21
-0.051061
 31
0.238560
 12
-0.126958
 22
0.026842
 32
0.256373
 13
-0.126958
 23
0.026842
 33
0.256373
 62
0
  0
3DFACE
  8
NoName1
 10
0.254984
 20
0.014951
 30
-0.140483
 11
0.207112
 21
-0.051154
 31
-0.113296
 12
0.252767
 22
0.056427
 32
-0.087956
 13
0.252767
 23
0.056427
 33
-0.087956
 62
0
  0
3DFACE
  8
NoName1
 10
-0.283759
 20
0.035991
 30
0.119376
 11
-0.326101
 21
0.014730
 31
0.042303
 12
-0.243163
 22
0.106021
 32
0.080893
 13
-0.243163
 23
0.106021
 33
0.080893
 62
0
  0
3DFACE
  8
NoName1
 10
-0.150025
 20
0.168970
 30
0.083387
 11
-0.184127
 21
0.103010
 31
0.157220
 12
-0.243163
 22
0.106021
 32
0.080893
 13
-0.243163
 23
0.106021
 33
0.080893
 62
0
  0
3DFACE
  8
NoName1
 10
-0.283759
 20
0.035991
 30
0.119376
 11
-0.243163
 21
0.106021
 31
0.080893
 12
-0.184127
 22
0.103010
 32
0.157220
 13
-0.184127
 23
0.103010
 33
0.157220
 62
0
  0
3DFACE
  8
NoName1
 10
-0.404245
 20
-0.244203
 30
0.166486
 11
-0.484046
 21
-0.376840
 31
0.138587
 12
-0.448057
 22
-0.241856
 32
0.107827
 13
-0.448057
 23
-0.241856
 33
0.107827
 62
0
  0
3DFACE
  8
NoName1
 10
0.133964
 20
-0.319553
 30
0.135565
 11
0.081660
 21
-0.394918
 31
0.178894
 12
0.122634
 22
-0.284443
 32
0.189545
 13
0.122634
 23
-0.284443
 33
0.189545
 62
0
  0
3DFACE
  8
NoName1
 10
0.066040
 20
-0.342434
 30
0.232725
 11
0.122634
 21
-0.284443
 31
0.189545
 12
0.081660
 22
-0.394918
 32
0.178894
 13
0.081660
 23
-0.394918
 33
0.178894
 62
0
  0
3DFACE
  8
NoName1
 10
0.147915
 20
-0.227074
 30
0.150381
 11
0.156833
 21
-0.152920
 31
0.213976
 12
0.178293
 22
-0.144558
 32
0.115392
 13
0.178293
 23
-0.144558
 33
0.115392
 62
0
  0
3DFACE
  8
NoName1
 10
-0.506973
 20
-0.312376
 30
0.058281
 11
-0.518104
 21
-0.240045
 31
-0.040146
 12
-0.471044
 22
-0.247640
 32
0.004199
 13
-0.471044
 23
-0.247640
 33
0.004199
 62
0
  0
3DFACE
  8
NoName1
 10
0.186215
 20
0.042705
 30
-0.039304
 11
0.140880
 21
0.144564
 31
-0.020103
 12
0.170802
 22
0.117968
 32
-0.090542
 13
0.170802
 23
0.117968
 33
-0.090542
 62
0
  0
3DFACE
  8
NoName1
 10
-0.192845
 20
0.392917
 30
-0.228452
 11
-0.218392
 21
0.314182
 31
-0.146190
 12
-0.241197
 22
0.361081
 32
-0.220003
 13
-0.241197
 23
0.361081
 33
-0.220003
 62
0
  0
3DFACE
  8
NoName1
 10
-0.138846
 20
0.239457
 30
-0.100060
 11
-0.136237
 21
0.323748
 31
-0.151626
 12
-0.082384
 22
0.310340
 32
-0.210609
 13
-0.082384
 23
0.310340
 33
-0.210609
 62
0
  0
3DFACE
  8
NoName1
 10
0.232499
 20
0.358204
 30
0.258049
 11
0.258453
 21
0.314065
 31
0.304732
 12
0.162594
 22
0.343379
 32
0.251298
 13
0.162594
 23
0.343379
 33
0.251298
 62
0
  0
3DFACE
  8
NoName1
 10
-0.205774
 20
-0.051061
 30
0.238560
 11
-0.296536
 21
-0.062815
 31
0.176885
 12
-0.219532
 22
0.018943
 32
0.199688
 13
-0.219532
 23
0.018943
 33
0.199688
 62
0
  0
3DFACE
  8
NoName1
 10
0.162594
 20
0.343379
 30
0.251298
 11
0.258453
 21
0.314065
 31
0.304732
 12
0.149816
 22
0.285842
 32
0.348616
 13
0.149816
 23
0.285842
 33
0.348616
 62
0
  0
3DFACE
  8
NoName1
 10
-0.138846
 20
0.239457
 30
-0.100060
 11
-0.187273
 21
0.280463
 31
-0.104688
 12
-0.136237
 22
0.323748
 32
-0.151626
 13
-0.136237
 23
0.323748
 33
-0.151626
 62
0
  0
3DFACE
  8
NoName1
 10
-0.126958
 20
0.026842
 30
0.256373
 11
-0.205774
 21
-0.051061
 31
0.238560
 12
-0.219532
 22
0.018943
 32
0.199688
 13
-0.219532
 23
0.018943
 33
0.199688
 62
0
  0
3DFACE
  8
NoName1
 10
0.077577
 20
0.168461
 30
-0.044749
 11
-0.014153
 21
0.183944
 31
-0.052460
 12
-0.017770
 22
0.131137
 32
-0.094893
 13
-0.017770
 23
0.131137
 33
-0.094893
 62
0
  0
3DFACE
  8
NoName1
 10
0.356843
 20
0.236454
 30
0.188190
 11
0.382873
 21
0.199503
 31
0.298735
 12
0.355063
 22
0.228406
 32
0.295993
 13
0.355063
 23
0.228406
 33
0.295993
 62
0
  0
3DFACE
  8
NoName1
 10
0.217775
 20
-0.042796
 30
0.134671
 11
0.178293
 21
-0.144558
 31
0.115392
 12
0.156833
 22
-0.152920
 32
0.213976
 13
0.156833
 23
-0.152920
 33
0.213976
 62
0
  0
3DFACE
  8
NoName1
 10
-0.017770
 20
0.131137
 30
-0.094893
 11
0.099169
 21
0.130932
 31
-0.062903
 12
0.077577
 22
0.168461
 32
-0.044749
 13
0.077577
 23
0.168461
 33
-0.044749
 62
0
  0
3DFACE
  8
NoName1
 10
-0.068644
 20
-0.247637
 30
0.320236
 11
0.002571
 21
-0.313966
 31
0.294024
 12
-0.107992
 22
-0.354834
 32
0.315808
 13
-0.107992
 23
-0.354834
 33
0.315808
 62
0
  0
3DFACE
  8
NoName1
 10
-0.279811
 20
0.095892
 30
-0.021281
 11
-0.243163
 21
0.106021
 31
0.080893
 12
-0.326101
 22
0.014730
 32
0.042303
 13
-0.326101
 23
0.014730
 33
0.042303
 62
0
  0
3DFACE
  8
NoName1
 10
-0.083078
 20
0.266883
 30
-0.298590
 11
-0.104513
 21
0.226180
 31
-0.170768
 12
-0.082384
 22
0.310340
 32
-0.210609
 13
-0.082384
 23
0.310340
 33
-0.210609
 62
0
  0
3DFACE
  8
NoName1
 10
-0.279811
 20
0.095892
 30
-0.021281
 11
-0.215785
 21
0.160262
 31
0.017463
 12
-0.243163
 22
0.106021
 32
0.080893
 13
-0.243163
 23
0.106021
 33
0.080893
 62
0
  0
3DFACE
  8
NoName1
 10
0.206654
 20
-0.077981
 30
0.053144
 11
0.178293
 21
-0.144558
 31
0.115392
 12
0.217775
 22
-0.042796
 32
0.134671
 13
0.217775
 23
-0.042796
 33
0.134671
 62
0
  0
3DFACE
  8
NoName1
 10
-0.037838
 20
-0.642970
 30
0.034760
 11
-0.076421
 21
-0.628930
 31
0.141568
 12
0.015852
 22
-0.567437
 32
0.093730
 13
0.015852
 23
-0.567437
 33
0.093730
 62
0
  0
3DFACE
  8
NoName1
 10
0.410188
 20
0.133820
 30
-0.303697
 11
0.386565
 21
0.118225
 31
-0.233634
 12
0.422519
 22
0.204712
 32
-0.261627
 13
0.422519
 23
0.204712
 33
-0.261627
 62
0
  0
3DFACE
  8
NoName1
 10
0.020705
 20
-0.589598
 30
0.017811
 11
-0.037838
 21
-0.642970
 31
0.034760
 12
0.015852
 22
-0.567437
 32
0.093730
 13
0.015852
 23
-0.567437
 33
0.093730
 62
0
  0
3DFACE
  8
NoName1
 10
-0.448057
 20
-0.241856
 30
0.107827
 11
-0.386604
 21
-0.126852
 31
0.042715
 12
-0.370141
 22
-0.138763
 32
0.136170
 13
-0.370141
 23
-0.138763
 33
0.136170
 62
0
  0
3DFACE
  8
NoName1
 10
-0.404245
 20
-0.244203
 30
0.166486
 11
-0.448057
 21
-0.241856
 31
0.107827
 12
-0.370141
 22
-0.138763
 32
0.136170
 13
-0.370141
 23
-0.138763
 33
0.136170
 62
0
  0
3DFACE
  8
NoName1
 10
0.010854
 20
-0.490993
 30
0.200754
 11
0.026772
 21
-0.411525
 31
0.249398
 12
0.081660
 22
-0.394918
 32
0.178894
 13
0.081660
 23
-0.394918
 33
0.178894
 62
0
  0
3DFACE
  8
NoName1
 10
0.422519
 20
0.204712
 30
-0.261627
 11
0.382534
 21
0.246800
 31
-0.213156
 12
0.381601
 22
0.266915
 32
-0.260611
 13
0.381601
 23
0.266915
 33
-0.260611
 62
0
  0
3DFACE
  8
NoName1
 10
0.026772
 20
-0.411525
 30
0.249398
 11
0.010854
 21
-0.490993
 31
0.200754
 12
-0.038939
 22
-0.462464
 32
0.265271
 13
-0.038939
 23
-0.462464
 33
0.265271
 62
0
  0
3DFACE
  8
NoName1
 10
0.232863
 20
0.105668
 30
0.397820
 11
0.313226
 21
0.092068
 31
0.374526
 12
0.234078
 22
0.030335
 32
0.366939
 13
0.234078
 23
0.030335
 33
0.366939
 62
0
  0
3DFACE
  8
NoName1
 10
0.187710
 20
0.160532
 30
0.398343
 11
0.217910
 21
0.250769
 31
0.369810
 12
0.271814
 22
0.176275
 32
0.387043
 13
0.271814
 23
0.176275
 33
0.387043
 62
0
  0
3DFACE
  8
NoName1
 10
0.411719
 20
0.175280
 30
0.311350
 11
0.359123
 21
0.121168
 31
0.372313
 12
0.339921
 22
0.212275
 32
0.350489
 13
0.339921
 23
0.212275
 33
0.350489
 62
0
  0
3DFACE
  8
NoName1
 10
0.156833
 20
-0.152920
 30
0.213976
 11
0.139514
 21
-0.097580
 31
0.261705
 12
0.180863
 22
-0.053920
 32
0.232853
 13
0.180863
 23
-0.053920
 33
0.232853
 62
0
  0
3DFACE
  8
NoName1
 10
0.180863
 20
-0.053920
 30
0.232853
 11
0.217775
 21
-0.042796
 31
0.134671
 12
0.156833
 22
-0.152920
 32
0.213976
 13
0.156833
 23
-0.152920
 33
0.213976
 62
0
  0
3DFACE
  8
NoName1
 10
0.274803
 20
0.289697
 30
0.067245
 11
0.301664
 21
0.358712
 31
0.111166
 12
0.227846
 22
0.372813
 32
0.089048
 13
0.227846
 23
0.372813
 33
0.089048
 62
0
  0
3DFACE
  8
NoName1
 10
-0.158685
 20
0.136753
 30
-0.178762
 11
-0.144789
 21
0.049953
 31
-0.168611
 12
-0.110989
 22
0.134651
 32
-0.120555
 13
-0.110989
 23
0.134651
 33
-0.120555
 62
0
  0
3DFACE
  8
NoName1
 10
0.305282
 20
0.038142
 30
0.356705
 11
0.234078
 21
0.030335
 31
0.366939
 12
0.313226
 22
0.092068
 32
0.374526
 13
0.313226
 23
0.092068
 33
0.374526
 62
0
  0
3DFACE
  8
NoName1
 10
-0.077167
 20
0.369156
 30
-0.271124
 11
-0.136237
 21
0.323748
 31
-0.151626
 12
-0.136753
 22
0.385553
 32
-0.219315
 13
-0.136753
 23
0.385553
 33
-0.219315
 62
0
  0
3DFACE
  8
NoName1
 10
-0.038813
 20
-0.104396
 30
0.315458
 11
-0.077305
 21
-0.052049
 31
0.299341
 12
0.023861
 22
-0.032201
 32
0.326006
 13
0.023861
 23
-0.032201
 33
0.326006
 62
0
  0
3DFACE
  8
NoName1
 10
0.136001
 20
0.113824
 30
-0.165818
 11
0.069036
 21
0.081139
 31
-0.125057
 12
-0.007468
 22
-0.011596
 32
-0.169615
 13
-0.007468
 23
-0.011596
 33
-0.169615
 62
0
  0
3DFACE
  8
NoName1
 10
0.003631
 20
0.298429
 30
0.319640
 11
0.053284
 21
0.293936
 31
0.359573
 12
-0.028785
 22
0.245311
 32
0.327836
 13
-0.028785
 23
0.245311
 33
0.327836
 62
0
  0
3DFACE
  8
NoName1
 10
-0.216742
 20
0.408363
 30
-0.322580
 11
-0.192845
 21
0.392917
 31
-0.228452
 12
-0.241197
 22
0.361081
 32
-0.220003
 13
-0.241197
 23
0.361081
 33
-0.220003
 62
0
  0
3DFACE
  8
NoName1
 10
0.274803
 20
0.289697
 30
0.067245
 11
0.332066
 21
0.255483
 31
0.105175
 12
0.301664
 22
0.358712
 32
0.111166
 13
0.301664
 23
0.358712
 33
0.111166
 62
0
  0
3DFACE
  8
NoName1
 10
-0.096244
 20
0.094304
 30
0.222203
 11
-0.045791
 21
0.108795
 31
0.268049
 12
-0.126958
 22
0.026842
 32
0.256373
 13
-0.126958
 23
0.026842
 33
0.256373
 62
0
  0
3DFACE
  8
NoName1
 10
-0.367784
 20
-0.084103
 30
0.083193
 11
-0.326101
 21
0.014730
 31
0.042303
 12
-0.296536
 22
-0.062815
 32
0.176885
 13
-0.296536
 23
-0.062815
 33
0.176885
 62
0
  0
3DFACE
  8
NoName1
 10
-0.163037
 20
0.428592
 30
-0.311785
 11
-0.152449
 21
0.409267
 31
-0.402914
 12
-0.113243
 22
0.409514
 32
-0.362998
 13
-0.113243
 23
0.409514
 33
-0.362998
 62
0
  0
3DFACE
  8
NoName1
 10
-0.045791
 20
0.108795
 30
0.268049
 11
-0.065024
 21
0.044655
 31
0.289288
 12
-0.126958
 22
0.026842
 32
0.256373
 13
-0.126958
 23
0.026842
 33
0.256373
 62
0
  0
3DFACE
  8
NoName1
 10
-0.216742
 20
0.408363
 30
-0.322580
 11
-0.163037
 21
0.428592
 31
-0.311785
 12
-0.192845
 22
0.392917
 32
-0.228452
 13
-0.192845
 23
0.392917
 33
-0.228452
 62
0
  0
3DFACE
  8
NoName1
 10
-0.195236
 20
0.409263
 30
-0.389384
 11
-0.152449
 21
0.409267
 31
-0.402914
 12
-0.163037
 22
0.428592
 32
-0.311785
 13
-0.163037
 23
0.428592
 33
-0.311785
 62
0
  0
3DFACE
  8
NoName1
 10
0.106556
 20
-0.453814
 30
-0.159205
 11
0.077522
 21
-0.498503
 31
-0.042799
 12
0.068632
 22
-0.479717
 32
0.034252
 13
0.068632
 23
-0.479717
 33
0.034252
 62
0
  0
3DFACE
  8
NoName1
 10
0.292191
 20
0.371970
 30
0.195455
 11
0.258453
 21
0.314065
 31
0.304732
 12
0.232499
 22
0.358204
 32
0.258049
 13
0.232499
 23
0.358204
 33
0.258049
 62
0
  0
3DFACE
  8
NoName1
 10
-0.296536
 20
-0.062815
 30
0.176885
 11
-0.370141
 21
-0.138763
 31
0.136170
 12
-0.367784
 22
-0.084103
 32
0.083193
 13
-0.367784
 23
-0.084103
 33
0.083193
 62
0
  0
3DFACE
  8
NoName1
 10
-0.395211
 20
-0.347476
 30
0.217676
 11
-0.340408
 21
-0.482058
 31
0.261623
 12
-0.413531
 22
-0.451406
 32
0.218289
 13
-0.413531
 23
-0.451406
 33
0.218289
 62
0
  0
3DFACE
  8
NoName1
 10
-0.157496
 20
0.193987
 30
0.005944
 11
-0.150025
 21
0.168970
 31
0.083387
 12
-0.215785
 22
0.160262
 32
0.017463
 13
-0.215785
 23
0.160262
 33
0.017463
 62
0
  0
3DFACE
  8
NoName1
 10
0.344348
 20
0.300595
 30
0.204117
 11
0.356843
 21
0.236454
 31
0.188190
 12
0.317553
 22
0.314067
 32
0.251505
 13
0.317553
 23
0.314067
 33
0.251505
 62
0
  0
3DFACE
  8
NoName1
 10
0.317553
 20
0.314067
 30
0.251505
 11
0.258453
 21
0.314065
 31
0.304732
 12
0.292191
 22
0.371970
 32
0.195455
 13
0.292191
 23
0.371970
 33
0.195455
 62
0
  0
3DFACE
  8
NoName1
 10
-0.243163
 20
0.106021
 30
0.080893
 11
-0.215785
 21
0.160262
 31
0.017463
 12
-0.150025
 22
0.168970
 32
0.083387
 13
-0.150025
 23
0.168970
 33
0.083387
 62
0
  0
3DFACE
  8
NoName1
 10
0.412435
 20
0.126298
 30
0.315279
 11
0.359123
 21
0.121168
 31
0.372313
 12
0.411719
 22
0.175280
 32
0.311350
 13
0.411719
 23
0.175280
 33
0.311350
 62
0
  0
3DFACE
  8
NoName1
 10
-0.397786
 20
-0.073494
 30
-0.275041
 11
-0.414983
 21
-0.063141
 31
-0.191146
 12
-0.444634
 22
-0.012264
 32
-0.261271
 13
-0.444634
 23
-0.012264
 33
-0.261271
 62
0
  0
3DFACE
  8
NoName1
 10
-0.056696
 20
0.204467
 30
0.047848
 11
0.032070
 21
0.205361
 31
0.060386
 12
-0.044819
 22
0.196681
 32
0.137033
 13
-0.044819
 23
0.196681
 33
0.137033
 62
0
  0
3DFACE
  8
NoName1
 10
0.147915
 20
-0.227074
 30
0.150381
 11
0.178293
 21
-0.144558
 31
0.115392
 12
0.167561
 22
-0.161011
 32
-0.006005
 13
0.167561
 23
-0.161011
 33
-0.006005
 62
0
  0
3DFACE
  8
NoName1
 10
-0.219532
 20
0.018943
 30
0.199688
 11
-0.296536
 21
-0.062815
 31
0.176885
 12
-0.283759
 22
0.035991
 32
0.119376
 13
-0.283759
 23
0.035991
 33
0.119376
 62
0
  0
3DFACE
  8
NoName1
 10
0.382534
 20
0.246800
 30
-0.213156
 11
0.353549
 21
0.194019
 31
-0.148090
 12
0.313407
 22
0.244471
 32
-0.173285
 13
0.313407
 23
0.244471
 33
-0.173285
 62
0
  0
3DFACE
  8
NoName1
 10
0.077577
 20
0.168461
 30
-0.044749
 11
0.091802
 21
0.175883
 31
0.009391
 12
0.032070
 22
0.205361
 32
0.060386
 13
0.032070
 23
0.205361
 33
0.060386
 62
0
  0
3DFACE
  8
NoName1
 10
-0.414983
 20
-0.063141
 30
-0.191146
 11
-0.454631
 21
-0.068617
 31
-0.168613
 12
-0.444634
 22
-0.012264
 32
-0.261271
 13
-0.444634
 23
-0.012264
 33
-0.261271
 62
0
  0
3DFACE
  8
NoName1
 10
-0.296536
 20
-0.062815
 30
0.176885
 11
-0.299233
 21
-0.158518
 31
0.222452
 12
-0.370141
 22
-0.138763
 32
0.136170
 13
-0.370141
 23
-0.138763
 33
0.136170
 62
0
  0
3DFACE
  8
NoName1
 10
0.353549
 20
0.194019
 30
-0.148090
 11
0.243732
 21
0.155338
 31
-0.094821
 12
0.313407
 22
0.244471
 32
-0.173285
 13
0.313407
 23
0.244471
 33
-0.173285
 62
0
  0
3DFACE
  8
NoName1
 10
0.041336
 20
0.124173
 30
0.345004
 11
0.100464
 21
0.089873
 31
0.368142
 12
-0.015539
 22
0.056564
 32
0.314281
 13
-0.015539
 23
0.056564
 33
0.314281
 62
0
  0
3DFACE
  8
NoName1
 10
0.074128
 20
-0.494403
 30
-0.153447
 11
0.037071
 21
-0.541958
 31
-0.135433
 12
0.077522
 22
-0.498503
 32
-0.042799
 13
0.077522
 23
-0.498503
 33
-0.042799
 62
0
  0
3DFACE
  8
NoName1
 10
0.037071
 20
-0.541958
 30
-0.135433
 11
0.049407
 21
-0.558785
 31
-0.042544
 12
0.077522
 22
-0.498503
 32
-0.042799
 13
0.077522
 23
-0.498503
 33
-0.042799
 62
0
  0
3DFACE
  8
NoName1
 10
0.089519
 20
-0.425978
 30
-0.013424
 11
0.068632
 21
-0.479717
 31
0.034252
 12
0.066609
 22
-0.440818
 32
0.123998
 13
0.066609
 23
-0.440818
 33
0.123998
 62
0
  0
3DFACE
  8
NoName1
 10
0.356843
 20
0.236454
 30
0.188190
 11
0.355063
 21
0.228406
 31
0.295993
 12
0.317553
 22
0.314067
 32
0.251505
 13
0.317553
 23
0.314067
 33
0.251505
 62
0
  0
3DFACE
  8
NoName1
 10
0.136001
 20
0.113824
 30
-0.165818
 11
0.170802
 21
0.117968
 31
-0.090542
 12
0.069036
 22
0.081139
 32
-0.125057
 13
0.069036
 23
0.081139
 33
-0.125057
 62
0
  0
3DFACE
  8
NoName1
 10
-0.076421
 20
-0.628930
 30
0.141568
 11
-0.093431
 21
-0.568937
 31
0.223100
 12
-0.031886
 22
-0.583468
 32
0.152023
 13
-0.031886
 23
-0.583468
 33
0.152023
 62
0
  0
3DFACE
  8
NoName1
 10
0.077900
 20
0.214866
 30
0.101296
 11
0.091802
 21
0.175883
 31
0.009391
 12
0.146033
 22
0.162341
 32
0.073589
 13
0.146033
 23
0.162341
 33
0.073589
 62
0
  0
3DFACE
  8
NoName1
 10
0.301664
 20
0.358712
 30
0.111166
 11
0.292191
 21
0.371970
 31
0.195455
 12
0.251095
 22
0.390878
 32
0.135547
 13
0.251095
 23
0.390878
 33
0.135547
 62
0
  0
3DFACE
  8
NoName1
 10
-0.138846
 20
0.239457
 30
-0.100060
 11
-0.157496
 21
0.193987
 31
0.005944
 12
-0.210733
 22
0.197754
 32
-0.054711
 13
-0.210733
 23
0.197754
 33
-0.054711
 62
0
  0
3DFACE
  8
NoName1
 10
0.032070
 20
0.205361
 30
0.060386
 11
0.091802
 21
0.175883
 31
0.009391
 12
0.077900
 22
0.214866
 32
0.101296
 13
0.077900
 23
0.214866
 33
0.101296
 62
0
  0
3DFACE
  8
NoName1
 10
0.136001
 20
0.113824
 30
-0.165818
 11
0.260130
 21
0.236451
 31
-0.190549
 12
0.238695
 22
0.195571
 32
-0.136804
 13
0.238695
 23
0.195571
 33
-0.136804
 62
0
  0
3DFACE
  8
NoName1
 10
0.170802
 20
0.117968
 30
-0.090542
 11
0.136001
 21
0.113824
 31
-0.165818
 12
0.238695
 22
0.195571
 32
-0.136804
 13
0.238695
 23
0.195571
 33
-0.136804
 62
0
  0
3DFACE
  8
NoName1
 10
0.217775
 20
-0.042796
 30
0.134671
 11
0.217273
 21
0.017368
 31
0.072686
 12
0.206654
 22
-0.077981
 32
0.053144
 13
0.206654
 23
-0.077981
 33
0.053144
 62
0
  0
3DFACE
  8
NoName1
 10
0.180863
 20
-0.053920
 30
0.232853
 11
0.217971
 21
0.025659
 31
0.185880
 12
0.217775
 22
-0.042796
 32
0.134671
 13
0.217775
 23
-0.042796
 33
0.134671
 62
0
  0
3DFACE
  8
NoName1
 10
-0.065249
 20
0.337006
 30
-0.327838
 11
-0.112926
 21
0.364749
 31
-0.416057
 12
-0.091697
 22
0.304606
 32
-0.379776
 13
-0.091697
 23
0.304606
 33
-0.379776
 62
0
  0
3DFACE
  8
NoName1
 10
0.162594
 20
0.343379
 30
0.251298
 11
0.149816
 21
0.285842
 31
0.348616
 12
0.091099
 22
0.293537
 32
0.321989
 13
0.091099
 23
0.293537
 33
0.321989
 62
0
  0
3DFACE
  8
NoName1
 10
0.091099
 20
0.293537
 30
0.321989
 11
0.116072
 21
0.324142
 31
0.222987
 12
0.162594
 22
0.343379
 32
0.251298
 13
0.162594
 23
0.343379
 33
0.251298
 62
0
  0
3DFACE
  8
NoName1
 10
0.353549
 20
0.194019
 30
-0.148090
 11
0.382534
 21
0.246800
 31
-0.213156
 12
0.379998
 22
0.144563
 32
-0.173713
 13
0.379998
 23
0.144563
 33
-0.173713
 62
0
  0
3DFACE
  8
NoName1
 10
0.217775
 20
-0.042796
 30
0.134671
 11
0.217971
 21
0.025659
 31
0.185880
 12
0.214336
 22
0.058544
 32
0.117604
 13
0.214336
 23
0.058544
 33
0.117604
 62
0
  0
3DFACE
  8
NoName1
 10
-0.396908
 20
-0.105229
 30
-0.203371
 11
-0.390374
 21
-0.151154
 31
-0.242565
 12
-0.410701
 22
-0.179970
 32
-0.109726
 13
-0.410701
 23
-0.179970
 33
-0.109726
 62
0
  0
3DFACE
  8
NoName1
 10
-0.113243
 20
0.409514
 30
-0.362998
 11
-0.095660
 21
0.394903
 31
-0.293944
 12
-0.163037
 22
0.428592
 32
-0.311785
 13
-0.163037
 23
0.428592
 33
-0.311785
 62
0
  0
3DFACE
  8
NoName1
 10
-0.391642
 20
-0.220079
 30
-0.161456
 11
-0.410701
 21
-0.179970
 31
-0.109726
 12
-0.390374
 22
-0.151154
 32
-0.242565
 13
-0.390374
 23
-0.151154
 33
-0.242565
 62
0
  0
3DFACE
  8
NoName1
 10
-0.193720
 20
-0.134833
 30
0.270077
 11
-0.205774
 21
-0.051061
 31
0.238560
 12
-0.138118
 22
-0.064763
 32
0.269466
 13
-0.138118
 23
-0.064763
 33
0.269466
 62
0
  0
3DFACE
  8
NoName1
 10
0.053284
 20
0.293936
 30
0.359573
 11
0.001834
 21
0.211718
 31
0.370293
 12
-0.028785
 22
0.245311
 32
0.327836
 13
-0.028785
 23
0.245311
 33
0.327836
 62
0
  0
3DFACE
  8
NoName1
 10
0.196712
 20
-0.297294
 30
-0.266858
 11
0.176601
 21
-0.308171
 31
-0.191486
 12
0.154270
 22
-0.259834
 32
-0.265287
 13
0.154270
 23
-0.259834
 33
-0.265287
 62
0
  0
3DFACE
  8
NoName1
 10
-0.082384
 20
0.310340
 30
-0.210609
 11
-0.104513
 21
0.226180
 31
-0.170768
 12
-0.138846
 22
0.239457
 32
-0.100060
 13
-0.138846
 23
0.239457
 33
-0.100060
 62
0
  0
3DFACE
  8
NoName1
 10
0.141283
 20
-0.259877
 30
0.096171
 11
0.133964
 21
-0.319553
 31
0.135565
 12
0.147915
 22
-0.227074
 32
0.150381
 13
0.147915
 23
-0.227074
 33
0.150381
 62
0
  0
3DFACE
  8
NoName1
 10
-0.279811
 20
0.095892
 30
-0.021281
 11
-0.260984
 21
0.227975
 31
-0.119000
 12
-0.210733
 22
0.197754
 32
-0.054711
 13
-0.210733
 23
0.197754
 33
-0.054711
 62
0
  0
3DFACE
  8
NoName1
 10
-0.040860
 20
-0.352538
 30
-0.125416
 11
0.014074
 21
-0.382369
 31
-0.097504
 12
0.046801
 22
-0.266281
 32
-0.086232
 13
0.046801
 23
-0.266281
 33
-0.086232
 62
0
  0
3DFACE
  8
NoName1
 10
-0.507690
 20
-0.099786
 30
-0.137543
 11
-0.507956
 21
-0.029484
 31
-0.209968
 12
-0.454631
 22
-0.068617
 32
-0.168613
 13
-0.454631
 23
-0.068617
 33
-0.168613
 62
0
  0
3DFACE
  8
NoName1
 10
0.205502
 20
0.385102
 30
0.182336
 11
0.292191
 21
0.371970
 31
0.195455
 12
0.232499
 22
0.358204
 32
0.258049
 13
0.232499
 23
0.358204
 33
0.258049
 62
0
  0
3DFACE
  8
NoName1
 10
-0.210733
 20
0.197754
 30
-0.054711
 11
-0.157496
 21
0.193987
 31
0.005944
 12
-0.215785
 22
0.160262
 32
0.017463
 13
-0.215785
 23
0.160262
 33
0.017463
 62
0
  0
3DFACE
  8
NoName1
 10
0.122634
 20
-0.284443
 30
0.189545
 11
0.147915
 21
-0.227074
 31
0.150381
 12
0.133964
 22
-0.319553
 32
0.135565
 13
0.133964
 23
-0.319553
 33
0.135565
 62
0
  0
3DFACE
  8
NoName1
 10
0.252767
 20
0.056427
 30
-0.087956
 11
0.186215
 21
0.042705
 31
-0.039304
 12
0.243732
 22
0.155338
 32
-0.094821
 13
0.243732
 23
0.155338
 33
-0.094821
 62
0
  0
3DFACE
  8
NoName1
 10
-0.058258
 20
-0.272818
 30
-0.147288
 11
-0.040860
 21
-0.352538
 31
-0.125416
 12
0.046801
 22
-0.266281
 32
-0.086232
 13
0.046801
 23
-0.266281
 33
-0.086232
 62
0
  0
3DFACE
  8
NoName1
 10
0.066040
 20
-0.342434
 30
0.232725
 11
0.078539
 21
-0.264385
 31
0.259861
 12
0.122634
 22
-0.284443
 32
0.189545
 13
0.122634
 23
-0.284443
 33
0.189545
 62
0
  0
3DFACE
  8
NoName1
 10
-0.195236
 20
0.409263
 30
-0.389384
 11
-0.163037
 21
0.428592
 31
-0.311785
 12
-0.216742
 22
0.408363
 32
-0.322580
 13
-0.216742
 23
0.408363
 33
-0.322580
 62
0
  0
3DFACE
  8
NoName1
 10
-0.444634
 20
-0.012264
 30
-0.261271
 11
-0.454631
 21
-0.068617
 31
-0.168613
 12
-0.507956
 22
-0.029484
 32
-0.209968
 13
-0.507956
 23
-0.029484
 33
-0.209968
 62
0
  0
3DFACE
  8
NoName1
 10
0.078539
 20
-0.264385
 30
0.259861
 11
0.088191
 21
-0.175168
 31
0.275606
 12
0.156833
 22
-0.152920
 32
0.213976
 13
0.156833
 23
-0.152920
 33
0.213976
 62
0
  0
3DFACE
  8
NoName1
 10
0.077900
 20
0.214866
 30
0.101296
 11
0.018327
 21
0.196280
 31
0.190198
 12
-0.044819
 22
0.196681
 32
0.137033
 13
-0.044819
 23
0.196681
 33
0.137033
 62
0
  0
3DFACE
  8
NoName1
 10
0.271814
 20
0.176275
 30
0.387043
 11
0.313226
 21
0.092068
 31
0.374526
 12
0.232863
 22
0.105668
 32
0.397820
 13
0.232863
 23
0.105668
 33
0.397820
 62
0
  0
3DFACE
  8
NoName1
 10
0.187710
 20
0.160532
 30
0.398343
 11
0.271814
 21
0.176275
 31
0.387043
 12
0.232863
 22
0.105668
 32
0.397820
 13
0.232863
 23
0.105668
 33
0.397820
 62
0
  0
3DFACE
  8
NoName1
 10
0.207112
 20
-0.051154
 30
-0.113296
 11
0.220015
 21
-0.042727
 31
-0.071555
 12
0.252767
 22
0.056427
 32
-0.087956
 13
0.252767
 23
0.056427
 33
-0.087956
 62
0
  0
3DFACE
  8
NoName1
 10
0.018327
 20
0.196280
 30
0.190198
 11
-0.062970
 21
0.172310
 31
0.174842
 12
-0.044819
 22
0.196681
 32
0.137033
 13
-0.044819
 23
0.196681
 33
0.137033
 62
0
  0
3DFACE
  8
NoName1
 10
0.066040
 20
-0.342434
 30
0.232725
 11
0.002571
 21
-0.313966
 31
0.294024
 12
0.078539
 22
-0.264385
 32
0.259861
 13
0.078539
 23
-0.264385
 33
0.259861
 62
0
  0
3DFACE
  8
NoName1
 10
0.100464
 20
0.089873
 30
0.368142
 11
0.041336
 21
0.124173
 31
0.345004
 12
0.071748
 22
0.195685
 32
0.386335
 13
0.071748
 23
0.195685
 33
0.386335
 62
0
  0
3DFACE
  8
NoName1
 10
0.232863
 20
0.105668
 30
0.397820
 11
0.234078
 21
0.030335
 31
0.366939
 12
0.173729
 22
0.049373
 32
0.377834
 13
0.173729
 23
0.049373
 33
0.377834
 62
0
  0
3DFACE
  8
NoName1
 10
0.141283
 20
-0.259877
 30
0.096171
 11
0.102246
 21
-0.201760
 31
-0.048465
 12
0.087607
 22
-0.292458
 32
0.017437
 13
0.087607
 23
-0.292458
 33
0.017437
 62
0
  0
3DFACE
  8
NoName1
 10
0.356843
 20
0.236454
 30
0.188190
 11
0.332066
 21
0.255483
 31
0.105175
 12
0.334608
 22
0.171323
 32
0.151958
 13
0.334608
 23
0.171323
 33
0.151958
 62
0
  0
3DFACE
  8
NoName1
 10
0.305935
 20
0.260868
 30
-0.258821
 11
0.381601
 21
0.266915
 31
-0.260611
 12
0.313407
 22
0.244471
 32
-0.173285
 13
0.313407
 23
0.244471
 33
-0.173285
 62
0
  0
3DFACE
  8
NoName1
 10
0.186215
 20
0.042705
 30
-0.039304
 11
0.252767
 21
0.056427
 31
-0.087956
 12
0.220015
 22
-0.042727
 32
-0.071555
 13
0.220015
 23
-0.042727
 33
-0.071555
 62
0
  0
3DFACE
  8
NoName1
 10
0.116072
 20
0.324142
 30
0.222987
 11
0.091099
 21
0.293537
 31
0.321989
 12
0.038786
 22
0.258441
 32
0.298978
 13
0.038786
 23
0.258441
 33
0.298978
 62
0
  0
3DFACE
  8
NoName1
 10
0.087607
 20
-0.292458
 30
0.017437
 11
0.133964
 21
-0.319553
 31
0.135565
 12
0.141283
 22
-0.259877
 32
0.096171
 13
0.141283
 23
-0.259877
 33
0.096171
 62
0
  0
3DFACE
  8
NoName1
 10
0.334608
 20
0.171323
 30
0.151958
 11
0.360354
 21
0.163572
 31
0.193158
 12
0.356843
 22
0.236454
 32
0.188190
 13
0.356843
 23
0.236454
 33
0.188190
 62
0
  0
3DFACE
  8
NoName1
 10
0.205502
 20
0.385102
 30
0.182336
 11
0.116072
 21
0.324142
 31
0.222987
 12
0.152612
 22
0.353846
 32
0.133392
 13
0.152612
 23
0.353846
 33
0.133392
 62
0
  0
3DFACE
  8
NoName1
 10
0.313407
 20
0.244471
 30
-0.173285
 11
0.260130
 21
0.236451
 31
-0.190549
 12
0.305935
 22
0.260868
 32
-0.258821
 13
0.305935
 23
0.260868
 33
-0.258821
 62
0
  0
3DFACE
  8
NoName1
 10
0.059207
 20
0.326255
 30
0.258504
 11
0.076026
 21
0.340076
 31
0.302145
 12
-0.003006
 22
0.306558
 32
0.278111
 13
-0.003006
 23
0.306558
 33
0.278111
 62
0
  0
3DFACE
  8
NoName1
 10
-0.157496
 20
0.193987
 30
0.005944
 11
-0.095882
 21
0.203819
 31
-0.016886
 12
-0.150025
 22
0.168970
 32
0.083387
 13
-0.150025
 23
0.168970
 33
0.083387
 62
0
  0
3DFACE
  8
NoName1
 10
-0.413531
 20
-0.451406
 30
0.218289
 11
-0.484046
 21
-0.376840
 31
0.138587
 12
-0.395211
 22
-0.347476
 32
0.217676
 13
-0.395211
 23
-0.347476
 33
0.217676
 62
0
  0
3DFACE
  8
NoName1
 10
0.076026
 20
0.340076
 30
0.302145
 11
0.003631
 21
0.298429
 31
0.319640
 12
-0.003006
 22
0.306558
 32
0.278111
 13
-0.003006
 23
0.306558
 33
0.278111
 62
0
  0
3DFACE
  8
NoName1
 10
0.041336
 20
0.124173
 30
0.345004
 11
-0.015539
 21
0.056564
 31
0.314281
 12
0.001491
 22
0.165615
 32
0.285255
 13
0.001491
 23
0.165615
 33
0.285255
 62
0
  0
3DFACE
  8
NoName1
 10
0.217273
 20
0.017368
 30
0.072686
 11
0.199367
 21
-0.023016
 31
0.008623
 12
0.206654
 22
-0.077981
 32
0.053144
 13
0.206654
 23
-0.077981
 33
0.053144
 62
0
  0
3DFACE
  8
NoName1
 10
0.181587
 20
-0.024348
 30
0.275104
 11
0.139514
 21
-0.097580
 31
0.261705
 12
0.119077
 22
-0.041505
 32
0.320031
 13
0.119077
 23
-0.041505
 33
0.320031
 62
0
  0
3DFACE
  8
NoName1
 10
-0.113243
 20
0.409514
 30
-0.362998
 11
-0.152449
 21
0.409267
 31
-0.402914
 12
-0.112926
 22
0.364749
 32
-0.416057
 13
-0.112926
 23
0.364749
 33
-0.416057
 62
0
  0
3DFACE
  8
NoName1
 10
0.001834
 20
0.211718
 30
0.370293
 11
0.053284
 21
0.293936
 31
0.359573
 12
0.053390
 22
0.220724
 32
0.399328
 13
0.053390
 23
0.220724
 33
0.399328
 62
0
  0
3DFACE
  8
NoName1
 10
-0.077167
 20
0.369156
 30
-0.271124
 11
-0.095660
 21
0.394903
 31
-0.293944
 12
-0.113243
 22
0.409514
 32
-0.362998
 13
-0.113243
 23
0.409514
 33
-0.362998
 62
0
  0
3DFACE
  8
NoName1
 10
-0.385730
 20
-0.564650
 30
0.193497
 11
-0.413531
 21
-0.451406
 31
0.218289
 12
-0.340408
 22
-0.482058
 32
0.261623
 13
-0.340408
 23
-0.482058
 33
0.261623
 62
0
  0
3DFACE
  8
NoName1
 10
0.179444
 20
0.065658
 30
0.007927
 11
0.199367
 21
-0.023016
 31
0.008623
 12
0.217273
 22
0.017368
 32
0.072686
 13
0.217273
 23
0.017368
 33
0.072686
 62
0
  0
3DFACE
  8
NoName1
 10
-0.136237
 20
0.323748
 30
-0.151626
 11
-0.187273
 21
0.280463
 31
-0.104688
 12
-0.218392
 22
0.314182
 32
-0.146190
 13
-0.218392
 23
0.314182
 33
-0.146190
 62
0
  0
3DFACE
  8
NoName1
 10
0.292191
 20
0.371970
 30
0.195455
 11
0.331373
 21
0.316497
 31
0.129449
 12
0.344348
 22
0.300595
 32
0.204117
 13
0.344348
 23
0.300595
 33
0.204117
 62
0
  0
3DFACE
  8
NoName1
 10
0.152612
 20
0.353846
 30
0.133392
 11
0.251095
 21
0.390878
 31
0.135547
 12
0.205502
 22
0.385102
 32
0.182336
 13
0.205502
 23
0.385102
 33
0.182336
 62
0
  0
3DFACE
  8
NoName1
 10
-0.218392
 20
0.314182
 30
-0.146190
 11
-0.260984
 21
0.227975
 31
-0.119000
 12
-0.241197
 22
0.361081
 32
-0.220003
 13
-0.241197
 23
0.361081
 33
-0.220003
 62
0
  0
3DFACE
  8
NoName1
 10
0.313226
 20
0.092068
 30
0.374526
 11
0.339921
 21
0.212275
 31
0.350489
 12
0.359123
 22
0.121168
 32
0.372313
 13
0.359123
 23
0.121168
 33
0.372313
 62
0
  0
3DFACE
  8
NoName1
 10
-0.095882
 20
0.203819
 30
-0.016886
 11
-0.014153
 21
0.183944
 31
-0.052460
 12
-0.056696
 22
0.204467
 32
0.047848
 13
-0.056696
 23
0.204467
 33
0.047848
 62
0
  0
3DFACE
  8
NoName1
 10
0.102246
 20
-0.201760
 30
-0.048465
 11
0.046801
 21
-0.266281
 31
-0.086232
 12
0.087607
 22
-0.292458
 32
0.017437
 13
0.087607
 23
-0.292458
 33
0.017437
 62
0
  0
3DFACE
  8
NoName1
 10
0.399971
 20
0.205508
 30
0.259385
 11
0.411719
 21
0.175280
 31
0.311350
 12
0.382873
 22
0.199503
 32
0.298735
 13
0.382873
 23
0.199503
 33
0.298735
 62
0
  0
3DFACE
  8
NoName1
 10
0.081660
 20
-0.394918
 30
0.178894
 11
0.026772
 21
-0.411525
 31
0.249398
 12
0.066040
 22
-0.342434
 32
0.232725
 13
0.066040
 23
-0.342434
 33
0.232725
 62
0
  0
3DFACE
  8
NoName1
 10
-0.390409
 20
-0.169115
 30
-0.005546
 11
-0.442888
 21
-0.231304
 31
0.039647
 12
-0.471044
 22
-0.247640
 32
0.004199
 13
-0.471044
 23
-0.247640
 33
0.004199
 62
0
  0
3DFACE
  8
NoName1
 10
0.301664
 20
0.358712
 30
0.111166
 11
0.331373
 21
0.316497
 31
0.129449
 12
0.292191
 22
0.371970
 32
0.195455
 13
0.292191
 23
0.371970
 33
0.195455
 62
0
  0
3DFACE
  8
NoName1
 10
-0.506973
 20
-0.312376
 30
0.058281
 11
-0.448057
 21
-0.241856
 31
0.107827
 12
-0.484046
 22
-0.376840
 32
0.138587
 13
-0.484046
 23
-0.376840
 33
0.138587
 62
0
  0
3DFACE
  8
NoName1
 10
-0.095882
 20
0.203819
 30
-0.016886
 11
-0.056696
 21
0.204467
 31
0.047848
 12
-0.150025
 22
0.168970
 32
0.083387
 13
-0.150025
 23
0.168970
 33
0.083387
 62
0
  0
3DFACE
  8
NoName1
 10
-0.117921
 20
0.199368
 30
-0.218297
 11
-0.104513
 21
0.226180
 31
-0.170768
 12
-0.083078
 22
0.266883
 32
-0.298590
 13
-0.083078
 23
0.266883
 33
-0.298590
 62
0
  0
3DFACE
  8
NoName1
 10
-0.448057
 20
-0.241856
 30
0.107827
 11
-0.506973
 21
-0.312376
 31
0.058281
 12
-0.448782
 22
-0.223225
 32
0.070403
 13
-0.448782
 23
-0.223225
 33
0.070403
 62
0
  0
3DFACE
  8
NoName1
 10
0.205502
 20
0.385102
 30
0.182336
 11
0.232499
 21
0.358204
 31
0.258049
 12
0.162594
 22
0.343379
 32
0.251298
 13
0.162594
 23
0.343379
 33
0.251298
 62
0
  0
3DFACE
  8
NoName1
 10
0.205502
 20
0.385102
 30
0.182336
 11
0.251095
 21
0.390878
 31
0.135547
 12
0.292191
 22
0.371970
 32
0.195455
 13
0.292191
 23
0.371970
 33
0.195455
 62
0
  0
3DFACE
  8
NoName1
 10
-0.193720
 20
-0.134833
 30
0.270077
 11
-0.138118
 21
-0.064763
 31
0.269466
 12
-0.077305
 22
-0.052049
 32
0.299341
 13
-0.077305
 23
-0.052049
 33
0.299341
 62
0
  0
3DFACE
  8
NoName1
 10
-0.244157
 20
0.363353
 30
-0.312263
 11
-0.216742
 21
0.408363
 31
-0.322580
 12
-0.241197
 22
0.361081
 32
-0.220003
 13
-0.241197
 23
0.361081
 33
-0.220003
 62
0
  0
3DFACE
  8
NoName1
 10
-0.265320
 20
0.283149
 30
-0.223038
 11
-0.244157
 21
0.363353
 31
-0.312263
 12
-0.241197
 22
0.361081
 32
-0.220003
 13
-0.241197
 23
0.361081
 33
-0.220003
 62
0
  0
3DFACE
  8
NoName1
 10
0.372058
 20
0.229627
 30
-0.340672
 11
0.382407
 21
0.171302
 31
-0.351833
 12
0.419745
 22
0.200644
 32
-0.311978
 13
0.419745
 23
0.200644
 33
-0.311978
 62
0
  0
3DFACE
  8
NoName1
 10
0.220015
 20
-0.042727
 30
-0.071555
 11
0.192443
 21
-0.079569
 31
-0.012965
 12
0.186215
 22
0.042705
 32
-0.039304
 13
0.186215
 23
0.042705
 33
-0.039304
 62
0
  0
3DFACE
  8
NoName1
 10
-0.110075
 20
-0.672868
 30
0.081064
 11
-0.076421
 21
-0.628930
 31
0.141568
 12
-0.037838
 22
-0.642970
 32
0.034760
 13
-0.037838
 23
-0.642970
 33
0.034760
 62
0
  0
3DFACE
  8
NoName1
 10
0.021992
 20
0.198658
 30
0.324933
 11
0.071748
 21
0.195685
 31
0.386335
 12
0.041336
 22
0.124173
 32
0.345004
 13
0.041336
 23
0.124173
 33
0.345004
 62
0
  0
3DFACE
  8
NoName1
 10
-0.187273
 20
0.280463
 30
-0.104688
 11
-0.138846
 21
0.239457
 31
-0.100060
 12
-0.210733
 22
0.197754
 32
-0.054711
 13
-0.210733
 23
0.197754
 33
-0.054711
 62
0
  0
3DFACE
  8
NoName1
 10
-0.125312
 20
-0.090547
 30
-0.163484
 11
-0.059172
 21
0.000099
 31
-0.140883
 12
-0.196727
 22
-0.054527
 32
-0.151348
 13
-0.196727
 23
-0.054527
 33
-0.151348
 62
0
  0
3DFACE
  8
NoName1
 10
0.066609
 20
-0.440818
 30
0.123998
 11
0.081660
 21
-0.394918
 31
0.178894
 12
0.098668
 22
-0.377991
 32
0.116032
 13
0.098668
 23
-0.377991
 33
0.116032
 62
0
  0
3DFACE
  8
NoName1
 10
0.001491
 20
0.165615
 30
0.285255
 11
-0.015539
 21
0.056564
 31
0.314281
 12
-0.045791
 22
0.108795
 32
0.268049
 13
-0.045791
 23
0.108795
 33
0.268049
 62
0
  0
3DFACE
  8
NoName1
 10
-0.010781
 20
-0.392999
 30
-0.157885
 11
0.014074
 21
-0.382369
 31
-0.097504
 12
-0.068098
 22
-0.407241
 32
-0.147276
 13
-0.068098
 23
-0.407241
 33
-0.147276
 62
0
  0
3DFACE
  8
NoName1
 10
-0.058258
 20
-0.272818
 30
-0.147288
 11
0.024433
 21
-0.179956
 31
-0.128637
 12
-0.078609
 22
-0.198686
 32
-0.166126
 13
-0.078609
 23
-0.198686
 33
-0.166126
 62
0
  0
3DFACE
  8
NoName1
 10
0.066609
 20
-0.440818
 30
0.123998
 11
0.010854
 21
-0.490993
 31
0.200754
 12
0.081660
 22
-0.394918
 32
0.178894
 13
0.081660
 23
-0.394918
 33
0.178894
 62
0
  0
3DFACE
  8
NoName1
 10
0.102246
 20
-0.201760
 30
-0.048465
 11
0.024433
 21
-0.179956
 31
-0.128637
 12
0.046801
 22
-0.266281
 32
-0.086232
 13
0.046801
 23
-0.266281
 33
-0.086232
 62
0
  0
3DFACE
  8
NoName1
 10
0.254099
 20
0.008487
 30
0.304845
 11
0.305282
 21
0.038142
 31
0.356705
 12
0.336007
 22
0.042815
 32
0.302227
 13
0.336007
 23
0.042815
 33
0.302227
 62
0
  0
3DFACE
  8
NoName1
 10
0.024433
 20
-0.179956
 30
-0.128637
 11
-0.058258
 21
-0.272818
 31
-0.147288
 12
0.046801
 22
-0.266281
 32
-0.086232
 13
0.046801
 23
-0.266281
 33
-0.086232
 62
0
  0
3DFACE
  8
NoName1
 10
0.014074
 20
-0.382369
 30
-0.097504
 11
0.057087
 21
-0.389860
 31
-0.048471
 12
0.046801
 22
-0.266281
 32
-0.086232
 13
0.046801
 23
-0.266281
 33
-0.086232
 62
0
  0
3DFACE
  8
NoName1
 10
0.046801
 20
-0.266281
 30
-0.086232
 11
0.081632
 21
-0.375003
 31
0.021990
 12
0.087607
 22
-0.292458
 32
0.017437
 13
0.087607
 23
-0.292458
 33
0.017437
 62
0
  0
3DFACE
  8
NoName1
 10
0.014074
 20
-0.382369
 30
-0.097504
 11
-0.040860
 21
-0.352538
 31
-0.125416
 12
-0.068098
 22
-0.407241
 32
-0.147276
 13
-0.068098
 23
-0.407241
 33
-0.147276
 62
0
  0
3DFACE
  8
NoName1
 10
0.139514
 20
-0.097580
 30
0.261705
 11
0.181587
 21
-0.024348
 31
0.275104
 12
0.180863
 22
-0.053920
 32
0.232853
 13
0.180863
 23
-0.053920
 33
0.232853
 62
0
  0
3DFACE
  8
NoName1
 10
0.088191
 20
-0.175168
 30
0.275606
 11
0.139514
 21
-0.097580
 31
0.261705
 12
0.156833
 22
-0.152920
 32
0.213976
 13
0.156833
 23
-0.152920
 33
0.213976
 62
0
  0
3DFACE
  8
NoName1
 10
0.071748
 20
0.195685
 30
0.386335
 11
0.053390
 21
0.220724
 31
0.399328
 12
0.127038
 22
0.242153
 32
0.386183
 13
0.127038
 23
0.242153
 33
0.386183
 62
0
  0
3DFACE
  8
NoName1
 10
-0.484107
 20
-0.023590
 30
-0.328176
 11
-0.443928
 21
-0.033335
 31
-0.331901
 12
-0.444634
 22
-0.012264
 32
-0.261271
 13
-0.444634
 23
-0.012264
 33
-0.261271
 62
0
  0
3DFACE
  8
NoName1
 10
-0.484107
 20
-0.023590
 30
-0.328176
 11
-0.444634
 21
-0.012264
 31
-0.261271
 12
-0.532662
 22
-0.017585
 32
-0.258087
 13
-0.532662
 23
-0.017585
 33
-0.258087
 62
0
  0
3DFACE
  8
NoName1
 10
0.305935
 20
0.260868
 30
-0.258821
 11
0.260130
 21
0.236451
 31
-0.190549
 12
0.229279
 22
0.194311
 32
-0.257295
 13
0.229279
 23
0.194311
 33
-0.257295
 62
0
  0
3DFACE
  8
NoName1
 10
0.181587
 20
-0.024348
 30
0.275104
 11
0.309818
 21
0.061837
 31
0.220646
 12
0.217971
 22
0.025659
 32
0.185880
 13
0.217971
 23
0.025659
 33
0.185880
 62
0
  0
3DFACE
  8
NoName1
 10
-0.166148
 20
-0.654824
 30
0.158791
 11
-0.076421
 21
-0.628930
 31
0.141568
 12
-0.110075
 22
-0.672868
 32
0.081064
 13
-0.110075
 23
-0.672868
 33
0.081064
 62
0
  0
3DFACE
  8
NoName1
 10
0.313407
 20
0.244471
 30
-0.173285
 11
0.243732
 21
0.155338
 31
-0.094821
 12
0.238695
 22
0.195571
 32
-0.136804
 13
0.238695
 23
0.195571
 33
-0.136804
 62
0
  0
3DFACE
  8
NoName1
 10
0.136001
 20
0.113824
 30
-0.165818
 11
0.229279
 21
0.194311
 31
-0.257295
 12
0.260130
 22
0.236451
 32
-0.190549
 13
0.260130
 23
0.236451
 33
-0.190549
 62
0
  0
3DFACE
  8
NoName1
 10
0.116731
 20
0.101836
 30
-0.093138
 11
0.099169
 21
0.130932
 31
-0.062903
 12
-0.017770
 22
0.131137
 32
-0.094893
 13
-0.017770
 23
0.131137
 33
-0.094893
 62
0
  0
3DFACE
  8
NoName1
 10
0.092744
 20
0.016175
 30
0.359295
 11
0.100464
 21
0.089873
 31
0.368142
 12
0.173729
 22
0.049373
 32
0.377834
 13
0.173729
 23
0.049373
 33
0.377834
 62
0
  0
3DFACE
  8
NoName1
 10
0.378951
 20
0.060060
 30
0.308369
 11
0.412435
 21
0.126298
 31
0.315279
 12
0.412225
 22
0.066376
 32
0.283745
 13
0.412225
 23
0.066376
 33
0.283745
 62
0
  0
3DFACE
  8
NoName1
 10
0.409264
 20
0.162259
 30
0.209640
 11
0.427813
 21
0.115378
 31
0.238593
 12
0.399971
 22
0.205508
 32
0.259385
 13
0.399971
 23
0.205508
 33
0.259385
 62
0
  0
3DFACE
  8
NoName1
 10
0.355915
 20
0.063434
 30
0.365662
 11
0.378951
 21
0.060060
 31
0.308369
 12
0.336007
 22
0.042815
 32
0.302227
 13
0.336007
 23
0.042815
 33
0.302227
 62
0
  0
3DFACE
  8
NoName1
 10
-0.091697
 20
0.304606
 30
-0.379776
 11
-0.117768
 21
0.239598
 31
-0.354310
 12
-0.083078
 22
0.266883
 32
-0.298590
 13
-0.083078
 23
0.266883
 33
-0.298590
 62
0
  0
3DFACE
  8
NoName1
 10
0.284759
 20
0.140855
 30
-0.320865
 11
0.229279
 21
0.194311
 31
-0.257295
 12
0.209376
 22
0.128436
 32
-0.256768
 13
0.209376
 23
0.128436
 33
-0.256768
 62
0
  0
3DFACE
  8
NoName1
 10
-0.443928
 20
-0.033335
 30
-0.331901
 11
-0.397786
 21
-0.073494
 31
-0.275041
 12
-0.444634
 22
-0.012264
 32
-0.261271
 13
-0.444634
 23
-0.012264
 33
-0.261271
 62
0
  0
3DFACE
  8
NoName1
 10
-0.279811
 20
0.095892
 30
-0.021281
 11
-0.210733
 21
0.197754
 31
-0.054711
 12
-0.215785
 22
0.160262
 32
0.017463
 13
-0.215785
 23
0.160262
 33
0.017463
 62
0
  0
3DFACE
  8
NoName1
 10
0.092744
 20
0.016175
 30
0.359295
 11
0.119077
 21
-0.041505
 31
0.320031
 12
0.023861
 22
-0.032201
 32
0.326006
 13
0.023861
 23
-0.032201
 33
0.326006
 62
0
  0
3DFACE
  8
NoName1
 10
-0.059172
 20
0.000099
 30
-0.140883
 11
-0.046168
 21
0.068001
 31
-0.134958
 12
-0.130594
 22
0.001865
 32
-0.159287
 13
-0.130594
 23
0.001865
 33
-0.159287
 62
0
  0
3DFACE
  8
NoName1
 10
0.305282
 20
0.038142
 30
0.356705
 11
0.355915
 21
0.063434
 31
0.365662
 12
0.336007
 22
0.042815
 32
0.302227
 13
0.336007
 23
0.042815
 33
0.302227
 62
0
  0
3DFACE
  8
NoName1
 10
-0.130594
 20
0.001865
 30
-0.159287
 11
-0.046168
 21
0.068001
 31
-0.134958
 12
-0.144789
 22
0.049953
 32
-0.168611
 13
-0.144789
 23
0.049953
 33
-0.168611
 62
0
  0
3DFACE
  8
NoName1
 10
-0.340408
 20
-0.482058
 30
0.261623
 11
-0.395211
 21
-0.347476
 31
0.217676
 12
-0.300190
 22
-0.413738
 32
0.286065
 13
-0.300190
 23
-0.413738
 33
0.286065
 62
0
  0
3DFACE
  8
NoName1
 10
-0.083078
 20
0.266883
 30
-0.298590
 11
-0.117768
 21
0.239598
 31
-0.354310
 12
-0.164772
 22
0.194110
 32
-0.288589
 13
-0.164772
 23
0.194110
 33
-0.288589
 62
0
  0
3DFACE
  8
NoName1
 10
-0.118350
 20
0.190516
 30
-0.083415
 11
-0.138846
 21
0.239457
 31
-0.100060
 12
-0.104513
 22
0.226180
 32
-0.170768
 13
-0.104513
 23
0.226180
 33
-0.170768
 62
0
  0
3DFACE
  8
NoName1
 10
0.229279
 20
0.194311
 30
-0.257295
 11
0.284759
 21
0.140855
 31
-0.320865
 12
0.317979
 22
0.199405
 32
-0.339657
 13
0.317979
 23
0.199405
 33
-0.339657
 62
0
  0
3DFACE
  8
NoName1
 10
0.140880
 20
0.144564
 30
-0.020103
 11
0.186215
 21
0.042705
 31
-0.039304
 12
0.179444
 22
0.065658
 32
0.007927
 13
0.179444
 23
0.065658
 33
0.007927
 62
0
  0
3DFACE
  8
NoName1
 10
-0.091697
 20
0.304606
 30
-0.379776
 11
-0.083078
 21
0.266883
 31
-0.298590
 12
-0.065249
 22
0.337006
 32
-0.327838
 13
-0.065249
 23
0.337006
 33
-0.327838
 62
0
  0
3DFACE
  8
NoName1
 10
0.419745
 20
0.200644
 30
-0.311978
 11
0.382407
 21
0.171302
 31
-0.351833
 12
0.410188
 22
0.133820
 32
-0.303697
 13
0.410188
 23
0.133820
 33
-0.303697
 62
0
  0
3DFACE
  8
NoName1
 10
0.411458
 20
0.085498
 30
0.188984
 11
0.427813
 21
0.115378
 31
0.238593
 12
0.409264
 22
0.162259
 32
0.209640
 13
0.409264
 23
0.162259
 33
0.209640
 62
0
  0
3DFACE
  8
NoName1
 10
0.175885
 20
0.112934
 30
0.041957
 11
0.091802
 21
0.175883
 31
0.009391
 12
0.140880
 22
0.144564
 32
-0.020103
 13
0.140880
 23
0.144564
 33
-0.020103
 62
0
  0
3DFACE
  8
NoName1
 10
-0.178163
 20
0.158381
 30
-0.228640
 11
-0.117921
 21
0.199368
 31
-0.218297
 12
-0.164772
 22
0.194110
 32
-0.288589
 13
-0.164772
 23
0.194110
 33
-0.288589
 62
0
  0
3DFACE
  8
NoName1
 10
0.018327
 20
0.196280
 30
0.190198
 11
-0.045791
 21
0.108795
 31
0.268049
 12
-0.096244
 22
0.094304
 32
0.222203
 13
-0.096244
 23
0.094304
 33
0.222203
 62
0
  0
3DFACE
  8
NoName1
 10
0.340068
 20
0.124808
 30
0.185402
 11
0.334608
 21
0.171323
 31
0.151958
 12
0.265863
 22
0.088635
 32
0.162324
 13
0.265863
 23
0.088635
 33
0.162324
 62
0
  0
3DFACE
  8
NoName1
 10
0.399971
 20
0.205508
 30
0.259385
 11
0.379493
 21
0.194678
 31
0.208246
 12
0.409264
 22
0.162259
 32
0.209640
 13
0.409264
 23
0.162259
 33
0.209640
 62
0
  0
3DFACE
  8
NoName1
 10
-0.117921
 20
0.199368
 30
-0.218297
 11
-0.158685
 21
0.136753
 31
-0.178762
 12
-0.104513
 22
0.226180
 32
-0.170768
 13
-0.104513
 23
0.226180
 33
-0.170768
 62
0
  0
3DFACE
  8
NoName1
 10
-0.164772
 20
0.194110
 30
-0.288589
 11
-0.117921
 21
0.199368
 31
-0.218297
 12
-0.083078
 22
0.266883
 32
-0.298590
 13
-0.083078
 23
0.266883
 33
-0.298590
 62
0
  0
3DFACE
  8
NoName1
 10
-0.058258
 20
-0.272818
 30
-0.147288
 11
-0.148880
 21
-0.192778
 31
-0.169833
 12
-0.142426
 22
-0.348386
 32
-0.159754
 13
-0.142426
 23
-0.348386
 33
-0.159754
 62
0
  0
3DFACE
  8
NoName1
 10
0.151515
 20
-0.247232
 30
-0.327558
 11
0.154270
 21
-0.259834
 31
-0.265287
 12
0.098466
 22
-0.251939
 32
-0.285519
 13
0.098466
 23
-0.251939
 33
-0.285519
 62
0
  0
3DFACE
  8
NoName1
 10
0.331373
 20
0.316497
 30
0.129449
 11
0.301664
 21
0.358712
 31
0.111166
 12
0.332066
 22
0.255483
 32
0.105175
 13
0.332066
 23
0.255483
 33
0.105175
 62
0
  0
3DFACE
  8
NoName1
 10
0.274803
 20
0.289697
 30
0.067245
 11
0.227846
 21
0.372813
 31
0.089048
 12
0.219107
 22
0.311044
 32
0.064003
 13
0.219107
 23
0.311044
 33
0.064003
 62
0
  0
3DFACE
  8
NoName1
 10
0.217273
 20
0.017368
 30
0.072686
 11
0.217775
 21
-0.042796
 31
0.134671
 12
0.214336
 22
0.058544
 32
0.117604
 13
0.214336
 23
0.058544
 33
0.117604
 62
0
  0
3DFACE
  8
NoName1
 10
0.132694
 20
0.276016
 30
0.102472
 11
0.195228
 21
0.259305
 31
0.061836
 12
0.180720
 22
0.339526
 32
0.087875
 13
0.180720
 23
0.339526
 33
0.087875
 62
0
  0
3DFACE
  8
NoName1
 10
-0.338788
 20
-0.181610
 30
-0.100538
 11
-0.386604
 21
-0.126852
 31
0.042715
 12
-0.390409
 22
-0.169115
 32
-0.005546
 13
-0.390409
 23
-0.169115
 33
-0.005546
 62
0
  0
3DFACE
  8
NoName1
 10
0.387139
 20
0.143581
 30
0.183229
 11
0.411458
 21
0.085498
 31
0.188984
 12
0.409264
 22
0.162259
 32
0.209640
 13
0.409264
 23
0.162259
 33
0.209640
 62
0
  0
3DFACE
  8
NoName1
 10
-0.402097
 20
-0.586833
 30
0.094555
 11
-0.385730
 21
-0.564650
 31
0.193497
 12
-0.318858
 22
-0.632455
 32
0.165206
 13
-0.318858
 23
-0.632455
 33
0.165206
 62
0
  0
3DFACE
  8
NoName1
 10
-0.304347
 20
-0.031950
 30
0.142579
 11
-0.326101
 21
0.014730
 31
0.042303
 12
-0.283759
 22
0.035991
 32
0.119376
 13
-0.283759
 23
0.035991
 33
0.119376
 62
0
  0
3DFACE
  8
NoName1
 10
-0.391642
 20
-0.220079
 30
-0.161456
 11
-0.408972
 21
-0.220249
 31
-0.070614
 12
-0.410701
 22
-0.179970
 32
-0.109726
 13
-0.410701
 23
-0.179970
 33
-0.109726
 62
0
  0
3DFACE
  8
NoName1
 10
0.046801
 20
-0.266281
 30
-0.086232
 11
0.057087
 21
-0.389860
 31
-0.048471
 12
0.081632
 22
-0.375003
 32
0.021990
 13
0.081632
 23
-0.375003
 33
0.021990
 62
0
  0
3DFACE
  8
NoName1
 10
-0.058258
 20
-0.272818
 30
-0.147288
 11
-0.142426
 21
-0.348386
 31
-0.159754
 12
-0.040860
 22
-0.352538
 32
-0.125416
 13
-0.040860
 23
-0.352538
 33
-0.125416
 62
0
  0
3DFACE
  8
NoName1
 10
0.133964
 20
-0.319553
 30
0.135565
 11
0.087607
 21
-0.292458
 31
0.017437
 12
0.098668
 22
-0.377991
 32
0.116032
 13
0.098668
 23
-0.377991
 33
0.116032
 62
0
  0
3DFACE
  8
NoName1
 10
0.317553
 20
0.314067
 30
0.251505
 11
0.306696
 21
0.275847
 31
0.325294
 12
0.258453
 22
0.314065
 32
0.304732
 13
0.258453
 23
0.314065
 33
0.304732
 62
0
  0
3DFACE
  8
NoName1
 10
-0.385730
 20
-0.564650
 30
0.193497
 11
-0.295044
 21
-0.600177
 31
0.232759
 12
-0.318858
 22
-0.632455
 32
0.165206
 13
-0.318858
 23
-0.632455
 33
0.165206
 62
0
  0
3DFACE
  8
NoName1
 10
0.180720
 20
0.339526
 30
0.087875
 11
0.195228
 21
0.259305
 31
0.061836
 12
0.219107
 22
0.311044
 32
0.064003
 13
0.219107
 23
0.311044
 33
0.064003
 62
0
  0
3DFACE
  8
NoName1
 10
0.411458
 20
0.085498
 30
0.188984
 11
0.412225
 21
0.066376
 31
0.283745
 12
0.427813
 22
0.115378
 32
0.238593
 13
0.427813
 23
0.115378
 33
0.238593
 62
0
  0
3DFACE
  8
NoName1
 10
0.133964
 20
-0.319553
 30
0.135565
 11
0.098668
 21
-0.377991
 31
0.116032
 12
0.081660
 22
-0.394918
 32
0.178894
 13
0.081660
 23
-0.394918
 33
0.178894
 62
0
  0
3DFACE
  8
NoName1
 10
0.306696
 20
0.275847
 30
0.325294
 11
0.217910
 21
0.250769
 31
0.369810
 12
0.258453
 22
0.314065
 32
0.304732
 13
0.258453
 23
0.314065
 33
0.304732
 62
0
  0
3DFACE
  8
NoName1
 10
0.003631
 20
0.298429
 30
0.319640
 11
0.076026
 21
0.340076
 31
0.302145
 12
0.053284
 22
0.293936
 32
0.359573
 13
0.053284
 23
0.293936
 33
0.359573
 62
0
  0
3DFACE
  8
NoName1
 10
0.378951
 20
0.060060
 30
0.308369
 11
0.355915
 21
0.063434
 31
0.365662
 12
0.412435
 22
0.126298
 32
0.315279
 13
0.412435
 23
0.126298
 33
0.315279
 62
0
  0
3DFACE
  8
NoName1
 10
0.227846
 20
0.372813
 30
0.089048
 11
0.180720
 21
0.339526
 31
0.087875
 12
0.219107
 22
0.311044
 32
0.064003
 13
0.219107
 23
0.311044
 33
0.064003
 62
0
  0
3DFACE
  8
NoName1
 10
0.001401
 20
-0.601915
 30
-0.073219
 11
0.020705
 21
-0.589598
 31
0.017811
 12
0.049407
 22
-0.558785
 32
-0.042544
 13
0.049407
 23
-0.558785
 33
-0.042544
 62
0
  0
3DFACE
  8
NoName1
 10
-0.152449
 20
0.409267
 30
-0.402914
 11
-0.195236
 21
0.409263
 31
-0.389384
 12
-0.170139
 22
0.365934
 32
-0.435920
 13
-0.170139
 23
0.365934
 33
-0.435920
 62
0
  0
3DFACE
  8
NoName1
 10
-0.015539
 20
0.056564
 30
0.314281
 11
-0.065024
 21
0.044655
 31
0.289288
 12
-0.045791
 22
0.108795
 32
0.268049
 13
-0.045791
 23
0.108795
 33
0.268049
 62
0
  0
3DFACE
  8
NoName1
 10
0.167561
 20
-0.161011
 30
-0.006005
 11
0.170481
 21
-0.103366
 31
-0.115550
 12
0.102246
 22
-0.201760
 32
-0.048465
 13
0.102246
 23
-0.201760
 33
-0.048465
 62
0
  0
3DFACE
  8
NoName1
 10
0.167561
 20
-0.161011
 30
-0.006005
 11
0.102246
 21
-0.201760
 31
-0.048465
 12
0.141283
 22
-0.259877
 32
0.096171
 13
0.141283
 23
-0.259877
 33
0.096171
 62
0
  0
3DFACE
  8
NoName1
 10
0.170802
 20
0.117968
 30
-0.090542
 11
0.116731
 21
0.101836
 31
-0.093138
 12
0.069036
 22
0.081139
 32
-0.125057
 13
0.069036
 23
0.081139
 33
-0.125057
 62
0
  0
3DFACE
  8
NoName1
 10
-0.506973
 20
-0.312376
 30
0.058281
 11
-0.471044
 21
-0.247640
 31
0.004199
 12
-0.442888
 22
-0.231304
 32
0.039647
 13
-0.442888
 23
-0.231304
 33
0.039647
 62
0
  0
3DFACE
  8
NoName1
 10
0.419745
 20
0.200644
 30
-0.311978
 11
0.410188
 21
0.133820
 31
-0.303697
 12
0.422519
 22
0.204712
 32
-0.261627
 13
0.422519
 23
0.204712
 33
-0.261627
 62
0
  0
3DFACE
  8
NoName1
 10
0.210881
 20
-0.029077
 30
-0.180963
 11
0.254984
 21
0.014951
 31
-0.140483
 12
0.328009
 22
0.063362
 32
-0.247661
 13
0.328009
 23
0.063362
 33
-0.247661
 62
0
  0
3DFACE
  8
NoName1
 10
0.379983
 20
0.262793
 30
-0.303841
 11
0.419745
 21
0.200644
 31
-0.311978
 12
0.422519
 22
0.204712
 32
-0.261627
 13
0.422519
 23
0.204712
 33
-0.261627
 62
0
  0
3DFACE
  8
NoName1
 10
0.265863
 20
0.088635
 30
0.162324
 11
0.217971
 21
0.025659
 31
0.185880
 12
0.309818
 22
0.061837
 32
0.220646
 13
0.309818
 23
0.061837
 33
0.220646
 62
0
  0
3DFACE
  8
NoName1
 10
0.111624
 20
0.311349
 30
0.356017
 11
0.053284
 21
0.293936
 31
0.359573
 12
0.076026
 22
0.340076
 32
0.302145
 13
0.076026
 23
0.340076
 33
0.302145
 62
0
  0
3DFACE
  8
NoName1
 10
0.254984
 20
0.014951
 30
-0.140483
 11
0.210881
 21
-0.029077
 31
-0.180963
 12
0.207112
 22
-0.051154
 32
-0.113296
 13
0.207112
 23
-0.051154
 33
-0.113296
 62
0
  0
3DFACE
  8
NoName1
 10
0.257111
 20
0.190650
 30
0.082705
 11
0.274803
 21
0.289697
 31
0.067245
 12
0.195228
 22
0.259305
 32
0.061836
 13
0.195228
 23
0.259305
 33
0.061836
 62
0
  0
3DFACE
  8
NoName1
 10
0.081632
 20
-0.375003
 30
0.021990
 11
0.098668
 21
-0.377991
 31
0.116032
 12
0.087607
 22
-0.292458
 32
0.017437
 13
0.087607
 23
-0.292458
 33
0.017437
 62
0
  0
3DFACE
  8
NoName1
 10
-0.244157
 20
0.363353
 30
-0.312263
 11
-0.216977
 21
0.355610
 31
-0.410027
 12
-0.216742
 22
0.408363
 32
-0.322580
 13
-0.216742
 23
0.408363
 33
-0.322580
 62
0
  0
3DFACE
  8
NoName1
 10
0.151515
 20
-0.247232
 30
-0.327558
 11
0.189715
 21
-0.284324
 31
-0.334012
 12
0.196712
 22
-0.297294
 32
-0.266858
 13
0.196712
 23
-0.297294
 33
-0.266858
 62
0
  0
3DFACE
  8
NoName1
 10
0.057087
 20
-0.389860
 30
-0.048471
 11
0.089519
 21
-0.425978
 31
-0.013424
 12
0.081632
 22
-0.375003
 32
0.021990
 13
0.081632
 23
-0.375003
 33
0.021990
 62
0
  0
3DFACE
  8
NoName1
 10
0.234078
 20
0.030335
 30
0.366939
 11
0.305282
 21
0.038142
 31
0.356705
 12
0.254099
 22
0.008487
 32
0.304845
 13
0.254099
 23
0.008487
 33
0.304845
 62
0
  0
3DFACE
  8
NoName1
 10
0.146317
 20
0.204687
 30
0.080346
 11
0.132694
 21
0.276016
 31
0.102472
 12
0.077900
 22
0.214866
 32
0.101296
 13
0.077900
 23
0.214866
 33
0.101296
 62
0
  0
3DFACE
  8
NoName1
 10
0.399971
 20
0.205508
 30
0.259385
 11
0.385693
 21
0.164374
 31
0.254941
 12
0.379493
 22
0.194678
 32
0.208246
 13
0.379493
 23
0.194678
 33
0.208246
 62
0
  0
3DFACE
  8
NoName1
 10
0.254984
 20
0.014951
 30
-0.140483
 11
0.252767
 21
0.056427
 31
-0.087956
 12
0.329396
 22
0.078752
 32
-0.174255
 13
0.329396
 23
0.078752
 33
-0.174255
 62
0
  0
3DFACE
  8
NoName1
 10
0.331373
 20
0.316497
 30
0.129449
 11
0.332066
 21
0.255483
 31
0.105175
 12
0.356843
 22
0.236454
 32
0.188190
 13
0.356843
 23
0.236454
 33
0.188190
 62
0
  0
3DFACE
  8
NoName1
 10
-0.112926
 20
0.364749
 30
-0.416057
 11
-0.152449
 21
0.409267
 31
-0.402914
 12
-0.170139
 22
0.365934
 32
-0.435920
 13
-0.170139
 23
0.365934
 33
-0.435920
 62
0
  0
3DFACE
  8
NoName1
 10
0.186215
 20
0.042705
 30
-0.039304
 11
0.199367
 21
-0.023016
 31
0.008623
 12
0.179444
 22
0.065658
 32
0.007927
 13
0.179444
 23
0.065658
 33
0.007927
 62
0
  0
3DFACE
  8
NoName1
 10
-0.037838
 20
-0.642970
 30
0.034760
 11
0.020705
 21
-0.589598
 31
0.017811
 12
0.001401
 22
-0.601915
 32
-0.073219
 13
0.001401
 23
-0.601915
 33
-0.073219
 62
0
  0
3DFACE
  8
NoName1
 10
0.091802
 20
0.175883
 30
0.009391
 11
0.175885
 21
0.112934
 31
0.041957
 12
0.146033
 22
0.162341
 32
0.073589
 13
0.146033
 23
0.162341
 33
0.073589
 62
0
  0
3DFACE
  8
NoName1
 10
-0.195236
 20
0.409263
 30
-0.389384
 11
-0.216742
 21
0.408363
 31
-0.322580
 12
-0.216977
 22
0.355610
 32
-0.410027
 13
-0.216977
 23
0.355610
 33
-0.410027
 62
0
  0
3DFACE
  8
NoName1
 10
0.192443
 20
-0.079569
 30
-0.012965
 11
0.220015
 21
-0.042727
 31
-0.071555
 12
0.167561
 22
-0.161011
 32
-0.006005
 13
0.167561
 23
-0.161011
 33
-0.006005
 62
0
  0
3DFACE
  8
NoName1
 10
-0.059172
 20
0.000099
 30
-0.140883
 11
-0.007468
 21
-0.011596
 31
-0.169615
 12
0.069036
 22
0.081139
 32
-0.125057
 13
0.069036
 23
0.081139
 33
-0.125057
 62
0
  0
3DFACE
  8
NoName1
 10
0.154270
 20
-0.259834
 30
-0.265287
 11
0.176601
 21
-0.308171
 31
-0.191486
 12
0.108345
 22
-0.282322
 32
-0.221674
 13
0.108345
 23
-0.282322
 33
-0.221674
 62
0
  0
3DFACE
  8
NoName1
 10
0.353549
 20
0.194019
 30
-0.148090
 11
0.379998
 21
0.144563
 31
-0.173713
 12
0.293910
 22
0.129718
 32
-0.100576
 13
0.293910
 23
0.129718
 33
-0.100576
 62
0
  0
3DFACE
  8
NoName1
 10
0.251095
 20
0.390878
 30
0.135547
 11
0.152612
 21
0.353846
 31
0.133392
 12
0.227846
 22
0.372813
 32
0.089048
 13
0.227846
 23
0.372813
 33
0.089048
 62
0
  0
3DFACE
  8
NoName1
 10
0.353549
 20
0.194019
 30
-0.148090
 11
0.293910
 21
0.129718
 31
-0.100576
 12
0.243732
 22
0.155338
 32
-0.094821
 13
0.243732
 23
0.155338
 33
-0.094821
 62
0
  0
3DFACE
  8
NoName1
 10
0.106556
 20
-0.453814
 30
-0.159205
 11
0.074128
 21
-0.494403
 31
-0.153447
 12
0.077522
 22
-0.498503
 32
-0.042799
 13
0.077522
 23
-0.498503
 33
-0.042799
 62
0
  0
3DFACE
  8
NoName1
 10
0.181587
 20
-0.024348
 30
0.275104
 11
0.254099
 21
0.008487
 31
0.304845
 12
0.309818
 22
0.061837
 32
0.220646
 13
0.309818
 23
0.061837
 33
0.220646
 62
0
  0
3DFACE
  8
NoName1
 10
0.379983
 20
0.262793
 30
-0.303841
 11
0.372058
 21
0.229627
 31
-0.340672
 12
0.419745
 22
0.200644
 32
-0.311978
 13
0.419745
 23
0.200644
 33
-0.311978
 62
0
  0
3DFACE
  8
NoName1
 10
-0.295044
 20
-0.600177
 30
0.232759
 11
-0.235371
 21
-0.650660
 31
0.193681
 12
-0.318858
 22
-0.632455
 32
0.165206
 13
-0.318858
 23
-0.632455
 33
0.165206
 62
0
  0
3DFACE
  8
NoName1
 10
0.195228
 20
0.259305
 30
0.061836
 11
0.274803
 21
0.289697
 31
0.067245
 12
0.219107
 22
0.311044
 32
0.064003
 13
0.219107
 23
0.311044
 33
0.064003
 62
0
  0
3DFACE
  8
NoName1
 10
0.317979
 20
0.199405
 30
-0.339657
 11
0.301843
 21
0.246721
 31
-0.301590
 12
0.229279
 22
0.194311
 32
-0.257295
 13
0.229279
 23
0.194311
 33
-0.257295
 62
0
  0
3DFACE
  8
NoName1
 10
-0.069928
 20
-0.124609
 30
-0.168937
 11
-0.125312
 21
-0.090547
 31
-0.163484
 12
-0.148880
 22
-0.192778
 32
-0.169833
 13
-0.148880
 23
-0.192778
 33
-0.169833
 62
0
  0
3DFACE
  8
NoName1
 10
0.379983
 20
0.262793
 30
-0.303841
 11
0.301843
 21
0.246721
 31
-0.301590
 12
0.372058
 22
0.229627
 32
-0.340672
 13
0.372058
 23
0.229627
 33
-0.340672
 62
0
  0
3DFACE
  8
NoName1
 10
0.214336
 20
0.058544
 30
0.117604
 11
0.175885
 21
0.112934
 31
0.041957
 12
0.217273
 22
0.017368
 32
0.072686
 13
0.217273
 23
0.017368
 33
0.072686
 62
0
  0
3DFACE
  8
NoName1
 10
0.119077
 20
-0.041505
 30
0.320031
 11
0.254099
 21
0.008487
 31
0.304845
 12
0.181587
 22
-0.024348
 32
0.275104
 13
0.181587
 23
-0.024348
 33
0.275104
 62
0
  0
3DFACE
  8
NoName1
 10
0.154270
 20
-0.259834
 30
-0.265287
 11
0.108345
 21
-0.282322
 31
-0.221674
 12
0.098466
 22
-0.251939
 32
-0.285519
 13
0.098466
 23
-0.251939
 33
-0.285519
 62
0
  0
3DFACE
  8
NoName1
 10
0.199408
 20
-0.350529
 30
-0.296008
 11
0.173686
 21
-0.392833
 31
-0.230348
 12
0.196712
 22
-0.297294
 32
-0.266858
 13
0.196712
 23
-0.297294
 33
-0.266858
 62
0
  0
3DFACE
  8
NoName1
 10
0.167561
 20
-0.161011
 30
-0.006005
 11
0.141283
 21
-0.259877
 31
0.096171
 12
0.147915
 22
-0.227074
 32
0.150381
 13
0.147915
 23
-0.227074
 33
0.150381
 62
0
  0
3DFACE
  8
NoName1
 10
0.175885
 20
0.112934
 30
0.041957
 11
0.201550
 21
0.126598
 31
0.097994
 12
0.146033
 22
0.162341
 32
0.073589
 13
0.146033
 23
0.162341
 33
0.073589
 62
0
  0
3DFACE
  8
NoName1
 10
0.372058
 20
0.229627
 30
-0.340672
 11
0.301843
 21
0.246721
 31
-0.301590
 12
0.317979
 22
0.199405
 32
-0.339657
 13
0.317979
 23
0.199405
 33
-0.339657
 62
0
  0
3DFACE
  8
NoName1
 10
0.019448
 20
0.256646
 30
0.310160
 11
0.091099
 21
0.293537
 31
0.321989
 12
0.046454
 22
0.295723
 32
0.276272
 13
0.046454
 23
0.295723
 33
0.276272
 62
0
  0
3DFACE
  8
NoName1
 10
0.001491
 20
0.165615
 30
0.285255
 11
-0.045791
 21
0.108795
 31
0.268049
 12
0.018327
 22
0.196280
 32
0.190198
 13
0.018327
 23
0.196280
 33
0.190198
 62
0
  0
3DFACE
  8
NoName1
 10
0.038786
 20
0.258441
 30
0.298978
 11
0.091099
 21
0.293537
 31
0.321989
 12
0.019448
 22
0.256646
 32
0.310160
 13
0.019448
 23
0.256646
 33
0.310160
 62
0
  0
3DFACE
  8
NoName1
 10
0.196712
 20
-0.297294
 30
-0.266858
 11
0.173686
 21
-0.392833
 31
-0.230348
 12
0.165651
 22
-0.360037
 32
-0.192280
 13
0.165651
 23
-0.360037
 33
-0.192280
 62
0
  0
3DFACE
  8
NoName1
 10
-0.414983
 20
-0.063141
 30
-0.191146
 11
-0.397786
 21
-0.073494
 31
-0.275041
 12
-0.396908
 22
-0.105229
 32
-0.203371
 13
-0.396908
 23
-0.105229
 33
-0.203371
 62
0
  0
3DFACE
  8
NoName1
 10
0.301664
 20
0.358712
 30
0.111166
 11
0.251095
 21
0.390878
 31
0.135547
 12
0.227846
 22
0.372813
 32
0.089048
 13
0.227846
 23
0.372813
 33
0.089048
 62
0
  0
3DFACE
  8
NoName1
 10
-0.413531
 20
-0.451406
 30
0.218289
 11
-0.385730
 21
-0.564650
 31
0.193497
 12
-0.443515
 22
-0.516805
 32
0.169359
 13
-0.443515
 23
-0.516805
 33
0.169359
 62
0
  0
3DFACE
  8
NoName1
 10
-0.443515
 20
-0.516805
 30
0.169359
 11
-0.461929
 21
-0.477869
 31
0.157833
 12
-0.413531
 22
-0.451406
 32
0.218289
 13
-0.413531
 23
-0.451406
 33
0.218289
 62
0
  0
3DFACE
  8
NoName1
 10
0.328009
 20
0.063362
 30
-0.247661
 11
0.254984
 21
0.014951
 31
-0.140483
 12
0.329396
 22
0.078752
 32
-0.174255
 13
0.329396
 23
0.078752
 33
-0.174255
 62
0
  0
3DFACE
  8
NoName1
 10
0.339921
 20
0.212275
 30
0.350489
 11
0.271814
 21
0.176275
 31
0.387043
 12
0.217910
 22
0.250769
 32
0.369810
 13
0.217910
 23
0.250769
 33
0.369810
 62
0
  0
3DFACE
  8
NoName1
 10
0.151515
 20
-0.247232
 30
-0.327558
 11
0.098466
 21
-0.251939
 31
-0.285519
 12
0.082676
 22
-0.264450
 32
-0.340891
 13
0.082676
 23
-0.264450
 33
-0.340891
 62
0
  0
3DFACE
  8
NoName1
 10
-0.518104
 20
-0.240045
 30
-0.040146
 11
-0.481842
 21
-0.245270
 31
-0.025440
 12
-0.471044
 22
-0.247640
 32
0.004199
 13
-0.471044
 23
-0.247640
 33
0.004199
 62
0
  0
3DFACE
  8
NoName1
 10
0.274803
 20
0.289697
 30
0.067245
 11
0.257111
 21
0.190650
 31
0.082705
 12
0.321795
 22
0.180190
 32
0.112739
 13
0.321795
 23
0.180190
 33
0.112739
 62
0
  0
3DFACE
  8
NoName1
 10
0.170802
 20
0.117968
 30
-0.090542
 11
0.140880
 21
0.144564
 31
-0.020103
 12
0.099169
 22
0.130932
 32
-0.062903
 13
0.099169
 23
0.130932
 33
-0.062903
 62
0
  0
3DFACE
  8
NoName1
 10
0.306696
 20
0.275847
 30
0.325294
 11
0.317553
 21
0.314067
 31
0.251505
 12
0.355063
 22
0.228406
 32
0.295993
 13
0.355063
 23
0.228406
 33
0.295993
 62
0
  0
3DFACE
  8
NoName1
 10
0.214336
 20
0.058544
 30
0.117604
 11
0.201550
 21
0.126598
 31
0.097994
 12
0.175885
 22
0.112934
 32
0.041957
 13
0.175885
 23
0.112934
 33
0.041957
 62
0
  0
3DFACE
  8
NoName1
 10
0.151515
 20
-0.247232
 30
-0.327558
 11
0.196712
 21
-0.297294
 31
-0.266858
 12
0.154270
 22
-0.259834
 32
-0.265287
 13
0.154270
 23
-0.259834
 33
-0.265287
 62
0
  0
3DFACE
  8
NoName1
 10
0.328009
 20
0.063362
 30
-0.247661
 11
0.329396
 21
0.078752
 31
-0.174255
 12
0.386565
 22
0.118225
 32
-0.233634
 13
0.386565
 23
0.118225
 33
-0.233634
 62
0
  0
3DFACE
  8
NoName1
 10
0.205502
 20
0.385102
 30
0.182336
 11
0.162594
 21
0.343379
 31
0.251298
 12
0.116072
 22
0.324142
 32
0.222987
 13
0.116072
 23
0.324142
 33
0.222987
 62
0
  0
3DFACE
  8
NoName1
 10
0.099169
 20
0.130932
 30
-0.062903
 11
0.140880
 21
0.144564
 31
-0.020103
 12
0.077577
 22
0.168461
 32
-0.044749
 13
0.077577
 23
0.168461
 33
-0.044749
 62
0
  0
3DFACE
  8
NoName1
 10
0.389010
 20
0.065932
 30
0.256284
 11
0.412225
 21
0.066376
 31
0.283745
 12
0.411458
 22
0.085498
 32
0.188984
 13
0.411458
 23
0.085498
 33
0.188984
 62
0
  0
3DFACE
  8
NoName1
 10
-0.138118
 20
-0.064763
 30
0.269466
 11
-0.205774
 21
-0.051061
 31
0.238560
 12
-0.077305
 22
-0.052049
 32
0.299341
 13
-0.077305
 23
-0.052049
 33
0.299341
 62
0
  0
3DFACE
  8
NoName1
 10
0.410188
 20
0.133820
 30
-0.303697
 11
0.328009
 21
0.063362
 31
-0.247661
 12
0.386565
 22
0.118225
 32
-0.233634
 13
0.386565
 23
0.118225
 33
-0.233634
 62
0
  0
3DFACE
  8
NoName1
 10
-0.448057
 20
-0.241856
 30
0.107827
 11
-0.390409
 21
-0.169115
 31
-0.005546
 12
-0.386604
 22
-0.126852
 32
0.042715
 13
-0.386604
 23
-0.126852
 33
0.042715
 62
0
  0
3DFACE
  8
NoName1
 10
0.140851
 20
-0.378693
 30
-0.136025
 11
0.104822
 21
-0.341936
 31
-0.171423
 12
0.176601
 22
-0.308171
 32
-0.191486
 13
0.176601
 23
-0.308171
 33
-0.191486
 62
0
  0
3DFACE
  8
NoName1
 10
0.054542
 20
0.265971
 30
0.220250
 11
0.018327
 21
0.196280
 31
0.190198
 12
0.078792
 22
0.268098
 32
0.152735
 13
0.078792
 23
0.268098
 33
0.152735
 62
0
  0
3DFACE
  8
NoName1
 10
0.091099
 20
0.293537
 30
0.321989
 11
0.076026
 21
0.340076
 31
0.302145
 12
0.059207
 22
0.326255
 32
0.258504
 13
0.059207
 23
0.326255
 33
0.258504
 62
0
  0
3DFACE
  8
NoName1
 10
0.059207
 20
0.326255
 30
0.258504
 11
-0.004558
 21
0.287148
 31
0.250608
 12
0.046454
 22
0.295723
 32
0.276272
 13
0.046454
 23
0.295723
 33
0.276272
 62
0
  0
3DFACE
  8
NoName1
 10
-0.130594
 20
0.001865
 30
-0.159287
 11
-0.196727
 21
-0.054527
 31
-0.151348
 12
-0.059172
 22
0.000099
 32
-0.140883
 13
-0.059172
 23
0.000099
 33
-0.140883
 62
0
  0
3DFACE
  8
NoName1
 10
0.306696
 20
0.275847
 30
0.325294
 11
0.339921
 21
0.212275
 31
0.350489
 12
0.217910
 22
0.250769
 32
0.369810
 13
0.217910
 23
0.250769
 33
0.369810
 62
0
  0
3DFACE
  8
NoName1
 10
0.195228
 20
0.259305
 30
0.061836
 11
0.132694
 21
0.276016
 31
0.102472
 12
0.146317
 22
0.204687
 32
0.080346
 13
0.146317
 23
0.204687
 33
0.080346
 62
0
  0
3DFACE
  8
NoName1
 10
0.386565
 20
0.118225
 30
-0.233634
 11
0.329396
 21
0.078752
 31
-0.174255
 12
0.379998
 22
0.144563
 32
-0.173713
 13
0.379998
 23
0.144563
 33
-0.173713
 62
0
  0
3DFACE
  8
NoName1
 10
0.199367
 20
-0.023016
 30
0.008623
 11
0.192443
 21
-0.079569
 31
-0.012965
 12
0.206654
 22
-0.077981
 32
0.053144
 13
0.206654
 23
-0.077981
 33
0.053144
 62
0
  0
3DFACE
  8
NoName1
 10
0.252767
 20
0.056427
 30
-0.087956
 11
0.379998
 21
0.144563
 31
-0.173713
 12
0.329396
 22
0.078752
 32
-0.174255
 13
0.329396
 23
0.078752
 33
-0.174255
 62
0
  0
3DFACE
  8
NoName1
 10
0.321795
 20
0.180190
 30
0.112739
 11
0.265863
 21
0.088635
 31
0.162324
 12
0.334608
 22
0.171323
 32
0.151958
 13
0.334608
 23
0.171323
 33
0.151958
 62
0
  0
3DFACE
  8
NoName1
 10
0.108345
 20
-0.282322
 30
-0.221674
 11
0.047822
 21
-0.292817
 31
-0.266489
 12
0.098466
 22
-0.251939
 32
-0.285519
 13
0.098466
 23
-0.251939
 33
-0.285519
 62
0
  0
3DFACE
  8
NoName1
 10
0.355915
 20
0.063434
 30
0.365662
 11
0.305282
 21
0.038142
 31
0.356705
 12
0.313226
 22
0.092068
 32
0.374526
 13
0.313226
 23
0.092068
 33
0.374526
 62
0
  0
3DFACE
  8
NoName1
 10
0.117613
 20
-0.423950
 30
-0.119011
 11
0.073862
 21
-0.417755
 31
-0.077777
 12
0.051014
 22
-0.408945
 32
-0.120090
 13
0.051014
 23
-0.408945
 33
-0.120090
 62
0
  0
3DFACE
  8
NoName1
 10
-0.518104
 20
-0.240045
 30
-0.040146
 11
-0.506973
 21
-0.312376
 31
0.058281
 12
-0.543776
 22
-0.336194
 32
-0.022221
 13
-0.543776
 23
-0.336194
 33
-0.022221
 62
0
  0
3DFACE
  8
NoName1
 10
-0.543776
 20
-0.336194
 30
-0.022221
 11
-0.506973
 21
-0.312376
 31
0.058281
 12
-0.514858
 22
-0.393482
 32
0.070650
 13
-0.514858
 23
-0.393482
 33
0.070650
 62
0
  0
3DFACE
  8
NoName1
 10
-0.044819
 20
0.196681
 30
0.137033
 11
0.032070
 21
0.205361
 31
0.060386
 12
0.077900
 22
0.214866
 32
0.101296
 13
0.077900
 23
0.214866
 33
0.101296
 62
0
  0
3DFACE
  8
NoName1
 10
0.007022
 20
-0.340365
 30
-0.261272
 11
0.082676
 21
-0.264450
 31
-0.340891
 12
0.047822
 22
-0.292817
 32
-0.266489
 13
0.047822
 23
-0.292817
 33
-0.266489
 62
0
  0
3DFACE
  8
NoName1
 10
0.175885
 20
0.112934
 30
0.041957
 11
0.179444
 21
0.065658
 31
0.007927
 12
0.217273
 22
0.017368
 32
0.072686
 13
0.217273
 23
0.017368
 33
0.072686
 62
0
  0
3DFACE
  8
NoName1
 10
0.140880
 20
0.144564
 30
-0.020103
 11
0.179444
 21
0.065658
 31
0.007927
 12
0.175885
 22
0.112934
 32
0.041957
 13
0.175885
 23
0.112934
 33
0.041957
 62
0
  0
3DFACE
  8
NoName1
 10
-0.157496
 20
0.193987
 30
0.005944
 11
-0.118350
 21
0.190516
 31
-0.083415
 12
-0.095882
 22
0.203819
 32
-0.016886
 13
-0.095882
 23
0.203819
 33
-0.016886
 62
0
  0
3DFACE
  8
NoName1
 10
0.355915
 20
0.063434
 30
0.365662
 11
0.313226
 21
0.092068
 31
0.374526
 12
0.359123
 22
0.121168
 32
0.372313
 13
0.359123
 23
0.121168
 33
0.372313
 62
0
  0
3DFACE
  8
NoName1
 10
0.069036
 20
0.081139
 30
-0.125057
 11
0.116731
 21
0.101836
 31
-0.093138
 12
-0.017770
 22
0.131137
 32
-0.094893
 13
-0.017770
 23
0.131137
 33
-0.094893
 62
0
  0
3DFACE
  8
NoName1
 10
0.422519
 20
0.204712
 30
-0.261627
 11
0.381601
 21
0.266915
 31
-0.260611
 12
0.379983
 22
0.262793
 32
-0.303841
 13
0.379983
 23
0.262793
 33
-0.303841
 62
0
  0
3DFACE
  8
NoName1
 10
0.220015
 20
-0.042727
 30
-0.071555
 11
0.207112
 21
-0.051154
 31
-0.113296
 12
0.167561
 22
-0.161011
 32
-0.006005
 13
0.167561
 23
-0.161011
 33
-0.006005
 62
0
  0
3DFACE
  8
NoName1
 10
0.336007
 20
0.042815
 30
0.302227
 11
0.378951
 21
0.060060
 31
0.308369
 12
0.371575
 22
0.044106
 32
0.258076
 13
0.371575
 23
0.044106
 33
0.258076
 62
0
  0
3DFACE
  8
NoName1
 10
-0.136181
 20
0.301025
 30
-0.415579
 11
-0.091697
 21
0.304606
 31
-0.379776
 12
-0.112926
 22
0.364749
 32
-0.416057
 13
-0.112926
 23
0.364749
 33
-0.416057
 62
0
  0
3DFACE
  8
NoName1
 10
0.091227
 20
-0.469356
 30
-0.230193
 11
0.074128
 21
-0.494403
 31
-0.153447
 12
0.106556
 22
-0.453814
 32
-0.159205
 13
0.106556
 23
-0.453814
 33
-0.159205
 62
0
  0
3DFACE
  8
NoName1
 10
-0.341998
 20
-0.033675
 30
-0.005788
 11
-0.304403
 21
0.032919
 31
-0.049487
 12
-0.326101
 22
0.014730
 32
0.042303
 13
-0.326101
 23
0.014730
 33
0.042303
 62
0
  0
3DFACE
  8
NoName1
 10
-0.021412
 20
-0.085872
 30
-0.168684
 11
-0.007468
 21
-0.011596
 31
-0.169615
 12
-0.125312
 22
-0.090547
 32
-0.163484
 13
-0.125312
 23
-0.090547
 33
-0.163484
 62
0
  0
3DFACE
  8
NoName1
 10
-0.444634
 20
-0.012264
 30
-0.261271
 11
-0.507956
 21
-0.029484
 31
-0.209968
 12
-0.532662
 22
-0.017585
 32
-0.258087
 13
-0.532662
 23
-0.017585
 33
-0.258087
 62
0
  0
3DFACE
  8
NoName1
 10
-0.069928
 20
-0.124609
 30
-0.168937
 11
-0.078609
 21
-0.198686
 31
-0.166126
 12
0.024433
 22
-0.179956
 32
-0.128637
 13
0.024433
 23
-0.179956
 33
-0.128637
 62
0
  0
3DFACE
  8
NoName1
 10
-0.410701
 20
-0.179970
 30
-0.109726
 11
-0.481842
 21
-0.245270
 31
-0.025440
 12
-0.463013
 22
-0.183763
 32
-0.079261
 13
-0.463013
 23
-0.183763
 33
-0.079261
 62
0
  0
3DFACE
  8
NoName1
 10
0.217910
 20
0.250769
 30
0.369810
 11
0.149816
 21
0.285842
 31
0.348616
 12
0.258453
 22
0.314065
 32
0.304732
 13
0.258453
 23
0.314065
 33
0.304732
 62
0
  0
3DFACE
  8
NoName1
 10
0.356843
 20
0.236454
 30
0.188190
 11
0.344348
 21
0.300595
 31
0.204117
 12
0.331373
 22
0.316497
 32
0.129449
 13
0.331373
 23
0.316497
 33
0.129449
 62
0
  0
3DFACE
  8
NoName1
 10
0.073862
 20
-0.417755
 30
-0.077777
 11
0.089519
 21
-0.425978
 31
-0.013424
 12
0.057087
 22
-0.389860
 32
-0.048471
 13
0.057087
 23
-0.389860
 33
-0.048471
 62
0
  0
3DFACE
  8
NoName1
 10
0.001401
 20
-0.601915
 30
-0.073219
 11
0.049407
 21
-0.558785
 31
-0.042544
 12
0.037071
 22
-0.541958
 32
-0.135433
 13
0.037071
 23
-0.541958
 33
-0.135433
 62
0
  0
3DFACE
  8
NoName1
 10
0.152127
 20
-0.422535
 30
-0.271100
 11
0.091227
 21
-0.469356
 31
-0.230193
 12
0.106556
 22
-0.453814
 32
-0.159205
 13
0.106556
 23
-0.453814
 33
-0.159205
 62
0
  0
3DFACE
  8
NoName1
 10
0.199408
 20
-0.350529
 30
-0.296008
 11
0.196712
 21
-0.297294
 31
-0.266858
 12
0.189715
 22
-0.284324
 32
-0.334012
 13
0.189715
 23
-0.284324
 33
-0.334012
 62
0
  0
3DFACE
  8
NoName1
 10
0.371575
 20
0.044106
 30
0.258076
 11
0.378951
 21
0.060060
 31
0.308369
 12
0.412225
 22
0.066376
 32
0.283745
 13
0.412225
 23
0.066376
 33
0.283745
 62
0
  0
3DFACE
  8
NoName1
 10
0.309818
 20
0.061837
 30
0.220646
 11
0.340068
 21
0.124808
 31
0.185402
 12
0.265863
 22
0.088635
 32
0.162324
 13
0.265863
 23
0.088635
 33
0.162324
 62
0
  0
3DFACE
  8
NoName1
 10
-0.326101
 20
0.014730
 30
0.042303
 11
-0.304403
 21
0.032919
 31
-0.049487
 12
-0.279811
 22
0.095892
 32
-0.021281
 13
-0.279811
 23
0.095892
 33
-0.021281
 62
0
  0
3DFACE
  8
NoName1
 10
-0.068098
 20
-0.407241
 30
-0.147276
 11
-0.040860
 21
-0.352538
 31
-0.125416
 12
-0.142426
 22
-0.348386
 32
-0.159754
 13
-0.142426
 23
-0.348386
 33
-0.159754
 62
0
  0
3DFACE
  8
NoName1
 10
-0.127127
 20
-0.471088
 30
-0.163157
 11
-0.068098
 21
-0.407241
 31
-0.147276
 12
-0.142426
 22
-0.348386
 32
-0.159754
 13
-0.142426
 23
-0.348386
 33
-0.159754
 62
0
  0
3DFACE
  8
NoName1
 10
0.146317
 20
0.204687
 30
0.080346
 11
0.201550
 21
0.126598
 31
0.097994
 12
0.257111
 22
0.190650
 32
0.082705
 13
0.257111
 23
0.190650
 33
0.082705
 62
0
  0
3DFACE
  8
NoName1
 10
-0.463013
 20
-0.183763
 30
-0.079261
 11
-0.481842
 21
-0.245270
 31
-0.025440
 12
-0.518104
 22
-0.240045
 32
-0.040146
 13
-0.518104
 23
-0.240045
 33
-0.040146
 62
0
  0
3DFACE
  8
NoName1
 10
-0.127127
 20
-0.471088
 30
-0.163157
 11
-0.142426
 21
-0.348386
 31
-0.159754
 12
-0.194469
 22
-0.453516
 32
-0.152135
 13
-0.194469
 23
-0.453516
 33
-0.152135
 62
0
  0
3DFACE
  8
NoName1
 10
0.035669
 20
-0.340884
 30
-0.207442
 11
0.047822
 21
-0.292817
 31
-0.266489
 12
0.108345
 22
-0.282322
 32
-0.221674
 13
0.108345
 23
-0.282322
 33
-0.221674
 62
0
  0
3DFACE
  8
NoName1
 10
0.035669
 20
-0.340884
 30
-0.207442
 11
0.007022
 21
-0.340365
 31
-0.261272
 12
0.047822
 22
-0.292817
 32
-0.266489
 13
0.047822
 23
-0.292817
 33
-0.266489
 62
0
  0
3DFACE
  8
NoName1
 10
0.309818
 20
0.061837
 30
0.220646
 11
0.254099
 21
0.008487
 31
0.304845
 12
0.336007
 22
0.042815
 32
0.302227
 13
0.336007
 23
0.042815
 33
0.302227
 62
0
  0
3DFACE
  8
NoName1
 10
0.385693
 20
0.164374
 30
0.254941
 11
0.399971
 21
0.205508
 31
0.259385
 12
0.382873
 22
0.199503
 32
0.298735
 13
0.382873
 23
0.199503
 33
0.298735
 62
0
  0
3DFACE
  8
NoName1
 10
0.035669
 20
-0.340884
 30
-0.207442
 11
-0.048792
 21
-0.438941
 31
-0.190641
 12
0.007022
 22
-0.340365
 32
-0.261272
 13
0.007022
 23
-0.340365
 33
-0.261272
 62
0
  0
3DFACE
  8
NoName1
 10
0.152612
 20
0.353846
 30
0.133392
 11
0.116072
 21
0.324142
 31
0.222987
 12
0.054542
 22
0.265971
 32
0.220250
 13
0.054542
 23
0.265971
 33
0.220250
 62
0
  0
3DFACE
  8
NoName1
 10
-0.338788
 20
-0.181610
 30
-0.100538
 11
-0.390409
 21
-0.169115
 31
-0.005546
 12
-0.408972
 22
-0.220249
 32
-0.070614
 13
-0.408972
 23
-0.220249
 33
-0.070614
 62
0
  0
3DFACE
  8
NoName1
 10
-0.010781
 20
-0.392999
 30
-0.157885
 11
0.104822
 21
-0.341936
 31
-0.171423
 12
0.051014
 22
-0.408945
 32
-0.120090
 13
0.051014
 23
-0.408945
 33
-0.120090
 62
0
  0
3DFACE
  8
NoName1
 10
-0.507956
 20
-0.029484
 30
-0.209968
 11
-0.507690
 21
-0.099786
 31
-0.137543
 12
-0.556198
 22
-0.081604
 32
-0.198923
 13
-0.556198
 23
-0.081604
 33
-0.198923
 62
0
  0
3DFACE
  8
NoName1
 10
-0.507690
 20
-0.099786
 30
-0.137543
 11
-0.532732
 21
-0.159838
 31
-0.124348
 12
-0.556198
 22
-0.081604
 32
-0.198923
 13
-0.556198
 23
-0.081604
 33
-0.198923
 62
0
  0
3DFACE
  8
NoName1
 10
-0.471044
 20
-0.247640
 30
0.004199
 11
-0.408972
 21
-0.220249
 31
-0.070614
 12
-0.390409
 22
-0.169115
 32
-0.005546
 13
-0.390409
 23
-0.169115
 33
-0.005546
 62
0
  0
3DFACE
  8
NoName1
 10
-0.233925
 20
-0.672485
 30
0.117482
 11
-0.235371
 21
-0.650660
 31
0.193681
 12
-0.166148
 22
-0.654824
 32
0.158791
 13
-0.166148
 23
-0.654824
 33
0.158791
 62
0
  0
3DFACE
  8
NoName1
 10
-0.318858
 20
-0.632455
 30
0.165206
 11
-0.235371
 21
-0.650660
 31
0.193681
 12
-0.233925
 22
-0.672485
 32
0.117482
 13
-0.233925
 23
-0.672485
 33
0.117482
 62
0
  0
3DFACE
  8
NoName1
 10
0.023910
 20
-0.351458
 30
-0.308757
 11
0.082676
 21
-0.264450
 31
-0.340891
 12
0.007022
 22
-0.340365
 32
-0.261272
 13
0.007022
 23
-0.340365
 33
-0.261272
 62
0
  0
3DFACE
  8
NoName1
 10
0.140851
 20
-0.378693
 30
-0.136025
 11
0.051014
 21
-0.408945
 31
-0.120090
 12
0.104822
 22
-0.341936
 32
-0.171423
 13
0.104822
 23
-0.341936
 33
-0.171423
 62
0
  0
3DFACE
  8
NoName1
 10
0.180863
 20
-0.053920
 30
0.232853
 11
0.181587
 21
-0.024348
 31
0.275104
 12
0.217971
 22
0.025659
 32
0.185880
 13
0.217971
 23
0.025659
 33
0.185880
 62
0
  0
3DFACE
  8
NoName1
 10
0.382873
 20
0.199503
 30
0.298735
 11
0.411719
 21
0.175280
 31
0.311350
 12
0.339921
 22
0.212275
 32
0.350489
 13
0.339921
 23
0.212275
 33
0.350489
 62
0
  0
3DFACE
  8
NoName1
 10
0.140880
 20
0.144564
 30
-0.020103
 11
0.091802
 21
0.175883
 31
0.009391
 12
0.077577
 22
0.168461
 32
-0.044749
 13
0.077577
 23
0.168461
 33
-0.044749
 62
0
  0
3DFACE
  8
NoName1
 10
0.108035
 20
0.028380
 30
-0.200647
 11
0.181109
 21
0.023339
 31
-0.226687
 12
0.169191
 22
0.103165
 32
-0.215678
 13
0.169191
 23
0.103165
 33
-0.215678
 62
0
  0
3DFACE
  8
NoName1
 10
0.053284
 20
0.293936
 30
0.359573
 11
0.111624
 21
0.311349
 31
0.356017
 12
0.127038
 22
0.242153
 32
0.386183
 13
0.127038
 23
0.242153
 33
0.386183
 62
0
  0
3DFACE
  8
NoName1
 10
0.180720
 20
0.339526
 30
0.087875
 11
0.152612
 21
0.353846
 31
0.133392
 12
0.132694
 22
0.276016
 32
0.102472
 13
0.132694
 23
0.276016
 33
0.102472
 62
0
  0
3DFACE
  8
NoName1
 10
0.332066
 20
0.255483
 30
0.105175
 11
0.274803
 21
0.289697
 31
0.067245
 12
0.321795
 22
0.180190
 32
0.112739
 13
0.321795
 23
0.180190
 33
0.112739
 62
0
  0
3DFACE
  8
NoName1
 10
-0.378820
 20
-0.263282
 30
-0.146720
 11
-0.408972
 21
-0.220249
 31
-0.070614
 12
-0.391642
 22
-0.220079
 32
-0.161456
 13
-0.391642
 23
-0.220079
 33
-0.161456
 62
0
  0
3DFACE
  8
NoName1
 10
0.332066
 20
0.255483
 30
0.105175
 11
0.321795
 21
0.180190
 31
0.112739
 12
0.334608
 22
0.171323
 32
0.151958
 13
0.334608
 23
0.171323
 33
0.151958
 62
0
  0
3DFACE
  8
NoName1
 10
-0.144789
 20
0.049953
 30
-0.168611
 11
-0.196727
 21
-0.054527
 31
-0.151348
 12
-0.130594
 22
0.001865
 32
-0.159287
 13
-0.130594
 23
0.001865
 33
-0.159287
 62
0
  0
3DFACE
  8
NoName1
 10
-0.413531
 20
-0.451406
 30
0.218289
 11
-0.461929
 21
-0.477869
 31
0.157833
 12
-0.484046
 22
-0.376840
 32
0.138587
 13
-0.484046
 23
-0.376840
 33
0.138587
 62
0
  0
3DFACE
  8
NoName1
 10
-0.077167
 20
0.369156
 30
-0.271124
 11
-0.136753
 21
0.385553
 31
-0.219315
 12
-0.095660
 22
0.394903
 32
-0.293944
 13
-0.095660
 23
0.394903
 33
-0.293944
 62
0
  0
3DFACE
  8
NoName1
 10
0.111624
 20
0.311349
 30
0.356017
 11
0.076026
 21
0.340076
 31
0.302145
 12
0.091099
 22
0.293537
 32
0.321989
 13
0.091099
 23
0.293537
 33
0.321989
 62
0
  0
3DFACE
  8
NoName1
 10
0.059207
 20
0.326255
 30
0.258504
 11
0.046454
 21
0.295723
 31
0.276272
 12
0.091099
 22
0.293537
 32
0.321989
 13
0.091099
 23
0.293537
 33
0.321989
 62
0
  0
3DFACE
  8
NoName1
 10
0.091099
 20
0.293537
 30
0.321989
 11
0.149816
 21
0.285842
 31
0.348616
 12
0.111624
 22
0.311349
 32
0.356017
 13
0.111624
 23
0.311349
 33
0.356017
 62
0
  0
3DFACE
  8
NoName1
 10
0.132694
 20
0.276016
 30
0.102472
 11
0.152612
 21
0.353846
 31
0.133392
 12
0.078792
 22
0.268098
 32
0.152735
 13
0.078792
 23
0.268098
 33
0.152735
 62
0
  0
3DFACE
  8
NoName1
 10
0.355915
 20
0.063434
 30
0.365662
 11
0.359123
 21
0.121168
 31
0.372313
 12
0.412435
 22
0.126298
 32
0.315279
 13
0.412435
 23
0.126298
 33
0.315279
 62
0
  0
3DFACE
  8
NoName1
 10
0.117613
 20
-0.423950
 30
-0.119011
 11
0.165651
 21
-0.360037
 31
-0.192280
 12
0.173686
 22
-0.392833
 32
-0.230348
 13
0.173686
 23
-0.392833
 33
-0.230348
 62
0
  0
3DFACE
  8
NoName1
 10
-0.397786
 20
-0.073494
 30
-0.275041
 11
-0.390374
 21
-0.151154
 31
-0.242565
 12
-0.396908
 22
-0.105229
 32
-0.203371
 13
-0.396908
 23
-0.105229
 33
-0.203371
 62
0
  0
3DFACE
  8
NoName1
 10
-0.532732
 20
-0.159838
 30
-0.124348
 11
-0.541379
 21
-0.258527
 31
-0.161693
 12
-0.564686
 22
-0.154847
 32
-0.214024
 13
-0.564686
 23
-0.154847
 33
-0.214024
 62
0
  0
3DFACE
  8
NoName1
 10
0.344348
 20
0.300595
 30
0.204117
 11
0.317553
 21
0.314067
 31
0.251505
 12
0.292191
 22
0.371970
 32
0.195455
 13
0.292191
 23
0.371970
 33
0.195455
 62
0
  0
3DFACE
  8
NoName1
 10
0.106556
 20
-0.453814
 30
-0.159205
 11
0.117613
 21
-0.423950
 31
-0.119011
 12
0.173686
 22
-0.392833
 32
-0.230348
 13
0.173686
 23
-0.392833
 33
-0.230348
 62
0
  0
3DFACE
  8
NoName1
 10
-0.390374
 20
-0.151154
 30
-0.242565
 11
-0.418737
 21
-0.071982
 31
-0.317614
 12
-0.423246
 22
-0.159433
 32
-0.285174
 13
-0.423246
 23
-0.159433
 33
-0.285174
 62
0
  0
3DFACE
  8
NoName1
 10
0.102246
 20
-0.201760
 30
-0.048465
 11
0.067809
 21
-0.116100
 31
-0.148997
 12
0.024433
 22
-0.179956
 32
-0.128637
 13
0.024433
 23
-0.179956
 33
-0.128637
 62
0
  0
3DFACE
  8
NoName1
 10
-0.264803
 20
-0.353301
 30
-0.155364
 11
-0.194469
 21
-0.453516
 31
-0.152135
 12
-0.142426
 22
-0.348386
 32
-0.159754
 13
-0.142426
 23
-0.348386
 33
-0.159754
 62
0
  0
3DFACE
  8
NoName1
 10
-0.277774
 20
0.093999
 30
-0.097718
 11
-0.279811
 21
0.095892
 31
-0.021281
 12
-0.304403
 22
0.032919
 32
-0.049487
 13
-0.304403
 23
0.032919
 33
-0.049487
 62
0
  0
3DFACE
  8
NoName1
 10
0.078792
 20
0.268098
 30
0.152735
 11
0.077900
 21
0.214866
 31
0.101296
 12
0.132694
 22
0.276016
 32
0.102472
 13
0.132694
 23
0.276016
 33
0.102472
 62
0
  0
3DFACE
  8
NoName1
 10
0.260130
 20
0.236451
 30
-0.190549
 11
0.313407
 21
0.244471
 31
-0.173285
 12
0.238695
 22
0.195571
 32
-0.136804
 13
0.238695
 23
0.195571
 33
-0.136804
 62
0
  0
3DFACE
  8
NoName1
 10
-0.507956
 20
-0.029484
 30
-0.209968
 11
-0.556198
 21
-0.081604
 31
-0.198923
 12
-0.532662
 22
-0.017585
 32
-0.258087
 13
-0.532662
 23
-0.017585
 33
-0.258087
 62
0
  0
3DFACE
  8
NoName1
 10
0.077900
 20
0.214866
 30
0.101296
 11
0.078792
 21
0.268098
 31
0.152735
 12
0.018327
 22
0.196280
 32
0.190198
 13
0.018327
 23
0.196280
 33
0.190198
 62
0
  0
3DFACE
  8
NoName1
 10
-0.326101
 20
0.014730
 30
0.042303
 11
-0.367784
 21
-0.084103
 31
0.083193
 12
-0.341998
 22
-0.033675
 32
-0.005788
 13
-0.341998
 23
-0.033675
 33
-0.005788
 62
0
  0
3DFACE
  8
NoName1
 10
-0.532732
 20
-0.159838
 30
-0.124348
 11
-0.564686
 21
-0.154847
 31
-0.214024
 12
-0.556198
 22
-0.081604
 32
-0.198923
 13
-0.556198
 23
-0.081604
 33
-0.198923
 62
0
  0
3DFACE
  8
NoName1
 10
0.293910
 20
0.129718
 30
-0.100576
 11
0.379998
 21
0.144563
 31
-0.173713
 12
0.252767
 22
0.056427
 32
-0.087956
 13
0.252767
 23
0.056427
 33
-0.087956
 62
0
  0
3DFACE
  8
NoName1
 10
0.152127
 20
-0.422535
 30
-0.271100
 11
0.173686
 21
-0.392833
 31
-0.230348
 12
0.199408
 22
-0.350529
 32
-0.296008
 13
0.199408
 23
-0.350529
 33
-0.296008
 62
0
  0
3DFACE
  8
NoName1
 10
-0.194199
 20
-0.283385
 30
0.308463
 11
-0.282114
 21
-0.296329
 31
0.278958
 12
-0.294257
 22
-0.239240
 32
0.257328
 13
-0.294257
 23
-0.239240
 33
0.257328
 62
0
  0
3DFACE
  8
NoName1
 10
0.106556
 20
-0.453814
 30
-0.159205
 11
0.173686
 21
-0.392833
 31
-0.230348
 12
0.152127
 22
-0.422535
 32
-0.271100
 13
0.152127
 23
-0.422535
 33
-0.271100
 62
0
  0
3DFACE
  8
NoName1
 10
0.371575
 20
0.044106
 30
0.258076
 11
0.412225
 21
0.066376
 31
0.283745
 12
0.389010
 22
0.065932
 32
0.256284
 13
0.389010
 23
0.065932
 33
0.256284
 62
0
  0
3DFACE
  8
NoName1
 10
0.382873
 20
0.199503
 30
0.298735
 11
0.339921
 21
0.212275
 31
0.350489
 12
0.355063
 22
0.228406
 32
0.295993
 13
0.355063
 23
0.228406
 33
0.295993
 62
0
  0
3DFACE
  8
NoName1
 10
-0.277774
 20
0.093999
 30
-0.097718
 11
-0.271558
 21
0.146388
 31
-0.137957
 12
-0.260984
 22
0.227975
 32
-0.119000
 13
-0.260984
 23
0.227975
 33
-0.119000
 62
0
  0
3DFACE
  8
NoName1
 10
-0.443928
 20
-0.033335
 30
-0.331901
 11
-0.418737
 21
-0.071982
 31
-0.317614
 12
-0.397786
 22
-0.073494
 32
-0.275041
 13
-0.397786
 23
-0.073494
 33
-0.275041
 62
0
  0
3DFACE
  8
NoName1
 10
-0.260984
 20
0.227975
 30
-0.119000
 11
-0.279811
 21
0.095892
 31
-0.021281
 12
-0.277774
 22
0.093999
 32
-0.097718
 13
-0.277774
 23
0.093999
 33
-0.097718
 62
0
  0
3DFACE
  8
NoName1
 10
0.355063
 20
0.228406
 30
0.295993
 11
0.339921
 21
0.212275
 31
0.350489
 12
0.306696
 22
0.275847
 32
0.325294
 13
0.306696
 23
0.275847
 33
0.325294
 62
0
  0
3DFACE
  8
NoName1
 10
0.069036
 20
0.081139
 30
-0.125057
 11
-0.017770
 21
0.131137
 31
-0.094893
 12
-0.046168
 22
0.068001
 32
-0.134958
 13
-0.046168
 23
0.068001
 33
-0.134958
 62
0
  0
3DFACE
  8
NoName1
 10
-0.076421
 20
-0.628930
 30
0.141568
 11
-0.031886
 21
-0.583468
 31
0.152023
 12
0.015852
 22
-0.567437
 32
0.093730
 13
0.015852
 23
-0.567437
 33
0.093730
 62
0
  0
3DFACE
  8
NoName1
 10
0.054542
 20
0.265971
 30
0.220250
 11
0.078792
 21
0.268098
 31
0.152735
 12
0.152612
 22
0.353846
 32
0.133392
 13
0.152612
 23
0.353846
 33
0.133392
 62
0
  0
3DFACE
  8
NoName1
 10
0.176601
 20
-0.308171
 30
-0.191486
 11
0.104822
 21
-0.341936
 31
-0.171423
 12
0.108345
 22
-0.282322
 32
-0.221674
 13
0.108345
 23
-0.282322
 33
-0.221674
 62
0
  0
3DFACE
  8
NoName1
 10
-0.481842
 20
-0.245270
 30
-0.025440
 11
-0.410701
 21
-0.179970
 31
-0.109726
 12
-0.408972
 22
-0.220249
 32
-0.070614
 13
-0.408972
 23
-0.220249
 33
-0.070614
 62
0
  0
3DFACE
  8
NoName1
 10
-0.304347
 20
-0.031950
 30
0.142579
 11
-0.296536
 21
-0.062815
 31
0.176885
 12
-0.326101
 22
0.014730
 32
0.042303
 13
-0.326101
 23
0.014730
 33
0.042303
 62
0
  0
3DFACE
  8
NoName1
 10
-0.390409
 20
-0.169115
 30
-0.005546
 11
-0.448057
 21
-0.241856
 31
0.107827
 12
-0.448782
 22
-0.223225
 32
0.070403
 13
-0.448782
 23
-0.223225
 33
0.070403
 62
0
  0
3DFACE
  8
NoName1
 10
-0.329211
 20
-0.633981
 30
0.080531
 11
-0.318858
 21
-0.632455
 31
0.165206
 12
-0.233925
 22
-0.672485
 32
0.117482
 13
-0.233925
 23
-0.672485
 33
0.117482
 62
0
  0
3DFACE
  8
NoName1
 10
-0.484046
 20
-0.376840
 30
0.138587
 11
-0.514858
 21
-0.393482
 31
0.070650
 12
-0.506973
 22
-0.312376
 32
0.058281
 13
-0.506973
 23
-0.312376
 33
0.058281
 62
0
  0
3DFACE
  8
NoName1
 10
0.381601
 20
0.266915
 30
-0.260611
 11
0.305935
 21
0.260868
 31
-0.258821
 12
0.379983
 22
0.262793
 32
-0.303841
 13
0.379983
 23
0.262793
 33
-0.303841
 62
0
  0
3DFACE
  8
NoName1
 10
0.257111
 20
0.190650
 30
0.082705
 11
0.201550
 21
0.126598
 31
0.097994
 12
0.265863
 22
0.088635
 32
0.162324
 13
0.265863
 23
0.088635
 33
0.162324
 62
0
  0
3DFACE
  8
NoName1
 10
0.141637
 20
-0.271924
 30
-0.361382
 11
0.167173
 21
-0.357206
 31
-0.341265
 12
0.189715
 22
-0.284324
 32
-0.334012
 13
0.189715
 23
-0.284324
 33
-0.334012
 62
0
  0
3DFACE
  8
NoName1
 10
-0.078609
 20
-0.198686
 30
-0.166126
 11
-0.069928
 21
-0.124609
 31
-0.168937
 12
-0.148880
 22
-0.192778
 32
-0.169833
 13
-0.148880
 23
-0.192778
 33
-0.169833
 62
0
  0
3DFACE
  8
NoName1
 10
0.001834
 20
0.211718
 30
0.370293
 11
0.071748
 21
0.195685
 31
0.386335
 12
0.021992
 22
0.198658
 32
0.324933
 13
0.021992
 23
0.198658
 33
0.324933
 62
0
  0
3DFACE
  8
NoName1
 10
0.301843
 20
0.246721
 30
-0.301590
 11
0.305935
 21
0.260868
 31
-0.258821
 12
0.229279
 22
0.194311
 32
-0.257295
 13
0.229279
 23
0.194311
 33
-0.257295
 62
0
  0
3DFACE
  8
NoName1
 10
0.301843
 20
0.246721
 30
-0.301590
 11
0.379983
 21
0.262793
 31
-0.303841
 12
0.305935
 22
0.260868
 32
-0.258821
 13
0.305935
 23
0.260868
 33
-0.258821
 62
0
  0
3DFACE
  8
NoName1
 10
0.189715
 20
-0.284324
 30
-0.334012
 11
0.151515
 21
-0.247232
 31
-0.327558
 12
0.141637
 22
-0.271924
 32
-0.361382
 13
0.141637
 23
-0.271924
 33
-0.361382
 62
0
  0
3DFACE
  8
NoName1
 10
0.082676
 20
-0.264450
 30
-0.340891
 11
0.141637
 21
-0.271924
 31
-0.361382
 12
0.151515
 22
-0.247232
 32
-0.327558
 13
0.151515
 23
-0.247232
 33
-0.327558
 62
0
  0
3DFACE
  8
NoName1
 10
0.372058
 20
0.229627
 30
-0.340672
 11
0.317979
 21
0.199405
 31
-0.339657
 12
0.382407
 22
0.171302
 32
-0.351833
 13
0.382407
 23
0.171302
 33
-0.351833
 62
0
  0
3DFACE
  8
NoName1
 10
0.167173
 20
-0.357206
 30
-0.341265
 11
0.199408
 21
-0.350529
 31
-0.296008
 12
0.189715
 22
-0.284324
 32
-0.334012
 13
0.189715
 23
-0.284324
 33
-0.334012
 62
0
  0
3DFACE
  8
NoName1
 10
0.238695
 20
0.195571
 30
-0.136804
 11
0.243732
 21
0.155338
 31
-0.094821
 12
0.170802
 22
0.117968
 32
-0.090542
 13
0.170802
 23
0.117968
 33
-0.090542
 62
0
  0
3DFACE
  8
NoName1
 10
0.217971
 20
0.025659
 30
0.185880
 11
0.265863
 21
0.088635
 31
0.162324
 12
0.201550
 22
0.126598
 32
0.097994
 13
0.201550
 23
0.126598
 33
0.097994
 62
0
  0
3DFACE
  8
NoName1
 10
0.169191
 20
0.103165
 30
-0.215678
 11
0.136001
 21
0.113824
 31
-0.165818
 12
0.108035
 22
0.028380
 32
-0.200647
 13
0.108035
 23
0.028380
 33
-0.200647
 62
0
  0
3DFACE
  8
NoName1
 10
-0.170139
 20
0.365934
 30
-0.435920
 11
-0.136181
 21
0.301025
 31
-0.415579
 12
-0.112926
 22
0.364749
 32
-0.416057
 13
-0.112926
 23
0.364749
 33
-0.416057
 62
0
  0
3DFACE
  8
NoName1
 10
0.165651
 20
-0.360037
 30
-0.192280
 11
0.140851
 21
-0.378693
 31
-0.136025
 12
0.176601
 22
-0.308171
 32
-0.191486
 13
0.176601
 23
-0.308171
 33
-0.191486
 62
0
  0
3DFACE
  8
NoName1
 10
-0.336640
 20
-0.095491
 30
-0.051161
 11
-0.341998
 21
-0.033675
 31
-0.005788
 12
-0.386604
 22
-0.126852
 32
0.042715
 13
-0.386604
 23
-0.126852
 33
0.042715
 62
0
  0
3DFACE
  8
NoName1
 10
-0.386604
 20
-0.126852
 30
0.042715
 11
-0.341998
 21
-0.033675
 31
-0.005788
 12
-0.367784
 22
-0.084103
 32
0.083193
 13
-0.367784
 23
-0.084103
 33
0.083193
 62
0
  0
3DFACE
  8
NoName1
 10
0.195228
 20
0.259305
 30
0.061836
 11
0.146317
 21
0.204687
 31
0.080346
 12
0.257111
 22
0.190650
 32
0.082705
 13
0.257111
 23
0.190650
 33
0.082705
 62
0
  0
3DFACE
  8
NoName1
 10
-0.532732
 20
-0.159838
 30
-0.124348
 11
-0.518104
 21
-0.240045
 31
-0.040146
 12
-0.545391
 22
-0.268940
 32
-0.098130
 13
-0.545391
 23
-0.268940
 33
-0.098130
 62
0
  0
3DFACE
  8
NoName1
 10
-0.518104
 20
-0.240045
 30
-0.040146
 11
-0.543776
 21
-0.336194
 31
-0.022221
 12
-0.545391
 22
-0.268940
 32
-0.098130
 13
-0.545391
 23
-0.268940
 33
-0.098130
 62
0
  0
3DFACE
  8
NoName1
 10
-0.241197
 20
0.361081
 30
-0.220003
 11
-0.260984
 21
0.227975
 31
-0.119000
 12
-0.265320
 22
0.283149
 32
-0.223038
 13
-0.265320
 23
0.283149
 33
-0.223038
 62
0
  0
3DFACE
  8
NoName1
 10
0.014074
 20
-0.382369
 30
-0.097504
 11
-0.010781
 21
-0.392999
 31
-0.157885
 12
0.051014
 22
-0.408945
 32
-0.120090
 13
0.051014
 23
-0.408945
 33
-0.120090
 62
0
  0
3DFACE
  8
NoName1
 10
0.196712
 20
-0.297294
 30
-0.266858
 11
0.165651
 21
-0.360037
 31
-0.192280
 12
0.176601
 22
-0.308171
 32
-0.191486
 13
0.176601
 23
-0.308171
 33
-0.191486
 62
0
  0
3DFACE
  8
NoName1
 10
0.082676
 20
-0.264450
 30
-0.340891
 11
0.098466
 21
-0.251939
 31
-0.285519
 12
0.047822
 22
-0.292817
 32
-0.266489
 13
0.047822
 23
-0.292817
 33
-0.266489
 62
0
  0
3DFACE
  8
NoName1
 10
0.167561
 20
-0.161011
 30
-0.006005
 11
0.207112
 21
-0.051154
 31
-0.113296
 12
0.170481
 22
-0.103366
 32
-0.115550
 13
0.170481
 23
-0.103366
 33
-0.115550
 62
0
  0
3DFACE
  8
NoName1
 10
0.207112
 20
-0.051154
 30
-0.113296
 11
0.210881
 21
-0.029077
 31
-0.180963
 12
0.170481
 22
-0.103366
 32
-0.115550
 13
0.170481
 23
-0.103366
 33
-0.115550
 62
0
  0
3DFACE
  8
NoName1
 10
-0.004558
 20
0.287148
 30
0.250608
 11
0.019448
 21
0.256646
 31
0.310160
 12
0.046454
 22
0.295723
 32
0.276272
 13
0.046454
 23
0.295723
 33
0.276272
 62
0
  0
3DFACE
  8
NoName1
 10
0.243732
 20
0.155338
 30
-0.094821
 11
0.186215
 21
0.042705
 31
-0.039304
 12
0.170802
 22
0.117968
 32
-0.090542
 13
0.170802
 23
0.117968
 33
-0.090542
 62
0
  0
3DFACE
  8
NoName1
 10
-0.484046
 20
-0.376840
 30
0.138587
 11
-0.461929
 21
-0.477869
 31
0.157833
 12
-0.514858
 22
-0.393482
 32
0.070650
 13
-0.514858
 23
-0.393482
 33
0.070650
 62
0
  0
3DFACE
  8
NoName1
 10
0.104822
 20
-0.341936
 30
-0.171423
 11
0.035669
 21
-0.340884
 31
-0.207442
 12
0.108345
 22
-0.282322
 32
-0.221674
 13
0.108345
 23
-0.282322
 33
-0.221674
 62
0
  0
3DFACE
  8
NoName1
 10
-0.397786
 20
-0.073494
 30
-0.275041
 11
-0.418737
 21
-0.071982
 31
-0.317614
 12
-0.390374
 22
-0.151154
 32
-0.242565
 13
-0.390374
 23
-0.151154
 33
-0.242565
 62
0
  0
3DFACE
  8
NoName1
 10
0.041336
 20
0.124173
 30
0.345004
 11
0.001491
 21
0.165615
 31
0.285255
 12
0.021992
 22
0.198658
 32
0.324933
 13
0.021992
 23
0.198658
 33
0.324933
 62
0
  0
3DFACE
  8
NoName1
 10
0.360354
 20
0.163572
 30
0.193158
 11
0.340068
 21
0.124808
 31
0.185402
 12
0.385862
 22
0.080042
 32
0.215347
 13
0.385862
 23
0.080042
 33
0.215347
 62
0
  0
3DFACE
  8
NoName1
 10
-0.007468
 20
-0.011596
 30
-0.169615
 11
-0.021412
 21
-0.085872
 31
-0.168684
 12
0.060332
 22
-0.033431
 32
-0.190298
 13
0.060332
 23
-0.033431
 33
-0.190298
 62
0
  0
3DFACE
  8
NoName1
 10
-0.158685
 20
0.136753
 30
-0.178762
 11
-0.117921
 21
0.199368
 31
-0.218297
 12
-0.178163
 22
0.158381
 32
-0.228640
 13
-0.178163
 23
0.158381
 33
-0.228640
 62
0
  0
3DFACE
  8
NoName1
 10
-0.233925
 20
-0.672485
 30
0.117482
 11
-0.166148
 21
-0.654824
 31
0.158791
 12
-0.110075
 22
-0.672868
 32
0.081064
 13
-0.110075
 23
-0.672868
 33
0.081064
 62
0
  0
3DFACE
  8
NoName1
 10
-0.221445
 20
0.075815
 30
-0.163207
 11
-0.144789
 21
0.049953
 31
-0.168611
 12
-0.158685
 22
0.136753
 32
-0.178762
 13
-0.158685
 23
0.136753
 33
-0.178762
 62
0
  0
3DFACE
  8
NoName1
 10
0.136001
 20
0.113824
 30
-0.165818
 11
-0.007468
 21
-0.011596
 31
-0.169615
 12
0.108035
 22
0.028380
 32
-0.200647
 13
0.108035
 23
0.028380
 33
-0.200647
 62
0
  0
3DFACE
  8
NoName1
 10
0.073862
 20
-0.417755
 30
-0.077777
 11
0.014074
 21
-0.382369
 31
-0.097504
 12
0.051014
 22
-0.408945
 32
-0.120090
 13
0.051014
 23
-0.408945
 33
-0.120090
 62
0
  0
3DFACE
  8
NoName1
 10
-0.091697
 20
0.304606
 30
-0.379776
 11
-0.136181
 21
0.301025
 31
-0.415579
 12
-0.117768
 22
0.239598
 32
-0.354310
 13
-0.117768
 23
0.239598
 33
-0.354310
 62
0
  0
3DFACE
  8
NoName1
 10
-0.028785
 20
0.245311
 30
0.327836
 11
-0.003006
 21
0.306558
 31
0.278111
 12
0.003631
 22
0.298429
 32
0.319640
 13
0.003631
 23
0.298429
 33
0.319640
 62
0
  0
3DFACE
  8
NoName1
 10
0.140851
 20
-0.378693
 30
-0.136025
 11
0.117613
 21
-0.423950
 31
-0.119011
 12
0.051014
 22
-0.408945
 32
-0.120090
 13
0.051014
 23
-0.408945
 33
-0.120090
 62
0
  0
3DFACE
  8
NoName1
 10
-0.336640
 20
-0.095491
 30
-0.051161
 11
-0.386604
 21
-0.126852
 31
0.042715
 12
-0.338788
 22
-0.181610
 32
-0.100538
 13
-0.338788
 23
-0.181610
 33
-0.100538
 62
0
  0
3DFACE
  8
NoName1
 10
0.227846
 20
0.372813
 30
0.089048
 11
0.152612
 21
0.353846
 31
0.133392
 12
0.180720
 22
0.339526
 32
0.087875
 13
0.180720
 23
0.339526
 33
0.087875
 62
0
  0
3DFACE
  8
NoName1
 10
-0.386604
 20
-0.126852
 30
0.042715
 11
-0.367784
 21
-0.084103
 31
0.083193
 12
-0.370141
 22
-0.138763
 32
0.136170
 13
-0.370141
 23
-0.138763
 33
0.136170
 62
0
  0
3DFACE
  8
NoName1
 10
0.014074
 20
-0.382369
 30
-0.097504
 11
0.073862
 21
-0.417755
 31
-0.077777
 12
0.057087
 22
-0.389860
 32
-0.048471
 13
0.057087
 23
-0.389860
 33
-0.048471
 62
0
  0
3DFACE
  8
NoName1
 10
-0.514858
 20
-0.393482
 30
0.070650
 11
-0.525468
 21
-0.429921
 31
0.021375
 12
-0.543776
 22
-0.336194
 32
-0.022221
 13
-0.543776
 23
-0.336194
 33
-0.022221
 62
0
  0
3DFACE
  8
NoName1
 10
0.149816
 20
0.285842
 30
0.348616
 11
0.217910
 21
0.250769
 31
0.369810
 12
0.127038
 22
0.242153
 32
0.386183
 13
0.127038
 23
0.242153
 33
0.386183
 62
0
  0
3DFACE
  8
NoName1
 10
-0.271558
 20
0.146388
 30
-0.137957
 11
-0.265320
 21
0.283149
 31
-0.223038
 12
-0.260984
 22
0.227975
 32
-0.119000
 13
-0.260984
 23
0.227975
 33
-0.119000
 62
0
  0
3DFACE
  8
NoName1
 10
-0.402097
 20
-0.586833
 30
0.094555
 11
-0.318858
 21
-0.632455
 31
0.165206
 12
-0.329211
 22
-0.633981
 32
0.080531
 13
-0.329211
 23
-0.633981
 33
0.080531
 62
0
  0
3DFACE
  8
NoName1
 10
0.360354
 20
0.163572
 30
0.193158
 11
0.334608
 21
0.171323
 31
0.151958
 12
0.340068
 22
0.124808
 32
0.185402
 13
0.340068
 23
0.124808
 33
0.185402
 62
0
  0
3DFACE
  8
NoName1
 10
-0.334017
 20
-0.258533
 30
-0.142554
 11
-0.264202
 21
-0.157870
 31
-0.141453
 12
-0.338788
 22
-0.181610
 32
-0.100538
 13
-0.338788
 23
-0.181610
 33
-0.100538
 62
0
  0
3DFACE
  8
NoName1
 10
-0.194469
 20
-0.453516
 30
-0.152135
 11
-0.264803
 21
-0.353301
 31
-0.155364
 12
-0.346616
 22
-0.421995
 32
-0.137315
 13
-0.346616
 23
-0.421995
 33
-0.137315
 62
0
  0
3DFACE
  8
NoName1
 10
0.321795
 20
0.180190
 30
0.112739
 11
0.257111
 21
0.190650
 31
0.082705
 12
0.265863
 22
0.088635
 32
0.162324
 13
0.265863
 23
0.088635
 33
0.162324
 62
0
  0
3DFACE
  8
NoName1
 10
-0.556198
 20
-0.081604
 30
-0.198923
 11
-0.557931
 21
-0.053964
 31
-0.290278
 12
-0.532662
 22
-0.017585
 32
-0.258087
 13
-0.532662
 23
-0.017585
 33
-0.258087
 62
0
  0
3DFACE
  8
NoName1
 10
-0.008799
 20
-0.497695
 30
-0.206993
 11
0.037071
 21
-0.541958
 31
-0.135433
 12
0.074128
 22
-0.494403
 32
-0.153447
 13
0.074128
 23
-0.494403
 33
-0.153447
 62
0
  0
3DFACE
  8
NoName1
 10
-0.545391
 20
-0.268940
 30
-0.098130
 11
-0.541379
 21
-0.258527
 31
-0.161693
 12
-0.532732
 22
-0.159838
 32
-0.124348
 13
-0.532732
 23
-0.159838
 33
-0.124348
 62
0
  0
3DFACE
  8
NoName1
 10
-0.506973
 20
-0.312376
 30
0.058281
 11
-0.442888
 21
-0.231304
 31
0.039647
 12
-0.448782
 22
-0.223225
 32
0.070403
 13
-0.448782
 23
-0.223225
 33
0.070403
 62
0
  0
3DFACE
  8
NoName1
 10
0.181109
 20
0.023339
 30
-0.226687
 11
0.130205
 21
-0.090859
 31
-0.166154
 12
0.210881
 22
-0.029077
 32
-0.180963
 13
0.210881
 23
-0.029077
 33
-0.180963
 62
0
  0
3DFACE
  8
NoName1
 10
0.059207
 20
0.326255
 30
0.258504
 11
-0.003006
 21
0.306558
 31
0.278111
 12
-0.004558
 22
0.287148
 32
0.250608
 13
-0.004558
 23
0.287148
 33
0.250608
 62
0
  0
3DFACE
  8
NoName1
 10
-0.037838
 20
-0.642970
 30
0.034760
 11
-0.070149
 21
-0.632177
 31
-0.045951
 12
-0.152576
 22
-0.654130
 32
0.028203
 13
-0.152576
 23
-0.654130
 33
0.028203
 62
0
  0
3DFACE
  8
NoName1
 10
-0.070149
 20
-0.632177
 30
-0.045951
 11
-0.037838
 21
-0.642970
 31
0.034760
 12
0.001401
 22
-0.601915
 32
-0.073219
 13
0.001401
 23
-0.601915
 33
-0.073219
 62
0
  0
3DFACE
  8
NoName1
 10
-0.418737
 20
-0.071982
 30
-0.317614
 11
-0.443928
 21
-0.033335
 31
-0.331901
 12
-0.489642
 22
-0.113607
 32
-0.317531
 13
-0.489642
 23
-0.113607
 33
-0.317531
 62
0
  0
3DFACE
  8
NoName1
 10
-0.423246
 20
-0.159433
 30
-0.285174
 11
-0.418737
 21
-0.071982
 31
-0.317614
 12
-0.489642
 22
-0.113607
 32
-0.317531
 13
-0.489642
 23
-0.113607
 33
-0.317531
 62
0
  0
3DFACE
  8
NoName1
 10
0.001834
 20
0.211718
 30
0.370293
 11
0.053390
 21
0.220724
 31
0.399328
 12
0.071748
 22
0.195685
 32
0.386335
 13
0.071748
 23
0.195685
 33
0.386335
 62
0
  0
3DFACE
  8
NoName1
 10
0.103483
 20
-0.309911
 30
-0.364181
 11
0.082676
 21
-0.264450
 31
-0.340891
 12
0.023910
 22
-0.351458
 32
-0.308757
 13
0.023910
 23
-0.351458
 33
-0.308757
 62
0
  0
3DFACE
  8
NoName1
 10
-0.405502
 20
-0.215987
 30
-0.207538
 11
-0.446462
 21
-0.289000
 31
-0.160966
 12
-0.391642
 22
-0.220079
 32
-0.161456
 13
-0.391642
 23
-0.220079
 33
-0.161456
 62
0
  0
3DFACE
  8
NoName1
 10
0.082676
 20
-0.264450
 30
-0.340891
 11
0.103483
 21
-0.309911
 31
-0.364181
 12
0.141637
 22
-0.271924
 32
-0.361382
 13
0.141637
 23
-0.271924
 33
-0.361382
 62
0
  0
3DFACE
  8
NoName1
 10
-0.007468
 20
-0.011596
 30
-0.169615
 11
-0.059172
 21
0.000099
 31
-0.140883
 12
-0.125312
 22
-0.090547
 32
-0.163484
 13
-0.125312
 23
-0.090547
 33
-0.163484
 62
0
  0
3DFACE
  8
NoName1
 10
0.192443
 20
-0.079569
 30
-0.012965
 11
0.199367
 21
-0.023016
 31
0.008623
 12
0.186215
 22
0.042705
 32
-0.039304
 13
0.186215
 23
0.042705
 33
-0.039304
 62
0
  0
3DFACE
  8
NoName1
 10
0.328009
 20
0.063362
 30
-0.247661
 11
0.382407
 21
0.171302
 31
-0.351833
 12
0.343378
 22
0.121776
 32
-0.327689
 13
0.343378
 23
0.121776
 33
-0.327689
 62
0
  0
3DFACE
  8
NoName1
 10
0.199408
 20
-0.350529
 30
-0.296008
 11
0.167173
 21
-0.357206
 31
-0.341265
 12
0.152127
 22
-0.422535
 32
-0.271100
 13
0.152127
 23
-0.422535
 33
-0.271100
 62
0
  0
3DFACE
  8
NoName1
 10
-0.385730
 20
-0.564650
 30
0.193497
 11
-0.402097
 21
-0.586833
 31
0.094555
 12
-0.468220
 22
-0.515310
 32
0.040869
 13
-0.468220
 23
-0.515310
 33
0.040869
 62
0
  0
3DFACE
  8
NoName1
 10
0.214336
 20
0.058544
 30
0.117604
 11
0.217971
 21
0.025659
 31
0.185880
 12
0.201550
 22
0.126598
 32
0.097994
 13
0.201550
 23
0.126598
 33
0.097994
 62
0
  0
3DFACE
  8
NoName1
 10
-0.443928
 20
-0.033335
 30
-0.331901
 11
-0.484107
 21
-0.023590
 31
-0.328176
 12
-0.489642
 22
-0.113607
 32
-0.317531
 13
-0.489642
 23
-0.113607
 33
-0.317531
 62
0
  0
3DFACE
  8
NoName1
 10
0.284759
 20
0.140855
 30
-0.320865
 11
0.382407
 21
0.171302
 31
-0.351833
 12
0.317979
 22
0.199405
 32
-0.339657
 13
0.317979
 23
0.199405
 33
-0.339657
 62
0
  0
3DFACE
  8
NoName1
 10
0.077900
 20
0.214866
 30
0.101296
 11
0.146033
 21
0.162341
 31
0.073589
 12
0.146317
 22
0.204687
 32
0.080346
 13
0.146317
 23
0.204687
 33
0.080346
 62
0
  0
3DFACE
  8
NoName1
 10
-0.484107
 20
-0.023590
 30
-0.328176
 11
-0.532662
 21
-0.017585
 31
-0.258087
 12
-0.557931
 22
-0.053964
 32
-0.290278
 13
-0.557931
 23
-0.053964
 33
-0.290278
 62
0
  0
3DFACE
  8
NoName1
 10
-0.338788
 20
-0.181610
 30
-0.100538
 11
-0.301237
 21
-0.064452
 31
-0.087220
 12
-0.336640
 22
-0.095491
 32
-0.051161
 13
-0.336640
 23
-0.095491
 33
-0.051161
 62
0
  0
3DFACE
  8
NoName1
 10
0.103483
 20
-0.309911
 30
-0.364181
 11
0.085783
 21
-0.380243
 31
-0.338178
 12
0.167173
 22
-0.357206
 32
-0.341265
 13
0.167173
 23
-0.357206
 33
-0.341265
 62
0
  0
3DFACE
  8
NoName1
 10
-0.178163
 20
0.158381
 30
-0.228640
 11
-0.221445
 21
0.075815
 31
-0.163207
 12
-0.158685
 22
0.136753
 32
-0.178762
 13
-0.158685
 23
0.136753
 33
-0.178762
 62
0
  0
3DFACE
  8
NoName1
 10
0.001401
 20
-0.601915
 30
-0.073219
 11
0.037071
 21
-0.541958
 31
-0.135433
 12
-0.028704
 22
-0.585274
 32
-0.132039
 13
-0.028704
 23
-0.585274
 33
-0.132039
 62
0
  0
3DFACE
  8
NoName1
 10
0.210881
 20
-0.029077
 30
-0.180963
 11
0.130205
 21
-0.090859
 31
-0.166154
 12
0.170481
 22
-0.103366
 32
-0.115550
 13
0.170481
 23
-0.103366
 33
-0.115550
 62
0
  0
3DFACE
  8
NoName1
 10
0.127038
 20
0.242153
 30
0.386183
 11
0.111624
 21
0.311349
 31
0.356017
 12
0.149816
 22
0.285842
 32
0.348616
 13
0.149816
 23
0.285842
 33
0.348616
 62
0
  0
3DFACE
  8
NoName1
 10
0.146033
 20
0.162341
 30
0.073589
 11
0.201550
 21
0.126598
 31
0.097994
 12
0.146317
 22
0.204687
 32
0.080346
 13
0.146317
 23
0.204687
 33
0.080346
 62
0
  0
3DFACE
  8
NoName1
 10
-0.455913
 20
-0.362144
 30
-0.141683
 11
-0.446462
 21
-0.289000
 31
-0.160966
 12
-0.511618
 22
-0.326184
 32
-0.139350
 13
-0.511618
 23
-0.326184
 33
-0.139350
 62
0
  0
3DFACE
  8
NoName1
 10
-0.536797
 20
-0.069509
 30
-0.318903
 11
-0.484107
 21
-0.023590
 31
-0.328176
 12
-0.557931
 22
-0.053964
 32
-0.290278
 13
-0.557931
 23
-0.053964
 33
-0.290278
 62
0
  0
3DFACE
  8
NoName1
 10
0.104822
 20
-0.341936
 30
-0.171423
 11
-0.010781
 21
-0.392999
 31
-0.157885
 12
0.035669
 22
-0.340884
 32
-0.207442
 13
0.035669
 23
-0.340884
 33
-0.207442
 62
0
  0
3DFACE
  8
NoName1
 10
0.382407
 20
0.171302
 30
-0.351833
 11
0.284759
 21
0.140855
 31
-0.320865
 12
0.343378
 22
0.121776
 32
-0.327689
 13
0.343378
 23
0.121776
 33
-0.327689
 62
0
  0
3DFACE
  8
NoName1
 10
0.021992
 20
0.198658
 30
0.324933
 11
0.001491
 21
0.165615
 31
0.285255
 12
0.038786
 22
0.258441
 32
0.298978
 13
0.038786
 23
0.258441
 33
0.298978
 62
0
  0
3DFACE
  8
NoName1
 10
-0.196727
 20
-0.054527
 30
-0.151348
 11
-0.264202
 21
-0.157870
 31
-0.141453
 12
-0.215430
 22
-0.128063
 32
-0.166347
 13
-0.215430
 23
-0.128063
 33
-0.166347
 62
0
  0
3DFACE
  8
NoName1
 10
-0.215430
 20
-0.128063
 30
-0.166347
 11
-0.264202
 21
-0.157870
 31
-0.141453
 12
-0.249333
 22
-0.231928
 32
-0.160503
 13
-0.249333
 23
-0.231928
 33
-0.160503
 62
0
  0
3DFACE
  8
NoName1
 10
-0.106233
 20
-0.574626
 30
-0.124092
 11
-0.070149
 21
-0.632177
 31
-0.045951
 12
-0.028704
 22
-0.585274
 32
-0.132039
 13
-0.028704
 23
-0.585274
 33
-0.132039
 62
0
  0
3DFACE
  8
NoName1
 10
-0.142426
 20
-0.348386
 30
-0.159754
 11
-0.249333
 21
-0.231928
 31
-0.160503
 12
-0.264803
 22
-0.353301
 32
-0.155364
 13
-0.264803
 23
-0.353301
 33
-0.155364
 62
0
  0
3DFACE
  8
NoName1
 10
-0.443515
 20
-0.516805
 30
0.169359
 11
-0.385730
 21
-0.564650
 31
0.193497
 12
-0.468220
 22
-0.515310
 32
0.040869
 13
-0.468220
 23
-0.515310
 33
0.040869
 62
0
  0
3DFACE
  8
NoName1
 10
-0.301237
 20
-0.064452
 30
-0.087220
 11
-0.196727
 21
-0.054527
 31
-0.151348
 12
-0.247603
 22
0.003831
 32
-0.121076
 13
-0.247603
 23
0.003831
 33
-0.121076
 62
0
  0
3DFACE
  8
NoName1
 10
0.209376
 20
0.128436
 30
-0.256768
 11
0.181109
 21
0.023339
 31
-0.226687
 12
0.284759
 22
0.140855
 32
-0.320865
 13
0.284759
 23
0.140855
 33
-0.320865
 62
0
  0
3DFACE
  8
NoName1
 10
0.385862
 20
0.080042
 30
0.215347
 11
0.389010
 21
0.065932
 31
0.256284
 12
0.411458
 22
0.085498
 32
0.188984
 13
0.411458
 23
0.085498
 33
0.188984
 62
0
  0
3DFACE
  8
NoName1
 10
-0.468220
 20
-0.515310
 30
0.040869
 11
-0.461929
 21
-0.477869
 31
0.157833
 12
-0.443515
 22
-0.516805
 32
0.169359
 13
-0.443515
 23
-0.516805
 33
0.169359
 62
0
  0
3DFACE
  8
NoName1
 10
-0.028785
 20
0.245311
 30
0.327836
 11
0.019448
 21
0.256646
 31
0.310160
 12
-0.004558
 22
0.287148
 32
0.250608
 13
-0.004558
 23
0.287148
 33
0.250608
 62
0
  0
3DFACE
  8
NoName1
 10
-0.525468
 20
-0.429921
 30
0.021375
 11
-0.461929
 21
-0.477869
 31
0.157833
 12
-0.468220
 22
-0.515310
 32
0.040869
 13
-0.468220
 23
-0.515310
 33
0.040869
 62
0
  0
3DFACE
  8
NoName1
 10
0.102132
 20
-0.435675
 30
-0.293033
 11
-0.008799
 21
-0.497695
 31
-0.206993
 12
0.091227
 22
-0.469356
 32
-0.230193
 13
0.091227
 23
-0.469356
 33
-0.230193
 62
0
  0
3DFACE
  8
NoName1
 10
-0.525468
 20
-0.429921
 30
0.021375
 11
-0.514858
 21
-0.393482
 31
0.070650
 12
-0.461929
 22
-0.477869
 32
0.157833
 13
-0.461929
 23
-0.477869
 33
0.157833
 62
0
  0
3DFACE
  8
NoName1
 10
-0.028785
 20
0.245311
 30
0.327836
 11
0.038786
 21
0.258441
 31
0.298978
 12
0.019448
 22
0.256646
 32
0.310160
 13
0.019448
 23
0.256646
 33
0.310160
 62
0
  0
3DFACE
  8
NoName1
 10
0.021992
 20
0.198658
 30
0.324933
 11
0.038786
 21
0.258441
 31
0.298978
 12
0.001834
 22
0.211718
 32
0.370293
 13
0.001834
 23
0.211718
 33
0.370293
 62
0
  0
3DFACE
  8
NoName1
 10
0.284759
 20
0.140855
 30
-0.320865
 11
0.181109
 21
0.023339
 31
-0.226687
 12
0.274180
 22
0.062556
 32
-0.260115
 13
0.274180
 23
0.062556
 33
-0.260115
 62
0
  0
3DFACE
  8
NoName1
 10
-0.274511
 20
-0.546836
 30
-0.066094
 11
-0.106233
 21
-0.574626
 31
-0.124092
 12
-0.165112
 22
-0.514943
 32
-0.148687
 13
-0.165112
 23
-0.514943
 33
-0.148687
 62
0
  0
3DFACE
  8
NoName1
 10
0.007022
 20
-0.340365
 30
-0.261272
 11
-0.008746
 21
-0.410782
 31
-0.247537
 12
0.023910
 22
-0.351458
 32
-0.308757
 13
0.023910
 23
-0.351458
 33
-0.308757
 62
0
  0
3DFACE
  8
NoName1
 10
0.012219
 20
-0.447207
 30
-0.277101
 11
-0.008799
 21
-0.497695
 31
-0.206993
 12
0.102132
 22
-0.435675
 32
-0.293033
 13
0.102132
 23
-0.435675
 33
-0.293033
 62
0
  0
3DFACE
  8
NoName1
 10
0.379493
 20
0.194678
 30
0.208246
 11
0.385693
 21
0.164374
 31
0.254941
 12
0.385862
 22
0.080042
 32
0.215347
 13
0.385862
 23
0.080042
 33
0.215347
 62
0
  0
3DFACE
  8
NoName1
 10
-0.264202
 20
-0.157870
 30
-0.141453
 11
-0.334017
 21
-0.258533
 31
-0.142554
 12
-0.249333
 22
-0.231928
 32
-0.160503
 13
-0.249333
 23
-0.231928
 33
-0.160503
 62
0
  0
3DFACE
  8
NoName1
 10
-0.423246
 20
-0.159433
 30
-0.285174
 11
-0.405502
 21
-0.215987
 31
-0.207538
 12
-0.390374
 22
-0.151154
 32
-0.242565
 13
-0.390374
 23
-0.151154
 33
-0.242565
 62
0
  0
3DFACE
  8
NoName1
 10
-0.028785
 20
0.245311
 30
0.327836
 11
0.001834
 21
0.211718
 31
0.370293
 12
0.038786
 22
0.258441
 32
0.298978
 13
0.038786
 23
0.258441
 33
0.298978
 62
0
  0
3DFACE
  8
NoName1
 10
-0.489642
 20
-0.113607
 30
-0.317531
 11
-0.484107
 21
-0.023590
 31
-0.328176
 12
-0.536797
 22
-0.069509
 32
-0.318903
 13
-0.536797
 23
-0.069509
 33
-0.318903
 62
0
  0
3DFACE
  8
NoName1
 10
0.023910
 20
-0.351458
 30
-0.308757
 11
0.012219
 21
-0.447207
 31
-0.277101
 12
0.085783
 22
-0.380243
 32
-0.338178
 13
0.085783
 23
-0.380243
 33
-0.338178
 62
0
  0
3DFACE
  8
NoName1
 10
-0.489642
 20
-0.113607
 30
-0.317531
 11
-0.474943
 21
-0.222718
 31
-0.231916
 12
-0.423246
 22
-0.159433
 32
-0.285174
 13
-0.423246
 23
-0.159433
 33
-0.285174
 62
0
  0
3DFACE
  8
NoName1
 10
-0.334017
 20
-0.258533
 30
-0.142554
 11
-0.375240
 21
-0.336407
 31
-0.149315
 12
-0.264803
 22
-0.353301
 32
-0.155364
 13
-0.264803
 23
-0.353301
 33
-0.155364
 62
0
  0
3DFACE
  8
NoName1
 10
-0.346616
 20
-0.421995
 30
-0.137315
 11
-0.269905
 21
-0.473732
 31
-0.122183
 12
-0.194469
 22
-0.453516
 32
-0.152135
 13
-0.194469
 23
-0.453516
 33
-0.152135
 62
0
  0
3DFACE
  8
NoName1
 10
-0.247557
 20
0.181174
 30
-0.222740
 11
-0.189612
 21
0.224073
 31
-0.343561
 12
-0.235911
 22
0.258691
 32
-0.317049
 13
-0.235911
 23
0.258691
 33
-0.317049
 62
0
  0
3DFACE
  8
NoName1
 10
-0.264202
 20
-0.157870
 30
-0.141453
 11
-0.301237
 21
-0.064452
 31
-0.087220
 12
-0.338788
 22
-0.181610
 32
-0.100538
 13
-0.338788
 23
-0.181610
 33
-0.100538
 62
0
  0
3DFACE
  8
NoName1
 10
-0.136181
 20
0.301025
 30
-0.415579
 11
-0.189612
 21
0.224073
 31
-0.343561
 12
-0.117768
 22
0.239598
 32
-0.354310
 13
-0.117768
 23
0.239598
 33
-0.354310
 62
0
  0
3DFACE
  8
NoName1
 10
0.012219
 20
-0.447207
 30
-0.277101
 11
0.023910
 21
-0.351458
 31
-0.308757
 12
-0.008746
 22
-0.410782
 32
-0.247537
 13
-0.008746
 23
-0.410782
 33
-0.247537
 62
0
  0
3DFACE
  8
NoName1
 10
0.360354
 20
0.163572
 30
0.193158
 11
0.385693
 21
0.164374
 31
0.254941
 12
0.356843
 22
0.236454
 32
0.188190
 13
0.356843
 23
0.236454
 33
0.188190
 62
0
  0
3DFACE
  8
NoName1
 10
-0.152576
 20
-0.654130
 30
0.028203
 11
-0.110075
 21
-0.672868
 31
0.081064
 12
-0.037838
 22
-0.642970
 32
0.034760
 13
-0.037838
 23
-0.642970
 33
0.034760
 62
0
  0
3DFACE
  8
NoName1
 10
-0.254486
 20
-0.636967
 30
0.022955
 11
-0.152576
 21
-0.654130
 31
0.028203
 12
-0.070149
 22
-0.632177
 32
-0.045951
 13
-0.070149
 23
-0.632177
 33
-0.045951
 62
0
  0
3DFACE
  8
NoName1
 10
-0.269905
 20
-0.473732
 30
-0.122183
 11
-0.274511
 21
-0.546836
 31
-0.066094
 12
-0.165112
 22
-0.514943
 32
-0.148687
 13
-0.165112
 23
-0.514943
 33
-0.148687
 62
0
  0
3DFACE
  8
NoName1
 10
-0.274511
 20
-0.546836
 30
-0.066094
 11
-0.254486
 21
-0.636967
 31
0.022955
 12
-0.106233
 22
-0.574626
 32
-0.124092
 13
-0.106233
 23
-0.574626
 33
-0.124092
 62
0
  0
3DFACE
  8
NoName1
 10
-0.106233
 20
-0.574626
 30
-0.124092
 11
-0.254486
 21
-0.636967
 31
0.022955
 12
-0.070149
 22
-0.632177
 32
-0.045951
 13
-0.070149
 23
-0.632177
 33
-0.045951
 62
0
  0
3DFACE
  8
NoName1
 10
0.360354
 20
0.163572
 30
0.193158
 11
0.385862
 21
0.080042
 31
0.215347
 12
0.385693
 22
0.164374
 32
0.254941
 13
0.385693
 23
0.164374
 33
0.254941
 62
0
  0
3DFACE
  8
NoName1
 10
0.357018
 20
0.087880
 30
0.235996
 11
0.385862
 21
0.080042
 31
0.215347
 12
0.340068
 22
0.124808
 32
0.185402
 13
0.340068
 23
0.124808
 33
0.185402
 62
0
  0
3DFACE
  8
NoName1
 10
-0.375240
 20
-0.336407
 30
-0.149315
 11
-0.334017
 21
-0.258533
 31
-0.142554
 12
-0.378820
 22
-0.263282
 32
-0.146720
 13
-0.378820
 23
-0.263282
 33
-0.146720
 62
0
  0
3DFACE
  8
NoName1
 10
-0.375240
 20
-0.336407
 30
-0.149315
 11
-0.346616
 21
-0.421995
 31
-0.137315
 12
-0.264803
 22
-0.353301
 32
-0.155364
 13
-0.264803
 23
-0.353301
 33
-0.155364
 62
0
  0
3DFACE
  8
NoName1
 10
-0.334017
 20
-0.258533
 30
-0.142554
 11
-0.408972
 21
-0.220249
 31
-0.070614
 12
-0.378820
 22
-0.263282
 32
-0.146720
 13
-0.378820
 23
-0.263282
 33
-0.146720
 62
0
  0
3DFACE
  8
NoName1
 10
-0.391642
 20
-0.220079
 30
-0.161456
 11
-0.446462
 21
-0.289000
 31
-0.160966
 12
-0.378820
 22
-0.263282
 32
-0.146720
 13
-0.378820
 23
-0.263282
 33
-0.146720
 62
0
  0
3DFACE
  8
NoName1
 10
-0.556170
 20
-0.150396
 30
-0.278662
 11
-0.536797
 21
-0.069509
 31
-0.318903
 12
-0.557931
 22
-0.053964
 32
-0.290278
 13
-0.557931
 23
-0.053964
 33
-0.290278
 62
0
  0
3DFACE
  8
NoName1
 10
-0.556170
 20
-0.150396
 30
-0.278662
 11
-0.474943
 21
-0.222718
 31
-0.231916
 12
-0.489642
 22
-0.113607
 32
-0.317531
 13
-0.489642
 23
-0.113607
 33
-0.317531
 62
0
  0
3DFACE
  8
NoName1
 10
-0.346616
 20
-0.421995
 30
-0.137315
 11
-0.274511
 21
-0.546836
 31
-0.066094
 12
-0.269905
 22
-0.473732
 32
-0.122183
 13
-0.269905
 23
-0.473732
 33
-0.122183
 62
0
  0
3DFACE
  8
NoName1
 10
0.035669
 20
-0.340884
 30
-0.207442
 11
-0.010781
 21
-0.392999
 31
-0.157885
 12
-0.048792
 22
-0.438941
 32
-0.190641
 13
-0.048792
 23
-0.438941
 33
-0.190641
 62
0
  0
3DFACE
  8
NoName1
 10
0.012219
 20
-0.447207
 30
-0.277101
 11
-0.008746
 21
-0.410782
 31
-0.247537
 12
-0.008799
 22
-0.497695
 32
-0.206993
 13
-0.008799
 23
-0.497695
 33
-0.206993
 62
0
  0
3DFACE
  8
NoName1
 10
-0.375240
 20
-0.336407
 30
-0.149315
 11
-0.446462
 21
-0.289000
 31
-0.160966
 12
-0.455913
 22
-0.362144
 32
-0.141683
 13
-0.455913
 23
-0.362144
 33
-0.141683
 62
0
  0
3DFACE
  8
NoName1
 10
-0.564686
 20
-0.154847
 30
-0.214024
 11
-0.474943
 21
-0.222718
 31
-0.231916
 12
-0.556170
 22
-0.150396
 32
-0.278662
 13
-0.556170
 23
-0.150396
 33
-0.278662
 62
0
  0
3DFACE
  8
NoName1
 10
0.357018
 20
0.087880
 30
0.235996
 11
0.340068
 21
0.124808
 31
0.185402
 12
0.309818
 22
0.061837
 32
0.220646
 13
0.309818
 23
0.061837
 33
0.220646
 62
0
  0
3DFACE
  8
NoName1
 10
-0.564686
 20
-0.154847
 30
-0.214024
 11
-0.556170
 21
-0.150396
 31
-0.278662
 12
-0.557931
 22
-0.053964
 32
-0.290278
 13
-0.557931
 23
-0.053964
 33
-0.290278
 62
0
  0
3DFACE
  8
NoName1
 10
-0.346616
 20
-0.421995
 30
-0.137315
 11
-0.375240
 21
-0.336407
 31
-0.149315
 12
-0.455913
 22
-0.362144
 32
-0.141683
 13
-0.455913
 23
-0.362144
 33
-0.141683
 62
0
  0
3DFACE
  8
NoName1
 10
-0.296536
 20
-0.062815
 30
0.176885
 11
-0.304347
 21
-0.031950
 31
0.142579
 12
-0.283759
 22
0.035991
 32
0.119376
 13
-0.283759
 23
0.035991
 33
0.119376
 62
0
  0
3DFACE
  8
NoName1
 10
0.210881
 20
-0.029077
 30
-0.180963
 11
0.274180
 21
0.062556
 31
-0.260115
 12
0.181109
 22
0.023339
 32
-0.226687
 13
0.181109
 23
0.023339
 33
-0.226687
 62
0
  0
3DFACE
  8
NoName1
 10
-0.455913
 20
-0.362144
 30
-0.141683
 11
-0.432608
 21
-0.484553
 31
-0.048011
 12
-0.346616
 22
-0.421995
 32
-0.137315
 13
-0.346616
 23
-0.421995
 33
-0.137315
 62
0
  0
3DFACE
  8
NoName1
 10
-0.432608
 20
-0.484553
 30
-0.048011
 11
-0.274511
 21
-0.546836
 31
-0.066094
 12
-0.346616
 22
-0.421995
 32
-0.137315
 13
-0.346616
 23
-0.421995
 33
-0.137315
 62
0
  0
3DFACE
  8
NoName1
 10
0.060332
 20
-0.033431
 30
-0.190298
 11
0.067809
 21
-0.116100
 31
-0.148997
 12
0.130205
 22
-0.090859
 32
-0.166154
 13
0.130205
 23
-0.090859
 33
-0.166154
 62
0
  0
3DFACE
  8
NoName1
 10
-0.152576
 20
-0.654130
 30
0.028203
 11
-0.233925
 21
-0.672485
 31
0.117482
 12
-0.110075
 22
-0.672868
 32
0.081064
 13
-0.110075
 23
-0.672868
 33
0.081064
 62
0
  0
3DFACE
  8
NoName1
 10
-0.541379
 20
-0.258527
 30
-0.161693
 11
-0.525113
 21
-0.251912
 31
-0.202697
 12
-0.564686
 22
-0.154847
 32
-0.214024
 13
-0.564686
 23
-0.154847
 33
-0.214024
 62
0
  0
3DFACE
  8
NoName1
 10
-0.048792
 20
-0.438941
 30
-0.190641
 11
-0.008746
 21
-0.410782
 31
-0.247537
 12
0.007022
 22
-0.340365
 32
-0.261272
 13
0.007022
 23
-0.340365
 33
-0.261272
 62
0
  0
3DFACE
  8
NoName1
 10
-0.511618
 20
-0.326184
 30
-0.139350
 11
-0.446462
 21
-0.289000
 31
-0.160966
 12
-0.474943
 22
-0.222718
 32
-0.231916
 13
-0.474943
 23
-0.222718
 33
-0.231916
 62
0
  0
3DFACE
  8
NoName1
 10
-0.525113
 20
-0.251912
 30
-0.202697
 11
-0.511618
 21
-0.326184
 31
-0.139350
 12
-0.474943
 22
-0.222718
 32
-0.231916
 13
-0.474943
 23
-0.222718
 33
-0.231916
 62
0
  0
3DFACE
  8
NoName1
 10
0.085783
 20
-0.380243
 30
-0.338178
 11
0.012219
 21
-0.447207
 31
-0.277101
 12
0.102132
 22
-0.435675
 32
-0.293033
 13
0.102132
 23
-0.435675
 33
-0.293033
 62
0
  0
3DFACE
  8
NoName1
 10
-0.474943
 20
-0.222718
 30
-0.231916
 11
-0.564686
 21
-0.154847
 31
-0.214024
 12
-0.525113
 22
-0.251912
 32
-0.202697
 13
-0.525113
 23
-0.251912
 33
-0.202697
 62
0
  0
3DFACE
  8
NoName1
 10
-0.265320
 20
0.283149
 30
-0.223038
 11
-0.235911
 21
0.258691
 31
-0.317049
 12
-0.251370
 22
0.311354
 32
-0.323275
 13
-0.251370
 23
0.311354
 33
-0.323275
 62
0
  0
3DFACE
  8
NoName1
 10
-0.511618
 20
-0.326184
 30
-0.139350
 11
-0.525113
 21
-0.251912
 31
-0.202697
 12
-0.541379
 22
-0.258527
 32
-0.161693
 13
-0.541379
 23
-0.258527
 33
-0.161693
 62
0
  0
3DFACE
  8
NoName1
 10
-0.152576
 20
-0.654130
 30
0.028203
 11
-0.254486
 21
-0.636967
 31
0.022955
 12
-0.233925
 22
-0.672485
 32
0.117482
 13
-0.233925
 23
-0.672485
 33
0.117482
 62
0
  0
3DFACE
  8
NoName1
 10
-0.247557
 20
0.181174
 30
-0.222740
 11
-0.178163
 21
0.158381
 31
-0.228640
 12
-0.164772
 22
0.194110
 32
-0.288589
 13
-0.164772
 23
0.194110
 33
-0.288589
 62
0
  0
3DFACE
  8
NoName1
 10
-0.518104
 20
-0.240045
 30
-0.040146
 11
-0.532732
 21
-0.159838
 31
-0.124348
 12
-0.507690
 22
-0.099786
 32
-0.137543
 13
-0.507690
 23
-0.099786
 33
-0.137543
 62
0
  0
3DFACE
  8
NoName1
 10
-0.008799
 20
-0.497695
 30
-0.206993
 11
-0.008746
 21
-0.410782
 31
-0.247537
 12
-0.048792
 22
-0.438941
 32
-0.190641
 13
-0.048792
 23
-0.438941
 33
-0.190641
 62
0
  0
3DFACE
  8
NoName1
 10
-0.511618
 20
-0.326184
 30
-0.139350
 11
-0.432608
 21
-0.484553
 31
-0.048011
 12
-0.455913
 22
-0.362144
 32
-0.141683
 13
-0.455913
 23
-0.362144
 33
-0.141683
 62
0
  0
3DFACE
  8
NoName1
 10
-0.489642
 20
-0.113607
 30
-0.317531
 11
-0.536797
 21
-0.069509
 31
-0.318903
 12
-0.556170
 22
-0.150396
 32
-0.278662
 13
-0.556170
 23
-0.150396
 33
-0.278662
 62
0
  0
3DFACE
  8
NoName1
 10
-0.540154
 20
-0.368836
 30
-0.084375
 11
-0.511618
 21
-0.326184
 31
-0.139350
 12
-0.541379
 22
-0.258527
 32
-0.161693
 13
-0.541379
 23
-0.258527
 33
-0.161693
 62
0
  0
3DFACE
  8
NoName1
 10
-0.540154
 20
-0.368836
 30
-0.084375
 11
-0.432608
 21
-0.484553
 31
-0.048011
 12
-0.511618
 22
-0.326184
 32
-0.139350
 13
-0.511618
 23
-0.326184
 33
-0.139350
 62
0
  0
3DFACE
  8
NoName1
 10
-0.432608
 20
-0.484553
 30
-0.048011
 11
-0.254486
 21
-0.636967
 31
0.022955
 12
-0.274511
 22
-0.546836
 32
-0.066094
 13
-0.274511
 23
-0.546836
 33
-0.066094
 62
0
  0
3DFACE
  8
NoName1
 10
0.074128
 20
-0.494403
 30
-0.153447
 11
0.091227
 21
-0.469356
 31
-0.230193
 12
-0.008799
 22
-0.497695
 32
-0.206993
 13
-0.008799
 23
-0.497695
 33
-0.206993
 62
0
  0
3DFACE
  8
NoName1
 10
-0.432608
 20
-0.484553
 30
-0.048011
 11
-0.329211
 21
-0.633981
 31
0.080531
 12
-0.254486
 22
-0.636967
 32
0.022955
 13
-0.254486
 23
-0.636967
 33
0.022955
 62
0
  0
3DFACE
  8
NoName1
 10
-0.233925
 20
-0.672485
 30
0.117482
 11
-0.254486
 21
-0.636967
 31
0.022955
 12
-0.329211
 22
-0.633981
 32
0.080531
 13
-0.329211
 23
-0.633981
 33
0.080531
 62
0
  0
3DFACE
  8
NoName1
 10
0.169191
 20
0.103165
 30
-0.215678
 11
0.181109
 21
0.023339
 31
-0.226687
 12
0.209376
 22
0.128436
 32
-0.256768
 13
0.209376
 23
0.128436
 33
-0.256768
 62
0
  0
3DFACE
  8
NoName1
 10
-0.247557
 20
0.181174
 30
-0.222740
 11
-0.164772
 21
0.194110
 31
-0.288589
 12
-0.189612
 22
0.224073
 32
-0.343561
 13
-0.189612
 23
0.224073
 33
-0.343561
 62
0
  0
3DFACE
  8
NoName1
 10
-0.540154
 20
-0.368836
 30
-0.084375
 11
-0.519942
 21
-0.438723
 31
-0.032555
 12
-0.432608
 22
-0.484553
 32
-0.048011
 13
-0.432608
 23
-0.484553
 33
-0.048011
 62
0
  0
3DFACE
  8
NoName1
 10
-0.468220
 20
-0.515310
 30
0.040869
 11
-0.402097
 21
-0.586833
 31
0.094555
 12
-0.432608
 22
-0.484553
 32
-0.048011
 13
-0.432608
 23
-0.484553
 33
-0.048011
 62
0
  0
3DFACE
  8
NoName1
 10
-0.402097
 20
-0.586833
 30
0.094555
 11
-0.329211
 21
-0.633981
 31
0.080531
 12
-0.432608
 22
-0.484553
 32
-0.048011
 13
-0.432608
 23
-0.484553
 33
-0.048011
 62
0
  0
3DFACE
  8
NoName1
 10
0.387139
 20
0.143581
 30
0.183229
 11
0.409264
 21
0.162259
 31
0.209640
 12
0.379493
 22
0.194678
 32
0.208246
 13
0.379493
 23
0.194678
 33
0.208246
 62
0
  0
3DFACE
  8
NoName1
 10
-0.519942
 20
-0.438723
 30
-0.032555
 11
-0.468220
 21
-0.515310
 31
0.040869
 12
-0.432608
 22
-0.484553
 32
-0.048011
 13
-0.432608
 23
-0.484553
 33
-0.048011
 62
0
  0
3DFACE
  8
NoName1
 10
-0.525468
 20
-0.429921
 30
0.021375
 11
-0.519942
 21
-0.438723
 31
-0.032555
 12
-0.540154
 22
-0.368836
 32
-0.084375
 13
-0.540154
 23
-0.368836
 33
-0.084375
 62
0
  0
3DFACE
  8
NoName1
 10
-0.525468
 20
-0.429921
 30
0.021375
 11
-0.468220
 21
-0.515310
 31
0.040869
 12
-0.519942
 22
-0.438723
 32
-0.032555
 13
-0.519942
 23
-0.438723
 33
-0.032555
 62
0
  0
3DFACE
  8
NoName1
 10
-0.269905
 20
-0.473732
 30
-0.122183
 11
-0.165112
 21
-0.514943
 31
-0.148687
 12
-0.194469
 22
-0.453516
 32
-0.152135
 13
-0.194469
 23
-0.453516
 33
-0.152135
 62
0
  0
3DFACE
  8
NoName1
 10
0.108035
 20
0.028380
 30
-0.200647
 11
-0.007468
 21
-0.011596
 31
-0.169615
 12
0.060332
 22
-0.033431
 32
-0.190298
 13
0.060332
 23
-0.033431
 33
-0.190298
 62
0
  0
3DFACE
  8
NoName1
 10
-0.203950
 20
0.302554
 30
-0.408284
 11
-0.216977
 21
0.355610
 31
-0.410027
 12
-0.251370
 22
0.311354
 32
-0.323275
 13
-0.251370
 23
0.311354
 33
-0.323275
 62
0
  0
3DFACE
  8
NoName1
 10
-0.189612
 20
0.224073
 30
-0.343561
 11
-0.164772
 21
0.194110
 31
-0.288589
 12
-0.117768
 22
0.239598
 32
-0.354310
 13
-0.117768
 23
0.239598
 33
-0.354310
 62
0
  0
3DFACE
  8
NoName1
 10
-0.203950
 20
0.302554
 30
-0.408284
 11
-0.189612
 21
0.224073
 31
-0.343561
 12
-0.136181
 22
0.301025
 32
-0.415579
 13
-0.136181
 23
0.301025
 33
-0.415579
 62
0
  0
3DFACE
  8
NoName1
 10
-0.010781
 20
-0.392999
 30
-0.157885
 11
-0.068098
 21
-0.407241
 31
-0.147276
 12
-0.048792
 22
-0.438941
 32
-0.190641
 13
-0.048792
 23
-0.438941
 33
-0.190641
 62
0
  0
3DFACE
  8
NoName1
 10
-0.148880
 20
-0.192778
 30
-0.169833
 11
-0.125312
 21
-0.090547
 31
-0.163484
 12
-0.215430
 22
-0.128063
 32
-0.166347
 13
-0.215430
 23
-0.128063
 33
-0.166347
 62
0
  0
3DFACE
  8
NoName1
 10
0.385862
 20
0.080042
 30
0.215347
 11
0.411458
 21
0.085498
 31
0.188984
 12
0.387139
 22
0.143581
 32
0.183229
 13
0.387139
 23
0.143581
 33
0.183229
 62
0
  0
3DFACE
  8
NoName1
 10
-0.249333
 20
-0.231928
 30
-0.160503
 11
-0.334017
 21
-0.258533
 31
-0.142554
 12
-0.264803
 22
-0.353301
 32
-0.155364
 13
-0.264803
 23
-0.353301
 33
-0.155364
 62
0
  0
3DFACE
  8
NoName1
 10
-0.247557
 20
0.181174
 30
-0.222740
 11
-0.221445
 21
0.075815
 31
-0.163207
 12
-0.178163
 22
0.158381
 32
-0.228640
 13
-0.178163
 23
0.158381
 33
-0.228640
 62
0
  0
3DFACE
  8
NoName1
 10
-0.235911
 20
0.258691
 30
-0.317049
 11
-0.203950
 21
0.302554
 31
-0.408284
 12
-0.251370
 22
0.311354
 32
-0.323275
 13
-0.251370
 23
0.311354
 33
-0.323275
 62
0
  0
3DFACE
  8
NoName1
 10
0.382873
 20
0.199503
 30
0.298735
 11
0.339921
 21
0.212275
 31
0.350489
 12
0.382000
 22
0.170430
 32
0.305451
 13
0.382000
 23
0.170430
 33
0.305451
 62
0
  0
3DFACE
  8
NoName1
 10
0.038786
 20
0.258441
 30
0.298978
 11
0.054542
 21
0.265971
 31
0.220250
 12
0.116072
 22
0.324142
 32
0.222987
 13
0.116072
 23
0.324142
 33
0.222987
 62
0
  0
3DFACE
  8
NoName1
 10
-0.247557
 20
0.181174
 30
-0.222740
 11
-0.271558
 21
0.146388
 31
-0.137957
 12
-0.221445
 22
0.075815
 32
-0.163207
 13
-0.221445
 23
0.075815
 33
-0.163207
 62
0
  0
3DFACE
  8
NoName1
 10
-0.196727
 20
-0.054527
 30
-0.151348
 11
-0.144789
 21
0.049953
 31
-0.168611
 12
-0.247603
 22
0.003831
 32
-0.121076
 13
-0.247603
 23
0.003831
 33
-0.121076
 62
0
  0
3DFACE
  8
NoName1
 10
0.181109
 20
0.023339
 30
-0.226687
 11
0.108035
 21
0.028380
 31
-0.200647
 12
0.060332
 22
-0.033431
 32
-0.190298
 13
0.060332
 23
-0.033431
 33
-0.190298
 62
0
  0
3DFACE
  8
NoName1
 10
-0.304403
 20
0.032919
 30
-0.049487
 11
-0.301237
 21
-0.064452
 31
-0.087220
 12
-0.247603
 22
0.003831
 32
-0.121076
 13
-0.247603
 23
0.003831
 33
-0.121076
 62
0
  0
3DFACE
  8
NoName1
 10
0.309818
 20
0.061837
 30
0.220646
 11
0.336007
 21
0.042815
 31
0.302227
 12
0.357018
 22
0.087880
 32
0.235996
 13
0.357018
 23
0.087880
 33
0.235996
 62
0
  0
3DFACE
  8
NoName1
 10
-0.048792
 20
-0.438941
 30
-0.190641
 11
-0.165112
 21
-0.514943
 31
-0.148687
 12
-0.008799
 22
-0.497695
 32
-0.206993
 13
-0.008799
 23
-0.497695
 33
-0.206993
 62
0
  0
3DFACE
  8
NoName1
 10
0.371575
 20
0.044106
 30
0.258076
 11
0.385862
 21
0.080042
 31
0.215347
 12
0.357018
 22
0.087880
 32
0.235996
 13
0.357018
 23
0.087880
 33
0.235996
 62
0
  0
3DFACE
  8
NoName1
 10
0.085783
 20
-0.380243
 30
-0.338178
 11
0.103483
 21
-0.309911
 31
-0.364181
 12
0.023910
 22
-0.351458
 32
-0.308757
 13
0.023910
 23
-0.351458
 33
-0.308757
 62
0
  0
3DFACE
  8
NoName1
 10
0.274180
 20
0.062556
 30
-0.260115
 11
0.343378
 21
0.121776
 31
-0.327689
 12
0.284759
 22
0.140855
 32
-0.320865
 13
0.284759
 23
0.140855
 33
-0.320865
 62
0
  0
3DFACE
  8
NoName1
 10
0.103483
 20
-0.309911
 30
-0.364181
 11
0.167173
 21
-0.357206
 31
-0.341265
 12
0.141637
 22
-0.271924
 32
-0.361382
 13
0.141637
 23
-0.271924
 33
-0.361382
 62
0
  0
3DFACE
  8
NoName1
 10
-0.265320
 20
0.283149
 30
-0.223038
 11
-0.271558
 21
0.146388
 31
-0.137957
 12
-0.247557
 22
0.181174
 32
-0.222740
 13
-0.247557
 23
0.181174
 33
-0.222740
 62
0
  0
3DFACE
  8
NoName1
 10
0.371575
 20
0.044106
 30
0.258076
 11
0.357018
 21
0.087880
 31
0.235996
 12
0.336007
 22
0.042815
 32
0.302227
 13
0.336007
 23
0.042815
 33
0.302227
 62
0
  0
3DFACE
  8
NoName1
 10
-0.247603
 20
0.003831
 30
-0.121076
 11
-0.144789
 21
0.049953
 31
-0.168611
 12
-0.221445
 22
0.075815
 32
-0.163207
 13
-0.221445
 23
0.075815
 33
-0.163207
 62
0
  0
3DFACE
  8
NoName1
 10
0.181109
 20
0.023339
 30
-0.226687
 11
0.060332
 21
-0.033431
 31
-0.190298
 12
0.130205
 22
-0.090859
 32
-0.166154
 13
0.130205
 23
-0.090859
 33
-0.166154
 62
0
  0
3DFACE
  8
NoName1
 10
-0.048792
 20
-0.438941
 30
-0.190641
 11
-0.068098
 21
-0.407241
 31
-0.147276
 12
-0.127127
 22
-0.471088
 32
-0.163157
 13
-0.127127
 23
-0.471088
 33
-0.163157
 62
0
  0
3DFACE
  8
NoName1
 10
-0.165112
 20
-0.514943
 30
-0.148687
 11
-0.106233
 21
-0.574626
 31
-0.124092
 12
-0.008799
 22
-0.497695
 32
-0.206993
 13
-0.008799
 23
-0.497695
 33
-0.206993
 62
0
  0
3DFACE
  8
NoName1
 10
-0.008799
 20
-0.497695
 30
-0.206993
 11
-0.106233
 21
-0.574626
 31
-0.124092
 12
-0.028704
 22
-0.585274
 32
-0.132039
 13
-0.028704
 23
-0.585274
 33
-0.132039
 62
0
  0
3DFACE
  8
NoName1
 10
0.102132
 20
-0.435675
 30
-0.293033
 11
0.167173
 21
-0.357206
 31
-0.341265
 12
0.085783
 22
-0.380243
 32
-0.338178
 13
0.085783
 23
-0.380243
 33
-0.338178
 62
0
  0
3DFACE
  8
NoName1
 10
0.102246
 20
-0.201760
 30
-0.048465
 11
0.170481
 21
-0.103366
 31
-0.115550
 12
0.130205
 22
-0.090859
 32
-0.166154
 13
0.130205
 23
-0.090859
 33
-0.166154
 62
0
  0
3DFACE
  8
NoName1
 10
-0.196727
 20
-0.054527
 30
-0.151348
 11
-0.301237
 21
-0.064452
 31
-0.087220
 12
-0.264202
 22
-0.157870
 32
-0.141453
 13
-0.264202
 23
-0.157870
 33
-0.141453
 62
0
  0
3DFACE
  8
NoName1
 10
-0.142426
 20
-0.348386
 30
-0.159754
 11
-0.148880
 21
-0.192778
 31
-0.169833
 12
-0.249333
 22
-0.231928
 32
-0.160503
 13
-0.249333
 23
-0.231928
 33
-0.160503
 62
0
  0
3DFACE
  8
NoName1
 10
0.067809
 20
-0.116100
 30
-0.148997
 11
0.102246
 21
-0.201760
 31
-0.048465
 12
0.130205
 22
-0.090859
 32
-0.166154
 13
0.130205
 23
-0.090859
 33
-0.166154
 62
0
  0
3DFACE
  8
NoName1
 10
-0.127127
 20
-0.471088
 30
-0.163157
 11
-0.165112
 21
-0.514943
 31
-0.148687
 12
-0.048792
 22
-0.438941
 32
-0.190641
 13
-0.048792
 23
-0.438941
 33
-0.190641
 62
0
  0
3DFACE
  8
NoName1
 10
-0.216977
 20
0.355610
 30
-0.410027
 11
-0.203950
 21
0.302554
 31
-0.408284
 12
-0.170139
 22
0.365934
 32
-0.435920
 13
-0.170139
 23
0.365934
 33
-0.435920
 62
0
  0
3DFACE
  8
NoName1
 10
-0.235911
 20
0.258691
 30
-0.317049
 11
-0.189612
 21
0.224073
 31
-0.343561
 12
-0.203950
 22
0.302554
 32
-0.408284
 13
-0.203950
 23
0.302554
 33
-0.408284
 62
0
  0
3DFACE
  8
NoName1
 10
0.379493
 20
0.194678
 30
0.208246
 11
0.385862
 21
0.080042
 31
0.215347
 12
0.387139
 22
0.143581
 32
0.183229
 13
0.387139
 23
0.143581
 33
0.183229
 62
0
  0
3DFACE
  8
NoName1
 10
-0.148880
 20
-0.192778
 30
-0.169833
 11
-0.215430
 21
-0.128063
 31
-0.166347
 12
-0.249333
 22
-0.231928
 32
-0.160503
 13
-0.249333
 23
-0.231928
 33
-0.160503
 62
0
  0
3DFACE
  8
NoName1
 10
-0.304403
 20
0.032919
 30
-0.049487
 11
-0.247603
 21
0.003831
 31
-0.121076
 12
-0.277774
 22
0.093999
 32
-0.097718
 13
-0.277774
 23
0.093999
 33
-0.097718
 62
0
  0
3DFACE
  8
NoName1
 10
0.054542
 20
0.265971
 30
0.220250
 11
0.001491
 21
0.165615
 31
0.285255
 12
0.018327
 22
0.196280
 32
0.190198
 13
0.018327
 23
0.196280
 33
0.190198
 62
0
  0
3DFACE
  8
NoName1
 10
-0.221445
 20
0.075815
 30
-0.163207
 11
-0.271558
 21
0.146388
 31
-0.137957
 12
-0.277774
 22
0.093999
 32
-0.097718
 13
-0.277774
 23
0.093999
 33
-0.097718
 62
0
  0
3DFACE
  8
NoName1
 10
-0.247603
 20
0.003831
 30
-0.121076
 11
-0.221445
 21
0.075815
 31
-0.163207
 12
-0.277774
 22
0.093999
 32
-0.097718
 13
-0.277774
 23
0.093999
 33
-0.097718
 62
0
  0
3DFACE
  8
NoName1
 10
-0.125312
 20
-0.090547
 30
-0.163484
 11
-0.196727
 21
-0.054527
 31
-0.151348
 12
-0.215430
 22
-0.128063
 32
-0.166347
 13
-0.215430
 23
-0.128063
 33
-0.166347
 62
0
  0
3DFACE
  8
NoName1
 10
0.001491
 20
0.165615
 30
0.285255
 11
0.054542
 21
0.265971
 31
0.220250
 12
0.038786
 22
0.258441
 32
0.298978
 13
0.038786
 23
0.258441
 33
0.298978
 62
0
  0
3DFACE
  8
NoName1
 10
0.140851
 20
-0.378693
 30
-0.136025
 11
0.165651
 21
-0.360037
 31
-0.192280
 12
0.117613
 22
-0.423950
 32
-0.119011
 13
0.117613
 23
-0.423950
 33
-0.119011
 62
0
  0
3DFACE
  8
NoName1
 10
0.024433
 20
-0.179956
 30
-0.128637
 11
-0.021412
 21
-0.085872
 31
-0.168684
 12
-0.069928
 22
-0.124609
 32
-0.168937
 13
-0.069928
 23
-0.124609
 33
-0.168937
 62
0
  0
3DFACE
  8
NoName1
 10
-0.021412
 20
-0.085872
 30
-0.168684
 11
-0.125312
 21
-0.090547
 31
-0.163484
 12
-0.069928
 22
-0.124609
 32
-0.168937
 13
-0.069928
 23
-0.124609
 33
-0.168937
 62
0
  0
3DFACE
  8
NoName1
 10
-0.525468
 20
-0.429921
 30
0.021375
 11
-0.540154
 21
-0.368836
 31
-0.084375
 12
-0.543776
 22
-0.336194
 32
-0.022221
 13
-0.543776
 23
-0.336194
 33
-0.022221
 62
0
  0
3DFACE
  8
NoName1
 10
-0.170139
 20
0.365934
 30
-0.435920
 11
-0.195236
 21
0.409263
 31
-0.389384
 12
-0.216977
 22
0.355610
 32
-0.410027
 13
-0.216977
 23
0.355610
 33
-0.410027
 62
0
  0
3DFACE
  8
NoName1
 10
0.099169
 20
0.130932
 30
-0.062903
 11
0.116731
 21
0.101836
 31
-0.093138
 12
0.170802
 22
0.117968
 32
-0.090542
 13
0.170802
 23
0.117968
 33
-0.090542
 62
0
  0
3DFACE
  8
NoName1
 10
-0.391642
 20
-0.220079
 30
-0.161456
 11
-0.390374
 21
-0.151154
 31
-0.242565
 12
-0.405502
 22
-0.215987
 32
-0.207538
 13
-0.405502
 23
-0.215987
 33
-0.207538
 62
0
  0
3DFACE
  8
NoName1
 10
-0.336640
 20
-0.095491
 30
-0.051161
 11
-0.304403
 21
0.032919
 31
-0.049487
 12
-0.341998
 22
-0.033675
 32
-0.005788
 13
-0.341998
 23
-0.033675
 33
-0.005788
 62
0
  0
3DFACE
  8
NoName1
 10
-0.265320
 20
0.283149
 30
-0.223038
 11
-0.251370
 21
0.311354
 31
-0.323275
 12
-0.244157
 22
0.363353
 32
-0.312263
 13
-0.244157
 23
0.363353
 33
-0.312263
 62
0
  0
3DFACE
  8
NoName1
 10
-0.564686
 20
-0.154847
 30
-0.214024
 11
-0.557931
 21
-0.053964
 31
-0.290278
 12
-0.556198
 22
-0.081604
 32
-0.198923
 13
-0.556198
 23
-0.081604
 33
-0.198923
 62
0
  0
3DFACE
  8
NoName1
 10
-0.481842
 20
-0.245270
 30
-0.025440
 11
-0.408972
 21
-0.220249
 31
-0.070614
 12
-0.471044
 22
-0.247640
 32
0.004199
 13
-0.471044
 23
-0.247640
 33
0.004199
 62
0
  0
3DFACE
  8
NoName1
 10
-0.244157
 20
0.363353
 30
-0.312263
 11
-0.251370
 21
0.311354
 31
-0.323275
 12
-0.216977
 22
0.355610
 32
-0.410027
 13
-0.216977
 23
0.355610
 33
-0.410027
 62
0
  0
3DFACE
  8
NoName1
 10
0.060332
 20
-0.033431
 30
-0.190298
 11
-0.021412
 21
-0.085872
 31
-0.168684
 12
0.067809
 22
-0.116100
 32
-0.148997
 13
0.067809
 23
-0.116100
 33
-0.148997
 62
0
  0
3DFACE
  8
NoName1
 10
0.067809
 20
-0.116100
 30
-0.148997
 11
-0.021412
 21
-0.085872
 31
-0.168684
 12
0.024433
 22
-0.179956
 32
-0.128637
 13
0.024433
 23
-0.179956
 33
-0.128637
 62
0
  0
3DFACE
  8
NoName1
 10
-0.008799
 20
-0.497695
 30
-0.206993
 11
-0.028704
 21
-0.585274
 31
-0.132039
 12
0.037071
 22
-0.541958
 32
-0.135433
 13
0.037071
 23
-0.541958
 33
-0.135433
 62
0
  0
3DFACE
  8
NoName1
 10
-0.003006
 20
0.306558
 30
0.278111
 11
-0.028785
 21
0.245311
 31
0.327836
 12
-0.004558
 22
0.287148
 32
0.250608
 13
-0.004558
 23
0.287148
 33
0.250608
 62
0
  0
3DFACE
  8
NoName1
 10
0.069036
 20
0.081139
 30
-0.125057
 11
-0.046168
 21
0.068001
 31
-0.134958
 12
-0.059172
 22
0.000099
 32
-0.140883
 13
-0.059172
 23
0.000099
 33
-0.140883
 62
0
  0
3DFACE
  8
NoName1
 10
-0.304403
 20
0.032919
 30
-0.049487
 11
-0.336640
 21
-0.095491
 31
-0.051161
 12
-0.301237
 22
-0.064452
 32
-0.087220
 13
-0.301237
 23
-0.064452
 33
-0.087220
 62
0
  0
3DFACE
  8
NoName1
 10
-0.334017
 20
-0.258533
 30
-0.142554
 11
-0.338788
 21
-0.181610
 31
-0.100538
 12
-0.408972
 22
-0.220249
 32
-0.070614
 13
-0.408972
 23
-0.220249
 33
-0.070614
 62
0
  0
3DFACE
  8
NoName1
 10
-0.545391
 20
-0.268940
 30
-0.098130
 11
-0.543776
 21
-0.336194
 31
-0.022221
 12
-0.540154
 22
-0.368836
 32
-0.084375
 13
-0.540154
 23
-0.368836
 33
-0.084375
 62
0
  0
3DFACE
  8
NoName1
 10
0.343378
 20
0.121776
 30
-0.327689
 11
0.274180
 21
0.062556
 31
-0.260115
 12
0.328009
 22
0.063362
 32
-0.247661
 13
0.328009
 23
0.063362
 33
-0.247661
 62
0
  0
3DFACE
  8
NoName1
 10
0.152127
 20
-0.422535
 30
-0.271100
 11
0.102132
 21
-0.435675
 31
-0.293033
 12
0.091227
 22
-0.469356
 32
-0.230193
 13
0.091227
 23
-0.469356
 33
-0.230193
 62
0
  0
3DFACE
  8
NoName1
 10
-0.136181
 20
0.301025
 30
-0.415579
 11
-0.170139
 21
0.365934
 31
-0.435920
 12
-0.203950
 22
0.302554
 32
-0.408284
 13
-0.203950
 23
0.302554
 33
-0.408284
 62
0
  0
3DFACE
  8
NoName1
 10
0.167173
 20
-0.357206
 30
-0.341265
 11
0.102132
 21
-0.435675
 31
-0.293033
 12
0.152127
 22
-0.422535
 32
-0.271100
 13
0.152127
 23
-0.422535
 33
-0.271100
 62
0
  0
3DFACE
  8
NoName1
 10
-0.446462
 20
-0.289000
 30
-0.160966
 11
-0.405502
 21
-0.215987
 31
-0.207538
 12
-0.474943
 22
-0.222718
 32
-0.231916
 13
-0.474943
 23
-0.222718
 33
-0.231916
 62
0
  0
3DFACE
  8
NoName1
 10
0.389010
 20
0.065932
 30
0.256284
 11
0.385862
 21
0.080042
 31
0.215347
 12
0.371575
 22
0.044106
 32
0.258076
 13
0.371575
 23
0.044106
 33
0.258076
 62
0
  0
3DFACE
  8
NoName1
 10
-0.078609
 20
-0.198686
 30
-0.166126
 11
-0.148880
 21
-0.192778
 31
-0.169833
 12
-0.058258
 22
-0.272818
 32
-0.147288
 13
-0.058258
 23
-0.272818
 33
-0.147288
 62
0
  0
3DFACE
  8
NoName1
 10
-0.423246
 20
-0.159433
 30
-0.285174
 11
-0.474943
 21
-0.222718
 31
-0.231916
 12
-0.405502
 22
-0.215987
 32
-0.207538
 13
-0.405502
 23
-0.215987
 33
-0.207538
 62
0
  0
3DFACE
  8
NoName1
 10
-0.390409
 20
-0.169115
 30
-0.005546
 11
-0.448782
 21
-0.223225
 31
0.070403
 12
-0.442888
 22
-0.231304
 32
0.039647
 13
-0.442888
 23
-0.231304
 33
0.039647
 62
0
  0
3DFACE
  8
NoName1
 10
-0.265320
 20
0.283149
 30
-0.223038
 11
-0.247557
 21
0.181174
 31
-0.222740
 12
-0.235911
 22
0.258691
 32
-0.317049
 13
-0.235911
 23
0.258691
 33
-0.317049
 62
0
  0
3DFACE
  8
NoName1
 10
0.001401
 20
-0.601915
 30
-0.073219
 11
-0.028704
 21
-0.585274
 31
-0.132039
 12
-0.070149
 22
-0.632177
 32
-0.045951
 13
-0.070149
 23
-0.632177
 33
-0.045951
 62
0
  0
3DFACE
  8
NoName1
 10
-0.194469
 20
-0.453516
 30
-0.152135
 11
-0.165112
 21
-0.514943
 31
-0.148687
 12
-0.127127
 22
-0.471088
 32
-0.163157
 13
-0.127127
 23
-0.471088
 33
-0.163157
 62
0
  0
3DFACE
  8
NoName1
 10
0.382407
 20
0.171302
 30
-0.351833
 11
0.328009
 21
0.063362
 31
-0.247661
 12
0.410188
 22
0.133820
 32
-0.303697
 13
0.410188
 23
0.133820
 33
-0.303697
 62
0
  0
3DFACE
  8
NoName1
 10
0.210881
 20
-0.029077
 30
-0.180963
 11
0.328009
 21
0.063362
 31
-0.247661
 12
0.274180
 22
0.062556
 32
-0.260115
 13
0.274180
 23
0.062556
 33
-0.260115
 62
0
  0
3DFACE
  8
NoName1
 10
0.229279
 20
0.194311
 30
-0.257295
 11
0.136001
 21
0.113824
 31
-0.165818
 12
0.169191
 22
0.103165
 32
-0.215678
 13
0.169191
 23
0.103165
 33
-0.215678
 62
0
  0
3DFACE
  8
NoName1
 10
-0.541379
 20
-0.258527
 30
-0.161693
 11
-0.545391
 21
-0.268940
 31
-0.098130
 12
-0.540154
 22
-0.368836
 32
-0.084375
 13
-0.540154
 23
-0.368836
 33
-0.084375
 62
0
  0
3DFACE
  8
NoName1
 10
0.229279
 20
0.194311
 30
-0.257295
 11
0.169191
 21
0.103165
 31
-0.215678
 12
0.209376
 22
0.128436
 32
-0.256768
 13
0.209376
 23
0.128436
 33
-0.256768
 62
0
  0
3DFACE
  8
NoName1
 10
-0.446462
 20
-0.289000
 30
-0.160966
 11
-0.375240
 21
-0.336407
 31
-0.149315
 12
-0.378820
 22
-0.263282
 32
-0.146720
 13
-0.378820
 23
-0.263282
 33
-0.146720
 62
0
 0
ENDSEC
 0
EOF
